<?xml version="1.0" encoding="utf-8" ?>
<svg baseProfile="full" height="300mm" version="1.1" viewBox="0,0,200,300" width="200mm" xmlns="http://www.w3.org/2000/svg" xmlns:ev="http://www.w3.org/2001/xml-events" xmlns:xlink="http://www.w3.org/1999/xlink"><defs /><rect fill="#222222" height="300" width="200" x="0" y="0" /><text fill="#FFFFFF" style="font-size:12px; font-family:Arial; font-weight:bold;" x="10" y="20">Over 5km Runs</text><text fill="#FFFFFF" style="font-size:4px; font-family:Arial" x="10" y="280">ATHLETE</text><text fill="#FFFFFF" style="font-size:9px; font-family:Arial" x="10" y="290">Wenz</text><text fill="#FFFFFF" style="font-size:4px; font-family:Arial" x="120" y="280">STATISTICS</text><text fill="#FFFFFF" style="font-size:3px; font-family:Arial" x="120" y="285">Number: 19</text><text fill="#FFFFFF" style="font-size:3px; font-family:Arial" x="120" y="290">Weekly: 2.4</text><text fill="#FFFFFF" style="font-size:3px; font-family:Arial" x="141" y="285">Total: 140.7 km</text><text fill="#FFFFFF" style="font-size:3px; font-family:Arial" x="141" y="290">Avg: 7.4 km</text><text fill="#FFFFFF" style="font-size:3px; font-family:Arial" x="167" y="285">Min: 5.0 km</text><text fill="#FFFFFF" style="font-size:3px; font-family:Arial" x="167" y="290">Max: 15.0 km</text><polyline fill="none" points="29.68177189407288,47.77595982897765 30.9877800407412,47.85978226601583 33.72352342159138,46.89582017548673 34.988289205677575,47.67118168804154 35.7718940936611,47.73404858526192 36.692973523400724,48.278893441311084 37.54531568227685,48.19507134088781 38.3701629327843,48.739913790159335 40.40478615069878,47.377802333721775 41.69704684318276,49.36857462024636 41.40835030551534,51.90413486382022 42.15071283094585,53.66432227877522 43.07179226068547,55.25684721786092 45.477596741344314,57.49891350998223 50.37169042768073,63.78482387508848 52.28258655805257,69.25325796783 52.695010183320846,69.10659872328688 52.75,68.31044494293747 51.15529531566426,64.43434636624443 50.289205702603795,60.788587152637774 50.41293279020465,60.453338532621274 51.746435845212545,59.78283806220861 50.20672097761417,53.077596438910405 48.488289205677575,48.94946782093757 44.81771894093254,44.611613588429464 41.47708757634973,41.950135511069675 37.930244399176445,40.23166478537314 34.3971486761875,39.498162565912935 31.496435845212545,39.26763223209127 27.385947046801448,39.644863422217895 27.042260692454875,38.89039967833378 25.186354378820397,37.52815965881018 23.220468431769405,36.41739694324497 21.680753564171027,35.93536416153074 19.783604887954425,35.746742032170005 13.281059063127032,36.249733619522885 12.25,36.62697571900935 20.18228105903836,36.27069154970377 22.766802443977213,36.89942749831971 23.605397148639895,37.59103266655438 22.78054989813245,39.26763223209127 22.450610997941112,42.20161665836349 25.090122199617326,43.24944824899285 23.646639511192916,46.5395710626035 25.85997963338741,45.86898119819671 28.55448065174278,46.14140885027882 29.338085539726308,46.434791680352646 29.200610997970216,47.67118168804154" stroke="#4dd2ff" stroke-linecap="round" stroke-linejoin="round" stroke-width="0.5"><title>2022-05-12 7.0km</title></polyline><polyline fill="none" points="71.91965648857877,45.526714833118604 73.65095419849968,45.526714833118604 76.5106870229356,44.5370618183515 77.19083969469648,45.14970514495508 79.5868320610607,45.97441226460796 81.02442748093745,46.02153821069078 81.68912213743897,46.6577366302954 84.13148854963947,45.173268285929225 85.35267175571062,47.15255523879023 85.16717557254015,50.61622707948118 86.20286259544082,52.71323041564028 87.74866412219126,54.9044410583665 89.72729007637827,56.57727325653832 92.74160305340774,60.25270813918178 93.05076335876947,61.14798894582054 94.53473282442428,62.679374493403884 95.49312977096997,64.35209587321151 96.88435114506865,69.11097559999325 97.75,68.87539203446067 95.18396946566645,61.124429012103064 95.04484732821584,59.99354663108534 96.63702290074434,59.00401560850878 94.9520992366597,51.60582882865128 93.82366412214469,48.56631119507074 92.95801526715513,46.91692759020225 89.47996183205396,42.722676280704036 86.68206106871367,40.20134070840868 83.52862595417537,38.104113773821155 81.44179389311466,37.11439815734775 79.18492366408464,36.52527775581984 73.97557251912076,35.88902440000675 68.99809160310542,36.3603235133196 67.68416030536173,36.85518554509326 65.56641221378231,36.73736144105351 58.14656488550827,37.65638631463662 58.02290076337522,38.62253290805529 57.574618320621084,38.57540399053687 57.31183206109563,38.928870410883974 57.25,40.272033098124666 57.55916030536173,40.649058457383944 59.893320610688534,40.554802231199574 63.92786259541754,41.214594225042674 65.64370229007909,41.992201455301256 65.16450381680625,44.18361229044967 67.80782442749478,43.264638535467384 69.66278625960695,43.42958307269146 71.54866412217962,43.99510544021177 71.23950381681789,45.173268285929225" stroke="#4dd2ff" stroke-linecap="round" stroke-linejoin="round" stroke-width="0.5"><title>2022-05-10 6.0km</title></polyline><polyline fill="none" points="125.71757296085707,49.14404836278845 126.72779995013843,49.12864921238361 128.70784484909382,48.420284952291695 130.8798328760313,49.3904343483664 131.77893489648704,49.3904343483664 132.0516961835965,49.74461281587719 133.54683212772943,48.80526634011767 133.79938887504977,48.92845997607219 134.5671613868908,50.098789647723606 134.31460463957046,51.99283798640681 134.91063856321853,53.45568883448868 135.84004739337252,54.872317798908625 137.4867173859093,56.39670452192513 140.26484160640393,59.96888603261323 141.12353454728145,61.3084112077122 142.13376153656282,64.74179994401493 142.75,64.71100790290802 142.40652282367228,63.20218274599756 141.588238962373,61.354601313738385 140.91138687953935,58.98347326764633 140.89118233975023,58.475364863697905 141.93171613870072,57.89026616812771 140.35576203541132,51.469284586994036 139.5879895235994,49.8986029437292 137.66855824398226,47.4963217365148 135.5066724869248,45.52516300325078 134.28429782990133,44.7089652574723 132.10220753305475,43.58475413967244 130.08175355452113,43.09194407048926 127.1116862060444,42.81473701483628 124.08100523822941,43.04574296413921 123.70722125220345,42.42972555296001 121.23216512845829,40.797255480938475 118.55506360688014,40.18122000727453 113.86761037667748,40.52004013024998 113.13014467447647,40.766453824828204 111.65521327016177,40.72025131741975 109.07913444752921,42.73773487710423 106.9778623097809,43.76955709918548 103.06828386132838,43.66175542693236 102.4520453978621,43.38455043100112 102.25,43.75415686954511 105.54333998504444,44.15456183441711 107.41225991517422,44.015960352437105 109.41250935394783,42.95334066790383 111.91787228733301,40.766453824828204 115.13039411325008,40.78185465442948 115.94867797454935,40.47383747433196 116.96900723373983,40.6894496302848 119.72692691444536,40.766453824828204 121.54533549514599,41.49028947352781 122.11106260912493,41.01286672758579 123.08088051882805,41.983109835520736 123.81834622102906,42.291120953486825 123.80824395114905,43.01494221109897 123.40415315542486,43.276748217540444 124.37397106509889,44.03136052945774 126.54595909203636,44.262362813904474 129.28367423298187,43.89275882473885 130.29390122226323,44.33936342079687 131.7284235469997,45.58676248053962 132.44568470944068,45.309564442926785 134.90053629333852,47.29612823915522 136.42597904714057,49.74461281587719 136.21383137939847,49.513627044303576 134.59746819655993,50.345172566056135 134.2640932900831,51.823453454169794 134.42572960839607,52.423996925856045 135.84004739337252,54.872317798908625 137.3048765278072,56.18113652160537 140.70934148167726,60.461587667457934 142.3358069344249,64.81877999272547 142.62877276129439,64.6956118777307 142.6590795709635,64.21833356413117 141.09322773761232,60.40000013620738 140.7598528311355,58.75251531950926 140.850773260172,58.49076213749504 141.8913070591516,57.936458332667826 140.58811424297164,52.423996925856045 139.79003492146148,50.36057147219981 136.81996757298475,46.78794239887793 134.6681840858073,45.06316534616781 131.97087802446913,43.58475413967244 128.1724245447549,42.860938260339026 124.01028934895294,42.99954182996589 123.77793714145082,42.41432505429839 122.10096033924492,41.13607288208004 120.13101771016954,40.42763479062705 118.77731354453135,40.2120218985292 114.51415564978379,40.48923836270842 112.79676976802875,40.82805712475238 116.39317784985178,40.59704449484707 116.34266650039353,42.691533557357616 116.04970067346585,44.30856318726728 116.64573459717212,44.50876448369672 116.22143926165882,44.6319650217265 116.29215515093529,45.77156061567075 120.22193813920603,46.202754532467225 121.50492641559686,46.68014496952674" stroke="#4dd2ff" stroke-linecap="round" stroke-linejoin="round" stroke-width="0.5"><title>2022-05-08 15.0km</title></polyline><polyline fill="none" points="161.8287671232829,45.36005607824336 162.9537671232829,45.4070387267202 166.32876712322468,44.326433038506366 169.62671232875437,45.75940798873489 170.81335616437718,45.71242548182636 171.50684931501746,46.37017886223475 173.27910958905704,45.19561665999208 174.09589041094296,45.10165117444558 175.32876712322468,47.12189248321374 174.94349315064028,49.635399827755464 175.7448630136787,51.796503155186656 177.79452054790454,54.80318920695572 179.67465753422584,56.28301412478322 185.00684931507567,63.35303040736471 187.07191780820722,69.27178527751676 187.75,69.10737946269364 187.68835616437718,68.30883364766487 185.96232876705471,64.08114735500567 184.89897260273574,59.712377702097 186.50171232875437,58.8198132964535 184.7602739725844,50.97434898519714 183.85102739720605,48.31992608363362 182.71061643830035,46.37017886223475 179.58219178079162,42.65852205790725 175.7910958903376,39.322628757348866 170.98287671228172,36.71492761160334 163.446917808149,35.728214722483244 148.19006849313155,37.39622451132891 148.0667808218859,38.28895237416873 147.2808219177532,38.6178503959236 147.25,39.53406143777829" stroke="#4dd2ff" stroke-linecap="round" stroke-linejoin="round" stroke-width="0.5"><title>2022-05-05 5.1km</title></polyline><polyline fill="none" points="29.52727272725315,96.72002177774993 31.340909090911737,96.8447393035458 33.68636363634141,95.99249988234078 36.740909090905916,97.17731863791414 37.8590909090708,97.17731863791414 38.227272727293894,97.63461347793054 40.35454545455286,96.38744097424933 40.531818181829294,96.5121589007831 41.58181818181765,98.32055195040448 41.29545454547042,100.33676902522711 41.963636363623664,102.51922778594599 43.21818181819981,104.45222426630062 45.563636363629485,106.6761648142492 47.90909090908826,109.502786655612 50.4454545454646,113.34769983311708 51.836363636364695,117.83671508320549 52.75,117.83671508320549 50.51363636361202,110.25099716641125 50.45909090907662,109.2118144410706 51.49545454545296,108.9208414087916 51.65909090905916,108.58829979912844 50.022727272764314,101.29289947873622 48.27727272725315,97.75932990192086 45.46818181819981,94.28799999113107 41.35000000000582,90.85812856697157 37.8590909090708,89.09118075357401 33.031818181829294,88.21808952396532 27.522727272706106,88.48833283433487 27.059090909082443,87.65681270190544 24.140909090900095,85.57798314720276 21.904545454512117,84.82959428715549 19.5863636363938,84.66328491679451 13.8045454545354,85.12063504238176 12.277272727282252,85.57798314720276 12.25,85.78586798135075 17.145454545447137,85.43246351480775 16.709090909105726,90.21371579966944 17.40454545454122,90.4423788537024 17.00909090906498,90.46316637899145 16.940909090917557,92.20930360334023 22.272727272706106,92.79134279944265 24.099999999976717,93.41495259236399 24.29090909092338,93.72675607998099 23.677272727247328,95.09868026850745 23.772727272706106,95.43126521241356 26.199999999982538,94.76609425600327 27.890909090900095,94.87002749970998 29.949999999982538,95.55598429092788 31.204545454558684,95.53519778826012 32.3909090909292,95.11946685877774" stroke="#4dd2ff" stroke-linecap="round" stroke-linejoin="round" stroke-width="0.5"><title>2022-05-04 7.1km</title></polyline><polyline fill="none" points="71.43809433240676,93.98360431284527 73.88750475464622,93.93663946923334 76.36772537085926,93.06778646152088 79.46414986689342,94.38280472154293 81.09709014830878,94.57066326585482 81.29735640925355,95.1577192720506 83.87000760744559,93.63136752646096 85.27187143400079,95.74477233127254 84.90214910614304,98.53910449653631 85.70321414986392,100.53501516697725 87.61344617727445,103.32923288246093 89.60070368961897,105.06677998304076 94.48411943705287,111.28886530295858 95.22356409282656,112.53324264706316 96.82569418032654,117.90973975085944 97.75,117.88626213477983 97.51892354513984,116.45411864458583 95.57788132369751,112.11062541099818 94.915462152916,109.31661748648185 94.86924686189741,108.42439921531331 96.27111068845261,107.8374097987762 96.47137694939738,107.46173502603779 93.96034613926895,97.57635893653787 92.60469760361593,94.89941499240376 91.09499809815316,92.9503733978272 85.37970711296657,87.85453285194671 81.32816660328535,85.67053321243293 76.61420692282263,84.63722884635354 71.57674020540435,84.59026024914056 67.63303537468892,85.34175554089597 65.30686572840204,85.31827138614608 58.128090528713074,86.18718197167618 58.08187523775268,87.07956990669481 57.80458349181572,87.43182642762258 57.357835678965785,87.26744018319732 57.25,88.01891827102372 57.357835678965785,89.21657649248664 57.989444655773696,89.99152527636761 60.51588056294713,91.5414074384098 64.62904146063374,92.69206424269942 65.49172689236002,94.68807470288448 65.52253708633361,96.73101483695791 69.20435526815709,97.74073069074802" stroke="#4dd2ff" stroke-linecap="round" stroke-linejoin="round" stroke-width="0.5"><title>2022-05-01 6.0km</title></polyline><polyline fill="none" points="111.46545827633236,92.65157195220672 111.35465116275009,92.34191032393574 113.84781121753622,92.5952698888359 115.54685362515738,91.97594569958164 115.65766073873965,92.76417601112189 115.63919288641773,91.97594569958164 117.11662106699077,91.41292133524257 118.26162790699163,92.22930592584453 119.9606703146128,92.42636356307776 121.1795485636103,93.1301385779152 122.84165526676225,93.04568576269958 123.22948016418377,93.80575926847087 125.83344733243575,92.17300369292207 126.33207934338134,92.28560813626973 127.8464432284818,94.62212992556306 127.5140218877932,98.42241351809935 128.45588235300966,100.47733877306746 129.82250342000043,102.72927706696646 132.9066347469343,105.60044593521161 139.11183310538763,113.3973431964987 141.95588235300966,121.39082385261281 142.75,121.19380691944389 142.65766073873965,120.06799056219461 139.37038303696318,110.97669226049766 139.55506155954208,109.65376071627543 141.27257181948517,108.66859081933217 138.94562243501423,98.76021151890745 136.9326265390264,94.00281468991307 133.091313269455,89.32971152700338 127.8464432284818,84.96613119624817 122.34302325581666,82.29161160199874 118.79719562240643,81.41886258763407 113.73700410401216,81.10917614738719 108.14124487002846,81.67224189341505 107.5133378932951,82.0663865700044 108.52906976744998,83.05174341351812 110.92989056085935,83.75556549005705 117.39363885088824,82.99543749474105 119.0557455540984,83.36142556253617 122.08447332424112,85.9796200273995 123.91279069765005,85.36026661230426 125.02086183312349,86.71157962666621 128.60362517100293,89.55492489046446 130.87517099868273,93.24274225247063 127.93878248974215,94.93178651752532 127.45861833106028,97.38086455849407 127.73563611495774,99.04170923138008 130.35807113541523,103.32040487573249 133.34986320114695,106.05082003085408 139.37038303696318,113.98842603037338 141.8820109438966,121.36267859342479 142.71306429553078,121.2219522125888 142.63919288653415,120.06799056219461 140.57079343363876,115.00170509144664 139.3888508892269,110.24485933182586 139.61046511633322,109.71005592984147 141.25410396716325,108.66859081933217 139.18570451438427,99.6610022090972 136.87722298229346,93.80575926847087 132.7773597810883,88.96373903963831 127.6617647059029,84.76906307269383 123.08173734613229,82.48868320814654 115.9346785225789,81.27809610866098 113.53385772911133,81.13732948836696 106.68228454171913,82.15084599937836 102.5824213406886,82.31976470554218 102.25,84.9098260463361 105.37106703151949,86.45820942865248" stroke="#4dd2ff" stroke-linecap="round" stroke-linejoin="round" stroke-width="0.5"><title>2022-04-30 10.1km</title></polyline><polyline fill="none" points="161.35171428567264,95.05448951026483 163.60428571427474,95.19559873730759 166.31971428566612,94.2078305776231 169.79114285710966,95.73651586625056 171.1642857142724,95.59540729087894 171.5654285714263,96.15984057254536 174.064857142861,94.8193070872876 175.3917142857099,97.00648539502436 174.97514285711804,99.59341776781366 176.0397142856964,102.18029300660419 177.79857142851688,104.67304600261559 179.66542857140303,106.20159471428633 184.9728571427986,112.99751595965063 186.83971428568475,118.7584552907283 187.08657142851735,119.20521017690044 187.75,119.0406164697124 187.5339999999269,117.20655665796221 184.9728571427986,110.24627354332188 185.0654285714263,109.51730104850867 186.392285714217,108.9999629774029 186.56199999997625,108.64723116433015 184.67971428565215,100.463554906637 182.9671428570873,96.67723535789992 178.56999999994878,91.55022250490583 174.9597142856801,88.63383982581581 171.5037142856745,86.89338330366445 166.25799999997253,85.76442470298207 162.74028571427334,85.67034432830405 159.06828571431106,86.0231453434535 157.55628571432317,86.51706497921259 155.88999999995576,86.42298520922486 148.6694285714184,87.26970041891036 148.2374285713886,87.38729926945234 147.97514285711804,88.2340075076936 147.25,88.13992911689274 147.4042857142631,86.25834542983648 153.39057142857928,85.7879447847954 153.46771428571083,84.0709663968446 153.99228571431013,83.29478982309956 154.99514285713667,83.88280285135988 154.11571428569732,85.5762638781016 153.76085714285728,88.93959303041629 157.03171428572387,89.99796334437269 154.99514285713667,94.34894082477695 155.55057142855367,96.13632257340942 155.45799999998417,97.82960643850674 158.2197142857476,98.55865167501906 160.42599999997765,100.01672853471246 162.24657142854994,97.71201807211764 160.54942857142305,96.81834262999473 160.8734285714454,95.38374410900724 161.28999999997905,95.2426351085669" stroke="#4dd2ff" stroke-linecap="round" stroke-linejoin="round" stroke-width="0.5"><title>2022-04-28 7.1km</title></polyline><polyline fill="none" points="35.5284147557104,146.50807499372604 35.66974077769555,146.66195151927968 35.901919242256554,146.4772996515385 37.143569292122265,146.50807499372604 38.708250249241246,145.9387291625244 39.56630109672551,146.50807499372604 40.20226819542586,146.53885032352264 40.86851944166119,146.90815331752674 41.81742273180862,146.90815331752674 42.16064307076158,147.32361705849326 43.72532402793877,146.33881045873568 44.53290129613015,147.8314030164256 44.310817547375336,149.49322444581048 44.85593220338342,150.97036879789812 45.59284646064043,152.1859141497116 47.349327018950135,153.83225496230443 50.811814556334866,158.24796642685396 52.03327517447178,162.01727493734506 52.32602193421917,162.35573438671418 52.75,162.20188936776685 52.62886340977275,161.47881364215573 51.4780658025993,158.87876158267318 50.791625124635175,156.46324956961325 50.842098703898955,155.84782032716612 51.85157028914546,155.41701691698108 50.347457627096446,149.1393210502938 49.479312063835096,147.4774919465417 47.22819042872288,144.75386076333962 45.43133100698469,143.15348994650412 43.573903290118324,141.9224127287598 41.93855932203587,141.0914244261803 39.354312063835096,140.46048284467543 36.68930707877735,140.321982777823 33.983923230320215,140.53742721815797 33.7719341974298,139.9834260048592 31.16749750750023,138.29061970294424 28.86590229315334,137.69043394339678 23.778165503492346,138.0597795825306 23.20276669989107,138.29061970294424 22.011590229318244,138.09055830543366 21.345338983053807,138.38295555642253 18.468344965105643,140.61437151433347 16.933948155550752,141.2760892721999 13.007103688956704,141.12220193142275 12.583125623117667,140.92214792642335 12.25,141.3684215283356 16.772432701895013,141.6454176291736 17.691051844449248,141.41458761465765 19.144690927205374,140.62976036428154 22.041874376882333,138.09055830543366 22.788883349945536,138.18289439994987 24.616026919247815,137.76738109831786 29.350448654062347,137.6442656132931 32.156779661017936,138.58301619057602 33.86278664006386,140.1219266836997 33.81231306082918,140.56820494586282 32.96435692923842,140.93753671459854 33.075398803601274,141.69158354862884 32.73217846461921,143.1381016033556 32.02554835495539,144.01523223164986 31.03626620140858,146.27725962602563 31.581380857445765,147.13896678503806 31.56119142571697,148.38534749695827 32.88359920238145,148.67770546959218 34.841974077775376,149.75480416601204 35.96248753738473,148.13915044436726 38.00162013960653,146.96970364351 39.3341226321063,146.49268732416385 37.951146560313646,145.35399120317743 36.941674975067144,145.78485118476965 35.548604187439196,145.8310146105432 34.94292123630294,147.4159420283977 35.20538384845713,147.7698533825751 36.0331505483482,148.16992511924036 37.28489531404921,147.33900456121773 37.03252741775941,146.80044012812868 35.609172482567374,146.75427728633076" stroke="#4dd2ff" stroke-linecap="round" stroke-linejoin="round" stroke-width="0.5"><title>2022-04-27 10.1km</title></polyline><polyline fill="none" points="65.3573613568442,141.4480473788717 67.43842566909734,141.2781069039338 71.48906870535575,140.06019417505013 72.41811527335085,140.79660777963 74.29478934057988,141.16481314020348 75.46538801625138,141.95786757538735 77.08192904444877,142.01451415015617 77.58361419115681,142.5809786465761 80.29643016954651,140.8532548207586 81.2254767374834,141.39140057662007 82.22884703089949,143.4023481257027 81.9501330605126,147.08429046580568 82.91634149115998,149.40669697544945 85.42476722470019,152.83359284317703 87.39434594870545,154.4478868450824 93.73044354218291,162.66067552642926 96.14596461888868,170.25 97.2050777063705,170.02345891245204 97.14933491224656,169.1739265941069 94.75239476689603,163.05714288209856 93.93483378714882,159.82873343895335 93.82334819895914,158.639300809431 95.71860319760162,157.5914589934473 93.41456770908553,147.4524794140525 91.2591796714114,142.86421004169824 87.18995570379775,137.96422671882465 83.84538805915508,134.9901653926281 81.83864747238113,133.48894871782977 76.26436806470156,130.76972311608552 68.7948336583213,129.75 62.31008861394366,130.259862479601 61.00942341884365,130.76972311608552 61.195232732454315,132.18599299173366 60.52631920349086,134.7069181864208 59.37430145923281,136.09482406243478 58.55674047942739,138.4457355116756 57.794922293687705,139.46539576471696 58.98410190071445,139.49371955537936" stroke="#4dd2ff" stroke-linecap="round" stroke-linejoin="round" stroke-width="0.5"><title>2022-04-25 5.0km</title></polyline><polyline fill="none" points="125.50862931465963,146.64254353199794 127.28139069536701,146.50356983102392 128.71985992998816,145.87046423738502 129.33779389696429,146.33371274432284 130.279889944999,146.48812829320377 130.83704352175118,146.812399936578 131.7284892446478,146.79695846077084 132.14382191098412,147.19843582445174 133.7545022511331,146.2256216756432 134.58516758380574,147.56902845374861 134.37243621810921,149.3910829058368 134.89919959980762,150.82707845404366 135.96285642820294,152.44833152507636 137.46210605301894,153.776189533055 140.90632816409925,158.20736371909152 142.31440720360843,162.39126947060868 142.75,162.23688584863703 142.71960980488802,161.6347867621007 142.09154577291338,159.65863356160844 141.46348174088052,158.54702507302864 140.91645822912687,156.5707925336901 140.86580790398875,155.95320945119602 141.94972486246843,155.42825993181032 140.59229614809738,149.6844605198712 139.52863931964384,147.36829100123578 138.27251125563635,145.76237251756538 136.7530015007651,144.1255364757817 134.43321660830406,142.2415877162639 132.12356178089976,141.0679569601998 128.66920960479183,140.3112644754292 126.42033516758238,140.23405053791794 124.09042021012283,140.55834855448484 123.7966483241762,139.84797968734347 121.15270135068567,138.21101774810813 118.66070535269682,137.60873052939132 114.40607803902822,137.8712665636922 113.24112056029844,138.21101774810813 111.68109054528759,138.13380170165328 109.37143571788329,140.00240826015215 107.56828414209303,141.02162906284502 106.33241620814078,141.2687108594473 103.00975487747928,141.08339958643046 102.44247123564128,140.85175986722606 102.25,141.23782567828312 105.76513256630278,141.5930045126297 107.37581290645176,141.45402168590226 108.95610305154696,140.6510048794662 111.69122061031521,138.31912008288782 112.14707353679114,138.13380170165328 113.39307153580012,138.25734733878926 116.10792896448402,137.96392612651107 118.79239619814325,138.02569910635066 120.18021510753897,138.24190414499026 121.4464732366323,138.84418640437798 121.86180590296863,138.42722226569458 119.77501250625937,137.7477203062881 116.97911455729627,137.70139040856156 113.72736368182814,137.99481262263726 112.71435717862914,138.27279052945232 114.85180090047652,138.18013133882778 116.20922961478936,137.8867098319388 117.00950475237914,138.08747203658277 118.91395697850385,137.99481262263726 120.68671835918212,138.51988115858694 121.2438719359925,139.07583217116917 120.66645822912687,140.3730355696389 120.42333666837658,142.3496843850371 122.4594797398895,142.99826120671787 121.4059529765218,145.56163034908968 122.4189594797499,145.22191163944808 124.21198099051253,145.26823700639216 125.51875937971636,145.6079555113829 125.30602801399073,146.33371274432284" stroke="#4dd2ff" stroke-linecap="round" stroke-linejoin="round" stroke-width="0.5"><title>2022-04-22 10.1km</title></polyline><polyline fill="none" points="168.29479522188194,146.21737462584133 169.90742320820573,146.19981626935623 170.02261092152912,145.86620682579087 171.72738907849998,145.3921280587092 172.4761092150584,145.91888208567252 173.54735494885244,146.07690767506574 174.28455631402903,146.51586614704138 175.14846416385262,146.4456329396271 175.56313993179356,146.9372642071612 177.47525597270578,145.84864839877991 178.4773890785291,147.44645082042553 178.27005119458772,149.46560992393643 178.857508532441,151.09846101560834 180.1245733788819,152.9068519115317 181.69112627991126,154.3114015625688 185.66510238908813,159.42026065982645 187.19709897614666,163.9846245995941 187.75,163.9846245995941 187.4850682594406,162.38712431745807 186.4944539249409,160.21026377339876 185.67662116044085,157.40133139148384 185.65358361776453,156.8219778646162 186.66723549488233,156.36551480690832 186.85153583620558,156.06705690405943 185.5038395904703,150.27326051114505 184.77815699664643,148.2892359411344 184.1215870307642,147.07772977594868 181.6220136519114,144.04011153178726 178.18941979526426,141.14286286514107 175.55162116046995,139.82589991795248 172.7525597269996,139.19375065783242 169.492747440323,138.96547341294354 166.4863481229113,139.28154943947447 166.09470989767578,138.49135723085783 163.19197952220566,136.64754763946985 160.39291808876442,136.0153754004059 152.18003412970575,136.64754763946985 149.43856655291165,138.9479136002119 147.28455631399993,139.94881729897315 147.25,140.4580446080654 149.33489761094097,139.4395870242879 152.7559726962645,136.50706531464675 155.94667235499946,136.62998736118607 157.31740614335285,136.2787810554437 158.4923208191467,136.50706531464675 161.04948805464664,136.45438438466226 162.39718430038192,136.8758309358309 163.2495733788819,137.49043684842036 162.6045221843233,139.0708322154096 162.39718430038192,141.4764903295436 164.68941979523515,142.1613006104526 163.45691126282327,145.02339835181192 165.3690273037937,144.4439628137843 169.04351535838214,145.19898412041948 170.9901877133234,144.56687370329018" stroke="#4dd2ff" stroke-linecap="round" stroke-linejoin="round" stroke-width="0.5"><title>2022-04-21 8.1km</title></polyline><polyline fill="none" points="32.8686006826174,194.94983057925856 34.75767918091151,194.82692208369554 35.229948805470485,194.63377981310623 35.42576791808824,194.24749399197754 35.29906143347034,194.8444804508108 36.70435153582366,194.14214301737957 39.18088737205835,195.17808875555784 40.24061433447059,195.1605304554687 40.56313993173535,195.61704511222342 42.383105802029604,194.4933124392337 43.40827645052923,195.9857667490287 43.22397610920598,198.28585233649937 43.938139931764454,199.95381549141166 44.790529010264436,201.28816310956609 46.840870307176374,203.25453301576636 50.76877133108792,208.29315409612173 52.254692832764704,212.80484369453188 52.75,212.66440550465632 52.577218430058565,211.8042166709347 51.35622866897029,208.85493358054373 50.630546075088205,205.76510175768635 50.75725255973521,205.44909007691604 51.77090443688212,205.04529571197054 51.3792662115884,202.64004716973432 50.319539249147056,198.40875597049308 49.09854948805878,195.84530154689128 46.46075085323537,192.6320984331105 43.177901023911545,189.9279999491264 40.678327645058744,188.64615781578323 38.38609215017641,187.99644983251346 34.642491467588115,187.68037393289706 31.279010238911724,188.01400957119768 31.255972696235403,187.82085225154879 31.094709897617577,187.2589376228425 28.019197952206014,185.30976826624828 25.20861774747027,184.69515630546812 19.92150170649984,185.04636366922932 18.67747440270614,185.38000935812306 17.813566552911652,185.13416528972448 17.29522184302914,185.25708741032577 14.45008532423526,187.5223355546841 12.273037542705424,188.57591934765514 12.25,189.10270648356527 14.323378839617362,188.06668876610638 17.72141638226458,185.25708741032577 19.18430034132325,185.4502503935655 22.28284982938203,185.11660497265257 25.27773037541192,185.11660497265257 27.040102389088133,185.43269014002726 28.284129692823626,186.31069849833148 27.569965870323358,187.803292474091" stroke="#4dd2ff" stroke-linecap="round" stroke-linejoin="round" stroke-width="0.5"><title>2022-04-19 7.2km</title></polyline><polyline fill="none" points="62.55627289059339,188.7003825840511 62.61479923693696,188.37326751589717 65.48259020969272,188.19484081065457 68.36988996446598,187.12427606462734 72.81789228948765,189.08697218749148 74.5931914630346,188.9680216477136 74.9833671055967,189.74119844839151 77.92919320677174,187.83798675512662 78.59249179909239,188.37326751589717 79.80203629098833,190.57384587342676 79.39235186635051,194.2314916140749 80.38729975483147,196.6996080226818 81.83094963221811,198.98926960093377 85.18646015808918,202.17094835035095 92.01453390263487,211.00197889865376 94.53116679697996,218.85134183660557 94.82379852893064,218.85134183660557 95.35053564637201,218.61348846500914 95.27250051789451,217.03770023076504 92.63881493062945,210.67491308238823 91.79993729916168,206.8987372626434 93.8483594225836,205.38229310770112 91.66337582428241,195.83725877157121 89.43937466177158,190.12778533506207 85.0498986832099,184.92364644994086 79.19726404506946,179.9275010679412 77.1878594859736,178.9758352181525 75.99782377621159,178.5 75.80273595493054,180.8494215280807 76.71964871493401,182.03898783503973 80.5628787939786,185.22103074112965 82.94295021344442,188.55169400625164 84.77677573339315,191.58491145342123 85.63516214699484,194.91543160589936 91.23418261751067,194.1125452060951 92.32667441660305,197.29432871870813 93.94590333319502,205.47149613489455 92.131586595322,206.77980102726724 93.57523647282505,212.33996789931552 95.77972885314375,218.49456163602008 94.72625461826101,219.0 94.00442967953859,218.01885336490523 91.99502512044273,212.16157006421417 90.785480628605,209.81264519592514 85.49860067211557,202.8845865359326 81.61635302886134,199.1082120923238 79.13873769866768,194.796485747298 79.00217622378841,193.6367586190463 79.58743968763156,190.9604305866087 82.70884482789552,189.0572345614637 84.7377581691253,191.5551743288961 85.7522148397984,194.97490449948236 90.785480628605,193.75570540913031 88.97116389073199,189.71146095381118 83.76231906277826,183.76384200823668 79.13873769866768,180.01671942786197 76.01733255834552,178.52973974587803 75.90027986554196,181.2062924234633 77.6560702570132,182.93115629488602 76.01733255834552,184.29913749457046 73.98841921711573,183.76384200823668 73.28610306052724,184.2396603138477 72.19361126143485,185.57789110242447 72.4667342111934,188.16510300550726 67.57002989726607,188.9680216477136 66.4970468802494,190.03857306613645 63.453676868462935,191.7930711571098 61.19065814168425,194.67753979309055 59.22027114685625,193.60702190663142 62.107570901629515,186.64846702672367 64.64371257816674,186.67820513641345 67.1993630368379,185.6968443650112 68.33087240019813,187.12427606462734 65.87276585219661,188.61116945526737 62.02953577315202,188.73012028163066" stroke="#4dd2ff" stroke-linecap="round" stroke-linejoin="round" stroke-width="0.5"><title>2022-04-10 10.4km</title></polyline><polyline fill="none" points="105.74533729115501,188.77626028304803 105.96216233802261,188.4457482755388 108.3866605887888,188.59598109668877 111.93470680952305,187.24388027620444 113.13710025092587,188.1452821806306 116.35005321749486,189.22695729865518 118.14378769573523,189.04667865527153 118.41974684619345,189.88797713264648 121.5735657090554,188.08518888927938 123.36730018729577,190.51894788673962 123.03220693313051,194.3347619407723 123.97835259191925,196.76841929861985 126.12689169228543,200.07332271221094 129.18215371563565,202.86741138722573 135.78546195972012,211.39957435047836 138.20996021054452,218.96995955171587 139.254662708845,219.0 135.66719375230605,207.85457979337662 135.6474823844619,206.92325373557105 137.73688738112105,205.87174960740958 135.23354365874548,194.57512492281967 133.2229841336375,190.4588555485825 128.94561730098212,185.20068252290366 122.81538188632112,180.00242128146056 119.62214028765447,178.5 119.52358344820095,181.41468353125674 124.25431174249388,185.20068252290366 126.5999645217089,189.31709653884172 123.54470249835867,190.9095474963833 121.69183391641127,188.20537544797116 118.65628326096339,189.97811597466352 115.02939156867797,188.56593454456015 113.45248213724699,188.4457482755388 111.44192261225544,189.01663219364127 108.958290257724,190.78936310972495" stroke="#4dd2ff" stroke-linecap="round" stroke-linejoin="round" stroke-width="0.5"><title>2022-04-09 5.2km</title></polyline><polyline fill="none" points="150.72302736708662,188.75381942851527 152.93234063556883,188.57340638652386 152.9915186695871,188.2727175001637 157.07480301411124,187.10002507455647 158.19918565970147,188.15244177666318 160.01397870172514,188.39299312715593 161.37507348321378,189.11464486041223 163.07151045725914,189.11464486041223 163.56466074037598,189.83629311597906 166.58274047332816,187.91189003964246 167.47041098296177,188.7237506033416 168.4764375606319,190.61807480175048 168.12136935675517,194.3164482233551 169.08794391172705,196.90224855593988 171.5339693161659,200.35993504553335 174.2758848904632,202.82536709109263 180.8051946394262,211.39393110248784 183.36957611184334,219.0 184.27697263291338,218.84968617436243 184.0994385309168,217.10603477116092 182.107111387013,212.44617709524755 180.6868385715061,207.0646126647771 181.00245475274278,206.5234390603 182.71861773810815,205.71167498701834 181.673139137798,200.08933637355221 179.46382586931577,192.42217080801493 178.16190912172897,189.86636171779537 175.85396579658845,187.10002507455647 170.27150459133554,181.71754972453346 168.02273930015508,180.00353651370096 164.70876939734444,178.5 164.452331250126,180.5147354892688 164.80739945394453,181.6273389920534 169.028765877767,185.05530862319574 171.71150341816247,189.11464486041223 168.7131496965303,190.76841696580232 166.5235624393099,188.12237283069408 163.82109888765262,189.77615589415655 159.79699257708853,188.42306201886095 156.18713250447763,188.96430103610328" stroke="#4dd2ff" stroke-linecap="round" stroke-linejoin="round" stroke-width="0.5"><title>2022-04-07 5.0km</title></polyline><polyline fill="none" points="15.715756760328077,236.4746286328591 15.538354306772817,236.8351888878824 16.03113889985252,237.1356551033241 18.337370795372408,237.1356551033241 22.338781691039912,235.963833451111 23.541176098107826,236.89528217918996 25.65029415639583,237.22579485029564 26.419038121646736,237.7365857243276 28.232485424086917,237.8267251093348 28.60700171481585,238.54783823469188 31.721400342939887,236.6849555538356 32.66754676162964,237.4661672435177 33.73196148261195,239.59945531336416 33.396867959352676,243.44530626710912 35.111758343235124,246.90047869413684 36.826648727059364,249.15380903721962 39.17230339010712,251.0165365035209 46.130421844136436,260.1195323752763 48.55492204200709,267.75 49.46164569328539,267.6598786368995 49.4025115420809,266.12780716216366 46.32753568136832,259.0680594873702 45.73619416967267,255.5831250980409 47.70733254193328,254.7118788203661 47.845312227960676,253.87067070498597 45.6179258673219,244.61706933441747 44.159283471875824,240.3506058449566 42.523238622932695,238.03705012990395 41.41940113448072,238.66802341776202 42.05016541352961,237.6163997931726 38.935766785405576,233.65020991083293 33.29831104079494,228.9327108211437 29.829107505560387,227.25 29.631993668328505,229.29328924953006 30.006509959115647,230.40506726698368 34.1853233082802,233.62016261661483 37.082896715495735,237.49621376549476 35.230026645585895,238.96848595302436 33.77138425008161,239.5393631079496 32.03678248252254,236.9854220709385 31.3074612847995,237.1056085088785 30.716119773162063,236.44458190578735 29.769973354472313,233.25959461470484 31.603132040589117,231.54688474060094 34.22474607574986,233.7403517574421 37.063185331760906,237.6163997931726 34.126189157075714,239.4492247546732 33.79109563381644,239.5093169961474 31.780534494144376,236.80514223310456 28.843538319459185,238.54783823469188 28.153639889205806,237.97695729696716 26.359903970442247,237.79667865364172 22.12195647013141,236.2042078714876 19.973415644315537,237.25584142061416 17.134976388304494,237.4361207155307" stroke="#4dd2ff" stroke-linecap="round" stroke-linejoin="round" stroke-width="0.5"><title>2022-04-03 6.2km</title></polyline><polyline fill="none" points="94.89754098351113,254.06014068475633 95.75819672131911,250.49901263945503 95.48770491802134,249.03705619287211 97.75,247.91246651938127 97.75,246.82535672820813 90.96311475412222,242.47685424967494 87.10245901637245,241.42720054264646 78.81557377043646,241.53966372224386 71.34016393439379,242.70177927608893 68.06967213109601,242.4393667189579 62.21721311472356,247.16273630638898 57.47131147532491,249.5243762806058 57.25,250.53649855159165 61.381147540931124,248.77465254174604 68.19262295070803,242.77675422470202 69.56967213109601,242.326904081463 75.49590163928224,242.40187918061565 79.03688524587778,241.61463913752232 87.52049180323957,242.3643916347355 91.74999999994179,244.16378534135583 92.659836065548,243.52650205403916 91.84836065565469,242.70177927608893 85.1598360654898,241.31473729554273 73.57786885241512,242.13946620184288 71.31557377043646,242.81424168763624 68.31557377043646,242.4393667189579 60.88934426225023,248.24984413290804 57.25,249.7118067449046 57.59426229505334,250.53649855159165 62.04508196719689,248.32481685299717 68.0450819671969,242.964191464358 69.86475409835111,242.28941652063804 70.97131147532491,242.47685424967494 74.97950819670223,241.50217600321048 86.06967213109601,240.9398593152291 92.68442622950533,242.88921659096377" stroke="#4dd2ff" stroke-linecap="round" stroke-linejoin="round" stroke-width="0.5"><title>2022-03-24 5.1km</title></polyline><polyline fill="none" points="126.28716217237525,266.7950854641458 125.16890562541084,266.54498746834724 123.57352628506487,267.75 122.85784209502162,267.38622398418374 122.49999999994179,266.4767788281242 122.03778729389887,262.3614481271579 121.50102415133733,261.088166322319 120.8598903978127,260.63341934826167 117.14727866183966,260.54246973419504 115.25369757565204,258.72346210011165 133.57819485856453,234.23222453997005 124.79615344305057,227.25 111.42180514143547,254.53963356496388 119.66708341438789,262.95260980911553 120.17402638233034,262.54334435828787" stroke="#4dd2ff" stroke-linecap="round" stroke-linejoin="round" stroke-width="0.5"><title>2021-10-26 5.0km</title></polyline></svg>