<?xml version="1.0" encoding="utf-8" ?>
<svg baseProfile="full" height="300mm" version="1.1" viewBox="0,0,200,300" width="200mm" xmlns="http://www.w3.org/2000/svg" xmlns:ev="http://www.w3.org/2001/xml-events" xmlns:xlink="http://www.w3.org/1999/xlink"><defs /><rect fill="#222222" height="300" width="200" x="0" y="0" /><text fill="#FFFFFF" style="font-size:12px; font-family:Arial; font-weight:bold;" x="10" y="20">Over 5km Runs</text><text fill="#FFFFFF" style="font-size:4px; font-family:Arial" x="10" y="280">ATHLETE</text><text fill="#FFFFFF" style="font-size:9px; font-family:Arial" x="10" y="290">Wenz</text><text fill="#FFFFFF" style="font-size:4px; font-family:Arial" x="120" y="280">STATISTICS</text><text fill="#FFFFFF" style="font-size:3px; font-family:Arial" x="120" y="285">Number: 41</text><text fill="#FFFFFF" style="font-size:3px; font-family:Arial" x="120" y="290">Weekly: 2.9</text><text fill="#FFFFFF" style="font-size:3px; font-family:Arial" x="141" y="285">Total: 306.7 km</text><text fill="#FFFFFF" style="font-size:3px; font-family:Arial" x="141" y="290">Avg: 7.5 km</text><text fill="#FFFFFF" style="font-size:3px; font-family:Arial" x="167" y="285">Min: 5.0 km</text><text fill="#FFFFFF" style="font-size:3px; font-family:Arial" x="167" y="290">Max: 21.4 km</text><polyline fill="none" points="38.138444924377836,50.20045538170234 38.36004319653148,50.12934219159797 38.02181425484014,50.004893971614365 38.3250539956789,49.09819451758085 37.39200863929,48.56483756018133 35.444276457856176,48.58261617718381 33.75313174945768,49.11597302752489 33.43822894166806,48.99152338316344 33.85809935204452,47.622565749996284 35.07105831534136,45.91578373032826 35.50259179263958,44.31564570400951 35.444276457856176,43.444447286223294 36.44730021597934,43.05329418769543 36.50561555076274,42.591020115876745 36.38898488122504,42.27098280606879 34.72116630669916,41.204183418019966 32.27192224620376,40.01290890945529 29.752699784032302,39.799544618304935 25.6123110151093,40.06624990187993 24.04946004319936,40.421855696840794 22.67321814256138,40.24405297788326 18.89438444923144,43.07107391145837 16.9816414686793,43.90671690199815 12.456371490261517,43.746700769690506 11.768250539986184,43.497786211257335 11.546652267832542,43.746700769690506 11.5,43.92449645441957 12.164794816431822,44.12007129518315 14.520734341262141,44.33342517428537 17.7980561555014,44.12007129518315 19.8974082073546,42.96439551514777 23.01144708422362,40.368514918664005 25.50734341252246,40.4751964428724 27.478401727887103,40.17293179035187 30.394168466504198,40.22627268636279 32.0269978401775,40.54631738761236 32.750107991392724,40.77746006344387 33.41490280779544,41.31086393523583 33.484881209471496,41.68424473340565 32.92505399568472,42.55546047195094 32.5518358531117,45.382407601537125 34.25464362849016,45.86244626201369 34.60453563713236,46.253586949940654 33.46155507559888,48.92040922212618 35.66587473000982,48.40482984643313 37.88185745140072,48.689287804285414 38.5,48.95596630977525 38.19676025919034,50.004893971614365" stroke="#4dd2ff" stroke-linecap="round" stroke-linejoin="round" stroke-width="0.5"><title>2022-06-22 5.1km</title></polyline><polyline fill="none" points="68.5,50.14267756758636 67.89404402245418,50.178203477822535 68.29024600778939,49.09465679760615 66.96180405697669,48.6150499313153 65.58675010787556,48.52623355963442 63.31441519202781,48.988077718691784 63.93202416918939,47.26503145796596 64.95748813118553,45.84393712258316 65.3653431161074,44.29847111916024 65.20220112215611,43.641195784832234 66.41411307727685,42.96615116873727 66.53064307293971,42.610862459550845 63.30276219249936,40.461335335610784 60.52934829521109,39.821796522177465 55.27384548983537,40.1415665068198 54.0153215364553,40.47910023662553 52.75679758307524,40.24815624490293 52.080923608125886,40.47910023662553 48.864695727213984,43.10826625287882 46.988562796701444,43.92542355574551 42.269097971468,43.76554554698669 41.814630988345016,43.516845847902005 41.5,43.97871616114571 45.42706085453392,44.3339993764821 47.68774277079501,44.13859378458437 49.28420371169341,43.250381108693546 52.75679758307524,40.35474585444899 61.47324126024614,40.35474585444899 62.53366422094405,40.71004362544045 63.337721191201126,41.45616429932852 62.941519205865916,41.98910378475557 62.708459214511095,42.98391556672141 62.4404402244254,45.382076548099576 64.79434613723424,46.0571027282931 63.337721191201126,48.97031452639931 65.43526111351093,48.45518039806484 67.29974104443681,48.6683397115703 68.29024600778939,48.988077718691784 68.09214501513634,49.98281079506705" stroke="#4dd2ff" stroke-linecap="round" stroke-linejoin="round" stroke-width="0.5"><title>2022-06-21 5.1km</title></polyline><polyline fill="none" points="98.3113537117606,49.79893777090183 98.09912663756404,49.583268949674675 98.48820960699231,48.52288968661742 97.58034934499301,48.18140894467797 95.44628820961225,48.18140894467797 93.78384279477177,48.79247882578056 93.50087336241268,48.52288968661742 94.67991266373429,45.88087315103621 95.2104803493421,45.39559632996679 95.68209606988239,43.652172711197636 95.52882096069516,43.130936375157034 96.6724890829646,42.51982783963467 96.5899563318817,41.99858490897168 93.5716157204879,39.96750590867305 91.92096069865511,39.41029918789718 90.28209606985911,39.266503341954376 85.7192139737599,39.57206923842023 84.12751091699465,39.913582829256484 82.712663755432,39.733838996522536 79.2462882096006,42.37603698949533 76.98253275104798,43.45446273417474 72.4078602619993,43.31067338567664 71.7711790392932,42.987146506871795 71.5,43.2208049255205 71.54716157203075,43.50838368033874 72.08951965064625,43.670146323791414 75.85065502181533,43.84988225153211 77.7017467248952,43.652172711197636 79.49388646287844,42.66361845866777 82.97205240171752,39.805736572961905 85.05895196506754,40.03940329744364 90.7419213973917,39.75181339603296 92.88777292575105,40.23712081856502 93.80742358075804,40.79432239174639 94.52663755454705,40.20117221080727 95.8589519650559,41.495312992090476 96.51921397380647,41.81884526354406 96.70786026201677,42.555775516011636 95.63493449779344,42.96917275711894 95.7646288209653,43.84988225153211 95.32838427947718,45.575328792707296 94.73886462883092,46.07857776826859 93.6659388646367,48.52288968661742 93.71310043666745,48.66667066189257 95.92969432313112,48.055599921921385 98.5,48.46897176136554 98.37030567685724,49.61921378927218 97.7689956331451,50.73349665803835" stroke="#4dd2ff" stroke-linecap="round" stroke-linejoin="round" stroke-width="0.5"><title>2022-06-20 5.3km</title></polyline><polyline fill="none" points="117.16916167664749,42.73133937710372 117.91017964071943,42.71080205171893 119.15643712574092,42.289785063938325 120.56437125749653,42.926443556814775 121.1976047904318,42.926443556814775 121.29191616766911,43.131815573447966 121.66916167666204,43.01886106636084 122.34281437128084,42.525965752200136 122.6594311377412,42.74160803668565 123.05014970060438,43.47067759782658 122.89520958084904,44.69261594816635 123.25224550899293,45.55514308815327 123.8315868263453,46.51006688257257 125.05763473054685,47.68059430743597 127.26721556887787,50.5143918719441 128.1631736526906,53.21456738188135 128.47979041915096,53.1632345759499 128.38547904191364,52.67043701768125 128.17664670658996,51.8696308587314 127.44910179641738,50.25771377675483 127.2065868263453,49.02564098838775 127.9139221556834,48.55333854999844 127.13922155689215,45.20602671243614 126.64745508981287,43.93275855806496 126.24326347305032,43.20369558442326 124.76796407185611,41.42720284913594 123.21856287424453,40.092225500251516 122.16092814369767,39.42472375696161 121.04940119759704,38.95233264291892 119.095808383252,38.56209321382266 117.66766467064735,38.47993716503697 116.01047904191364,38.675057565327734 115.7881736526906,38.212929095021536 114.12425149702176,37.16542243376898 112.60179640719434,36.764899510169926 107.75823353294982,37.13461308949263 106.14146706587053,38.4183200418629 104.59206586825894,39.17825937233283 102.00523952097865,39.07556552816095 101.63473053892085,38.90098551975461 101.5,39.13718185940161 101.85029940120876,39.29122236273179 103.15044910181314,39.38364644203466 105.0097305389354,39.31176106148632 106.90943113772664,38.120502899804706 107.89296407187067,37.17569221109079 108.71482035929512,37.26812011401125 110.64820359283476,37.03191514114587 112.53443113772664,37.0524547473251 113.76047904191364,37.31946887679442 114.25898203594261,37.62756037060899 114.77769461079151,37.39135705805165 115.87574850299279,38.233468226830155 115.88248502992792,38.664788089150534 115.30988023952523,38.88044665605412 115.43787425151095,39.15772061999087 116.03068862276268,39.568494099421514 116.72455089821597,39.80468735601244 119.47979041918006,39.537686202926125 119.92440119759704,39.75334108867173 120.60479041918006,40.46191502445072 122.86152694612974,39.784148855243984 124.07410179640283,40.64675878432536 125.2597305389354,41.80715156997394 126.37125748503604,43.244769831060694 126.74850299402897,43.96356380695215 126.91691616766911,44.548860010552744 126.01422155689215,44.88771264573006 125.09131736526615,45.02119943102298 124.7073353293381,43.8403427000012 124.08083832336706,42.99832385646732 123.09730538922304,43.52202013291753 122.91541916168353,44.743957256501744 123.75074850300734,46.386851910974656 125.10479041916551,47.70112963717111 127.29416167666204,50.52465896897047 128.196856287439,53.23510048983371 128.5,53.14270143914109 128.47305389221583,52.85523665841174 127.62425149699266,50.76080163145889 127.19985029941017,48.9845713843024 127.9139221556834,48.54307105726184 126.74850299402897,43.984100629226305 126.41167664671957,43.31664968327459 124.57934131738148,41.09859627355763 122.8413173652807,39.77387960178385 121.35254491018713,39.02421852872067 119.80314371257555,38.675057565327734 118.05164670657541,38.52101520591532 116.03742514969781,38.71613544947104 115.8555389221583,38.2745464657055 115.41766467067646,38.03834614160587 114.77095808382728,37.411896519817674 113.53143712574092,36.93948681129041 112.52095808385639,36.8059789287945 107.67739520958276,37.12434330394899 106.07410179641738,38.469667649671464 104.66616766469087,39.17825937233283 101.96482035929512,39.08583492185426 101.62125748505059,38.90098551975461 101.54041916168353,39.239875579853106 103.81062874253257,39.43499308052196 104.86152694610064,39.352838434151636 106.09431137725187,38.74694384090981 107.77170658683463,37.257850355279515 108.06811377246049,37.18596198633895 108.37799401198572,37.237310831580544 108.37799401198572,37.442705697041674 107.45508982035972,38.29508557276131 109.28742514969781,38.048615743588016 109.4423652694677,38.685327039471304 111.24775449102162,38.76748275826321 113.4034431137843,38.58263220536537 113.4910179640865,37.68917844663156 113.76047904191364,37.504323995803134 114.13772455090657,37.69944811873938 114.13098802395689,37.89457149709415 113.69985029941017,39.044757334708265 113.56511976048932,39.856033571777516 113.67290419164055,40.04087952167174 115.04715568861866,40.37976202780919 115.37050898204325,39.280953010267694 115.86901197605766,39.5274168999822 117.14895209582755,39.79441810668868 119.46631736526615,39.5274168999822 120.64520958083449,40.47218413972951 121.52769461077696,40.092225500251516 123.33308383233089,41.70446300488402 124.76796407185611,43.79926893172524 124.98353293414402,44.83637148169146 125.24625748503604,44.98012661113171 126.80913173651788,44.579664888333355 126.89670658682007,44.41537199236336 126.69461077844608,43.93275855806496 126.29041916166898,43.20369558442326 125.13173652694968,41.72500073439733 122.92215568861866,39.82522584848266 120.92140718564042,38.921524375215085 118.90044910179859,38.55182371493356 117.99775449102162,38.531284710988984 115.94311377246049,38.69559651153031 115.37050898204325,38.88044665605412 115.66017964073399,39.38364644203466 116.65044910178403,39.77387960178385" stroke="#ff0000" stroke-linecap="round" stroke-linejoin="round" stroke-width="0.5"><title>2022-06-17 21.4km</title></polyline><polyline fill="none" points="158.42900964064756,48.94106604759145 158.19237510953099,48.76071204438631 158.5,47.58840219647391 156.96187554774224,47.227688395745645 155.50657318139565,47.245724120220984 153.66082383872708,47.768758553575026 153.6963190184033,47.04733095217671 155.5184049079835,43.872980664767965 155.7905346187763,42.84489998657955 155.54206836107187,42.14146958414494 156.7370727432135,41.61840238019067 156.8553900087427,41.3117753615079 155.05696757227997,39.85077342540899 152.38299737073248,38.57012255225709 150.06397896580165,38.31759768953634 144.90534618753009,38.732459589147766 144.19544259420945,38.984983285445196 142.89395267306827,38.82264670502627 142.0184049079544,39.11124486733752 139.3444347064069,41.41999678175489 136.8834355828294,42.59238714262028 132.2572304995556,42.37594699709007 131.57099035932333,42.14146958414494 131.5,42.682570382654376 136.95442594218184,42.899009789325646 138.13759859770653,42.53827715515217 139.59290096405311,41.6905497618136 142.88212094653863,38.87675893109554 145.95836985102505,39.02105804125313 147.86327782648732,38.840684117334604 147.99342681857524,39.88684783344797 147.59114811569452,43.205631389260816 148.2892199824273,43.34992354462156 147.72129710778245,43.74672577673482 147.7686240139883,44.82890477248293 150.06397896580165,44.93712195489206 153.9684487291961,45.87499874103378 154.0631025416078,46.235717974203 153.49517966696294,47.93107896534639 154.05127081507817,49.44605532987771 153.9684487291961,50.852796217339346 156.76073619630188,51.68240231046366 157.979404031561,49.157490373305336" stroke="#4dd2ff" stroke-linecap="round" stroke-linejoin="round" stroke-width="0.5"><title>2022-06-16 5.2km</title></polyline><polyline fill="none" points="188.24285714287544,50.184987654487486 188.21948051950312,48.93780388160667 187.14415584417293,48.652730843561585 185.67142857142608,48.63491374826117 183.46233766237856,49.02688901817601 184.56103896105196,46.4433837438919 185.0636363636586,45.87322072328243 185.5311688311922,44.48343301101704 185.42597402600222,43.46780514673446 186.57142857144936,42.95107773618656 186.4662337662885,42.41652897230961 184.97012987014023,41.31178465465928 182.78441558446502,40.1713889951352 180.99610389611917,39.81501234550524 174.74285714287544,40.18920779001928 174.10000000003492,40.47430802181043 172.6740259740327,40.26048293385975 169.63506493507884,42.630348864302505 166.97012987014023,43.96671151526971 162.34155844157794,43.80634905989427 161.90909090911737,43.46780514673446 161.5,43.948893478969694 164.51558441558154,44.305253524806176 167.58961038963753,44.19834566133068 170.09090909094084,42.755076896697574 172.91948051951476,40.31393925414886 180.30649350650492,40.22484536910633 181.93116883118637,40.45648928418814 182.93636363637052,40.812863357212336 183.49740259742248,41.472151618749194 182.79610389613663,43.14707814272697 182.50389610390994,45.285236270974565 184.68961038961424,46.15830269154685 183.5324675324955,49.00907199802168 185.65974025975447,48.51019398110657 187.99740259745158,48.72399918895826 188.5,48.93780388160667 188.25454545454704,49.864284930037684 188.45324675325537,50.13153728092584" stroke="#4dd2ff" stroke-linecap="round" stroke-linejoin="round" stroke-width="0.5"><title>2022-06-15 5.0km</title></polyline><polyline fill="none" points="38.323683064838406,85.22329433849518 38.170875054376666,84.91869414057874 38.394209838908864,84.1123944801584 37.18350021765218,83.73611881193938 35.937527209403925,83.6286111867812 33.83347845013486,84.23781935029547 33.49259904224891,84.13031232957292 34.58576404003543,81.46051310001349 35.114714845462004,80.90504147672618 35.63191118850955,79.20276819210267 35.42033086629817,78.59352565166046 36.548759251163574,78.10971243557287 36.60753156291321,77.5542199523843 33.645407052652445,75.52933097699861 31.893992163677467,74.95590274099959 30.119068350002635,74.77670566150482 24.14780148016871,75.45765264902002 22.3376142794732,75.40389386527386 19.25794514582958,77.87676439592178 16.71898127993336,79.02357964145631 12.24053112755064,78.79063398764265 11.617544623411959,78.53976875719673 11.5,79.0056607666047 12.017196343047544,79.22068702740216 16.918807139765704,79.34611877358111 19.363735306920717,78.30682184032776 22.81954723552917,75.36805465810176 25.910970831522718,75.47557223644253 27.768175881559728,75.11717980486719 32.05855463646003,75.49349182020524 33.05768393559265,75.88772175310442 33.551371353911236,76.6044989867878 32.94013931215159,77.89468349750678 32.587505441886606,80.3495663955182 34.91488898562966,81.08422624912782 33.621898127981694,83.98696943373943 35.937527209403925,83.53902140018909 37.60666086198762,83.75403673691471 38.48824553762097,84.00488730827783 38.5,85.1516237972246" stroke="#4dd2ff" stroke-linecap="round" stroke-linejoin="round" stroke-width="0.5"><title>2022-06-14 5.0km</title></polyline><polyline fill="none" points="57.02095808384183,77.80321488481059 57.883233532935265,77.75187158683912 59.149700598805794,77.3513920935402 60.60479041915096,77.93670721830858 61.163922155683395,77.90590132613215 61.39296407184156,78.22422798385742 62.45733532932354,77.58757268690533 63.05014970060438,78.51174713294677 62.91541916168353,79.66180756498943 63.05014970060438,80.23682808276499 63.87200598801428,81.5716722174111 64.91616766466177,82.51631009168705 67.22679640719434,85.4835916702541 68.11601796407194,88.21457067636584 68.5,88.21457067636584 67.22005988023011,84.35419682884822 67.2402694610646,84.00510610497076 67.86676646706474,83.75868768883447 67.94086826346756,83.58414059238203 66.84281437126629,79.22026956482296 66.20958083833102,78.20369083992409 64.86901197604311,76.58123040694772 63.74401197602856,75.53379189926636 62.268712574848905,74.54794782296085 61.211077844302054,74.05501865778206 59.41242514968326,73.65451021236004 57.56661676647491,73.57235424610917 56.02395209579845,73.7366660466505 55.8218562874099,73.28480732477692 54.151197604776826,72.24757106576362 52.54116766466177,71.83677861234173 49.17964071854658,72.042175251554 48.714820359280566,72.20649196888917 47.967065868273494,72.08325448038158 46.101047904187,73.51073718479165 44.63248502994247,74.21932890745302 41.971556886230246,74.12690445697444 41.59431137723732,73.96259391033527 41.51347305389936,74.23986765154405 42.17365269460424,74.35283059660651 42.234281437136815,74.55821713006299 42.2881736526906,74.30148383431515 43.204341317366925,74.4657932920818 44.625748503007344,74.45552396642597 45.99999999998545,73.83936065388843 47.899700598805794,72.27838036670073 52.022455089812865,72.10379408242443 53.55164670658996,72.2989198903997 54.339820359280566,72.68916927262399 54.77769461076241,72.4221568591638 55.363772455079015,73.02806763579065 55.90269461077696,73.31561600082568 55.91616766467632,73.70585762427072 55.35029940120876,73.95232448364914 55.444610778446076,74.1782513945218 56.42140718562587,74.74306430491197 57.22305389223038,74.87656462677478 59.43937125748198,74.58902503893114 59.863772455079015,74.75333357280033 60.61152694611519,75.49271544221847 61.58832335329498,75.20517931885479 63.205089820345165,76.57096150609505 64.11452095808636,77.87509541537656 64.08083832333796,78.02912478352664 63.023203592791106,78.62470064211811 62.85479041915096,79.53858804142874 62.95583832333796,79.99039150965473 64.0336826347193,81.77702976125147 64.94985029939562,82.56764860666226 67.2402694610646,85.50412589108237 68.11601796407194,88.04003878584263 68.4326347305323,87.91683944576653 68.4326347305323,87.6807065477442 67.46257485028764,85.40145470454081 67.17964071854658,84.14884963277291 67.22679640719434,83.99483869468168 67.89371257483435,83.72788530332036 67.89371257483435,83.34798769020563 67.0920658682735,80.13414632162676 66.69461077843152,79.07651218401952 66.27694610776962,78.27557080760016 64.76122754489188,76.45800346072065 63.53517964070488,75.37975501513574 62.1676646706328,74.47606261564215 61.3458083832229,74.06528806384085 59.38547904189909,73.6442407238028 57.869760479035904,73.55181523392457 56.03742514969781,73.72639657459149 55.84880239520862,73.30534644418367 54.09056886227336,72.18595240811919 53.154191616747994,71.87785800615893 52.069610778431525,71.78542932363052 48.728293413165375,72.18595240811919 47.839071856287774,72.08325448038158 46.03368263473385,73.51073718479165 44.6055389221583,74.20905953232068 41.964820359280566,74.11663506328114 41.64146706585598,73.96259391033527 41.5,74.23986765154405 42.052395209582755,74.3733692870519 44.61227544909343,74.41444664324445 44.65269461077696,74.12690445697444 46.03368263473385,73.47992862630053 47.16541916166898,72.51458439083581" stroke="#4dd2ff" stroke-linecap="round" stroke-linejoin="round" stroke-width="0.5"><title>2022-06-11 15.5km</title></polyline><polyline fill="none" points="86.90155116337701,77.75597611462581 87.88103577683796,77.7250853309888 89.1915186389815,77.3338004611287 90.66412309232692,77.9722110789553 91.15048786588886,77.9619141965486 91.41393545159372,78.19874196840465 92.20427820866462,77.64270981704249 92.48123592694174,77.60152201042729 93.04866149611189,78.42527185719155 92.92031523642072,79.753540614558 93.27833375030605,80.62873765984114 93.94708531399374,81.63776983395292 95.14948711534089,82.7600374012145 97.32461846384103,85.59133726657456 98.16224668500945,88.18570027383248 98.5,88.20628993153878 98.43920440328657,87.67095614485152 97.69614711031318,85.88990159653986 97.25031273455534,84.34558458257743 97.25031273455534,84.02641993465659 97.92581936453644,83.73814048093845 97.96634976231144,83.55281711924545 96.93282461847411,79.39316101925942 96.48699024267262,78.44586543380501 95.01438578934176,76.54092459674575 92.94733550163801,74.87275612564918 91.25856892669981,74.02835386705192 89.81973980483599,73.67823177939135 87.69189392043336,73.51346761679815 86.04365774331382,73.7297204716233 85.90180135100672,73.33840511398739 84.1522391793842,72.18503721435263 82.51751313485147,71.79371006846122 79.12646985238825,72.04086440280662 78.8224918689084,72.1747391698409 77.91055791842518,72.07175861082942 75.99211908933648,73.54436093762342 74.99912434325961,74.06954454373772 74.07368026020413,74.24460455046574 71.93907930949354,74.10043752952333 71.58106079560821,73.90478163851003 71.5,74.19311637523424 73.20903177384753,74.41966395960844 75.05316487365053,74.31668790893673 76.05291468600626,73.77091138818287 77.58631473605055,72.3806996673884 77.97810858143202,72.1747391698409 78.79547160372022,72.27771952200783 81.9771078308695,72.07175861082942 83.35514135601989,72.21593133553324 83.72667000249203,72.3292096205405 84.17250437827897,72.76172440698065 83.79422066549887,73.58555200308547 83.61183387540223,74.65650809122599 83.69289467101044,75.05811085787718 85.03039779835672,75.36703392273557 85.39517137853545,74.29609267401975 86.25306479859864,74.6359129927987 87.32712034024007,74.81097106600646 89.64410808106186,74.58442521044708 90.650612959711,75.47000786411081 91.64360770577332,75.19197774779605 93.2107830872992,76.56151893012793 94.11596197147446,77.82805453738183 94.17000250187994,77.92072664634179 93.60933199900319,78.37378787940906 93.0959469602094,78.57972348033582 92.46772579432582,77.59122505359846 91.39367025268439,78.22963246670042 90.20477858395316,77.7662730383563 89.31986489865812,77.7662730383563 88.73217413057864,77.98250795929198 87.48248686514853,78.85773522977979 86.50300225168758,78.2914134074963 86.75293970477651,77.7044914649232 86.92857142857974,77.73538226094752" stroke="#4dd2ff" stroke-linecap="round" stroke-linejoin="round" stroke-width="0.5"><title>2022-06-10 10.5km</title></polyline><polyline fill="none" points="128.5,85.24752671007445 128.09019947960041,84.96196342596522 128.33607979185763,84.08742016135511 128.09019947960041,83.85539703463292 125.81873373803683,83.64122130317264 123.4653078924166,84.10526806911366 124.05073720726068,82.24906646905583 125.24501300955308,80.5356152008826 125.54943625326268,79.19695841388602 125.36209887251607,78.4829998834175 126.53295750217512,78.05462201230694 126.49783174326876,77.69763887588488 126.39245446660789,77.35850356823357 124.78837814394501,76.2161435375092 121.7207285342447,74.93097095213307 120.10494362533791,74.75247328993282 114.63703382477979,75.23441615512274 114.00477016475634,75.53786032211792 112.7168256721634,75.32366454706062 112.09627059844206,75.55570994670416 109.33304423242225,77.82258313673083 107.70555073721334,78.7150370348827 105.59800520379213,79.03631824452168 104.63790112751303,78.73288602146204 102.33130962704308,78.8042819318216 101.69904596704873,78.46515084665589 101.5,78.982771456911 106.94449262789567,79.28620282688644 106.97961838680203,78.76858398378681 109.50867302689585,77.50129753968213 111.67476149174036,75.55570994670416 112.89245446660789,75.09161854157719 113.45446660881862,75.16301737703179 113.45446660881862,76.05549798056018 112.01431049435632,77.2514079390603 112.01431049435632,77.50129753968213 114.882914137037,77.05506561710354 115.26929748483235,78.1617166736687 117.458803122252,78.10816935914772 117.49392888115835,79.60748197192879 118.20815264523844,79.73242354802642 117.65784908930073,80.10724722260784 117.73980919341557,81.3031026655517 119.57805724194623,81.3031026655517 122.58716392019414,81.89210017876758 123.85169124021195,82.37400433201401 123.51214223765419,84.06957225005317 125.51431049435632,83.4091970117006 128.17215958365705,83.81970111527335 128.42974848221638,84.05172433517873 128.40633130961214,85.15828828232043" stroke="#4dd2ff" stroke-linecap="round" stroke-linejoin="round" stroke-width="0.5"><title>2022-06-09 5.2km</title></polyline><polyline fill="none" points="143.8505121638882,77.0761975475616 144.948143405898,77.04984874804359 146.4779129321396,76.56239404837834 148.3533930857957,77.37920798149935 149.16581306018634,77.36603364388793 149.2781690141128,77.61634560579114 150.66101152368356,76.83905797098123 150.98079385401797,77.1157207270262 151.51664532651193,78.05109569108026 151.29193341868813,79.39485046973277 151.50800256084767,80.19845537348374 152.51056338028866,81.924196575932 153.97983354673488,83.30739148796056 156.90973111396306,87.02211351729056 158.1024327784835,90.55222184174272 158.5,90.46001993511891 158.33578745197156,89.7355718752151 157.11715749040013,86.77183743438945 156.83194622278097,85.28333364097853 156.93565941101406,85.05939651993685 157.7740076824557,84.63786574820551 156.46895006403793,79.31580683278298 155.70838668374927,77.74808836009834 153.24519846352632,74.98143496717239 151.28329065302387,73.41361292361762 149.2003841229307,72.34641850557455 147.2730473751435,71.85892885973954 144.98271446861327,71.66129689028458 142.48495518567506,71.91163061767656 142.1997439180559,71.30555784511671 141.11075544176856,70.60724966538692 139.9526248399634,69.9221098879716 138.8031370038516,69.57953731607267 137.5499359795358,69.44777815825728 132.80505761844688,69.9221098879716 132.76184379000915,70.43596539180726 133.38412291934947,70.33055946271998 132.58898847628734,70.50184401147999 131.5,71.39778667168503 133.88540332906996,71.21332888886172 134.1014724712004,71.9379814807944 135.7003841229307,72.00385859223752 135.69174135726644,73.04470817440597 136.19302176698693,73.12375936669196 135.78681177977705,73.33456208054122 135.8473111395724,74.26999095188876 138.95870678615756,74.53348963483222 140.45390524968388,75.06048382600784 140.05633802816737,76.43064891326867 140.43661971829715,77.52412552040187 140.35883482717327,78.55171343297116 141.79353393084602,78.89423916082524 143.176376440475,79.6978501958547 144.14436619717162,78.44632054155954 146.15813060180517,77.19476701448366 146.9273367477581,76.99715111725891 145.85563380279928,75.98271347516857 145.01728553138673,76.36477624651525 143.8245838668372,76.40429985452647 143.70358514724649,77.04984874804359" stroke="#4dd2ff" stroke-linecap="round" stroke-linejoin="round" stroke-width="0.5"><title>2022-06-07 8.0km</title></polyline><polyline fill="none" points="187.1455309396697,74.98598847537869 186.2104660046025,76.66283448982358 184.59472880062822,76.15978634186467 184.20970206265338,76.67331460802961 182.8896103896259,77.7632354115267 182.16080977846286,78.16147002818616 181.84453781515185,78.55970160658762 180.93009931246343,80.2993091932185 180.60007639421383,81.65113288949942 180.04316271966673,82.7828653402903 179.47249809016648,85.31869526758601 179.1631016042811,85.61208912672737 177.98051948053762,86.68086709793351 177.04545454545587,87.24668187136558 172.93391902216536,88.2106484725191 170.75439266616013,86.06265505699048 169.59931245225016,85.43395733750003 167.7910618793103,85.04625663621118 167.66042780748103,84.79477356065036 167.8391902215517,83.94600923612597 167.74980901452363,83.53734000979603 166.82849503438047,83.07627345197398 165.03399541635008,81.26340409205659 161.90565317035362,81.14813281311581 161.5,80.88615168702381 161.5,80.3936236103691 163.90641711228818,78.60162054337343 163.8926661573787,78.39202552280767 163.7139037433226,78.3605861971555 163.06760886173288,78.89505215823738 162.88884644766222,78.82169440915095 162.9576012223115,78.6330597238557 166.82161955692573,75.59385138021025 166.87662337662186,74.27331260612118 167.069136745602,74.2104289740164 168.7330022918468,74.60869069794717 170.93315508021624,74.30475439378642 173.50458365165105,72.91081694750756 176.06913674561656,72.1876317256465 177.23796791445056,71.96752988654771 177.58174178763875,72.15618866261866 180.352559205523,71.78935152747727 180.88197097022203,71.88368132277174 181.01948051949148,72.72216089914582 183.79717341483047,72.99466386124186 184.6084797555668,73.2986077943533 184.28533231477195,74.40956021582315 184.6084797555668,75.28992081268007 184.59472880062822,76.13882589712375 185.79793735676503,76.47419200247896 186.8567608861922,77.0610775019959 187.3792971734365,76.28554883336983 188.5,75.4366461351965 188.321237585973,75.0069493830415 187.60618792974856,74.96502755929032" stroke="#4dd2ff" stroke-linecap="round" stroke-linejoin="round" stroke-width="0.5"><title>2022-06-05 8.1km</title></polyline><polyline fill="none" points="16.884202827874105,110.38558569579618 17.002681618731003,110.60631914320402 17.13432471966371,110.30531886676181 18.556070209655445,110.38558569579618 21.175767918117344,109.48258015227475 22.347391516319476,110.20498523984133 25.098732325655874,110.7668522532258 25.44100438809255,111.22838350827806 27.65260848365142,110.02438445750886 28.245002437848598,110.62638579602935 28.82423208191176,111.91064319833094 28.534617259865627,114.29851543538825 29.232325694785686,115.98403795851482 30.81204290589085,118.25142222626164 32.47074597759638,119.65597074927064 34.97196489517228,122.72584380240005 37.11774744026479,125.71536811264377 37.973427596269175,127.80196296622307 38.5,127.54114099172875 37.433690882491646,124.83256486865139 37.05192588979844,122.74590802202147 37.20989761091187,122.38475145293341 38.355192588991486,121.92327171543002 38.368356899067294,121.52198325515201 36.82813261821866,114.80016201465332 35.43271574843675,111.50931453298108 32.918332520726835,108.43909691765293 28.534617259865627,104.76675196500582 25.467333008302376,103.14124471880496 20.662359824491432,102.1980370337842 16.239151633373694,102.31844702121452 14.633105802029604,102.4990617302974 13.73793271573959,102.94056297822681 13.869575816672295,103.78342358050577 13.395660653332015,105.79020592570305 13.027059970743721,105.89054398510052 11.5,109.14144260122703 13.803754266176838,108.57956644924707 16.410287664592033,108.88057192351698 17.002681618731003,109.10130869513523 16.818381277436856,110.10465151218523 17.292296440777136,110.36551899460028 16.96318868844537,110.52605249150656" stroke="#4dd2ff" stroke-linecap="round" stroke-linejoin="round" stroke-width="0.5"><title>2022-06-04 5.1km</title></polyline><polyline fill="none" points="68.28897090748069,120.15606908709015 68.37103777678567,119.03019182950811 67.50347372988472,118.77999494919641 65.82696482850588,118.61915372621297 63.54081632650923,119.1552900059396 64.1270082500996,117.45751404031034 65.15870603561052,115.97416747660463 65.6511072514113,114.25845868801116 65.47524967434583,113.59718709497247 66.50694745982764,113.15037918301095 66.53039513679687,112.50697184886667 63.43530178029323,110.50523039462132 61.92292661743704,110.02266098713153 60.41055145463906,109.84393091290985 54.79483282673755,110.23713660243811 54.16174554929603,110.46948460237036 52.7079895788047,110.32650128956448 49.02670429873979,113.13250681984937 46.91641337383771,114.06186494381836 43.08271819364745,113.90101519382006 41.6993052540347,113.52569797978504 41.5,114.02612058007799 42.203430308261886,114.22271440314944 47.02192792008282,114.36569145633985 49.30807642205036,113.38271957715187 52.766608771140454,110.43373879570572 54.87689969604253,110.57672193620965 60.047112462023506,110.29075542547798 62.15740338686737,110.61246768539422 63.575987841933966,111.55972480835771 63.08358662613318,112.32824676384189 62.602909248817014,115.36652439666796 64.7249240121746,116.11714171602944 63.622883195843315,119.01232064711803 65.69800260526245,118.42256961441308 67.15175857575377,118.58341119267425 68.5,119.03019182950811 68.34759009987465,120.0667142695238" stroke="#4dd2ff" stroke-linecap="round" stroke-linejoin="round" stroke-width="0.5"><title>2022-06-03 5.0km</title></polyline><polyline fill="none" points="98.31233709814842,120.17618970167678 98.10121633362724,119.94376606724836 98.35925282366225,119.19285479421524 97.0338835795119,118.67436474309216 95.57949609035859,118.56709056247928 93.76151172895334,119.19285479421524 93.45655951346271,119.06770229969698 93.64422241531429,118.1379925474539 95.35664639441529,115.3666847280474 95.6146828844503,114.24025753958995 95.43874891396263,113.54293832890107 96.49435273674317,113.11381610007084 96.44743701128755,112.59529064747767 93.33927019982366,110.50327797952195 91.55647263251012,109.94897578709788 90.37185056469752,109.82381029831595 85.21112076455029,110.21718695630989 83.75673327539698,110.57480059169029 82.64248479585513,110.34235189207538 78.93614248483209,113.16745649181394 76.89530842748354,114.0435783152061 72.36794092092896,113.86477864324843 71.7463075586711,113.5071782221712 71.5,113.98993845129735 72.14509122504387,114.2223776280589 75.71068635967094,114.41905645752558 77.71633362292778,114.18661779421382 79.6985230234568,112.9886550604133 82.79496090358589,110.41387463352294 84.16724587316276,110.62844251309434 87.59209383148118,110.23506767221261 92.2367506516166,110.57480059169029 93.46828844482661,111.2721430492893 93.52693310167524,111.62975244732661 92.88184187663137,112.97077489754156 92.56516072980594,115.42032376249699 94.95786272807163,116.09974873541796 93.59730668980046,119.03194441180676 95.83753258033539,118.47769531318772 97.49131190270418,118.74588079172099 98.5,119.15709695658734 98.30060816681362,120.01528109631909" stroke="#4dd2ff" stroke-linecap="round" stroke-linejoin="round" stroke-width="0.5"><title>2022-06-02 5.0km</title></polyline><polyline fill="none" points="110.7124904798402,110.32261414825189 112.16222391472547,110.27559575018677 113.70449352631113,109.78973731142469 114.21858339681057,109.93079329874308 114.20830159939942,109.5546434327407 116.44973343488527,110.55770571388712 117.385376999242,110.60472394202225 117.50875856817584,110.88683271620539 118.25932977916091,110.62039667846693 119.13328255902161,109.93079329874308 119.71934501142823,110.41665085948625 120.19230769231217,111.4353746359775 119.98667174411821,113.50412662093004 120.4699162224133,114.52281010321167 121.68316831684206,116.37207845212106 123.17402894134284,117.64146611335309 126.66984006093116,122.2016885382618 127.92421934500453,126.19754074754019 128.5,126.13486229185946 126.54645849199733,120.28987514191249 126.54645849199733,119.74139544236095 127.61576542269904,119.14589883371082 126.4642041127372,114.00563399666862 125.25095201830845,111.12192258243158 122.43373952782713,107.68954023641709 119.95582635188475,105.80871877186291 117.79664889565902,104.69587806388154 115.53465346537996,104.11594070181309 112.12109672508086,103.80245925245981 109.26275704495492,104.0845926135371 108.3476770754205,104.41374691246165 106.83625285606831,104.36672495475796 102.4870525514416,104.86829104325443 102.04493526276201,105.00935592489986 101.99352627573535,105.58928664869745 101.53084539223346,105.6363078698705 101.5,106.82750269113603 104.50228484388208,107.04693133322144 106.56892612337833,107.59550023957127 107.05217060167342,107.94031300741335 106.64089870528551,109.30387584839627 108.56359482102562,108.81801136093418 110.97981721250108,109.22551081301208" stroke="#4dd2ff" stroke-linecap="round" stroke-linejoin="round" stroke-width="0.5"><title>2022-05-30 6.1km</title></polyline><polyline fill="none" points="145.4111870196357,112.51124906708719 145.5187873612449,112.40580896207757 146.27967549103778,112.46438682171356 147.79376601197873,111.94889963846072 149.5307429547538,112.64012004778488 150.20708795901737,112.65183557736236 150.4684030742792,112.89786115523384 151.5751494449214,112.19492818041545 151.84415029891534,112.39409338307087 152.3283518360695,113.23760905736344 152.12852263025707,114.63172628619941 152.34372331341729,115.26433992388411 153.4888983774872,117.03327869202258 154.4496157130634,117.82986936641828 157.15499573014677,121.30896881353328 158.14645602050587,124.3661880067666 158.4538855678984,124.34276164876428 158.5,123.9796518965777 157.5777113578224,121.68380890069966 157.07813834332046,119.71587157992326 157.16268146882067,119.48158890654668 157.86208368916414,119.21216266927877 157.90051238259184,119.00130648539562 156.67079419299262,114.12797348402819 156.05593509820756,112.97986945066805 154.5725875320495,111.17566032409377 152.15926558498177,109.11363871805588 151.78266438940773,109.05505749417352 150.26857386849588,108.1880485036636 148.21648163962527,107.73110614845427 146.12596071735607,107.62565740439459 144.3736122972041,107.84827119608599 144.09692570453626,107.34445982180478 142.15243381727487,106.12592130227131 140.14645602050587,105.63381199323703 136.93381725021754,105.86815027712146 136.06532877881546,106.10248761974799 135.25832621692098,105.9970359320796 134.77412467976683,106.11420446219199 132.83731853117933,107.6725235363665 132.03800170795876,108.14118278578098 131.5307429547247,108.24663059810337 131.5,108.5746892397874 133.30614859095658,107.64909047507899 135.17378309139167,105.98531906610515 137.5409906063287,106.07905392787143 138.3479931682523,105.87986716658634 139.15499573014677,106.02046965689442 140.33091374894138,105.93845157874603 141.27625960719888,106.0907707749866 142.28309137490578,106.60630971913633 142.87489325364004,106.26652319955974 143.62040990608511,107.02811092137563 144.15072587531176,107.29759342626858 144.11229718191316,107.81312170650199 143.88941076004994,107.93028658945332 143.88172502137604,108.15289921878866 144.27369769429788,108.44580927911011 145.21135781382327,108.7387178688914 148.4624252775684,108.45752565092698 148.89282664388884,108.6449872801677 149.85354397952324,109.5940025350501 152.13620836893097,108.99647621149052 154.34970111015718,110.87104808357253 156.04056362085976,112.9095766330829 156.82450896670343,114.47942938607594 154.75704526048503,115.05346947340877 154.4573014517664,114.72544725789703 154.16524338175077,113.65936232153763 153.5196413322119,112.7924217488835 152.4052092228958,113.31961687526564 151.66737830915372,112.32379985977968 150.4299743808806,112.94472305246381 150.15328778821277,112.73384421857918 149.5384286934277,112.69869767217824 149.00042698546895,112.45267125450482 148.22416737829917,112.40580896207757 147.65542271564482,112.55811127482593 147.12510674638906,112.99158491204435" stroke="#4dd2ff" stroke-linecap="round" stroke-linejoin="round" stroke-width="0.5"><title>2022-05-28 10.0km</title></polyline><polyline fill="none" points="175.54491188176326,112.3802546791594 176.6424104604812,112.33345895274397 177.80898237638758,111.795305397638 178.47669130191207,112.27496424189667 179.05230244458653,112.34515788788121 179.56651506538037,112.63763050252237 180.1574758385541,112.61423274740446 180.44911881751614,112.91840283138299 181.3010233087116,112.31006107544817 181.67708925527404,112.2164694722851 182.31409891985822,113.1991738072029 182.1989766913175,114.70829462165784 182.590392268321,115.67925866669611 183.27345082434476,116.79058319723117 184.58584422970307,117.99546900291898 187.17993177945027,121.36433786784255 188.15463331440696,124.38211750718256 188.5,124.24175912891951 188.45395110858954,123.65692891381332 187.494599204103,121.29415508639067 187.08783399660024,119.5512555655041 187.9167140420759,119.13014450591072 186.80386583285872,114.38073683597759 186.02870949404314,112.83651104190358 183.95650938036852,110.5785920799317 182.16060261515668,109.11616264123222 181.1628766344802,108.71837548348776 180.4644684480154,108.22698759767809 178.33086981240194,107.72389570647283 176.21262080725865,107.58349719402759 174.32461625925498,107.7940948358264 174.20181921546464,107.3260990424933 172.17566799320048,106.06249162197491 170.26463899941882,105.61788249281744 164.83854462762247,106.06249162197491 162.9198408186494,107.60689696962436 161.5,108.28548637280983 161.51534963047015,108.51948088610152 161.82234223990235,108.51948088610152 162.62819783965824,108.09829008552697 164.91529277997324,106.13269275325365 165.25298465034575,106.01569082079004 167.50170551449992,106.03909122608457 168.18476407049457,105.81678699634722 168.890847072209,105.98059019524953 170.3951108584297,105.92208910563568 171.30841387153487,106.09759219817352 172.3214894826524,106.61239821959316 172.9047754406056,106.23799429151404 173.55713473563083,106.99849975033067 174.17879476974485,107.3377989831315 174.2708925525949,107.665396367418 173.9101762365026,108.05149091970816 174.09437180217355,108.33228535065791 174.53183627061662,108.53118058714244 175.82120523025515,108.76517411360692 178.46901648663334,108.42588319358038 178.80670835703495,108.56627967598615 179.89653212053236,109.60754302758869 181.1628766344802,109.17466052361851 182.1375781694369,109.05766470013987 184.16372939173016,110.64878776971454 185.83683911315165,112.62593162614576 186.4661739624862,113.65542375716541 186.76549175669788,114.53281746548964 184.71631608871394,115.04754895842052 184.47839681638288,114.75508844072465 184.20977828311152,113.71391708210285 183.47299602048588,112.75461913732579 182.4215463331493,113.29276383181059 181.6387151790841,112.25156634109953 180.42609437179635,112.9418004643776 180.14980102333357,112.69612484930258 179.55884025015985,112.67272711764235 179.02160318364622,112.36855575106165 177.6247868106875,112.54403942558565" stroke="#4dd2ff" stroke-linecap="round" stroke-linejoin="round" stroke-width="0.5"><title>2022-05-26 10.0km</title></polyline><polyline fill="none" points="16.864580927824136,144.2557059394967 18.568789510172792,144.17985859893815 20.8327746342693,143.4403438356385 23.532141512958333,144.69182696571806 24.4651024157356,144.63494172866922 24.88804469164461,145.2417158235694 27.002756071276963,143.9333543212997 28.08499071848928,145.6399092046122 27.74912479351042,147.59292861770518 28.483054036973044,149.52694687450276 29.34137806756189,150.98691481383867 31.7297579786391,153.24318450874853 35.90942282305332,158.62767755735695 37.45191818231251,163.36729415820446 38.136089511041064,163.5 38.011694724002155,162.60897148519143 36.15821239713114,158.11578473315603 35.859664908231935,155.78379342413973 36.991657470265636,155.34772361824434 37.116052257304545,155.02540985892847 35.026219835097436,146.8344792737189 34.11813788971631,145.14690762824466 31.381452574947616,141.98025922156376 27.774003750877455,138.98417075153702 25.78368715828401,137.86535384506715 22.636499046289828,136.84134031206486 18.419515765766846,136.5 14.73743006947916,136.86030362654128 13.854227081494173,137.12578962960106 14.053258740750607,137.84639073239669 13.568119071336696,139.9323102954222 12.684916083351709,140.95629031024873 11.863910488958936,143.04214117977244 13.966182389849564,142.47327732998383" stroke="#4dd2ff" stroke-linecap="round" stroke-linejoin="round" stroke-width="0.5"><title>2022-05-24 5.1km</title></polyline><polyline fill="none" points="68.45302305350197,155.22770138727356 68.19464984774822,154.94126833195332 68.4295345802384,154.02825682659022 66.66789908657665,153.67021054673387 65.4112657677615,153.74181991774094 63.790561113506556,154.24308390432998 63.50869943454745,154.04615910282155 64.01370160939405,152.70347840870818 65.2703349282383,150.64466206981888 65.68138321008882,149.31983337207203 65.52870813399204,148.58579818532598 66.6326663767104,148.1203093256263 66.6326663767104,147.78014285262907 66.43301435408648,147.2967461582448 64.8357981731242,146.22252189751453 62.16985645933892,145.0587643412291 60.2438016528904,144.77229861272644 55.31122227056767,145.18409280799824 53.86668116573128,145.50636519915133 52.85667681603809,145.29151706781704 52.11678990867222,145.5421731707538 48.9693344932748,148.10240585937572 47.00804697696003,148.99757476602827 42.721400608978,148.85434834497573 41.66441931272857,148.5499914362881 41.5,148.89015497185756 41.969769464980345,149.1408009569932 44.31861678994028,149.39144623745233 47.7479338843259,149.23031720943254 49.6857329273771,148.10240585937572 52.269464984798105,145.77492463527597 52.97411918226862,145.45265321487386 59.79752066117362,145.34522914922854 62.228577642468736,145.57798112794262 63.55567638101638,146.49107917622314 62.897999130073,147.76223931811546 62.60439321442391,150.3403112730375 64.98847324925009,151.07433201411186 63.602653327572625,154.04615910282155 65.90452370597632,153.50908925168187 67.11418007832253,153.63440583971533 68.5,154.01035454677185 68.4295345802384,154.74434507260594" stroke="#4dd2ff" stroke-linecap="round" stroke-linejoin="round" stroke-width="0.5"><title>2022-05-22 5.0km</title></polyline><polyline fill="none" points="76.92748316246434,143.86269554679893 77.00159961392637,144.25811808067374 77.96511348281638,144.29577728267031 79.29920960901654,144.10748112149304 80.9544770248176,143.44844158003252 81.4979976688046,143.91918458227883 82.7950355692301,144.12631075464742 83.73384395433823,144.67236847070308 84.70971056510461,144.59705035408115 85.00617637092364,145.0489581464135 86.8837931411108,143.86269554679893 87.50143023655983,144.35226605726348 88.10671459007426,145.538522463954 87.78554330047336,147.85450362960546 88.58847152453382,149.6620589452432 89.93492039258126,151.58254829498037 91.60254055034602,152.99464772655483 95.97541118608206,158.64283284229168 97.5565621504793,163.5 98.13714102018275,163.38704548114765 98.05067182678613,162.84109672201885 96.06188037944958,158.02154913020786 95.75306183175417,156.0070554529375 95.87658925083815,155.6681644141281 96.95127779690665,155.2351351936304 97.02539424836868,154.7079664873454 95.13542473627604,147.13900335886865 94.24602731887717,145.3313994107666 90.82431781006744,141.3018235327254 87.79789604237885,138.94801919203746 84.46265572693665,137.3285674967192 80.54683654182008,136.57532462038216 77.92805525707081,136.5 74.90163348938222,136.8389603153555 73.99988333007786,137.19675043015013 74.09870526532177,137.931157441315 73.61694833086221,140.02136129964492 72.97460575160221,140.64276427288132 71.86285897978814,143.14716481844516 73.99988333007786,142.46928856580053 75.81573639065027,142.63875808839657 77.03865783964284,143.12833498873806 76.76689751763479,143.84386586070468" stroke="#4dd2ff" stroke-linecap="round" stroke-linejoin="round" stroke-width="0.5"><title>2022-05-16 5.4km</title></polyline><polyline fill="none" points="117.24438342486974,147.67369229413816 117.8577134298539,147.72506128719033 119.19221168247168,147.29356014257064 119.50898652021715,147.57095415328513 120.21667498753231,147.7045136961533 120.57388916627679,147.92026299049394 121.17373939092795,147.89971547784444 121.38267598602397,148.17710620233265 122.46779830254673,147.550406500377 123.08112830756,148.47504271284924 122.94633050427365,149.81059885478317 123.48552171741903,150.95093074027682 124.19321018474875,151.91659732903645 124.99525711433671,152.58433484430861 127.3339990015229,155.56336529452528 128.19670494260208,158.19298599254398 128.5,158.1724426045439 128.4865202196961,157.87456255188954 127.5227159261267,155.31683142592738 127.25986020971322,154.21768680939203 127.3070394408569,154.00196406636314 127.94058911634784,153.69378714160484 127.96080878684006,153.49860746261766 126.97678482277843,149.481849808064 126.37019470795349,148.29011680710028 124.77284073889314,146.39972476659023 122.61607588618062,144.6736536421231 121.38267598602397,144.05718555669955 120.16949575638864,143.73867413559128 117.98577134299558,143.53318184385716 116.02446330504608,143.70785034445726 115.88292561160051,143.3174140492556 114.95282076887088,142.63928077067249 114.03619570644514,142.12553745434343 112.71517723417492,141.80701400745238 109.61482775835611,142.00223829080278 108.86669995007105,142.1974618291897 107.84223664503952,142.13581237124163 105.80004992513568,143.70785034445726 104.68796804793237,144.201028774336 101.99875187219004,144.1085581808511 101.6347978033009,143.92361649247687 101.580878681998,144.01608742022654 101.5,144.2113032744237 101.89091362958425,144.31404816163922 104.58686969547125,144.44761620658755 105.74613080380368,143.99553833960817 108.12531203197432,142.14608728605162 109.45307039441832,142.23856142656223 110.43709435847995,142.0844377661706 112.5601597603818,142.1049876143843 113.36894658015808,142.20773673163785 114.29905142288771,142.63928077067249 114.59560659012641,142.3618600205773 113.19370943585818,141.89948876083508 112.35796305543045,141.80701400745238 109.52046929605422,141.98168840129438 108.52970544183336,142.23856142656223 109.97878182728891,142.1974618291897 110.82126809786132,142.00223829080278 112.56689965052647,142.0741628389842 113.49026460311143,142.26938610291472 114.37993010484206,142.6495555843976 114.7843235147302,142.35158514909926 115.45157264106092,143.0399969762475 115.91662506241119,143.26604063071136 115.94358462309174,143.66675192736875 115.37743384925125,143.89279281276686 115.43809286071337,144.201028774336 116.75911133302725,144.8277695028919 117.98577134299558,144.73530004211352 118.0329505741538,146.15314674247566 117.72965551674133,146.33808037196286 117.71617573640833,146.65657561141052" stroke="#4dd2ff" stroke-linecap="round" stroke-linejoin="round" stroke-width="0.5"><title>2022-05-14 9.9km</title></polyline><polyline fill="none" points="143.12118126271525,146.85063988598267 143.99185336049413,146.9065215106748 145.81568228104152,146.26388011698873 146.65885947045172,146.78078779202042 147.1812627291074,146.82269905683643 147.79531568224775,147.1859289608692 148.36354378817487,147.1300475605858 148.91344195519923,147.49327586010259 150.2698574337992,146.5852015558121 151.13136456211214,147.91238308015818 150.9389002036478,149.60275657587408 151.4338085539639,150.77621485251075 152.04786150713335,151.83789814523698 153.6517311608768,153.33260900665118 156.9144602851011,157.5232159167208 158.1883910386823,161.16883864521878 158.4633401221945,161.07106581552216 158.5,160.54029662862376 157.43686354375677,157.95623091082598 156.85947046839283,155.52572476842033 156.94195519346977,155.30222568841054 157.8309572301223,154.8552253748021 156.80448065171367,150.38506429260087 155.65885947045172,147.63297854728444 153.21181262729806,144.74107572561843 150.98472505089012,142.96675700737615 148.6201629327552,141.8211098569118 146.2647657841153,141.33210837727165 144.3309572301514,141.1784214880572 141.5906313645246,141.4299089481392 141.36150712828385,140.92693311888434 140.12423625253723,140.0187731058686 138.8136456211796,139.27826462882513 137.78716904277098,138.95690944101443 136.52240325862658,138.83116135477758 132.18737270872225,139.16648907967829 131.5,139.41798381266926 136.78818737270194,139.18046103313463 138.51120162929874,139.59961833220586 139.07026476575993,140.06068844436595 138.52036659873556,141.1784214880572 138.30040733196074,143.13441110557324 140.06008146639215,143.83296549932493 139.0977596740995,146.02638070840112 140.5733197555819,145.57932079879174 142.36965376781882,145.76093923351436 142.8920570264745,145.95652778690055 142.80040733196074,146.78078779202042" stroke="#4dd2ff" stroke-linecap="round" stroke-linejoin="round" stroke-width="0.5"><title>2022-05-12 7.0km</title></polyline><polyline fill="none" points="171.27977099234704,145.35114322208392 172.43396946566645,145.35114322208392 174.340458015271,144.69137454557494 174.79389312976855,145.09980342997733 176.39122137404047,145.64960817641258 177.34961832061526,145.68102547380113 177.79274809159688,146.1051577535327 179.4209923664166,145.11551219062676 180.23511450379738,146.43503682586015 180.11145038169343,148.7441513863232 180.80190839694114,150.1421536104317 181.8324427480984,151.60296070558252 183.1515267175564,152.71818217102555 185.16106870229123,155.16847209278785 185.36717557252268,155.7653259638828 186.3564885496162,156.78624966227653 186.99541984731331,157.9013972488101 187.9229007633403,161.07398373333126 188.5,160.9169280229762 186.78931297708186,155.74961934140447 186.69656488546752,154.9956977540569 187.7580152671726,154.3360104056701 186.6347328244301,149.40388588576752 185.88244274808676,147.3775407967114 185.30534351142705,146.27795172680635 182.9866412213596,143.48178418714087 181.1213740457897,141.8008938056082 179.01908396944054,140.40274251588562 177.62786259542918,139.7429321048985 176.1232824427425,139.3501851705514 172.65038167938474,138.92601626667602 169.33206106870784,139.24021567554882 168.45610687020235,139.57012369672884 167.0442748091882,139.49157429404295 162.09770992366248,140.10425754309108 162.01526717559318,140.74835527204414 161.7164122137474,140.7169359936961 161.54122137403465,140.95258027392265 161.5,141.84802206541644 161.70610687023145,142.09937230492505 163.26221374046872,142.03653482079972 165.95190839696443,142.47639615002845 167.0958015267097,142.9948009702057 166.77633587786113,144.45574152696645 168.53854961832985,143.8430923569831 169.77519083971856,143.95305538179673 171.03244274808094,144.33007029347937 170.8263358778495,145.11551219062676" stroke="#4dd2ff" stroke-linecap="round" stroke-linejoin="round" stroke-width="0.5"><title>2022-05-10 6.0km</title></polyline><polyline fill="none" points="27.14504864056653,182.76269890852564 27.818533300087438,182.7524328082509 29.13856323272921,182.28018996819083 30.586555250672973,182.92695623224427 31.18595659766288,182.92695623224427 31.367797455721302,183.16307521058116 32.36455475180992,182.5368442267427 32.5329259167047,182.61897331737782 33.04477425791265,183.39919309847755 32.876403093046974,184.66189199093787 33.273759042145684,185.63712588965427 33.89336492891016,186.5815451992712 34.991144923944375,187.59780301461433 36.843227737612324,189.97925735507306 37.415689698187634,190.87227413846995 38.08917435770854,193.16119996267662 38.5,193.1406719352708 38.271015215766965,192.13478849732928 37.725492641562596,190.9030675424874 37.2742579196929,189.322315511763 37.2607882264856,188.98357657579618 37.95447742579563,188.59351077874817 36.90384135695058,184.31285639132693 36.391993015728076,183.26573529581947 35.11237216263544,181.66421449100744 33.6711149912735,180.35010866883385 32.856198553257855,179.80597683831365 31.401471688688616,179.05650275978041 30.0545023696759,178.72796271365587 28.074457470691414,178.54315800988843 26.05400349215779,178.6971619760916 25.804814168135636,178.28648370197334 24.154776752300677,177.19817032062565 22.37004240458191,176.78748000484848 19.245073584432248,177.0133600868321 18.753429782984313,177.1776358832176 17.770142180102994,177.14683421160953 16.05275629834796,178.49182325140282 14.651908206520602,179.17970473278547 12.04552257420437,179.10783695128703 11.634696931912913,178.9230336206674 11.5,179.16943791302765 13.695559990024776,179.43637455627686 14.941506610120996,179.3439735682914 16.275006235955516,178.63556044526922 17.945248191565042,177.1776358832176 20.086929408818833,177.187903102953 20.632451983023202,176.9825583162201 21.31267148916959,177.1262997535232 23.15128460963024,177.1776358832176 24.363556996773696,177.66019298235187 24.740708406083286,177.34191115172507 25.387253679218702,177.98873989034837 25.87889748068119,178.19408063565788 25.872162634084816,178.676628140729 25.602768770273542,178.85116547835787 26.249314043394406,179.3542403529682 27.69730606135272,179.5082418759339 29.522449488649727,179.26183921649135 30.195934148170636,179.55957561386094 31.152282364666462,180.391174987024 31.630456472950755,180.20637629528574 33.26702419556386,181.53075215943318 34.28398603142705,183.16307521058116 34.142554252932314,183.00908469620117 33.06497879770177,183.56344837736833 32.84272886006511,184.54896896944774 32.95048640559253,184.94933128390403 33.89336492891016,186.5815451992712 34.86991768520966,187.45409101439873 37.13956098779454,190.30772511163377 38.223871289606905,193.2125199951479 38.41918184085807,193.13040791848834 38.43938638063264,192.81222237608745 37.395485158398515,190.26666675747038 37.1732352207473,189.1683435463383 37.23384884011466,188.99384142499548 37.92753803942469,188.6243055551131 37.05874282863806,184.94933128390403 36.52668994762644,183.57371431479623 34.54664504864195,181.19196159924832 33.11212272386183,180.04211023078096 31.31391868297942,179.05650275978041 28.781616363179637,178.5739588402248 26.006859565968625,178.66636121997362 25.851958094295696,178.27621670286317 24.733973559486913,177.42404858805457 23.420678473441512,176.9517565270835 22.51820902968757,176.80801459902068 19.676103766527376,176.99282557514016 18.5311798453331,177.2187047498337 20.92878523323452,177.06469632989683 20.895111000252655,178.46102237157174 20.699800448986934,179.53904212484485 21.097156398100196,179.67250965580024 20.814292841096176,179.75464334781282 20.86143676728534,180.5143737437793 23.48129209280887,180.8018363549745 24.336617610388203,181.12009664635116" stroke="#4dd2ff" stroke-linecap="round" stroke-linejoin="round" stroke-width="0.5"><title>2022-05-08 15.0km</title></polyline><polyline fill="none" points="51.21917808215949,180.24003738549072 51.96917808218859,180.27135915114195 54.21917808215949,179.55095535900182 56.417808219150174,180.50627199248265 57.20890410957509,180.47495032121515 57.67123287668801,180.9134525748159 58.852739726018626,180.13041110665654 59.397260273981374,180.06776744962553 60.21917808215949,181.4145949888043 59.96232876711292,183.09026655183698 60.496575342462165,184.53100210345292 61.86301369860303,186.53545947129896 63.116438356169965,187.52200941651972 66.67123287671711,192.23535360490496 68.04794520547148,196.18119018500875 68.5,196.07158630846243 68.45890410957509,195.5392224317693 67.30821917805588,192.72076490332984 66.59931506848079,189.808251801398 67.66780821917928,189.21320886429748 66.50684931504657,183.98289932346233 65.900684931461,182.21328405575332 65.1404109588766,180.9134525748159 63.05479452054715,178.43901470526907 60.52739726024447,176.21508583823015 57.321917808178114,174.4766184077307 52.297945205442375,173.81880981498398 42.126712328754365,174.93081634088594 42.044520547933644,175.5259682494434 41.5205479451688,175.74523359727755 41.5,176.35604095851886" stroke="#4dd2ff" stroke-linecap="round" stroke-linejoin="round" stroke-width="0.5"><title>2022-05-05 5.1km</title></polyline><polyline fill="none" points="83.01818181818817,181.98001451849996 84.22727272726479,182.0631595356972 85.79090909089427,181.49499992156052 87.82727272727061,182.2848790919379 88.57272727272357,182.2848790919379 88.81818181820563,182.58974231862157 90.23636363635887,181.75829398283167 90.35454545455286,181.84143926718752 91.0545454545354,183.04703463360056 90.86363636364695,184.39117935014656 91.30909090908244,185.8461518572949 92.14545454547624,187.13481617753132 93.70909090907662,188.61744320949583 95.2727272727061,190.5018577704068 96.96363636365277,193.06513322207684 97.8909090909001,196.05781005547033 98.5,196.05781005547033 97.00909090909408,191.0006647776063 96.97272727271775,190.30787629404585 97.6636363636353,190.11389427252652 97.7727272727061,189.8921998660844 96.68181818182347,185.02859965248717 95.51818181815906,182.67288660127815 93.64545454544714,180.35866666075162 90.89999999999418,178.0720857113156 88.57272727272357,176.89412050238388 85.35454545455286,176.31205968264112 81.68181818179437,176.49222188955537 81.37272727271193,175.9378751346012 79.42727272724733,174.55198876480063 77.93636363634141,174.05306285810366 76.3909090909292,173.94218994452604 72.53636363634723,174.2470900282533 71.51818181818817,174.55198876480063 71.5,174.6905786542302 74.76363636361202,174.4549756765373 74.47272727274685,177.6424771997772 74.93636363637052,177.79491923579917 74.67272727272939,177.80877758599308 74.62727272728807,178.97286906888985 78.18181818179437,179.36089519962843 79.39999999999418,179.77663506157114 79.52727272728225,179.98450405331823 79.11818181816489,180.89912017900133 79.18181818179437,181.12084347494238 80.79999999998836,180.677396170664 81.92727272724733,180.7466849998018 83.29999999998836,181.20398952728647 84.13636363638216,181.19013185883523 84.92727272727643,180.9129779058494" stroke="#4dd2ff" stroke-linecap="round" stroke-linejoin="round" stroke-width="0.5"><title>2022-05-04 7.1km</title></polyline><polyline fill="none" points="110.95872955495724,180.15573620855866 112.59166983643081,180.12442631281738 114.24515024723951,179.5451909743424 116.30943324457621,180.42186981435225 117.39806009887252,180.5471088438935 117.53157093952177,180.93847951469797 119.24667173830676,179.92091168430488 120.18124762264779,181.3298482208411 119.93476607074263,183.19273633101693 120.46880943325232,184.52334344464907 121.7422974515066,186.38615525496425 123.06713579306961,187.544519988689 126.32274629137828,191.6925768686342 126.81570939521771,192.52216176470392 127.88379612020799,196.1064931672372 128.5,196.0908414231817 128.34594903007383,195.13607909638085 127.05192088248441,192.24041694065818 126.6103081019537,190.37774499098305 126.57949790795101,189.7829328102016 127.51407379232114,189.3916065325102 127.64758463294129,189.14115668401791 125.97356409282656,182.55090595768706 125.06979840243002,180.76627666159766 124.06333206541603,179.46691559854662 120.25313807529164,176.0696885679572 117.5521110688569,174.61368880828377 114.40947128186235,173.92481923090236 111.05116013693623,173.89350683275552 108.42202358311624,174.3945036939258 106.8712438189541,174.37884759075678 102.08539368581842,174.9581213144411 102.05458349181572,175.55304660445836 101.86972232785774,175.78788428507687 101.57189045264386,175.6782934554576 101.5,176.17927884734672 101.57189045264386,176.97771766165533 101.99296310383943,177.49435018424265 103.67725370862172,178.52760495893745 106.41936097375583,179.29470949513052 106.99448459487758,180.62538313525147 107.01502472424181,181.98734322463133 109.46957017877139,182.66048712716292" stroke="#4dd2ff" stroke-linecap="round" stroke-linejoin="round" stroke-width="0.5"><title>2022-05-01 6.0km</title></polyline><polyline fill="none" points="137.64363885088824,179.2677146348069 137.5697674418625,179.06127354929777 139.23187414504355,179.23017992589303 140.36456908346736,178.81729713305685 140.4384404924931,179.3427840074146 140.42612859094515,178.81729713305685 141.41108071134659,178.44194755683566 142.1744186046708,178.9862039505606 143.3071135430946,179.1175757087185 144.11969904240686,179.58675905194832 145.2277701778512,179.53045717514033 145.48632010945585,180.0371728456521 147.22229822160443,178.948669128622 147.55471956223482,179.02373875751073 148.56429548567394,180.58141995038022 148.3426812585385,183.11494234540442 148.97058823533007,184.4848925153783 149.88166894667665,185.9861847113134 151.9377564979368,187.9002972901435 156.07455540358205,193.0982287976658 157.97058823533007,198.42721590174187 158.5,198.29587127963168 158.4384404924931,197.5453270414655 156.24692202464212,191.4844615070033 156.37004103968502,190.60250714418362 157.51504787965678,189.94572721289296 155.9637482900289,183.34014101260254 154.6217510260176,180.1685431266087 152.0608755129797,177.05314101800468 148.56429548567394,174.1440874641703 144.8953488372208,172.36107440133492 142.53146374828066,171.77924172508938 139.1580027359887,171.5727840982654 135.42749658002867,171.9481612622767 135.0088919288537,172.2109243800005 135.68604651166243,172.86782894234784 137.28659370724927,173.33704366003803 141.5957592339546,172.83029166316555 142.70383036936983,173.07428370835987 144.72298221616074,174.81974668493785 145.94186046512914,174.4068444082004 146.68057455541566,175.30771975111566 149.0690834473353,177.2032832603145 150.58344733246486,179.66182816831133 148.62585499315173,180.78785767835507 148.30574555401108,182.42057637233665 148.4904240766191,183.5278061542558 150.23871409028652,186.38026991715742 152.23324213409796,188.20054668723606 156.24692202464212,193.49228402024892 157.9213406292547,198.40845239561895 158.47537619702052,198.3146348083974 158.42612859100336,197.5453270414655 157.04719562243554,194.1678033943026 156.25923392613186,190.99657288788876 156.40697674421244,190.64003728656098 157.50273597810883,189.94572721289296 156.12380300959921,183.9406681393957 154.58481532151927,180.0371728456521 151.8515731874213,176.80915935976373 148.44117647060193,174.01270871513407 145.38782489742152,172.49245547210012 140.6231190150429,171.68539740577398 139.02257181939785,171.5915529922495 134.4548563611752,172.2672306662571 131.72161422710633,172.37984313703055 131.5,174.10655069756467 133.58071135432692,175.1388062857659" stroke="#4dd2ff" stroke-linecap="round" stroke-linejoin="round" stroke-width="0.5"><title>2022-04-30 10.1km</title></polyline><polyline fill="none" points="170.9011428571539,180.86965967351716 172.40285714287893,180.96373249154567 174.21314285715926,180.30522038508934 176.52742857142584,181.32434391084098 177.44285714285797,181.2302715272599 177.7102857143036,181.60656038170418 179.3765714285837,180.71287139152992 180.26114285716903,182.170990263352 179.98342857146054,183.8956118452188 180.69314285714063,185.62019533774583 181.86571428569732,187.28203066841525 183.11028571426868,188.3010631428624 186.6485714285809,192.83167730643618 187.89314285712317,196.67230352715706 188.05771428570733,196.97014011793362 188.5,196.8604109798107 188.35599999997066,195.63770443864632 186.6485714285809,190.9975156955552 186.7102857143036,190.5115340323464 187.59485714283073,190.16664198494254 187.70800000001327,189.9314874428892 186.45314285712084,184.4757032710986 185.31142857141094,181.95149023860722 182.38000000000466,178.53348166994692 179.97314285713946,176.5892265505463 177.66914285713574,175.4289222024454 174.1720000000205,174.67628313532623 171.826857142878,174.6135628855409 169.37885714287404,174.8487635623096 168.3708571428724,175.1780433194799 167.2600000000093,175.11532347282628 162.44628571430803,175.67980027927842 162.15828571427846,175.75819951297308 161.98342857143143,176.32267167180544 161.5,176.2599527446 161.60285714286147,175.00556361989584 165.59371428572922,174.69196318987088 165.64514285718906,173.547310931237 165.99485714288312,173.02985988207365 166.66342857145355,173.42186856758053 166.07714285716065,174.55084258540592 165.84057142859092,176.79306202028238 168.02114285717835,177.49864222958422 166.66342857145355,180.39929388318706 167.03371428573155,181.59088171561598 166.97200000000885,182.7197376256736 168.81314285716508,183.2057677833509 170.2840000000142,184.1778190231489 171.49771428570966,182.6413453814166 170.36628571432084,182.0455617533371 170.58228571430664,181.089162739343 170.86000000001513,180.9950900723852" stroke="#4dd2ff" stroke-linecap="round" stroke-linejoin="round" stroke-width="0.5"><title>2022-04-28 7.1km</title></polyline><polyline fill="none" points="27.018943170493003,217.67204999581736 27.113160518478253,217.77463434618403 27.26794616151892,217.6515331010196 28.095712861424545,217.67204999581736 29.138833499513566,217.29248610834475 29.71086739783641,217.67204999581736 30.13484546363179,217.692566882346 30.579012961126864,217.9387688783463 31.21161515454878,217.9387688783463 31.440428713860456,218.21574470565974 32.48354935196403,217.55920697248803 33.02193419744435,218.55426867761707 32.87387836491689,219.6621496305379 33.2372881356132,220.64691253192723 33.72856430709362,221.4572760998053 34.89955134598131,222.55483664153144 37.20787637089961,225.49864428456567 38.02218344966241,228.01151662489428 38.217347956146114,228.23715625780824 38.5,228.13459291183972 38.419242273201235,227.65254242809897 37.65204386842379,225.91917438844393 37.19441674978589,224.30883304640884 37.228065802613855,223.898546884775 37.90104685944971,223.6113446113195 36.898305084745516,219.42621403352678 36.319541375894914,218.31832796435629 34.81879361915344,216.50257384222277 33.620887337994645,215.43565996433244 32.38260219343647,214.61494181916714 31.29237288137665,214.06094961744748 29.569541375909466,213.64032189644786 27.792871385870967,213.54798851854503 25.989282153561362,213.69161814543259 25.84795613163442,213.32228400323584 24.111665005009854,212.19374646862707 22.57726819544041,211.7936226289239 19.1854436690046,212.03985305501556 18.8018444666086,212.19374646862707 18.007726819560048,212.0603722036176 17.563559322050423,212.25530370427805 15.645563310084981,213.74291434288534 14.622632103710203,214.18405951479508 12.004735792652355,214.0814679542782 11.722083748769364,213.94809861761314 11.5,214.24561435221767 14.514955134611228,214.43027841944786 15.127367896318901,214.2763917431039 16.09646061815147,213.7531735761877 18.02791625127429,212.0603722036176 18.525922233326128,212.12192959996173 19.744017946184613,211.84492073220827 22.90029910270823,211.76284374219176 24.771186440702877,212.3886774603816 25.908524426733493,213.41461778913072 25.874875373905525,213.7121366305728 25.309571286168648,213.9583578097263 25.38359920241055,214.46105569908468 25.154785643098876,215.4254010689001 24.683698903303593,216.0101548210987 24.024177467625123,217.51817308401223 24.387587238306878,218.09264452335265 24.37412761716405,218.92356499796733 25.255732801611884,219.1184703130566 26.5613160518551,219.83653611067348 27.308325024932856,218.75943362957696 28.667746759747388,217.97980242900303 29.556081754752086,217.66179154943893 28.634097706890316,216.90266080211586 27.961116650069016,217.1899007898428 27.032402791635832,217.22067640702517 26.62861415754014,218.27729468559482 26.803589232324157,218.5132355883834 27.355433698918205,218.77995007948994 28.18993020938069,218.22600304080697 28.021684945182642,217.86696008541549 27.07278165506432,217.83618485755142" stroke="#4dd2ff" stroke-linecap="round" stroke-linejoin="round" stroke-width="0.5"><title>2022-04-27 10.1km</title></polyline><polyline fill="none" points="46.904907571180956,214.2986982525763 48.29228377935942,214.1854046026201 50.99271247020806,213.3734627833619 51.61207684886176,213.86440518641757 52.86319289371022,214.10987542679504 53.64359201077605,214.63857838358672 54.72128602961311,214.67634276676836 55.055742794065736,215.05398576437437 56.86428677965887,213.90216988050088 57.48365115831257,214.26093371774186 58.15256468721782,215.60156541712786 57.966755373665364,218.05619364386075 58.61089432743029,219.60446465029236 60.283178149780724,221.8890618954465 61.5962306324509,222.96525789671432 65.8202956947789,228.4404503509504 67.43064307922032,233.5 68.13671847086516,233.34897260829894 68.09955660815467,232.78261772939732 66.50159651125432,228.70476192139176 65.9565558580507,226.5524889592998 65.88223213260062,225.75953387295158 67.14573546504835,225.06097266229335 65.60971180602792,218.30165294269682 64.1727864475688,215.24280669446307 61.4599704691791,211.97615114587825 59.23025870605488,209.99344359507813 57.89243164821528,208.99263247854833 54.1762453764386,207.1798154107164 49.19655577218509,206.5 44.87339240926667,206.83990831972915 44.0062822792097,207.1798154107164 44.13015515494044,208.12399532782 43.684212802298134,209.80461212427326 42.91620097277337,210.729882708285 42.37116031956975,212.29715700777888 41.863281529105734,212.97693050980888 42.65606793377083,212.9958130369123" stroke="#4dd2ff" stroke-linecap="round" stroke-linejoin="round" stroke-width="0.5"><title>2022-04-25 5.0km</title></polyline><polyline fill="none" points="87.00575287643005,217.76169568800105 88.18759379691619,217.6690465540196 89.14657328664907,217.24697615825426 89.55852926464286,217.55580849621765 90.18659329666116,217.6587521954716 90.55802901450079,217.874933291052 91.15232616310823,217.864638973846 91.42921460731304,218.13229054963813 92.50300150075054,217.48374778376092 93.05677838920383,218.37935230249786 92.91495747872978,219.59405527055787 93.26613306654326,220.55138563603032 93.97523761881166,221.63222101671636 94.97473736868415,222.51745968870455 97.27088544273283,225.47157581272768 98.20960480239592,228.2608463137367 98.5,228.15792389909257 98.4797398699302,227.75652450806592 98.06103051526588,226.43908904107593 97.64232116058702,225.69801671535606 97.27763881941792,224.38052835579583 97.24387193597795,223.96880630079613 97.96648324164562,223.618839954539 97.0615307653934,219.78964034658202 96.35242621311045,218.24552733415476 95.51500750375271,217.17491501171025 94.50200100052461,216.08369098385447 92.95547773886938,214.82772514417593 91.41570785392832,214.04530464013442 89.11280640319455,213.54084298362068 87.6135567783931,213.48936702528226 86.06028014009644,213.70556570298868 85.86443221611262,213.2319864582314 84.10180090046197,212.14067849873754 82.44047023513122,211.73915368625967 79.60405202601396,211.91417770912813 78.82741370686563,212.14067849873754 77.78739369685354,212.08920113443673 76.24762381191249,213.33493884010386 75.04552276138566,214.01441937523123 74.22161080542719,214.1791405729673 72.00650325164315,214.0555997242882 71.62831415708933,213.90117324481616 71.5,214.15855045218996 73.84342171087337,214.39533634175677 74.91720860431087,214.30268112393605 75.97073536769312,213.76733658630837 77.79414707353862,212.2127467219252 78.09804902452743,212.08920113443673 78.92871435720008,212.17156489252375 80.73861930964631,211.97595075100617 82.52826413208095,212.01713273756468 83.45347673837387,212.16126942999472 84.29764882443123,212.562790936252 84.5745372686506,212.28481484379517 83.18334167082503,211.8318135375266 81.31940970485448,211.80092693903862 79.15157578789513,211.99654174842726 78.47623811908124,212.18186035297185 79.90120060031768,212.12008755921852 80.8061530765408,211.9244732212901 81.33966983492428,212.05831469105397 82.60930465233105,211.99654174842726 83.79114557278808,212.34658743905675 84.16258129065682,212.7172214474449 83.77763881943247,213.5820237130938 83.61555777890317,214.89978959002474 84.97298649327422,215.33217413781313 84.27063531767635,217.04108689939676 84.94597298649023,216.81460775963205 86.14132066033198,216.84549133759356 87.01250625314424,217.0719703409195 86.87068534267019,217.55580849621765" stroke="#4dd2ff" stroke-linecap="round" stroke-linejoin="round" stroke-width="0.5"><title>2022-04-22 10.1km</title></polyline><polyline fill="none" points="115.52986348126433,217.47824975055846 116.60494880547049,217.46654417956597 116.68174061432364,217.24413788385573 117.81825938564725,216.92808537247038 118.31740614335285,217.27925472378047 119.03156996588223,217.38460511670928 119.52303754267632,217.6772440980276 120.09897610923508,217.6304219597514 120.3754266211763,217.95817613810868 121.65017064847052,217.23243226585328 122.31825938567636,218.29763388028005 122.18003412970575,219.64373994928974 122.57167235494126,220.73230734373647 123.41638225255883,221.93790127435204 124.46075085326447,222.87426770837556 127.11006825938239,226.2801737732152 128.1313993174117,229.32308306639607 128.5,229.32308306639607 128.32337883961736,228.25808287830296 127.66296928329393,226.80684251559796 127.1177474402939,224.93422092765468 127.10238907849998,224.54798524307625 127.77815699658822,224.24367653793524 127.90102389079402,224.04470460270386 127.0025597269705,220.18217367409306 126.51877133108792,218.8594906274193 126.08105802049977,218.05181985062882 124.41467576794093,216.02674102119272 122.1262798634998,214.0952419100904 120.3677474402939,213.2172666119659 118.501706484647,212.79583377188828 116.32849829352926,212.64364894196115 114.32423208194086,212.85436629298056 114.06313993176445,212.32757148723613 112.1279863481177,211.09836509297747 110.26194539249991,210.67691693360393 104.78668941979413,211.09836509297747 102.95904436861747,212.63194240013763 101.52303754264722,213.29921153264877 101.5,213.6386964053745 102.88993174061761,212.95972468285618 105.17064846417634,211.00471020975965 107.29778156997054,211.08665824078707 108.21160409555887,210.85252070362912 108.9948805460881,211.00471020975965 110.69965870308806,210.96958958977484 111.59812286691158,211.25055395721938 112.16638225258794,211.66029123228145 111.73634812288219,212.71388814360762 111.59812286691158,214.31766021969452 113.1262798634998,214.7742004069696 112.30460750852944,216.6822655678734 113.57935153585277,216.2959752091847 116.02901023891172,216.79932274694147 117.32679180888226,216.37791580219346" stroke="#4dd2ff" stroke-linecap="round" stroke-linejoin="round" stroke-width="0.5"><title>2022-04-21 8.1km</title></polyline><polyline fill="none" points="145.2457337884116,217.46655371949964 146.505119453941,217.38461472246127 146.81996587029425,217.25585320873506 146.95051194538246,216.99832932798017 146.8660409556469,217.39632030053326 147.80290102388244,216.92809534491607 149.45392491470557,217.61872583703735 150.16040955632343,217.60702030364337 150.3754266211472,217.91136340814774 151.58873720135307,217.16220829281883 152.27218430035282,218.15717783267974 152.14931740614702,219.69056822432685 152.6254266211763,220.80254366093868 153.19368600685266,221.69210873970587 154.56058020479395,223.00302201050727 157.17918088738224,226.36210273074175 158.16979522185284,229.36989579635338 158.5,229.27627033643512 158.3848122867057,228.7028111139516 157.57081911264686,226.73662238702673 157.08703071673517,224.67673450511938 157.17150170647074,224.46606005127614 157.84726962458808,224.1968638079743 157.58617747438257,222.59336477981924 156.8796928327647,219.7725039803263 156.06569965870585,218.06353436459176 154.30716723549995,215.92139895540095 152.1186006825883,214.11866663274486 150.45221843002946,213.2641052105173 148.92406143344124,212.83096655500412 146.42832764505874,212.6202492885932 144.18600682594115,212.84267304746027 144.17064846417634,212.7139015010289 144.06313993173535,212.33929174855803 142.0127986347943,211.03984551082613 140.13907849832322,210.630104203643 136.6143344709999,210.86424244614682 135.78498293514713,211.08667290541416 135.20904436861747,210.9227768598139 134.8634812286764,211.00472494021597 132.96672354949987,212.51489036978455 131.51535836179391,213.21727956509858 131.5,213.56847098903745 132.8822525597352,212.87779251073516 135.14761092152912,211.00472494021597 136.1228668942058,211.13350026237094 138.18856655291165,210.91106998176474 140.18515358361765,210.91106998176474 141.3600682593824,211.12179342667878 142.18941979520605,211.70713233221977 141.71331058020587,212.7021949827249" stroke="#4dd2ff" stroke-linecap="round" stroke-linejoin="round" stroke-width="0.5"><title>2022-04-19 7.2km</title></polyline><polyline fill="none" points="165.0375152604247,213.30025505603408 165.07653282466345,213.08217834392417 166.98839347314788,212.96322720709577 168.91325997633976,212.24951737641095 171.87859485967783,213.55798145832523 173.06212764204247,213.47868109847332 173.32224473706447,213.99413229891798 175.2861288045533,212.72532450340805 175.7283278660907,213.08217834392417 176.534690860688,214.54923058227723 176.26156791092944,216.98766107604024 176.9248665032501,218.63307201512362 177.88729975483147,220.15951306728675 180.12430677207885,222.28063223356003 184.6763559351093,228.16798593242856 186.35411119801574,233.40089455773705 186.5491990193259,233.40089455773705 186.90035709759104,233.24232564333943 186.84833367861575,232.19180015384336 185.0925432871154,227.9499420549182 184.53329153280356,225.43249150842894 185.8989062817418,224.42152873846499 184.4422505495604,218.05817251437838 182.95958310787682,214.2518568900341 180.0332657888066,210.78243096662482 176.13150936341844,207.4516673786202 174.7919063240115,206.81722347876348 173.99854918417986,206.5 173.86849063666887,208.06628101872047 174.4797658099851,208.85932522335497 177.04191919602454,210.98068716075068 178.62863347568782,213.20112933750352 179.8511838223203,215.22327430228324 180.4234414313687,217.44362107059715 184.15612174503622,216.90836347072036 184.8844496110978,219.02955247912905 185.96393555548275,224.48099742325576 184.7543910635868,225.35320068483998 185.7168243152264,229.05997859954368 187.18648590211524,233.16304109067278 186.48416974552674,233.5 186.0029531197215,232.8459022432653 184.66335008031456,228.94104670947127 183.85698708574637,227.375096797281 180.33240044809645,222.7563910239478 177.74423535258393,220.2388080615492 176.0924917991506,217.36432383152714 176.00145081590745,216.59117241269269 176.39162645844044,214.80695372440096 178.47256321864552,213.53815637429943 179.825172112789,215.2034495525877 180.5014765598753,217.48326966632158 183.85698708574637,216.67047027274384 182.64744259385043,213.97430730253836 179.1748793752049,210.0092280054887 176.0924917991506,207.51114628523646 174.0115550389164,206.5198264972496 173.9335199103807,208.3041949489707 175.1040468380379,209.4541041965931 174.0115550389164,210.3660916630397 172.65894614477293,210.0092280054887 172.19073537370423,210.32644020922453 171.46240750764264,211.21859406828298 171.64448947415804,212.9434020036715 168.38001993155922,213.47868109847332 167.66469792017597,214.19238204408612 165.6357845790044,215.3620474380732 164.1271054278186,217.28502652872703 162.81351409791387,216.57134793775185 164.73838060113485,211.9323113511491 166.42914171880693,211.9521367576017 168.13290869124467,211.2978962433408 168.88724826680846,212.24951737641095 167.24851056816988,213.2407796368425 164.68635718213045,213.32008018775377" stroke="#4dd2ff" stroke-linecap="round" stroke-linejoin="round" stroke-width="0.5"><title>2022-04-10 10.4km</title></polyline><polyline fill="none" points="13.830224860779708,248.35084018868656 13.974774892034475,248.13049885035434 15.591107059211936,248.23065406445676 17.956471206329297,247.32925351746235 18.758066833979683,247.93018812041555 20.900035478320206,248.65130486576527 22.095858463813784,248.53111910351436 22.279831230815034,249.09198475509038 24.38237713937997,247.89012592618383 25.578200124844443,249.51263192448823 25.354804622067604,252.0565079605076 25.985568394622533,253.67894619907747 27.41792779485695,255.88221514147153 29.4547691437474,257.74494092480745 33.856974639813416,263.4330495669783 35.47330680701998,268.47997303446755 36.169775139249396,268.5 33.77812916820403,261.0697198622438 33.76498825629824,260.44883582370676 35.15792492075707,259.74783307160396 33.489029105810914,252.21674994853674 32.14865608909167,249.47257036571682 29.297078200645046,245.96712168193335 25.210254590871045,242.50161418764037 23.081426858436316,241.5 23.015722298820037,243.44312235416874 26.16954116168199,245.96712168193335 27.733309681119863,248.71139769255387 25.696468332229415,249.77303166424826 24.46122261096025,247.97025029864017 22.437522173975594,249.1520773164375 20.019594379118644,248.2106230296995 18.968321424821625,248.13049885035434 17.62794840816059,248.51108812908933 15.972193505149335,249.69290873980935" stroke="#4dd2ff" stroke-linecap="round" stroke-linejoin="round" stroke-width="0.5"><title>2022-04-09 5.2km</title></polyline><polyline fill="none" points="43.815351578057744,248.33587961900776 45.28822709037922,248.21560425768257 45.32767911304836,248.015145000114 48.04986867605476,247.23335004969704 48.799457106448244,247.93496118443727 50.009319134493126,248.09532875144214 50.91671565544675,248.5764299069342 52.04767363818246,248.5764299069342 52.37644049359369,249.05752874397876 54.38849364887574,247.77459335976164 54.980273988621775,248.31583373555623 55.6509583737643,249.57871653450275 55.414246237807674,252.04429881557007 56.0586292744847,253.7681657039575 57.68931287745363,256.07329003035557 59.51725659365184,257.71691139406175 63.87012975962716,263.4292874016537 65.57971740790526,268.5 66.18464842191315,268.39979078290344 66.06629235393484,267.2373565141097 64.73807425799896,264.13078473016503 63.79122571431799,260.5430751098538 64.00163650180912,260.18229270686425 65.14574515871936,259.64111665801465 64.44875942519866,255.8928909157039 62.975883912848076,250.78144720534328 62.10793941447628,249.07757447852782 60.56931053104927,247.23335004969704 56.84766972754733,243.64503314968897 55.34849286676035,242.5023576757958 53.139179598219926,241.5 52.968220833397936,242.84315699284343 53.20493296929635,243.58489266136166 56.01917725181556,245.87020574878989 57.80766894543194,248.5764299069342 55.808766464324435,249.67894464386336 54.3490416262066,247.91491522046272 52.54739925841568,249.01743726277346 49.86466171804932,248.11537467924063 47.45808833630872,248.47620069074037" stroke="#4dd2ff" stroke-linecap="round" stroke-linejoin="round" stroke-width="0.5"><title>2022-04-07 5.0km</title></polyline><polyline fill="none" points="73.81050450686598,247.6497524219012 73.69223620451521,247.89012592524523 74.02075926656835,248.0904367355397 75.55824719689554,248.0904367355397 78.22585446070298,247.30922230073338 79.02745073207188,247.93018811945512 80.43352943760692,248.1505299001874 80.94602541442146,248.4910571495493 82.15499028269551,248.5511500728826 82.40466780986753,249.0318921564467 84.48093356197933,247.78997036921646 85.11169784108642,248.310778162333 85.82130765507463,249.7329702089046 85.59791197290178,252.2968708447297 86.74117222879431,254.60031912942213 87.88443248471594,256.1025393581367 89.44820226004231,257.34435766900424 94.08694789608126,263.4130215835103 95.70328136134776,268.5 96.30776379551389,268.43991909125907 96.26834102804423,267.41853810810426 94.21835712090251,262.7120396582395 93.82412944643875,260.3887500653509 95.13822169462219,259.80791921357013 95.23020815197378,259.2471138033143 93.74528391152853,253.0780462229377 92.77285564789781,250.2337372299662 91.68215908194543,248.69136675326445 90.94626742295804,249.11201561183407 91.36677694236278,248.41093319544598 89.29051119025098,245.76680660721468 85.53220736052026,242.62180721408367 83.21940500370692,241.5 83.08799577888567,242.86219283301762 83.3376733060577,243.603378177977 86.1235488721577,245.74677507773595 88.05526447697775,248.33080917699408 86.82001776370453,249.31232396867563 85.84758950007381,249.69290873863065 84.6911883216817,247.9902813806184 84.20497418986633,248.07040567258082 83.81074651540257,247.62972127051762 83.17998223632458,245.50639640979352 84.40208802706911,244.36458982706245 86.14983071715687,245.82690117162565 88.04212355450727,248.41093319544598 86.08412610471714,249.6328165031082 85.86073042251519,249.6728779974219 84.52035632941988,247.87009482205758 82.56235887962976,249.0318921564467 82.10242659278447,248.65130486464477 80.9066026469518,248.5311191024157 78.08130431341124,247.46947191431536 76.64894376287702,248.1705609470664 74.75665092552663,248.2907471436847" stroke="#4dd2ff" stroke-linecap="round" stroke-linejoin="round" stroke-width="0.5"><title>2022-04-03 6.2km</title></polyline><polyline fill="none" points="126.5983606557129,259.3734271231733 127.17213114758488,256.99934175964154 126.9918032787391,256.02470412857656 128.5,255.27497767958994 128.5,254.55023781881027 123.97540983610088,251.65123616644996 121.4016393442871,250.9514670284334 115.87704918032978,251.0264424814959 110.893442622968,251.80118618406414 108.71311475412222,251.62624447930284 104.81147540983511,254.77515753759508 101.64754098356934,256.3495841870754 101.5,257.02433236772777 104.25409836065955,255.84976836116402 108.7950819671969,251.85116948313953 109.71311475412222,251.55126938764442 113.66393442626577,251.6012527870771 116.02459016395733,251.0764260916767 121.68032786890399,251.57626108982367 124.5,252.77585689423722 125.106557377032,252.35100136935944 124.56557377049467,251.80118618406414 120.106557377032,250.87649153036182 112.38524590164889,251.426310801231 110.87704918032978,251.8761611250884 108.87704918032978,251.62624447930284 103.92622950818622,255.4998960886005 101.5,256.474537829934 101.72950819676043,257.02433236772777 104.696721311484,255.54987790199084 108.696721311484,251.97612764290534 109.90983606560621,251.5262776804302 110.64754098362755,251.65123616644996 113.31967213115422,251.0014506688094 120.71311475412222,250.6265728768194 125.12295081972843,251.92614439397585" stroke="#4dd2ff" stroke-linecap="round" stroke-linejoin="round" stroke-width="0.5"><title>2022-03-24 5.1km</title></polyline><polyline fill="none" points="147.5247747815738,267.86339030943054 146.77927041694056,267.69665831222665 145.71568419007235,268.5 145.2385613967199,268.25748265611765 145.0,267.6511858854137 144.69185819593258,264.9076320847671 144.33401610091096,264.0587775482127 143.9065935985418,263.75561289883626 141.4315191079222,263.69497982279427 140.16913171712076,262.4823080667411 152.38546323904302,246.15481635997276 146.53076896205312,241.5 137.61453676098608,259.6930890433068 143.11138894292526,265.30173987273884 143.44935092155356,265.0288962388513" stroke="#4dd2ff" stroke-linecap="round" stroke-linejoin="round" stroke-width="0.5"><title>2021-10-26 5.0km</title></polyline></svg>