<?xml version="1.0" encoding="utf-8" ?>
<svg baseProfile="full" height="300mm" version="1.1" viewBox="0,0,200,300" width="200mm" xmlns="http://www.w3.org/2000/svg" xmlns:ev="http://www.w3.org/2001/xml-events" xmlns:xlink="http://www.w3.org/1999/xlink"><defs /><rect fill="#222222" height="300" width="200" x="0" y="0" /><text fill="#FFFFFF" style="font-size:12px; font-family:Arial; font-weight:bold;" x="10" y="20">Over 5km Runs</text><text fill="#FFFFFF" style="font-size:4px; font-family:Arial" x="10" y="280">ATHLETE</text><text fill="#FFFFFF" style="font-size:9px; font-family:Arial" x="10" y="290">Wenz</text><text fill="#FFFFFF" style="font-size:4px; font-family:Arial" x="120" y="280">STATISTICS</text><text fill="#FFFFFF" style="font-size:3px; font-family:Arial" x="120" y="285">Number: 32</text><text fill="#FFFFFF" style="font-size:3px; font-family:Arial" x="120" y="290">Weekly: 2.7</text><text fill="#FFFFFF" style="font-size:3px; font-family:Arial" x="141" y="285">Total: 228.7 km</text><text fill="#FFFFFF" style="font-size:3px; font-family:Arial" x="141" y="290">Avg: 7.1 km</text><text fill="#FFFFFF" style="font-size:3px; font-family:Arial" x="167" y="285">Min: 5.0 km</text><text fill="#FFFFFF" style="font-size:3px; font-family:Arial" x="167" y="290">Max: 15.0 km</text><polyline fill="none" points="42.571428571420256,53.1400305257921 42.10308511953917,52.81367248680908 42.38409119070275,51.81419447011285 42.10308511953917,51.54902518243034 39.50712427205872,51.30425291790016 36.817494734190404,51.83459207897977 37.486556808289606,49.71321882176562 38.85144343946013,47.754988800996216 39.19935571801034,46.2250953301409 38.98525585429161,45.409142723896366 40.32338000249001,44.91956801406195 40.28323627804639,44.51158728671726 40.16280510468641,44.12400407797395 38.32957502166391,42.818449757141934 34.823689753422514,41.34968108814064 32.97707842892851,41.14568375991803 26.72803865687456,41.696475605836895 26.005451616860228,42.043268939552945 24.533515053917654,41.79847376805992 23.824309255345725,42.0636685105128 20.66633626559633,44.65438072768302 18.80634369965992,45.67432803985139 16.397720232896972,46.04150656515412 15.30045843141852,45.694726881658426 12.66435385949444,45.77632220778469 11.941766819480108,45.38874382474023 11.714285714289872,45.980310236460355 17.936563003313495,46.32708894499956 17.97670672775712,45.73552455288882 20.867054887872655,44.28719718819775 23.342584561993135,42.0636685105128 24.73423367610667,41.53327833321964 25.37653326720465,41.61487700231373 25.37653326720465,42.6348548349124 23.73064056498697,44.00160907320242 23.73064056498697,44.28719718819775 27.009044728038134,43.77721784811001 27.4506256969471,45.041961912749684 29.952917854010593,44.98076498186856 29.993061578454217,46.69426511076745 30.809317308856407,46.83705548344733 30.18039895920083,47.265425397257786 30.27406764961779,48.632117332053895 32.37492256221594,48.632117332053895 35.813901623070706,49.30525734715775 37.25907570309937,49.85600495086692 36.87101970016374,51.79379685719323 39.159211993566714,51.039082299073925 42.19675380989793,51.50822984601837 42.49114112253301,51.77339924019179 42.46437863953179,53.03804375121399" stroke="#4dd2ff" stroke-linecap="round" stroke-linejoin="round" stroke-width="0.5"><title>2022-06-09 5.2km</title></polyline><polyline fill="none" points="62.25772818730911,43.80136862579093 63.51216389244655,43.77125571205397 65.26047192246187,43.214164626726415 67.4038778123504,44.14766626458004 68.33235778307426,44.13260987873946 68.46076458753669,44.41868069233897 70.0411560270586,43.53035196683777 70.40662154747406,43.84653797374631 71.01902323029935,44.915537932669395 70.7622096213745,46.451257679698756 71.00914578381344,47.369663283985574 72.15492957746028,49.34193894392956 73.83409548198688,50.92273312910402 77.18254984452506,55.16812973405467 78.54563746112399,59.202539247708046 79.0,59.09716564014525 78.81232851656387,58.269225000251026 77.41960856044898,54.882099925023795 77.0936528260354,53.18095273255312 77.21218218401191,52.92502459422394 78.17029449425172,52.44327514080942 76.67880007319036,46.3609220946164 75.80958478144021,44.56924384011654 72.99451252975268,41.40735424820741 70.75233217488858,39.615557626995724 68.37186756907613,38.39590686352312 66.1691970001848,37.83877583970752 63.55167367841932,37.612910731761076 60.69709164075903,37.899006420208025 60.371135906345444,37.20635182299884 59.126577647723025,36.40828533187596 57.80299981709686,35.62526844340027 56.489299432956614,35.2337569326628 55.05706969089806,35.083175038016634 49.63435156393098,35.62526844340027 49.58496433144319,36.21253187635739 50.29614047924406,36.092067957397376 49.387415401492035,36.28782172741194 48.142857142869616,37.31175619621354 50.86903237606748,37.10094730156561 51.115968538535526,37.92912169234478 52.943296140496386,38.00440981971042 52.93341869401047,39.193952199326304 53.50631059083389,39.28429641908588 53.04207060547196,39.52521380633698 53.111212730931584,40.59427537359443 56.66709346990683,40.895416725528776 58.37589171392028,41.49769580116117 57.92152917504427,43.063598758024455 58.356136820919346,44.3132863090359 58.26723980245879,45.48767249483353 59.906895920983516,45.879130469518714 61.48728736053454,46.797543080981995 62.59356136820861,45.36722347607429 64.89500640204642,43.93687658798444 65.77409914028249,43.71102984830213 64.5492957746319,42.551672543057066 63.591183464450296,42.98831571031042 62.22809584782226,43.03348554803233 62.08981159684481,43.77125571205397" stroke="#4dd2ff" stroke-linecap="round" stroke-linejoin="round" stroke-width="0.5"><title>2022-06-07 8.0km</title></polyline><polyline fill="none" points="113.88060678821057,41.412558257576165 112.81196114810882,43.3289537026576 110.96540434355848,42.75404153356067 110.52537378587294,43.34093098060839 109.01669758814387,44.586554756035184 108.18378260394093,45.04168003221275 107.8223289315938,45.49680183609962 106.77725635710522,47.48492479225388 106.40008730767295,49.02986615942791 105.76361453675781,50.32327467462164 105.11142638875754,53.221366020101414 104.75783040488022,53.5566732876905 103.40630797774065,54.77813382621389 102.33766233766801,55.42477928156586 97.63876459674793,56.52645539716468 95.14787733275443,54.07160577941977 93.82778565972694,53.353094100002636 91.76121357633383,52.91000758424343 91.61191749427235,52.622598355032096 91.81621739605907,51.65258198414449 91.71406744516571,51.185531439768965 90.6611371821491,50.65859823082792 88.61028047581203,48.58674753378 85.03503219468985,48.45500892927885 84.57142857142026,48.15560192802877 84.57142857142026,47.59271269756937 87.32161955689662,45.544709192428854 87.30590417986969,45.30517202607007 87.10160427808296,45.26924136817979 86.36298155627446,45.88005960941882 86.15868165448774,45.79622218188888 86.23725853976794,45.58063968440911 90.65327949362108,42.10725872024341 90.71614100184524,40.598071549855376 90.93615628068801,40.52620454173666 92.8377169049636,40.981360797653906 95.35217723454116,40.63400502147124 98.29095274474821,39.04093365429435 101.22187056642724,38.21443625788743 102.55767761651077,37.962891298913746 102.95056204302819,38.17850132871172 106.11721052057692,37.759258888549084 106.72225253737997,37.86706436888562 106.87940630799858,38.825326741884055 110.05391247407533,39.136758698565245 110.98111972064362,39.48412319354611 110.61180835973937,40.75378310379892 110.98111972064362,41.75990950020787 110.96540434355848,42.7300867395752 112.34049983631121,43.11336228854998 113.55058386991732,43.784088573713234 114.14776819822146,42.897770095281885 115.42857142857974,41.92759558308535 115.22427152682212,41.43651358062198 114.40707191970432,41.38860292490426" stroke="#4dd2ff" stroke-linecap="round" stroke-linejoin="round" stroke-width="0.5"><title>2022-06-05 8.1km</title></polyline><polyline fill="none" points="127.15337466041092,41.8692407951894 127.28877899283543,42.12150759222277 127.43922825105255,41.77750727629609 129.06408023962285,41.8692407951894 132.05802047782345,40.837234459737374 133.39701887581032,41.66284027410438 136.54140837216983,42.3049740036804 136.93257644353434,42.83243829517596 139.46012398129096,41.45643938000285 140.1371456432389,42.14444090973848 140.79912237933604,43.612163655234326 140.46813401125837,46.3411604975845 141.2655150797218,48.26747195258213 143.07090617815265,50.85876825857849 144.96656683151377,52.463966570590856 147.82510273734806,55.97239291702135 150.27742564602522,59.38899212873366 151.255345824291,61.77367196139676 151.85714285710128,61.475589704823506 150.6385038656881,58.38007413560263 150.20220101688756,55.995323453731544 150.3827401267481,55.58257308906468 151.69164867314976,55.05516767477093 151.70669359894237,54.59655229159398 149.94643727794755,46.91447087388224 148.35167514107889,43.15350232340279 145.47809430939378,39.644682191596075 140.46813401125837,35.44771653143107 136.96266629517777,33.589993964342284 131.47126837086398,32.51204232431337 126.41617329529254,32.64965373852465 124.58069234516006,32.856070548907155 123.55763738945825,33.36064340368466 123.70808664761716,34.32391266342893 123.16646931809373,36.61737820079725 122.745211395144,36.73205026868527 121.0,40.44736297282361 123.6328620184795,39.80521879913431 126.6117573309457,40.149225055436546 127.28877899283543,40.401495651574805 127.07815003133146,41.548173156770645 127.6197673609131,41.84630742239824 127.24364421534119,42.02977427600126" stroke="#4dd2ff" stroke-linecap="round" stroke-linejoin="round" stroke-width="0.5"><title>2022-06-04 5.1km</title></polyline><polyline fill="none" points="188.04453817999456,53.03550752810406 188.13832888775505,51.74879066229914 187.14682711986825,51.46285137051018 185.2308169468597,51.27903282995976 182.618075801729,51.89176000678708 183.288009428652,49.95144461749442 184.467092612118,48.25619140182971 185.02983685873915,46.295381357726 184.8288567706768,45.53964239425113 186.00793995408458,45.02900478058291 186.03473729919642,44.29368211299152 182.49748774891486,42.0059775938571 180.76905899134,41.45446969957993 179.04063023385243,41.25020675761334 172.62266608770005,41.69958468849654 171.89913777061156,41.96512525984872 170.23770237577264,41.80171575950226 166.03051919853897,45.008579222681874 163.61875814152882,46.070702792931115 159.23739222131553,45.886874507225 157.65634886172484,45.45794054832368 157.42857142857974,46.02985209151666 158.23249178085825,46.25453074645338 163.73934619440115,46.41793309295463 166.35208733947366,45.294536659595906 170.3046957384504,41.92427290937485 172.71645679546054,42.08768221281207 178.62527138515725,41.76086334339925 181.0370324421383,42.12853449759132 182.658271819324,43.21111406669661 182.09552757273195,44.08942487296008 181.54618199865217,47.56174216762156 183.9713417282037,48.419590532597795 182.7118665095477,51.72836645384814 185.08343154887552,51.054365273615986 186.74486694371444,51.23818422020122 188.28571428571013,51.74879066229914 188.1115315427014,52.93338773659343" stroke="#4dd2ff" stroke-linecap="round" stroke-linejoin="round" stroke-width="0.5"><title>2022-06-03 5.0km</title></polyline><polyline fill="none" points="42.35695668362314,87.34421680191736 42.115675809880486,87.07858979114826 42.410574655630626,86.22040547910728 40.89586694803438,85.62784542067675 39.23370981757762,85.50524635711918 37.156013404543046,86.22040547910728 36.80749658684363,86.07737405679654 37.02196847466985,85.01484862566576 38.97902445078944,81.84763968920015 39.27392329653958,80.5602943309641 39.07285590170068,79.76335809018201 40.279260270588566,79.27293268580252 40.225642298639286,78.6803321685511 36.67345165697043,76.28946054802509 34.635968722897815,75.65597232810978 33.282114931120304,75.5129260552203 27.384138016641373,75.96249937864195 25.721980886213714,76.37120067622163 24.44855405241833,76.10554501951992 20.21273426839616,79.33423599065281 17.880352488573408,80.3355180745275 12.706218195380643,80.13117559228704 11.995780067081796,79.72248939676501 11.714285714289872,80.27421537291957 12.45153282865067,80.5398601463603 16.526498696795898,80.76463595146197 18.818666997656692,80.49899176481995 21.08402631257195,79.12989149761415 24.62281246125349,76.18728529546206 26.191138140799012,76.43250572925899 30.105250093125505,75.98293448252662 35.413429316162365,76.37120067622163 36.820901079830946,77.16816348490829 36.88792354479665,77.57685993980704 36.15067643043585,79.10945702576282 35.788755119778216,81.90894144285267 38.52327168924967,82.68542712619819 36.96835050266236,86.03650789921812 39.52860866326955,85.40308035792987 41.41864217456896,85.70957804768841 42.57142857144936,86.179539378958 42.34355219066492,87.16032125293714" stroke="#4dd2ff" stroke-linecap="round" stroke-linejoin="round" stroke-width="0.5"><title>2022-06-02 5.0km</title></polyline><polyline fill="none" points="58.6714176912501,76.08298759800527 60.32825590253924,76.02925228592358 62.09084974435973,75.47398549877107 62.67838102491805,75.63519234141859 62.666630399326095,75.20530678027717 65.2282667827385,76.35166367301281 66.29757371341111,76.40539879087737 66.43858122077654,76.7278088185194 67.29637689047377,76.42331048967753 68.29518006747821,75.63519234141859 68.96496572735487,76.19045812512923 69.50549450551625,77.35471386968857 69.27048199326964,79.71900185249251 69.82276139705209,80.88321154652658 71.20933521926054,82.99666108813835 72.91317593297572,84.44738984383002 76.90838864108082,89.65907261516259 78.34196496574441,94.22576085432956 79.0000000000291,94.15412833355367 76.76738113371539,87.4741430193244 76.76738113371539,86.84730907698395 77.98944619737449,86.16674152424093 76.6733761288342,80.29215313905297 75.28680230662576,76.9964829513483 72.06713088892866,73.073760270192 69.23523011643556,70.9242500249893 66.76759873790434,69.65243207300227 64.18246110330801,68.98964651636197 60.2812534001132,68.63138200281537 57.01457947996096,68.95382012976188 55.96877380047226,69.32999647138786 54.24143183551496,69.27625709115091 49.270917201647535,69.84947547800402 48.76564030032023,70.01069248560088 48.70688717227313,70.67347045565839 48.1781090197037,70.72720899413252 48.142857142869616,72.08857450415235 51.574039821571205,72.33935009510606 53.93591556960018,72.96628598808456 54.48819497335353,73.360357722755 54.01816994891851,74.91871525530587 56.215536938310834,74.36344155535335 58.97693395713577,74.82915521487303" stroke="#4dd2ff" stroke-linecap="round" stroke-linejoin="round" stroke-width="0.5"><title>2022-05-30 6.1km</title></polyline><polyline fill="none" points="100.46992802244495,78.58428464809913 100.59289984140196,78.46378167094372 101.46248627547175,78.53072779624199 103.19287544224062,77.94159958680757 105.17799194826512,78.73156576889232 105.9509576674318,78.74495494555595 106.24960351345362,79.02612703455088 107.51445650844835,78.22277506333194 107.82188605586998,78.4503924377932 108.37525924120564,79.41441035126991 108.14688300597481,81.00768718422842 108.39282664388884,81.73067419872314 109.70159814567887,83.75231850516502 110.79956081492128,84.66270784733206 113.89142369158799,88.63882150117934 115.024521166255,92.13278629344495 115.37586922044284,92.10601331287035 115.42857142855064,91.69103073894075 114.37452726604533,89.06721017222662 113.80358667805558,86.81813894847801 113.90020739292959,86.55038732176399 114.69952421615017,86.24247162203028 114.74344272294547,86.00149312616486 113.33805050628143,80.43196969603014 112.63535439793486,79.11985080076192 110.9401000365906,77.05789751324846 108.18201781139942,74.7013013920623 107.75161644502077,74.63435142191156 106.021227278281,73.64348400418385 103.67597901669797,73.12126416965839 101.28681224837783,73.00075131930862 99.28412833964103,73.25516708123905 98.9679150908778,72.67938265348857 96.74563864828087,71.28676720259318 94.45309259486385,70.72435656369635 90.78150542880758,70.99217174527803 89.78894717578078,71.25998585113848 88.86665853360319,71.1394696366624 88.31328534829663,71.27337652821734 86.09979260704131,73.05431261298872 85.18628766620532,73.58992318375022 84.60656337681576,73.71043496925995 84.57142857142026,74.08535913118249 86.63559838963556,73.02753197151469 88.77003781872918,71.1260789326916 91.47541783581255,71.2332044889954 92.39770647799014,71.00556247609711 93.31999512013863,71.16625103644765 94.66390142735327,71.07251608999286 95.74429669391247,71.24659517141117 96.89496157132089,71.83578253615633 97.57130657558446,71.4474550852101 98.42332560694194,72.31784105299812 99.0294010003563,72.6258210585911 98.9854824935901,73.21499623600175 98.73075515430537,73.34889895937522 98.72197145296377,73.60331339290133 99.16994022202562,73.93806774755285 100.24155178721412,74.2728204215855 103.9570574600657,73.9514578867711 104.44894473586464,74.16569974875893 105.54690740516526,75.25028861148166 108.15566670731641,74.56740138455643 110.68537269733497,76.70976923836497 112.61778699525166,79.03951615209371 113.51372453334625,80.83363358408678 111.15090886910912,81.48967939817885 110.80834451626288,81.11479686616804 110.47456386481645,79.89641408175521 109.73673295107437,78.9056248558627 108.46309625473805,79.50813357172956 107.61986092472216,78.37005698260327 106.20568500671652,79.07968348852592 105.88947175795329,78.83867910694244 105.18677564960672,78.79851162534396 104.57191655482166,78.51733857657382 103.68476271803956,78.46378167094372 103.034768817859,78.6378414569408 102.42869342444465,79.13323989947821" stroke="#4dd2ff" stroke-linecap="round" stroke-linejoin="round" stroke-width="0.5"><title>2022-05-28 10.0km</title></polyline><polyline fill="none" points="137.0513278648723,78.43457677618426 138.30561195482733,78.38109594599518 139.63883700154838,77.76606331158837 140.40193291645846,78.31424484788295 141.0597742223763,78.39446615758061 141.64744578901445,78.72872057431596 142.32282952978858,78.70198028274899 142.656135791447,79.04960323586783 143.6297409242252,78.35435551479895 144.05953057744773,78.24739368261362 144.78754162270343,79.37048435108954 144.65597336148494,81.09519385332533 145.10330544950557,82.20486704765426 145.88394379924284,83.47495222540965 147.38382197677856,84.85196457476559 150.34849346222472,88.70210042039253 151.46243807359133,92.15099143678162 151.8571428571595,91.99058186162438 151.8045155526779,91.32220447293366 150.7081133761094,88.6218915273057 150.24323885323247,86.63000636057768 151.1905303337844,86.1487365781868 149.91870380897308,80.72084209826426 149.03281085033086,78.95601261932097 146.66458214898012,76.37553380563622 144.6121172744315,74.70418587569293 143.47185901080957,74.24957198113043 142.6736782262742,73.6879858259199 140.2352797856147,73.11302366454038 137.81442377972417,72.95256822174997 135.65670429627062,73.19325124094757 135.51636481765308,72.65839890570714 133.20076342078391,71.2142761394025 131.01673028504592,70.70615142036331 124.81547957440489,71.2142761394025 122.62267522132606,72.9793108224294 121.0,73.75484156892708 121.01754243479809,74.02226386983239 121.36839113131282,74.02226386983239 122.28936895960942,73.5409029548864 124.90319174854085,71.29450600372002 125.28912531468086,71.16078950947485 127.85909201655886,71.18753282981197 128.63973036626703,70.93347085297137 129.44668236823054,71.12067450886025 131.1658409810625,71.0538161207296 132.20961585317855,71.25439108362843 133.36741655159858,71.84274082239426 134.03402907497366,71.41485061887579 134.77958255502745,72.2839997146657 135.49005116542685,72.67177026643913 135.59530577439,73.0461672770507 135.18305855599465,73.48741819395582 135.39356777389185,73.80832611503865 135.89352716639405,74.0356349567337 137.36709169170354,74.30305612984012 140.3931616990012,73.91529507837913 140.77909526517033,74.07574820112859 142.02460813775542,75.26576346010552 143.47185901080957,74.77104059842168 144.58580362220528,74.63733108587621 146.90140501910355,76.45575745110182 148.81353041503462,78.71535042988035 149.53277024283307,79.89191286533605 149.87484772194875,80.89464853199024 147.53293267279514,81.48291309534034 147.26102493301732,81.14867250368843 146.95403232355602,79.95876237954872 146.11199545196723,78.86242187123207 144.91033866646467,79.47744437921574 144.0156744903652,78.28750438983116 142.62982213919167,79.07634338786374 142.31405831236043,78.79557125634892 141.6386745716154,78.76883099159386 141.0246893527219,78.4212065726424 139.42832778362208,78.62175934352854" stroke="#4dd2ff" stroke-linecap="round" stroke-linejoin="round" stroke-width="0.5"><title>2022-05-26 10.0km</title></polyline><polyline fill="none" points="163.55952106037876,74.86366393085336 165.5071880116011,74.77698125593452 168.09459958202206,73.93182152644295 171.17959030054044,75.36208796082065 172.24583133222768,75.29707626133313 172.72919393330812,75.99053236979671 175.14600693859393,74.49526208148745 176.38284653541632,76.4456105195568 175.99899976397865,78.6776327059415 176.83777604228817,80.88793928514497 177.81871779146604,82.55647407296055 180.54829483275535,85.1350680100004 185.32505465490976,91.28877435126196 187.08790649403818,96.70547903794795 187.86981658404693,96.85714285714494 187.72765111312037,95.8388245544993 185.60938559670467,90.70375398074975 185.26818846655078,88.03862105616281 186.56189425173216,87.54025556371198 186.7040597226587,87.17189698163565 184.3156798115233,77.81083345567458 183.27787187398644,75.8821801465674 180.15023151424248,72.26315339606663 176.02743285812903,68.83905228747608 173.75278532376979,67.56040439436038 170.15599891002057,66.39010321379465 165.33658944658237,66.0 161.12849150795955,66.41177557319315 160.11911666457308,66.71518814811861 160.346581418009,67.53873226559517 159.7921360815526,69.9226403376233 158.78276123810792,71.09290321171284 157.84446913021384,73.47673277688591 160.24706558836624,72.82660266284074" stroke="#4dd2ff" stroke-linecap="round" stroke-linejoin="round" stroke-width="0.5"><title>2022-05-24 5.1km</title></polyline><polyline fill="none" points="42.51774063258199,121.68880158545653 42.22245696885511,121.36144952222821 42.49089666313375,120.3180078018122 40.477598956087604,119.90881205340702 39.04144659169833,119.99065133456315 37.18921270116698,120.5635244620862 36.86708506802097,120.33846754607657 37.444230410736054,118.80397532423376 38.88038277512533,116.45104236550105 39.35015224007657,114.9369524252179 39.175666438852204,114.09805506893463 40.437333001958905,113.56606780071161 40.437333001958905,113.17730611727893 40.20915926180896,112.62485275226936 38.38376934072585,111.3971678828675 35.33697881066473,110.06715924711898 33.13577331756824,109.73976984311594 27.49853973777499,110.21039178055798 25.847635617945343,110.5787030847423 24.693344932602486,110.33316236321116 23.84775989560876,110.61962648085319 20.2506679923099,113.54560669642524 18.009196545084706,114.5686568754536 13.110172124521341,114.40496953711408 11.90219350028201,114.05713307003316 11.714285714289872,114.44589139640448 12.251165102847153,114.73234395084 14.93556204563356,115.01879569993616 18.85478158207843,114.83464823934628 21.069409059826285,113.54560669642524 24.022245696920436,110.8856281545959 24.827564779756358,110.5173179598496 32.62573789845919,110.39454759911314 35.40408873424167,110.66054986049858 36.92077300688834,111.7040904871028 36.16914186294889,113.15684493497974 35.83359224506421,116.10321288346313 38.55825514200842,116.9420937304094 36.97446094578481,120.33846754607657 39.605169949674746,119.72467343048629 40.98763437519665,119.86789238823985 42.571428571420256,120.29754805345146 42.49089666313375,121.13639436868834" stroke="#4dd2ff" stroke-linecap="round" stroke-linejoin="round" stroke-width="0.5"><title>2022-05-22 5.0km</title></polyline><polyline fill="none" points="54.34569504286628,108.70022348206112 54.430399558797944,109.15213494934869 55.531558266084176,109.19517403734062 57.05623955320334,108.97997842456243 58.94797374267364,108.22679037717899 59.569140192936175,108.76478237974516 61.0514692220022,109.00149800530926 62.12439309072215,109.6255639665178 63.239669217320625,109.53948611895612 63.57848728110548,110.05595216733491 65.72433501842897,108.70022348206112 66.43020598468138,109.25973263687774 67.12195953156333,110.61545424452197 66.754906629154,113.2622898624104 67.67253888520645,115.32806736599741 69.21133759157965,117.5229123371173 71.1171892004204,119.13674025892396 76.11475564126158,125.59180896262114 77.92178531485843,131.14285714285506 78.5853040231159,131.0137662641646 78.48648208775558,130.3898248251644 76.2135775765637,124.88177043452015 75.8606420934666,122.57949194622051 76.00181628670543,122.19218790186278 77.23003176791826,121.69729736414592 77.31473628390813,121.09481884267734 75.15477112721419,112.44457526728365 74.13831693585962,110.37874218373327 70.22779178293422,105.77351260883734 66.76902404846624,103.08345050518983 62.95732083078474,101.23264856767491 58.482098904962186,100.37179956615728 55.48920600808924,100.2857142857174 52.03043827362126,100.6730975032624 50.999866662954446,101.08200049160223 51.11280601751059,101.92132279007637 50.56222666386748,104.31012719959836 49.82812085899059,105.02030202615424 48.557553119782824,107.882474078222 50.999866662954446,107.10775836091489 53.07512730360031,107.3014378153166 54.47275181679288,107.86095427285181 54.16216859163251,108.67870384080743" stroke="#4dd2ff" stroke-linecap="round" stroke-linejoin="round" stroke-width="0.5"><title>2022-05-16 5.4km</title></polyline><polyline fill="none" points="102.56500962842256,113.0556483361579 103.26595820553484,113.11435575679207 104.79109906568192,112.62121159150774 105.15312745168922,112.93823331804015 105.9619142714655,113.09087279560481 106.370159047161,113.33744341770944 107.05570216104388,113.31396054611105 107.29448684115778,113.6309785169542 108.53462663147366,112.91475028614514 109.23557520864415,113.97147738611602 109.08152057629195,115.49782726261037 109.69773910561344,116.80106370317299 110.50652592541883,117.90468266175958 111.42315098780091,118.6678112506379 114.09599885885837,122.07241747945955 115.08194850583095,125.07769827719312 115.42857142857974,125.05422011947667 115.41316596535034,124.71378577359064 114.31167534412816,121.79066448677622 114.01126881109667,120.5344992107348 114.06518793239957,120.28795893298593 114.78924470438506,119.93575673326268 114.81235289925826,119.71269424299317 113.68775408316287,115.12211406635834 112.99450823766529,113.76013349382993 111.16896084445762,111.59968544753428 108.70408672705526,109.62703273385341 107.29448684115778,108.92249777908728 105.9079951501626,108.558484726389 103.41231010627234,108.32363639298273 101.17081520575448,108.52325753652258 101.00905784181668,108.07704462772381 99.9460808786971,107.30203516648544 98.89850937880692,106.71489994782314 97.38877398188924,106.35087315137571 93.8455174381088,106.57398661806292 92.99051422864432,106.79709923336122 91.81969902288984,106.72664270999303 89.48577134299558,108.52325753652258 88.2148206261918,109.08689002781466 85.14143071108265,108.98120934954568 84.72548320377246,108.76984741997512 84.66386135085486,108.87552848025734 84.57142857142026,109.0986323136276 85.01818700521835,109.21605504187391 88.0992796519713,109.36870423610162 89.42414949004888,108.85204381669973 92.14321375082363,106.7383854697764 93.6606518793269,106.84407020178696 94.78525069539319,106.6679288756277 97.21161115472205,106.69141441644388 98.13593894874793,106.80884197901469 99.19891591186752,107.30203516648544 99.53783610300161,106.98498288066185 97.93566792670754,106.4565585838136 96.98052920619375,106.35087315137571 93.737679195503,106.55050103005124 92.60537764782202,106.84407020178696 94.2614649454481,106.79709923336122 95.22430639754748,106.57398661806292 97.21931388630765,106.65618610169622 98.27458811784163,106.87929840333163 99.29134869124391,107.31377781074116 99.7535125882714,106.97324017039864 100.51608301833039,107.75999654428597 101.04757149989018,108.01833214938597 101.07838242637808,108.4762879169939 100.4313529705687,108.73462035744888 100.50067755510099,109.08689002781466 102.01041295201867,109.80316514616425 103.41231010627234,109.69748576241909 103.46622922760434,111.31788199139919 103.11960630485555,111.52923471081522 103.10420084159705,111.89322927018293" stroke="#4dd2ff" stroke-linecap="round" stroke-linejoin="round" stroke-width="0.5"><title>2022-05-14 9.9km</title></polyline><polyline fill="none" points="134.28135001452756,112.11501701255474 135.27640384057304,112.17888172648964 137.36077974978252,111.44443441941985 138.32441082337755,112.03518604802957 138.92144311897573,112.08308463638969 139.62321792257717,112.49820452670974 140.27262147222064,112.43434006924508 140.90107652024017,112.84945812583464 142.45126563863596,111.81165892093122 143.43584521385492,113.3284378058961 143.215885947051,115.26029322957766 143.78149549025693,116.60138840287254 144.48327029385837,117.81474073741992 146.31626418387168,119.52298172188603 150.0450974687119,124.31224676196871 151.50101832993096,128.47867273739394 151.81524585394072,128.3669323606009 151.85714285713038,127.7603390041404 150.64212976431008,124.8071210409471 149.9822519638983,122.02939973533648 150.07652022110415,121.77397221532738 151.09252254871535,121.2631147140637 149.91940645914292,116.15435919154697 148.61012510908768,113.00911833975988 145.81350014547934,109.70408654356288 143.26825720103807,107.67629372271767 140.56590049460647,106.36698269361659 137.87401803900138,105.80812385974423 135.6639511201647,105.63248170063889 132.53215013089357,105.91989594073675 132.2702938609291,105.34506642158522 130.8562700029288,104.30716926385503 129.35845213849097,103.46087386151339 128.18533604888944,103.09361078973598 126.7398894384387,102.94989869117853 121.78556880998076,103.33313037677726 121.0,103.62055292876903 127.04364271165105,103.34909832358244 129.01280186208896,103.82813523681398 129.6517311608768,104.35507250785304 129.02327611285727,105.63248170063889 128.7718940936611,107.86789840637357 130.78295024731779,108.66624628494174 129.68315391326905,111.17300652388803 131.36950829208945,110.662080912909 133.4224614489358,110.86964483830525 134.01949374456308,111.09317461360479 133.91475123655982,112.03518604802957" stroke="#4dd2ff" stroke-linecap="round" stroke-linejoin="round" stroke-width="0.5"><title>2022-05-12 7.0km</title></polyline><polyline fill="none" points="168.60545256268233,110.40130653952656 169.92453653216944,110.40130653952656 172.10338058887282,109.64728519494383 172.62159214829444,110.11406106282811 174.4471101417439,110.74240934447153 175.54242093782523,110.77831482719921 176.0488549618458,111.26303743261087 177.90970556161483,110.13201393214695 178.84013086147024,111.64004208670667 178.69880043619196,114.27903015580523 179.4878953107982,115.87674698335468 180.6656488549488,117.54624080638314 182.17317339149304,118.82077962403127 184.4697928025853,121.62111096319131 184.70534351142123,122.3032296730089 185.83598691385123,123.46999961402616 186.56619411121937,124.74445399863907 187.62617230095202,128.37026712380612 188.28571428571013,128.19077488340554 186.33064340238343,122.28527924732043 186.2246455833956,121.4236545760723 187.4377317338949,120.6697261779118 186.15398037078558,115.03301244087925 185.2942202835111,112.71718948196212 184.6346782987821,111.46051625921245 181.98473282440682,108.26489621387736 179.85299890948227,106.34387863498705 177.4503816793731,104.74599144672538 175.86041439475957,103.99192240559933 174.14089422026882,103.54306876634655 170.17186477643554,103.05830430477363 166.37949836422922,103.41738934348541 165.37840785167646,103.79442708197894 163.76488549620262,103.70465633604908 158.11166848416906,104.40486576353578 158.0174482006405,105.14097745376057 157.67589967281674,105.1050697070823 157.47568157032947,105.37437745591888 157.42857142857974,106.3977395033362 157.6641221374157,106.68499691991747 159.44252998908632,106.61318265234877 162.51646673935466,107.11588131431927 163.8237731733825,107.70834396594728 163.45866957469843,109.37799031653412 165.47262813523412,108.67781983655004 166.88593238822068,108.80349186491367 168.32279171209666,109.23436604969174 168.08724100326071,110.13201393214695" stroke="#4dd2ff" stroke-linecap="round" stroke-linejoin="round" stroke-width="0.5"><title>2022-05-10 6.0km</title></polyline><polyline fill="none" points="29.594341303483816,147.44308446688592 30.364038057246944,147.43135178085868 31.872643694543513,146.8916456779334 33.5274917150673,147.63080712256487 34.21252182588796,147.63080712256487 34.42033994939993,147.90065738352132 35.55949114492978,147.1849648305615 35.75191533335601,147.27882664843128 36.33688486617757,148.17050639825902 36.14446067775134,149.61359084678406 36.598581762460526,150.72814387389008 37.3067027759098,151.80748022773696 38.561308484495385,152.96891773098469 40.67797455727123,155.6905798343687 41.33221679792041,156.7111704439667 42.101913551654434,159.32708567162626 42.571428571420256,159.30362506887832 42.309731675166404,158.1540439969467 41.6862773046596,156.74636290570197 41.170580479636556,154.9397891562985 41.155186544550816,154.55265894376862 41.94797420091345,154.10686946142596 40.747247265069745,149.21469301865727 40.162277732248185,148.01798319522277 38.69985390015063,146.18767370400747 37.05270284716971,144.6858384786683 36.121369775151834,144.0639735295008 34.45882478705607,143.20743172545917 32.91943127961713,142.8319573870358 30.656522823643172,142.62075201129846 28.347432562470203,142.79675654410312 28.06264476358774,142.32740994510823 26.17688771689427,141.0836232235706 24.137191319518024,140.61426286268397 20.5657983822166,140.87241152780553 20.00391975196544,141.06015529510478 18.880162491550436,141.02495338469453 16.91743576954468,142.56208371588946 15.316466521733673,143.34823398032677 12.337740084796678,143.26609937289686 11.868225065030856,143.05489556647444 11.714285714289872,143.336500472029 14.223497131461045,143.64157092145615 15.647436125844251,143.53596979233043 17.17143569822656,142.72635479459132 19.080283647490432,141.06015529510478 21.527919324376853,141.07188926051458 22.15137369488366,140.8372095042505 22.928767416189658,141.00148543259638 25.030039553850656,141.06015529510478 26.41549371057772,141.61164912268578 26.846523892658297,141.24789845911073 27.585432776249945,141.98713130325268 28.147311406472,142.2218064407498 28.139614438958233,142.77328930368822 27.83173573744716,142.9727605466942 28.570644621009706,143.54770326053404 30.225492641533492,143.72370500106626 32.31137084416696,143.44210196170025 33.08106759790098,143.7823721301247 34.174036988202715,144.7327714137391 34.72052168336813,144.5215729088959 36.590884794917656,146.03514532506597 37.75312689304701,147.90065738352132 37.59149057479226,147.7246682242294 36.35997576880618,148.35822671699134 36.105975840066094,149.4845359650826 36.2291273206647,149.9420928958898 37.3067027759098,151.80748022773696 38.42276306881104,152.80467544502608 41.01664112889557,156.06597155615236 42.25585290239542,159.3857371373124 42.479064960964024,159.2918947639846 42.502155863592634,158.9282541440989 41.3091258952918,156.0190477228207 41.05512596658082,154.76382119581467 41.12439867440844,154.5643901999938 41.917186330771074,154.14206349155575 40.92427751843934,149.9420928958898 40.31621708301827,148.3699592169105 38.05330862701521,145.6479561134256 36.41385454154806,144.33384026374551 34.35876420911518,143.20743172545917 31.464704415062442,142.6559529602564 28.293553789670113,142.7615556799683 28.116523536329623,142.3156762318431 26.838826925115427,141.34176981491692 25.33791825536173,140.80200745952243 24.306524605344748,140.6377309703057 21.05840430461103,140.84894351444382 19.74991982325446,141.10709114266865 22.49004026656621,140.93108151988054 22.45155542885186,142.5268827103646 22.22834337025415,143.75890528553646 22.682464454963338,143.9114396066252 22.35919181839563,144.00530668321517 22.41307059119572,144.8735699928875 25.40719096318935,145.20209869139944 26.384705840435345,145.56582473868548" stroke="#4dd2ff" stroke-linecap="round" stroke-linejoin="round" stroke-width="0.5"><title>2022-05-08 15.0km</title></polyline><polyline fill="none" points="59.25048923678696,144.56004272627615 60.10763209394645,144.5958390298838 62.6790606653376,143.77252041028987 65.19178082191502,144.86431084855576 66.09589041094296,144.82851465282147 66.62426614479045,145.3296600855101 67.97455968690338,144.4347555504719 68.59686888454598,144.36316279957828 69.53620352246799,145.90239427291817 69.24266144813737,147.81744748781057 69.85322896283469,149.4640024039545 71.4148727984284,151.7548108243427 72.84735812133295,152.88229647601838 76.90998043052969,158.268975548468 78.48336594912689,162.77850306858454 79.0,162.65324149538355 78.95303326810244,162.04482563630881 77.63796477494179,158.82373131809436 76.82778864970896,155.49514491588343 78.0489236790745,154.8150958449187 76.72211350293946,148.83759922681202 76.02935420742142,146.81518177800172 75.16046966728754,145.3296600855101 72.77690802348661,142.50173109173193 69.88845401172875,139.9600981008407 66.22504892366123,137.9732781802668 60.48336594909779,137.22149693141546 48.859099804307334,138.49236153243692 48.76516634051222,139.17253514222102 48.16634050878929,139.42312411117746 48.142857142869616,140.12118966687558" stroke="#4dd2ff" stroke-linecap="round" stroke-linejoin="round" stroke-width="0.5"><title>2022-05-05 5.1km</title></polyline><polyline fill="none" points="97.73506493505556,146.54858802114904 99.11688311689068,146.64361089794693 100.90389610390412,145.9942856246489 103.23116883117473,146.89700467650982 104.08311688312097,146.89700467650982 104.36363636367605,147.24541979271453 105.98441558441846,146.29519312324555 106.1194805194973,146.39021630536445 106.91948051948566,147.76803958126402 106.70129870131495,149.30420497160958 107.21038961037993,150.96703069406067 108.16623376624193,152.43978991718905 109.95324675325537,154.13422081086173 111.74025974026881,156.28783745190594 113.6727272727585,159.21729511095327 114.73246753247804,162.63749720625492 115.42857142857974,162.63749720625492 113.72467532465816,156.8579026029911 113.68311688312679,156.06614433605864 114.47272727274685,155.84445059717837 114.5974025973992,155.59108556124556 113.35064935067203,150.03268531713547 112.02077922076569,147.34044183004153 109.8805194805318,144.6956190408673 106.74285714287544,142.08238367008016 104.08311688312097,140.7361377170164 100.40519480520743,140.0709253515961 96.20779220777331,140.27682501664822 95.85454545455286,139.64328586812917 93.6311688311689,138.059415731208 91.92727272727643,137.489214694986 90.16103896105778,137.36250279375236 85.75584415585035,137.71096003229468 84.59220779221505,138.059415731208 84.57142857142026,138.2178041762745 88.30129870129167,137.94854363033664 87.96883116883691,141.59140251403733 88.49870129869669,141.7656219837736 88.19740259740502,141.78146009828197 88.14545454547624,143.11185036445386 92.20779220777331,143.5553087995795 93.59999999997672,144.03044007037533 93.74545454548206,144.26800463237305 93.27792207791936,145.31328020458022 93.35064935064293,145.56667825708428 95.19999999998254,145.05988133791107 96.48831168829929,145.13906857121037 98.05714285714203,145.6617023169092 99.01298701300402,145.6458649815322 99.91688311690814,145.3291176066923" stroke="#4dd2ff" stroke-linecap="round" stroke-linejoin="round" stroke-width="0.5"><title>2022-05-04 7.1km</title></polyline><polyline fill="none" points="131.80997663422022,144.46369852407952 133.67619409877807,144.4279157860874 135.56588599682436,143.76593254211912 137.92506656522164,144.76785121642024 139.16921154156444,144.910981535897 139.3217953594285,145.35826230252133 141.28191055802745,144.19532763921598 142.34999728301773,145.80554082383605 142.06830408083624,147.93455580688897 142.67863935229252,149.45524965103687 144.13405423029326,151.58417743426253 145.64815519205877,152.90802284422534 149.3688529044157,157.6486592784495 149.93223930880777,158.59675630253332 151.152909851633,162.69313504827733 151.85714285713038,162.67524734079052 151.68108460577787,161.5840903958815 150.20219529423048,158.27476221790857 149.69749497363227,156.14599427541543 149.66228332335595,155.4662089259582 150.73037004834623,155.01897889430984 150.8829538662103,154.732750496034 148.96978753464646,147.20103538022522 147.9369124599034,145.1614590418394 146.7866652176017,143.67647496977588 142.43215780032915,139.79392979196564 139.34526979294606,138.12993006662145 135.75368146496476,137.34265054960997 131.9156115850492,137.30686495172995 128.91088409497752,137.87943279306637 127.13856436448987,137.86154010373866 121.66902135519194,138.52356721652177 121.63380970491562,139.20348183367605 121.42253980325768,139.47186775438604 121.08216051728232,139.34662109196506 121.0,139.91917582554743 121.08216051728232,140.8316773276165 121.56338640436297,141.42211449628667 123.4882899527147,142.60297709593578 126.62212682713289,143.47966799444112 127.27941096556606,145.00043786886818 127.30288539911271,146.55696368531062 130.10808020428522,147.3262710024792" stroke="#4dd2ff" stroke-linecap="round" stroke-linejoin="round" stroke-width="0.5"><title>2022-05-01 6.0km</title></polyline><polyline fill="none" points="164.4498729725019,143.44881672549673 164.3654485050356,143.21288405633823 166.26499902294017,143.40591991531255 167.5595075240126,142.93405386635277 167.6439319914789,143.53461029419122 167.62986124685267,142.93405386635277 168.75552081299247,142.5050829220927 169.62790697679156,143.12709022921626 170.92241547786398,143.27722938139777 171.85108461993514,143.8134389165134 173.11745163187152,143.7490939144409 173.41293726797448,144.328197537885 175.39691225334536,143.08419328985474 175.77682235691464,143.1699871514429 176.93062341224868,144.95019422900805 176.67735000979155,147.84564839474479 177.39495798328426,149.4113057318682 178.43619308195775,151.12706824150519 180.78600742627168,153.3146254744497 185.51377760415198,159.25511862590793 187.68067226896528,165.3453896019928 188.28571428573923,165.1952814624383 188.21536056289915,164.3375166188198 185.71076802822063,157.41081315086194 185.851475473959,156.4028653076457 187.16005471965764,155.6522596718787 185.38714090292342,148.1030183001203 183.8534297440783,144.4783350018406 180.92671487201005,140.91787544915132 176.93062341224868,137.59324281619047 172.73754152830224,135.55551360152458 170.03595856949687,134.89056197153695 166.18057455547387,134.65461039801448 161.91713894862914,135.0836128711744 161.43873363302555,135.38391357714863 162.21262458479032,136.13466164840065 164.0418213797384,136.6709070400466 168.96658198168734,136.0917619007596 170.23294899362372,136.37060995241336 172.5405511042336,138.36542478278716 173.93355481734034,137.89353646652307 174.7777994919452,138.92310828698828 177.5075239398866,141.08946658321656 179.23822552285856,143.89923219235789 177.00097713508876,145.1861230609793 176.6351377760875,147.05208728266734 176.84619894478237,148.317492747723 178.84424467466306,151.57745133389835 181.1237052961369,153.6577676425586 185.71076802822063,159.70546745172032 187.624389290635,165.32394559499517 188.2575727966032,165.21672549530922 188.20128981833113,164.3375166188198 186.62536642566556,160.47748959348974 185.72483877278864,156.85322615758923 185.89368770772126,156.445756898931 187.1459839750314,155.6522596718787 185.57006058242405,148.78933501645952 183.81121751031606,144.328197537885 180.68751221423736,140.63903926830244 176.7899159664521,137.44309567443997 173.30037131137215,135.70566339668585 167.85499316011555,134.7833113208835 166.02579636505106,134.67606056256773 160.80555012705736,135.4482636185785 157.68184483103687,135.5769635851757 157.42857142857974,137.55034365435858 159.80652726214612,138.73006432659167" stroke="#4dd2ff" stroke-linecap="round" stroke-linejoin="round" stroke-width="0.5"><title>2022-04-30 10.1km</title></polyline><polyline fill="none" points="22.45844897959614,179.5653253411583 24.17469387757592,179.67283713319193 26.24359183674096,178.92025186866522 28.888489795906935,180.0849644695263 29.93469387755613,179.97745317400404 30.240326530649327,180.40749757907906 32.1446530612302,179.3861387331708 33.15559183675214,181.0525603009737 32.838204081665026,183.02355639452435 33.64930612244643,184.99450895741757 34.9893877551076,186.89374933532963 36.411755102017196,188.05835787755495 40.455510204075836,193.23620263592602 41.877877551014535,197.6254897453182 42.06595918367384,197.9658744204935 42.57142857144936,197.84046969121118 42.40685714283609,196.44309078701917 40.455510204075836,191.14001793777425 40.52604081633035,190.58461032267223 41.53697959182318,190.190447982779 41.6662857143092,189.92169993472635 40.23216326528927,183.68651802410022 38.92734693875536,180.80170312982955 35.57714285713155,176.8954076227892 32.8264489795838,174.67340177205188 30.193306122440845,173.34733965993655 26.196571428590687,172.4871807260788 23.516408163268352,172.41550044061296 20.71869387757033,172.68430121405981 19.566693877597572,173.06062093654327 18.297142857132712,172.98894111179106 12.795755102066323,173.63405746202625 12.466612244897988,173.72365658624767 12.266775510215666,174.3687676249101 11.714285714289872,174.29708885096625 11.831836734694662,172.8635012798768 16.392816326551838,172.50510078841762 16.451591836783336,171.19692677855346 16.85126530614798,170.60555415093404 17.615346938779112,171.05356407722866 16.945306122448528,172.34382009760157 16.67493877551169,174.90635659459804 19.167020408203825,175.71273397666664 17.615346938779112,179.0277644379239 18.0385306122771,180.38957910355384 17.968000000022585,181.67970014362072 20.07216326534399,182.23516318096517 21.7531428571383,183.3460788835946 23.140244897949742,181.5901090073312 21.847183673497057,180.90921343238006 22.094040816358756,179.81618598781643 22.411428571445867,179.708674368434" stroke="#4dd2ff" stroke-linecap="round" stroke-linejoin="round" stroke-width="0.5"><title>2022-04-28 7.1km</title></polyline><polyline fill="none" points="65.8787921948533,181.62519999521828 65.98646916396683,181.7424392527828 66.16336704173591,181.60175211545356 67.10938612735481,181.62519999521828 68.30152399942745,181.19141269525426 68.95527702610707,181.62519999521828 69.43982338701608,181.6486478655388 69.9474433841533,181.93002157525552 70.67041731948848,181.93002157525552 70.93191853014287,182.24656537789633 72.1240564022446,181.49623653998424 72.73935336849536,182.63344991727718 72.57014670278295,183.899599577755 72.9854721549782,185.02504289363424 73.54693063668674,185.95117268549075 74.88520153827267,187.20552759032216 77.52328728104476,190.56987918235973 78.453923942463,193.44173328559555 78.67696909274673,193.69960715177876 79.0,193.58239189924643 78.90770545508713,193.03147706068557 78.03090727818199,191.05048501536658 77.50790485690231,189.2100949101805 77.54636091727298,188.74119643974336 78.31548212506459,188.41296527007944 77.16949152541929,183.62995889546073 76.5080472867412,182.36380338783783 74.79290699333069,180.28865581968057 73.42387124343077,179.06932567352487 72.00868822107441,178.13136207904972 70.76271186443046,177.49822813422725 68.79376157245133,177.0175107387986 66.76328158384422,176.9119868783382 64.70203674692311,177.07613502335516 64.54052129329648,176.65403886084096 62.55618857717491,175.36428167843042 60.80259222336463,174.9069972901998 56.926221336005256,175.1884034914474 56.487822247552685,175.36428167843042 55.580259222362656,175.21185394699205 55.072639225196326,175.43463280488868 52.88064378296258,177.13475924900922 51.71157954708906,177.6389251597684 48.719698048749706,177.52167766203274 48.39666714143823,177.36925556298593 48.142857142869616,177.70927354539162 51.58852015383309,177.92031819365366 52.288420452940045,177.74444770640548 53.39595499218558,177.14648408706853 55.603332858590875,175.21185394699205 56.17248255235609,175.28220525709912 57.56459193848423,174.96562369395178 61.17177040310344,174.87182141964513 63.30992736079497,175.58705995471973 64.60974220198113,176.75956318757744 64.57128614161047,177.0995847206541 63.925224327045726,177.38098035397343 64.00982765990193,177.9554922275238 63.74832644924754,179.05760122160063 63.209941603796324,179.72589122411227 62.456202820147155,181.44934066744463 62.8715282723424,182.10587945526277 62.85614584819996,183.05550285481877 63.86369463041774,183.27825178635248 65.35578977354453,184.09889841219774 66.20951431422145,182.86792414808588 67.76313915400533,181.97691706171827 68.77837914827978,181.6134760565037 67.72468309360556,180.74589805955839 66.95556188578485,181.07417233124943 65.89417461902485,181.10934446517058 65.43270189434406,182.3169082121094 65.63267340837047,182.58655495815037 66.26335279876366,182.8913715194176 67.21706309643923,182.25828918949264 67.0247827944986,181.84795438333094 65.94032189148129,181.81278269434188" stroke="#4dd2ff" stroke-linecap="round" stroke-linejoin="round" stroke-width="0.5"><title>2022-04-27 10.1km</title></polyline><polyline fill="none" points="90.74846579565201,177.76994086008926 92.3340386050404,177.6404624029965 95.4202428231365,176.71252889527386 96.12808782729553,177.27360592733748 97.55793473566882,177.5541433449107 98.44981944095343,178.15837529553392 99.6814697481459,178.2015345905893 100.0637060503941,178.63312658786163 102.1306134624756,177.31676557771425 102.83845846669283,177.72678139170603 103.60293107113102,179.25893190529314 103.39057756995317,182.0642213072715 104.12673637422267,183.83367388605257 106.03791788546368,186.44464216622873 107.5385492942296,187.674580453393 112.36605222261278,193.93194325822697 114.20644923340296,199.7142857142826 115.0133925381815,199.541682980911 114.97092183789937,198.89442026217148 113.14468172716442,194.23401362445293 112.52177812351147,191.77427309634368 112.4368367230054,190.8680387119457 113.88084053149214,190.0696830426241 112.12538492120802,182.3447462202239 110.48318451154046,178.84892193652922 107.38282339333091,175.11560130957514 104.8345813783817,172.8496498229506 103.30563616938889,171.7058656897716 99.05856614449294,169.63407475510758 93.36749231111025,168.85714285714494 88.42673418205231,169.24560950826708 87.4357511762646,169.63407475510758 87.57732017710805,170.71313751750859 87.06767177407164,172.6338424277492 86.18994396890048,173.69129452375637 85.56704036524752,175.48246515174833 84.9866074618767,176.25934915406833 85.89264906715835,176.2809291850499" stroke="#4dd2ff" stroke-linecap="round" stroke-linejoin="round" stroke-width="0.5"><title>2022-04-25 5.0km</title></polyline><polyline fill="none" points="138.7208604302141,181.72765221486043 140.07153576790006,181.62176749030914 141.16751232760726,181.13940132372227 141.638319159596,181.49235256710745 142.35610662476392,181.61000250911093 142.78060458801338,181.8570666183441 143.4598013292707,181.8453016843996 143.77624526550062,182.15118919958695 145.0034302865679,181.40999746715897 145.63631815911504,182.4335454885695 145.47423711855663,183.82177745206718 145.87558064749464,184.91586929832192 146.68598585008294,186.15110973339324 147.82827127850032,187.16281107280884 150.45244050599285,190.5389437859776 151.5252626313304,193.72668150141544 151.8571428571595,193.60905588468086 151.83398842278984,193.15031372350495 151.35546344603063,191.6446731897995 150.8769384692423,190.7977333889794 150.46015865076333,189.29203240662537 150.42156792685273,188.82149291519818 151.2474094190111,188.42153137661808 150.21317801761325,184.04530325323503 149.40277281499584,182.28060266760804 148.4457228614192,181.0570457276699 147.28800114346086,179.80993255297653 145.52054598729592,178.3745430219169 143.76080897593056,177.4803481601557 141.12892160366755,176.90382055271039 139.41549346101237,176.84499088603843 137.64032016010606,177.0920750891346 137.4164939612674,176.5508416665507 135.40205817195238,175.30363256999044 133.50339455445646,174.84474707001573 130.26177374401595,175.04477452472202 129.37418709354824,175.30363256999044 128.18559279642068,175.24480129650328 126.42585578505532,176.66850153154883 125.05202601302881,177.44505071455205 124.11041234905133,177.6333035119642 121.57886085903738,177.49211397061663 121.14664475095924,177.31562656550523 121.0,177.609771945361 123.6781962410023,177.88038439058073 124.90538126206957,177.7744927130734 126.1094118487963,177.162670384354 128.19331094119116,175.38599625362986 128.5406274566194,175.24480129650328 129.48995926536736,175.33893130574506 131.55842206816305,175.11537228686575 133.60373043667641,175.1624374143612 134.6611162724148,175.32716506285215 135.62588437079103,175.7860467842911 135.94232830702094,175.46835982148332 134.35239048095536,174.9506440428886 132.22218251985032,174.9153450731901 129.74465804331703,175.13890485534648 128.97284356466844,175.3506975462551 130.60137211467372,175.28010006767727 131.63560351604247,175.05654082433466 132.24533695419086,175.20950250406167 133.69634817409678,175.13890485534648 135.04702351175365,175.53895707321135 135.4715214750322,175.96253879708092 135.0315872222127,176.95088424353526 134.84635174734285,178.45690238860334 136.39769884943962,178.95105615750072 135.5950117916509,180.90409931359682 136.3668262702704,180.64526601100806 137.73293789752643,180.6805615286794 138.72857857501367,180.93939467534074 138.56649753448437,181.49235256710745" stroke="#4dd2ff" stroke-linecap="round" stroke-linejoin="round" stroke-width="0.5"><title>2022-04-22 10.1km</title></polyline><polyline fill="none" points="173.46270112146158,181.40371400064396 174.69137006340316,181.3903362052224 174.77913213070133,181.13615758155356 176.07801072648726,180.77495471139628 176.64846416385262,181.17629111289716 177.46465138960048,181.29669156195814 178.02632862023893,181.63113611203516 178.68454412484425,181.57762509685926 179.0004875670711,181.9522013006972 180.45733788397047,181.12277973240634 181.22086786935688,182.34015300603642 181.06289614824345,183.87855994205165 181.510482691403,185.1226369642718 182.4758654315374,186.50045859926468 183.66942954660044,187.57059166671752 186.69722086787806,191.46305574082362 187.8644563627895,194.9406663615955 188.28571428573923,194.9406663615955 188.08386153102037,193.72352328949273 187.32910775236087,192.0649628749743 186.70599707463407,189.92482391732483 186.68844466118026,189.48341170637286 187.46075085326447,189.13563032907405 187.60117016092408,188.9082338316657 186.57435397370136,184.49391277039467 186.02145294981892,182.98227500277062 185.52120916629792,182.05922268643917 183.616772306239,179.74484688136727 181.0014627011551,177.53741932582125 178.9917113603733,176.53401898510856 176.8590931253275,176.05238145358817 174.3754266212054,175.87845593367092 172.08483666507527,176.1192757634126 171.78644563633134,175.5172245568465 169.57484154074336,174.11241724911815 167.44222330575576,173.63076220983567 161.18478790836525,174.11241724911815 159.09605070701218,175.86507702873132 157.45490004878957,176.62767032303236 157.42857142857974,177.0156530347158 159.01706484644092,176.2396853518403 161.6235982447979,174.0053830968718 164.05460750858765,174.09903798947562 165.09897610923508,173.83145223272004 165.9941491955542,174.0053830968718 167.94246708927676,173.96524524545748 168.96928327649948,174.28634737968605 169.6187225743779,174.75461855118192 169.1272549975838,175.9587293069817 168.96928327649948,177.7916116796514 170.71574841544498,178.3133718936806 169.77669429549132,180.4940177918579 171.2335446124198,180.05254309621523 174.03315455879783,180.62779742508064 175.51633349587792,180.1461894882268" stroke="#4dd2ff" stroke-linecap="round" stroke-linejoin="round" stroke-width="0.5"><title>2022-04-21 8.1km</title></polyline><polyline fill="none" points="27.423695758188842,215.67606139371492 28.86299366163439,215.58241682567314 29.22281813749578,215.43526080998708 29.3720136518823,215.14094780340747 29.275475377886323,215.59579462918555 30.346172598714475,215.06068039419188 32.23305704537779,215.84997238518554 33.040468064369634,215.8365946327358 33.28620185275213,216.18441532359793 34.67284251583624,215.32823804893633 35.45392491467646,216.46534609449373 35.31350560701685,218.21779225637874 35.85763042420149,219.48862132678914 36.50706972210901,220.5052671310914 38.06923451976036,222.00345372629454 41.06192101415945,225.8424031208524 42.194051682105055,229.27988091011866 42.57142857144936,229.17288038449624 42.439785470516654,228.51749841594938 41.50950755728991,226.27042558517496 40.95660653340747,223.91626800585436 41.05314480740344,223.67549720146053 41.825450999545865,223.36784435197478 41.52705997074372,221.53527403408225 40.71964895175188,218.31143312037602 39.78937103852513,216.35832498810487 37.779619697714224,213.91017023474706 35.27840078010922,211.84990472313802 33.3739639200503,210.87326309773562 31.627498781104805,210.37824749143692 28.775231594365323,210.13742775839637 26.212579229671974,210.3916263399551 26.195026816189056,210.24445885832392 26.072159921983257,209.81633342692658 23.728912725491682,208.33125201237635 21.58751828377717,207.8629762327364 17.55923939542845,208.13056279559896 16.61140906874789,208.38476903476112 15.953193564113462,208.19745926835822 15.558264261344448,208.2911142173907 13.390541199420113,210.01701756547118 11.73183812777279,210.819748074402 11.714285714289872,211.22110970176072 13.294002925424138,210.43176286941525 15.882983910298208,208.2911142173907 16.9975621648191,208.43828601414134 19.35836177476449,208.18407997916074 21.640175524138613,208.18407997916074 22.982935153588187,208.4249067733508 23.930765480239643,209.09386552253636 23.386640663113212,210.23107998025807" stroke="#4dd2ff" stroke-linecap="round" stroke-linejoin="round" stroke-width="0.5"><title>2022-04-19 7.2km</title></polyline><polyline fill="none" points="52.18573172617471,210.91457720690232 52.230323228170164,210.66534667877568 54.41530682641314,210.52940252239932 56.61515425867401,209.7137341444759 60.00410841102712,211.20912166665948 61.35671730519971,211.11849268397782 61.65399398520822,211.7075797701982 63.89843291946454,210.25751371819206 64.40380327549065,210.66534667877568 65.32536098366836,212.3419778083262 65.01322046964196,215.12875551548495 65.77127600368112,217.00922516014543 66.87119971984066,218.75372921976668 69.42777916806517,221.17786540979432 74.63012106867973,227.90626963706745 76.54755565489177,233.88673663741793 76.77051316492725,233.88673663741793 77.17183668294456,233.7055150209635 77.11238134698942,232.50491446154047 75.10576375672827,227.65707663419744 74.46661889459938,224.77999029535567 76.02732146484777,223.62460427253973 74.36257205664879,216.35219715929998 72.66809498041403,212.00212216004002 69.32373233005637,208.03706396186317 64.86458212963771,204.23047700414463 63.33360722742509,203.50539826144814 62.42691335332347,203.14285714286234 62.27827501331922,204.93289259282756 62.97687521140324,205.83922882669867 65.9050505097257,208.2636424694283 67.71843825792894,210.8012906714357 69.11563865403878,213.1123134883237 69.76964735012734,215.64985265210998 74.0355677086045,215.03812968083366 74.86794241267489,217.46234569043736 76.1016406348208,223.69256848372606 74.71930407267064,224.68937221125088 75.81922778883018,228.92568982805096 77.49884103098884,233.6149041036333 76.69619399489602,234.0 76.14623213681625,233.25245970659307 74.61525723466184,228.78976766797132 73.69369952660054,227.00011062547128 69.66560051211854,221.72158974166086 66.70769754581852,218.84435207034403 64.81999062758405,215.55922723602998 64.71594378957525,214.67562561450904 65.16185880964622,212.6365185421746 67.54007224988891,211.18646442778117 69.08591098606121,213.08965663153504 69.85883035411825,215.69516533294518 73.69369952660054,214.76625174028595 72.31136296439217,211.68492263148073 68.34271928592352,207.15340343484422 64.81999062758405,204.29845289741934 62.44177718734136,203.165515996865 62.35259418329224,205.20479422740027 63.69033924344694,206.51897622468096 62.44177718734136,207.56124761491083 60.89593845116906,207.15340343484422 60.36084042704897,207.51593166768725 59.52846572303679,208.53553607804497 59.736559399054386,210.50674514706043 56.005737064639106,211.11849268397782 55.18822619447019,211.93415090753115 52.869468090240844,213.2709113578021 51.145263346028514,215.46860174711765 49.64401611190988,214.6529690717216 51.84386354411254,209.351212972746 53.776161964342464,209.37387058012246 55.72332421859028,208.62616713524767 56.585426590638235,209.7137341444759 54.71258350647986,210.84660529925168 51.7844082081574,210.9372345002921" stroke="#4dd2ff" stroke-linecap="round" stroke-linejoin="round" stroke-width="0.5"><title>2022-04-10 10.4km</title></polyline><polyline fill="none" points="87.23454269801732,210.9723887870714 87.39974273374537,210.7205701146886 89.24697949620895,210.83503321652097 91.95025280723348,209.804861162811 92.86636209592689,210.49164356618712 95.31432626093738,211.31577698944602 96.6809811014682,211.17842183258472 96.89123569231015,211.81941114867368 99.29414530209033,210.44585820135399 100.66080014267936,212.30015077083954 100.40549099660711,215.20743766915257 101.12636387953535,217.0616527989405 102.7633460512152,219.57967444739188 105.09116473566974,221.70850391406566 110.12225673114881,228.20919950512325 111.9694934937288,233.97711203939252 112.76545730198268,234.0 110.03214762080461,225.50825127113785 110.01712943572784,224.79866951281292 111.60905705223558,223.9975235104066 109.70174754946493,215.39057136976044 108.16989267320605,212.25436613224883 104.91094651498133,208.2481390650646 100.24029096099548,204.28755907158484 97.80734498106176,203.14285714285506 97.73225405573612,205.3635684047622 101.3366184704355,208.2481390650646 103.12378249270841,211.38445450578 100.79596380825387,212.59775047342555 99.38425441249274,210.5374289127285 97.07145391305676,211.8880883616439 94.30810786184156,210.81214060536877 93.10665305692237,210.7205701146886 91.5747981807217,211.15552929038677 89.6825068629696,212.50618141692394" stroke="#4dd2ff" stroke-linecap="round" stroke-linejoin="round" stroke-width="0.5"><title>2022-04-09 5.2km</title></polyline><polyline fill="none" points="123.64611608919222,210.95529099315172 125.32940238900483,210.8178334373515 125.37449041492073,210.58873714298534 128.48556420119712,209.69525719965895 129.3422366930754,210.4970984965039 130.72493615368148,210.68037571592868 131.76196074910695,211.23020560792793 133.05448415788123,211.23020560792793 133.4302177069476,211.78003285026352 135.7297070272616,210.31382098258473 136.4060274155927,210.9323814120653 137.17252385569736,212.3756760394317 136.90199570037657,215.19348436065047 137.6384334565373,217.16361794737895 139.50207185995532,219.7980457489757 141.59115039272,221.67647016464616 146.5658625824144,228.20489988760528 148.51967703760602,234.0 149.21102676790906,233.88547518046107 149.07576269021956,232.55697887326824 147.55779915198218,229.0066111201886 146.47568653064081,224.9063715541197 146.71615600207588,224.49404880784277 148.02370875282213,223.87556189487077 147.22715362877352,219.59187533223303 145.5438673289609,213.75022537753102 144.55193075939314,211.80294226117257 142.7934977497789,209.69525719965895 138.5401939743315,205.59432359964558 136.82684899057494,204.28840877233597 134.30191954085603,203.14285714285506 134.10653809533687,204.6778937061099 134.37706625059946,205.52559161298996 137.59334543067962,208.137377998617 139.63733593764482,211.23020560792793 137.35287595924456,212.49022245012748 135.68461900140392,210.47418882339116 133.62559915246675,211.73421401459927 130.55961339204805,210.70328534769942 127.80924381292425,211.11565793227055" stroke="#4dd2ff" stroke-linecap="round" stroke-linejoin="round" stroke-width="0.5"><title>2022-04-07 5.0km</title></polyline><polyline fill="none" points="160.0691480077803,210.17114562503411 159.93398423370672,210.44585820028442 160.3094391617342,210.67478484062303 162.0665682249819,210.67478484062303 165.1152622407535,209.78196834369737 166.03137226519175,210.49164356509573 167.6383193572401,210.74346274307754 168.22402904496994,211.13263674234622 169.60570318019018,211.20131436901283 169.89104892552132,211.75073389308818 172.26392407080857,210.33139470767492 172.984797532612,210.92660361409798 173.79578017716995,212.55196595303278 173.54047082614852,215.48213810826564 174.84705397573998,218.1146504336284 176.15363712533144,219.83147355216352 177.94080258288886,221.25069447886926 183.24222616688348,228.18631038115564 185.08946441288572,234.0 185.78030148055404,233.93133610430232 185.73524688917678,232.76404355212435 183.39240813814104,227.3851881808514 182.9418622244848,224.7300000746909 184.44368193665287,224.06619338694145 184.54880931653315,223.42527291807346 182.85175304173026,216.37490996907582 181.7404064547154,213.12427111996658 180.49389609362697,211.36156200373807 179.6528770547593,211.84230355638283 180.13345936266705,211.04106650908216 177.7605842173798,208.01920755110768 173.46537984051974,204.42492253038654 170.8221771470271,203.14285714285506 170.67199517582776,204.69964895201701 170.9573409211589,205.54671791769215 174.1411987110041,207.99631437456264 176.34887368790805,210.94949620228 174.9371631584945,212.0712273927711 173.82581657147966,212.50618141557788 172.50421522476245,210.56032157785376 171.94854193122592,210.65189219723834 171.49799601756968,210.14825288059365 170.77712255576625,207.72159589691 172.17381488805404,206.41667408807552 174.17123510525562,208.08788705329061 176.3338554908405,211.04106650908216 174.09614411962684,212.4375045749839 173.8408347685472,212.4832891399128 172.30897866212763,210.42296551093023 170.07126729097217,211.75073389308818 169.54563039168715,211.31577698816545 168.17897445365088,211.17842183134053 164.9500620724284,209.96511075922172 163.31307858612854,210.76635536808317 161.15045820054365,210.90371102135396" stroke="#4dd2ff" stroke-linecap="round" stroke-linejoin="round" stroke-width="0.5"><title>2022-04-03 6.2km</title></polyline><polyline fill="none" points="40.39812646363862,257.8553452836277 41.05386416858528,255.14210486815864 40.84777517564362,254.02823328980594 42.57142857136205,253.17140306239162 42.57142857136205,252.34312893578317 37.40046838403214,249.02998419022333 34.459016393404454,248.23024803249427 28.145199063175824,248.31593426456675 22.449648711888585,249.20135563892836 19.957845433207694,249.00142226205935 15.498829039745033,252.6001800429658 11.882903981138952,254.399524785229 11.714285714260768,255.17066556312056 14.86182669783011,253.82830669847317 20.05152224813355,249.25847940929816 21.100702576048207,248.91573644302116 25.615925058489665,248.97286032808915 28.313817330170423,248.37305839049077 34.777517564361915,248.94429838837095 37.99999999994179,250.3152650219854 38.69320843083551,249.82971585069754 38.07494145189412,249.20135563892836 32.97892271657474,248.14456174898805 24.154566744691692,248.77292662997934 22.430913348856848,249.2870412858174 20.145199063175824,249.00142226205935 14.487119437893853,253.4284526726915 11.714285714260768,254.54232894849702 11.976580796181224,255.17066556312056 15.3676814987557,253.48557474513655 19.939110070234165,249.40128873474896 21.325526932021603,248.88717449192336 22.168618266878184,249.02998419022333 25.222482435579877,248.28737219292816 33.67213114746846,247.8589404306549 38.71194379386725,249.3441650216846" stroke="#4dd2ff" stroke-linecap="round" stroke-linejoin="round" stroke-width="0.5"><title>2022-03-24 5.1km</title></polyline><polyline fill="none" points="66.45688546466408,267.55816035363387 65.60488047651597,267.36760949969175 64.38935336004943,268.2857142857174 63.84407016765908,268.00855160699575 63.571428571420256,267.3156410119045 63.21926650963724,264.1801509540237 62.81030411532265,263.2100314836716 62.321821255463874,262.8635575986773 59.49316469475161,262.794262654621 58.0504362481297,261.4083520762797 72.01195798747358,242.74836155425874 65.32087881377083,237.42857142857247 55.13089915539604,258.22067319235066 61.413015934755094,264.63055985456594 61.79925819605705,264.31873855869344" stroke="#4dd2ff" stroke-linecap="round" stroke-linejoin="round" stroke-width="0.5"><title>2021-10-26 5.0km</title></polyline></svg>