<?xml version="1.0" encoding="utf-8" ?>
<svg baseProfile="full" height="300mm" version="1.1" viewBox="0,0,200,300" width="200mm" xmlns="http://www.w3.org/2000/svg" xmlns:ev="http://www.w3.org/2001/xml-events" xmlns:xlink="http://www.w3.org/1999/xlink"><defs /><rect fill="#222222" height="300" width="200" x="0" y="0" /><text fill="#FFFFFF" style="font-size:12px; font-family:Arial; font-weight:bold;" x="10" y="20">Over 5km Runs</text><text fill="#FFFFFF" style="font-size:4px; font-family:Arial" x="10" y="280">ATHLETE</text><text fill="#FFFFFF" style="font-size:9px; font-family:Arial" x="10" y="290">Wenz</text><text fill="#FFFFFF" style="font-size:4px; font-family:Arial" x="120" y="280">STATISTICS</text><text fill="#FFFFFF" style="font-size:3px; font-family:Arial" x="120" y="285">Number: 9</text><text fill="#FFFFFF" style="font-size:3px; font-family:Arial" x="120" y="290">Weekly: 1.8</text><text fill="#FFFFFF" style="font-size:3px; font-family:Arial" x="141" y="285">Total: 62.2 km</text><text fill="#FFFFFF" style="font-size:3px; font-family:Arial" x="141" y="290">Avg: 6.9 km</text><text fill="#FFFFFF" style="font-size:3px; font-family:Arial" x="167" y="285">Min: 5.0 km</text><text fill="#FFFFFF" style="font-size:3px; font-family:Arial" x="167" y="290">Max: 10.4 km</text><polyline fill="none" points="44.0115057528601,55.52339137600211 46.37518759383238,55.338093108039175 48.293146573298145,54.49395231650851 49.117058529285714,55.1116169924353 50.373186593322316,55.31750439094321 51.11605802900158,55.749866582104005 52.304652326216456,55.729277947692026 52.858429214626085,56.264581099276256 55.006003001501085,54.96749556752184 56.113556778407656,56.75870460499573 55.82991495745955,59.18811054111575 56.53226613308652,61.102771272060636 57.95047523762332,63.264442033432715 59.94947473736829,65.0349193774091 64.54177088546567,70.94315162545536 66.41920960479183,76.52169262747339 67.0,76.31584779818513 66.9594797398604,75.51304901613184 66.12206103053177,72.87817808215186 65.28464232117403,71.39603343071212 64.55527763883583,68.76105671159166 64.4877438719559,67.93761260159226 65.93296648329124,67.237679909078 64.1230615307868,59.57928069316404 62.704852426220896,56.491054668309516 61.030015007505426,54.34983002342051 59.00400200104923,52.167381967708934 55.91095547773875,49.65545028835186 52.83141570785665,48.090609280268836 48.22561280638911,47.081685967241356 45.22711355678621,46.978734050564526 42.120560280192876,47.41113140597736 41.72886443222524,46.46397291646281 38.203601800923934,44.281356997475086 34.88094047026243,43.47830737251934 29.20810405202792,43.82835541825625 27.654827413731255,44.281356997475086 25.574787393707084,44.17840226887347 22.49524762382498,46.66987768020772 20.09104552277131,48.028838750462455 18.44322161085438,48.3582811459346 14.013006503286306,48.11119944857637 13.25662831417867,47.80234648963233 13.0,48.31710090437991 17.686843421746744,48.79067268351355 19.834417208621744,48.60536224787211 21.941470735386247,47.53467317261675 25.58829414707725,44.42549344385043 26.196098049054854,44.17840226887347 27.857428714400157,44.343129785047495 31.47723861929262,43.95190150201233 35.0565282641619,44.03426547512936 36.90695347674773,44.322538859989436 38.59529764886247,45.12558187250397 39.1490745373012,44.56962968759035 36.36668334165006,43.66362707505323 32.63881940970896,43.601853878077236 28.303151575790253,43.993083496854524 26.95247623816249,44.363720705943706 29.80240120063536,44.24017511843704 31.61230615308159,43.8489464425802 32.67933966984856,44.11662938210793 35.218609304662095,43.993083496854524 37.582291145576164,44.693174878113496 38.325162581313634,45.4344428948898 37.555277638864936,47.16404742618761 37.23111555780633,49.79957918004948 39.94597298654844,50.66434827562625 38.5412706353527,54.08217379879352 39.891945972980466,53.62921551926411 42.28264132066397,53.690982675187115 44.025012506288476,54.14394068183901 43.74137068534037,55.1116169924353" stroke="#4dd2ff" stroke-linecap="round" stroke-linejoin="round" stroke-width="0.5"><title>2022-04-22 10.1km</title></polyline><polyline fill="none" points="101.05972696252866,54.95649950111692 103.20989761094097,54.93308835913194 103.36348122864729,54.48827576771146 105.6365187712945,53.856170744940755 106.63481228670571,54.55850944756094 108.06313993176445,54.76921023341856 109.04607508535264,55.35448819605517 110.19795221847016,55.260843919502804 110.7508532423526,55.91635227621737 113.30034129694104,54.46486453170655 114.63651877135271,56.59526776056009 114.36006825941149,59.28747989857948 115.14334470988251,61.46461468747293 116.83276450511767,63.87580254870409 118.92150170652894,65.74853541675111 124.22013651876478,72.56034754643042 126.26279863482341,78.64616613279213 127.0,78.64616613279213 126.64675767923472,76.51616575660591 125.32593856658787,73.61368503119593 124.2354948805878,69.86844185530936 124.20477815699996,69.09597048615251 125.55631399317645,68.48735307587049 125.80204778158804,68.08940920540772 124.005119453941,60.36434734818613 123.03754266217584,57.71898125483858 122.16211604099954,56.103639701257634 118.82935153588187,52.05348204238544 114.2525597269996,48.190483820180816 110.7354948805878,46.434533223931794 107.003412969294,45.591667543776566 102.65699658705853,45.28729788392229 98.64846416388173,45.708732585961116 98.12627986352891,44.655142974472255 94.2559726962354,42.19673018595495 90.52389078499982,41.35383386720787 79.57337883958826,42.19673018595495 75.91808873723494,45.263884800275264 73.04607508529443,46.59842306529754 73.0,47.27739281074901 75.77986348123522,45.91944936571235 80.34129692835268,42.0094204195193 84.59556313994108,42.17331648157415 86.42320819111774,41.70504140725825 87.9897610921762,42.0094204195193 91.39931740617612,41.93917917954968 93.19624573382316,42.50110791443876 94.33276450517587,43.320582464562904 93.47269624576438,45.42777628721524 93.19624573382316,48.635320439389034 96.2525597269996,49.548400813939224 94.60921501705889,53.3645311357468 97.15870307170553,52.59195041836938 102.05802047782345,53.59864549388294 104.65358361776453,52.75583160438691" stroke="#4dd2ff" stroke-linecap="round" stroke-linejoin="round" stroke-width="0.5"><title>2022-04-21 8.1km</title></polyline><polyline fill="none" points="160.4914675768232,54.933107438999286 163.010238907882,54.76922944492253 163.6399317405885,54.51170641747012 163.90102389076492,53.996658655960346 163.7320819112938,54.79264060106652 165.60580204776488,53.85619068983215 168.90784982941113,55.23745167407469 170.32081911264686,55.214040607286734 170.7508532422944,55.82272681629547 173.17747440270614,54.324416585637664 174.54436860070564,56.31435566535947 174.29863481229404,59.381136448653706 175.2508532423526,61.60508732187736 176.38737201370532,63.384217479411745 179.1211604095879,66.00604402101453 184.3583617747645,72.7242054614835 186.33959044370567,78.73979159270675 187.0,78.55254067287024 186.76962457341142,77.40562222790322 185.14163822529372,73.47324477405346 184.17406143347034,69.35346901023877 184.34300341294147,68.93212010255229 185.69453924917616,68.39372761594859 185.17235494876513,65.18672955963848 183.7593856655294,59.54500796065258 182.1313993174117,56.12706872918352 178.6143344709999,51.84279791080189 174.2372013651766,48.237333265489724 170.90443686005892,46.5282104210346 167.84812286688248,45.66193311000825 162.8566552901175,45.24049857718637 158.3720136518823,45.68534609492053 158.34129692835268,45.42780300205777 158.1262798634707,44.67858349711605 154.02559726958862,42.07969102165225 150.27815699664643,41.26020840728597 143.22866894199979,41.728484892293636 141.56996587029425,42.17334581082832 140.41808873723494,41.84555371962779 139.72696245735278,42.00944988043193 135.93344709899975,45.029780739569105 133.03071672358783,46.43455913019716 133.0,47.1369419780749 135.7645051194704,45.755585021470324 140.29522184305824,42.00944988043193 142.2457337884116,42.26700052474189 146.3771331058233,41.82213996352948 150.3703071672353,41.82213996352948 152.72013651876478,42.243586853357556 154.3788395904121,43.41426466443954 153.42662116041174,45.40438996544981" stroke="#4dd2ff" stroke-linecap="round" stroke-linejoin="round" stroke-width="0.5"><title>2022-04-19 7.2km</title></polyline><polyline fill="none" points="20.075030520849396,136.60051011206815 20.15306564932689,136.16435668784834 23.97678694629576,135.92645441419154 27.82651995267952,134.4990347528219 33.757189719355665,137.11596291665046 36.12425528408494,136.95736219694663 36.64448947412893,137.98826459783595 40.5722576091066,135.4506490068161 41.45665573218139,136.16435668784834 43.069381721375976,139.09846116455446 42.52313582185889,143.97532215208048 43.84973300650017,147.26614403024723 45.77459950966295,150.3190261345735 50.248613544157706,154.56126446712005 59.35271187021863,166.33597186485713 62.70822239603149,176.8017891154741 63.098398038651794,176.8017891154741 63.80071419518208,176.48465128667885 63.69666735723149,174.38360030768672 60.18508657423081,165.89988410983642 59.06658306560712,160.86498301685788 61.7978125634836,158.84305747692997 58.884501099120826,146.11634502875677 55.91916621575365,138.5037137800682 50.066531577613205,131.56486193324963 42.26301872683689,124.90333475724037 39.58381264802301,123.63444695752696 37.99709836835973,123.0 37.73698127333773,126.13256203744095 38.95953161997022,127.71865044670994 44.083838392049074,131.96137432150135 47.25726695137564,136.40225867500703 49.70236764464062,140.4465486045665 50.8468828627374,144.8872421411943 58.31224349007243,143.81672694144072 59.768899222195614,148.0591049582581 61.9278711109655,158.96199484651152 59.50878212717362,160.70640136967995 61.43364863045281,168.11995719908737 64.37297180423047,176.32608218134556 62.968339491053484,177.0 62.00590623944299,175.6918044865306 59.326700160629116,167.88209341894253 57.71397417149274,164.750193594562 50.6648008961929,155.5127820478956 45.488470705167856,150.47761612309841 42.18498359830119,144.7286476630543 42.00290163181489,143.18234482538537 42.78325291688088,139.6139074488019 46.94512643729104,137.07631274859887 49.65034422557801,140.4068991051754 51.0029531197506,144.96653933264315 57.71397417149274,143.34094054548768 55.29488518770086,137.94861460507673 48.34975875040982,130.0184560109774 42.18498359830119,125.02229257047293 38.023110077832825,123.03965299449919 37.86703982076142,126.60838989794138 40.208093676075805,128.90820839318621 38.023110077832825,130.7321833260794 35.31789228954585,130.0184560109774 34.38147074740846,130.65288041844906 32.924815015285276,132.43718813656596 33.28897894831607,135.88680400734302 26.760039863118436,136.95736219694663 25.329395840351935,138.38476408817223 21.271569158008788,140.7240948761464 18.25421085563721,144.57005305745406 15.627028195827734,143.1426958755037 19.4767612022697,133.86462270229822 22.858283437613863,133.90427351520339 26.26581738248933,132.5957924866816 27.77449653361691,134.4990347528219 24.497021136339754,136.48155927368498 19.3727143642609,136.64016037550755" stroke="#4dd2ff" stroke-linecap="round" stroke-linejoin="round" stroke-width="0.5"><title>2022-04-10 10.4km</title></polyline><polyline fill="none" points="77.66044972155942,136.70168037737312 77.94954978406895,136.26099770070869 81.18221411842387,136.46130812891352 85.9129424126586,134.6585070349247 87.51613366795937,135.8603762408311 91.80007095664041,137.30260973153054 94.19171692762757,137.0622382070287 94.55966246163007,138.18396951018076 98.76475427875994,135.78025185236766 101.15640024968889,139.02526384897646 100.70960924413521,144.11301592101518 101.97113678924507,147.35789239815495 104.8358555897139,151.76443028294307 108.9095382874948,155.4898818496149 117.71394927962683,166.8660991339566 120.94661361403996,176.9599460689351 122.33955027849879,177.0 117.55625833640806,162.1394397244876 117.52997651259648,160.89767164741352 120.31584984151414,159.49566614320793 116.97805821162183,144.4334998970735 114.29731217818335,138.94514073143364 108.59415640129009,131.9342433638667 100.42050918174209,125.00322837528074 96.16285371687263,123.0 96.03144459764007,126.88624470833747 102.33908232336398,131.9342433638667 105.46661936223973,137.42279538510775 101.39293666445883,139.54606332849653 98.9224452219205,135.94050059728033 94.87504434795119,138.304154632875 90.03918875823729,136.42124605939898 87.93664284964325,136.26099770070869 85.25589681632118,137.02217625817866 81.94438701029867,139.3858174796187" stroke="#4dd2ff" stroke-linecap="round" stroke-linejoin="round" stroke-width="0.5"><title>2022-04-09 5.2km</title></polyline><polyline fill="none" points="137.6307031561155,136.6717592380155 140.57645418075845,136.43120851536514 140.65535822609672,136.03029000022798 146.0997373521095,134.46670009939407 147.5989142128965,135.86992236887454 150.01863826898625,136.19065750288428 151.8334313108935,137.15285981386842 154.09534727636492,137.15285981386842 154.75288098718738,138.11505748795753 158.77698729775148,135.54918671952328 159.96054797724355,136.63166747111245 161.3019167475286,139.1574330690055 160.82849247561535,144.08859763114015 162.1172585489694,147.536331407915 165.37862575490726,152.14658006071113 169.03451318730367,155.4338227881235 177.74025951925432,166.85857480330742 181.15943481581053,177.0 182.3692968438263,176.79958156580688 182.13258470786968,174.4747130282194 179.47614851599792,168.26156946033007 177.58245142863598,161.08615021970763 178.00327300361823,160.3645854137285 180.29149031743873,159.2822333160293 178.89751885039732,151.7857818314078 175.95176782569615,141.56289441068657 174.21587882895255,138.15514895705564 171.13862106209854,134.46670009939407 163.69533945509465,127.29006629937794 160.6969857335207,125.00471535159159 156.27835919643985,123.0 155.93644166679587,125.68631398568687 156.4098659385927,127.16978532272333 162.03835450363113,131.74041149757977 165.61533789086388,137.15285981386842 161.61753292864887,139.35788928772672 158.6980832524132,135.82983044092543 155.09479851683136,138.0348745255469 149.72932343609864,136.23074935848126 144.91617667261744,136.95240138148074" stroke="#4dd2ff" stroke-linecap="round" stroke-linejoin="round" stroke-width="0.5"><title>2022-04-07 5.0km</title></polyline><polyline fill="none" points="17.621009013731964,225.29950484380242 17.384472409030423,225.78025185049046 18.041518533136696,226.1808734710794 21.116494393791072,226.1808734710794 26.451708921405952,224.61844460146676 28.054901464143768,225.86037623891025 30.867058875213843,226.3010598003748 31.892050828842912,226.9821142990986 34.309980565391015,227.10230014576518 34.809335619735066,228.0637843128934 38.961867123958655,225.57994073843292 40.22339568217285,226.62155632466602 41.64261531014927,229.46594041780918 41.19582394580357,234.59374168945942 43.482344457588624,239.20063825884426 45.76886496943189,242.20507871627342 48.896404520084616,244.68871533800848 58.17389579216251,256.82604316702054 61.406562722695526,267.0 62.615527591027785,266.87983818251814 62.536682056088466,264.8370762162085 58.43671424180502,255.42407931647904 57.64825889287749,250.7775001307018 60.27644338924438,249.61583842714026 60.46041630394757,248.49422760662856 57.49056782305706,236.1560924458754 55.54571129579563,230.46747445993242 53.36431816389086,227.3827335065289 51.89253484591609,228.22403122366813 52.73355388472555,226.82186639089196 48.58102238050196,221.53361321442935 41.06441472104052,215.24361442816735 36.43881000741385,213.0 36.17599155777134,215.72438566603523 36.67534661211539,217.20675635595398 42.2470977443154,221.4935501554719 46.11052895395551,226.66161835398816 43.640035527409054,228.62464793735126 41.69517900014762,229.3858174772613 39.382376643363386,225.9805627612368 38.40994837973267,226.14081134516164 37.62149303080514,225.25944254103524 36.35996447264915,221.01279281958705 38.804176054138225,218.7291796541249 42.29966143431375,221.6538023432513 46.08424710901454,226.82186639089196 42.168252209434286,229.26563300621638 41.72146084503038,229.34575599484378 39.040712658839766,225.74018964411516 35.12471775925951,228.0637843128934 34.204853185568936,227.30260972928954 31.813205293903593,227.06223820483137 26.162608626822475,224.93894382863073 23.29788752575405,226.3411218941328 19.513301851053257,226.58149428736942" stroke="#4dd2ff" stroke-linecap="round" stroke-linejoin="round" stroke-width="0.5"><title>2022-04-03 6.2km</title></polyline><polyline fill="none" points="123.19672131142579,248.74685424634663 124.34426229516976,243.99868351928308 123.9836065574782,242.04940825715312 127.0,240.54995535917988 127.0,239.10047563762055 117.95081967220176,233.30247233289992 112.80327868857421,231.9029340568668 101.75409836065955,232.0528849629918 91.78688524593599,233.60237236812827 87.42622950824443,233.25248895860568 79.62295081967022,239.55031507519016 73.29508196713869,242.69916837415076 73.0,244.04866473545553 78.50819672131911,241.69953672232805 87.59016393439379,233.70233896627906 89.42622950824443,233.10253877528885 97.32786885253154,233.2025055741542 102.04918032791466,232.1528521833534 113.36065573780797,233.15252217964735 119.0,235.55171378847444 120.21311475406401,234.70200273871887 119.13114754098933,233.60237236812827 110.21311475406401,231.75298306072364 94.77049180329777,232.85262160246202 91.75409836065955,233.7523222501768 87.75409836065955,233.25248895860568 77.85245901637245,240.99979217720102 73.0,242.94907565986796 73.45901639352087,244.04866473545553 79.393442622968,241.09975580398168 87.393442622968,233.95225528581068 89.81967213121243,233.05255536086042 91.2950819672551,233.30247233289992 96.63934426230844,232.00290133761882 111.42622950824443,231.25314575363882 120.24590163945686,233.8522887879517" stroke="#4dd2ff" stroke-linecap="round" stroke-linejoin="round" stroke-width="0.5"><title>2022-03-24 5.1km</title></polyline><polyline fill="none" points="165.0495495631476,265.7267806188611 163.55854083388112,265.3933166244533 161.4313683801447,267.0 160.47712279343978,266.5149653122353 160.0,265.30237177082745 159.38371639186516,259.8152641695342 158.66803220182192,258.11755509642535 157.8131871970836,257.5112257976725 152.86303821584443,257.38995964558853 150.33826343424153,254.9646161334822 174.77092647808604,222.3096327199455 163.06153792410623,213.0 145.22907352197217,249.38617808661365 156.22277788585052,260.60347974547767 156.89870184310712,260.0577924777026" stroke="#4dd2ff" stroke-linecap="round" stroke-linejoin="round" stroke-width="0.5"><title>2021-10-26 5.0km</title></polyline></svg>