<?xml version="1.0" encoding="utf-8" ?>
<svg baseProfile="full" height="300mm" version="1.1" viewBox="0,0,200,300" width="200mm" xmlns="http://www.w3.org/2000/svg" xmlns:ev="http://www.w3.org/2001/xml-events" xmlns:xlink="http://www.w3.org/1999/xlink"><defs /><rect fill="#222222" height="300" width="200" x="0" y="0" /><text fill="#FFFFFF" style="font-size:12px; font-family:Arial; font-weight:bold;" x="10" y="20">Over 5km Runs</text><text fill="#FFFFFF" style="font-size:4px; font-family:Arial" x="10" y="280">ATHLETE</text><text fill="#FFFFFF" style="font-size:9px; font-family:Arial" x="10" y="290">Wenz</text><text fill="#FFFFFF" style="font-size:4px; font-family:Arial" x="120" y="280">STATISTICS</text><text fill="#FFFFFF" style="font-size:3px; font-family:Arial" x="120" y="285">Number: 44</text><text fill="#FFFFFF" style="font-size:3px; font-family:Arial" x="120" y="290">Weekly: 2.9</text><text fill="#FFFFFF" style="font-size:3px; font-family:Arial" x="141" y="285">Total: 332.7 km</text><text fill="#FFFFFF" style="font-size:3px; font-family:Arial" x="141" y="290">Avg: 7.6 km</text><text fill="#FFFFFF" style="font-size:3px; font-family:Arial" x="167" y="285">Min: 5.0 km</text><text fill="#FFFFFF" style="font-size:3px; font-family:Arial" x="167" y="290">Max: 21.4 km</text><polyline fill="none" points="27.09999999999127,42.79642399401928 27.888764044939307,42.73476587896948 29.122471910115564,42.31343343807748 29.668539325837628,42.65255494338271 30.625842696608743,42.94029264022902 31.131460674165282,42.95056895661037 31.293258426958346,43.17664739532847 32.344943820207845,42.570343875704566 32.70224719100224,42.78614764665326 33.0662921348121,43.56714416442264 32.89101123592991,44.62558095058921 33.25505617978342,45.612065431712836 34.057303370776935,46.814317685744754 34.994382022472564,47.59525273785039 37.27977528089832,50.544202652730746 38.12247191010101,53.15393298929848 38.5,53.17448151910139 38.24382022469945,52.10594703093011 37.42808988761681,50.33870642388865 37.23258426965913,49.40368816526461 37.26629213482374,48.99268572434812 37.85280898875499,48.74608267559597 37.933707865173346,48.571404797206924 36.81460674156551,44.132331579610764 36.24831460672431,43.14581857611847 33.7808988764009,40.53557786748206 32.93146067413909,39.9086892098494 31.010112359537743,38.96320326697605 28.886516853919602,38.57267136681912 27.544943820219487,38.552116973733064 26.055056179771782,38.75766053312327 25.832584269650397,38.28490911232075 24.693258426967077,37.54494159909882 24.052808988752076,37.19550877628717 22.630337078633602,36.82551848089497 18.794382022475475,37.19550877628717 17.722471910106833,37.1543988755875 15.65955056178791,38.73710621435748 14.641573033703025,39.22013052337934 11.958426966288243,39.137913941689476 11.661797752807615,38.96320326697605 11.5,39.20985345787631 11.810112359526101,39.29206992401305 13.846067415739526,39.41539437557003 15.012359550542897,39.33317810753215 15.935955056163948,38.8604320032573 17.553932584269205,37.4627223260286 18.113483146051294,37.174953830079176 18.679775280877948,37.277728478667996 20.54719101122464,37.08245646985597 22.313483146048384,37.061901478202344 23.634831460673013,37.26745102308632 24.099999999976717,37.586051186091936 24.221348314604256,37.884094704142626 23.877528089884436,38.38768153183992 23.75617977527145,38.87070913893331 23.58764044943382,39.857304553108406 23.749438202241436,40.10395043485187 25.04382022470236,40.37114879860019 25.40786516852677,39.33317810753215 26.729213483136846,39.795642896970094 29.506741573030013,39.51816452481944 29.958426966288243,39.795642896970094 30.598876404488692,40.494470649809955 31.583146067423513,40.17588859310126 33.194382022469654,41.53241778797019 34.165168539315346,42.77587129726089 33.632584269638755,43.330791212734766 33.12696629212587,43.54659177717258 32.41910112359619,42.632002188845945 31.36741573033214,43.228028719360736 31.19213483144995,42.99167420157028 30.57191011235409,43.00195050766342 30.221348314589704,42.78614764665326 29.176404494370217,42.79642399401928 27.443820224696537,43.865152852104075 26.594382022463833,44.87220385346154 25.569662921334384,44.327576690709975 26.473033707850846,42.11818064293766 26.6550561797485,42.0154157147299 27.066292134826654,42.09762767380016 26.641573033703025,43.25885748905057" stroke="#4dd2ff" stroke-linecap="round" stroke-linejoin="round" stroke-width="0.5"><title>2022-06-27 11.0km</title></polyline><polyline fill="none" points="65.88374609281891,41.50773277580083 65.96814138014452,40.983249603476 65.02031738398364,40.706161900572624 64.26075979802408,40.725953931047115 63.24152440491889,41.0228334338608 63.46874248617678,40.26083911420574 64.15039672997955,39.241529590141 64.3970906468021,38.31126754658544 64.32567924981413,37.91540603167596 64.96838182256033,37.64819771148541 64.8580187545158,37.27212428780331 63.975114210144966,36.6684214747911 63.09870161097206,36.163680659548845 61.84575619138195,35.86677188271278 58.43099302715564,36.09440210496177 58.060952151950914,36.25275294380481 57.28841067565372,36.12409292602024 56.91187785526563,36.26264985432499 56.15881221447489,37.004912479580526 54.94481846597046,37.84612993964038 54.19824477037764,38.113337186612625 54.28913200288662,38.707125881672255 53.87364751142741,38.75660794995201 54.21772060592775,38.776400763388665 54.17876893484208,38.95453572634506 53.99050252464076,39.01391390426579 54.334575619141106,39.08318835472892 54.39949507093115,39.291011121888005 54.23719644146331,39.52852178262037 52.91283962491434,39.94416268461282 50.46537629236991,41.13168880347803 48.29057465736696,41.339502932351024 46.687064198136795,40.88428988841406 46.706540033672354,42.18064640720695 46.48581389756873,42.51709977748396 44.62262563117838,43.94205329365286 44.252584755959106,44.397238095622015 43.090526568877976,45.089902554420405 43.01911517191911,45.27790979924612 43.14246213033039,45.406545921952784 43.6098821832129,44.901894592450844 43.90201971628994,44.901894592450844 43.86955999038764,45.15916846488835 43.402139937490574,45.683607199742255 42.65556624188321,45.98045684054887 41.90899254629039,46.70278349813816 41.5,46.79183673661828 41.74020197162463,47.28657402035242 42.14919451791502,47.52404615260821 43.65532579946739,47.53394079997088 44.23310892042355,47.385520881169214 45.0900456840609,47.543835445325385 46.62214474634675,49.136847445202875 47.64787208464986,49.73050334481741 47.777710988229956,50.205422916485986 47.71279153643991,51.18493008153018 48.91380139456305,51.29376300943113 50.53029574415996,52.11494917305026 52.5363068045408,54.13322811728722 56.366554460226325,53.22303411807661 57.145587881692336,52.73825001970545 58.52188025969372,51.46195887993599 58.65821110844263,50.729807961128245 59.09317143545195,49.72060913842506 59.10615532578959,49.12695311963398 59.76184178890253,47.66257103474345 60.02801154124609,46.534571386455355 60.66422216879437,45.3471754454913 61.42377975475392,44.30818053037001 61.84575619138195,42.89313317910273 62.87797547488299,42.992088860562944 63.31293580187776,42.784281700001884 63.384347198851174,42.22022927587386 63.22854051455215,41.0624172324533 64.56588122143876,40.725953931047115 66.81209425344423,41.032729386475694 67.58463572974142,40.706161900572624 68.5,41.48794105933848 66.51346477519837,42.61605621398121 65.74092329885752,43.55613245105269 65.54616494348738,43.59571421498549 64.66326039914566,43.0712532626676 65.3189468622295,41.34939882138133 65.62406828564417,40.92387379828142 66.00060110603226,40.9436657412989 66.00060110603226,41.05252128577922 65.55914883385412,42.101480574496236" stroke="#4dd2ff" stroke-linecap="round" stroke-linejoin="round" stroke-width="0.5"><title>2022-06-25 10.0km</title></polyline><polyline fill="none" points="98.28942807627027,50.15381624711881 97.97357019066112,49.957661398133496 98.31282495669439,49.01254559838708 96.92071057192516,48.602397876507894 95.43500866551767,48.54890020793391 93.45797227037838,49.083875443619036 93.83232235701871,47.728598587273154 94.65121317157173,46.26630299266981 95.06065857887734,45.998807290969125 95.51689774697297,44.233315451128874 95.42331022533472,43.5199754590285 96.45277296361746,43.12763602094492 96.48786828425364,42.62829241091822 93.43457538995426,40.50605074259511 91.76169844018295,39.98885811206128 90.33448873483576,39.84618375288119 85.67850953203742,40.14936649215815 84.13431542459875,40.50605074259511 82.70710571925156,40.32770879648888 82.19237435006653,40.50605074259511 79.44324090119335,42.770962300288375 76.9865684575343,44.00148058224295 72.28379549394595,43.85881266976503 71.67547660309356,43.537809028683114 71.5,43.98364710570604 74.86915077990852,44.35814936066163 77.71187175041996,44.19764858760027 80.40251299826195,42.55695738022041 82.59012131718919,40.6130557383658 83.08145580589189,40.45254819638649 85.23396880415385,40.541719088854734 87.37478336223285,40.20286922109517 91.176776429842,40.34554300719901 92.67417677646154,40.77356299023086 93.48136915077339,41.50475902202743 92.82625649916008,42.93146565185452 92.45190641249064,45.26764826173894 94.66291161178378,46.33763504373928 93.46967071059044,49.083875443619036 95.63388214903534,48.53106764455151 97.4588388215052,48.69156058586668 98.5,49.11954034474911 98.19584055463201,49.99332594835869" stroke="#4dd2ff" stroke-linecap="round" stroke-linejoin="round" stroke-width="0.5"><title>2022-06-23 5.0km</title></polyline><polyline fill="none" points="128.13844492437784,50.20045538170234 128.36004319653148,50.12934219159797 128.02181425484014,50.004893971614365 128.3250539956789,49.09819451758085 127.39200863929,48.56483756018133 125.44427645785618,48.58261617718381 123.75313174945768,49.11597302752489 123.43822894166806,48.99152338316344 123.85809935204452,47.622565749996284 125.07105831534136,45.91578373032826 125.50259179263958,44.31564570400951 125.44427645785618,43.444447286223294 126.44730021597934,43.05329418769543 126.50561555076274,42.591020115876745 126.38898488122504,42.27098280606879 124.72116630669916,41.204183418019966 122.27192224620376,40.01290890945529 119.7526997840323,39.799544618304935 115.6123110151093,40.06624990187993 114.04946004319936,40.421855696840794 112.67321814256138,40.24405297788326 108.89438444923144,43.07107391145837 106.9816414686793,43.90671690199815 102.45637149026152,43.746700769690506 101.76825053998618,43.497786211257335 101.54665226783254,43.746700769690506 101.5,43.92449645441957 102.16479481643182,44.12007129518315 104.52073434126214,44.33342517428537 107.7980561555014,44.12007129518315 109.8974082073546,42.96439551514777 113.01144708422362,40.368514918664005 115.50734341252246,40.4751964428724 117.4784017278871,40.17293179035187 120.3941684665042,40.22627268636279 122.0269978401775,40.54631738761236 122.75010799139272,40.77746006344387 123.41490280779544,41.31086393523583 123.4848812094715,41.68424473340565 122.92505399568472,42.55546047195094 122.5518358531117,45.382407601537125 124.25464362849016,45.86244626201369 124.60453563713236,46.253586949940654 123.46155507559888,48.92040922212618 125.66587473000982,48.40482984643313 127.88185745140072,48.689287804285414 128.5,48.95596630977525 128.19676025919034,50.004893971614365" stroke="#4dd2ff" stroke-linecap="round" stroke-linejoin="round" stroke-width="0.5"><title>2022-06-22 5.1km</title></polyline><polyline fill="none" points="158.5,50.14267756758636 157.89404402245418,50.178203477822535 158.2902460077894,49.09465679760615 156.9618040569767,48.6150499313153 155.58675010787556,48.52623355963442 153.3144151920278,48.988077718691784 153.9320241691894,47.26503145796596 154.95748813118553,45.84393712258316 155.3653431161074,44.29847111916024 155.2022011221561,43.641195784832234 156.41411307727685,42.96615116873727 156.5306430729397,42.610862459550845 153.30276219249936,40.461335335610784 150.5293482952111,39.821796522177465 145.27384548983537,40.1415665068198 144.0153215364553,40.47910023662553 142.75679758307524,40.24815624490293 142.0809236081259,40.47910023662553 138.86469572721398,43.10826625287882 136.98856279670144,43.92542355574551 132.269097971468,43.76554554698669 131.81463098834502,43.516845847902005 131.5,43.97871616114571 135.42706085453392,44.3339993764821 137.687742770795,44.13859378458437 139.2842037116934,43.250381108693546 142.75679758307524,40.35474585444899 151.47324126024614,40.35474585444899 152.53366422094405,40.71004362544045 153.33772119120113,41.45616429932852 152.94151920586592,41.98910378475557 152.7084592145111,42.98391556672141 152.4404402244254,45.382076548099576 154.79434613723424,46.0571027282931 153.33772119120113,48.97031452639931 155.43526111351093,48.45518039806484 157.29974104443681,48.6683397115703 158.2902460077894,48.988077718691784 158.09214501513634,49.98281079506705" stroke="#4dd2ff" stroke-linecap="round" stroke-linejoin="round" stroke-width="0.5"><title>2022-06-21 5.1km</title></polyline><polyline fill="none" points="188.3113537117606,49.79893777090183 188.09912663756404,49.583268949674675 188.4882096069923,48.52288968661742 187.580349344993,48.18140894467797 185.44628820961225,48.18140894467797 183.78384279477177,48.79247882578056 183.50087336241268,48.52288968661742 184.67991266373429,45.88087315103621 185.2104803493421,45.39559632996679 185.6820960698824,43.652172711197636 185.52882096069516,43.130936375157034 186.6724890829646,42.51982783963467 186.5899563318817,41.99858490897168 183.5716157204879,39.96750590867305 181.9209606986551,39.41029918789718 180.2820960698591,39.266503341954376 175.7192139737599,39.57206923842023 174.12751091699465,39.913582829256484 172.712663755432,39.733838996522536 169.2462882096006,42.37603698949533 166.98253275104798,43.45446273417474 162.4078602619993,43.31067338567664 161.7711790392932,42.987146506871795 161.5,43.2208049255205 161.54716157203075,43.50838368033874 162.08951965064625,43.670146323791414 165.85065502181533,43.84988225153211 167.7017467248952,43.652172711197636 169.49388646287844,42.66361845866777 172.97205240171752,39.805736572961905 175.05895196506754,40.03940329744364 180.7419213973917,39.75181339603296 182.88777292575105,40.23712081856502 183.80742358075804,40.79432239174639 184.52663755454705,40.20117221080727 185.8589519650559,41.495312992090476 186.51921397380647,41.81884526354406 186.70786026201677,42.555775516011636 185.63493449779344,42.96917275711894 185.7646288209653,43.84988225153211 185.32838427947718,45.575328792707296 184.73886462883092,46.07857776826859 183.6659388646367,48.52288968661742 183.71310043666745,48.66667066189257 185.92969432313112,48.055599921921385 188.5,48.46897176136554 188.37030567685724,49.61921378927218 187.7689956331451,50.73349665803835" stroke="#4dd2ff" stroke-linecap="round" stroke-linejoin="round" stroke-width="0.5"><title>2022-06-20 5.3km</title></polyline><polyline fill="none" points="27.16916167664749,72.73133937710372 27.910179640719434,72.71080205171893 29.156437125740922,72.28978506393833 30.564371257496532,72.92644355681477 31.197604790431797,72.92644355681477 31.291916167669115,73.13181557344797 31.669161676662043,73.01886106636084 32.34281437128084,72.52596575220014 32.659431137741194,72.74160803668565 33.05014970060438,73.47067759782658 32.89520958084904,74.69261594816635 33.25224550899293,75.55514308815327 33.8315868263453,76.51006688257257 35.05763473054685,77.68059430743597 37.26721556887787,80.5143918719441 38.1631736526906,83.21456738188135 38.47979041915096,83.1632345759499 38.38547904191364,82.67043701768125 38.17664670658996,81.8696308587314 37.44910179641738,80.25771377675483 37.2065868263453,79.02564098838775 37.913922155683395,78.55333854999844 37.13922155689215,75.20602671243614 36.647455089812865,73.93275855806496 36.24326347305032,73.20369558442326 34.76796407185611,71.42720284913594 33.218562874244526,70.09222550025152 32.160928143697674,69.42472375696161 31.049401197597035,68.95233264291892 29.095808383252006,68.56209321382266 27.667664670647355,68.47993716503697 26.01047904191364,68.67505756532773 25.788173652690602,68.21292909502154 24.12425149702176,67.16542243376898 22.601796407194342,66.76489951016993 17.758233532949816,67.13461308949263 16.14146706587053,68.4183200418629 14.592065868258942,69.17825937233283 12.005239520978648,69.07556552816095 11.634730538920849,68.90098551975461 11.5,69.13718185940161 11.850299401208758,69.29122236273179 13.150449101813138,69.38364644203466 15.0097305389354,69.31176106148632 16.909431137726642,68.1205028998047 17.892964071870665,67.17569221109079 18.714820359295118,67.26812011401125 20.64820359283476,67.03191514114587 22.534431137726642,67.0524547473251 23.76047904191364,67.31946887679442 24.25898203594261,67.62756037060899 24.777694610791514,67.39135705805165 25.875748502992792,68.23346822683015 25.88248502992792,68.66478808915053 25.309880239525228,68.88044665605412 25.437874251510948,69.15772061999087 26.030688622762682,69.56849409942151 26.724550898215966,69.80468735601244 29.479790419180063,69.53768620292612 29.924401197597035,69.75334108867173 30.604790419180063,70.46191502445072 32.86152694612974,69.78414885524398 34.07410179640283,70.64675878432536 35.2597305389354,71.80715156997394 36.37125748503604,73.2447698310607 36.74850299402897,73.96356380695215 36.916916167669115,74.54886001055274 36.01422155689215,74.88771264573006 35.09131736526615,75.02119943102298 34.70733532933809,73.8403427000012 34.08083832336706,72.99832385646732 33.09730538922304,73.52202013291753 32.91541916168353,74.74395725650174 33.750748503007344,76.38685191097466 35.10479041916551,77.7011296371711 37.29416167666204,80.52465896897047 38.196856287439005,83.23510048983371 38.5,83.14270143914109 38.47305389221583,82.85523665841174 37.624251496992656,80.76080163145889 37.19985029941017,78.9845713843024 37.913922155683395,78.54307105726184 36.74850299402897,73.9841006292263 36.41167664671957,73.31664968327459 34.57934131738148,71.09859627355763 32.8413173652807,69.77387960178385 31.352544910187135,69.02421852872067 29.803143712575547,68.67505756532773 28.05164670657541,68.52101520591532 26.03742514969781,68.71613544947104 25.855538922158303,68.2745464657055 25.41766467067646,68.03834614160587 24.77095808382728,67.41189651981767 23.531437125740922,66.93948681129041 22.520958083856385,66.8059789287945 17.677395209582755,67.12434330394899 16.07410179641738,68.46966764967146 14.666167664690875,69.17825937233283 11.964820359295118,69.08583492185426 11.621257485050592,68.90098551975461 11.54041916168353,69.2398755798531 13.810628742532572,69.43499308052196 14.86152694610064,69.35283843415164 16.09431137725187,68.74694384090981 17.771706586834625,67.25785035527952 18.068113772460492,67.18596198633895 18.37799401198572,67.23731083158054 18.37799401198572,67.44270569704167 17.455089820359717,68.29508557276131 19.28742514969781,68.04861574358802 19.4423652694677,68.6853270394713 21.247754491021624,68.76748275826321 23.403443113784306,68.58263220536537 23.491017964086495,67.68917844663156 23.76047904191364,67.50432399580313 24.13772455090657,67.69944811873938 24.13098802395689,67.89457149709415 23.699850299410173,69.04475733470827 23.565119760489324,69.85603357177752 23.672904191640555,70.04087952167174 25.04715568861866,70.37976202780919 25.370508982043248,69.2809530102677 25.869011976057664,69.5274168999822 27.148952095827553,69.79441810668868 29.46631736526615,69.5274168999822 30.64520958083449,70.4721841397295 31.527694610776962,70.09222550025152 33.333083832330885,71.70446300488402 34.76796407185611,73.79926893172524 34.98353293414402,74.83637148169146 35.24625748503604,74.98012661113171 36.809131736517884,74.57966488833335 36.89670658682007,74.41537199236336 36.694610778446076,73.93275855806496 36.29041916166898,73.20369558442326 35.13173652694968,71.72500073439733 32.92215568861866,69.82522584848266 30.92140718564042,68.92152437521509 28.900449101798586,68.55182371493356 27.997754491021624,68.53128471098898 25.943113772460492,68.69559651153031 25.370508982043248,68.88044665605412 25.660179640733986,69.38364644203466 26.650449101784034,69.77387960178385" stroke="#ff0000" stroke-linecap="round" stroke-linejoin="round" stroke-width="0.5"><title>2022-06-17 21.4km</title></polyline><polyline fill="none" points="68.42900964064756,78.94106604759145 68.19237510953099,78.76071204438631 68.5,77.58840219647391 66.96187554774224,77.22768839574564 65.50657318139565,77.24572412022098 63.66082383872708,77.76875855357503 63.6963190184033,77.04733095217671 65.5184049079835,73.87298066476797 65.79053461877629,72.84489998657955 65.54206836107187,72.14146958414494 66.7370727432135,71.61840238019067 66.85539000874269,71.3117753615079 65.05696757227997,69.85077342540899 62.38299737073248,68.57012255225709 60.06397896580165,68.31759768953634 54.905346187530085,68.73245958914777 54.19544259420945,68.9849832854452 52.89395267306827,68.82264670502627 52.01840490795439,69.11124486733752 49.3444347064069,71.41999678175489 46.88343558282941,72.59238714262028 42.25723049955559,72.37594699709007 41.57099035932333,72.14146958414494 41.5,72.68257038265438 46.95442594218184,72.89900978932565 48.13759859770653,72.53827715515217 49.592900964053115,71.6905497618136 52.882120946538635,68.87675893109554 55.958369851025054,69.02105804125313 57.86327782648732,68.8406841173346 57.993426818575244,69.88684783344797 57.59114811569452,73.20563138926082 58.28921998242731,73.34992354462156 57.72129710778245,73.74672577673482 57.7686240139883,74.82890477248293 60.06397896580165,74.93712195489206 63.9684487291961,75.87499874103378 64.0631025416078,76.235717974203 63.49517966696294,77.93107896534639 64.05127081507817,79.44605532987771 63.9684487291961,80.85279621733935 66.76073619630188,81.68240231046366 67.97940403156099,79.15749037330534" stroke="#4dd2ff" stroke-linecap="round" stroke-linejoin="round" stroke-width="0.5"><title>2022-06-16 5.2km</title></polyline><polyline fill="none" points="98.24285714287544,80.18498765448749 98.21948051950312,78.93780388160667 97.14415584417293,78.65273084356159 95.67142857142608,78.63491374826117 93.46233766237856,79.026889018176 94.56103896105196,76.4433837438919 95.06363636365859,75.87322072328243 95.53116883119219,74.48343301101704 95.42597402600222,73.46780514673446 96.57142857144936,72.95107773618656 96.4662337662885,72.4165289723096 94.97012987014023,71.31178465465928 92.78441558446502,70.1713889951352 90.99610389611917,69.81501234550524 84.74285714287544,70.18920779001928 84.10000000003492,70.47430802181043 82.6740259740327,70.26048293385975 79.63506493507884,72.6303488643025 76.97012987014023,73.96671151526971 72.34155844157794,73.80634905989427 71.90909090911737,73.46780514673446 71.5,73.9488934789697 74.51558441558154,74.30525352480618 77.58961038963753,74.19834566133068 80.09090909094084,72.75507689669757 82.91948051951476,70.31393925414886 90.30649350650492,70.22484536910633 91.93116883118637,70.45648928418814 92.93636363637052,70.81286335721234 93.49740259742248,71.4721516187492 92.79610389613663,73.14707814272697 92.50389610390994,75.28523627097456 94.68961038961424,76.15830269154685 93.5324675324955,79.00907199802168 95.65974025975447,78.51019398110657 97.99740259745158,78.72399918895826 98.5,78.93780388160667 98.25454545454704,79.86428493003768 98.45324675325537,80.13153728092584" stroke="#4dd2ff" stroke-linecap="round" stroke-linejoin="round" stroke-width="0.5"><title>2022-06-15 5.0km</title></polyline><polyline fill="none" points="128.3236830648384,80.22329433849518 128.17087505437667,79.91869414057874 128.39420983890886,79.1123944801584 127.18350021765218,78.73611881193938 125.93752720940392,78.6286111867812 123.83347845013486,79.23781935029547 123.49259904224891,79.13031232957292 124.58576404003543,76.46051310001349 125.114714845462,75.90504147672618 125.63191118850955,74.20276819210267 125.42033086629817,73.59352565166046 126.54875925116357,73.10971243557287 126.60753156291321,72.5542199523843 123.64540705265244,70.52933097699861 121.89399216367747,69.95590274099959 120.11906835000264,69.77670566150482 114.14780148016871,70.45765264902002 112.3376142794732,70.40389386527386 109.25794514582958,72.87676439592178 106.71898127993336,74.02357964145631 102.24053112755064,73.79063398764265 101.61754462341196,73.53976875719673 101.5,74.0056607666047 102.01719634304754,74.22068702740216 106.9188071397657,74.34611877358111 109.36373530692072,73.30682184032776 112.81954723552917,70.36805465810176 115.91097083152272,70.47557223644253 117.76817588155973,70.11717980486719 122.05855463646003,70.49349182020524 123.05768393559265,70.88772175310442 123.55137135391124,71.6044989867878 122.94013931215159,72.89468349750678 122.5875054418866,75.3495663955182 124.91488898562966,76.08422624912782 123.6218981279817,78.98696943373943 125.93752720940392,78.53902140018909 127.60666086198762,78.75403673691471 128.48824553762097,79.00488730827783 128.5,80.1516237972246" stroke="#4dd2ff" stroke-linecap="round" stroke-linejoin="round" stroke-width="0.5"><title>2022-06-14 5.0km</title></polyline><polyline fill="none" points="147.02095808384183,72.80321488481059 147.88323353293526,72.75187158683912 149.1497005988058,72.3513920935402 150.60479041915096,72.93670721830858 151.1639221556834,72.90590132613215 151.39296407184156,73.22422798385742 152.45733532932354,72.58757268690533 153.05014970060438,73.51174713294677 152.91541916168353,74.66180756498943 153.05014970060438,75.23682808276499 153.87200598801428,76.5716722174111 154.91616766466177,77.51631009168705 157.22679640719434,80.4835916702541 158.11601796407194,83.21457067636584 158.5,83.21457067636584 157.2200598802301,79.35419682884822 157.2402694610646,79.00510610497076 157.86676646706474,78.75868768883447 157.94086826346756,78.58414059238203 156.8428143712663,74.22026956482296 156.20958083833102,73.20369083992409 154.8690119760431,71.58123040694772 153.74401197602856,70.53379189926636 152.2687125748489,69.54794782296085 151.21107784430205,69.05501865778206 149.41242514968326,68.65451021236004 147.5666167664749,68.57235424610917 146.02395209579845,68.7366660466505 145.8218562874099,68.28480732477692 144.15119760477683,67.24757106576362 142.54116766466177,66.83677861234173 139.17964071854658,67.042175251554 138.71482035928057,67.20649196888917 137.9670658682735,67.08325448038158 136.101047904187,68.51073718479165 134.63248502994247,69.21932890745302 131.97155688623025,69.12690445697444 131.59431137723732,68.96259391033527 131.51347305389936,69.23986765154405 132.17365269460424,69.35283059660651 132.23428143713681,69.55821713006299 132.2881736526906,69.30148383431515 133.20434131736693,69.4657932920818 134.62574850300734,69.45552396642597 135.99999999998545,68.83936065388843 137.8997005988058,67.27838036670073 142.02245508981287,67.10379408242443 143.55164670658996,67.2989198903997 144.33982035928057,67.68916927262399 144.7776946107624,67.4221568591638 145.36377245507902,68.02806763579065 145.90269461077696,68.31561600082568 145.91616766467632,68.70585762427072 145.35029940120876,68.95232448364914 145.44461077844608,69.1782513945218 146.42140718562587,69.74306430491197 147.22305389223038,69.87656462677478 149.43937125748198,69.58902503893114 149.86377245507902,69.75333357280033 150.6115269461152,70.49271544221847 151.58832335329498,70.20517931885479 153.20508982034517,71.57096150609505 154.11452095808636,72.87509541537656 154.08083832333796,73.02912478352664 153.0232035927911,73.62470064211811 152.85479041915096,74.53858804142874 152.95583832333796,74.99039150965473 154.0336826347193,76.77702976125147 154.94985029939562,77.56764860666226 157.2402694610646,80.50412589108237 158.11601796407194,83.04003878584263 158.4326347305323,82.91683944576653 158.4326347305323,82.6807065477442 157.46257485028764,80.40145470454081 157.17964071854658,79.14884963277291 157.22679640719434,78.99483869468168 157.89371257483435,78.72788530332036 157.89371257483435,78.34798769020563 157.0920658682735,75.13414632162676 156.69461077843152,74.07651218401952 156.27694610776962,73.27557080760016 154.76122754489188,71.45800346072065 153.53517964070488,70.37975501513574 152.1676646706328,69.47606261564215 151.3458083832229,69.06528806384085 149.3854790418991,68.6442407238028 147.8697604790359,68.55181523392457 146.0374251496978,68.72639657459149 145.84880239520862,68.30534644418367 144.09056886227336,67.18595240811919 143.154191616748,66.87785800615893 142.06961077843152,66.78542932363052 138.72829341316537,67.18595240811919 137.83907185628777,67.08325448038158 136.03368263473385,68.51073718479165 134.6055389221583,69.20905953232068 131.96482035928057,69.11663506328114 131.64146706585598,68.96259391033527 131.5,69.23986765154405 132.05239520958276,69.3733692870519 134.61227544909343,69.41444664324445 134.65269461077696,69.12690445697444 136.03368263473385,68.47992862630053 137.16541916166898,67.51458439083581" stroke="#4dd2ff" stroke-linecap="round" stroke-linejoin="round" stroke-width="0.5"><title>2022-06-11 15.5km</title></polyline><polyline fill="none" points="176.901551163377,72.75597611462581 177.88103577683796,72.7250853309888 179.1915186389815,72.3338004611287 180.66412309232692,72.9722110789553 181.15048786588886,72.9619141965486 181.41393545159372,73.19874196840465 182.20427820866462,72.64270981704249 182.48123592694174,72.60152201042729 183.0486614961119,73.42527185719155 182.92031523642072,74.753540614558 183.27833375030605,75.62873765984114 183.94708531399374,76.63776983395292 185.1494871153409,77.7600374012145 187.32461846384103,80.59133726657456 188.16224668500945,83.18570027383248 188.5,83.20628993153878 188.43920440328657,82.67095614485152 187.69614711031318,80.88990159653986 187.25031273455534,79.34558458257743 187.25031273455534,79.02641993465659 187.92581936453644,78.73814048093845 187.96634976231144,78.55281711924545 186.93282461847411,74.39316101925942 186.48699024267262,73.44586543380501 185.01438578934176,71.54092459674575 182.947335501638,69.87275612564918 181.2585689266998,69.02835386705192 179.819739804836,68.67823177939135 177.69189392043336,68.51346761679815 176.04365774331382,68.7297204716233 175.90180135100672,68.33840511398739 174.1522391793842,67.18503721435263 172.51751313485147,66.79371006846122 169.12646985238825,67.04086440280662 168.8224918689084,67.1747391698409 167.91055791842518,67.07175861082942 165.99211908933648,68.54436093762342 164.9991243432596,69.06954454373772 164.07368026020413,69.24460455046574 161.93907930949354,69.10043752952333 161.5810607956082,68.90478163851003 161.5,69.19311637523424 163.20903177384753,69.41966395960844 165.05316487365053,69.31668790893673 166.05291468600626,68.77091138818287 167.58631473605055,67.3806996673884 167.97810858143202,67.1747391698409 168.79547160372022,67.27771952200783 171.9771078308695,67.07175861082942 173.35514135601989,67.21593133553324 173.72667000249203,67.3292096205405 174.17250437827897,67.76172440698065 173.79422066549887,68.58555200308547 173.61183387540223,69.65650809122599 173.69289467101044,70.05811085787718 175.03039779835672,70.36703392273557 175.39517137853545,69.29609267401975 176.25306479859864,69.6359129927987 177.32712034024007,69.81097106600646 179.64410808106186,69.58442521044708 180.650612959711,70.47000786411081 181.64360770577332,70.19197774779605 183.2107830872992,71.56151893012793 184.11596197147446,72.82805453738183 184.17000250187994,72.92072664634179 183.6093319990032,73.37378787940906 183.0959469602094,73.57972348033582 182.46772579432582,72.59122505359846 181.3936702526844,73.22963246670042 180.20477858395316,72.7662730383563 179.31986489865812,72.7662730383563 178.73217413057864,72.98250795929198 177.48248686514853,73.85773522977979 176.50300225168758,73.2914134074963 176.7529397047765,72.7044914649232 176.92857142857974,72.73538226094752" stroke="#4dd2ff" stroke-linecap="round" stroke-linejoin="round" stroke-width="0.5"><title>2022-06-10 10.5km</title></polyline><polyline fill="none" points="38.5,110.24752671007445 38.090199479600415,109.96196342596522 38.33607979185763,109.08742016135511 38.090199479600415,108.85539703463292 35.818733738036826,108.64122130317264 33.465307892416604,109.10526806911366 34.05073720726068,107.24906646905583 35.24501300955308,105.5356152008826 35.549436253262684,104.19695841388602 35.36209887251607,103.4829998834175 36.53295750217512,103.05462201230694 36.49783174326876,102.69763887588488 36.39245446660789,102.35850356823357 34.78837814394501,101.2161435375092 31.7207285342447,99.93097095213307 30.10494362533791,99.75247328993282 24.63703382477979,100.23441615512274 24.004770164756337,100.53786032211792 22.716825672163395,100.32366454706062 22.09627059844206,100.55570994670416 19.333044232422253,102.82258313673083 17.705550737213343,103.7150370348827 15.598005203792127,104.03631824452168 14.637901127513032,103.73288602146204 12.331309627043083,103.8042819318216 11.699045967048733,103.46515084665589 11.5,103.982771456911 16.94449262789567,104.28620282688644 16.97961838680203,103.76858398378681 19.50867302689585,102.50129753968213 21.674761491740355,100.55570994670416 22.892454466607887,100.09161854157719 23.45446660881862,100.16301737703179 23.45446660881862,101.05549798056018 22.014310494356323,102.2514079390603 22.014310494356323,102.50129753968213 24.882914137037005,102.05506561710354 25.26929748483235,103.1617166736687 27.458803122251993,103.10816935914772 27.493928881158354,104.60748197192879 28.208152645238442,104.73242354802642 27.657849089300726,105.10724722260784 27.739809193415567,106.3031026655517 29.578057241946226,106.3031026655517 32.58716392019414,106.89210017876758 33.85169124021195,107.37400433201401 33.51214223765419,109.06957225005317 35.51431049435632,108.4091970117006 38.17215958365705,108.81970111527335 38.42974848221638,109.05172433517873 38.40633130961214,110.15828828232043" stroke="#4dd2ff" stroke-linecap="round" stroke-linejoin="round" stroke-width="0.5"><title>2022-06-09 5.2km</title></polyline><polyline fill="none" points="53.8505121638882,102.0761975475616 54.94814340589801,102.04984874804359 56.47791293213959,101.56239404837834 58.35339308579569,102.37920798149935 59.16581306018634,102.36603364388793 59.27816901411279,102.61634560579114 60.661011523683555,101.83905797098123 60.980793854017975,102.1157207270262 61.516645326511934,103.05109569108026 61.29193341868813,104.39485046973277 61.50800256084767,105.19845537348374 62.51056338028866,106.924196575932 63.97983354673488,108.30739148796056 66.90973111396306,112.02211351729056 68.10243277848349,115.55222184174272 68.5,115.46001993511891 68.33578745197156,114.7355718752151 67.11715749040013,111.77183743438945 66.83194622278097,110.28333364097853 66.93565941101406,110.05939651993685 67.7740076824557,109.63786574820551 66.46895006403793,104.31580683278298 65.70838668374927,102.74808836009834 63.24519846352632,99.98143496717239 61.28329065302387,98.41361292361762 59.2003841229307,97.34641850557455 57.273047375143506,96.85892885973954 54.98271446861327,96.66129689028458 52.48495518567506,96.91163061767656 52.1997439180559,96.30555784511671 51.11075544176856,95.60724966538692 49.95262483996339,94.9221098879716 48.80313700385159,94.57953731607267 47.5499359795358,94.44777815825728 42.80505761844688,94.9221098879716 42.76184379000915,95.43596539180726 43.384122919349466,95.33055946271998 42.58898847628734,95.50184401147999 41.5,96.39778667168503 43.88540332906996,96.21332888886172 44.101472471200395,96.9379814807944 45.7003841229307,97.00385859223752 45.69174135726644,98.04470817440597 46.19302176698693,98.12375936669196 45.786811779777054,98.33456208054122 45.84731113957241,99.26999095188876 48.95870678615756,99.53348963483222 50.453905249683885,100.06048382600784 50.056338028167374,101.43064891326867 50.43661971829715,102.52412552040187 50.35883482717327,103.55171343297116 51.793533930846024,103.89423916082524 53.176376440474996,104.6978501958547 54.14436619717162,103.44632054155954 56.15813060180517,102.19476701448366 56.92733674775809,101.99715111725891 55.855633802799275,100.98271347516857 55.01728553138673,101.36477624651525 53.8245838668372,101.40429985452647 53.703585147246486,102.04984874804359" stroke="#4dd2ff" stroke-linecap="round" stroke-linejoin="round" stroke-width="0.5"><title>2022-06-07 8.0km</title></polyline><polyline fill="none" points="97.1455309396697,99.98598847537869 96.2104660046025,101.66283448982358 94.59472880062822,101.15978634186467 94.20970206265338,101.67331460802961 92.88961038962589,102.7632354115267 92.16080977846286,103.16147002818616 91.84453781515185,103.55970160658762 90.93009931246343,105.2993091932185 90.60007639421383,106.65113288949942 90.04316271966673,107.7828653402903 89.47249809016648,110.31869526758601 89.16310160428111,110.61208912672737 87.98051948053762,111.68086709793351 87.04545454545587,112.24668187136558 82.93391902216536,113.2106484725191 80.75439266616013,111.06265505699048 79.59931245225016,110.43395733750003 77.79106187931029,110.04625663621118 77.66042780748103,109.79477356065036 77.83919022155169,108.94600923612597 77.74980901452363,108.53734000979603 76.82849503438047,108.07627345197398 75.03399541635008,106.26340409205659 71.90565317035362,106.14813281311581 71.5,105.88615168702381 71.5,105.3936236103691 73.90641711228818,103.60162054337343 73.8926661573787,103.39202552280767 73.71390374332259,103.3605861971555 73.06760886173288,103.89505215823738 72.88884644766222,103.82169440915095 72.9576012223115,103.6330597238557 76.82161955692573,100.59385138021025 76.87662337662186,99.27331260612118 77.06913674560201,99.2104289740164 78.73300229184679,99.60869069794717 80.93315508021624,99.30475439378642 83.50458365165105,97.91081694750756 86.06913674561656,97.1876317256465 87.23796791445056,96.96752988654771 87.58174178763875,97.15618866261866 90.352559205523,96.78935152747727 90.88197097022203,96.88368132277174 91.01948051949148,97.72216089914582 93.79717341483047,97.99466386124186 94.6084797555668,98.2986077943533 94.28533231477195,99.40956021582315 94.6084797555668,100.28992081268007 94.59472880062822,101.13882589712375 95.79793735676503,101.47419200247896 96.8567608861922,102.0610775019959 97.3792971734365,101.28554883336983 98.5,100.4366461351965 98.321237585973,100.0069493830415 97.60618792974856,99.96502755929032" stroke="#4dd2ff" stroke-linecap="round" stroke-linejoin="round" stroke-width="0.5"><title>2022-06-05 8.1km</title></polyline><polyline fill="none" points="106.8842028278741,100.38558569579618 107.002681618731,100.60631914320402 107.13432471966371,100.30531886676181 108.55607020965545,100.38558569579618 111.17576791811734,99.48258015227475 112.34739151631948,100.20498523984133 115.09873232565587,100.7668522532258 115.44100438809255,101.22838350827806 117.65260848365142,100.02438445750886 118.2450024378486,100.62638579602935 118.82423208191176,101.91064319833094 118.53461725986563,104.29851543538825 119.23232569478569,105.98403795851482 120.81204290589085,108.25142222626164 122.47074597759638,109.65597074927064 124.97196489517228,112.72584380240005 127.1177474402648,115.71536811264377 127.97342759626918,117.80196296622307 128.5,117.54114099172875 127.43369088249165,114.83256486865139 127.05192588979844,112.74590802202147 127.20989761091187,112.38475145293341 128.35519258899149,111.92327171543002 128.3683568990673,111.52198325515201 126.82813261821866,104.80016201465332 125.43271574843675,101.50931453298108 122.91833252072684,98.43909691765293 118.53461725986563,94.76675196500582 115.46733300830238,93.14124471880496 110.66235982449143,92.1980370337842 106.2391516333737,92.31844702121452 104.6331058020296,92.4990617302974 103.73793271573959,92.94056297822681 103.8695758166723,93.78342358050577 103.39566065333202,95.79020592570305 103.02705997074372,95.89054398510052 101.5,99.14144260122703 103.80375426617684,98.57956644924707 106.41028766459203,98.88057192351698 107.002681618731,99.10130869513523 106.81838127743686,100.10465151218523 107.29229644077714,100.36551899460028 106.96318868844537,100.52605249150656" stroke="#4dd2ff" stroke-linecap="round" stroke-linejoin="round" stroke-width="0.5"><title>2022-06-04 5.1km</title></polyline><polyline fill="none" points="158.2889709074807,110.15606908709015 158.37103777678567,109.03019182950811 157.50347372988472,108.77999494919641 155.82696482850588,108.61915372621297 153.54081632650923,109.1552900059396 154.1270082500996,107.45751404031034 155.15870603561052,105.97416747660463 155.6511072514113,104.25845868801116 155.47524967434583,103.59718709497247 156.50694745982764,103.15037918301095 156.53039513679687,102.50697184886667 153.43530178029323,100.50523039462132 151.92292661743704,100.02266098713153 150.41055145463906,99.84393091290985 144.79483282673755,100.23713660243811 144.16174554929603,100.46948460237036 142.7079895788047,100.32650128956448 139.0267042987398,103.13250681984937 136.9164133738377,104.06186494381836 133.08271819364745,103.90101519382006 131.6993052540347,103.52569797978504 131.5,104.02612058007799 132.2034303082619,104.22271440314944 137.02192792008282,104.36569145633985 139.30807642205036,103.38271957715187 142.76660877114045,100.43373879570572 144.87689969604253,100.57672193620965 150.0471124620235,100.29075542547798 152.15740338686737,100.61246768539422 153.57598784193397,101.55972480835771 153.08358662613318,102.32824676384189 152.602909248817,105.36652439666796 154.7249240121746,106.11714171602944 153.62288319584331,109.01232064711803 155.69800260526245,108.42256961441308 157.15175857575377,108.58341119267425 158.5,109.03019182950811 158.34759009987465,110.0667142695238" stroke="#4dd2ff" stroke-linecap="round" stroke-linejoin="round" stroke-width="0.5"><title>2022-06-03 5.0km</title></polyline><polyline fill="none" points="188.31233709814842,110.17618970167678 188.10121633362724,109.94376606724836 188.35925282366225,109.19285479421524 187.0338835795119,108.67436474309216 185.5794960903586,108.56709056247928 183.76151172895334,109.19285479421524 183.4565595134627,109.06770229969698 183.6442224153143,108.1379925474539 185.3566463944153,105.3666847280474 185.6146828844503,104.24025753958995 185.43874891396263,103.54293832890107 186.49435273674317,103.11381610007084 186.44743701128755,102.59529064747767 183.33927019982366,100.50327797952195 181.55647263251012,99.94897578709788 180.37185056469752,99.82381029831595 175.2111207645503,100.21718695630989 173.75673327539698,100.57480059169029 172.64248479585513,100.34235189207538 168.9361424848321,103.16745649181394 166.89530842748354,104.0435783152061 162.36794092092896,103.86477864324843 161.7463075586711,103.5071782221712 161.5,103.98993845129735 162.14509122504387,104.2223776280589 165.71068635967094,104.41905645752558 167.71633362292778,104.18661779421382 169.6985230234568,102.9886550604133 172.7949609035859,100.41387463352294 174.16724587316276,100.62844251309434 177.59209383148118,100.23506767221261 182.2367506516166,100.57480059169029 183.4682884448266,101.2721430492893 183.52693310167524,101.62975244732661 182.88184187663137,102.97077489754156 182.56516072980594,105.42032376249699 184.95786272807163,106.09974873541796 183.59730668980046,109.03194441180676 185.8375325803354,108.47769531318772 187.49131190270418,108.74588079172099 188.5,109.15709695658734 188.30060816681362,110.01528109631909" stroke="#4dd2ff" stroke-linecap="round" stroke-linejoin="round" stroke-width="0.5"><title>2022-06-02 5.0km</title></polyline><polyline fill="none" points="20.7124904798402,130.3226141482519 22.162223914725473,130.27559575018677 23.704493526311126,129.7897373114247 24.218583396810573,129.93079329874308 24.20830159939942,129.5546434327407 26.449733434885275,130.55770571388712 27.385376999242,130.60472394202225 27.508758568175836,130.8868327162054 28.259329779160907,130.62039667846693 29.13328255902161,129.93079329874308 29.71934501142823,130.41665085948625 30.19230769231217,131.4353746359775 29.986671744118212,133.50412662093004 30.469916222413303,134.52281010321167 31.683168316842057,136.37207845212106 33.17402894134284,137.6414661133531 36.669840060931165,142.2016885382618 37.92421934500453,146.1975407475402 38.5,146.13486229185946 36.54645849199733,140.2898751419125 36.54645849199733,139.74139544236095 37.61576542269904,139.14589883371082 36.46420411273721,134.00563399666862 35.25095201830845,131.12192258243158 32.43373952782713,127.68954023641709 29.955826351884753,125.80871877186291 27.79664889565902,124.69587806388154 25.53465346537996,124.11594070181309 22.12109672508086,123.80245925245981 19.262757044954924,124.0845926135371 18.347677075420506,124.41374691246165 16.836252856068313,124.36672495475796 12.487052551441593,124.86829104325443 12.04493526276201,125.00935592489986 11.993526275735348,125.58928664869745 11.53084539223346,125.6363078698705 11.5,126.82750269113603 14.50228484388208,127.04693133322144 16.568926123378333,127.59550023957127 17.052170601673424,127.94031300741335 16.640898705285508,129.30387584839627 18.563594821025617,128.81801136093418 20.979817212501075,129.22551081301208" stroke="#4dd2ff" stroke-linecap="round" stroke-linejoin="round" stroke-width="0.5"><title>2022-05-30 6.1km</title></polyline><polyline fill="none" points="55.41118701963569,132.5112490670872 55.518787361244904,132.40580896207757 56.27967549103778,132.46438682171356 57.79376601197873,131.94889963846072 59.530742954753805,132.64012004778488 60.20708795901737,132.65183557736236 60.468403074279195,132.89786115523384 61.57514944492141,132.19492818041545 61.84415029891534,132.39409338307087 62.32835183606949,133.23760905736344 62.128522630257066,134.6317262861994 62.343723313417286,135.2643399238841 63.4888983774872,137.03327869202258 64.4496157130634,137.82986936641828 67.15499573014677,141.30896881353328 68.14645602050587,144.3661880067666 68.4538855678984,144.34276164876428 68.5,143.9796518965777 67.57771135782241,141.68380890069966 67.07813834332046,139.71587157992326 67.16268146882067,139.48158890654668 67.86208368916414,139.21216266927877 67.90051238259184,139.00130648539562 66.67079419299262,134.1279734840282 66.05593509820756,132.97986945066805 64.57258753204951,131.17566032409377 62.15926558498177,129.11363871805588 61.78266438940773,129.05505749417352 60.26857386849588,128.1880485036636 58.21648163962527,127.73110614845427 56.125960717356065,127.62565740439459 54.37361229720409,127.84827119608599 54.09692570453626,127.34445982180478 52.15243381727487,126.12592130227131 50.146456020505866,125.63381199323703 46.933817250217544,125.86815027712146 46.065328778815456,126.10248761974799 45.25832621692098,125.9970359320796 44.77412467976683,126.11420446219199 42.837318531179335,127.6725235363665 42.038001707958756,128.14118278578098 41.5307429547247,128.24663059810337 41.5,128.5746892397874 43.30614859095658,127.64909047507899 45.17378309139167,125.98531906610515 47.540990606328705,126.07905392787143 48.34799316825229,125.87986716658634 49.154995730146766,126.02046965689442 50.330913748941384,125.93845157874603 51.27625960719888,126.0907707749866 52.28309137490578,126.60630971913633 52.87489325364004,126.26652319955974 53.620409906085115,127.02811092137563 54.150725875311764,127.29759342626858 54.11229718191316,127.81312170650199 53.88941076004994,127.93028658945332 53.88172502137604,128.15289921878866 54.27369769429788,128.4458092791101 55.21135781382327,128.7387178688914 58.4624252775684,128.45752565092698 58.89282664388884,128.6449872801677 59.85354397952324,129.5940025350501 62.136208368930966,128.99647621149052 64.34970111015718,130.87104808357253 66.04056362085976,132.9095766330829 66.82450896670343,134.47942938607594 64.75704526048503,135.05346947340877 64.4573014517664,134.72544725789703 64.16524338175077,133.65936232153763 63.519641332211904,132.7924217488835 62.40520922289579,133.31961687526564 61.66737830915372,132.32379985977968 60.429974380880594,132.94472305246381 60.153287788212765,132.73384421857918 59.538428693427704,132.69869767217824 59.00042698546895,132.45267125450482 58.22416737829917,132.40580896207757 57.65542271564482,132.55811127482593 57.125106746389065,132.99158491204435" stroke="#4dd2ff" stroke-linecap="round" stroke-linejoin="round" stroke-width="0.5"><title>2022-05-28 10.0km</title></polyline><polyline fill="none" points="85.54491188176326,132.3802546791594 86.64241046048119,132.33345895274397 87.80898237638758,131.795305397638 88.47669130191207,132.27496424189667 89.05230244458653,132.34515788788121 89.56651506538037,132.63763050252237 90.15747583855409,132.61423274740446 90.44911881751614,132.918402831383 91.30102330871159,132.31006107544817 91.67708925527404,132.2164694722851 92.31409891985822,133.1991738072029 92.19897669131751,134.70829462165784 92.59039226832101,135.67925866669611 93.27345082434476,136.79058319723117 94.58584422970307,137.99546900291898 97.17993177945027,141.36433786784255 98.15463331440696,144.38211750718256 98.5,144.2417591289195 98.45395110858954,143.65692891381332 97.494599204103,141.29415508639067 97.08783399660024,139.5512555655041 97.91671404207591,139.13014450591072 96.80386583285872,134.3807368359776 96.02870949404314,132.83651104190358 93.95650938036852,130.5785920799317 92.16060261515668,129.11616264123222 91.1628766344802,128.71837548348776 90.4644684480154,128.2269875976781 88.33086981240194,127.72389570647283 86.21262080725865,127.58349719402759 84.32461625925498,127.7940948358264 84.20181921546464,127.3260990424933 82.17566799320048,126.06249162197491 80.26463899941882,125.61788249281744 74.83854462762247,126.06249162197491 72.91984081864939,127.60689696962436 71.5,128.28548637280983 71.51534963047015,128.51948088610152 71.82234223990235,128.51948088610152 72.62819783965824,128.09829008552697 74.91529277997324,126.13269275325365 75.25298465034575,126.01569082079004 77.50170551449992,126.03909122608457 78.18476407049457,125.81678699634722 78.890847072209,125.98059019524953 80.39511085842969,125.92208910563568 81.30841387153487,126.09759219817352 82.3214894826524,126.61239821959316 82.90477544060559,126.23799429151404 83.55713473563083,126.99849975033067 84.17879476974485,127.3377989831315 84.27089255259489,127.665396367418 83.9101762365026,128.05149091970816 84.09437180217355,128.3322853506579 84.53183627061662,128.53118058714244 85.82120523025515,128.76517411360692 88.46901648663334,128.42588319358038 88.80670835703495,128.56627967598615 89.89653212053236,129.6075430275887 91.1628766344802,129.1746605236185 92.13757816943689,129.05766470013987 94.16372939173016,130.64878776971454 95.83683911315165,132.62593162614576 96.46617396248621,133.6554237571654 96.76549175669788,134.53281746548964 94.71631608871394,135.04754895842052 94.47839681638288,134.75508844072465 94.20977828311152,133.71391708210285 93.47299602048588,132.7546191373258 92.42154633314931,133.2927638318106 91.6387151790841,132.25156634109953 90.42609437179635,132.9418004643776 90.14980102333357,132.69612484930258 89.55884025015985,132.67272711764235 89.02160318364622,132.36855575106165 87.62478681068751,132.54403942558565" stroke="#4dd2ff" stroke-linecap="round" stroke-linejoin="round" stroke-width="0.5"><title>2022-05-26 10.0km</title></polyline><polyline fill="none" points="106.86458092782414,129.2557059394967 108.56878951017279,129.17985859893815 110.8327746342693,128.4403438356385 113.53214151295833,129.69182696571806 114.4651024157356,129.63494172866922 114.88804469164461,130.2417158235694 117.00275607127696,128.9333543212997 118.08499071848928,130.6399092046122 117.74912479351042,132.59292861770518 118.48305403697304,134.52694687450276 119.34137806756189,135.98691481383867 121.7297579786391,138.24318450874853 125.90942282305332,143.62767755735695 127.45191818231251,148.36729415820446 128.13608951104106,148.5 128.01169472400215,147.60897148519143 126.15821239713114,143.11578473315603 125.85966490823193,140.78379342413973 126.99165747026564,140.34772361824434 127.11605225730455,140.02540985892847 125.02621983509744,131.8344792737189 124.11813788971631,130.14690762824466 121.38145257494762,126.98025922156376 117.77400375087745,123.98417075153702 115.78368715828401,122.86535384506715 112.63649904628983,121.84134031206486 108.41951576576685,121.5 104.73743006947916,121.86030362654128 103.85422708149417,122.12578962960106 104.0532587407506,122.84639073239669 103.5681190713367,124.93231029542221 102.68491608335171,125.95629031024873 101.86391048895894,128.04214117977244 103.96618238984956,127.47327732998383" stroke="#4dd2ff" stroke-linecap="round" stroke-linejoin="round" stroke-width="0.5"><title>2022-05-24 5.1km</title></polyline><polyline fill="none" points="158.45302305350197,140.22770138727356 158.19464984774822,139.94126833195332 158.4295345802384,139.02825682659022 156.66789908657665,138.67021054673387 155.4112657677615,138.74181991774094 153.79056111350656,139.24308390432998 153.50869943454745,139.04615910282155 154.01370160939405,137.70347840870818 155.2703349282383,135.64466206981888 155.68138321008882,134.31983337207203 155.52870813399204,133.58579818532598 156.6326663767104,133.1203093256263 156.6326663767104,132.78014285262907 156.43301435408648,132.2967461582448 154.8357981731242,131.22252189751453 152.16985645933892,130.0587643412291 150.2438016528904,129.77229861272644 145.31122227056767,130.18409280799824 143.86668116573128,130.50636519915133 142.8566768160381,130.29151706781704 142.11678990867222,130.5421731707538 138.9693344932748,133.10240585937572 137.00804697696003,133.99757476602827 132.721400608978,133.85434834497573 131.66441931272857,133.5499914362881 131.5,133.89015497185756 131.96976946498035,134.1408009569932 134.31861678994028,134.39144623745233 137.7479338843259,134.23031720943254 139.6857329273771,133.10240585937572 142.2694649847981,130.77492463527597 142.97411918226862,130.45265321487386 149.79752066117362,130.34522914922854 152.22857764246874,130.57798112794262 153.55567638101638,131.49107917622314 152.897999130073,132.76223931811546 152.6043932144239,135.3403112730375 154.9884732492501,136.07433201411186 153.60265332757263,139.04615910282155 155.90452370597632,138.50908925168187 157.11418007832253,138.63440583971533 158.5,139.01035454677185 158.4295345802384,139.74434507260594" stroke="#4dd2ff" stroke-linecap="round" stroke-linejoin="round" stroke-width="0.5"><title>2022-05-22 5.0km</title></polyline><polyline fill="none" points="166.92748316246434,128.86269554679893 167.00159961392637,129.25811808067374 167.96511348281638,129.29577728267031 169.29920960901654,129.10748112149304 170.9544770248176,128.44844158003252 171.4979976688046,128.91918458227883 172.7950355692301,129.12631075464742 173.73384395433823,129.67236847070308 174.70971056510461,129.59705035408115 175.00617637092364,130.0489581464135 176.8837931411108,128.86269554679893 177.50143023655983,129.35226605726348 178.10671459007426,130.538522463954 177.78554330047336,132.85450362960546 178.58847152453382,134.6620589452432 179.93492039258126,136.58254829498037 181.60254055034602,137.99464772655483 185.97541118608206,143.64283284229168 187.5565621504793,148.5 188.13714102018275,148.38704548114765 188.05067182678613,147.84109672201885 186.06188037944958,143.02154913020786 185.75306183175417,141.0070554529375 185.87658925083815,140.6681644141281 186.95127779690665,140.2351351936304 187.02539424836868,139.7079664873454 185.13542473627604,132.13900335886865 184.24602731887717,130.3313994107666 180.82431781006744,126.3018235327254 177.79789604237885,123.94801919203746 174.46265572693665,122.32856749671919 170.54683654182008,121.57532462038216 167.9280552570708,121.5 164.90163348938222,121.83896031535551 163.99988333007786,122.19675043015013 164.09870526532177,122.93115744131501 163.61694833086221,125.02136129964492 162.9746057516022,125.64276427288132 161.86285897978814,128.14716481844516 163.99988333007786,127.46928856580053 165.81573639065027,127.63875808839657 167.03865783964284,128.12833498873806 166.7668975176348,128.84386586070468" stroke="#4dd2ff" stroke-linecap="round" stroke-linejoin="round" stroke-width="0.5"><title>2022-05-16 5.4km</title></polyline><polyline fill="none" points="27.24438342486974,162.67369229413816 27.857713429853902,162.72506128719033 29.19221168247168,162.29356014257064 29.50898652021715,162.57095415328513 30.216674987532315,162.7045136961533 30.573889166276786,162.92026299049394 31.17373939092795,162.89971547784444 31.38267598602397,163.17710620233265 32.467798302546726,162.550406500377 33.08112830755999,163.47504271284924 32.94633050427365,164.81059885478317 33.48552171741903,165.95093074027682 34.19321018474875,166.91659732903645 34.99525711433671,167.58433484430861 37.3339990015229,170.56336529452528 38.19670494260208,173.19298599254398 38.5,173.1724426045439 38.486520219696104,172.87456255188954 37.52271592612669,170.31683142592738 37.259860209713224,169.21768680939203 37.3070394408569,169.00196406636314 37.94058911634784,168.69378714160484 37.96080878684006,168.49860746261766 36.97678482277843,164.481849808064 36.37019470795349,163.29011680710028 34.77284073889314,161.39972476659023 32.616075886180624,159.6736536421231 31.38267598602397,159.05718555669955 30.169495756388642,158.73867413559128 27.985771342995577,158.53318184385716 26.024463305046083,158.70785034445726 25.882925611600513,158.3174140492556 24.95282076887088,157.63928077067249 24.03619570644514,157.12553745434343 22.715177234174917,156.80701400745238 19.614827758356114,157.00223829080278 18.86669995007105,157.1974618291897 17.84223664503952,157.13581237124163 15.800049925135681,158.70785034445726 14.687968047932372,159.201028774336 11.998751872190041,159.1085581808511 11.634797803300899,158.92361649247687 11.580878681998001,159.01608742022654 11.5,159.2113032744237 11.890913629584247,159.31404816163922 14.58686969547125,159.44761620658755 15.74613080380368,158.99553833960817 18.125312031974318,157.14608728605162 19.45307039441832,157.23856142656223 20.437094358479953,157.0844377661706 22.560159760381794,157.1049876143843 23.36894658015808,157.20773673163785 24.299051422887715,157.63928077067249 24.59560659012641,157.3618600205773 23.19370943585818,156.89948876083508 22.357963055430446,156.80701400745238 19.520469296054216,156.98168840129438 18.529705441833357,157.23856142656223 19.978781827288913,157.1974618291897 20.82126809786132,157.00223829080278 22.566899650526466,157.0741628389842 23.490264603111427,157.26938610291472 24.37993010484206,157.6495555843976 24.784323514730204,157.35158514909926 25.45157264106092,158.0399969762475 25.916625062411185,158.26604063071136 25.943584623091738,158.66675192736875 25.377433849251247,158.89279281276686 25.43809286071337,159.201028774336 26.75911133302725,159.8277695028919 27.985771342995577,159.73530004211352 28.0329505741538,161.15314674247566 27.72965551674133,161.33808037196286 27.71617573640833,161.65657561141052" stroke="#4dd2ff" stroke-linecap="round" stroke-linejoin="round" stroke-width="0.5"><title>2022-05-14 9.9km</title></polyline><polyline fill="none" points="53.121181262715254,161.85063988598267 53.99185336049413,161.9065215106748 55.81568228104152,161.26388011698873 56.658859470451716,161.78078779202042 57.1812627291074,161.82269905683643 57.79531568224775,162.1859289608692 58.363543788174866,162.1300475605858 58.91344195519923,162.49327586010259 60.26985743379919,161.5852015558121 61.13136456211214,162.91238308015818 60.93890020364779,164.60275657587408 61.4338085539639,165.77621485251075 62.04786150713335,166.83789814523698 63.65173116087681,168.33260900665118 66.91446028510109,172.5232159167208 68.18839103868231,176.16883864521878 68.4633401221945,176.07106581552216 68.5,175.54029662862376 67.43686354375677,172.95623091082598 66.85947046839283,170.52572476842033 66.94195519346977,170.30222568841054 67.8309572301223,169.8552253748021 66.80448065171367,165.38506429260087 65.65885947045172,162.63297854728444 63.21181262729806,159.74107572561843 60.98472505089012,157.96675700737615 58.62016293275519,156.8211098569118 56.2647657841153,156.33210837727165 54.3309572301514,156.1784214880572 51.5906313645246,156.4299089481392 51.36150712828385,155.92693311888434 50.12423625253723,155.0187731058686 48.8136456211796,154.27826462882513 47.787169042770984,153.95690944101443 46.52240325862658,153.83116135477758 42.18737270872225,154.16648907967829 41.5,154.41798381266926 46.78818737270194,154.18046103313463 48.51120162929874,154.59961833220586 49.07026476575993,155.06068844436595 48.52036659873556,156.1784214880572 48.30040733196074,158.13441110557324 50.06008146639215,158.83296549932493 49.09775967409951,161.02638070840112 50.573319755581906,160.57932079879174 52.36965376781882,160.76093923351436 52.892057026474504,160.95652778690055 52.80040733196074,161.78078779202042" stroke="#4dd2ff" stroke-linecap="round" stroke-linejoin="round" stroke-width="0.5"><title>2022-05-12 7.0km</title></polyline><polyline fill="none" points="81.27977099234704,160.35114322208392 82.43396946566645,160.35114322208392 84.340458015271,159.69137454557494 84.79389312976855,160.09980342997733 86.39122137404047,160.64960817641258 87.34961832061526,160.68102547380113 87.79274809159688,161.1051577535327 89.42099236641661,160.11551219062676 90.23511450379738,161.43503682586015 90.11145038169343,163.7441513863232 90.80190839694114,165.1421536104317 91.8324427480984,166.60296070558252 93.15152671755641,167.71818217102555 95.16106870229123,170.16847209278785 95.36717557252268,170.7653259638828 96.35648854961619,171.78624966227653 96.99541984731331,172.9013972488101 97.9229007633403,176.07398373333126 98.5,175.9169280229762 96.78931297708186,170.74961934140447 96.69656488546752,169.9956977540569 97.7580152671726,169.3360104056701 96.6347328244301,164.40388588576752 95.88244274808676,162.3775407967114 95.30534351142705,161.27795172680635 92.9866412213596,158.48178418714087 91.12137404578971,156.8008938056082 89.01908396944054,155.40274251588562 87.62786259542918,154.7429321048985 86.1232824427425,154.3501851705514 82.65038167938474,153.92601626667602 79.33206106870784,154.24021567554882 78.45610687020235,154.57012369672884 77.04427480918821,154.49157429404295 72.09770992366248,155.10425754309108 72.01526717559318,155.74835527204414 71.71641221374739,155.7169359936961 71.54122137403465,155.95258027392265 71.5,156.84802206541644 71.70610687023145,157.09937230492505 73.26221374046872,157.03653482079972 75.95190839696443,157.47639615002845 77.09580152670969,157.9948009702057 76.77633587786113,159.45574152696645 78.53854961832985,158.8430923569831 79.77519083971856,158.95305538179673 81.03244274808094,159.33007029347937 80.82633587784949,160.11551219062676" stroke="#4dd2ff" stroke-linecap="round" stroke-linejoin="round" stroke-width="0.5"><title>2022-05-10 6.0km</title></polyline><polyline fill="none" points="117.14504864056653,162.76269890852564 117.81853330008744,162.7524328082509 119.13856323272921,162.28018996819083 120.58655525067297,162.92695623224427 121.18595659766288,162.92695623224427 121.3677974557213,163.16307521058116 122.36455475180992,162.5368442267427 122.5329259167047,162.61897331737782 123.04477425791265,163.39919309847755 122.87640309304697,164.66189199093787 123.27375904214568,165.63712588965427 123.89336492891016,166.5815451992712 124.99114492394438,167.59780301461433 126.84322773761232,169.97925735507306 127.41568969818763,170.87227413846995 128.08917435770854,173.16119996267662 128.5,173.1406719352708 128.27101521576697,172.13478849732928 127.7254926415626,170.9030675424874 127.2742579196929,169.322315511763 127.2607882264856,168.98357657579618 127.95447742579563,168.59351077874817 126.90384135695058,164.31285639132693 126.39199301572808,163.26573529581947 125.11237216263544,161.66421449100744 123.6711149912735,160.35010866883385 122.85619855325785,159.80597683831365 121.40147168868862,159.05650275978041 120.0545023696759,158.72796271365587 118.07445747069141,158.54315800988843 116.05400349215779,158.6971619760916 115.80481416813564,158.28648370197334 114.15477675230068,157.19817032062565 112.37004240458191,156.78748000484848 109.24507358443225,157.0133600868321 108.75342978298431,157.1776358832176 107.770142180103,157.14683421160953 106.05275629834796,158.49182325140282 104.6519082065206,159.17970473278547 102.04552257420437,159.10783695128703 101.63469693191291,158.9230336206674 101.5,159.16943791302765 103.69555999002478,159.43637455627686 104.941506610121,159.3439735682914 106.27500623595552,158.63556044526922 107.94524819156504,157.1776358832176 110.08692940881883,157.187903102953 110.6324519830232,156.9825583162201 111.31267148916959,157.1262997535232 113.15128460963024,157.1776358832176 114.3635569967737,157.66019298235187 114.74070840608329,157.34191115172507 115.3872536792187,157.98873989034837 115.87889748068119,158.19408063565788 115.87216263408482,158.676628140729 115.60276877027354,158.85116547835787 116.2493140433944,159.3542403529682 117.69730606135272,159.5082418759339 119.52244948864973,159.26183921649135 120.19593414817064,159.55957561386094 121.15228236466646,160.391174987024 121.63045647295075,160.20637629528574 123.26702419556386,161.53075215943318 124.28398603142705,163.16307521058116 124.14255425293231,163.00908469620117 123.06497879770177,163.56344837736833 122.84272886006511,164.54896896944774 122.95048640559253,164.94933128390403 123.89336492891016,166.5815451992712 124.86991768520966,167.45409101439873 127.13956098779454,170.30772511163377 128.2238712896069,173.2125199951479 128.41918184085807,173.13040791848834 128.43938638063264,172.81222237608745 127.39548515839851,170.26666675747038 127.1732352207473,169.1683435463383 127.23384884011466,168.99384142499548 127.92753803942469,168.6243055551131 127.05874282863806,164.94933128390403 126.52668994762644,163.57371431479623 124.54664504864195,161.19196159924832 123.11212272386183,160.04211023078096 121.31391868297942,159.05650275978041 118.78161636317964,158.5739588402248 116.00685956596863,158.66636121997362 115.8519580942957,158.27621670286317 114.73397355948691,157.42404858805457 113.42067847344151,156.9517565270835 112.51820902968757,156.80801459902068 109.67610376652738,156.99282557514016 108.5311798453331,157.2187047498337 110.92878523323452,157.06469632989683 110.89511100025265,158.46102237157174 110.69980044898693,159.53904212484485 111.0971563981002,159.67250965580024 110.81429284109618,159.75464334781282 110.86143676728534,160.5143737437793 113.48129209280887,160.8018363549745 114.3366176103882,161.12009664635116" stroke="#4dd2ff" stroke-linecap="round" stroke-linejoin="round" stroke-width="0.5"><title>2022-05-08 15.0km</title></polyline><polyline fill="none" points="141.2191780821595,160.24003738549072 141.9691780821886,160.27135915114195 144.2191780821595,159.55095535900182 146.41780821915017,160.50627199248265 147.2089041095751,160.47495032121515 147.671232876688,160.9134525748159 148.85273972601863,160.13041110665654 149.39726027398137,160.06776744962553 150.2191780821595,161.4145949888043 149.96232876711292,163.09026655183698 150.49657534246217,164.53100210345292 151.86301369860303,166.53545947129896 153.11643835616997,167.52200941651972 156.6712328767171,172.23535360490496 158.04794520547148,176.18119018500875 158.5,176.07158630846243 158.4589041095751,175.5392224317693 157.30821917805588,172.72076490332984 156.5993150684808,169.808251801398 157.66780821917928,169.21320886429748 156.50684931504657,163.98289932346233 155.900684931461,162.21328405575332 155.1404109588766,160.9134525748159 153.05479452054715,158.43901470526907 150.52739726024447,156.21508583823015 147.3219178081781,154.4766184077307 142.29794520544237,153.81880981498398 132.12671232875437,154.93081634088594 132.04452054793364,155.5259682494434 131.5205479451688,155.74523359727755 131.5,156.35604095851886" stroke="#4dd2ff" stroke-linecap="round" stroke-linejoin="round" stroke-width="0.5"><title>2022-05-05 5.1km</title></polyline><polyline fill="none" points="173.01818181818817,161.98001451849996 174.2272727272648,162.0631595356972 175.79090909089427,161.49499992156052 177.8272727272706,162.2848790919379 178.57272727272357,162.2848790919379 178.81818181820563,162.58974231862157 180.23636363635887,161.75829398283167 180.35454545455286,161.84143926718752 181.0545454545354,163.04703463360056 180.86363636364695,164.39117935014656 181.30909090908244,165.8461518572949 182.14545454547624,167.13481617753132 183.70909090907662,168.61744320949583 185.2727272727061,170.5018577704068 186.96363636365277,173.06513322207684 187.8909090909001,176.05781005547033 188.5,176.05781005547033 187.00909090909408,171.0006647776063 186.97272727271775,170.30787629404585 187.6636363636353,170.11389427252652 187.7727272727061,169.8921998660844 186.68181818182347,165.02859965248717 185.51818181815906,162.67288660127815 183.64545454544714,160.35866666075162 180.89999999999418,158.0720857113156 178.57272727272357,156.89412050238388 175.35454545455286,156.31205968264112 171.68181818179437,156.49222188955537 171.37272727271193,155.9378751346012 169.42727272724733,154.55198876480063 167.9363636363414,154.05306285810366 166.3909090909292,153.94218994452604 162.53636363634723,154.2470900282533 161.51818181818817,154.55198876480063 161.5,154.6905786542302 164.76363636361202,154.4549756765373 164.47272727274685,157.6424771997772 164.93636363637052,157.79491923579917 164.6727272727294,157.80877758599308 164.62727272728807,158.97286906888985 168.18181818179437,159.36089519962843 169.39999999999418,159.77663506157114 169.52727272728225,159.98450405331823 169.11818181816489,160.89912017900133 169.18181818179437,161.12084347494238 170.79999999998836,160.677396170664 171.92727272724733,160.7466849998018 173.29999999998836,161.20398952728647 174.13636363638216,161.19013185883523 174.92727272727643,160.9129779058494" stroke="#4dd2ff" stroke-linecap="round" stroke-linejoin="round" stroke-width="0.5"><title>2022-05-04 7.1km</title></polyline><polyline fill="none" points="20.958729554957245,190.15573620855866 22.59166983643081,190.12442631281738 24.245150247239508,189.5451909743424 26.309433244576212,190.42186981435225 27.39806009887252,190.5471088438935 27.53157093952177,190.93847951469797 29.24667173830676,189.92091168430488 30.18124762264779,191.3298482208411 29.934766070742626,193.19273633101693 30.468809433252318,194.52334344464907 31.7422974515066,196.38615525496425 33.06713579306961,197.544519988689 36.32274629137828,201.6925768686342 36.81570939521771,202.52216176470392 37.88379612020799,206.1064931672372 38.5,206.0908414231817 38.345949030073825,205.13607909638085 37.05192088248441,202.24041694065818 36.610308101953706,200.37774499098305 36.57949790795101,199.7829328102016 37.51407379232114,199.3916065325102 37.64758463294129,199.14115668401791 35.973564092826564,192.55090595768706 35.069798402430024,190.76627666159766 34.063332065416034,189.46691559854662 30.253138075291645,186.0696885679572 27.552111068856902,184.61368880828377 24.409471281862352,183.92481923090236 21.051160136936232,183.89350683275552 18.422023583116243,184.3945036939258 16.8712438189541,184.37884759075678 12.085393685818417,184.9581213144411 12.05458349181572,185.55304660445836 11.869722327857744,185.78788428507687 11.571890452643856,185.6782934554576 11.5,186.17927884734672 11.571890452643856,186.97771766165533 11.992963103839429,187.49435018424265 13.67725370862172,188.52760495893745 16.41936097375583,189.29470949513052 16.994484594877576,190.62538313525147 17.015024724241812,191.98734322463133 19.46957017877139,192.66048712716292" stroke="#4dd2ff" stroke-linecap="round" stroke-linejoin="round" stroke-width="0.5"><title>2022-05-01 6.0km</title></polyline><polyline fill="none" points="47.64363885088824,189.2677146348069 47.569767441862496,189.06127354929777 49.23187414504355,189.23017992589303 50.36456908346736,188.81729713305685 50.4384404924931,189.3427840074146 50.426128590945154,188.81729713305685 51.411080711346585,188.44194755683566 52.17441860467079,188.9862039505606 53.3071135430946,189.1175757087185 54.119699042406864,189.58675905194832 55.2277701778512,189.53045717514033 55.486320109455846,190.0371728456521 57.22229822160443,188.948669128622 57.55471956223482,189.02373875751073 58.56429548567394,190.58141995038022 58.342681258538505,193.11494234540442 58.97058823533007,194.4848925153783 59.881668946676655,195.9861847113134 61.93775649793679,197.9002972901435 66.07455540358205,203.0982287976658 67.97058823533007,208.42721590174187 68.5,208.29587127963168 68.4384404924931,207.5453270414655 66.24692202464212,201.4844615070033 66.37004103968502,200.60250714418362 67.51504787965678,199.94572721289296 65.96374829002889,193.34014101260254 64.62175102601759,190.1685431266087 62.06087551297969,187.05314101800468 58.56429548567394,184.1440874641703 54.89534883722081,182.36107440133492 52.53146374828066,181.77924172508938 49.1580027359887,181.5727840982654 45.427496580028674,181.9481612622767 45.0088919288537,182.2109243800005 45.686046511662425,182.86782894234784 47.28659370724927,183.33704366003803 51.595759233954595,182.83029166316555 52.703830369369825,183.07428370835987 54.722982216160744,184.81974668493785 55.94186046512914,184.4068444082004 56.68057455541566,185.30771975111566 59.06908344733529,187.2032832603145 60.58344733246486,189.66182816831133 58.625854993151734,190.78785767835507 58.30574555401108,192.42057637233665 58.49042407661909,193.5278061542558 60.23871409028652,196.38026991715742 62.233242134097964,198.20054668723606 66.24692202464212,203.49228402024892 67.9213406292547,208.40845239561895 68.47537619702052,208.3146348083974 68.42612859100336,207.5453270414655 67.04719562243554,204.1678033943026 66.25923392613186,200.99657288788876 66.40697674421244,200.64003728656098 67.50273597810883,199.94572721289296 66.12380300959921,193.9406681393957 64.58481532151927,190.0371728456521 61.85157318742131,186.80915935976373 58.44117647060193,184.01270871513407 55.387824897421524,182.49245547210012 50.6231190150429,181.68539740577398 49.022571819397854,181.5915529922495 44.45485636117519,182.2672306662571 41.72161422710633,182.37984313703055 41.5,184.10655069756467 43.58071135432692,185.1388062857659" stroke="#4dd2ff" stroke-linecap="round" stroke-linejoin="round" stroke-width="0.5"><title>2022-04-30 10.1km</title></polyline><polyline fill="none" points="80.9011428571539,190.86965967351716 82.40285714287893,190.96373249154567 84.21314285715926,190.30522038508934 86.52742857142584,191.32434391084098 87.44285714285797,191.2302715272599 87.71028571430361,191.60656038170418 89.3765714285837,190.71287139152992 90.26114285716903,192.170990263352 89.98342857146054,193.8956118452188 90.69314285714063,195.62019533774583 91.86571428569732,197.28203066841525 93.11028571426868,198.3010631428624 96.64857142858091,202.83167730643618 97.89314285712317,206.67230352715706 98.05771428570733,206.97014011793362 98.5,206.8604109798107 98.35599999997066,205.63770443864632 96.64857142858091,200.9975156955552 96.71028571430361,200.5115340323464 97.59485714283073,200.16664198494254 97.70800000001327,199.9314874428892 96.45314285712084,194.4757032710986 95.31142857141094,191.95149023860722 92.38000000000466,188.53348166994692 89.97314285713946,186.5892265505463 87.66914285713574,185.4289222024454 84.17200000002049,184.67628313532623 81.826857142878,184.6135628855409 79.37885714287404,184.8487635623096 78.37085714287241,185.1780433194799 77.26000000000931,185.11532347282628 72.44628571430803,185.67980027927842 72.15828571427846,185.75819951297308 71.98342857143143,186.32267167180544 71.5,186.2599527446 71.60285714286147,185.00556361989584 75.59371428572922,184.69196318987088 75.64514285718906,183.547310931237 75.99485714288312,183.02985988207365 76.66342857145355,183.42186856758053 76.07714285716065,184.55084258540592 75.84057142859092,186.79306202028238 78.02114285717835,187.49864222958422 76.66342857145355,190.39929388318706 77.03371428573155,191.59088171561598 76.97200000000885,192.7197376256736 78.81314285716508,193.2057677833509 80.2840000000142,194.1778190231489 81.49771428570966,192.6413453814166 80.36628571432084,192.0455617533371 80.58228571430664,191.089162739343 80.86000000001513,190.9950900723852" stroke="#4dd2ff" stroke-linecap="round" stroke-linejoin="round" stroke-width="0.5"><title>2022-04-28 7.1km</title></polyline><polyline fill="none" points="117.018943170493,192.67204999581736 117.11316051847825,192.77463434618403 117.26794616151892,192.6515331010196 118.09571286142454,192.67204999581736 119.13883349951357,192.29248610834475 119.71086739783641,192.67204999581736 120.13484546363179,192.692566882346 120.57901296112686,192.9387688783463 121.21161515454878,192.9387688783463 121.44042871386046,193.21574470565974 122.48354935196403,192.55920697248803 123.02193419744435,193.55426867761707 122.87387836491689,194.6621496305379 123.2372881356132,195.64691253192723 123.72856430709362,196.4572760998053 124.89955134598131,197.55483664153144 127.20787637089961,200.49864428456567 128.0221834496624,203.01151662489428 128.2173479561461,203.23715625780824 128.5,203.13459291183972 128.41924227320123,202.65254242809897 127.65204386842379,200.91917438844393 127.19441674978589,199.30883304640884 127.22806580261386,198.898546884775 127.9010468594497,198.6113446113195 126.89830508474552,194.42621403352678 126.31954137589491,193.31832796435629 124.81879361915344,191.50257384222277 123.62088733799465,190.43565996433244 122.38260219343647,189.61494181916714 121.29237288137665,189.06094961744748 119.56954137590947,188.64032189644786 117.79287138587097,188.54798851854503 115.98928215356136,188.69161814543259 115.84795613163442,188.32228400323584 114.11166500500985,187.19374646862707 112.57726819544041,186.7936226289239 109.1854436690046,187.03985305501556 108.8018444666086,187.19374646862707 108.00772681956005,187.0603722036176 107.56355932205042,187.25530370427805 105.64556331008498,188.74291434288534 104.6226321037102,189.18405951479508 102.00473579265235,189.0814679542782 101.72208374876936,188.94809861761314 101.5,189.24561435221767 104.51495513461123,189.43027841944786 105.1273678963189,189.2763917431039 106.09646061815147,188.7531735761877 108.02791625127429,187.0603722036176 108.52592223332613,187.12192959996173 109.74401794618461,186.84492073220827 112.90029910270823,186.76284374219176 114.77118644070288,187.3886774603816 115.90852442673349,188.41461778913072 115.87487537390552,188.7121366305728 115.30957128616865,188.9583578097263 115.38359920241055,189.46105569908468 115.15478564309888,190.4254010689001 114.6836989033036,191.0101548210987 114.02417746762512,192.51817308401223 114.38758723830688,193.09264452335265 114.37412761716405,193.92356499796733 115.25573280161188,194.1184703130566 116.5613160518551,194.83653611067348 117.30832502493286,193.75943362957696 118.66774675974739,192.97980242900303 119.55608175475209,192.66179154943893 118.63409770689032,191.90266080211586 117.96111665006902,192.1899007898428 117.03240279163583,192.22067640702517 116.62861415754014,193.27729468559482 116.80358923232416,193.5132355883834 117.3554336989182,193.77995007948994 118.18993020938069,193.22600304080697 118.02168494518264,192.86696008541549 117.07278165506432,192.83618485755142" stroke="#4dd2ff" stroke-linecap="round" stroke-linejoin="round" stroke-width="0.5"><title>2022-04-27 10.1km</title></polyline><polyline fill="none" points="136.90490757118096,189.2986982525763 138.29228377935942,189.1854046026201 140.99271247020806,188.3734627833619 141.61207684886176,188.86440518641757 142.86319289371022,189.10987542679504 143.64359201077605,189.63857838358672 144.7212860296131,189.67634276676836 145.05574279406574,190.05398576437437 146.86428677965887,188.90216988050088 147.48365115831257,189.26093371774186 148.15256468721782,190.60156541712786 147.96675537366536,193.05619364386075 148.6108943274303,194.60446465029236 150.28317814978072,196.8890618954465 151.5962306324509,197.96525789671432 155.8202956947789,203.4404503509504 157.43064307922032,208.5 158.13671847086516,208.34897260829894 158.09955660815467,207.78261772939732 156.50159651125432,203.70476192139176 155.9565558580507,201.5524889592998 155.88223213260062,200.75953387295158 157.14573546504835,200.06097266229335 155.60971180602792,193.30165294269682 154.1727864475688,190.24280669446307 151.4599704691791,186.97615114587825 149.23025870605488,184.99344359507813 147.89243164821528,183.99263247854833 144.1762453764386,182.1798154107164 139.1965557721851,181.5 134.87339240926667,181.83990831972915 134.0062822792097,182.1798154107164 134.13015515494044,183.12399532782 133.68421280229813,184.80461212427326 132.91620097277337,185.729882708285 132.37116031956975,187.29715700777888 131.86328152910573,187.97693050980888 132.65606793377083,187.9958130369123" stroke="#4dd2ff" stroke-linecap="round" stroke-linejoin="round" stroke-width="0.5"><title>2022-04-25 5.0km</title></polyline><polyline fill="none" points="177.00575287643005,192.76169568800105 178.1875937969162,192.6690465540196 179.14657328664907,192.24697615825426 179.55852926464286,192.55580849621765 180.18659329666116,192.6587521954716 180.5580290145008,192.874933291052 181.15232616310823,192.864638973846 181.42921460731304,193.13229054963813 182.50300150075054,192.48374778376092 183.05677838920383,193.37935230249786 182.91495747872978,194.59405527055787 183.26613306654326,195.55138563603032 183.97523761881166,196.63222101671636 184.97473736868415,197.51745968870455 187.27088544273283,200.47157581272768 188.20960480239592,203.2608463137367 188.5,203.15792389909257 188.4797398699302,202.75652450806592 188.06103051526588,201.43908904107593 187.64232116058702,200.69801671535606 187.27763881941792,199.38052835579583 187.24387193597795,198.96880630079613 187.96648324164562,198.618839954539 187.0615307653934,194.78964034658202 186.35242621311045,193.24552733415476 185.5150075037527,192.17491501171025 184.50200100052461,191.08369098385447 182.95547773886938,189.82772514417593 181.41570785392832,189.04530464013442 179.11280640319455,188.54084298362068 177.6135567783931,188.48936702528226 176.06028014009644,188.70556570298868 175.86443221611262,188.2319864582314 174.10180090046197,187.14067849873754 172.44047023513122,186.73915368625967 169.60405202601396,186.91417770912813 168.82741370686563,187.14067849873754 167.78739369685354,187.08920113443673 166.2476238119125,188.33493884010386 165.04552276138566,189.01441937523123 164.2216108054272,189.1791405729673 162.00650325164315,189.0555997242882 161.62831415708933,188.90117324481616 161.5,189.15855045218996 163.84342171087337,189.39533634175677 164.91720860431087,189.30268112393605 165.97073536769312,188.76733658630837 167.79414707353862,187.2127467219252 168.09804902452743,187.08920113443673 168.92871435720008,187.17156489252375 170.7386193096463,186.97595075100617 172.52826413208095,187.01713273756468 173.45347673837387,187.16126942999472 174.29764882443123,187.562790936252 174.5745372686506,187.28481484379517 173.18334167082503,186.8318135375266 171.31940970485448,186.80092693903862 169.15157578789513,186.99654174842726 168.47623811908124,187.18186035297185 169.90120060031768,187.12008755921852 170.8061530765408,186.9244732212901 171.33966983492428,187.05831469105397 172.60930465233105,186.99654174842726 173.79114557278808,187.34658743905675 174.16258129065682,187.7172214474449 173.77763881943247,188.5820237130938 173.61555777890317,189.89978959002474 174.97298649327422,190.33217413781313 174.27063531767635,192.04108689939676 174.94597298649023,191.81460775963205 176.14132066033198,191.84549133759356 177.01250625314424,192.0719703409195 176.87068534267019,192.55580849621765" stroke="#4dd2ff" stroke-linecap="round" stroke-linejoin="round" stroke-width="0.5"><title>2022-04-22 10.1km</title></polyline><polyline fill="none" points="25.52986348126433,222.47824975055846 26.604948805470485,222.46654417956597 26.681740614323644,222.24413788385573 27.818259385647252,221.92808537247038 28.317406143352855,222.27925472378047 29.031569965882227,222.38460511670928 29.52303754267632,222.6772440980276 30.098976109235082,222.6304219597514 30.375426621176302,222.95817613810868 31.65017064847052,222.23243226585328 32.318259385676356,223.29763388028005 32.180034129705746,224.64373994928974 32.571672354941256,225.73230734373647 33.41638225255883,226.93790127435204 34.46075085326447,227.87426770837556 37.11006825938239,231.2801737732152 38.131399317411706,234.32308306639607 38.5,234.32308306639607 38.32337883961736,233.25808287830296 37.66296928329393,231.80684251559796 37.1177474402939,229.93422092765468 37.10238907849998,229.54798524307625 37.77815699658822,229.24367653793524 37.90102389079402,229.04470460270386 37.0025597269705,225.18217367409306 36.51877133108792,223.8594906274193 36.08105802049977,223.05181985062882 34.414675767940935,221.02674102119272 32.1262798634998,219.0952419100904 30.367747440293897,218.2172666119659 28.501706484647002,217.79583377188828 26.328498293529265,217.64364894196115 24.324232081940863,217.85436629298056 24.063139931764454,217.32757148723613 22.1279863481177,216.09836509297747 20.26194539249991,215.67691693360393 14.78668941979413,216.09836509297747 12.95904436861747,217.63194240013763 11.523037542647216,218.29921153264877 11.5,218.6386964053745 12.889931740617612,217.95972468285618 15.170648464176338,216.00471020975965 17.29778156997054,216.08665824078707 18.21160409555887,215.85252070362912 18.994880546088098,216.00471020975965 20.699658703088062,215.96958958977484 21.59812286691158,216.25055395721938 22.166382252587937,216.66029123228145 21.73634812288219,217.71388814360762 21.59812286691158,219.31766021969452 23.126279863499803,219.7742004069696 22.304607508529443,221.6822655678734 23.579351535852766,221.2959752091847 26.029010238911724,221.79932274694147 27.326791808882263,221.37791580219346" stroke="#4dd2ff" stroke-linecap="round" stroke-linejoin="round" stroke-width="0.5"><title>2022-04-21 8.1km</title></polyline><polyline fill="none" points="55.2457337884116,222.46655371949964 56.505119453941006,222.38461472246127 56.819965870294254,222.25585320873506 56.95051194538246,221.99832932798017 56.866040955646895,222.39632030053326 57.80290102388244,221.92809534491607 59.45392491470557,222.61872583703735 60.16040955632343,222.60702030364337 60.3754266211472,222.91136340814774 61.58873720135307,222.16220829281883 62.27218430035282,223.15717783267974 62.14931740614702,224.69056822432685 62.6254266211763,225.80254366093868 63.19368600685266,226.69210873970587 64.56058020479395,228.00302201050727 67.17918088738224,231.36210273074175 68.16979522185284,234.36989579635338 68.5,234.27627033643512 68.38481228670571,233.7028111139516 67.57081911264686,231.73662238702673 67.08703071673517,229.67673450511938 67.17150170647074,229.46606005127614 67.84726962458808,229.1968638079743 67.58617747438257,227.59336477981924 66.8796928327647,224.7725039803263 66.06569965870585,223.06353436459176 64.30716723549995,220.92139895540095 62.118600682588294,219.11866663274486 60.45221843002946,218.2641052105173 58.92406143344124,217.83096655500412 56.428327645058744,217.6202492885932 54.18600682594115,217.84267304746027 54.17064846417634,217.7139015010289 54.06313993173535,217.33929174855803 52.01279863479431,216.03984551082613 50.139078498323215,215.630104203643 46.61433447099989,215.86424244614682 45.78498293514713,216.08667290541416 45.20904436861747,215.9227768598139 44.86348122867639,216.00472494021597 42.966723549499875,217.51489036978455 41.515358361793915,218.21727956509858 41.5,218.56847098903745 42.88225255973521,217.87779251073516 45.14761092152912,216.00472494021597 46.1228668942058,216.13350026237094 48.18856655291165,215.91106998176474 50.18515358361765,215.91106998176474 51.36006825938239,216.12179342667878 52.18941979520605,216.70713233221977 51.71331058020587,217.7021949827249" stroke="#4dd2ff" stroke-linecap="round" stroke-linejoin="round" stroke-width="0.5"><title>2022-04-19 7.2km</title></polyline><polyline fill="none" points="75.0375152604247,218.30025505603408 75.07653282466345,218.08217834392417 76.98839347314788,217.96322720709577 78.91325997633976,217.24951737641095 81.87859485967783,218.55798145832523 83.06212764204247,218.47868109847332 83.32224473706447,218.99413229891798 85.2861288045533,217.72532450340805 85.7283278660907,218.08217834392417 86.53469086068799,219.54923058227723 86.26156791092944,221.98766107604024 86.92486650325009,223.63307201512362 87.88729975483147,225.15951306728675 90.12430677207885,227.28063223356003 94.67635593510931,233.16798593242856 96.35411119801574,238.40089455773705 96.5491990193259,238.40089455773705 96.90035709759104,238.24232564333943 96.84833367861575,237.19180015384336 95.0925432871154,232.9499420549182 94.53329153280356,230.43249150842894 95.8989062817418,229.42152873846499 94.44225054956041,223.05817251437838 92.95958310787682,219.2518568900341 90.0332657888066,215.78243096662482 86.13150936341844,212.4516673786202 84.7919063240115,211.81722347876348 83.99854918417986,211.5 83.86849063666887,213.06628101872047 84.47976580998511,213.85932522335497 87.04191919602454,215.98068716075068 88.62863347568782,218.20112933750352 89.85118382232031,220.22327430228324 90.4234414313687,222.44362107059715 94.15612174503622,221.90836347072036 94.8844496110978,224.02955247912905 95.96393555548275,229.48099742325576 94.75439106358681,230.35320068483998 95.7168243152264,234.05997859954368 97.18648590211524,238.16304109067278 96.48416974552674,238.5 96.0029531197215,237.8459022432653 94.66335008031456,233.94104670947127 93.85698708574637,232.375096797281 90.33240044809645,227.7563910239478 87.74423535258393,225.2388080615492 86.0924917991506,222.36432383152714 86.00145081590745,221.59117241269269 86.39162645844044,219.80695372440096 88.47256321864552,218.53815637429943 89.825172112789,220.2034495525877 90.5014765598753,222.48326966632158 93.85698708574637,221.67047027274384 92.64744259385043,218.97430730253836 89.17487937520491,215.0092280054887 86.0924917991506,212.51114628523646 84.01155503891641,211.5198264972496 83.93351991038071,213.3041949489707 85.1040468380379,214.4541041965931 84.01155503891641,215.3660916630397 82.65894614477293,215.0092280054887 82.19073537370423,215.32644020922453 81.46240750764264,216.21859406828298 81.64448947415804,217.9434020036715 78.38001993155922,218.47868109847332 77.66469792017597,219.19238204408612 75.6357845790044,220.3620474380732 74.1271054278186,222.28502652872703 72.81351409791387,221.57134793775185 74.73838060113485,216.9323113511491 76.42914171880693,216.9521367576017 78.13290869124467,216.2978962433408 78.88724826680846,217.24951737641095 77.24851056816988,218.2407796368425 74.68635718213045,218.32008018775377" stroke="#4dd2ff" stroke-linecap="round" stroke-linejoin="round" stroke-width="0.5"><title>2022-04-10 10.4km</title></polyline><polyline fill="none" points="103.83022486077971,218.35084018868656 103.97477489203447,218.13049885035434 105.59110705921194,218.23065406445676 107.9564712063293,217.32925351746235 108.75806683397968,217.93018812041555 110.9000354783202,218.65130486576527 112.09585846381378,218.53111910351436 112.27983123081503,219.09198475509038 114.38237713937997,217.89012592618383 115.57820012484444,219.51263192448823 115.3548046220676,222.0565079605076 115.98556839462253,223.67894619907747 117.41792779485695,225.88221514147153 119.4547691437474,227.74494092480745 123.85697463981342,233.4330495669783 125.47330680701998,238.47997303446755 126.1697751392494,238.5 123.77812916820403,231.0697198622438 123.76498825629824,230.44883582370676 125.15792492075707,229.74783307160396 123.48902910581091,222.21674994853674 122.14865608909167,219.47257036571682 119.29707820064505,215.96712168193335 115.21025459087105,212.50161418764037 113.08142685843632,211.5 113.01572229882004,213.44312235416874 116.16954116168199,215.96712168193335 117.73330968111986,218.71139769255387 115.69646833222941,219.77303166424826 114.46122261096025,217.97025029864017 112.4375221739756,219.1520773164375 110.01959437911864,218.2106230296995 108.96832142482162,218.13049885035434 107.62794840816059,218.51108812908933 105.97219350514933,219.69290873980935" stroke="#4dd2ff" stroke-linecap="round" stroke-linejoin="round" stroke-width="0.5"><title>2022-04-09 5.2km</title></polyline><polyline fill="none" points="133.81535157805774,218.33587961900776 135.28822709037922,218.21560425768257 135.32767911304836,218.015145000114 138.04986867605476,217.23335004969704 138.79945710644824,217.93496118443727 140.00931913449313,218.09532875144214 140.91671565544675,218.5764299069342 142.04767363818246,218.5764299069342 142.3764404935937,219.05752874397876 144.38849364887574,217.77459335976164 144.98027398862178,218.31583373555623 145.6509583737643,219.57871653450275 145.41424623780767,222.04429881557007 146.0586292744847,223.7681657039575 147.68931287745363,226.07329003035557 149.51725659365184,227.71691139406175 153.87012975962716,233.4292874016537 155.57971740790526,238.5 156.18464842191315,238.39979078290344 156.06629235393484,237.2373565141097 154.73807425799896,234.13078473016503 153.791225714318,230.54307510985382 154.00163650180912,230.18229270686425 155.14574515871936,229.64111665801465 154.44875942519866,225.8928909157039 152.97588391284808,220.78144720534328 152.10793941447628,219.07757447852782 150.56931053104927,217.23335004969704 146.84766972754733,213.64503314968897 145.34849286676035,212.5023576757958 143.13917959821993,211.5 142.96822083339794,212.84315699284343 143.20493296929635,213.58489266136166 146.01917725181556,215.87020574878989 147.80766894543194,218.5764299069342 145.80876646432444,219.67894464386336 144.3490416262066,217.91491522046272 142.54739925841568,219.01743726277346 139.86466171804932,218.11537467924063 137.45808833630872,218.47620069074037" stroke="#4dd2ff" stroke-linecap="round" stroke-linejoin="round" stroke-width="0.5"><title>2022-04-07 5.0km</title></polyline><polyline fill="none" points="163.81050450686598,217.6497524219012 163.6922362045152,217.89012592524523 164.02075926656835,218.0904367355397 165.55824719689554,218.0904367355397 168.22585446070298,217.30922230073338 169.02745073207188,217.93018811945512 170.43352943760692,218.1505299001874 170.94602541442146,218.4910571495493 172.1549902826955,218.5511500728826 172.40466780986753,219.0318921564467 174.48093356197933,217.78997036921646 175.11169784108642,218.310778162333 175.82130765507463,219.7329702089046 175.59791197290178,222.2968708447297 176.7411722287943,224.60031912942213 177.88443248471594,226.1025393581367 179.4482022600423,227.34435766900424 184.08694789608126,233.41302158351027 185.70328136134776,238.5 186.3077637955139,238.43991909125907 186.26834102804423,237.41853810810426 184.2183571209025,232.71203965823952 183.82412944643875,230.3887500653509 185.1382216946222,229.80791921357013 185.23020815197378,229.24711380331428 183.74528391152853,223.0780462229377 182.7728556478978,220.2337372299662 181.68215908194543,218.69136675326445 180.94626742295804,219.11201561183407 181.36677694236278,218.41093319544598 179.29051119025098,215.76680660721468 175.53220736052026,212.62180721408367 173.21940500370692,211.5 173.08799577888567,212.86219283301762 173.3376733060577,213.603378177977 176.1235488721577,215.74677507773595 178.05526447697775,218.33080917699408 176.82001776370453,219.31232396867563 175.8475895000738,219.69290873863065 174.6911883216817,217.9902813806184 174.20497418986633,218.07040567258082 173.81074651540257,217.62972127051762 173.17998223632458,215.50639640979352 174.4020880270691,214.36458982706245 176.14983071715687,215.82690117162565 178.04212355450727,218.41093319544598 176.08412610471714,219.6328165031082 175.8607304225152,219.6728779974219 174.52035632941988,217.87009482205758 172.56235887962976,219.0318921564467 172.10242659278447,218.65130486464477 170.9066026469518,218.5311191024157 168.08130431341124,217.46947191431536 166.64894376287702,218.1705609470664 164.75665092552663,218.2907471436847" stroke="#4dd2ff" stroke-linecap="round" stroke-linejoin="round" stroke-width="0.5"><title>2022-04-03 6.2km</title></polyline><polyline fill="none" points="36.598360655712895,259.3734271231733 37.17213114758488,256.99934175964154 36.9918032787391,256.02470412857656 38.5,255.27497767958994 38.5,254.55023781881027 33.97540983610088,251.65123616644996 31.401639344287105,250.9514670284334 25.877049180329777,251.0264424814959 20.893442622967996,251.80118618406414 18.713114754122216,251.62624447930284 14.811475409835111,254.77515753759508 11.647540983569343,256.3495841870754 11.5,257.02433236772777 14.254098360659555,255.84976836116402 18.795081967196893,251.85116948313953 19.713114754122216,251.55126938764442 23.66393442626577,251.6012527870771 26.024590163957328,251.0764260916767 31.680327868903987,251.57626108982367 34.5,252.77585689423722 35.106557377032004,252.35100136935944 34.565573770494666,251.80118618406414 30.106557377032004,250.87649153036182 22.385245901648887,251.426310801231 20.877049180329777,251.8761611250884 18.877049180329777,251.62624447930284 13.926229508186225,255.4998960886005 11.5,256.474537829934 11.729508196760435,257.02433236772777 14.696721311483998,255.54987790199084 18.696721311483998,251.97612764290534 19.909836065606214,251.5262776804302 20.64754098362755,251.65123616644996 23.31967213115422,251.0014506688094 30.713114754122216,250.6265728768194 35.12295081972843,251.92614439397585" stroke="#4dd2ff" stroke-linecap="round" stroke-linejoin="round" stroke-width="0.5"><title>2022-03-24 5.1km</title></polyline><polyline fill="none" points="57.5247747815738,267.86339030943054 56.77927041694056,267.69665831222665 55.71568419007235,268.5 55.23856139671989,268.25748265611765 55.0,267.6511858854137 54.69185819593258,264.9076320847671 54.33401610091096,264.0587775482127 53.906593598541804,263.75561289883626 51.43151910792221,263.69497982279427 50.16913171712076,262.4823080667411 62.38546323904302,246.15481635997276 56.530768962053116,241.5 47.614536760986084,259.6930890433068 53.11138894292526,265.30173987273884 53.44935092155356,265.0288962388513" stroke="#4dd2ff" stroke-linecap="round" stroke-linejoin="round" stroke-width="0.5"><title>2021-10-26 5.0km</title></polyline></svg>