<?xml version="1.0" encoding="utf-8" ?>
<svg baseProfile="full" height="300mm" version="1.1" viewBox="0,0,200,300" width="200mm" xmlns="http://www.w3.org/2000/svg" xmlns:ev="http://www.w3.org/2001/xml-events" xmlns:xlink="http://www.w3.org/1999/xlink"><defs /><rect fill="#222222" height="300" width="200" x="0" y="0" /><text fill="#FFFFFF" style="font-size:12px; font-family:Arial; font-weight:bold;" x="10" y="20">Over 5km Runs</text><text fill="#FFFFFF" style="font-size:4px; font-family:Arial" x="10" y="280">ATHLETE</text><text fill="#FFFFFF" style="font-size:9px; font-family:Arial" x="10" y="290">Wenz</text><text fill="#FFFFFF" style="font-size:4px; font-family:Arial" x="120" y="280">STATISTICS</text><text fill="#FFFFFF" style="font-size:3px; font-family:Arial" x="120" y="285">Number: 20</text><text fill="#FFFFFF" style="font-size:3px; font-family:Arial" x="120" y="290">Weekly: 2.5</text><text fill="#FFFFFF" style="font-size:3px; font-family:Arial" x="141" y="285">Total: 150.6 km</text><text fill="#FFFFFF" style="font-size:3px; font-family:Arial" x="141" y="290">Avg: 7.5 km</text><text fill="#FFFFFF" style="font-size:3px; font-family:Arial" x="167" y="285">Min: 5.0 km</text><text fill="#FFFFFF" style="font-size:3px; font-family:Arial" x="167" y="290">Max: 15.0 km</text><polyline fill="none" points="35.86657513730461,49.010538441209064 36.78657014478813,49.08759193078731 38.78831752372207,48.44034021385596 39.26347978031845,48.85643122992769 40.32501248130575,49.05677054422995 40.8608337494079,49.38039448574273 41.760609086370096,49.349573216772114 42.07401397902868,49.76565930349898 43.701697453827364,48.82560975056549 44.62169246133999,50.212564069275686 44.41949575638864,52.21589828217839 45.228282576135825,53.926396110415226 46.289815277123125,55.37489599356195 47.49288567149779,56.37650226646656 51.00099850227707,60.8450479417952 52.29505741389585,64.78947898881597 52.75,64.75866390681767 52.72978032953688,64.31184382783977 51.28407388916821,60.47524713889288 50.88979031456984,58.82653021409351 50.96055916129262,58.502946099542896 51.91088367451448,58.040680712409085 51.94121318028192,57.74791119393194 50.46517723417492,51.722774712099636 49.5552920619084,49.93517521065223 47.15926110834698,47.099587149888976 43.92411382927094,44.51048046318465 42.07401397902868,43.585778335051145 40.25424363458296,43.10801120338874 36.978657014493365,42.79977276578575 34.03669495758368,43.06177551668952 33.82438841738622,42.47612107388704 32.42923115330632,41.45892115600873 31.054293559660437,40.688306181516964 29.072765851247823,40.21052101118403 24.422241637541447,40.503357436209626 23.300049925106578,40.79619274378638 21.763354967552004,40.70371855686244 18.70007488768897,43.06177551668952 17.031952071905835,43.80154316150583 12.998127808299614,43.662837271280296 12.452196704951348,43.38542473872076 12.37131802298245,43.52413113033981 12.25,43.81695491163555 12.836370444361819,43.97107224246429 16.88030454321415,44.17142430988315 18.61919620569097,43.4933075094159 22.187968047976028,40.719130929079256 24.17960559160565,40.8578421398488 25.655641537712654,40.62665664926317 28.84023964055814,40.65748142157827 30.05341987023712,40.81160509745678 31.44857713431702,41.45892115600873 31.893409885204164,41.0427900308714 29.790564153779997,40.34923314125626 28.53694458314567,40.21052101118403 24.280703944095876,40.47253260193975 22.79455816274276,40.8578421398488 24.968172740918817,40.79619274378638 26.231902146799257,40.503357436209626 28.85034947580425,40.61124425847811 30.23539690466714,40.9040791543739 31.569895157270366,41.47433337660186 32.176485272095306,41.027377723650716 33.17735896157683,42.0599954643767 33.87493759361678,42.399060946074314 33.91537693463033,43.00012789105676 33.066150773869595,43.339189219150285 33.157139291084604,43.80154316150583 35.13866699952632,44.7416542543433 36.978657014493365,44.60295006317756 37.04942586121615,46.729720113711664 36.594483275112,47.007120557951566 36.57426360461977,47.48486341711396" stroke="#4dd2ff" stroke-linecap="round" stroke-linejoin="round" stroke-width="0.5"><title>2022-05-14 9.9km</title></polyline><polyline fill="none" points="74.68177189407288,47.77595982897765 75.9877800407412,47.85978226601583 78.72352342159138,46.89582017548673 79.98828920567757,47.67118168804154 80.7718940936611,47.73404858526192 81.69297352340072,48.278893441311084 82.54531568227685,48.19507134088781 83.3701629327843,48.739913790159335 85.40478615069878,47.377802333721775 86.69704684318276,49.36857462024636 86.40835030551534,51.90413486382022 87.15071283094585,53.66432227877522 88.07179226068547,55.25684721786092 90.47759674134431,57.49891350998223 95.37169042768073,63.78482387508848 97.28258655805257,69.25325796783 97.69501018332085,69.10659872328688 97.75,68.31044494293747 96.15529531566426,64.43434636624443 95.2892057026038,60.788587152637774 95.41293279020465,60.453338532621274 96.74643584521255,59.78283806220861 95.20672097761417,53.077596438910405 93.48828920567757,48.94946782093757 89.81771894093254,44.611613588429464 86.47708757634973,41.950135511069675 82.93024439917644,40.23166478537314 79.3971486761875,39.498162565912935 76.49643584521255,39.26763223209127 72.38594704680145,39.644863422217895 72.04226069245487,38.89039967833378 70.1863543788204,37.52815965881018 68.2204684317694,36.41739694324497 66.68075356417103,35.93536416153074 64.78360488795443,35.746742032170005 58.28105906312703,36.249733619522885 57.25,36.62697571900935 65.18228105903836,36.27069154970377 67.76680244397721,36.89942749831971 68.6053971486399,37.59103266655438 67.78054989813245,39.26763223209127 67.45061099794111,42.20161665836349 70.09012219961733,43.24944824899285 68.64663951119292,46.5395710626035 70.85997963338741,45.86898119819671 73.55448065174278,46.14140885027882 74.33808553972631,46.434791680352646 74.20061099797022,47.67118168804154" stroke="#4dd2ff" stroke-linecap="round" stroke-linejoin="round" stroke-width="0.5"><title>2022-05-12 7.0km</title></polyline><polyline fill="none" points="116.91965648857877,45.526714833118604 118.65095419849968,45.526714833118604 121.5106870229356,44.5370618183515 122.19083969469648,45.14970514495508 124.5868320610607,45.97441226460796 126.02442748093745,46.02153821069078 126.68912213743897,46.6577366302954 129.13148854963947,45.173268285929225 130.35267175571062,47.15255523879023 130.16717557254015,50.61622707948118 131.20286259544082,52.71323041564028 132.74866412219126,54.9044410583665 134.72729007637827,56.57727325653832 137.74160305340774,60.25270813918178 138.05076335876947,61.14798894582054 139.53473282442428,62.679374493403884 140.49312977096997,64.35209587321151 141.88435114506865,69.11097559999325 142.75,68.87539203446067 140.18396946566645,61.124429012103064 140.04484732821584,59.99354663108534 141.63702290074434,59.00401560850878 139.9520992366597,51.60582882865128 138.8236641221447,48.56631119507074 137.95801526715513,46.91692759020225 134.47996183205396,42.722676280704036 131.68206106871367,40.20134070840868 128.52862595417537,38.104113773821155 126.44179389311466,37.11439815734775 124.18492366408464,36.52527775581984 118.97557251912076,35.88902440000675 113.99809160310542,36.3603235133196 112.68416030536173,36.85518554509326 110.56641221378231,36.73736144105351 103.14656488550827,37.65638631463662 103.02290076337522,38.62253290805529 102.57461832062108,38.57540399053687 102.31183206109563,38.928870410883974 102.25,40.272033098124666 102.55916030536173,40.649058457383944 104.89332061068853,40.554802231199574 108.92786259541754,41.214594225042674 110.64370229007909,41.992201455301256 110.16450381680625,44.18361229044967 112.80782442749478,43.264638535467384 114.66278625960695,43.42958307269146 116.54866412217962,43.99510544021177 116.23950381681789,45.173268285929225" stroke="#4dd2ff" stroke-linecap="round" stroke-linejoin="round" stroke-width="0.5"><title>2022-05-10 6.0km</title></polyline><polyline fill="none" points="170.71757296085707,49.14404836278845 171.72779995013843,49.12864921238361 173.70784484909382,48.420284952291695 175.8798328760313,49.3904343483664 176.77893489648704,49.3904343483664 177.0516961835965,49.74461281587719 178.54683212772943,48.80526634011767 178.79938887504977,48.92845997607219 179.5671613868908,50.098789647723606 179.31460463957046,51.99283798640681 179.91063856321853,53.45568883448868 180.84004739337252,54.872317798908625 182.4867173859093,56.39670452192513 185.26484160640393,59.96888603261323 186.12353454728145,61.3084112077122 187.13376153656282,64.74179994401493 187.75,64.71100790290802 187.40652282367228,63.20218274599756 186.588238962373,61.354601313738385 185.91138687953935,58.98347326764633 185.89118233975023,58.475364863697905 186.93171613870072,57.89026616812771 185.35576203541132,51.469284586994036 184.5879895235994,49.8986029437292 182.66855824398226,47.4963217365148 180.5066724869248,45.52516300325078 179.28429782990133,44.7089652574723 177.10220753305475,43.58475413967244 175.08175355452113,43.09194407048926 172.1116862060444,42.81473701483628 169.0810052382294,43.04574296413921 168.70722125220345,42.42972555296001 166.2321651284583,40.797255480938475 163.55506360688014,40.18122000727453 158.86761037667748,40.52004013024998 158.13014467447647,40.766453824828204 156.65521327016177,40.72025131741975 154.0791344475292,42.73773487710423 151.9778623097809,43.76955709918548 148.06828386132838,43.66175542693236 147.4520453978621,43.38455043100112 147.25,43.75415686954511 150.54333998504444,44.15456183441711 152.41225991517422,44.015960352437105 154.41250935394783,42.95334066790383 156.917872287333,40.766453824828204 160.13039411325008,40.78185465442948 160.94867797454935,40.47383747433196 161.96900723373983,40.6894496302848 164.72692691444536,40.766453824828204 166.545335495146,41.49028947352781 167.11106260912493,41.01286672758579 168.08088051882805,41.983109835520736 168.81834622102906,42.291120953486825 168.80824395114905,43.01494221109897 168.40415315542486,43.276748217540444 169.37397106509889,44.03136052945774 171.54595909203636,44.262362813904474 174.28367423298187,43.89275882473885 175.29390122226323,44.33936342079687 176.7284235469997,45.58676248053962 177.44568470944068,45.309564442926785 179.90053629333852,47.29612823915522 181.42597904714057,49.74461281587719 181.21383137939847,49.513627044303576 179.59746819655993,50.345172566056135 179.2640932900831,51.823453454169794 179.42572960839607,52.423996925856045 180.84004739337252,54.872317798908625 182.3048765278072,56.18113652160537 185.70934148167726,60.461587667457934 187.3358069344249,64.81877999272547 187.62877276129439,64.6956118777307 187.6590795709635,64.21833356413117 186.09322773761232,60.40000013620738 185.7598528311355,58.75251531950926 185.850773260172,58.49076213749504 186.8913070591516,57.936458332667826 185.58811424297164,52.423996925856045 184.79003492146148,50.36057147219981 181.81996757298475,46.78794239887793 179.6681840858073,45.06316534616781 176.97087802446913,43.58475413967244 173.1724245447549,42.860938260339026 169.01028934895294,42.99954182996589 168.77793714145082,42.41432505429839 167.10096033924492,41.13607288208004 165.13101771016954,40.42763479062705 163.77731354453135,40.2120218985292 159.5141556497838,40.48923836270842 157.79676976802875,40.82805712475238 161.39317784985178,40.59704449484707 161.34266650039353,42.691533557357616 161.04970067346585,44.30856318726728 161.64573459717212,44.50876448369672 161.22143926165882,44.6319650217265 161.2921551509353,45.77156061567075 165.22193813920603,46.202754532467225 166.50492641559686,46.68014496952674" stroke="#4dd2ff" stroke-linecap="round" stroke-linejoin="round" stroke-width="0.5"><title>2022-05-08 15.0km</title></polyline><polyline fill="none" points="26.828767123282887,94.11005607824336 27.953767123282887,94.1570387267202 31.32876712322468,93.07643303850637 34.626712328754365,94.50940798873489 35.81335616437718,94.46242548182636 36.50684931501746,95.12017886223475 38.27910958905704,93.94561665999208 39.09589041094296,93.85165117444558 40.32876712322468,95.87189248321374 39.94349315064028,98.38539982775546 40.744863013678696,100.54650315518666 42.79452054790454,103.55318920695572 44.674657534225844,105.03301412478322 50.00684931507567,112.10303040736471 52.07191780820722,118.02178527751676 52.75,117.85737946269364 52.68835616437718,117.05883364766487 50.962328767054714,112.83114735500567 49.89897260273574,108.462377702097 51.501712328754365,107.5698132964535 49.7602739725844,99.72434898519714 48.85102739720605,97.06992608363362 47.71061643830035,95.12017886223475 44.58219178079162,91.40852205790725 40.7910958903376,88.07262875734887 35.98287671228172,85.46492761160334 28.44691780814901,84.47821472248324 13.190068493131548,86.14622451132891 13.066780821885914,87.03895237416873 12.280821917753201,87.3678503959236 12.25,88.28406143777829" stroke="#4dd2ff" stroke-linecap="round" stroke-linejoin="round" stroke-width="0.5"><title>2022-05-05 5.1km</title></polyline><polyline fill="none" points="74.52727272725315,96.72002177774993 76.34090909091174,96.8447393035458 78.68636363634141,95.99249988234078 81.74090909090592,97.17731863791414 82.8590909090708,97.17731863791414 83.2272727272939,97.63461347793054 85.35454545455286,96.38744097424933 85.5318181818293,96.5121589007831 86.58181818181765,98.32055195040448 86.29545454547042,100.33676902522711 86.96363636362366,102.51922778594599 88.21818181819981,104.45222426630062 90.56363636362948,106.6761648142492 92.90909090908826,109.502786655612 95.4454545454646,113.34769983311708 96.8363636363647,117.83671508320549 97.75,117.83671508320549 95.51363636361202,110.25099716641125 95.45909090907662,109.2118144410706 96.49545454545296,108.9208414087916 96.65909090905916,108.58829979912844 95.02272727276431,101.29289947873622 93.27727272725315,97.75932990192086 90.46818181819981,94.28799999113107 86.35000000000582,90.85812856697157 82.8590909090708,89.09118075357401 78.0318181818293,88.21808952396532 72.5227272727061,88.48833283433487 72.05909090908244,87.65681270190544 69.1409090909001,85.57798314720276 66.90454545451212,84.82959428715549 64.5863636363938,84.66328491679451 58.8045454545354,85.12063504238176 57.27727272728225,85.57798314720276 57.25,85.78586798135075 62.14545454544714,85.43246351480775 61.709090909105726,90.21371579966944 62.40454545454122,90.4423788537024 62.00909090906498,90.46316637899145 61.94090909091756,92.20930360334023 67.2727272727061,92.79134279944265 69.09999999997672,93.41495259236399 69.29090909092338,93.72675607998099 68.67727272724733,95.09868026850745 68.7727272727061,95.43126521241356 71.19999999998254,94.76609425600327 72.8909090909001,94.87002749970998 74.94999999998254,95.55598429092788 76.20454545455868,95.53519778826012 77.3909090909292,95.11946685877774" stroke="#4dd2ff" stroke-linecap="round" stroke-linejoin="round" stroke-width="0.5"><title>2022-05-04 7.1km</title></polyline><polyline fill="none" points="116.43809433240676,93.98360431284527 118.88750475464622,93.93663946923334 121.36772537085926,93.06778646152088 124.46414986689342,94.38280472154293 126.09709014830878,94.57066326585482 126.29735640925355,95.1577192720506 128.8700076074456,93.63136752646096 130.2718714340008,95.74477233127254 129.90214910614304,98.53910449653631 130.70321414986392,100.53501516697725 132.61344617727445,103.32923288246093 134.60070368961897,105.06677998304076 139.48411943705287,111.28886530295858 140.22356409282656,112.53324264706316 141.82569418032654,117.90973975085944 142.75,117.88626213477983 142.51892354513984,116.45411864458583 140.5778813236975,112.11062541099818 139.915462152916,109.31661748648185 139.8692468618974,108.42439921531331 141.2711106884526,107.8374097987762 141.47137694939738,107.46173502603779 138.96034613926895,97.57635893653787 137.60469760361593,94.89941499240376 136.09499809815316,92.9503733978272 130.37970711296657,87.85453285194671 126.32816660328535,85.67053321243293 121.61420692282263,84.63722884635354 116.57674020540435,84.59026024914056 112.63303537468892,85.34175554089597 110.30686572840204,85.31827138614608 103.12809052871307,86.18718197167618 103.08187523775268,87.07956990669481 102.80458349181572,87.43182642762258 102.35783567896578,87.26744018319732 102.25,88.01891827102372 102.35783567896578,89.21657649248664 102.9894446557737,89.99152527636761 105.51588056294713,91.5414074384098 109.62904146063374,92.69206424269942 110.49172689236002,94.68807470288448 110.52253708633361,96.73101483695791 114.20435526815709,97.74073069074802" stroke="#4dd2ff" stroke-linecap="round" stroke-linejoin="round" stroke-width="0.5"><title>2022-05-01 6.0km</title></polyline><polyline fill="none" points="156.46545827633236,92.65157195220672 156.3546511627501,92.34191032393574 158.84781121753622,92.5952698888359 160.54685362515738,91.97594569958164 160.65766073873965,92.76417601112189 160.63919288641773,91.97594569958164 162.11662106699077,91.41292133524257 163.26162790699163,92.22930592584453 164.9606703146128,92.42636356307776 166.1795485636103,93.1301385779152 167.84165526676225,93.04568576269958 168.22948016418377,93.80575926847087 170.83344733243575,92.17300369292207 171.33207934338134,92.28560813626973 172.8464432284818,94.62212992556306 172.5140218877932,98.42241351809935 173.45588235300966,100.47733877306746 174.82250342000043,102.72927706696646 177.9066347469343,105.60044593521161 184.11183310538763,113.3973431964987 186.95588235300966,121.39082385261281 187.75,121.19380691944389 187.65766073873965,120.06799056219461 184.37038303696318,110.97669226049766 184.55506155954208,109.65376071627543 186.27257181948517,108.66859081933217 183.94562243501423,98.76021151890745 181.9326265390264,94.00281468991307 178.091313269455,89.32971152700338 172.8464432284818,84.96613119624817 167.34302325581666,82.29161160199874 163.79719562240643,81.41886258763407 158.73700410401216,81.10917614738719 153.14124487002846,81.67224189341505 152.5133378932951,82.0663865700044 153.52906976744998,83.05174341351812 155.92989056085935,83.75556549005705 162.39363885088824,82.99543749474105 164.0557455540984,83.36142556253617 167.08447332424112,85.9796200273995 168.91279069765005,85.36026661230426 170.0208618331235,86.71157962666621 173.60362517100293,89.55492489046446 175.87517099868273,93.24274225247063 172.93878248974215,94.93178651752532 172.45861833106028,97.38086455849407 172.73563611495774,99.04170923138008 175.35807113541523,103.32040487573249 178.34986320114695,106.05082003085408 184.37038303696318,113.98842603037338 186.8820109438966,121.36267859342479 187.71306429553078,121.2219522125888 187.63919288653415,120.06799056219461 185.57079343363876,115.00170509144664 184.3888508892269,110.24485933182586 184.61046511633322,109.71005592984147 186.25410396716325,108.66859081933217 184.18570451438427,99.6610022090972 181.87722298229346,93.80575926847087 177.7773597810883,88.96373903963831 172.6617647059029,84.76906307269383 168.0817373461323,82.48868320814654 160.9346785225789,81.27809610866098 158.53385772911133,81.13732948836696 151.68228454171913,82.15084599937836 147.5824213406886,82.31976470554218 147.25,84.9098260463361 150.3710670315195,86.45820942865248" stroke="#4dd2ff" stroke-linecap="round" stroke-linejoin="round" stroke-width="0.5"><title>2022-04-30 10.1km</title></polyline><polyline fill="none" points="26.351714285672642,143.80448951026483 28.604285714274738,143.9455987373076 31.319714285666123,142.9578305776231 34.79114285710966,144.48651586625056 36.16428571427241,144.34540729087894 36.56542857142631,144.90984057254536 39.064857142861,143.5693070872876 40.391714285709895,145.75648539502436 39.975142857118044,148.34341776781366 41.03971428569639,150.9302930066042 42.79857142851688,153.4230460026156 44.66542857140303,154.95159471428633 49.9728571427986,161.74751595965063 51.83971428568475,167.5084552907283 52.086571428517345,167.95521017690044 52.75,167.7906164697124 52.53399999992689,165.9565566579622 49.9728571427986,158.99627354332188 50.06542857142631,158.26730104850867 51.392285714216996,157.7499629774029 51.56199999997625,157.39723116433015 49.67971428565215,149.213554906637 47.96714285708731,145.42723535789992 43.56999999994878,140.30022250490583 39.95971428568009,137.3838398258158 36.503714285674505,135.64338330366445 31.257999999972526,134.51442470298207 27.74028571427334,134.42034432830405 24.06828571431106,134.7731453434535 22.556285714323167,135.2670649792126 20.889999999955762,135.17298520922486 13.669428571418393,136.01970041891036 13.237428571388591,136.13729926945234 12.975142857118044,136.9840075076936 12.25,136.88992911689274 12.404285714263096,135.00834542983648 18.39057142857928,134.5379447847954 18.467714285710827,132.8209663968446 18.99228571431013,132.04478982309956 19.99514285713667,132.63280285135988 19.115714285697322,134.3262638781016 18.760857142857276,137.6895930304163 22.031714285723865,138.7479633443727 19.99514285713667,143.09894082477695 20.550571428553667,144.88632257340942 20.457999999984168,146.57960643850674 23.219714285747614,147.30865167501906 25.42599999997765,148.76672853471246 27.24657142854994,146.46201807211764 25.54942857142305,145.56834262999473 25.8734285714454,144.13374410900724 26.289999999979045,143.9926351085669" stroke="#4dd2ff" stroke-linecap="round" stroke-linejoin="round" stroke-width="0.5"><title>2022-04-28 7.1km</title></polyline><polyline fill="none" points="80.5284147557104,146.50807499372604 80.66974077769555,146.66195151927968 80.90191924225655,146.4772996515385 82.14356929212227,146.50807499372604 83.70825024924125,145.9387291625244 84.56630109672551,146.50807499372604 85.20226819542586,146.53885032352264 85.86851944166119,146.90815331752674 86.81742273180862,146.90815331752674 87.16064307076158,147.32361705849326 88.72532402793877,146.33881045873568 89.53290129613015,147.8314030164256 89.31081754737534,149.49322444581048 89.85593220338342,150.97036879789812 90.59284646064043,152.1859141497116 92.34932701895013,153.83225496230443 95.81181455633487,158.24796642685396 97.03327517447178,162.01727493734506 97.32602193421917,162.35573438671418 97.75,162.20188936776685 97.62886340977275,161.47881364215573 96.4780658025993,158.87876158267318 95.79162512463517,156.46324956961325 95.84209870389896,155.84782032716612 96.85157028914546,155.41701691698108 95.34745762709645,149.1393210502938 94.4793120638351,147.4774919465417 92.22819042872288,144.75386076333962 90.43133100698469,143.15348994650412 88.57390329011832,141.9224127287598 86.93855932203587,141.0914244261803 84.3543120638351,140.46048284467543 81.68930707877735,140.321982777823 78.98392323032022,140.53742721815797 78.7719341974298,139.9834260048592 76.16749750750023,138.29061970294424 73.86590229315334,137.69043394339678 68.77816550349235,138.0597795825306 68.20276669989107,138.29061970294424 67.01159022931824,138.09055830543366 66.34533898305381,138.38295555642253 63.46834496510564,140.61437151433347 61.93394815555075,141.2760892721999 58.007103688956704,141.12220193142275 57.58312562311767,140.92214792642335 57.25,141.3684215283356 61.77243270189501,141.6454176291736 62.69105184444925,141.41458761465765 64.14469092720537,140.62976036428154 67.04187437688233,138.09055830543366 67.78888334994554,138.18289439994987 69.61602691924782,137.76738109831786 74.35044865406235,137.6442656132931 77.15677966101794,138.58301619057602 78.86278664006386,140.1219266836997 78.81231306082918,140.56820494586282 77.96435692923842,140.93753671459854 78.07539880360127,141.69158354862884 77.73217846461921,143.1381016033556 77.02554835495539,144.01523223164986 76.03626620140858,146.27725962602563 76.58138085744577,147.13896678503806 76.56119142571697,148.38534749695827 77.88359920238145,148.67770546959218 79.84197407777538,149.75480416601204 80.96248753738473,148.13915044436726 83.00162013960653,146.96970364351 84.3341226321063,146.49268732416385 82.95114656031365,145.35399120317743 81.94167497506714,145.78485118476965 80.5486041874392,145.8310146105432 79.94292123630294,147.4159420283977 80.20538384845713,147.7698533825751 81.0331505483482,148.16992511924036 82.28489531404921,147.33900456121773 82.03252741775941,146.80044012812868 80.60917248256737,146.75427728633076" stroke="#4dd2ff" stroke-linecap="round" stroke-linejoin="round" stroke-width="0.5"><title>2022-04-27 10.1km</title></polyline><polyline fill="none" points="110.3573613568442,141.4480473788717 112.43842566909734,141.2781069039338 116.48906870535575,140.06019417505013 117.41811527335085,140.79660777963 119.29478934057988,141.16481314020348 120.46538801625138,141.95786757538735 122.08192904444877,142.01451415015617 122.58361419115681,142.5809786465761 125.29643016954651,140.8532548207586 126.2254767374834,141.39140057662007 127.22884703089949,143.4023481257027 126.9501330605126,147.08429046580568 127.91634149115998,149.40669697544945 130.4247672247002,152.83359284317703 132.39434594870545,154.4478868450824 138.7304435421829,162.66067552642926 141.14596461888868,170.25 142.2050777063705,170.02345891245204 142.14933491224656,169.1739265941069 139.75239476689603,163.05714288209856 138.93483378714882,159.82873343895335 138.82334819895914,158.639300809431 140.71860319760162,157.5914589934473 138.41456770908553,147.4524794140525 136.2591796714114,142.86421004169824 132.18995570379775,137.96422671882465 128.84538805915508,134.9901653926281 126.83864747238113,133.48894871782977 121.26436806470156,130.76972311608552 113.7948336583213,129.75 107.31008861394366,130.259862479601 106.00942341884365,130.76972311608552 106.19523273245431,132.18599299173366 105.52631920349086,134.7069181864208 104.37430145923281,136.09482406243478 103.55674047942739,138.4457355116756 102.7949222936877,139.46539576471696 103.98410190071445,139.49371955537936" stroke="#4dd2ff" stroke-linecap="round" stroke-linejoin="round" stroke-width="0.5"><title>2022-04-25 5.0km</title></polyline><polyline fill="none" points="170.50862931465963,146.64254353199794 172.281390695367,146.50356983102392 173.71985992998816,145.87046423738502 174.33779389696429,146.33371274432284 175.279889944999,146.48812829320377 175.83704352175118,146.812399936578 176.7284892446478,146.79695846077084 177.14382191098412,147.19843582445174 178.7545022511331,146.2256216756432 179.58516758380574,147.56902845374861 179.37243621810921,149.3910829058368 179.89919959980762,150.82707845404366 180.96285642820294,152.44833152507636 182.46210605301894,153.776189533055 185.90632816409925,158.20736371909152 187.31440720360843,162.39126947060868 187.75,162.23688584863703 187.71960980488802,161.6347867621007 187.09154577291338,159.65863356160844 186.46348174088052,158.54702507302864 185.91645822912687,156.5707925336901 185.86580790398875,155.95320945119602 186.94972486246843,155.42825993181032 185.59229614809738,149.6844605198712 184.52863931964384,147.36829100123578 183.27251125563635,145.76237251756538 181.7530015007651,144.1255364757817 179.43321660830406,142.2415877162639 177.12356178089976,141.0679569601998 173.66920960479183,140.3112644754292 171.42033516758238,140.23405053791794 169.09042021012283,140.55834855448484 168.7966483241762,139.84797968734347 166.15270135068567,138.21101774810813 163.66070535269682,137.60873052939132 159.40607803902822,137.8712665636922 158.24112056029844,138.21101774810813 156.6810905452876,138.13380170165328 154.3714357178833,140.00240826015215 152.56828414209303,141.02162906284502 151.33241620814078,141.2687108594473 148.00975487747928,141.08339958643046 147.44247123564128,140.85175986722606 147.25,141.23782567828312 150.76513256630278,141.5930045126297 152.37581290645176,141.45402168590226 153.95610305154696,140.6510048794662 156.6912206103152,138.31912008288782 157.14707353679114,138.13380170165328 158.39307153580012,138.25734733878926 161.10792896448402,137.96392612651107 163.79239619814325,138.02569910635066 165.18021510753897,138.24190414499026 166.4464732366323,138.84418640437798 166.86180590296863,138.42722226569458 164.77501250625937,137.7477203062881 161.97911455729627,137.70139040856156 158.72736368182814,137.99481262263726 157.71435717862914,138.27279052945232 159.85180090047652,138.18013133882778 161.20922961478936,137.8867098319388 162.00950475237914,138.08747203658277 163.91395697850385,137.99481262263726 165.68671835918212,138.51988115858694 166.2438719359925,139.07583217116917 165.66645822912687,140.3730355696389 165.42333666837658,142.3496843850371 167.4594797398895,142.99826120671787 166.4059529765218,145.56163034908968 167.4189594797499,145.22191163944808 169.21198099051253,145.26823700639216 170.51875937971636,145.6079555113829 170.30602801399073,146.33371274432284" stroke="#4dd2ff" stroke-linecap="round" stroke-linejoin="round" stroke-width="0.5"><title>2022-04-22 10.1km</title></polyline><polyline fill="none" points="33.29479522188194,194.96737462584133 34.90742320820573,194.94981626935623 35.02261092152912,194.61620682579087 36.72738907849998,194.1421280587092 37.476109215058386,194.66888208567252 38.547354948852444,194.82690767506574 39.28455631402903,195.26586614704138 40.14846416385262,195.1956329396271 40.56313993179356,195.6872642071612 42.47525597270578,194.59864839877991 43.477389078529086,196.19645082042553 43.27005119458772,198.21560992393643 43.85750853244099,199.84846101560834 45.124573378881905,201.6568519115317 46.69112627991126,203.0614015625688 50.66510238908813,208.17026065982645 52.19709897614666,212.7346245995941 52.75,212.7346245995941 52.485068259440595,211.13712431745807 51.4944539249409,208.96026377339876 50.676621160440845,206.15133139148384 50.653583617764525,205.5719778646162 51.667235494882334,205.11551480690832 51.851535836205585,204.81705690405943 50.50383959047031,199.02326051114505 49.77815699664643,197.0392359411344 49.1215870307642,195.82772977594868 46.6220136519114,192.79011153178726 43.18941979526426,189.89286286514107 40.55162116046995,188.57589991795248 37.75255972699961,187.94375065783242 34.492747440323,187.71547341294354 31.486348122911295,188.03154943947447 31.094709897675784,187.24135723085783 28.191979522205656,185.39754763946985 25.392918088764418,184.7653754004059 17.180034129705746,185.39754763946985 14.438566552911652,187.6979136002119 12.284556313999929,188.69881729897315 12.25,189.2080446080654 14.33489761094097,188.1895870242879 17.755972696264507,185.25706531464675 20.946672354999464,185.37998736118607 22.317406143352855,185.0287810554437 23.4923208191467,185.25706531464675 26.049488054646645,185.20438438466226 27.397184300381923,185.6258309358309 28.249573378881905,186.24043684842036 27.604522184323287,187.8208322154096 27.397184300381923,190.2264903295436 29.689419795235153,190.9113006104526 28.45691126282327,193.77339835181192 30.3690273037937,193.1939628137843 34.04351535838214,193.94898412041948 35.990187713323394,193.31687370329018" stroke="#4dd2ff" stroke-linecap="round" stroke-linejoin="round" stroke-width="0.5"><title>2022-04-21 8.1km</title></polyline><polyline fill="none" points="77.8686006826174,194.94983057925856 79.75767918091151,194.82692208369554 80.22994880547049,194.63377981310623 80.42576791808824,194.24749399197754 80.29906143347034,194.8444804508108 81.70435153582366,194.14214301737957 84.18088737205835,195.17808875555784 85.24061433447059,195.1605304554687 85.56313993173535,195.61704511222342 87.3831058020296,194.4933124392337 88.40827645052923,195.9857667490287 88.22397610920598,198.28585233649937 88.93813993176445,199.95381549141166 89.79052901026444,201.28816310956609 91.84087030717637,203.25453301576636 95.76877133108792,208.29315409612173 97.2546928327647,212.80484369453188 97.75,212.66440550465632 97.57721843005856,211.8042166709347 96.35622866897029,208.85493358054373 95.6305460750882,205.76510175768635 95.7572525597352,205.44909007691604 96.77090443688212,205.04529571197054 96.3792662115884,202.64004716973432 95.31953924914706,198.40875597049308 94.09854948805878,195.84530154689128 91.46075085323537,192.6320984331105 88.17790102391155,189.9279999491264 85.67832764505874,188.64615781578323 83.38609215017641,187.99644983251346 79.64249146758812,187.68037393289706 76.27901023891172,188.01400957119768 76.2559726962354,187.82085225154879 76.09470989761758,187.2589376228425 73.01919795220601,185.30976826624828 70.20861774747027,184.69515630546812 64.92150170649984,185.04636366922932 63.67747440270614,185.38000935812306 62.81356655291165,185.13416528972448 62.29522184302914,185.25708741032577 59.45008532423526,187.5223355546841 57.273037542705424,188.57591934765514 57.25,189.10270648356527 59.32337883961736,188.06668876610638 62.72141638226458,185.25708741032577 64.18430034132325,185.4502503935655 67.28284982938203,185.11660497265257 70.27773037541192,185.11660497265257 72.04010238908813,185.43269014002726 73.28412969282363,186.31069849833148 72.56996587032336,187.803292474091" stroke="#4dd2ff" stroke-linecap="round" stroke-linejoin="round" stroke-width="0.5"><title>2022-04-19 7.2km</title></polyline><polyline fill="none" points="107.55627289059339,188.7003825840511 107.61479923693696,188.37326751589717 110.48259020969272,188.19484081065457 113.36988996446598,187.12427606462734 117.81789228948765,189.08697218749148 119.5931914630346,188.9680216477136 119.9833671055967,189.74119844839151 122.92919320677174,187.83798675512662 123.59249179909239,188.37326751589717 124.80203629098833,190.57384587342676 124.39235186635051,194.2314916140749 125.38729975483147,196.6996080226818 126.83094963221811,198.98926960093377 130.18646015808918,202.17094835035095 137.01453390263487,211.00197889865376 139.53116679697996,218.85134183660557 139.82379852893064,218.85134183660557 140.350535646372,218.61348846500914 140.2725005178945,217.03770023076504 137.63881493062945,210.67491308238823 136.79993729916168,206.8987372626434 138.8483594225836,205.38229310770112 136.6633758242824,195.83725877157121 134.43937466177158,190.12778533506207 130.0498986832099,184.92364644994086 124.19726404506946,179.9275010679412 122.1878594859736,178.9758352181525 120.99782377621159,178.5 120.80273595493054,180.8494215280807 121.71964871493401,182.03898783503973 125.5628787939786,185.22103074112965 127.94295021344442,188.55169400625164 129.77677573339315,191.58491145342123 130.63516214699484,194.91543160589936 136.23418261751067,194.1125452060951 137.32667441660305,197.29432871870813 138.94590333319502,205.47149613489455 137.131586595322,206.77980102726724 138.57523647282505,212.33996789931552 140.77972885314375,218.49456163602008 139.726254618261,219.0 139.0044296795386,218.01885336490523 136.99502512044273,212.16157006421417 135.785480628605,209.81264519592514 130.49860067211557,202.8845865359326 126.61635302886134,199.1082120923238 124.13873769866768,194.796485747298 124.00217622378841,193.6367586190463 124.58743968763156,190.9604305866087 127.70884482789552,189.0572345614637 129.7377581691253,191.5551743288961 130.7522148397984,194.97490449948236 135.785480628605,193.75570540913031 133.971163890732,189.71146095381118 128.76231906277826,183.76384200823668 124.13873769866768,180.01671942786197 121.01733255834552,178.52973974587803 120.90027986554196,181.2062924234633 122.6560702570132,182.93115629488602 121.01733255834552,184.29913749457046 118.98841921711573,183.76384200823668 118.28610306052724,184.2396603138477 117.19361126143485,185.57789110242447 117.4667342111934,188.16510300550726 112.57002989726607,188.9680216477136 111.4970468802494,190.03857306613645 108.45367686846294,191.7930711571098 106.19065814168425,194.67753979309055 104.22027114685625,193.60702190663142 107.10757090162951,186.64846702672367 109.64371257816674,186.67820513641345 112.1993630368379,185.6968443650112 113.33087240019813,187.12427606462734 110.87276585219661,188.61116945526737 107.02953577315202,188.73012028163066" stroke="#4dd2ff" stroke-linecap="round" stroke-linejoin="round" stroke-width="0.5"><title>2022-04-10 10.4km</title></polyline><polyline fill="none" points="150.745337291155,188.77626028304803 150.9621623380226,188.4457482755388 153.3866605887888,188.59598109668877 156.93470680952305,187.24388027620444 158.13710025092587,188.1452821806306 161.35005321749486,189.22695729865518 163.14378769573523,189.04667865527153 163.41974684619345,189.88797713264648 166.5735657090554,188.08518888927938 168.36730018729577,190.51894788673962 168.0322069331305,194.3347619407723 168.97835259191925,196.76841929861985 171.12689169228543,200.07332271221094 174.18215371563565,202.86741138722573 180.78546195972012,211.39957435047836 183.20996021054452,218.96995955171587 184.254662708845,219.0 180.66719375230605,207.85457979337662 180.6474823844619,206.92325373557105 182.73688738112105,205.87174960740958 180.23354365874548,194.57512492281967 178.2229841336375,190.4588555485825 173.94561730098212,185.20068252290366 167.81538188632112,180.00242128146056 164.62214028765447,178.5 164.52358344820095,181.41468353125674 169.25431174249388,185.20068252290366 171.5999645217089,189.31709653884172 168.54470249835867,190.9095474963833 166.69183391641127,188.20537544797116 163.6562832609634,189.97811597466352 160.02939156867797,188.56593454456015 158.452482137247,188.4457482755388 156.44192261225544,189.01663219364127 153.958290257724,190.78936310972495" stroke="#4dd2ff" stroke-linecap="round" stroke-linejoin="round" stroke-width="0.5"><title>2022-04-09 5.2km</title></polyline><polyline fill="none" points="15.723027367086615,237.50381942851527 17.932340635568835,237.32340638652386 17.991518669587094,237.0227175001637 22.07480301411124,235.85002507455647 23.19918565970147,236.90244177666318 25.013978701725136,237.14299312715593 26.375073483213782,237.86464486041223 28.071510457259137,237.86464486041223 28.564660740375984,238.58629311597906 31.58274047332816,236.66189003964246 32.470410982961766,237.4737506033416 33.476437560631894,239.36807480175048 33.12136935675517,243.0664482233551 34.08794391172705,245.65224855593988 36.533969316165894,249.10993504553335 39.2758848904632,251.57536709109263 45.80519463942619,260.14393110248784 48.369576111843344,267.75 49.276972632913385,267.59968617436243 49.099438530916814,265.8560347711609 47.10711138701299,261.19617709524755 45.68683857150609,255.8146126647771 46.00245475274278,255.2734390603 47.71861773810815,254.46167498701834 46.67313913779799,248.83933637355221 44.46382586931577,241.17217080801493 43.16190912172897,238.61636171779537 40.853965796588454,235.85002507455647 35.27150459133554,230.46754972453346 33.02273930015508,228.75353651370096 29.70876939734444,227.25 29.452331250126008,229.2647354892688 29.807399453944527,230.3773389920534 34.028765877767,233.80530862319574 36.711503418162465,237.86464486041223 33.71314969653031,239.51841696580232 31.5235624393099,236.87237283069408 28.821098887652624,238.52615589415655 24.79699257708853,237.17306201886095 21.18713250447763,237.71430103610328" stroke="#4dd2ff" stroke-linecap="round" stroke-linejoin="round" stroke-width="0.5"><title>2022-04-07 5.0km</title></polyline><polyline fill="none" points="60.71575676032808,236.4746286328591 60.53835430677282,236.8351888878824 61.03113889985252,237.1356551033241 63.33737079537241,237.1356551033241 67.33878169103991,235.963833451111 68.54117609810783,236.89528217918996 70.65029415639583,237.22579485029564 71.41903812164674,237.7365857243276 73.23248542408692,237.8267251093348 73.60700171481585,238.54783823469188 76.72140034293989,236.6849555538356 77.66754676162964,237.4661672435177 78.73196148261195,239.59945531336416 78.39686795935268,243.44530626710912 80.11175834323512,246.90047869413684 81.82664872705936,249.15380903721962 84.17230339010712,251.0165365035209 91.13042184413644,260.1195323752763 93.55492204200709,267.75 94.46164569328539,267.6598786368995 94.4025115420809,266.12780716216366 91.32753568136832,259.0680594873702 90.73619416967267,255.5831250980409 92.70733254193328,254.7118788203661 92.84531222796068,253.87067070498597 90.6179258673219,244.61706933441747 89.15928347187582,240.3506058449566 87.5232386229327,238.03705012990395 86.41940113448072,238.66802341776202 87.05016541352961,237.6163997931726 83.93576678540558,233.65020991083293 78.29831104079494,228.9327108211437 74.82910750556039,227.25 74.6319936683285,229.29328924953006 75.00650995911565,230.40506726698368 79.1853233082802,233.62016261661483 82.08289671549574,237.49621376549476 80.2300266455859,238.96848595302436 78.77138425008161,239.5393631079496 77.03678248252254,236.9854220709385 76.3074612847995,237.1056085088785 75.71611977316206,236.44458190578735 74.76997335447231,233.25959461470484 76.60313204058912,231.54688474060094 79.22474607574986,233.7403517574421 82.0631853317609,237.6163997931726 79.12618915707571,239.4492247546732 78.79109563381644,239.5093169961474 76.78053449414438,236.80514223310456 73.84353831945919,238.54783823469188 73.1536398892058,237.97695729696716 71.35990397044225,237.79667865364172 67.12195647013141,236.2042078714876 64.97341564431554,237.25584142061416 62.134976388304494,237.4361207155307" stroke="#4dd2ff" stroke-linecap="round" stroke-linejoin="round" stroke-width="0.5"><title>2022-04-03 6.2km</title></polyline><polyline fill="none" points="139.89754098351113,254.06014068475633 140.7581967213191,250.49901263945503 140.48770491802134,249.03705619287211 142.75,247.91246651938127 142.75,246.82535672820813 135.96311475412222,242.47685424967494 132.10245901637245,241.42720054264646 123.81557377043646,241.53966372224386 116.34016393439379,242.70177927608893 113.06967213109601,242.4393667189579 107.21721311472356,247.16273630638898 102.47131147532491,249.5243762806058 102.25,250.53649855159165 106.38114754093112,248.77465254174604 113.19262295070803,242.77675422470202 114.56967213109601,242.326904081463 120.49590163928224,242.40187918061565 124.03688524587778,241.61463913752232 132.52049180323957,242.3643916347355 136.7499999999418,244.16378534135583 137.659836065548,243.52650205403916 136.8483606556547,242.70177927608893 130.1598360654898,241.31473729554273 118.57786885241512,242.13946620184288 116.31557377043646,242.81424168763624 113.31557377043646,242.4393667189579 105.88934426225023,248.24984413290804 102.25,249.7118067449046 102.59426229505334,250.53649855159165 107.0450819671969,248.32481685299717 113.0450819671969,242.964191464358 114.86475409835111,242.28941652063804 115.97131147532491,242.47685424967494 119.97950819670223,241.50217600321048 131.069672131096,240.9398593152291 137.68442622950533,242.88921659096377" stroke="#4dd2ff" stroke-linecap="round" stroke-linejoin="round" stroke-width="0.5"><title>2022-03-24 5.1km</title></polyline><polyline fill="none" points="171.28716217237525,266.7950854641458 170.16890562541084,266.54498746834724 168.57352628506487,267.75 167.85784209502162,267.38622398418374 167.4999999999418,266.4767788281242 167.03778729389887,262.3614481271579 166.50102415133733,261.088166322319 165.8598903978127,260.63341934826167 162.14727866183966,260.54246973419504 160.25369757565204,258.72346210011165 178.57819485856453,234.23222453997005 169.79615344305057,227.25 156.42180514143547,254.53963356496388 164.6670834143879,262.95260980911553 165.17402638233034,262.54334435828787" stroke="#4dd2ff" stroke-linecap="round" stroke-linejoin="round" stroke-width="0.5"><title>2021-10-26 5.0km</title></polyline></svg>