<?xml version="1.0" encoding="utf-8" ?>
<svg baseProfile="full" height="300mm" version="1.1" viewBox="0,0,200,300" width="200mm" xmlns="http://www.w3.org/2000/svg" xmlns:ev="http://www.w3.org/2001/xml-events" xmlns:xlink="http://www.w3.org/1999/xlink"><defs /><rect fill="#222222" height="300" width="200" x="0" y="0" /><text fill="#FFFFFF" style="font-size:12px; font-family:Arial; font-weight:bold;" x="10" y="20">Over 5km Runs</text><text fill="#FFFFFF" style="font-size:4px; font-family:Arial" x="10" y="280">ATHLETE</text><text fill="#FFFFFF" style="font-size:9px; font-family:Arial" x="10" y="290">Wenz</text><text fill="#FFFFFF" style="font-size:4px; font-family:Arial" x="120" y="280">STATISTICS</text><text fill="#FFFFFF" style="font-size:3px; font-family:Arial" x="120" y="285">Number: 13</text><text fill="#FFFFFF" style="font-size:3px; font-family:Arial" x="120" y="290">Weekly: 2.2</text><text fill="#FFFFFF" style="font-size:3px; font-family:Arial" x="141" y="285">Total: 94.5 km</text><text fill="#FFFFFF" style="font-size:3px; font-family:Arial" x="141" y="290">Avg: 7.3 km</text><text fill="#FFFFFF" style="font-size:3px; font-family:Arial" x="167" y="285">Min: 5.0 km</text><text fill="#FFFFFF" style="font-size:3px; font-family:Arial" x="167" y="290">Max: 10.4 km</text><polyline fill="none" points="22.22982216143282,44.8283434156765 22.11162790696835,44.498037678858964 24.770998632069677,44.76828788142302 26.583310533547774,44.107675412873505 26.701504788012244,44.94845441184589 26.68180574552389,44.107675412873505 28.25772913818946,43.50711609091377 29.479069767461624,44.37792632088531 31.29138166893972,44.58812113394379 32.591518467874266,45.33881448309694 34.36443228460848,45.24873148021288 34.77811217511771,46.05947655302589 37.5556771546253,44.31787060578063 38.087551299599,44.43798201200843 39.70287277706666,46.930271920587984 39.34829001367325,50.98390775262669 40.352941176563036,53.17582802459947 41.81067031470593,55.57789553809562 45.10041039669886,58.640475664215046 51.71928864577785,66.95716607625945 54.75294117652811,75.48354544278118 55.600000000034925,75.27339404739905 55.5015047880006,74.07252326632442 51.99507523945067,64.37513841118198 52.192065663519315,62.96401143068215 54.02407660748577,61.913163540608366 51.54199726408115,51.34422562015243 49.394801641697995,46.269669002562296 45.297400820825715,41.28502562879294 39.70287277706666,36.63053994264919 33.83255813957658,33.777719042118406 30.05034199723741,32.84678676012845 24.652804377605207,32.51645455720427 18.683994528022595,33.11705801963399 18.014227086212486,33.53747900799499 19.09767441864824,34.588526307750726 21.658549931598827,35.339269856049214 28.553214774350636,34.528466661053244 30.326128591026645,34.91885393335542 33.55677154590376,37.711594695880194 35.506976744218264,37.05095105311193 36.68891928868834,38.49235160177341 40.510533515771385,41.525253216488636 42.93351573194377,45.45892506929522 39.80136798910098,47.260572285347735 39.289192886441015,49.872922195718274 39.58467852260219,51.64448984678893 42.38194254448172,56.20843186744605 45.57318741455674,59.12087469956896 51.99507523945067,67.58765443238372 54.67414500686573,75.45352383296995 55.56060191523284,75.30341569341545 55.48180574562866,74.07252326632442 53.27551299589686,68.66848543086962 52.01477428182261,63.594516620607465 52.25116279075155,63.02405965849175 54.00437756499741,61.913163540608366 51.798084815382026,52.30506902303023 49.33570451446576,46.05947655302589 44.96251709986245,40.89465497560741 39.505882352998015,36.420333944202866 34.62051983590936,33.98792875534855 26.99699042411521,32.69663584922091 24.436114911048207,32.54648478758463 17.127770177903585,33.627569065996795 12.754582763416693,33.807749019237235 12.400000000023283,36.5704811160831 15.729138166934717,38.22209005721379" stroke="#4dd2ff" stroke-linecap="round" stroke-linejoin="round" stroke-width="0.5"><title>2022-04-30 10.1km</title></polyline><polyline fill="none" points="93.4418285714928,47.391455477620184 95.8445714286645,47.541971986465796 98.74102857144317,46.48835261613567 102.44388571428135,48.11895025733247 103.90857142861933,47.968434443602746 104.33645714289742,48.570496610715054 107.00251428573392,47.140594226439134 108.41782857145881,49.47358442136465 107.9734857143485,52.23297895234282 109.10902857145993,54.992312540380226 110.98514285718556,57.65124906945857 112.97645714285318,59.281701028579846 118.63771428575274,66.53068369029643 120.62902857142035,72.67568564345129 120.89234285714338,73.15222418869234 121.60000000003492,72.97665756769857 121.36959999997634,71.02032710183266 118.63771428575274,63.5960251128854 118.7364571429207,62.81845445174258 120.15177142858738,62.26662717589352 120.33280000003288,61.89037990862562 118.32502857141662,53.161125233746134 116.49828571430407,49.12238438176428 111.80800000001909,43.6535706719078 107.95702857145807,40.542762480872625 104.27062857145211,38.68627552391263 98.67520000005607,37.48205301651615 94.9229714286048,37.38170061686105 91.00617142859846,37.75802169968665 89.39337142865406,38.2848693111664 87.61600000003818,38.1845175565104 79.91405714291614,39.08768044684257 79.45325714291539,39.213119220745284 79.17348571430193,40.116274674881424 78.40000000002328,40.01592439135129 78.56457142863655,38.008901791828976 84.94994285720168,37.507141103786125 85.03222857153742,35.6756974899763 85.59177142864792,34.847775811307656 86.66148571431404,35.47498970812012 85.72342857148033,37.28134813664656 85.34491428575711,40.86889923244598 88.83382857148536,41.99782756732748 86.66148571431404,46.638870213100745 87.2539428572054,48.545410744976834 87.15520000003744,50.351580201073375 90.1010285714874,51.12922845335561 92.45440000004601,52.684510437036806 94.39634285715874,50.22615261026658 92.58605714293662,49.27289880533499 92.93165714293718,47.74266038294445 93.3760000000475,47.59214411580615" stroke="#4dd2ff" stroke-linecap="round" stroke-linejoin="round" stroke-width="0.5"><title>2022-04-28 7.1km</title></polyline><polyline fill="none" points="169.23030907276552,50.27527999331505 169.38105682953028,50.43941495390027 169.62871385843027,50.24245296164008 170.9531405782618,50.27527999331505 172.62213359918678,49.66797777335887 173.5373878365208,50.27527999331505 174.2157527418167,50.30810701176233 174.92642073778552,50.70203020536428 175.93858424725477,50.70203020536428 176.30468594215927,51.14519152905996 177.97367896314245,50.094731155986665 178.83509471587604,51.686829884194594 178.59820538386703,53.459439408863545 179.17966101696948,55.03506005109375 179.9657028913498,56.33164175969432 181.83928215355263,58.08773862646194 185.5326021934161,62.797830855313805 186.83549351943657,66.81842659983522 187.14775672982796,67.17945001249609 187.60000000000582,67.01534865894791 187.47078763711033,66.24406788496708 186.24327018944314,63.47067902152048 185.51106679963414,60.8941328742585 185.56490528414724,60.237675015647255 186.6416749750788,59.77815137811558 185.037288135587,53.08194245365303 184.11126620142022,51.30932474297879 181.71006979062804,48.40411814756226 179.79341974077397,46.69705594293919 177.8121635094867,45.38390691067616 176.06779661017936,44.497519387921784 173.31126620143186,43.82451503432094 170.4685942173819,43.67678162967786 167.58285144568072,43.90658903270378 167.3567298105918,43.315654405181704 164.57866400800413,41.50999434980622 162.12362911269884,40.86979620628699 156.6967098703899,41.26376488803362 156.0829511465563,41.50999434980622 154.81236291126697,41.296595525796874 154.10169491526904,41.608485926852154 151.03290129610104,43.98866294862091 149.39621136590722,44.69449522368086 145.20757726821466,44.530348726853845 144.7553339980077,44.31695778818539 144.39999999999418,44.792982963554095 149.2239282153605,45.088445471119485 150.2037886340986,44.84222678896913 151.75433698904817,44.00507772190758 154.84466600202722,41.296595525796874 155.64147557329852,41.39508735994605 157.59042871388374,40.951873171536135 162.640478564339,40.820549987511185 165.6338983050955,41.82188393661636 167.45363908275613,43.463388462609146 167.39980059824302,43.93941860891937 166.4953140578582,44.33337249556644 166.6137587238336,45.13768911853549 166.2476570289291,46.68064171024889 165.49391824527993,47.61624771376228 164.43868394818855,50.0290769344283 165.020139581291,50.948231237372966 164.99860418745084,52.27770399675501 166.40917248255573,52.58955250089639 168.49810568295652,53.73845777707902 169.69332003989257,52.0150938073275 171.86839481559582,50.76768388641358 173.2897308075917,50.25886647911102 171.8145563310245,49.04425728338538 170.73778664009296,49.50384126375138 169.2518444666057,49.55308225124463 168.60578265204094,51.243671496958996 168.8857427717012,51.62117694141489 169.76869391824584,52.04792012718826 171.10388833499746,51.16160486530134 170.8346959122864,50.58713613666623 169.31645064806798,50.53789577208954" stroke="#4dd2ff" stroke-linecap="round" stroke-linejoin="round" stroke-width="0.5"><title>2022-04-27 10.1km</title></polyline><polyline fill="none" points="21.04785211395938,92.87791720412497 23.26765404699836,92.69664736419509 27.58833995234454,91.39754045338486 28.57932295819046,92.18304829827684 30.581108629936352,92.57580068288371 31.829747217299882,93.42172541374748 33.5540576474159,93.48214842683228 34.089188470563386,94.08637722300773 36.98285884747747,92.24347180880432 37.97384185332339,92.81749394838698 39.04410349961836,94.96250466741913 38.746808597876225,98.88990983019175 39.77743092388846,101.36714344048232 42.45308503968408,105.0224990327115 44.55396901193308,106.74441263475455 51.31247311166953,115.50472056152648 53.88902892678743,123.60000000000582 55.018749553419184,123.35835617328121 54.9592905730824,122.45218836703862 52.40255441801855,115.92761907423846 51.53048937290441,112.48398233488842 51.411571412172634,111.21525419672253 53.433176744088996,110.09755625967227 50.975538889702875,99.28264470832073 48.67645831615664,94.38849071114964 44.3359527506982,89.16184183341102 40.76841392973438,85.98950975213666 38.627890637144446,84.38821196569188 32.68199260230176,81.4877046571637 24.714489235542715,80.40000000000873 17.797427854849957,80.94385331157537 16.410051646758802,81.4877046571637 16.608248247939628,82.99839252451784 15.89474048372358,85.68737939884886 14.665921556472313,87.16781233326765 13.793856511358172,89.6754512124462 12.981250446580816,90.76308881570003 14.249708694056608,90.79330085907714" stroke="#4dd2ff" stroke-linecap="round" stroke-linejoin="round" stroke-width="0.5"><title>2022-04-25 5.0km</title></polyline><polyline fill="none" points="103.20920460228808,98.41871310080023 105.10015007507172,98.27047448642406 106.63451725864434,97.59516185320535 107.29364682341111,98.08929359394097 108.29854927465203,98.25400351275312 108.89284642320126,98.5998932656803 109.84372186096152,98.58342235815508 110.28674337171833,99.01166487941373 112.00480240120669,97.9739964540131 112.89084542274941,99.40696368399222 112.66393196597346,101.35048843288678 113.22581290645758,102.88221701764269 114.36038019010448,104.61155362674617 115.95957978989463,106.02793550192291 119.63341670838417,110.75452130036138 121.13536768383346,115.21735410198016 121.60000000000582,115.05267823854956 121.5675837918825,114.41043921290111 120.89764882443706,112.30254246571712 120.2277138569334,111.11682674456097 119.64422211106285,109.00884536926606 119.59019509758218,108.35009008127236 120.74637318661553,107.79014392726094 119.2984492246469,101.66342455452832 118.1638819409709,99.19284373465052 116.8240120059927,97.47986401872913 115.2032016008452,95.73390557416133 112.728764382191,93.72436023067712 110.26513256630278,92.47248742421652 106.58049024510547,91.66534877379308 104.18169084543479,91.58298724045017 101.69644822413102,91.92890512478334 101.38309154578019,91.17117833317025 98.56288144073915,89.42508559797716 95.9047523762274,88.78264589801256 91.3664832416107,89.06268433460355 90.12386193097336,89.42508559797716 88.45982991496567,89.34272181509732 85.99619809907745,91.33590214416472 84.07283641822869,92.42307100036851 82.75457728869515,92.68662491674331 79.21040520264069,92.48895955885382 78.60530265135458,92.24187719170732 78.39999999999418,92.65368072350248 82.14947473737993,93.03253814680647 83.8675337668974,92.88428979829769 85.55317658832064,92.02773853809049 88.47063531764434,89.54039475507307 88.95687843923224,89.34272181509732 90.28594297153177,89.474503828038 93.18179089543992,89.16152120160405 96.04522261134116,89.22741238010349 97.5255627813749,89.4580310879901 98.87623811908998,90.10046549799881 99.31925962984678,89.65570375006791 97.09334667332587,88.93090166003822 94.11105552778463,88.88148310245742 90.64252126062638,89.19446679748216 89.56198099051835,89.49097656475351 91.84192096051993,89.39214009474381 93.28984492245945,89.07915715406125 94.14347173587885,89.29330350568489 96.17488744371803,89.19446679748216 98.06583291647257,89.75453990248934 98.66013006505091,90.34755431590747 98.04422211108613,91.73123794094863 97.78489244624507,93.83966334403522 99.95677838922711,94.53147862049809 98.83301650828798,97.26573903903045 99.91355677839601,96.90337241540692 101.826113056537,96.95278614014387 103.22001000502496,97.31515254547412 102.99309654827812,98.08929359394097" stroke="#4dd2ff" stroke-linecap="round" stroke-linejoin="round" stroke-width="0.5"><title>2022-04-22 10.1km</title></polyline><polyline fill="none" points="166.847781569988,97.96519960090518 168.56791808872367,97.94647068731865 168.69078498292947,97.5906206141808 170.50921501705307,97.08493659595842 171.3078498293762,97.64680755805603 172.45051194541156,97.81536818674067 173.2368600682821,98.28359055684996 174.15836177475285,98.20867513561097 174.60068259388208,98.73308182098117 176.6402730375412,97.57189162537543 177.7092150170647,99.2762142084539 177.4880546075292,101.42998391887522 178.11467576792347,103.17169174998708 179.46621160409995,105.10064203897491 181.13720136522898,106.59882833340816 185.37610921499436,112.04827803715307 187.0102389078529,116.91693290623516 187.59999999997672,116.91693290623516 187.31740614338196,115.21293260529637 186.26075085325283,112.89094802496402 185.38839590444695,109.89475348425185 185.36382252559997,109.27677638892783 186.44505119451787,108.78988246070367 186.64163822526461,108.47152736433782 185.2040955631237,102.29147787855618 184.43003412973485,100.17518500387814 183.72969283279963,98.88291176101484 181.06348122868803,95.64278563391417 177.40204778159386,92.55238705615193 174.5883959044586,91.14762657915708 171.60273037542356,90.47333403502853 168.12559726965264,90.22983830714657 164.9187713310821,90.56698606877762 164.50102389079984,89.72411437958363 161.4047781569825,87.75738414876832 158.41911262800568,87.08306709377212 149.65870307167643,87.75738414876832 146.73447098975885,90.2111078402304 144.43686006823555,91.2787384522453 144.39999999999418,91.82191424860503 146.62389078497654,90.7355594925757 150.27303754267632,87.60753633562854 153.6764505119645,87.73865318526805 155.1385665528942,87.36403312581388 156.39180887374096,87.60753633562854 159.1194539249409,87.55134334364266 160.5569965870527,88.00088633155974 161.46621160409995,88.65646597165323 160.77815699658822,90.34222102977947 160.5569965870527,92.9082563515185 163.00204778157058,93.6387206511572 161.68737201363547,96.69162490860617 163.72696245735278,96.07356033470569 167.64641638225294,96.87891639511508 169.72286689418252,96.20466528351972" stroke="#4dd2ff" stroke-linecap="round" stroke-linejoin="round" stroke-width="0.5"><title>2022-04-21 8.1km</title></polyline><polyline fill="none" points="34.393174061435275,145.94648595120088 36.408191126276506,145.8153835559351 36.911945392464986,145.6093651339761 37.120819112606114,145.19732692476828 36.98566552900593,145.83411248085758 38.484641638206085,145.08495255186426 41.1262798634998,146.18996133925975 42.25665529008256,146.17123248583084 42.600682593823876,146.65818145303638 44.54197952215327,145.45953326850577 45.635494880523765,147.0514845322905 45.43890784980613,149.50490915892442 46.2006825938588,151.2840698575019 47.109897610906046,152.70737398352503 49.29692832764704,154.80483521681163 53.48668941980577,160.17936436919263 55.071672354941256,164.9918332741654 55.59999999997672,164.84203253829037 55.415699658711674,163.9244977823255 54.11331058020005,160.77859581923985 53.33924914675299,157.48277520819101 53.47440273035318,157.145696082036 54.555631399329286,156.71498209275887 54.13788395901793,154.14938364770933 53.007508532406064,149.6360063685206 51.70511945389444,146.90165498334682 48.89146757678827,143.47423832864297 45.38976109214127,140.58986661239032 42.723549488029676,139.22256833682331 40.2784982935118,138.52954648801096 36.28532423207071,138.1923988617491 32.697610921488376,138.54827687593206 32.673037542641396,138.34224240164622 32.50102389077074,137.74286679769284 29.22047781565925,135.66375281732326 26.22252559728804,135.00816672582732 20.582935153594008,135.38278791383345 19.2559726962063,135.73867664865975 18.334470989735564,135.47644297569786 17.781569965882227,135.60755990433972 14.746757679182338,138.02382459165528 12.42457337884116,139.1476473041621 12.39999999999418,139.70955358246283 14.611604095582152,138.60446801717626 18.23617747440585,135.60755990433972 19.796587030723458,135.81360041979497 23.101706484652823,135.4577119708265 26.296245733770775,135.4577119708265 28.17610921501182,135.7948694826846 29.50307167234132,136.73141173154727 28.74129692831775,138.3235119723613" stroke="#4dd2ff" stroke-linecap="round" stroke-linejoin="round" stroke-width="0.5"><title>2022-04-19 7.2km</title></polyline><polyline fill="none" points="84.06002441665623,139.28040808966034 84.12245251942659,138.9314853502874 87.1814295569784,138.74116353136196 90.26121596212033,137.59922780227498 95.00575177546125,139.69277033332037 96.89940422726795,139.56588975756313 97.31559157930315,140.39061167827458 100.45780608721543,138.36051920546743 101.1653245856869,138.9314853502874 102.45550537708914,141.27876893166103 102.01850865746383,145.18025772167312 103.07978640514193,147.8129152242036 104.619679607742,150.25522090766754 108.1988908352796,153.6490115737106 115.48216949612834,163.06877749189152 118.16657791682519,171.44143129237636 118.4787184309098,171.44143129237636 119.04057135613402,171.187721029346 118.95733388577355,169.50688024614647 116.14806925936136,162.7199072878866 115.25326645246241,158.69198641349794 117.4382500507636,157.0744459815469 115.10760087927338,146.89307602301415 112.73533297260292,140.8029710240662 108.05322526209056,135.25188954660553 101.81041498144623,129.92266780580394 99.66705011838349,128.90755756602448 98.39767869462958,128.40000000000873 98.18958501861198,130.90604962994985 99.16762529592961,132.17492035738542 103.26707071362762,135.5690994572069 105.80581356107723,139.12180694000563 107.76189411565429,142.35723888366192 108.67750629014336,145.90979371295543 114.64979479205795,145.05338155316713 115.81511937774485,148.4472839666123 117.54229688871419,157.16959587721794 115.60702570172725,158.5651210957585 117.14691890432732,164.4959657592699 119.49837744334945,171.06086574507935 118.37467159284279,171.60000000000582 117.60472499154275,170.5534435892332 115.46136012848001,164.30567473516567 114.17117933719419,161.80015487565834 108.53184071695432,154.4102256383194 104.39077656413428,150.38209289847873 101.74798687861767,145.78291813044052 101.60232130542863,144.5458758603054 102.22660233348142,141.69112595904153 105.55610114982119,139.66105019889073 107.72027538041584,142.32551928414614 108.80236249580048,145.97323146612325 114.17117933719419,144.67275243639597 112.23590815014904,140.3588916840672 106.67980700032786,134.01476480878773 101.74798687861767,130.01783405638707 98.4184880622197,128.43172239561682 98.29363185662078,131.28671191836474 100.16647494083736,133.12656671454897 98.4184880622197,134.58574666087225 96.25431383162504,134.01476480878773 95.50517659791512,134.52230433476507 94.33985201222822,135.9497505092586 94.6311831586645,138.70944320588023 89.40803189045982,139.56588975756313 88.26351667230483,140.70781127053488 85.01725532638375,142.57927590092004 82.60336868447484,145.6560424459749 80.50162255665055,144.51415670040296 83.58140896179248,137.09169816183567 86.28662675007945,137.12341881217435 89.01265390595654,136.07663398934528 90.21959722688189,137.59922780227498 87.5976169090718,139.1852474189509 83.4981714913738,139.31212830041477" stroke="#4dd2ff" stroke-linecap="round" stroke-linejoin="round" stroke-width="0.5"><title>2022-04-10 10.4km</title></polyline><polyline fill="none" points="148.1283597772126,139.36134430191305 148.35963982722024,139.00879816057568 150.94577129470417,139.16904650314245 154.73035393015016,137.72680562795722 156.01290693430929,138.68830099268234 159.4400567652774,139.84208778523316 161.35337354207877,139.6497905656288 161.6477299692342,140.54717560815334 165.0118034229963,138.6242014819145 166.92512019973947,141.22021107919863 166.5676873953198,145.29041273682378 167.57690943137277,147.88631391854142 169.86868447175948,151.41154422637192 173.1276306299842,154.3919054797152 180.1711594236549,163.49287930718856 182.75729089119704,171.56795685517136 183.8716402227874,171.60000000000582 180.04500666912645,159.71155177960463 180.02398121007718,158.71813731794828 182.25267987314146,157.5965329145838 179.58244656928582,145.54679991767625 177.43784974253504,141.15611258515855 172.8753251209855,135.5473946911079 166.3364073453704,130.00258270023915 162.93028297345154,128.40000000000873 162.82515567808878,131.50899576669326 167.87126585864462,135.5473946911079 170.37329548981506,139.93823630810948 167.11434933153214,141.63685066280595 165.13795617752476,138.75240047783882 161.9000354783493,140.64332370631746 158.03135100658983,139.13699684753374 156.34931427973788,139.00879816057568 154.2047174530453,139.61774100655748 151.55550960818073,141.5086539837066" stroke="#4dd2ff" stroke-linecap="round" stroke-linejoin="round" stroke-width="0.5"><title>2022-04-09 5.2km</title></polyline><polyline fill="none" points="16.10456252488075,187.3374073904124 18.4611633446184,187.14496681229502 18.524286580854096,186.8242320001882 22.879789881699253,185.57336007952108 24.079131370352115,186.69593789509963 26.014910615223926,186.95252600230742 27.466745048761368,187.72228785109473 29.276277821103577,187.72228785109473 29.80230478977319,188.49204599038057 33.02158983820118,186.43934937562153 33.96843838185305,187.30533397689578 35.04153339803452,189.32594645521021 34.66279398050392,193.27087810491503 35.69380683917552,196.0290651263349 38.30290060391417,199.717264048566 41.2276105498313,202.34705823050172 48.1922076154151,211.48685984265467 50.92754785268335,219.60000000000582 51.89543747511925,219.4396652526484 51.706067766353954,217.5797704225697 49.58091881283326,212.60925556826987 48.065961142943706,206.8689201757661 48.40261840290623,206.2916683309886 50.233192253974266,205.42578665282053 49.11801508034114,199.42862546512333 46.76141426060349,191.25031552855216 45.37270306318533,188.52411916565325 42.91089684970211,185.57336007952108 36.95627156406408,179.832053039514 34.557588586816564,178.0037722812849 31.02268735721009,176.40000000000873 30.749153333483264,178.54905118855822 31.127892750897445,179.73582825818448 35.630683602939826,183.39232919807546 38.492270312679466,187.72228785109473 35.294026342977304,189.4863114301843 32.95846660196548,186.66386435274035 30.075838813500013,188.42789962043753 25.783458748890553,186.9845994867792 21.932941338105593,187.56192110518168" stroke="#4dd2ff" stroke-linecap="round" stroke-linejoin="round" stroke-width="0.5"><title>2022-04-07 5.0km</title></polyline><polyline fill="none" points="82.096807210939,186.2396038750594 81.90757792722434,186.6242014804011 82.43321482650936,186.9446987768897 84.89319551503286,186.9446987768897 89.16136713710148,185.69475568119378 90.44392117130337,186.68830099113984 92.69364710018272,187.04084784031147 93.51364066306269,187.58569143929344 95.44798445230117,187.6818401166238 95.84746849577641,188.45102745034092 99.16949369915528,186.46395259075507 100.17871654569171,187.29724505974445 101.31409224809613,189.5727523342648 100.95665915659629,193.6749933515821 102.7858755660709,197.36051060708996 104.61509197554551,199.76406297304493 107.11712361610262,201.75097227042716 114.53911663370673,211.460834533631 117.12525017809821,219.60000000000582 118.09242207277566,219.50387054603198 118.02934564487077,217.86966097298136 114.74937139340909,210.3392634532065 114.118607114302,206.6220001045731 116.22115471138386,205.69267074172967 116.36833304318134,204.7953820853145 113.99245425843401,194.92487395671196 112.43656903662486,190.37397956795758 110.69145453110104,187.90618680523767 109.51402787672123,188.57922497895197 110.18684310774552,187.45749311272812 106.86481790436665,183.22689057156094 100.85153177683242,178.19489154256007 97.1510480059078,176.40000000000873 96.94079324620543,178.57950853284274 97.34027728968067,179.76540508477774 101.79767819546396,183.1948401244008 104.88842316315277,187.329294683208 102.91202842193889,188.89971834988683 101.35614320007153,189.50865398181486 99.50590131466743,186.78445020900108 98.72795870376285,186.91264907614095 98.09719442465575,186.20755403283692 97.08797157806111,182.81023425568128 99.0433408432873,180.98334372331738 101.83972914743936,183.32304187460977 104.86739768722327,187.45749311272812 101.73460176750086,189.41250640498765 101.37716867605923,189.4766047958983 99.23257012706017,186.59215171531832 96.09977420739597,188.45102745034092 95.36388254846679,187.84208778344328 93.45056423509959,187.64979056388256 88.93008690141141,185.95115506292495 86.63831002061488,187.0728975153179 83.61064148083096,187.26519542990718" stroke="#4dd2ff" stroke-linecap="round" stroke-linejoin="round" stroke-width="0.5"><title>2022-04-03 6.2km</title></polyline><polyline fill="none" points="184.55737704917556,204.9974833970773 185.47540983610088,201.19894681542064 185.18688524595927,199.6395266057225 187.60000000003492,198.4399642873468 187.60000000003492,197.2803805100848 180.36065573774977,192.6419778663112 176.242622950871,191.52234724549635 167.40327868849272,191.6423079703818 159.42950819677208,192.88189789450553 155.94098360656062,192.60199116688455 149.69836065574782,197.64025206014048 144.6360655737226,200.1593346993177 144.40000000002328,201.23893178836443 148.80655737710185,199.35962937786826 156.07213114749175,192.96187117301452 157.54098360653734,192.48203102021944 163.86229508195538,192.56200445932336 167.63934426230844,191.7222817466827 176.6885245902231,192.52201774371497 181.20000000001164,194.44137103078538 182.17049180326285,193.761602190978 181.30491803277982,192.88189789450553 174.17049180326285,191.4023864485789 161.81639344268478,192.2820972819609 159.40327868849272,193.00185780014726 156.20327868853929,192.60199116688455 148.28196721314453,198.79983374176663 144.40000000002328,200.35926052788273 144.76721311477013,201.23893178836443 149.5147540983744,198.87980464319116 155.91475409839768,193.16180422864272 157.8557377049583,192.44204428869125 159.03606557374587,192.6419778663112 163.31147540989332,191.60232107009506 175.14098360657226,191.00251660290814 182.1967213115422,193.08183103035844" stroke="#4dd2ff" stroke-linecap="round" stroke-linejoin="round" stroke-width="0.5"><title>2022-03-24 5.1km</title></polyline><polyline fill="none" points="38.03963965049479,266.58142449508887 36.84683266712818,266.314653299567 35.145094704057556,267.59999999999854 34.381698234705254,267.2119722497955 33.99999999994179,266.2418974166576 33.506973113515414,261.85221133563755 32.93442576145753,260.4940440771388 32.25054975767853,260.00898063814384 28.290430572640616,259.9119677164708 26.27061074739322,257.9716929067872 45.816741182410624,231.84770617596223 36.4492303392617,224.40000000000146 22.18325881753117,253.50894246929238 30.978222308680415,262.4827837963894 31.518961474474054,262.0462339821679" stroke="#4dd2ff" stroke-linecap="round" stroke-linejoin="round" stroke-width="0.5"><title>2021-10-26 5.0km</title></polyline></svg>