<?xml version="1.0" encoding="utf-8" ?>
<svg baseProfile="full" height="300mm" version="1.1" viewBox="0,0,200,300" width="200mm" xmlns="http://www.w3.org/2000/svg" xmlns:ev="http://www.w3.org/2001/xml-events" xmlns:xlink="http://www.w3.org/1999/xlink"><defs /><rect fill="#222222" height="300" width="200" x="0" y="0" /><text fill="#FFFFFF" style="font-size:12px; font-family:Arial; font-weight:bold;" x="10" y="20">Over 5km Runs</text><text fill="#FFFFFF" style="font-size:4px; font-family:Arial" x="10" y="280">ATHLETE</text><text fill="#FFFFFF" style="font-size:9px; font-family:Arial" x="10" y="290">Wenz</text><text fill="#FFFFFF" style="font-size:4px; font-family:Arial" x="120" y="280">STATISTICS</text><text fill="#FFFFFF" style="font-size:3px; font-family:Arial" x="120" y="285">Number: 38</text><text fill="#FFFFFF" style="font-size:3px; font-family:Arial" x="120" y="290">Weekly: 2.9</text><text fill="#FFFFFF" style="font-size:3px; font-family:Arial" x="141" y="285">Total: 291.3 km</text><text fill="#FFFFFF" style="font-size:3px; font-family:Arial" x="141" y="290">Avg: 7.7 km</text><text fill="#FFFFFF" style="font-size:3px; font-family:Arial" x="167" y="285">Min: 5.0 km</text><text fill="#FFFFFF" style="font-size:3px; font-family:Arial" x="167" y="290">Max: 21.4 km</text><polyline fill="none" points="27.16916167664749,42.73133937710372 27.910179640719434,42.71080205171893 29.156437125740922,42.289785063938325 30.564371257496532,42.926443556814775 31.197604790431797,42.926443556814775 31.291916167669115,43.131815573447966 31.669161676662043,43.01886106636084 32.34281437128084,42.525965752200136 32.659431137741194,42.74160803668565 33.05014970060438,43.47067759782658 32.89520958084904,44.69261594816635 33.25224550899293,45.55514308815327 33.8315868263453,46.51006688257257 35.05763473054685,47.68059430743597 37.26721556887787,50.5143918719441 38.1631736526906,53.21456738188135 38.47979041915096,53.1632345759499 38.38547904191364,52.67043701768125 38.17664670658996,51.8696308587314 37.44910179641738,50.25771377675483 37.2065868263453,49.02564098838775 37.913922155683395,48.55333854999844 37.13922155689215,45.20602671243614 36.647455089812865,43.93275855806496 36.24326347305032,43.20369558442326 34.76796407185611,41.42720284913594 33.218562874244526,40.092225500251516 32.160928143697674,39.42472375696161 31.049401197597035,38.95233264291892 29.095808383252006,38.56209321382266 27.667664670647355,38.47993716503697 26.01047904191364,38.675057565327734 25.788173652690602,38.212929095021536 24.12425149702176,37.16542243376898 22.601796407194342,36.764899510169926 17.758233532949816,37.13461308949263 16.14146706587053,38.4183200418629 14.592065868258942,39.17825937233283 12.005239520978648,39.07556552816095 11.634730538920849,38.90098551975461 11.5,39.13718185940161 11.850299401208758,39.29122236273179 13.150449101813138,39.38364644203466 15.0097305389354,39.31176106148632 16.909431137726642,38.120502899804706 17.892964071870665,37.17569221109079 18.714820359295118,37.26812011401125 20.64820359283476,37.03191514114587 22.534431137726642,37.0524547473251 23.76047904191364,37.31946887679442 24.25898203594261,37.62756037060899 24.777694610791514,37.39135705805165 25.875748502992792,38.233468226830155 25.88248502992792,38.664788089150534 25.309880239525228,38.88044665605412 25.437874251510948,39.15772061999087 26.030688622762682,39.568494099421514 26.724550898215966,39.80468735601244 29.479790419180063,39.537686202926125 29.924401197597035,39.75334108867173 30.604790419180063,40.46191502445072 32.86152694612974,39.784148855243984 34.07410179640283,40.64675878432536 35.2597305389354,41.80715156997394 36.37125748503604,43.244769831060694 36.74850299402897,43.96356380695215 36.916916167669115,44.548860010552744 36.01422155689215,44.88771264573006 35.09131736526615,45.02119943102298 34.70733532933809,43.8403427000012 34.08083832336706,42.99832385646732 33.09730538922304,43.52202013291753 32.91541916168353,44.743957256501744 33.750748503007344,46.386851910974656 35.10479041916551,47.70112963717111 37.29416167666204,50.52465896897047 38.196856287439005,53.23510048983371 38.5,53.14270143914109 38.47305389221583,52.85523665841174 37.624251496992656,50.76080163145889 37.19985029941017,48.9845713843024 37.913922155683395,48.54307105726184 36.74850299402897,43.984100629226305 36.41167664671957,43.31664968327459 34.57934131738148,41.09859627355763 32.8413173652807,39.77387960178385 31.352544910187135,39.02421852872067 29.803143712575547,38.675057565327734 28.05164670657541,38.52101520591532 26.03742514969781,38.71613544947104 25.855538922158303,38.2745464657055 25.41766467067646,38.03834614160587 24.77095808382728,37.411896519817674 23.531437125740922,36.93948681129041 22.520958083856385,36.8059789287945 17.677395209582755,37.12434330394899 16.07410179641738,38.469667649671464 14.666167664690875,39.17825937233283 11.964820359295118,39.08583492185426 11.621257485050592,38.90098551975461 11.54041916168353,39.239875579853106 13.810628742532572,39.43499308052196 14.86152694610064,39.352838434151636 16.09431137725187,38.74694384090981 17.771706586834625,37.257850355279515 18.068113772460492,37.18596198633895 18.37799401198572,37.237310831580544 18.37799401198572,37.442705697041674 17.455089820359717,38.29508557276131 19.28742514969781,38.048615743588016 19.4423652694677,38.685327039471304 21.247754491021624,38.76748275826321 23.403443113784306,38.58263220536537 23.491017964086495,37.68917844663156 23.76047904191364,37.504323995803134 24.13772455090657,37.69944811873938 24.13098802395689,37.89457149709415 23.699850299410173,39.044757334708265 23.565119760489324,39.856033571777516 23.672904191640555,40.04087952167174 25.04715568861866,40.37976202780919 25.370508982043248,39.280953010267694 25.869011976057664,39.5274168999822 27.148952095827553,39.79441810668868 29.46631736526615,39.5274168999822 30.64520958083449,40.47218413972951 31.527694610776962,40.092225500251516 33.333083832330885,41.70446300488402 34.76796407185611,43.79926893172524 34.98353293414402,44.83637148169146 35.24625748503604,44.98012661113171 36.809131736517884,44.579664888333355 36.89670658682007,44.41537199236336 36.694610778446076,43.93275855806496 36.29041916166898,43.20369558442326 35.13173652694968,41.72500073439733 32.92215568861866,39.82522584848266 30.92140718564042,38.921524375215085 28.900449101798586,38.55182371493356 27.997754491021624,38.531284710988984 25.943113772460492,38.69559651153031 25.370508982043248,38.88044665605412 25.660179640733986,39.38364644203466 26.650449101784034,39.77387960178385" stroke="#ff0000" stroke-linecap="round" stroke-linejoin="round" stroke-width="0.5"><title>2022-06-17 21.4km</title></polyline><polyline fill="none" points="75.92900964064756,48.94106604759145 75.69237510953099,48.76071204438631 76.0,47.58840219647391 74.46187554774224,47.227688395745645 73.00657318139565,47.245724120220984 71.16082383872708,47.768758553575026 71.1963190184033,47.04733095217671 73.0184049079835,43.872980664767965 73.29053461877629,42.84489998657955 73.04206836107187,42.14146958414494 74.2370727432135,41.61840238019067 74.35539000874269,41.3117753615079 72.55696757227997,39.85077342540899 69.88299737073248,38.57012255225709 67.56397896580165,38.31759768953634 62.405346187530085,38.732459589147766 61.69544259420945,38.984983285445196 60.39395267306827,38.82264670502627 59.51840490795439,39.11124486733752 56.8444347064069,41.41999678175489 54.38343558282941,42.59238714262028 49.75723049955559,42.37594699709007 49.07099035932333,42.14146958414494 49.0,42.682570382654376 54.45442594218184,42.899009789325646 55.63759859770653,42.53827715515217 57.092900964053115,41.6905497618136 60.382120946538635,38.87675893109554 63.458369851025054,39.02105804125313 65.36327782648732,38.840684117334604 65.49342681857524,39.88684783344797 65.09114811569452,43.205631389260816 65.78921998242731,43.34992354462156 65.22129710778245,43.74672577673482 65.2686240139883,44.82890477248293 67.56397896580165,44.93712195489206 71.4684487291961,45.87499874103378 71.5631025416078,46.235717974203 70.99517966696294,47.93107896534639 71.55127081507817,49.44605532987771 71.4684487291961,50.852796217339346 74.26073619630188,51.68240231046366 75.47940403156099,49.157490373305336" stroke="#4dd2ff" stroke-linecap="round" stroke-linejoin="round" stroke-width="0.5"><title>2022-06-16 5.2km</title></polyline><polyline fill="none" points="113.24285714287544,50.184987654487486 113.21948051950312,48.93780388160667 112.14415584417293,48.652730843561585 110.67142857142608,48.63491374826117 108.46233766237856,49.02688901817601 109.56103896105196,46.4433837438919 110.06363636365859,45.87322072328243 110.53116883119219,44.48343301101704 110.42597402600222,43.46780514673446 111.57142857144936,42.95107773618656 111.4662337662885,42.41652897230961 109.97012987014023,41.31178465465928 107.78441558446502,40.1713889951352 105.99610389611917,39.81501234550524 99.74285714287544,40.18920779001928 99.10000000003492,40.47430802181043 97.6740259740327,40.26048293385975 94.63506493507884,42.630348864302505 91.97012987014023,43.96671151526971 87.34155844157794,43.80634905989427 86.90909090911737,43.46780514673446 86.5,43.948893478969694 89.51558441558154,44.305253524806176 92.58961038963753,44.19834566133068 95.09090909094084,42.755076896697574 97.91948051951476,40.31393925414886 105.30649350650492,40.22484536910633 106.93116883118637,40.45648928418814 107.93636363637052,40.812863357212336 108.49740259742248,41.472151618749194 107.79610389613663,43.14707814272697 107.50389610390994,45.285236270974565 109.68961038961424,46.15830269154685 108.5324675324955,49.00907199802168 110.65974025975447,48.51019398110657 112.99740259745158,48.72399918895826 113.5,48.93780388160667 113.25454545454704,49.864284930037684 113.45324675325537,50.13153728092584" stroke="#4dd2ff" stroke-linecap="round" stroke-linejoin="round" stroke-width="0.5"><title>2022-06-15 5.0km</title></polyline><polyline fill="none" points="150.8236830648384,50.22329433849518 150.67087505437667,49.91869414057874 150.89420983890886,49.1123944801584 149.68350021765218,48.73611881193938 148.43752720940392,48.6286111867812 146.33347845013486,49.23781935029547 145.9925990422489,49.13031232957292 147.08576404003543,46.460513100013486 147.614714845462,45.90504147672618 148.13191118850955,44.20276819210267 147.92033086629817,43.59352565166046 149.04875925116357,43.109712435572874 149.1075315629132,42.5542199523843 146.14540705265244,40.52933097699861 144.39399216367747,39.95590274099959 142.61906835000264,39.77670566150482 136.6478014801687,40.45765264902002 134.8376142794732,40.40389386527386 131.75794514582958,42.87676439592178 129.21898127993336,44.02357964145631 124.74053112755064,43.79063398764265 124.11754462341196,43.539768757196725 124.0,44.005660766604706 124.51719634304754,44.220687027402164 129.4188071397657,44.34611877358111 131.86373530692072,43.30682184032776 135.31954723552917,40.368054658101755 138.41097083152272,40.47557223644253 140.26817588155973,40.11717980486719 144.55855463646003,40.493491820205236 145.55768393559265,40.887721753104415 146.05137135391124,41.6044989867878 145.4401393121516,42.894683497506776 145.0875054418866,45.349566395518195 147.41488898562966,46.08422624912782 146.1218981279817,48.98696943373943 148.43752720940392,48.539021400189085 150.10666086198762,48.75403673691471 150.98824553762097,49.00488730827783 151.0,50.1516237972246" stroke="#4dd2ff" stroke-linecap="round" stroke-linejoin="round" stroke-width="0.5"><title>2022-06-14 5.0km</title></polyline><polyline fill="none" points="177.02095808384183,42.803214884810586 177.88323353293526,42.751871586839115 179.1497005988058,42.3513920935402 180.60479041915096,42.936707218308584 181.1639221556834,42.90590132613215 181.39296407184156,43.22422798385742 182.45733532932354,42.58757268690533 183.05014970060438,43.511747132946766 182.91541916168353,44.66180756498943 183.05014970060438,45.23682808276499 183.87200598801428,46.571672217411106 184.91616766466177,47.516310091687046 187.22679640719434,50.4835916702541 188.11601796407194,53.21457067636584 188.5,53.21457067636584 187.2200598802301,49.35419682884822 187.2402694610646,49.005106104970764 187.86676646706474,48.75868768883447 187.94086826346756,48.58414059238203 186.8428143712663,44.22026956482296 186.20958083833102,43.20369083992409 184.8690119760431,41.581230406947725 183.74401197602856,40.53379189926636 182.2687125748489,39.54794782296085 181.21107784430205,39.05501865778206 179.41242514968326,38.65451021236004 177.5666167664749,38.57235424610917 176.02395209579845,38.7366660466505 175.8218562874099,38.28480732477692 174.15119760477683,37.24757106576362 172.54116766466177,36.83677861234173 169.17964071854658,37.042175251554 168.71482035928057,37.20649196888917 167.9670658682735,37.083254480381584 166.101047904187,38.51073718479165 164.63248502994247,39.21932890745302 161.97155688623025,39.126904456974444 161.59431137723732,38.96259391033527 161.51347305389936,39.239867651544046 162.17365269460424,39.35283059660651 162.23428143713681,39.558217130062985 162.2881736526906,39.30148383431515 163.20434131736693,39.4657932920818 164.62574850300734,39.45552396642597 165.99999999998545,38.839360653888434 167.8997005988058,37.27838036670073 172.02245508981287,37.10379408242443 173.55164670658996,37.2989198903997 174.33982035928057,37.689169272623985 174.7776946107624,37.422156859163806 175.36377245507902,38.02806763579065 175.90269461077696,38.315616000825685 175.91616766467632,38.70585762427072 175.35029940120876,38.952324483649136 175.44461077844608,39.178251394521794 176.42140718562587,39.74306430491197 177.22305389223038,39.87656462677478 179.43937125748198,39.58902503893114 179.86377245507902,39.75333357280033 180.6115269461152,40.49271544221847 181.58832335329498,40.20517931885479 183.20508982034517,41.570961506095045 184.11452095808636,42.87509541537656 184.08083832333796,43.02912478352664 183.0232035927911,43.624700642118114 182.85479041915096,44.53858804142874 182.95583832333796,44.99039150965473 184.0336826347193,46.77702976125147 184.94985029939562,47.56764860666226 187.2402694610646,50.50412589108237 188.11601796407194,53.040038785842626 188.4326347305323,52.91683944576653 188.4326347305323,52.680706547744194 187.46257485028764,50.40145470454081 187.17964071854658,49.14884963277291 187.22679640719434,48.994838694681675 187.89371257483435,48.72788530332036 187.89371257483435,48.34798769020563 187.0920658682735,45.13414632162676 186.69461077843152,44.07651218401952 186.27694610776962,43.27557080760016 184.76122754489188,41.45800346072065 183.53517964070488,40.37975501513574 182.1676646706328,39.47606261564215 181.3458083832229,39.06528806384085 179.3854790418991,38.644240723802795 177.8697604790359,38.55181523392457 176.0374251496978,38.72639657459149 175.84880239520862,38.30534644418367 174.09056886227336,37.18595240811919 173.154191616748,36.87785800615893 172.06961077843152,36.785429323630524 168.72829341316537,37.18595240811919 167.83907185628777,37.083254480381584 166.03368263473385,38.51073718479165 164.6055389221583,39.20905953232068 161.96482035928057,39.11663506328114 161.64146706585598,38.96259391033527 161.5,39.239867651544046 162.05239520958276,39.3733692870519 164.61227544909343,39.414446643244446 164.65269461077696,39.126904456974444 166.03368263473385,38.479928626300534 167.16541916166898,37.51458439083581" stroke="#4dd2ff" stroke-linecap="round" stroke-linejoin="round" stroke-width="0.5"><title>2022-06-11 15.5km</title></polyline><polyline fill="none" points="26.901551163377007,72.75597611462581 27.88103577683796,72.7250853309888 29.191518638981506,72.3338004611287 30.664123092326918,72.9722110789553 31.150487865888863,72.9619141965486 31.413935451593716,73.19874196840465 32.20427820866462,72.64270981704249 32.481235926941736,72.60152201042729 33.04866149611189,73.42527185719155 32.92031523642072,74.753540614558 33.27833375030605,75.62873765984114 33.94708531399374,76.63776983395292 35.14948711534089,77.7600374012145 37.324618463841034,80.59133726657456 38.16224668500945,83.18570027383248 38.5,83.20628993153878 38.43920440328657,82.67095614485152 37.69614711031318,80.88990159653986 37.25031273455534,79.34558458257743 37.25031273455534,79.02641993465659 37.92581936453644,78.73814048093845 37.96634976231144,78.55281711924545 36.932824618474115,74.39316101925942 36.48699024267262,73.44586543380501 35.01438578934176,71.54092459674575 32.94733550163801,69.87275612564918 31.25856892669981,69.02835386705192 29.81973980483599,68.67823177939135 27.69189392043336,68.51346761679815 26.043657743313815,68.7297204716233 25.901801351006725,68.33840511398739 24.152239179384196,67.18503721435263 22.51751313485147,66.79371006846122 19.126469852388254,67.04086440280662 18.8224918689084,67.1747391698409 17.910557918425184,67.07175861082942 15.992119089336484,68.54436093762342 14.99912434325961,69.06954454373772 14.073680260204128,69.24460455046574 11.939079309493536,69.10043752952333 11.58106079560821,68.90478163851003 11.5,69.19311637523424 13.209031773847528,69.41966395960844 15.05316487365053,69.31668790893673 16.05291468600626,68.77091138818287 17.586314736050554,67.3806996673884 17.978108581432025,67.1747391698409 18.795471603720216,67.27771952200783 21.9771078308695,67.07175861082942 23.355141356019885,67.21593133553324 23.72667000249203,67.3292096205405 24.172504378278973,67.76172440698065 23.79422066549887,68.58555200308547 23.611833875402226,69.65650809122599 23.692894671010436,70.05811085787718 25.030397798356717,70.36703392273557 25.39517137853545,69.29609267401975 26.253064798598643,69.6359129927987 27.32712034024007,69.81097106600646 29.64410808106186,69.58442521044708 30.650612959710998,70.47000786411081 31.64360770577332,70.19197774779605 33.210783087299205,71.56151893012793 34.11596197147446,72.82805453738183 34.170002501879935,72.92072664634179 33.60933199900319,73.37378787940906 33.0959469602094,73.57972348033582 32.467725794325816,72.59122505359846 31.393670252684387,73.22963246670042 30.204778583953157,72.7662730383563 29.319864898658125,72.7662730383563 28.732174130578642,72.98250795929198 27.48248686514853,73.85773522977979 26.503002251687576,73.2914134074963 26.75293970477651,72.7044914649232 26.928571428579744,72.73538226094752" stroke="#4dd2ff" stroke-linecap="round" stroke-linejoin="round" stroke-width="0.5"><title>2022-06-10 10.5km</title></polyline><polyline fill="none" points="76.0,80.24752671007445 75.59019947960041,79.96196342596522 75.83607979185763,79.08742016135511 75.59019947960041,78.85539703463292 73.31873373803683,78.64122130317264 70.9653078924166,79.10526806911366 71.55073720726068,77.24906646905583 72.74501300955308,75.5356152008826 73.04943625326268,74.19695841388602 72.86209887251607,73.4829998834175 74.03295750217512,73.05462201230694 73.99783174326876,72.69763887588488 73.89245446660789,72.35850356823357 72.28837814394501,71.2161435375092 69.2207285342447,69.93097095213307 67.60494362533791,69.75247328993282 62.13703382477979,70.23441615512274 61.50477016475634,70.53786032211792 60.216825672163395,70.32366454706062 59.59627059844206,70.55570994670416 56.83304423242225,72.82258313673083 55.20555073721334,73.7150370348827 53.09800520379213,74.03631824452168 52.13790112751303,73.73288602146204 49.83130962704308,73.8042819318216 49.19904596704873,73.46515084665589 49.0,73.982771456911 54.44449262789567,74.28620282688644 54.47961838680203,73.76858398378681 57.00867302689585,72.50129753968213 59.174761491740355,70.55570994670416 60.39245446660789,70.09161854157719 60.95446660881862,70.16301737703179 60.95446660881862,71.05549798056018 59.51431049435632,72.2514079390603 59.51431049435632,72.50129753968213 62.382914137037005,72.05506561710354 62.76929748483235,73.1617166736687 64.958803122252,73.10816935914772 64.99392888115835,74.60748197192879 65.70815264523844,74.73242354802642 65.15784908930073,75.10724722260784 65.23980919341557,76.3031026655517 67.07805724194623,76.3031026655517 70.08716392019414,76.89210017876758 71.35169124021195,77.37400433201401 71.01214223765419,79.06957225005317 73.01431049435632,78.4091970117006 75.67215958365705,78.81970111527335 75.92974848221638,79.05172433517873 75.90633130961214,80.15828828232043" stroke="#4dd2ff" stroke-linecap="round" stroke-linejoin="round" stroke-width="0.5"><title>2022-06-09 5.2km</title></polyline><polyline fill="none" points="98.8505121638882,72.0761975475616 99.94814340589801,72.04984874804359 101.47791293213959,71.56239404837834 103.35339308579569,72.37920798149935 104.16581306018634,72.36603364388793 104.27816901411279,72.61634560579114 105.66101152368356,71.83905797098123 105.98079385401797,72.1157207270262 106.51664532651193,73.05109569108026 106.29193341868813,74.39485046973277 106.50800256084767,75.19845537348374 107.51056338028866,76.924196575932 108.97983354673488,78.30739148796056 111.90973111396306,82.02211351729056 113.10243277848349,85.55222184174272 113.5,85.46001993511891 113.33578745197156,84.7355718752151 112.11715749040013,81.77183743438945 111.83194622278097,80.28333364097853 111.93565941101406,80.05939651993685 112.7740076824557,79.63786574820551 111.46895006403793,74.31580683278298 110.70838668374927,72.74808836009834 108.24519846352632,69.98143496717239 106.28329065302387,68.41361292361762 104.2003841229307,67.34641850557455 102.2730473751435,66.85892885973954 99.98271446861327,66.66129689028458 97.48495518567506,66.91163061767656 97.1997439180559,66.30555784511671 96.11075544176856,65.60724966538692 94.95262483996339,64.9221098879716 93.80313700385159,64.57953731607267 92.5499359795358,64.44777815825728 87.80505761844688,64.9221098879716 87.76184379000915,65.43596539180726 88.38412291934947,65.33055946271998 87.58898847628734,65.50184401147999 86.5,66.39778667168503 88.88540332906996,66.21332888886172 89.1014724712004,66.9379814807944 90.7003841229307,67.00385859223752 90.69174135726644,68.04470817440597 91.19302176698693,68.12375936669196 90.78681177977705,68.33456208054122 90.84731113957241,69.26999095188876 93.95870678615756,69.53348963483222 95.45390524968388,70.06048382600784 95.05633802816737,71.43064891326867 95.43661971829715,72.52412552040187 95.35883482717327,73.55171343297116 96.79353393084602,73.89423916082524 98.176376440475,74.6978501958547 99.14436619717162,73.44632054155954 101.15813060180517,72.19476701448366 101.92733674775809,71.99715111725891 100.85563380279928,70.98271347516857 100.01728553138673,71.36477624651525 98.8245838668372,71.40429985452647 98.70358514724649,72.04984874804359" stroke="#4dd2ff" stroke-linecap="round" stroke-linejoin="round" stroke-width="0.5"><title>2022-06-07 8.0km</title></polyline><polyline fill="none" points="149.6455309396697,69.98598847537869 148.7104660046025,71.66283448982358 147.09472880062822,71.15978634186467 146.70970206265338,71.67331460802961 145.3896103896259,72.7632354115267 144.66080977846286,73.16147002818616 144.34453781515185,73.55970160658762 143.43009931246343,75.2993091932185 143.10007639421383,76.65113288949942 142.54316271966673,77.7828653402903 141.97249809016648,80.31869526758601 141.6631016042811,80.61208912672737 140.48051948053762,81.68086709793351 139.54545454545587,82.24668187136558 135.43391902216536,83.2106484725191 133.25439266616013,81.06265505699048 132.09931245225016,80.43395733750003 130.2910618793103,80.04625663621118 130.16042780748103,79.79477356065036 130.3391902215517,78.94600923612597 130.24980901452363,78.53734000979603 129.32849503438047,78.07627345197398 127.53399541635008,76.26340409205659 124.40565317035362,76.14813281311581 124.0,75.88615168702381 124.0,75.3936236103691 126.40641711228818,73.60162054337343 126.3926661573787,73.39202552280767 126.21390374332259,73.3605861971555 125.56760886173288,73.89505215823738 125.38884644766222,73.82169440915095 125.4576012223115,73.6330597238557 129.32161955692573,70.59385138021025 129.37662337662186,69.27331260612118 129.569136745602,69.2104289740164 131.2330022918468,69.60869069794717 133.43315508021624,69.30475439378642 136.00458365165105,67.91081694750756 138.56913674561656,67.1876317256465 139.73796791445056,66.96752988654771 140.08174178763875,67.15618866261866 142.852559205523,66.78935152747727 143.38197097022203,66.88368132277174 143.51948051949148,67.72216089914582 146.29717341483047,67.99466386124186 147.1084797555668,68.2986077943533 146.78533231477195,69.40956021582315 147.1084797555668,70.28992081268007 147.09472880062822,71.13882589712375 148.29793735676503,71.47419200247896 149.3567608861922,72.0610775019959 149.8792971734365,71.28554883336983 151.0,70.4366461351965 150.821237585973,70.0069493830415 150.10618792974856,69.96502755929032" stroke="#4dd2ff" stroke-linecap="round" stroke-linejoin="round" stroke-width="0.5"><title>2022-06-05 8.1km</title></polyline><polyline fill="none" points="166.8842028278741,70.38558569579618 167.002681618731,70.60631914320402 167.1343247196637,70.30531886676181 168.55607020965545,70.38558569579618 171.17576791811734,69.48258015227475 172.34739151631948,70.20498523984133 175.09873232565587,70.7668522532258 175.44100438809255,71.22838350827806 177.65260848365142,70.02438445750886 178.2450024378486,70.62638579602935 178.82423208191176,71.91064319833094 178.53461725986563,74.29851543538825 179.2323256947857,75.98403795851482 180.81204290589085,78.25142222626164 182.47074597759638,79.65597074927064 184.97196489517228,82.72584380240005 187.1177474402648,85.71536811264377 187.97342759626918,87.80196296622307 188.5,87.54114099172875 187.43369088249165,84.83256486865139 187.05192588979844,82.74590802202147 187.20989761091187,82.38475145293341 188.35519258899149,81.92327171543002 188.3683568990673,81.52198325515201 186.82813261821866,74.80016201465332 185.43271574843675,71.50931453298108 182.91833252072684,68.43909691765293 178.53461725986563,64.76675196500582 175.46733300830238,63.141244718804955 170.66235982449143,62.1980370337842 166.2391516333737,62.318447021214524 164.6331058020296,62.4990617302974 163.7379327157396,62.94056297822681 163.8695758166723,63.78342358050577 163.39566065333202,65.79020592570305 163.02705997074372,65.89054398510052 161.5,69.14144260122703 163.80375426617684,68.57956644924707 166.41028766459203,68.88057192351698 167.002681618731,69.10130869513523 166.81838127743686,70.10465151218523 167.29229644077714,70.36551899460028 166.96318868844537,70.52605249150656" stroke="#4dd2ff" stroke-linecap="round" stroke-linejoin="round" stroke-width="0.5"><title>2022-06-04 5.1km</title></polyline><polyline fill="none" points="38.28897090748069,110.15606908709015 38.37103777678567,109.03019182950811 37.50347372988472,108.77999494919641 35.82696482850588,108.61915372621297 33.54081632650923,109.1552900059396 34.12700825009961,107.45751404031034 35.15870603561052,105.97416747660463 35.651107251411304,104.25845868801116 35.47524967434583,103.59718709497247 36.50694745982764,103.15037918301095 36.53039513679687,102.50697184886667 33.43530178029323,100.50523039462132 31.922926617437042,100.02266098713153 30.410551454639062,99.84393091290985 24.794832826737547,100.23713660243811 24.16174554929603,100.46948460237036 22.7079895788047,100.32650128956448 19.026704298739787,103.13250681984937 16.916413373837713,104.06186494381836 13.082718193647452,103.90101519382006 11.699305254034698,103.52569797978504 11.5,104.02612058007799 12.203430308261886,104.22271440314944 17.021927920082817,104.36569145633985 19.308076422050362,103.38271957715187 22.766608771140454,100.43373879570572 24.87689969604253,100.57672193620965 30.047112462023506,100.29075542547798 32.15740338686737,100.61246768539422 33.575987841933966,101.55972480835771 33.08358662613318,102.32824676384189 32.602909248817014,105.36652439666796 34.7249240121746,106.11714171602944 33.622883195843315,109.01232064711803 35.698002605262445,108.42256961441308 37.151758575753774,108.58341119267425 38.5,109.03019182950811 38.34759009987465,110.0667142695238" stroke="#4dd2ff" stroke-linecap="round" stroke-linejoin="round" stroke-width="0.5"><title>2022-06-03 5.0km</title></polyline><polyline fill="none" points="75.81233709814842,110.17618970167678 75.60121633362724,109.94376606724836 75.85925282366225,109.19285479421524 74.5338835795119,108.67436474309216 73.07949609035859,108.56709056247928 71.26151172895334,109.19285479421524 70.95655951346271,109.06770229969698 71.14422241531429,108.1379925474539 72.85664639441529,105.3666847280474 73.1146828844503,104.24025753958995 72.93874891396263,103.54293832890107 73.99435273674317,103.11381610007084 73.94743701128755,102.59529064747767 70.83927019982366,100.50327797952195 69.05647263251012,99.94897578709788 67.87185056469752,99.82381029831595 62.71112076455029,100.21718695630989 61.25673327539698,100.57480059169029 60.142484795855125,100.34235189207538 56.43614248483209,103.16745649181394 54.39530842748354,104.0435783152061 49.86794092092896,103.86477864324843 49.246307558671106,103.5071782221712 49.0,103.98993845129735 49.64509122504387,104.2223776280589 53.210686359670945,104.41905645752558 55.21633362292778,104.18661779421382 57.1985230234568,102.9886550604133 60.29496090358589,100.41387463352294 61.667245873162756,100.62844251309434 65.09209383148118,100.23506767221261 69.7367506516166,100.57480059169029 70.96828844482661,101.2721430492893 71.02693310167524,101.62975244732661 70.38184187663137,102.97077489754156 70.06516072980594,105.42032376249699 72.45786272807163,106.09974873541796 71.09730668980046,109.03194441180676 73.33753258033539,108.47769531318772 74.99131190270418,108.74588079172099 76.0,109.15709695658734 75.80060816681362,110.01528109631909" stroke="#4dd2ff" stroke-linecap="round" stroke-linejoin="round" stroke-width="0.5"><title>2022-06-02 5.0km</title></polyline><polyline fill="none" points="95.7124904798402,100.32261414825189 97.16222391472547,100.27559575018677 98.70449352631113,99.78973731142469 99.21858339681057,99.93079329874308 99.20830159939942,99.5546434327407 101.44973343488527,100.55770571388712 102.385376999242,100.60472394202225 102.50875856817584,100.88683271620539 103.25932977916091,100.62039667846693 104.13328255902161,99.93079329874308 104.71934501142823,100.41665085948625 105.19230769231217,101.4353746359775 104.98667174411821,103.50412662093004 105.4699162224133,104.52281010321167 106.68316831684206,106.37207845212106 108.17402894134284,107.64146611335309 111.66984006093116,112.2016885382618 112.92421934500453,116.19754074754019 113.5,116.13486229185946 111.54645849199733,110.28987514191249 111.54645849199733,109.74139544236095 112.61576542269904,109.14589883371082 111.4642041127372,104.00563399666862 110.25095201830845,101.12192258243158 107.43373952782713,97.68954023641709 104.95582635188475,95.80871877186291 102.79664889565902,94.69587806388154 100.53465346537996,94.11594070181309 97.12109672508086,93.80245925245981 94.26275704495492,94.0845926135371 93.3476770754205,94.41374691246165 91.83625285606831,94.36672495475796 87.4870525514416,94.86829104325443 87.04493526276201,95.00935592489986 86.99352627573535,95.58928664869745 86.53084539223346,95.6363078698705 86.5,96.82750269113603 89.50228484388208,97.04693133322144 91.56892612337833,97.59550023957127 92.05217060167342,97.94031300741335 91.64089870528551,99.30387584839627 93.56359482102562,98.81801136093418 95.97981721250108,99.22551081301208" stroke="#4dd2ff" stroke-linecap="round" stroke-linejoin="round" stroke-width="0.5"><title>2022-05-30 6.1km</title></polyline><polyline fill="none" points="137.9111870196357,102.51124906708719 138.0187873612449,102.40580896207757 138.77967549103778,102.46438682171356 140.29376601197873,101.94889963846072 142.0307429547538,102.64012004778488 142.70708795901737,102.65183557736236 142.9684030742792,102.89786115523384 144.0751494449214,102.19492818041545 144.34415029891534,102.39409338307087 144.8283518360695,103.23760905736344 144.62852263025707,104.63172628619941 144.84372331341729,105.26433992388411 145.9888983774872,107.03327869202258 146.9496157130634,107.82986936641828 149.65499573014677,111.30896881353328 150.64645602050587,114.3661880067666 150.9538855678984,114.34276164876428 151.0,113.9796518965777 150.0777113578224,111.68380890069966 149.57813834332046,109.71587157992326 149.66268146882067,109.48158890654668 150.36208368916414,109.21216266927877 150.40051238259184,109.00130648539562 149.17079419299262,104.12797348402819 148.55593509820756,102.97986945066805 147.0725875320495,101.17566032409377 144.65926558498177,99.11363871805588 144.28266438940773,99.05505749417352 142.76857386849588,98.1880485036636 140.71648163962527,97.73110614845427 138.62596071735607,97.62565740439459 136.8736122972041,97.84827119608599 136.59692570453626,97.34445982180478 134.65243381727487,96.12592130227131 132.64645602050587,95.63381199323703 129.43381725021754,95.86815027712146 128.56532877881546,96.10248761974799 127.75832621692098,95.9970359320796 127.27412467976683,96.11420446219199 125.33731853117933,97.6725235363665 124.53800170795876,98.14118278578098 124.0307429547247,98.24663059810337 124.0,98.5746892397874 125.80614859095658,97.64909047507899 127.67378309139167,95.98531906610515 130.0409906063287,96.07905392787143 130.8479931682523,95.87986716658634 131.65499573014677,96.02046965689442 132.83091374894138,95.93845157874603 133.77625960719888,96.0907707749866 134.78309137490578,96.60630971913633 135.37489325364004,96.26652319955974 136.12040990608511,97.02811092137563 136.65072587531176,97.29759342626858 136.61229718191316,97.81312170650199 136.38941076004994,97.93028658945332 136.38172502137604,98.15289921878866 136.77369769429788,98.44580927911011 137.71135781382327,98.7387178688914 140.9624252775684,98.45752565092698 141.39282664388884,98.6449872801677 142.35354397952324,99.5940025350501 144.63620836893097,98.99647621149052 146.84970111015718,100.87104808357253 148.54056362085976,102.9095766330829 149.32450896670343,104.47942938607594 147.25704526048503,105.05346947340877 146.9573014517664,104.72544725789703 146.66524338175077,103.65936232153763 146.0196413322119,102.7924217488835 144.9052092228958,103.31961687526564 144.16737830915372,102.32379985977968 142.9299743808806,102.94472305246381 142.65328778821277,102.73384421857918 142.0384286934277,102.69869767217824 141.50042698546895,102.45267125450482 140.72416737829917,102.40580896207757 140.15542271564482,102.55811127482593 139.62510674638906,102.99158491204435" stroke="#4dd2ff" stroke-linecap="round" stroke-linejoin="round" stroke-width="0.5"><title>2022-05-28 10.0km</title></polyline><polyline fill="none" points="175.54491188176326,102.3802546791594 176.6424104604812,102.33345895274397 177.80898237638758,101.795305397638 178.47669130191207,102.27496424189667 179.05230244458653,102.34515788788121 179.56651506538037,102.63763050252237 180.1574758385541,102.61423274740446 180.44911881751614,102.91840283138299 181.3010233087116,102.31006107544817 181.67708925527404,102.2164694722851 182.31409891985822,103.1991738072029 182.1989766913175,104.70829462165784 182.590392268321,105.67925866669611 183.27345082434476,106.79058319723117 184.58584422970307,107.99546900291898 187.17993177945027,111.36433786784255 188.15463331440696,114.38211750718256 188.5,114.24175912891951 188.45395110858954,113.65692891381332 187.494599204103,111.29415508639067 187.08783399660024,109.5512555655041 187.9167140420759,109.13014450591072 186.80386583285872,104.38073683597759 186.02870949404314,102.83651104190358 183.95650938036852,100.5785920799317 182.16060261515668,99.11616264123222 181.1628766344802,98.71837548348776 180.4644684480154,98.22698759767809 178.33086981240194,97.72389570647283 176.21262080725865,97.58349719402759 174.32461625925498,97.7940948358264 174.20181921546464,97.3260990424933 172.17566799320048,96.06249162197491 170.26463899941882,95.61788249281744 164.83854462762247,96.06249162197491 162.9198408186494,97.60689696962436 161.5,98.28548637280983 161.51534963047015,98.51948088610152 161.82234223990235,98.51948088610152 162.62819783965824,98.09829008552697 164.91529277997324,96.13269275325365 165.25298465034575,96.01569082079004 167.50170551449992,96.03909122608457 168.18476407049457,95.81678699634722 168.890847072209,95.98059019524953 170.3951108584297,95.92208910563568 171.30841387153487,96.09759219817352 172.3214894826524,96.61239821959316 172.9047754406056,96.23799429151404 173.55713473563083,96.99849975033067 174.17879476974485,97.3377989831315 174.2708925525949,97.665396367418 173.9101762365026,98.05149091970816 174.09437180217355,98.33228535065791 174.53183627061662,98.53118058714244 175.82120523025515,98.76517411360692 178.46901648663334,98.42588319358038 178.80670835703495,98.56627967598615 179.89653212053236,99.60754302758869 181.1628766344802,99.17466052361851 182.1375781694369,99.05766470013987 184.16372939173016,100.64878776971454 185.83683911315165,102.62593162614576 186.4661739624862,103.65542375716541 186.76549175669788,104.53281746548964 184.71631608871394,105.04754895842052 184.47839681638288,104.75508844072465 184.20977828311152,103.71391708210285 183.47299602048588,102.75461913732579 182.4215463331493,103.29276383181059 181.6387151790841,102.25156634109953 180.42609437179635,102.9418004643776 180.14980102333357,102.69612484930258 179.55884025015985,102.67272711764235 179.02160318364622,102.36855575106165 177.6247868106875,102.54403942558565" stroke="#4dd2ff" stroke-linecap="round" stroke-linejoin="round" stroke-width="0.5"><title>2022-05-26 10.0km</title></polyline><polyline fill="none" points="16.864580927824136,129.2557059394967 18.568789510172792,129.17985859893815 20.8327746342693,128.4403438356385 23.532141512958333,129.69182696571806 24.4651024157356,129.63494172866922 24.88804469164461,130.2417158235694 27.002756071276963,128.9333543212997 28.08499071848928,130.6399092046122 27.74912479351042,132.59292861770518 28.483054036973044,134.52694687450276 29.34137806756189,135.98691481383867 31.7297579786391,138.24318450874853 35.90942282305332,143.62767755735695 37.45191818231251,148.36729415820446 38.136089511041064,148.5 38.011694724002155,147.60897148519143 36.15821239713114,143.11578473315603 35.859664908231935,140.78379342413973 36.991657470265636,140.34772361824434 37.116052257304545,140.02540985892847 35.026219835097436,131.8344792737189 34.11813788971631,130.14690762824466 31.381452574947616,126.98025922156376 27.774003750877455,123.98417075153702 25.78368715828401,122.86535384506715 22.636499046289828,121.84134031206486 18.419515765766846,121.5 14.73743006947916,121.86030362654128 13.854227081494173,122.12578962960106 14.053258740750607,122.84639073239669 13.568119071336696,124.93231029542221 12.684916083351709,125.95629031024873 11.863910488958936,128.04214117977244 13.966182389849564,127.47327732998383" stroke="#4dd2ff" stroke-linecap="round" stroke-linejoin="round" stroke-width="0.5"><title>2022-05-24 5.1km</title></polyline><polyline fill="none" points="75.95302305350197,140.22770138727356 75.69464984774822,139.94126833195332 75.9295345802384,139.02825682659022 74.16789908657665,138.67021054673387 72.9112657677615,138.74181991774094 71.29056111350656,139.24308390432998 71.00869943454745,139.04615910282155 71.51370160939405,137.70347840870818 72.7703349282383,135.64466206981888 73.18138321008882,134.31983337207203 73.02870813399204,133.58579818532598 74.1326663767104,133.1203093256263 74.1326663767104,132.78014285262907 73.93301435408648,132.2967461582448 72.3357981731242,131.22252189751453 69.66985645933892,130.0587643412291 67.7438016528904,129.77229861272644 62.81122227056767,130.18409280799824 61.36668116573128,130.50636519915133 60.35667681603809,130.29151706781704 59.61678990867222,130.5421731707538 56.4693344932748,133.10240585937572 54.50804697696003,133.99757476602827 50.221400608978,133.85434834497573 49.16441931272857,133.5499914362881 49.0,133.89015497185756 49.469769464980345,134.1408009569932 51.81861678994028,134.39144623745233 55.2479338843259,134.23031720943254 57.1857329273771,133.10240585937572 59.769464984798105,130.77492463527597 60.47411918226862,130.45265321487386 67.29752066117362,130.34522914922854 69.72857764246874,130.57798112794262 71.05567638101638,131.49107917622314 70.397999130073,132.76223931811546 70.10439321442391,135.3403112730375 72.48847324925009,136.07433201411186 71.10265332757263,139.04615910282155 73.40452370597632,138.50908925168187 74.61418007832253,138.63440583971533 76.0,139.01035454677185 75.9295345802384,139.74434507260594" stroke="#4dd2ff" stroke-linecap="round" stroke-linejoin="round" stroke-width="0.5"><title>2022-05-22 5.0km</title></polyline><polyline fill="none" points="91.92748316246434,128.86269554679893 92.00159961392637,129.25811808067374 92.96511348281638,129.29577728267031 94.29920960901654,129.10748112149304 95.9544770248176,128.44844158003252 96.4979976688046,128.91918458227883 97.7950355692301,129.12631075464742 98.73384395433823,129.67236847070308 99.70971056510461,129.59705035408115 100.00617637092364,130.0489581464135 101.8837931411108,128.86269554679893 102.50143023655983,129.35226605726348 103.10671459007426,130.538522463954 102.78554330047336,132.85450362960546 103.58847152453382,134.6620589452432 104.93492039258126,136.58254829498037 106.60254055034602,137.99464772655483 110.97541118608206,143.64283284229168 112.5565621504793,148.5 113.13714102018275,148.38704548114765 113.05067182678613,147.84109672201885 111.06188037944958,143.02154913020786 110.75306183175417,141.0070554529375 110.87658925083815,140.6681644141281 111.95127779690665,140.2351351936304 112.02539424836868,139.7079664873454 110.13542473627604,132.13900335886865 109.24602731887717,130.3313994107666 105.82431781006744,126.3018235327254 102.79789604237885,123.94801919203746 99.46265572693665,122.32856749671919 95.54683654182008,121.57532462038216 92.92805525707081,121.5 89.90163348938222,121.83896031535551 88.99988333007786,122.19675043015013 89.09870526532177,122.93115744131501 88.61694833086221,125.02136129964492 87.97460575160221,125.64276427288132 86.86285897978814,128.14716481844516 88.99988333007786,127.46928856580053 90.81573639065027,127.63875808839657 92.03865783964284,128.12833498873806 91.76689751763479,128.84386586070468" stroke="#4dd2ff" stroke-linecap="round" stroke-linejoin="round" stroke-width="0.5"><title>2022-05-16 5.4km</title></polyline><polyline fill="none" points="139.74438342486974,132.67369229413816 140.3577134298539,132.72506128719033 141.69221168247168,132.29356014257064 142.00898652021715,132.57095415328513 142.71667498753231,132.7045136961533 143.07388916627679,132.92026299049394 143.67373939092795,132.89971547784444 143.88267598602397,133.17710620233265 144.96779830254673,132.550406500377 145.58112830756,133.47504271284924 145.44633050427365,134.81059885478317 145.98552171741903,135.95093074027682 146.69321018474875,136.91659732903645 147.4952571143367,137.58433484430861 149.8339990015229,140.56336529452528 150.69670494260208,143.19298599254398 151.0,143.1724426045439 150.9865202196961,142.87456255188954 150.0227159261267,140.31683142592738 149.75986020971322,139.21768680939203 149.8070394408569,139.00196406636314 150.44058911634784,138.69378714160484 150.46080878684006,138.49860746261766 149.47678482277843,134.481849808064 148.8701947079535,133.29011680710028 147.27284073889314,131.39972476659023 145.11607588618062,129.6736536421231 143.88267598602397,129.05718555669955 142.66949575638864,128.73867413559128 140.48577134299558,128.53318184385716 138.52446330504608,128.70785034445726 138.3829256116005,128.3174140492556 137.45282076887088,127.63928077067249 136.53619570644514,127.12553745434343 135.21517723417492,126.80701400745238 132.1148277583561,127.00223829080278 131.36669995007105,127.1974618291897 130.34223664503952,127.13581237124163 128.30004992513568,128.70785034445726 127.18796804793237,129.201028774336 124.49875187219004,129.1085581808511 124.1347978033009,128.92361649247687 124.080878681998,129.01608742022654 124.0,129.2113032744237 124.39091362958425,129.31404816163922 127.08686969547125,129.44761620658755 128.24613080380368,128.99553833960817 130.62531203197432,127.14608728605162 131.95307039441832,127.23856142656223 132.93709435847995,127.0844377661706 135.0601597603818,127.1049876143843 135.86894658015808,127.20773673163785 136.79905142288771,127.63928077067249 137.0956065901264,127.3618600205773 135.69370943585818,126.89948876083508 134.85796305543045,126.80701400745238 132.02046929605422,126.98168840129438 131.02970544183336,127.23856142656223 132.4787818272889,127.1974618291897 133.32126809786132,127.00223829080278 135.06689965052647,127.0741628389842 135.99026460311143,127.26938610291472 136.87993010484206,127.6495555843976 137.2843235147302,127.35158514909926 137.95157264106092,128.0399969762475 138.41662506241119,128.26604063071136 138.44358462309174,128.66675192736875 137.87743384925125,128.89279281276686 137.93809286071337,129.201028774336 139.25911133302725,129.8277695028919 140.48577134299558,129.73530004211352 140.5329505741538,131.15314674247566 140.22965551674133,131.33808037196286 140.21617573640833,131.65657561141052" stroke="#4dd2ff" stroke-linecap="round" stroke-linejoin="round" stroke-width="0.5"><title>2022-05-14 9.9km</title></polyline><polyline fill="none" points="173.12118126271525,131.85063988598267 173.99185336049413,131.9065215106748 175.81568228104152,131.26388011698873 176.65885947045172,131.78078779202042 177.1812627291074,131.82269905683643 177.79531568224775,132.1859289608692 178.36354378817487,132.1300475605858 178.91344195519923,132.49327586010259 180.2698574337992,131.5852015558121 181.13136456211214,132.91238308015818 180.9389002036478,134.60275657587408 181.4338085539639,135.77621485251075 182.04786150713335,136.83789814523698 183.6517311608768,138.33260900665118 186.9144602851011,142.5232159167208 188.1883910386823,146.16883864521878 188.4633401221945,146.07106581552216 188.5,145.54029662862376 187.43686354375677,142.95623091082598 186.85947046839283,140.52572476842033 186.94195519346977,140.30222568841054 187.8309572301223,139.8552253748021 186.80448065171367,135.38506429260087 185.65885947045172,132.63297854728444 183.21181262729806,129.74107572561843 180.98472505089012,127.96675700737615 178.6201629327552,126.82110985691179 176.2647657841153,126.33210837727165 174.3309572301514,126.17842148805721 171.5906313645246,126.4299089481392 171.36150712828385,125.92693311888434 170.12423625253723,125.0187731058686 168.8136456211796,124.27826462882513 167.78716904277098,123.95690944101443 166.52240325862658,123.83116135477758 162.18737270872225,124.16648907967829 161.5,124.41798381266926 166.78818737270194,124.18046103313463 168.51120162929874,124.59961833220586 169.07026476575993,125.06068844436595 168.52036659873556,126.17842148805721 168.30040733196074,128.13441110557324 170.06008146639215,128.83296549932493 169.0977596740995,131.02638070840112 170.5733197555819,130.57932079879174 172.36965376781882,130.76093923351436 172.8920570264745,130.95652778690055 172.80040733196074,131.78078779202042" stroke="#4dd2ff" stroke-linecap="round" stroke-linejoin="round" stroke-width="0.5"><title>2022-05-12 7.0km</title></polyline><polyline fill="none" points="21.27977099234704,160.35114322208392 22.43396946566645,160.35114322208392 24.340458015270997,159.69137454557494 24.79389312976855,160.09980342997733 26.39122137404047,160.64960817641258 27.349618320615264,160.68102547380113 27.792748091596877,161.1051577535327 29.420992366416613,160.11551219062676 30.235114503797377,161.43503682586015 30.11145038169343,163.7441513863232 30.801908396941144,165.1421536104317 31.8324427480984,166.60296070558252 33.15152671755641,167.71818217102555 35.16106870229123,170.16847209278785 35.36717557252268,170.7653259638828 36.35648854961619,171.78624966227653 36.995419847313315,172.9013972488101 37.922900763340294,176.07398373333126 38.5,175.9169280229762 36.78931297708186,170.74961934140447 36.696564885467524,169.9956977540569 37.758015267172595,169.3360104056701 36.6347328244301,164.40388588576752 35.88244274808676,162.3775407967114 35.305343511427054,161.27795172680635 32.986641221359605,158.48178418714087 31.121374045789707,156.8008938056082 29.019083969440544,155.40274251588562 27.62786259542918,154.7429321048985 26.123282442742493,154.3501851705514 22.650381679384736,153.92601626667602 19.332061068707844,154.24021567554882 18.456106870202348,154.57012369672884 17.04427480918821,154.49157429404295 12.097709923662478,155.10425754309108 12.01526717559318,155.74835527204414 11.71641221374739,155.7169359936961 11.541221374034649,155.95258027392265 11.5,156.84802206541644 11.706106870231451,157.09937230492505 13.262213740468724,157.03653482079972 15.951908396964427,157.47639615002845 17.095801526709693,157.9948009702057 16.77633587786113,159.45574152696645 18.538549618329853,158.8430923569831 19.77519083971856,158.95305538179673 21.03244274808094,159.33007029347937 20.826335877849488,160.11551219062676" stroke="#4dd2ff" stroke-linecap="round" stroke-linejoin="round" stroke-width="0.5"><title>2022-05-10 6.0km</title></polyline><polyline fill="none" points="64.64504864056653,162.76269890852564 65.31853330008744,162.7524328082509 66.63856323272921,162.28018996819083 68.08655525067297,162.92695623224427 68.68595659766288,162.92695623224427 68.8677974557213,163.16307521058116 69.86455475180992,162.5368442267427 70.0329259167047,162.61897331737782 70.54477425791265,163.39919309847755 70.37640309304697,164.66189199093787 70.77375904214568,165.63712588965427 71.39336492891016,166.5815451992712 72.49114492394438,167.59780301461433 74.34322773761232,169.97925735507306 74.91568969818763,170.87227413846995 75.58917435770854,173.16119996267662 76.0,173.1406719352708 75.77101521576697,172.13478849732928 75.2254926415626,170.9030675424874 74.7742579196929,169.322315511763 74.7607882264856,168.98357657579618 75.45447742579563,168.59351077874817 74.40384135695058,164.31285639132693 73.89199301572808,163.26573529581947 72.61237216263544,161.66421449100744 71.1711149912735,160.35010866883385 70.35619855325785,159.80597683831365 68.90147168868862,159.05650275978041 67.5545023696759,158.72796271365587 65.57445747069141,158.54315800988843 63.55400349215779,158.6971619760916 63.304814168135636,158.28648370197334 61.65477675230068,157.19817032062565 59.87004240458191,156.78748000484848 56.74507358443225,157.0133600868321 56.25342978298431,157.1776358832176 55.270142180102994,157.14683421160953 53.55275629834796,158.49182325140282 52.1519082065206,159.17970473278547 49.54552257420437,159.10783695128703 49.13469693191291,158.9230336206674 49.0,159.16943791302765 51.195559990024776,159.43637455627686 52.441506610120996,159.3439735682914 53.775006235955516,158.63556044526922 55.44524819156504,157.1776358832176 57.58692940881883,157.187903102953 58.1324519830232,156.9825583162201 58.81267148916959,157.1262997535232 60.65128460963024,157.1776358832176 61.863556996773696,157.66019298235187 62.240708406083286,157.34191115172507 62.8872536792187,157.98873989034837 63.37889748068119,158.19408063565788 63.372162634084816,158.676628140729 63.10276877027354,158.85116547835787 63.749314043394406,159.3542403529682 65.19730606135272,159.5082418759339 67.02244948864973,159.26183921649135 67.69593414817064,159.55957561386094 68.65228236466646,160.391174987024 69.13045647295075,160.20637629528574 70.76702419556386,161.53075215943318 71.78398603142705,163.16307521058116 71.64255425293231,163.00908469620117 70.56497879770177,163.56344837736833 70.34272886006511,164.54896896944774 70.45048640559253,164.94933128390403 71.39336492891016,166.5815451992712 72.36991768520966,167.45409101439873 74.63956098779454,170.30772511163377 75.7238712896069,173.2125199951479 75.91918184085807,173.13040791848834 75.93938638063264,172.81222237608745 74.89548515839851,170.26666675747038 74.6732352207473,169.1683435463383 74.73384884011466,168.99384142499548 75.42753803942469,168.6243055551131 74.55874282863806,164.94933128390403 74.02668994762644,163.57371431479623 72.04664504864195,161.19196159924832 70.61212272386183,160.04211023078096 68.81391868297942,159.05650275978041 66.28161636317964,158.5739588402248 63.506859565968625,158.66636121997362 63.351958094295696,158.27621670286317 62.23397355948691,157.42404858805457 60.92067847344151,156.9517565270835 60.01820902968757,156.80801459902068 57.176103766527376,156.99282557514016 56.0311798453331,157.2187047498337 58.42878523323452,157.06469632989683 58.395111000252655,158.46102237157174 58.199800448986934,159.53904212484485 58.597156398100196,159.67250965580024 58.314292841096176,159.75464334781282 58.36143676728534,160.5143737437793 60.98129209280887,160.8018363549745 61.8366176103882,161.12009664635116" stroke="#4dd2ff" stroke-linecap="round" stroke-linejoin="round" stroke-width="0.5"><title>2022-05-08 15.0km</title></polyline><polyline fill="none" points="96.21917808215949,160.24003738549072 96.96917808218859,160.27135915114195 99.21917808215949,159.55095535900182 101.41780821915017,160.50627199248265 102.20890410957509,160.47495032121515 102.67123287668801,160.9134525748159 103.85273972601863,160.13041110665654 104.39726027398137,160.06776744962553 105.21917808215949,161.4145949888043 104.96232876711292,163.09026655183698 105.49657534246217,164.53100210345292 106.86301369860303,166.53545947129896 108.11643835616997,167.52200941651972 111.67123287671711,172.23535360490496 113.04794520547148,176.18119018500875 113.5,176.07158630846243 113.45890410957509,175.5392224317693 112.30821917805588,172.72076490332984 111.59931506848079,169.808251801398 112.66780821917928,169.21320886429748 111.50684931504657,163.98289932346233 110.900684931461,162.21328405575332 110.1404109588766,160.9134525748159 108.05479452054715,158.43901470526907 105.52739726024447,156.21508583823015 102.32191780817811,154.4766184077307 97.29794520544237,153.81880981498398 87.12671232875437,154.93081634088594 87.04452054793364,155.5259682494434 86.5205479451688,155.74523359727755 86.5,156.35604095851886" stroke="#4dd2ff" stroke-linecap="round" stroke-linejoin="round" stroke-width="0.5"><title>2022-05-05 5.1km</title></polyline><polyline fill="none" points="135.51818181818817,161.98001451849996 136.7272727272648,162.0631595356972 138.29090909089427,161.49499992156052 140.3272727272706,162.2848790919379 141.07272727272357,162.2848790919379 141.31818181820563,162.58974231862157 142.73636363635887,161.75829398283167 142.85454545455286,161.84143926718752 143.5545454545354,163.04703463360056 143.36363636364695,164.39117935014656 143.80909090908244,165.8461518572949 144.64545454547624,167.13481617753132 146.20909090907662,168.61744320949583 147.7727272727061,170.5018577704068 149.46363636365277,173.06513322207684 150.3909090909001,176.05781005547033 151.0,176.05781005547033 149.50909090909408,171.0006647776063 149.47272727271775,170.30787629404585 150.1636363636353,170.11389427252652 150.2727272727061,169.8921998660844 149.18181818182347,165.02859965248717 148.01818181815906,162.67288660127815 146.14545454544714,160.35866666075162 143.39999999999418,158.0720857113156 141.07272727272357,156.89412050238388 137.85454545455286,156.31205968264112 134.18181818179437,156.49222188955537 133.87272727271193,155.9378751346012 131.92727272724733,154.55198876480063 130.4363636363414,154.05306285810366 128.8909090909292,153.94218994452604 125.03636363634723,154.2470900282533 124.01818181818817,154.55198876480063 124.0,154.6905786542302 127.26363636361202,154.4549756765373 126.97272727274685,157.6424771997772 127.43636363637052,157.79491923579917 127.17272727272939,157.80877758599308 127.12727272728807,158.97286906888985 130.68181818179437,159.36089519962843 131.89999999999418,159.77663506157114 132.02727272728225,159.98450405331823 131.61818181816489,160.89912017900133 131.68181818179437,161.12084347494238 133.29999999998836,160.677396170664 134.42727272724733,160.7466849998018 135.79999999998836,161.20398952728647 136.63636363638216,161.19013185883523 137.42727272727643,160.9129779058494" stroke="#4dd2ff" stroke-linecap="round" stroke-linejoin="round" stroke-width="0.5"><title>2022-05-04 7.1km</title></polyline><polyline fill="none" points="170.95872955495724,160.15573620855866 172.5916698364308,160.12442631281738 174.2451502472395,159.5451909743424 176.3094332445762,160.42186981435225 177.39806009887252,160.5471088438935 177.53157093952177,160.93847951469797 179.24667173830676,159.92091168430488 180.1812476226478,161.3298482208411 179.93476607074263,163.19273633101693 180.46880943325232,164.52334344464907 181.7422974515066,166.38615525496425 183.0671357930696,167.544519988689 186.32274629137828,171.6925768686342 186.8157093952177,172.52216176470392 187.883796120208,176.1064931672372 188.5,176.0908414231817 188.34594903007383,175.13607909638085 187.0519208824844,172.24041694065818 186.6103081019537,170.37774499098305 186.579497907951,169.7829328102016 187.51407379232114,169.3916065325102 187.6475846329413,169.14115668401791 185.97356409282656,162.55090595768706 185.06979840243002,160.76627666159766 184.06333206541603,159.46691559854662 180.25313807529164,156.0696885679572 177.5521110688569,154.61368880828377 174.40947128186235,153.92481923090236 171.05116013693623,153.89350683275552 168.42202358311624,154.3945036939258 166.8712438189541,154.37884759075678 162.08539368581842,154.9581213144411 162.05458349181572,155.55304660445836 161.86972232785774,155.78788428507687 161.57189045264386,155.6782934554576 161.5,156.17927884734672 161.57189045264386,156.97771766165533 161.99296310383943,157.49435018424265 163.67725370862172,158.52760495893745 166.41936097375583,159.29470949513052 166.99448459487758,160.62538313525147 167.0150247242418,161.98734322463133 169.4695701787714,162.66048712716292" stroke="#4dd2ff" stroke-linecap="round" stroke-linejoin="round" stroke-width="0.5"><title>2022-05-01 6.0km</title></polyline><polyline fill="none" points="17.643638850888237,189.2677146348069 17.569767441862496,189.06127354929777 19.231874145043548,189.23017992589303 20.36456908346736,188.81729713305685 20.4384404924931,189.3427840074146 20.426128590945154,188.81729713305685 21.411080711346585,188.44194755683566 22.17441860467079,188.9862039505606 23.3071135430946,189.1175757087185 24.119699042406864,189.58675905194832 25.2277701778512,189.53045717514033 25.486320109455846,190.0371728456521 27.222298221604433,188.948669128622 27.554719562234823,189.02373875751073 28.564295485673938,190.58141995038022 28.342681258538505,193.11494234540442 28.97058823533007,194.4848925153783 29.881668946676655,195.9861847113134 31.93775649793679,197.9002972901435 36.07455540358205,203.0982287976658 37.97058823533007,208.42721590174187 38.5,208.29587127963168 38.4384404924931,207.5453270414655 36.24692202464212,201.4844615070033 36.37004103968502,200.60250714418362 37.51504787965678,199.94572721289296 35.96374829002889,193.34014101260254 34.62175102601759,190.1685431266087 32.06087551297969,187.05314101800468 28.564295485673938,184.1440874641703 24.89534883722081,182.36107440133492 22.531463748280657,181.77924172508938 19.158002735988703,181.5727840982654 15.427496580028674,181.9481612622767 15.0088919288537,182.2109243800005 15.686046511662425,182.86782894234784 17.286593707249267,183.33704366003803 21.595759233954595,182.83029166316555 22.703830369369825,183.07428370835987 24.722982216160744,184.81974668493785 25.94186046512914,184.4068444082004 26.68057455541566,185.30771975111566 29.069083447335288,187.2032832603145 30.583447332464857,189.66182816831133 28.625854993151734,190.78785767835507 28.305745554011082,192.42057637233665 28.490424076619092,193.5278061542558 30.23871409028652,196.38026991715742 32.233242134097964,198.20054668723606 36.24692202464212,203.49228402024892 37.9213406292547,208.40845239561895 38.47537619702052,208.3146348083974 38.42612859100336,207.5453270414655 37.04719562243554,204.1678033943026 36.259233926131856,200.99657288788876 36.40697674421244,200.64003728656098 37.50273597810883,199.94572721289296 36.123803009599214,193.9406681393957 34.58481532151927,190.0371728456521 31.85157318742131,186.80915935976373 28.44117647060193,184.01270871513407 25.387824897421524,182.49245547210012 20.623119015042903,181.68539740577398 19.022571819397854,181.5915529922495 14.454856361175189,182.2672306662571 11.721614227106329,182.37984313703055 11.5,184.10655069756467 13.580711354326922,185.1388062857659" stroke="#4dd2ff" stroke-linecap="round" stroke-linejoin="round" stroke-width="0.5"><title>2022-04-30 10.1km</title></polyline><polyline fill="none" points="58.4011428571539,190.86965967351716 59.90285714287893,190.96373249154567 61.713142857159255,190.30522038508934 64.02742857142584,191.32434391084098 64.94285714285797,191.2302715272599 65.21028571430361,191.60656038170418 66.8765714285837,190.71287139152992 67.76114285716903,192.170990263352 67.48342857146054,193.8956118452188 68.19314285714063,195.62019533774583 69.36571428569732,197.28203066841525 70.61028571426868,198.3010631428624 74.14857142858091,202.83167730643618 75.39314285712317,206.67230352715706 75.55771428570733,206.97014011793362 76.0,206.8604109798107 75.85599999997066,205.63770443864632 74.14857142858091,200.9975156955552 74.21028571430361,200.5115340323464 75.09485714283073,200.16664198494254 75.20800000001327,199.9314874428892 73.95314285712084,194.4757032710986 72.81142857141094,191.95149023860722 69.88000000000466,188.53348166994692 67.47314285713946,186.5892265505463 65.16914285713574,185.4289222024454 61.67200000002049,184.67628313532623 59.326857142878,184.6135628855409 56.87885714287404,184.8487635623096 55.87085714287241,185.1780433194799 54.76000000000931,185.11532347282628 49.94628571430803,185.67980027927842 49.65828571427846,185.75819951297308 49.48342857143143,186.32267167180544 49.0,186.2599527446 49.10285714286147,185.00556361989584 53.09371428572922,184.69196318987088 53.14514285718906,183.547310931237 53.49485714288312,183.02985988207365 54.16342857145355,183.42186856758053 53.57714285716065,184.55084258540592 53.34057142859092,186.79306202028238 55.52114285717835,187.49864222958422 54.16342857145355,190.39929388318706 54.53371428573155,191.59088171561598 54.47200000000885,192.7197376256736 56.313142857165076,193.2057677833509 57.7840000000142,194.1778190231489 58.99771428570966,192.6413453814166 57.86628571432084,192.0455617533371 58.082285714306636,191.089162739343 58.360000000015134,190.9950900723852" stroke="#4dd2ff" stroke-linecap="round" stroke-linejoin="round" stroke-width="0.5"><title>2022-04-28 7.1km</title></polyline><polyline fill="none" points="102.018943170493,192.67204999581736 102.11316051847825,192.77463434618403 102.26794616151892,192.6515331010196 103.09571286142454,192.67204999581736 104.13883349951357,192.29248610834475 104.71086739783641,192.67204999581736 105.13484546363179,192.692566882346 105.57901296112686,192.9387688783463 106.21161515454878,192.9387688783463 106.44042871386046,193.21574470565974 107.48354935196403,192.55920697248803 108.02193419744435,193.55426867761707 107.87387836491689,194.6621496305379 108.2372881356132,195.64691253192723 108.72856430709362,196.4572760998053 109.89955134598131,197.55483664153144 112.20787637089961,200.49864428456567 113.0221834496624,203.01151662489428 113.21734795614611,203.23715625780824 113.5,203.13459291183972 113.41924227320123,202.65254242809897 112.65204386842379,200.91917438844393 112.19441674978589,199.30883304640884 112.22806580261386,198.898546884775 112.9010468594497,198.6113446113195 111.89830508474552,194.42621403352678 111.31954137589491,193.31832796435629 109.81879361915344,191.50257384222277 108.62088733799465,190.43565996433244 107.38260219343647,189.61494181916714 106.29237288137665,189.06094961744748 104.56954137590947,188.64032189644786 102.79287138587097,188.54798851854503 100.98928215356136,188.69161814543259 100.84795613163442,188.32228400323584 99.11166500500985,187.19374646862707 97.57726819544041,186.7936226289239 94.1854436690046,187.03985305501556 93.8018444666086,187.19374646862707 93.00772681956005,187.0603722036176 92.56355932205042,187.25530370427805 90.64556331008498,188.74291434288534 89.6226321037102,189.18405951479508 87.00473579265235,189.0814679542782 86.72208374876936,188.94809861761314 86.5,189.24561435221767 89.51495513461123,189.43027841944786 90.1273678963189,189.2763917431039 91.09646061815147,188.7531735761877 93.02791625127429,187.0603722036176 93.52592223332613,187.12192959996173 94.74401794618461,186.84492073220827 97.90029910270823,186.76284374219176 99.77118644070288,187.3886774603816 100.90852442673349,188.41461778913072 100.87487537390552,188.7121366305728 100.30957128616865,188.9583578097263 100.38359920241055,189.46105569908468 100.15478564309888,190.4254010689001 99.6836989033036,191.0101548210987 99.02417746762512,192.51817308401223 99.38758723830688,193.09264452335265 99.37412761716405,193.92356499796733 100.25573280161188,194.1184703130566 101.5613160518551,194.83653611067348 102.30832502493286,193.75943362957696 103.66774675974739,192.97980242900303 104.55608175475209,192.66179154943893 103.63409770689032,191.90266080211586 102.96111665006902,192.1899007898428 102.03240279163583,192.22067640702517 101.62861415754014,193.27729468559482 101.80358923232416,193.5132355883834 102.3554336989182,193.77995007948994 103.18993020938069,193.22600304080697 103.02168494518264,192.86696008541549 102.07278165506432,192.83618485755142" stroke="#4dd2ff" stroke-linecap="round" stroke-linejoin="round" stroke-width="0.5"><title>2022-04-27 10.1km</title></polyline><polyline fill="none" points="129.40490757118096,189.2986982525763 130.79228377935942,189.1854046026201 133.49271247020806,188.3734627833619 134.11207684886176,188.86440518641757 135.36319289371022,189.10987542679504 136.14359201077605,189.63857838358672 137.2212860296131,189.67634276676836 137.55574279406574,190.05398576437437 139.36428677965887,188.90216988050088 139.98365115831257,189.26093371774186 140.65256468721782,190.60156541712786 140.46675537366536,193.05619364386075 141.1108943274303,194.60446465029236 142.78317814978072,196.8890618954465 144.0962306324509,197.96525789671432 148.3202956947789,203.4404503509504 149.93064307922032,208.5 150.63671847086516,208.34897260829894 150.59955660815467,207.78261772939732 149.00159651125432,203.70476192139176 148.4565558580507,201.5524889592998 148.38223213260062,200.75953387295158 149.64573546504835,200.06097266229335 148.10971180602792,193.30165294269682 146.6727864475688,190.24280669446307 143.9599704691791,186.97615114587825 141.73025870605488,184.99344359507813 140.39243164821528,183.99263247854833 136.6762453764386,182.1798154107164 131.6965557721851,181.5 127.37339240926667,181.83990831972915 126.5062822792097,182.1798154107164 126.63015515494044,183.12399532782 126.18421280229813,184.80461212427326 125.41620097277337,185.729882708285 124.87116031956975,187.29715700777888 124.36328152910573,187.97693050980888 125.15606793377083,187.9958130369123" stroke="#4dd2ff" stroke-linecap="round" stroke-linejoin="round" stroke-width="0.5"><title>2022-04-25 5.0km</title></polyline><polyline fill="none" points="177.00575287643005,192.76169568800105 178.1875937969162,192.6690465540196 179.14657328664907,192.24697615825426 179.55852926464286,192.55580849621765 180.18659329666116,192.6587521954716 180.5580290145008,192.874933291052 181.15232616310823,192.864638973846 181.42921460731304,193.13229054963813 182.50300150075054,192.48374778376092 183.05677838920383,193.37935230249786 182.91495747872978,194.59405527055787 183.26613306654326,195.55138563603032 183.97523761881166,196.63222101671636 184.97473736868415,197.51745968870455 187.27088544273283,200.47157581272768 188.20960480239592,203.2608463137367 188.5,203.15792389909257 188.4797398699302,202.75652450806592 188.06103051526588,201.43908904107593 187.64232116058702,200.69801671535606 187.27763881941792,199.38052835579583 187.24387193597795,198.96880630079613 187.96648324164562,198.618839954539 187.0615307653934,194.78964034658202 186.35242621311045,193.24552733415476 185.5150075037527,192.17491501171025 184.50200100052461,191.08369098385447 182.95547773886938,189.82772514417593 181.41570785392832,189.04530464013442 179.11280640319455,188.54084298362068 177.6135567783931,188.48936702528226 176.06028014009644,188.70556570298868 175.86443221611262,188.2319864582314 174.10180090046197,187.14067849873754 172.44047023513122,186.73915368625967 169.60405202601396,186.91417770912813 168.82741370686563,187.14067849873754 167.78739369685354,187.08920113443673 166.2476238119125,188.33493884010386 165.04552276138566,189.01441937523123 164.2216108054272,189.1791405729673 162.00650325164315,189.0555997242882 161.62831415708933,188.90117324481616 161.5,189.15855045218996 163.84342171087337,189.39533634175677 164.91720860431087,189.30268112393605 165.97073536769312,188.76733658630837 167.79414707353862,187.2127467219252 168.09804902452743,187.08920113443673 168.92871435720008,187.17156489252375 170.7386193096463,186.97595075100617 172.52826413208095,187.01713273756468 173.45347673837387,187.16126942999472 174.29764882443123,187.562790936252 174.5745372686506,187.28481484379517 173.18334167082503,186.8318135375266 171.31940970485448,186.80092693903862 169.15157578789513,186.99654174842726 168.47623811908124,187.18186035297185 169.90120060031768,187.12008755921852 170.8061530765408,186.9244732212901 171.33966983492428,187.05831469105397 172.60930465233105,186.99654174842726 173.79114557278808,187.34658743905675 174.16258129065682,187.7172214474449 173.77763881943247,188.5820237130938 173.61555777890317,189.89978959002474 174.97298649327422,190.33217413781313 174.27063531767635,192.04108689939676 174.94597298649023,191.81460775963205 176.14132066033198,191.84549133759356 177.01250625314424,192.0719703409195 176.87068534267019,192.55580849621765" stroke="#4dd2ff" stroke-linecap="round" stroke-linejoin="round" stroke-width="0.5"><title>2022-04-22 10.1km</title></polyline><polyline fill="none" points="25.52986348126433,222.47824975055846 26.604948805470485,222.46654417956597 26.681740614323644,222.24413788385573 27.818259385647252,221.92808537247038 28.317406143352855,222.27925472378047 29.031569965882227,222.38460511670928 29.52303754267632,222.6772440980276 30.098976109235082,222.6304219597514 30.375426621176302,222.95817613810868 31.65017064847052,222.23243226585328 32.318259385676356,223.29763388028005 32.180034129705746,224.64373994928974 32.571672354941256,225.73230734373647 33.41638225255883,226.93790127435204 34.46075085326447,227.87426770837556 37.11006825938239,231.2801737732152 38.131399317411706,234.32308306639607 38.5,234.32308306639607 38.32337883961736,233.25808287830296 37.66296928329393,231.80684251559796 37.1177474402939,229.93422092765468 37.10238907849998,229.54798524307625 37.77815699658822,229.24367653793524 37.90102389079402,229.04470460270386 37.0025597269705,225.18217367409306 36.51877133108792,223.8594906274193 36.08105802049977,223.05181985062882 34.414675767940935,221.02674102119272 32.1262798634998,219.0952419100904 30.367747440293897,218.2172666119659 28.501706484647002,217.79583377188828 26.328498293529265,217.64364894196115 24.324232081940863,217.85436629298056 24.063139931764454,217.32757148723613 22.1279863481177,216.09836509297747 20.26194539249991,215.67691693360393 14.78668941979413,216.09836509297747 12.95904436861747,217.63194240013763 11.523037542647216,218.29921153264877 11.5,218.6386964053745 12.889931740617612,217.95972468285618 15.170648464176338,216.00471020975965 17.29778156997054,216.08665824078707 18.21160409555887,215.85252070362912 18.994880546088098,216.00471020975965 20.699658703088062,215.96958958977484 21.59812286691158,216.25055395721938 22.166382252587937,216.66029123228145 21.73634812288219,217.71388814360762 21.59812286691158,219.31766021969452 23.126279863499803,219.7742004069696 22.304607508529443,221.6822655678734 23.579351535852766,221.2959752091847 26.029010238911724,221.79932274694147 27.326791808882263,221.37791580219346" stroke="#4dd2ff" stroke-linecap="round" stroke-linejoin="round" stroke-width="0.5"><title>2022-04-21 8.1km</title></polyline><polyline fill="none" points="62.7457337884116,222.46655371949964 64.005119453941,222.38461472246127 64.31996587029425,222.25585320873506 64.45051194538246,221.99832932798017 64.3660409556469,222.39632030053326 65.30290102388244,221.92809534491607 66.95392491470557,222.61872583703735 67.66040955632343,222.60702030364337 67.8754266211472,222.91136340814774 69.08873720135307,222.16220829281883 69.77218430035282,223.15717783267974 69.64931740614702,224.69056822432685 70.1254266211763,225.80254366093868 70.69368600685266,226.69210873970587 72.06058020479395,228.00302201050727 74.67918088738224,231.36210273074175 75.66979522185284,234.36989579635338 76.0,234.27627033643512 75.88481228670571,233.7028111139516 75.07081911264686,231.73662238702673 74.58703071673517,229.67673450511938 74.67150170647074,229.46606005127614 75.34726962458808,229.1968638079743 75.08617747438257,227.59336477981924 74.3796928327647,224.7725039803263 73.56569965870585,223.06353436459176 71.80716723549995,220.92139895540095 69.6186006825883,219.11866663274486 67.95221843002946,218.2641052105173 66.42406143344124,217.83096655500412 63.928327645058744,217.6202492885932 61.68600682594115,217.84267304746027 61.67064846417634,217.7139015010289 61.56313993173535,217.33929174855803 59.51279863479431,216.03984551082613 57.639078498323215,215.630104203643 54.11433447099989,215.86424244614682 53.28498293514713,216.08667290541416 52.70904436861747,215.9227768598139 52.36348122867639,216.00472494021597 50.466723549499875,217.51489036978455 49.015358361793915,218.21727956509858 49.0,218.56847098903745 50.38225255973521,217.87779251073516 52.64761092152912,216.00472494021597 53.6228668942058,216.13350026237094 55.68856655291165,215.91106998176474 57.68515358361765,215.91106998176474 58.86006825938239,216.12179342667878 59.68941979520605,216.70713233221977 59.21331058020587,217.7021949827249" stroke="#4dd2ff" stroke-linecap="round" stroke-linejoin="round" stroke-width="0.5"><title>2022-04-19 7.2km</title></polyline><polyline fill="none" points="90.0375152604247,218.30025505603408 90.07653282466345,218.08217834392417 91.98839347314788,217.96322720709577 93.91325997633976,217.24951737641095 96.87859485967783,218.55798145832523 98.06212764204247,218.47868109847332 98.32224473706447,218.99413229891798 100.2861288045533,217.72532450340805 100.7283278660907,218.08217834392417 101.53469086068799,219.54923058227723 101.26156791092944,221.98766107604024 101.92486650325009,223.63307201512362 102.88729975483147,225.15951306728675 105.12430677207885,227.28063223356003 109.67635593510931,233.16798593242856 111.35411119801574,238.40089455773705 111.5491990193259,238.40089455773705 111.90035709759104,238.24232564333943 111.84833367861575,237.19180015384336 110.0925432871154,232.9499420549182 109.53329153280356,230.43249150842894 110.8989062817418,229.42152873846499 109.44225054956041,223.05817251437838 107.95958310787682,219.2518568900341 105.0332657888066,215.78243096662482 101.13150936341844,212.4516673786202 99.7919063240115,211.81722347876348 98.99854918417986,211.5 98.86849063666887,213.06628101872047 99.47976580998511,213.85932522335497 102.04191919602454,215.98068716075068 103.62863347568782,218.20112933750352 104.85118382232031,220.22327430228324 105.4234414313687,222.44362107059715 109.15612174503622,221.90836347072036 109.8844496110978,224.02955247912905 110.96393555548275,229.48099742325576 109.75439106358681,230.35320068483998 110.7168243152264,234.05997859954368 112.18648590211524,238.16304109067278 111.48416974552674,238.5 111.0029531197215,237.8459022432653 109.66335008031456,233.94104670947127 108.85698708574637,232.375096797281 105.33240044809645,227.7563910239478 102.74423535258393,225.2388080615492 101.0924917991506,222.36432383152714 101.00145081590745,221.59117241269269 101.39162645844044,219.80695372440096 103.47256321864552,218.53815637429943 104.825172112789,220.2034495525877 105.5014765598753,222.48326966632158 108.85698708574637,221.67047027274384 107.64744259385043,218.97430730253836 104.17487937520491,215.0092280054887 101.0924917991506,212.51114628523646 99.01155503891641,211.5198264972496 98.93351991038071,213.3041949489707 100.1040468380379,214.4541041965931 99.01155503891641,215.3660916630397 97.65894614477293,215.0092280054887 97.19073537370423,215.32644020922453 96.46240750764264,216.21859406828298 96.64448947415804,217.9434020036715 93.38001993155922,218.47868109847332 92.66469792017597,219.19238204408612 90.6357845790044,220.3620474380732 89.1271054278186,222.28502652872703 87.81351409791387,221.57134793775185 89.73838060113485,216.9323113511491 91.42914171880693,216.9521367576017 93.13290869124467,216.2978962433408 93.88724826680846,217.24951737641095 92.24851056816988,218.2407796368425 89.68635718213045,218.32008018775377" stroke="#4dd2ff" stroke-linecap="round" stroke-linejoin="round" stroke-width="0.5"><title>2022-04-10 10.4km</title></polyline><polyline fill="none" points="126.33022486077971,218.35084018868656 126.47477489203447,218.13049885035434 128.09110705921194,218.23065406445676 130.4564712063293,217.32925351746235 131.25806683397968,217.93018812041555 133.4000354783202,218.65130486576527 134.59585846381378,218.53111910351436 134.77983123081503,219.09198475509038 136.88237713937997,217.89012592618383 138.07820012484444,219.51263192448823 137.8548046220676,222.0565079605076 138.48556839462253,223.67894619907747 139.91792779485695,225.88221514147153 141.9547691437474,227.74494092480745 146.35697463981342,233.4330495669783 147.97330680701998,238.47997303446755 148.6697751392494,238.5 146.27812916820403,231.0697198622438 146.26498825629824,230.44883582370676 147.65792492075707,229.74783307160396 145.9890291058109,222.21674994853674 144.64865608909167,219.47257036571682 141.79707820064505,215.96712168193335 137.71025459087105,212.50161418764037 135.58142685843632,211.5 135.51572229882004,213.44312235416874 138.669541161682,215.96712168193335 140.23330968111986,218.71139769255387 138.19646833222941,219.77303166424826 136.96122261096025,217.97025029864017 134.9375221739756,219.1520773164375 132.51959437911864,218.2106230296995 131.46832142482162,218.13049885035434 130.1279484081606,218.51108812908933 128.47219350514933,219.69290873980935" stroke="#4dd2ff" stroke-linecap="round" stroke-linejoin="round" stroke-width="0.5"><title>2022-04-09 5.2km</title></polyline><polyline fill="none" points="163.81535157805774,218.33587961900776 165.28822709037922,218.21560425768257 165.32767911304836,218.015145000114 168.04986867605476,217.23335004969704 168.79945710644824,217.93496118443727 170.00931913449313,218.09532875144214 170.91671565544675,218.5764299069342 172.04767363818246,218.5764299069342 172.3764404935937,219.05752874397876 174.38849364887574,217.77459335976164 174.98027398862178,218.31583373555623 175.6509583737643,219.57871653450275 175.41424623780767,222.04429881557007 176.0586292744847,223.7681657039575 177.68931287745363,226.07329003035557 179.51725659365184,227.71691139406175 183.87012975962716,233.4292874016537 185.57971740790526,238.5 186.18464842191315,238.39979078290344 186.06629235393484,237.2373565141097 184.73807425799896,234.13078473016503 183.791225714318,230.54307510985382 184.00163650180912,230.18229270686425 185.14574515871936,229.64111665801465 184.44875942519866,225.8928909157039 182.97588391284808,220.78144720534328 182.10793941447628,219.07757447852782 180.56931053104927,217.23335004969704 176.84766972754733,213.64503314968897 175.34849286676035,212.5023576757958 173.13917959821993,211.5 172.96822083339794,212.84315699284343 173.20493296929635,213.58489266136166 176.01917725181556,215.87020574878989 177.80766894543194,218.5764299069342 175.80876646432444,219.67894464386336 174.3490416262066,217.91491522046272 172.54739925841568,219.01743726277346 169.86466171804932,218.11537467924063 167.45808833630872,218.47620069074037" stroke="#4dd2ff" stroke-linecap="round" stroke-linejoin="round" stroke-width="0.5"><title>2022-04-07 5.0km</title></polyline><polyline fill="none" points="13.810504506865982,247.6497524219012 13.692236204515211,247.89012592524523 14.020759266568348,248.0904367355397 15.558247196895536,248.0904367355397 18.225854460702976,247.30922230073338 19.027450732071884,247.93018811945512 20.43352943760692,248.1505299001874 20.946025414421456,248.4910571495493 22.154990282695508,248.5511500728826 22.404667809867533,249.0318921564467 24.480933561979327,247.78997036921646 25.111697841086425,248.310778162333 25.821307655074634,249.7329702089046 25.597911972901784,252.2968708447297 26.741172228794312,254.60031912942213 27.884432484715944,256.1025393581367 29.448202260042308,257.34435766900424 34.086947896081256,263.4130215835103 35.70328136134776,268.5 36.30776379551389,268.43991909125907 36.26834102804423,267.41853810810426 34.21835712090251,262.7120396582395 33.82412944643875,260.3887500653509 35.13822169462219,259.80791921357013 35.230208151973784,259.2471138033143 33.74528391152853,253.0780462229377 32.77285564789781,250.2337372299662 31.68215908194543,248.69136675326445 30.946267422958044,249.11201561183407 31.366776942362776,248.41093319544598 29.29051119025098,245.76680660721468 25.53220736052026,242.62180721408367 23.219405003706925,241.5 23.08799577888567,242.86219283301762 23.337673306057695,243.603378177977 26.1235488721577,245.74677507773595 28.055264476977754,248.33080917699408 26.820017763704527,249.31232396867563 25.84758950007381,249.69290873863065 24.691188321681693,247.9902813806184 24.204974189866334,248.07040567258082 23.81074651540257,247.62972127051762 23.179982236324577,245.50639640979352 24.402088027069112,244.36458982706245 26.149830717156874,245.82690117162565 28.04212355450727,248.41093319544598 26.084126104717143,249.6328165031082 25.86073042251519,249.6728779974219 24.520356329419883,247.87009482205758 22.562358879629755,249.0318921564467 22.102426592784468,248.65130486464477 20.906602646951796,248.5311191024157 18.081304313411238,247.46947191431536 16.648943762877025,248.1705609470664 14.756650925526628,248.2907471436847" stroke="#4dd2ff" stroke-linecap="round" stroke-linejoin="round" stroke-width="0.5"><title>2022-04-03 6.2km</title></polyline><polyline fill="none" points="74.0983606557129,259.3734271231733 74.67213114758488,256.99934175964154 74.4918032787391,256.02470412857656 76.0,255.27497767958994 76.0,254.55023781881027 71.47540983610088,251.65123616644996 68.9016393442871,250.9514670284334 63.37704918032978,251.0264424814959 58.393442622967996,251.80118618406414 56.213114754122216,251.62624447930284 52.31147540983511,254.77515753759508 49.14754098356934,256.3495841870754 49.0,257.02433236772777 51.754098360659555,255.84976836116402 56.29508196719689,251.85116948313953 57.213114754122216,251.55126938764442 61.16393442626577,251.6012527870771 63.52459016395733,251.0764260916767 69.18032786890399,251.57626108982367 72.0,252.77585689423722 72.606557377032,252.35100136935944 72.06557377049467,251.80118618406414 67.606557377032,250.87649153036182 59.88524590164889,251.426310801231 58.37704918032978,251.8761611250884 56.37704918032978,251.62624447930284 51.426229508186225,255.4998960886005 49.0,256.474537829934 49.229508196760435,257.02433236772777 52.196721311484,255.54987790199084 56.196721311484,251.97612764290534 57.409836065606214,251.5262776804302 58.14754098362755,251.65123616644996 60.81967213115422,251.0014506688094 68.21311475412222,250.6265728768194 72.62295081972843,251.92614439397585" stroke="#4dd2ff" stroke-linecap="round" stroke-linejoin="round" stroke-width="0.5"><title>2022-03-24 5.1km</title></polyline><polyline fill="none" points="102.5247747815738,267.86339030943054 101.77927041694056,267.69665831222665 100.71568419007235,268.5 100.23856139671989,268.25748265611765 100.0,267.6511858854137 99.69185819593258,264.9076320847671 99.33401610091096,264.0587775482127 98.9065935985418,263.75561289883626 96.43151910792221,263.69497982279427 95.16913171712076,262.4823080667411 107.38546323904302,246.15481635997276 101.53076896205312,241.5 92.61453676098608,259.6930890433068 98.11138894292526,265.30173987273884 98.44935092155356,265.0288962388513" stroke="#4dd2ff" stroke-linecap="round" stroke-linejoin="round" stroke-width="0.5"><title>2021-10-26 5.0km</title></polyline></svg>