<?xml version="1.0" encoding="utf-8" ?>
<svg baseProfile="full" height="300mm" version="1.1" viewBox="0,0,200,300" width="200mm" xmlns="http://www.w3.org/2000/svg" xmlns:ev="http://www.w3.org/2001/xml-events" xmlns:xlink="http://www.w3.org/1999/xlink"><defs /><rect fill="#222222" height="300" width="200" x="0" y="0" /><text fill="#FFFFFF" style="font-size:12px; font-family:Arial; font-weight:bold;" x="10" y="20">Over 5km Runs</text><text fill="#FFFFFF" style="font-size:4px; font-family:Arial" x="10" y="280">ATHLETE</text><text fill="#FFFFFF" style="font-size:9px; font-family:Arial" x="10" y="290">Wenz</text><text fill="#FFFFFF" style="font-size:4px; font-family:Arial" x="120" y="280">STATISTICS</text><text fill="#FFFFFF" style="font-size:3px; font-family:Arial" x="120" y="285">Number: 27</text><text fill="#FFFFFF" style="font-size:3px; font-family:Arial" x="120" y="290">Weekly: 2.5</text><text fill="#FFFFFF" style="font-size:3px; font-family:Arial" x="141" y="285">Total: 197.3 km</text><text fill="#FFFFFF" style="font-size:3px; font-family:Arial" x="141" y="290">Avg: 7.3 km</text><text fill="#FFFFFF" style="font-size:3px; font-family:Arial" x="167" y="285">Min: 5.0 km</text><text fill="#FFFFFF" style="font-size:3px; font-family:Arial" x="167" y="290">Max: 15.0 km</text><polyline fill="none" points="43.97480451775482,54.21142764201795 43.72145960031776,53.93251928070822 44.03110338834813,53.031425753069925 42.44066029536771,52.40923769171786 40.69539530843031,52.2805086749795 38.513814074744005,53.031425753069925 38.14787141617853,52.88124275964219 38.37306689837715,51.76559105695924 40.42797567328671,48.440021673668525 40.73761946131708,47.08830904751812 40.526498696766794,46.25152599469584 41.79322328406852,45.73657932009519 41.736924413533416,45.114348776987754 38.007124239753466,42.603933575432166 35.867767159012146,41.93877094452182 34.44622067763703,41.788572357989324 28.25334491743706,42.260624347574776 26.50807993049966,42.68976071003999 25.17098175501451,42.41082227050356 20.72337098175194,45.80094779018691 18.27437011298025,46.85229397826333 12.841529105091467,46.637734371906845 12.095569070370402,46.20861386661272 11.799999999988358,46.78792614156555 12.574109470006078,47.0668531536794 16.852823631605133,47.3028677490438 19.25960034749005,47.02394135306531 21.63822762813652,45.58638607250032 25.35395308426814,42.496649560242076 27.000695047783665,42.75413101572485 31.110512597719207,42.28208120666386 36.68410078191664,42.68976071003999 38.16194613376865,43.526571659160254 38.23231972201029,43.95570293680794 37.45821025193436,45.5649298770586 37.07819287572056,48.504388515000755 39.949435273651034,49.31969848251174 38.31676802778384,52.83833329418121 41.00503909640247,52.173234375834 42.98957428324502,52.49505695007247 44.199999999953434,52.98851634791208 43.9607298001647,54.018337315588724" stroke="#4dd2ff" stroke-linecap="round" stroke-linejoin="round" stroke-width="0.5"><title>2022-06-02 5.0km</title></polyline><polyline fill="none" points="58.8549885757966,42.387136977908085 60.594668697653105,42.33071490022121 62.44539223154425,41.747684773712535 63.06230007612612,41.916951958490245 63.04996191925602,41.4655721192903 65.73968012185651,42.66924685666163 66.86245239907294,42.72566873042524 67.01051028180518,43.06419925944647 67.91119573498145,42.74447601415886 68.95993907083175,41.916951958490245 69.66321401370806,42.499981031389325 70.23076923078042,43.722449563181726 69.98400609291275,46.2049519451175 70.56389946688432,47.42737212385691 72.01980198017554,49.64649414255109 73.80883472959977,51.16975933602953 78.0038080731174,56.64202624592144 79.50906321400544,61.437048897045315 80.19999999998254,61.361834750234266 77.85575019038515,54.34785017029935 77.85575019038515,53.68967453084042 79.13891850720393,52.9750786004588 77.75704493524972,46.8067607960038 76.3011424219585,43.34630709891644 72.92048743335181,39.22744828370196 69.94699162224424,36.97046252623841 67.35597867477918,35.635053676654934 64.64158415843849,34.93912884218298 60.54531607008539,34.562951102954685 57.11530845394009,34.90151113625325 56.017212490492966,35.29649629495543 54.203503427270334,35.24006994571391 48.98446306170081,35.84194925190968 48.45392231529695,36.0112271098842 48.392231530859135,36.70714397844131 47.83701447068597,36.76356944384315 47.79999999998836,38.19300322936033 51.40274181263521,38.456317599862814 53.88271134803654,39.11460028748843 54.462604721979005,39.52837560889748 53.96907844633097,41.16465101807262 56.27631378520164,40.58161363311956 59.175780654972186,41.07061297562177" stroke="#4dd2ff" stroke-linecap="round" stroke-linejoin="round" stroke-width="0.5"><title>2022-05-30 6.1km</title></polyline><polyline fill="none" points="100.49342442356283,45.0134988805039 100.62254483345896,44.8869707544909 101.53561058922787,44.95726418605409 103.35251921435702,44.33867956614995 105.4368915456871,45.168144057337486 106.24850555078592,45.182202692834835 106.56208368914668,45.47743338628061 107.89017933388823,44.633913816498534 108.21298035865766,44.872912059683586 108.79402220324846,45.885130868835404 108.55422715627356,47.55807154344075 108.81246797606582,48.31720790866166 110.18667805296718,50.43993443042564 111.3395388556819,51.39584323969757 114.58599487616448,55.57076257623703 115.77574722457211,59.23942560811702 116.14466268144315,59.211313978517865 116.19999999998254,58.77558227589179 115.09325362936943,56.02057068084105 114.49376601196127,53.659045895903546 114.59521776257316,53.377906687852374 115.43450042695622,53.05459520313525 115.48061485908693,52.801567782473285 114.00495303157368,46.95356818083019 113.2671221178316,45.57584334080093 111.48710503842449,43.41079238890961 108.59111870196648,40.93636646166851 108.13919726727181,40.8660689930075 106.32228864220087,39.82565820439413 103.85977796753286,39.27732737814222 101.35115286079235,39.15078888527569 99.2483347566158,39.417925435300276 98.91631084540859,38.813351786164276 96.58292058069492,37.351105562724115 94.1757472245954,36.76057439188298 90.32058070023777,37.04178033254357 89.27839453457273,37.32298514369904 88.30999146029353,37.19644311849697 87.72894961570273,37.33704535463039 85.40478223739774,39.2070282436398 84.44560204952722,39.76941934293791 83.83689154568128,39.89595671772622 83.79999999998836,40.28962708774634 85.96737830911297,39.17890857009115 88.20853970965254,37.18238287932763 91.04918872760027,37.29486471344717 92.01759180187946,37.055840599903604 92.98599487615866,37.22456358827185 94.39709649872384,37.12614189449596 95.5315115286212,37.308924929981 96.7397096498753,37.9275716629636 97.44987190436223,37.51982783947096 98.34449188728468,38.43373310564857 98.98087105038576,38.757112111521565 98.93475661828415,39.37574604780457 98.667292912025,39.51634390734398 98.65807002561633,39.783479062545666 99.12843723312835,40.13497113493213 100.25362937658792,40.48646144266604 104.15491033304716,40.14903078111092 104.67139197266079,40.3739847361976 105.8242527754046,41.51280304206011 108.56345004268223,40.795771453784255 111.21964133219444,43.04525770028704 113.24867634501425,45.49149195969949 114.1894107600383,47.37531526329258 111.70845431255293,48.064163368089794 111.34876174209057,47.67053670947644 110.998292058066,46.39123478584588 110.223569598631,45.350906098658015 108.88625106748077,45.983540250315855 108.000853970967,44.78855983173344 106.51596925704507,45.53366766295221 106.18394534583786,45.280613062292105 105.44611443209578,45.23843720661171 104.80051238255692,44.94320550540215 103.86900085394154,44.8869707544909 103.18650725873886,45.06973352978821 102.55012809563777,45.58990189445103" stroke="#4dd2ff" stroke-linecap="round" stroke-linejoin="round" stroke-width="0.5"><title>2022-05-28 10.0km</title></polyline><polyline fill="none" points="136.65389425811009,44.8563056149942 137.97089255257742,44.80015074330004 139.37077885161852,44.15436647716706 140.17202956226538,44.72995709027964 140.86276293348055,44.81418946546182 141.47981807845645,45.16515660303048 142.18897100625327,45.13707929688826 142.53894258098444,45.50208339766323 143.56122797040734,44.77207329054363 144.01250710629392,44.65976336674794 144.7769187038066,45.8390085686442 144.6387720295461,47.64995354599523 145.1084707219852,48.815110400038975 145.9281409891846,50.14869983668177 147.5030130756204,51.59456280350423 150.61591813529958,55.63720544141688 151.78555997725925,59.25854100862125 152.19999999998254,59.09011095470487 152.1447413302958,58.3883146965818 150.99351904491778,55.5529861036739 150.505400795897,53.46150667861002 151.500056850462,52.956173407095775 150.164638999413,47.25688420317965 149.23445139284013,45.40381325029011 146.74781125641312,42.694310495920945 144.59272313813563,40.93939516948012 143.39545196134713,40.46205058018677 142.5573621375661,39.87238511721807 139.9970437748707,39.26867484777176 137.45514496869873,39.10019663283674 135.18953951107687,39.35291380299532 135.0421830585401,38.791318850995594 132.61080159182893,37.27498994637426 130.31756679929094,36.74145899138239 123.80625355313532,37.27498994637426 121.50380898235017,39.128276363553596 119.79999999998836,39.942583647374704 119.8184195565409,40.22337706332837 120.18681068785372,40.22337706332837 121.15383740758989,39.717948102636 123.89835133595625,37.35923130390802 124.30358158040326,37.21882898495096 127.00204661738826,37.246909471305116 127.82171688455855,36.98014439562394 128.66901648661587,37.17670823430308 130.47413303010399,37.106506926767906 131.57009664582438,37.31711063781404 132.7857873791654,37.93487786351761 133.48573052868596,37.485593149824126 134.26856168275117,38.398199700401165 135.01455372368218,38.80535877976217 135.12507106308476,39.19847564090742 134.69221148377983,39.66178910365488 134.91324616258498,39.99874242079386 135.43820352471084,40.23741670457457 136.9854462762596,40.518208936333394 140.16281978396,40.11105983229936 140.56805002840701,40.279535611185565 141.8758385446272,41.52905163311152 143.39545196134713,41.00959262834658 144.5650938033068,40.86919764017148 146.99647527004709,42.77854532366109 149.0042069357587,45.151117951376364 149.759408754966,46.38650850860358 150.11859010803164,47.43938095858903 147.65957930640434,48.05705875010972 147.37407617963618,47.706106128873216 147.05173393973382,46.456700498525606 146.16759522457141,45.305542964797496 144.9058555997617,45.95131659817707 143.96645821488346,44.70187960932526 142.51131324615562,45.53016055725675 142.179761227977,45.23534981916964 141.47060830018017,45.20727254117446 140.82592382034636,44.84226690127616 139.14974417281337,45.052847310707875" stroke="#4dd2ff" stroke-linecap="round" stroke-linejoin="round" stroke-width="0.5"><title>2022-05-26 10.0km</title></polyline><polyline fill="none" points="162.23749711341225,41.10684712739021 164.28254741220735,41.01583031871996 166.9993295611348,40.12841260276036 170.23856981558492,41.6301923588544 171.358122898906,41.56193007440015 171.8656536299968,42.29005898827745 174.40330728556728,40.72002518555382 175.70198886218714,42.76789104552881 175.29894975223579,45.111514341238944 176.17966484441422,47.43233624939603 177.2096536810859,49.1842977766064 180.0757095743902,51.89182141049969 185.09130738768727,58.35321306881815 186.94230181880994,64.04075298983662 187.76330741326092,64.19999999999709 187.61403366882587,63.13076578221808 185.38985487655737,57.73894167978142 185.0315978899016,54.940552108964766 186.38998896436533,54.41726834188739 186.53926270880038,54.03049183070834 184.03146380215185,44.20137512845395 182.9417654676945,42.17628915388923 179.65774308994878,38.37631106586923 175.3288045010995,34.781004901844426 172.9404245899641,33.43842461407621 169.16379885555943,32.209608374476375 164.10341891890857,31.799999999995634 159.68491608340992,32.23236435184663 158.6250724978163,32.55094755551545 158.86391048895894,33.41566887887166 158.2817428856506,35.91877235449647 157.22189930005698,37.14754837228975 156.23669258673908,39.65056941572402 158.75941886781948,38.967932795974775" stroke="#4dd2ff" stroke-linecap="round" stroke-linejoin="round" stroke-width="0.5"><title>2022-05-24 5.1km</title></polyline><polyline fill="none" points="44.14362766419072,95.07324166472972 43.833579817262944,94.72952199834253 44.11544149625115,93.63390819191409 42.0014789038687,93.20425265608355 40.4935189212556,93.29018390129204 38.5486733361613,93.89170068519888 38.21043932141038,93.65539092339168 38.81644193123793,92.04417409044981 40.324401913851034,89.57359448378702 40.81765985203674,87.98380004648789 40.63444976077881,87.10295782238973 41.95919965201756,86.54437119075737 41.95919965201756,86.13617142315343 41.719617224880494,85.55609538988938 39.80295780772576,84.26702627701889 36.60382775112521,82.87051720947784 34.29256198339863,82.5267583352761 28.373466724646278,83.02091136959643 26.640017398807686,83.40763823898305 25.428012179210782,83.14982048138336 24.54014789033681,83.45060780490167 20.763201391906478,86.52288703125669 18.409656372270547,87.59708971923101 13.265680730692111,87.42521801397379 11.997303175216075,87.05998972354428 11.799999999988358,87.46818596623052 12.363723357964773,87.76896114838746 15.182340147846844,88.06973548493988 19.297520661144517,87.87638065132342 21.622879512782674,86.52288703125669 24.72335798171116,83.72990956233116 25.568943018675782,83.34318385784718 33.75702479336178,83.2142749790728 36.67429317091592,83.49357735352532 38.26681165717309,84.58929501146486 37.4775989560294,86.11468718174001 37.12527185725048,89.20837352764647 39.9861678990419,90.08919841693569 38.323183993052226,93.65539092339168 41.08542844711337,93.01090710201242 42.53701609390555,93.16128700765694 44.199999999953434,93.61242545612913 44.11544149625115,94.49321408712422" stroke="#4dd2ff" stroke-linecap="round" stroke-linejoin="round" stroke-width="0.5"><title>2022-05-22 5.0km</title></polyline><polyline fill="none" points="54.312979794922285,81.43523465616454 54.40191953670001,81.90974169681431 55.55813617934473,81.95493273920874 57.159051530761644,81.72897734579601 59.1453724297462,80.93812989604339 59.797597202530596,81.5030214987346 61.35404268302955,81.75157290558127 62.480612745159306,82.40684216484806 63.65165267809061,82.3164604249032 64.00741164508509,82.85874977570347 66.2605517692864,81.43523465616454 67.00171628384851,82.02271926872345 67.72805750806583,83.44622695675207 67.3426519605564,86.22540435552946 68.3061658294173,88.39447073429619 69.92190447106259,90.6990579539779 71.92304866039194,92.39357727186871 77.17049342324026,99.17139941075584 79.0678745805053,105.0 79.76456922420766,104.86445457737864 79.66080619208515,104.20931606642989 77.27425645530457,98.42585895625234 76.90367419808172,96.00846654353518 77.05190710094757,95.60179729696392 78.34153335628798,95.0821622323565 78.4304730980075,94.44955978481448 76.1625096835196,85.36680403065111 75.0952327825944,83.19767929291993 70.989181372046,78.36218823927629 67.35747525078477,75.53762303045369 63.35518687230069,73.59428099606157 58.65620385011425,72.69038954446296 55.51366630848497,72.60000000000582 51.88196018722374,73.00675237843097 50.799859996070154,73.43610051618452 50.91844631836284,74.31738892957947 50.340337997011375,76.82563355957973 49.56952690187609,77.57131712746195 48.23543077573413,80.57659778213565 50.799859996070154,79.763146278965 52.97888366872212,79.96650970608607 54.446389407559764,80.55400198649295 54.12027702113846,81.4126390328529" stroke="#4dd2ff" stroke-linecap="round" stroke-linejoin="round" stroke-width="0.5"><title>2022-05-16 5.4km</title></polyline><polyline fill="none" points="102.69326010983787,86.00843075296507 103.42925611583632,86.07007354462985 105.03065401897766,85.55227217108404 105.41078382424894,85.88514498394215 106.26000998503878,86.04541643538687 106.68866699951468,86.30431558859345 107.4084872691019,86.27965857341769 107.65921118322876,86.61252744280137 108.96135796303861,85.8604878004553 109.69735396906617,86.9700512554191 109.53559660512838,88.57271862574271 110.18262606090866,89.94111688833436 111.0318522216985,91.09991679484665 111.99430853719241,91.90120181317252 114.80079880182166,95.47603835343398 115.8360459311225,98.63158319105423 116.19999999998254,98.60693112545414 116.1838242636295,98.24947506227181 115.02725911134621,95.18019771111722 114.71183225166169,93.86122417127262 114.76844732902828,93.60235687963723 115.52870693959994,93.232544569928 115.55297054420225,92.99832895514555 114.37214178731665,88.17821976967753 113.64423364953836,86.74814016852179 111.7274088866543,84.479669719909 109.13929106341675,82.40838437054845 107.65921118322876,81.6686226680431 106.20339490767219,81.286408962711 103.58292561158305,81.03981821263005 101.22935596606112,81.24942041335089 101.05951073390315,80.7808968591089 99.94338492263341,79.96713692480989 98.84343484771671,79.3506449452143 97.25821268098662,78.96841680894431 93.53779331003898,79.20268594896697 92.64003994007362,79.43695419503274 91.4106839740416,79.36297484549141 88.96005991013953,81.24942041335089 87.6255616575072,81.8412345292054 84.39850224662223,81.7302698170206 83.96175736395526,81.50833979097297 83.8970544183685,81.61930490427403 83.79999999998836,81.85356392931135 84.26909635547781,81.97685779396852 87.50424363455386,82.13713944790652 88.89535696455278,81.59464600753199 91.75037443835754,79.37530474326559 93.3436844732787,79.48627371187467 94.5245132301643,79.30132531940762 97.07219171244651,79.32598513726407 98.0427358961606,79.4492840779676 99.15886170745944,79.96713692480989 99.51472790815751,79.63423202469494 97.83245132301818,79.07938651300356 96.82955566651071,78.96841680894431 93.4245631552767,79.17802608155398 92.23564653020003,79.48627371187467 93.97453819273505,79.43695419503274 94.98552171743358,79.20268594896697 97.08027958063758,79.28899540678322 98.18831752371625,79.52326332349912 99.25591612581047,79.9794667012793 99.74118821768207,79.62190217891839 100.54188716926728,80.44799637150209 101.0999500748876,80.71924875685727 101.13230154771009,81.20010231284323 100.45292061910732,81.4713513753195 100.52571143285604,81.8412345292054 102.11093359961524,82.59332340347464 103.58292561158305,82.48236005054059 103.63954068897874,84.18377609096933 103.2755866200896,84.4056964463598 103.25941088367836,84.78789073369262" stroke="#4dd2ff" stroke-linecap="round" stroke-linejoin="round" stroke-width="0.5"><title>2022-05-14 9.9km</title></polyline><polyline fill="none" points="133.74541751525248,85.02076786318503 134.79022403259296,85.08782581281412 136.97881873726146,84.3166561403923 137.99063136451878,84.93694535043323 138.6175152749056,84.98723886821244 139.35437881870894,85.42311475305178 140.03625254580402,85.35605707271316 140.6961303462158,85.79193103213038 142.32382892054738,84.70224186698033 143.3576374745171,86.29485969619418 143.12668024440063,88.32330789105617 143.7205702647625,89.73145782302163 144.45743380853673,91.00547777429165 146.3820773930347,92.79913080798724 150.29735234210966,97.82785910007078 151.8260692464246,102.2026063742669 152.15600814661593,102.0852789786295 152.19999999998254,101.44835595435143 150.92423625249648,98.347477092997 150.23136456205975,95.43086972211313 150.33034623213462,95.16267082610284 151.3971486761293,94.62627044977125 150.16537678206805,89.26207715112832 148.79063136450714,85.95957425674715 145.85417515275185,82.48929087074794 143.18167006107979,80.36010840885865 140.34419551931205,78.98533182830579 137.51771894094418,78.39853005273471 135.19714867617586,78.21410578567156 131.90875763742952,78.51589073777723 131.63380855394644,77.91231974266702 130.14908350305632,76.82252772704669 128.57637474540388,75.93391755459743 127.34460285131354,75.54829132922168 125.82688391034026,75.39739362573891 120.6248472504667,75.79978689562267 119.79999999998836,76.10158057521039 126.14582484721905,75.81655323976884 128.2134419551585,76.31954199865868 128.88431771891192,76.87282613325078 128.22443991850014,78.21410578567156 127.9604887983296,80.56129332669661 130.07209775966476,81.39955859919428 128.91731160893687,84.03165685008571 130.68798370668082,83.49518495855591 132.84358452138258,83.71312708022015 133.4704684317694,83.94783334428939 133.3604887983529,84.93694535043323" stroke="#4dd2ff" stroke-linecap="round" stroke-linejoin="round" stroke-width="0.5"><title>2022-05-12 7.0km</title></polyline><polyline fill="none" points="167.53572519079898,83.22137186649343 168.92076335876482,83.22137186649343 171.20854961831355,82.42964945468702 171.7526717557048,82.91976411596988 173.66946564882528,83.57952981168637 174.8195419847034,83.61723056855408 175.35129770991625,84.12618930423923 177.3051908396592,82.93861462874338 178.2821374045161,84.52204419103509 178.1337404579972,87.29298166358785 178.9622900763061,88.97058433251368 180.1989312976948,90.72355284669902 181.78183206103859,92.06181860523066 184.19328244272037,95.00216651134542 184.44061068698647,95.71839115665352 185.62778625951614,96.94349959472311 186.39450381675852,98.28167669857066 187.50748091598507,102.08878047999315 188.19999999998254,101.90031362757145 186.1471755724633,95.69954320968827 186.03587786253775,94.79483730487118 187.3096183205489,94.00321248680848 185.96167938929284,88.08466306292394 185.05893129768083,85.65304895605368 184.36641221368336,84.33354207216325 181.58396946560242,80.97814102456323 179.34564885491272,78.96107256672985 176.82290076330537,77.28329101905547 175.1534351144801,76.49151852587966 173.34793893125607,76.02022220465733 169.1804580152384,75.5112195200054 165.1984732824203,75.88825881065713 164.14732824423118,76.28414843607607 162.45312977099093,76.18988915284717 156.5172519083426,76.92510905171366 156.4183206106536,77.6980263264486 156.05969465646194,77.66032319243095 155.8494656488183,77.94309632870863 155.79999999998836,79.01762647849682 156.04732824425446,79.31924676591007 157.9146564885159,79.24384178496257 161.1422900763282,79.77167538003414 162.51496183202835,80.39376116423955 162.1316030534217,82.14688983235828 164.24625954197836,81.41171082837536 165.73022900763317,81.54366645815753 167.23893129767384,81.9960843521767 166.99160305340774,82.93861462874338" stroke="#4dd2ff" stroke-linecap="round" stroke-linejoin="round" stroke-width="0.5"><title>2022-05-10 6.0km</title></polyline><polyline fill="none" points="30.57405836865655,126.91523869022785 31.38223996007582,126.90291936989888 32.96627587924013,126.33622796182681 34.703866300784284,127.11234747869094 35.42314791717217,127.11234747869094 35.64135694684228,127.3956902526952 36.83746570214862,126.64421307208613 37.039511100010714,126.74276798085339 37.6537291094719,127.67903171817306 37.45168371163891,129.1942703891218 37.92851085055736,130.36455106758513 38.67203791465727,131.4978542391218 39.989373908698326,132.71736361753574 42.21187328509404,135.57510882608403 42.898827637778595,136.6467289661632 43.70700922922697,139.39343995520903 44.19999999998254,139.3688063223235 43.925218258897075,138.1617461967944 43.27059116985765,136.6836810509849 42.729109503590735,134.78677861411416 42.71294587175362,134.38029189095323 43.545372910943115,133.91221293449416 42.28460962828831,128.77542766958868 41.67039161885623,127.51888235497972 40.13484659514506,125.5970573892082 38.405337989504915,124.02013040259772 37.42743826386868,123.36717220597347 35.681766026391415,122.46780331173068 34.06540284358198,122.07355525638559 31.689348964806413,121.85178961186466 29.264804190548602,122.03659437130773 28.965777001722017,121.54378044236364 26.98573210273753,120.23780438474569 24.844050885469187,119.7449760058189 21.094088301295415,120.01603210419489 20.50411573954625,120.21316305985965 19.32417061610613,120.1762010539278 17.263307557994267,121.79018790168266 15.58228984780726,122.61564567934329 12.454627089027781,122.52940434154152 11.961636318272213,122.3076403447958 11.799999999988358,122.60332549562736 14.434671987983165,122.92364946752787 15.929807932116091,122.81276828194314 17.530007483117515,121.9626725343187 19.534297829843126,120.21316305985965 22.104315290547675,120.22548372353776 22.7589423796162,119.9790699794612 23.57520578696858,120.15155970422711 25.781541531527182,120.21316305985965 27.23626839608187,120.79223157882006 27.688850087259198,120.41029338206863 28.46470441503334,121.18648786841368 29.054676976782503,121.432896762788 29.046595160878496,122.01195376887335 28.723322524310788,122.22139857402726 29.499176852055825,122.82508842356037 31.23676727359998,123.0098902511163 33.42693938635057,122.71420705978744 34.23512097776984,123.07149073663095 35.38273883756483,124.06940998442587 35.95654776750598,123.84765155433706 37.92042903465335,125.43690259131836 39.14078323767171,127.3956902526952 38.97106510348385,127.21090163543704 37.67797455721302,127.87613805284127 37.411274632031564,129.0587627633322 37.54058368667029,129.53919754068193 38.67203791465727,131.4978542391218 39.843901222222485,132.54490921727847 42.56747318530688,135.96927013395907 43.86864554751082,139.4550239941782 44.10301820898894,139.35648950218092 44.127263656730065,138.97466685129984 42.87458219003747,135.92000010895936 42.60788226488512,134.60201225560377 42.68061860810849,134.39260970999385 43.51304564726888,133.94916666613426 42.47049139434239,129.53919754068193 41.83202793714008,127.88845717775257 39.455974058335414,125.03035391909725 37.73454726859927,123.65053227693352 35.57670241955202,122.46780331173068 32.53793963577482,121.88875060826831 29.208231479133246,121.99963346396544 29.022349713137373,121.5314600434358 27.68076827135519,120.50885830566403 26.10481416809489,119.94210783249582 25.021850835590158,119.76961751882118 21.611324519792106,119.99139069016383 20.237415814364795,120.26244569979826 23.114542279858142,120.07763559587329 23.074133200279903,121.75322684588173 22.839760538743576,123.04685054981019 23.316587677691132,123.20701158695374 22.977151409286307,123.30557201737611 23.033724120701663,124.21724849253224 26.177550511347363,124.5622036259665 27.20394113243674,124.94411597562066" stroke="#4dd2ff" stroke-linecap="round" stroke-linejoin="round" stroke-width="0.5"><title>2022-05-08 15.0km</title></polyline><polyline fill="none" points="59.46301369860885,123.88804486259323 60.36301369863213,123.92563098137907 63.06301369861467,123.06114643080218 65.70136986300349,124.20752639098646 66.6506849314901,124.16994038546545 67.20547945200815,124.69614308978635 68.62328767121653,123.75649332799367 69.27671232877765,123.68132093955501 70.2630136985972,125.29751398656663 69.95479452054133,127.30831986220437 70.59589041097206,129.03720252415224 72.23561643832363,131.44255136556603 73.7397260274156,132.62641129982512 78.00547945205471,138.2824243258874 79.65753424656577,143.01742822201777 80.19999999998254,142.88590357015346 80.15068493151921,142.24706691812753 78.76986301367288,138.864917884006 77.91917808220023,135.3699021616776 79.20136986300349,134.6558506371657 77.80821917805588,128.37947918815917 77.08082191777066,126.25594086690398 76.1684931506461,124.69614308978635 73.6657534246624,121.7268176463258 70.632876712305,119.058103005882 66.78630136983702,116.97194208928704 60.75753424654249,116.1825717779866 48.55205479450524,117.51697960906313 48.45342465752037,118.23116189933353 47.82465753422002,118.49428031673597 47.79999999998836,119.22724915022263" stroke="#4dd2ff" stroke-linecap="round" stroke-linejoin="round" stroke-width="0.5"><title>2022-05-05 5.1km</title></polyline><polyline fill="none" points="97.6218181817967,125.97601742220286 99.07272727272357,126.07579144283955 100.94909090909641,125.39399990587117 103.39272727273055,126.34185491032986 104.28727272726246,126.34185491032986 104.58181818184676,126.70769078235026 106.28363636363065,125.70995277939801 106.42545454544597,125.80972712062794 107.26545454547158,127.25644156031922 107.03636363637634,128.86941522017878 107.57090909089311,130.6153822287597 108.57454545455403,132.1617794130434 110.45090909089777,133.94093185140082 112.32727272727061,136.20222932449542 114.35636363638332,139.27815986649512 115.46909090908593,142.86937206656876 116.19999999998254,142.86937206656876 114.41090909088962,136.800797733129 114.36727272727876,135.96945155285357 115.19636363637983,135.73667312703765 115.32727272727061,135.47063983930275 114.01818181818817,129.63431958299043 112.6218181817967,126.80746392154106 110.37454545454239,124.03039999290922 107.0800000000163,121.28650285358162 104.28727272726246,119.87294460286648 100.42545454544597,119.17447161917516 96.01818181815906,119.3906662674708 95.6472727272776,118.72545016152435 93.31272727271426,117.0623865177622 91.52363636362134,116.46367542972439 89.66909090909758,116.33062793343561 85.04363636363996,116.69650803390687 83.82181818183744,117.0623865177622 83.79999999998836,117.22869438507769 87.71636363634025,116.94597081185202 87.36727272727876,120.77097263973701 87.92363636364462,120.95390308296192 87.60727272726945,120.97053310319461 87.55272727273405,122.36744288267073 91.81818181814742,122.83307423955557 93.27999999996973,123.33196207389119 93.4327272727387,123.5814048639877 92.94181818180368,124.67894421480742 93.01818181815906,124.94501216993376 94.95999999999185,124.4128754047997 96.31272727271426,124.49602199976653 97.95999999999185,125.04478743274376 98.96363636365277,125.02815823060519 99.91272727272008,124.69557348702074" stroke="#4dd2ff" stroke-linecap="round" stroke-linejoin="round" stroke-width="0.5"><title>2022-05-04 7.1km</title></polyline><polyline fill="none" points="131.1504754659254,123.78688345028058 133.11000380371115,123.74931157538958 135.09418029666995,123.05422916921816 137.57131989349728,124.10624377723434 138.87767211862956,124.25653061268531 139.03788512738538,124.72617541764339 141.09600608595065,123.50509402117314 142.21749714718317,125.19581786502386 141.9217192848737,127.4312835972305 142.56257131989696,129.02801213358907 144.09075694181956,131.2633863059673 145.68056295168935,132.65342398643406 149.58729554965976,137.6310922423727 150.1788512742496,138.62659411765344 151.46055534423795,142.92779180069192 152.19999999998254,142.90900970782968 152.01513883608277,141.76329491566867 150.462305058958,138.2885003288029 149.93236972231534,136.05329398918548 149.8953974895121,135.33951937225356 151.01688855074462,134.8699278390268 151.17710155950044,134.5693880208346 149.1682769113977,126.6610871492303 148.0837580829102,124.51953199393029 146.87599847849924,122.96029871826613 142.3037656903325,118.88362628156028 139.06253328261664,117.13642656994489 135.291365538229,116.30978307708574 131.26139216430602,116.27220819931244 128.1064282997395,116.87340443272114 126.24549258273328,116.85461710891832 120.50247242295882,117.54974557734386 120.46550019018468,118.26365592535876 120.24366679342347,118.54546114210098 119.8862685431668,118.41395214656222 119.79999999998836,119.01513461682043 119.8862685431668,119.97326119399077 120.39155572457821,120.593220221097 122.41270445034024,121.83312595073221 125.70323316851864,122.75365139415953 126.39338151385891,124.35045976231049 126.41802966906107,125.98481186956633 129.36348421449657,126.79258455260424" stroke="#4dd2ff" stroke-linecap="round" stroke-linejoin="round" stroke-width="0.5"><title>2022-05-01 6.0km</title></polyline><polyline fill="none" points="163.17236662103096,122.72125756177411 163.0837209302117,122.47352825915732 165.07824897405226,122.67621591108036 166.43748290016083,122.18075655966823 166.52612859098008,122.81134080890479 166.51135430915747,122.18075655966823 167.69329685362754,121.73033706819842 168.60930232558167,122.38344474067708 169.96853625169024,122.54109085046366 170.9436388508766,123.10411086233944 172.27332421339815,123.03654861016548 172.58358413132373,123.64460741478251 174.66675786592532,122.33840295434493 175.06566347467015,122.42848650901578 176.27715458278544,124.29770394045772 176.0112175102695,127.33793081448675 176.76470588240772,128.9818710184627 177.85800273600034,130.78342165357753 180.32530779752415,133.08035674817802 185.28946648427518,139.3178745572004 187.56470588239608,145.7126590820917 188.19999999995343,145.55504553556239 188.1261285909568,144.65439244976005 185.4963064295589,137.38135380839958 185.64404924761038,136.3230085730247 187.01805745559977,135.534872655473 185.1564979480463,127.60816921512742 183.5461012312444,123.80225175193482 180.47305061557563,120.06376922161144 176.27715458278544,116.57290495700727 171.87441860465333,114.4332892816019 169.0377564979135,113.73509007011307 164.9896032831748,113.48734091791994 160.51299589598784,113.93779351473495 160.01067031460116,114.25310925600934 160.82325581397163,115.04139473081887 162.74391244869912,115.60445239205 167.91491108073387,114.99634999580303 169.24459644325543,115.2891404500333 171.6675786593696,117.38369602192688 173.13023255812004,116.88821328985068 174.01668946648715,117.96926370133588 176.882900136814,120.24393991237594 178.70013679895783,123.19419380198087 176.35102599178208,124.54542921402754 175.96689466480166,126.50469164680544 176.1885088919662,127.83336738510843 178.28645690833218,131.25632390059764 180.67989056091756,133.44065602468618 185.4963064295589,139.79074082430452 187.50560875510564,145.6901428747442 188.17045143642463,145.57756177007832 188.1113543091924,144.65439244976005 186.45663474692265,140.60136407316895 185.5110807113233,136.79588746547233 185.68837209302,136.3680447438819 187.00328317371896,135.534872655473 185.34856361150742,128.32880176728213 183.50177838577656,123.64460741478251 180.2218878248823,119.77099123172229 176.12941176473396,116.41525045815797 172.46538987691747,114.59094656652451 166.7477428180282,113.62247688693606 164.8270861833007,113.50986359069793 159.34582763339859,114.32067679950705 156.0659370725043,114.45581176444102 155.79999999998836,116.52786083707906 158.2968536252156,117.76656754292344" stroke="#4dd2ff" stroke-linecap="round" stroke-linejoin="round" stroke-width="0.5"><title>2022-04-30 10.1km</title></polyline><polyline fill="none" points="23.081371428561397,165.44359160821477 24.883428571454715,165.55647898984898 27.055771428567823,164.7662644621014 29.83291428568191,165.989212692999 30.93142857143539,165.8763258327017 31.25234285715851,166.32787245803775 33.25188571427134,165.25544566982717 34.31337142857956,167.00518831601948 33.98011428571772,169.07473421424947 34.83177142855129,171.1442344052848 36.238857142830966,173.13843680209538 37.73234285711078,174.36127577142906 41.97828571428545,179.79801276772196 43.47177142853616,184.40676423258265 43.66925714284298,184.7641681415189 44.20000000001164,184.63249317576992 44.027199999953154,183.16524532637413 41.97828571428545,177.59701883466187 42.05234285714687,177.0138408388084 43.11382857139688,176.59997038191796 43.249600000010105,176.31778493146703 41.743771428533364,169.77084392531106 40.37371428569895,166.74178828632284 36.85599999997066,162.6401780039305 33.967771428549895,160.3070718606541 31.202971428545425,158.91470664292865 27.006400000012945,158.0115397623813 24.192228571424494,157.9362754626418 21.254628571448848,158.2185162747628 20.045028571446892,158.61365198337444 18.711999999999534,158.53838816738426 12.935542857157998,159.21576033512974 12.589942857128335,159.30983941556042 12.380114285711898,159.9872060061607 11.799999999988358,159.91194329351129 11.92342857143376,158.40667634386773 16.712457142857602,158.03035582783923 16.774171428609407,156.65677311748004 17.193828571442282,156.03583185847674 17.996114285720978,156.5062422810879 17.29257142858114,157.86101110248273 17.00868571427418,160.55167442432867 19.625371428614017,161.39837067549524 17.996114285720978,164.87915265982156 18.440457142860396,166.30905805873044 18.366399999998976,167.66368515080103 20.575771428615553,168.24692134001089 22.3408000000054,169.41338282776996 23.797257142839953,167.56961445769412 22.439542857173365,166.85467410399724 22.69874285714468,165.70699528720434 23.03200000000652,165.5941080868506" stroke="#4dd2ff" stroke-linecap="round" stroke-linejoin="round" stroke-width="0.5"><title>2022-04-28 7.1km</title></polyline><polyline fill="none" points="66.42273180457414,167.6064599949823 66.53579262216226,167.72956121542302 66.7215353938227,167.58183972122788 67.71485543370363,167.6064599949823 68.96660019940464,167.15098333001515 69.65304087739787,167.6064599949823 70.16181455636979,167.63108025881593 70.69481555334642,167.92652265401557 71.45393818544107,167.92652265401557 71.72851445662673,168.2588936467946 72.98025922235684,167.47104836698418 73.62632103692158,168.66512241314194 73.44865403790027,169.99457955664548 73.88474576271256,171.1762950383163 74.47427716851234,172.14873131976856 75.87946161517175,173.46580396984064 78.64945164506207,176.99837314147953 79.62662013957743,180.01381994987605 79.8608175473637,180.28458750936989 80.20000000001164,180.16151149420693 80.1030907278473,179.5830509137195 79.1824526420969,177.50300926613636 78.6333000997256,175.57059965568988 78.67367896312498,175.07825626173144 79.48125623131637,174.73361353358268 78.27796610168298,169.71145684023577 77.58344965107972,168.38199355722827 75.7825523429783,166.20308861066587 74.34506480558775,164.9227919572004 72.85912263210048,163.9379301830013 71.55084745763452,163.27313954093916 69.4834496510739,162.76838627574034 67.35144566302188,162.6575862222562 65.18713858426781,162.829941774522 65.01754735794384,162.38674080388228 62.933998006017646,161.03249576235248 61.09272183451685,160.55234715471306 57.0225324027997,160.8478236660194 56.5622133599245,161.03249576235248 55.60927218347206,160.87244664434184 55.076271186437225,161.10636444513148 52.774675972090336,162.89149721146168 51.54715852445224,163.42087141775846 48.405682951182825,163.29776154513456 48.066500498505775,163.13771834113504 47.79999999998836,163.4947372226634 51.41794616152765,163.71633410333743 52.1528414755885,163.53167009172466 53.3157527417934,162.90380829142305 55.63349950150587,160.87244664434184 56.23110667997389,160.94631551995553 57.69282153539825,160.61390487864992 61.48035892326152,160.5154124906294 63.72542372884345,161.26641295245645 65.09022931207437,162.49754134695468 65.04985044867499,162.85456395668734 64.3714855434082,163.15002937167446 64.4603190428752,163.75326683889944 64.18574277171865,164.91048128268085 63.62043868395267,165.6121857853177 62.82901296115597,167.4218077008154 63.265104685968254,168.11117342802754 63.24895314060268,169.10827799756225 64.3068793619168,169.3421643756701 65.87357926223194,170.2038433328089 66.76999002991943,168.91132035549163 68.40129611169687,167.975762914808 69.46729810570832,167.59414985933108 68.36091724826838,166.68319296253685 67.553339980077,167.02788094781135 66.43888334996882,167.06481168842947 65.95433698903071,168.33275362271525 66.16430707878317,168.6158827060608 66.82652043868438,168.9359400953872 67.82791625126265,168.27120364896837 67.62602193420753,167.8403521024993 66.48733798606554,167.80342182905952" stroke="#4dd2ff" stroke-linecap="round" stroke-linejoin="round" stroke-width="0.5"><title>2022-04-27 10.1km</title></polyline><polyline fill="none" points="90.28588908544043,163.55843790309154 91.95074053521967,163.42248552314413 95.19125496427296,162.44815534003283 95.93449221859919,163.03728622369817 97.43583147245226,163.33185051215696 98.37231041293126,163.96629406030843 99.66554323554737,164.01161132012203 100.06689135287888,164.46478291725361 102.237144135579,163.08260385660105 102.98038138996344,163.5131204612917 103.78307762468467,165.12187850055489 103.56010644836351,168.06743237263436 104.33307319291634,169.92535758035228 106.3398137796903,172.6668742745387 107.91547675890615,173.9583094760601 112.98435483372305,180.52854042113904 114.91677169507602,186.59999999999854 115.76406216504984,186.41876712995872 115.71946792979725,185.73914127528406 113.80191581347026,180.84571430567303 113.1478670296492,178.26298675115686 113.05867855908582,177.31144064754335 114.57488255802309,176.47316719475202 112.7316541672335,168.36198353123473 111.00734373705927,164.69136803335277 107.75196456297999,160.77138137505244 105.07631044724258,158.39213231409667 103.47091797785833,157.19115897425945 99.01149445166811,155.01577849286696 93.03586692659883,154.1999999999971 87.84807089110836,154.60788998367207 86.80753873504,155.01577849286696 86.95618618594017,156.14879439338256 86.42105536273448,158.16553454913083 85.49944116733968,159.27585924994492 84.84539238346042,161.1565884093361 84.23593783495016,161.9723166117692 85.18728152051335,161.99497564430203" stroke="#4dd2ff" stroke-linecap="round" stroke-linejoin="round" stroke-width="0.5"><title>2022-04-25 5.0km</title></polyline><polyline fill="none" points="138.40690345168696,167.7140348255998 139.82511255628197,167.60285586482132 140.97588794396142,167.09637138990365 141.4702351175365,167.466970195459 142.22391195595264,167.59050263456447 142.66963481737184,167.84991994925804 143.3827913957066,167.83756676861594 143.71505752875237,168.15874865956357 145.0036018008832,167.3804973405131 145.66813406703295,168.45522276299744 145.49794897445827,169.91286632466654 145.91935967982863,171.06166276323347 146.77028514255653,172.35866522006108 147.96968484239187,173.42095162644546 150.72506253124448,176.9658909752725 151.851525762846,180.31301557648476 152.19999999998254,180.18950867890817 152.1756878439046,179.7078294096791 151.67323661828414,178.12690684928748 151.17078539266367,177.23762005842218 150.73316658326075,175.65663402695282 150.69264632315026,175.1625675609539 151.55977988993982,174.74260794544534 150.4738369184488,170.14756841589406 149.6229114556918,168.2946328009857 148.61800900447997,167.00989801405012 147.40240120058297,165.70042918062245 145.54657328661415,164.19327017301111 143.6988494246907,163.25436556816203 140.93536768382182,162.64901158034263 139.13626813405426,162.58724043033726 137.27233616806916,162.84667884358714 137.03731865930604,162.2783837498755 134.92216108052526,160.96881419848432 132.92856428213418,160.48698442351088 129.52486243119347,160.6970132509523 128.59289644821547,160.96881419848432 127.34487243619515,160.90704136132263 125.4971485742717,162.40192660812318 124.05462731362786,163.21730325027602 123.0659329664777,163.41496868755712 120.40780390193686,163.26671966914364 119.95397698847228,163.0814078937765 119.79999999998836,163.3902605426265 122.61210605301312,163.6744036101045 123.90065032514394,163.56321734872108 125.16488244119682,162.92080390356932 127.35297648821143,161.05529606630807 127.71765882940963,160.90704136132263 128.71445722860517,161.00587787102995 130.8863431715581,160.7711409012045 133.0339169584622,160.82055928507543 134.14417208600207,160.9935233159922 135.15717858928838,161.47534912350238 135.48944472233416,161.1417778125542 133.82001000497257,160.5981762450283 131.5832916458021,160.56111232684634 128.9818909454334,160.79585009810762 128.1714857428742,161.01823242356477 129.8814407203463,160.9441050710593 130.9673836918082,160.7093678655474 131.60760380188003,160.8699776292633 133.13116558277397,160.79585009810762 134.54937468731077,161.21590492686664 134.99509754875908,161.66066573693388 134.53316658327822,162.6984284557111 134.3386693346547,164.2797475080297 135.96758379190578,164.7986089653714 135.12476238119416,166.84930427927247 135.93516758375335,166.57752931155483 137.36958479238092,166.61458960510936 138.41500750373234,166.8863644091034 138.24482241118676,167.466970195459" stroke="#4dd2ff" stroke-linecap="round" stroke-linejoin="round" stroke-width="0.5"><title>2022-04-22 10.1km</title></polyline><polyline fill="none" points="172.63583617750555,167.37389970066943 173.92593856656458,167.35985301548135 174.01808873721166,167.09296546062615 175.38191126281163,166.713702446963 175.9808873720467,167.13510566853438 176.83788395908778,167.26152614004968 177.42764505121158,167.61269291763165 178.11877133106464,167.55650635169877 178.45051194541156,167.94981136572824 179.98020477817045,167.07891871902393 180.7819112628058,168.3571606563346 180.6160409556469,169.97248793914696 181.08600682596443,171.27876881248085 182.09965870308224,172.72548152922172 183.352901023929,173.84912125004848 186.53208191125304,177.93620852785898 187.7576791809115,181.58769967967237 188.20000000001164,181.58769967967237 187.9880546075292,180.30969945396282 187.1955631399469,178.56821101871537 186.54129692836432,176.3210651131849 186.52286689419998,175.8575822916864 187.3337883959175,175.4924118455201 187.48122866894118,175.2536455232439 186.4030716723646,170.6186084089095 185.82252559729386,169.0313887529046 185.29726962459972,168.0621838207553 183.2976109215233,165.6320892254298 180.55153583621723,163.31429029210994 178.4412969283585,162.26071993435835 176.20204778158222,161.75500052626376 173.59419795224676,161.57237873035047 171.18907849831157,161.8252395515774 170.875767918129,161.1930857846819 168.5535836177587,159.7180381115686 166.31433447101153,159.21230032032327 159.7440273037646,159.7180381115686 157.55085324234096,161.55833088016152 155.82764505120576,162.35905383917634 155.79999999998836,162.76643568644795 157.46791808874696,161.95166961942596 160.20477815699996,159.60565225171013 162.75733788398793,159.70398988894158 163.85392491469975,159.42302484435277 164.79385665533482,159.60565225171013 166.83959044370567,159.56350750772617 167.91774744031136,159.90066474866398 168.59965870308224,160.3923494787341 168.08361774744117,161.65666577232696 167.91774744031136,163.58119226363124 169.75153583619976,164.12904048836208 168.76552901024115,166.41871868144517 170.29522184302914,165.95517025102163 173.23481228671153,166.5591872963305 174.79215017065872,166.05349896263215" stroke="#4dd2ff" stroke-linecap="round" stroke-linejoin="round" stroke-width="0.5"><title>2022-04-21 8.1km</title></polyline><polyline fill="none" points="28.294880546076456,208.15986446339957 29.806143344700104,208.0615376669557 30.183959044341464,207.9070238504828 30.34061433444731,207.59799519357693 30.23924914674717,208.0755843606421 31.363481228647288,207.51371441390074 33.34470989761758,208.34247100444554 34.192491467576474,208.32842436437204 34.45051194538246,208.693636089778 35.9064846416004,207.79464995138187 36.7266211604001,208.9886133992186 36.57918088734732,210.82868186919586 37.1505119453941,212.16305239312715 37.832423208194086,213.23053048764632 39.47269624573528,214.80362641260945 42.61501706484705,218.83452327689156 43.80375426620594,222.44387495562478 44.19999999998254,222.33152440372214 44.06177474404103,221.64337333674484 43.084982935135486,219.28394686443062 42.50443686006474,216.81208140614763 42.60580204776488,216.55927206153137 43.41672354948241,216.23623656956988 43.10341296927072,214.31203773578454 42.255631399311824,210.927004776393 41.27883959040628,208.87624123751084 39.16860068257665,206.30567874648114 36.54232081910595,204.1423999592953 34.54266211602953,203.11692625262003 32.70887372014113,202.59715986600713 29.71399317405303,202.34429914631255 27.023208191123558,202.6112076569516 27.004778156988323,202.45668180123903 26.87576791807078,202.00715009827036 24.41535836175899,200.44781461299135 22.166894197958754,199.95612504437304 17.93720136518823,200.23709093537764 16.94197952214745,200.50400748649554 16.2508532423235,200.30733223177594 15.83617747441167,200.40566992825916 13.560068259364925,202.21786844374583 11.818430034123594,203.06073547812048 11.799999999988358,203.48216518684785 13.458703071664786,202.65335101288292 16.177133105811663,200.40566992825916 17.347440273035318,200.56020031484877 19.82627986348234,200.2932839781206 22.222184300306253,200.2932839781206 23.632081911258865,200.546152112016 24.62730375424144,201.248558798663 24.055972696252866,202.44263397926989" stroke="#4dd2ff" stroke-linecap="round" stroke-linejoin="round" stroke-width="0.5"><title>2022-04-19 7.2km</title></polyline><polyline fill="none" points="52.04501831246307,203.16030606724235 52.09183938958449,202.898614012709 54.38607216771925,202.75587264851492 56.695911971561145,201.89942085169605 60.25431383156683,203.46957774998737 61.674553170392755,203.37441731816944 61.98669368441915,203.99295875870303 64.34335456538247,202.47038940409402 64.87399343925063,202.898614012709 65.8416290328023,204.6590766987356 65.51388149306877,207.5851932912483 66.3098398038419,209.55968641814252 67.46475970576284,211.3914156807441 70.1491681264597,213.9367586802764 75.61162712209625,221.00158311891573 77.62493343756068,227.281073469283 77.85903882310959,227.281073469283 78.28042851708597,227.09079077201022 78.2180004142574,225.83016018461058 76.11105194449192,220.73993046590476 75.4399498393177,217.71898981011327 77.0786875380436,216.5058344861609 75.33070065942593,208.86980701725406 73.55149972939398,204.30222826803947 70.03991894650972,200.13891715995123 65.35781123605557,196.14200085435004 63.75028758874396,195.3806681745191 62.79825902095763,195.0 62.64218876394443,196.8795372224631 63.37571897194721,197.83119026802888 66.45030303520616,200.376824592895 68.35436017077882,203.0413552050013 69.82142058672616,205.4679291627399 70.50812971760752,208.13234528471367 74.98734609398525,207.4900361648688 75.86133953323588,210.03546297495632 77.15672266652109,216.5771969079069 75.70526927622268,217.62384082181234 76.86018917820184,222.0719743194495 78.62378308246844,226.99564930881024 77.78100369457388,227.40000000000146 77.20354374364251,226.61508269191836 75.5960200963309,221.92925605136406 74.62838450283743,220.0501161567372 70.39888053765753,214.50766922874027 67.2930824230425,211.48656967385614 65.31099015893415,208.03718859783112 65.20174097904237,207.10940689522977 65.66995175008196,204.96834446927824 68.16707586229313,203.44578764916514 69.79020653531188,205.4441394631067 70.60177187179215,208.1799235995859 74.62838450283743,207.20456432729407 73.17693111259723,203.9691687630475 69.00985525018768,199.2110736065879 65.31099015893415,196.21337554228376 62.81386604666477,195.02379179670243 62.72022389242193,197.16503393877065 64.12485620559892,198.54492503590882 62.81386604666477,199.6393099956549 61.19073537364602,199.2110736065879 60.62888244836358,199.5917282510709 59.75488900911296,200.66231288194103 59.97338736895472,202.73208240440727 56.05602391780121,203.37441731816944 55.19763750419952,204.23085845290188 52.76294149475871,205.63445692569076 50.95252651331248,207.94203183447098 49.37621691747336,207.0856175252993 51.68605672131525,201.51877362137748 53.714970062545035,201.54256410912058 55.75949042948196,200.75747549200605 56.664697920146864,201.89942085169605 54.698212681745645,203.0889355642139 51.62362861848669,203.18409622530453" stroke="#4dd2ff" stroke-linecap="round" stroke-linejoin="round" stroke-width="0.5"><title>2022-04-10 10.4km</title></polyline><polyline fill="none" points="86.59626983292401,203.22100822642824 86.76972987042973,202.9565986204252 88.70932847104268,203.07678487735393 91.54776544764172,201.99510422095773 92.50968020077562,202.71622574450157 95.08004257403081,203.58156583891832 96.51503015658818,203.43734292421868 96.73579747695476,204.11038170610846 99.25885256723268,202.66815111142205 100.69384014984826,204.6151583093888 100.42576554650441,207.66780955261493 101.18268207355868,209.61473543889588 102.90151335386327,212.25865816976875 105.3457229725318,214.49392910977622 110.62836956779938,221.31965948038123 112.56796816841234,227.37596764136833 113.40373016707599,227.40000000000146 110.53375500184484,218.48366383469693 110.51798590755789,217.73860298845102 112.1895099048852,216.89739968592767 110.18683492700802,207.860099938247 108.57838730694493,204.56708443885873 105.15649384079734,200.3605460183171 100.2523055090569,196.20193702516553 97.69771223014686,195.0 97.61886675859569,197.33174682500248 101.40344939404167,200.3605460183171 103.2799716173904,203.65367723107192 100.83576199866366,204.92763799709792 99.35346713312902,202.76430035837257 96.92502660874743,204.1824927797279 94.02351325494237,203.05274763563648 92.76198570983252,202.9565986204252 91.15353808976943,203.4133057549043 89.1666322061792,204.83149048777705" stroke="#4dd2ff" stroke-linecap="round" stroke-linejoin="round" stroke-width="0.5"><title>2022-04-09 5.2km</title></polyline><polyline fill="none" points="122.57842189370422,203.20305554281367 124.34587250847835,203.058725109222 124.39321493566968,202.81817400013824 127.65984241128899,201.88002005964518 128.55934852780774,202.7219534213291 130.0111829614034,202.91439450172766 131.10005878657103,203.49171588832542 132.45720836584223,203.49171588832542 132.851728592359,204.06903449277888 135.2661923787091,202.52951203171688 135.97632878640434,203.17900048266893 136.78115004854044,204.69445984140475 136.4970954853925,207.653158578687 137.27035512943985,209.7217988447519 139.22717545297928,212.48794803642522 141.42070791241713,214.46029367287701 146.64415571157588,221.31514488198445 148.69566088955617,227.40000000000146 149.421578106354,227.2797489394943 149.27955082478002,225.88482781693165 147.6856891096104,222.1569416761995 146.54947085719323,217.85169013182895 146.80196380219422,217.41875124823855 148.1748941905098,216.76933998961613 147.33851131028496,212.27146909884323 145.57106069545262,206.13773664641485 144.5295272974181,204.09308937424066 142.6831726373057,201.88002005964518 138.21720367309172,197.57403977963259 136.41819144017063,196.20282921096077 133.76701551792212,195.0 133.56186500011245,196.6117883914194 133.8459195632022,197.50187119364273 137.22301270224852,200.24424689855368 139.36920273455326,203.49171588832542 136.97051975724753,204.81473357263894 135.21884995151777,202.69789826455963 133.05687911016867,204.0209247153325 129.83759406168247,202.93844961508876 126.94970600359375,203.371440828887" stroke="#4dd2ff" stroke-linecap="round" stroke-linejoin="round" stroke-width="0.5"><title>2022-04-07 5.0km</title></polyline><polyline fill="none" points="158.57260540826246,202.37970290628436 158.43068344541825,202.66815111030155 158.82491111994023,202.90852408265346 160.66989663627464,202.90852408265346 163.8710253528552,201.9710667608815 164.83294087852119,202.7162257433447 166.5202353251516,202.9806358802307 167.13523049734067,203.38926857946353 168.58598833926953,203.46138008745766 168.88560137187596,204.03827058774186 171.37712027441012,202.54796444305975 172.134037409327,203.17293379480543 172.9855691861012,204.87956425068842 172.71749436750542,207.95624501368002 174.08940667461138,210.72038295531092 175.46131898165913,212.52304722976987 177.33784271212062,214.01322920281382 182.90433747530915,221.2956259002167 184.84393763361732,227.40000000000146 185.56931655463995,227.32790290952107 185.5220092337113,226.10224572972947 183.06202854507137,220.4544475898947 182.5889553357847,217.6665000784269 184.16586603358155,216.96950305629434 184.2762497824151,216.29653656398295 182.49434069386916,208.89365546753106 181.3274267775123,205.48048467596527 180.01859089836944,203.6296401039217 179.13552090758458,204.1344187342038 179.6401323308819,203.29311983453954 177.14861342834774,200.12016792866052 172.6386488326243,196.34616865690623 169.86328600445995,195.0 169.70559493469773,196.6346313996255 170.00520796730416,197.52405381357676 173.34825864661252,200.0961300932904 175.66631737240823,203.1969710123958 174.18402131646872,204.3747887624122 173.01710740011185,204.83149048635823 171.62942598602967,202.7883376567479 171.04596902785124,202.88448680709553 170.57289581850637,202.35566552462114 169.8159786835895,199.80767569175805 171.28250563249458,198.43750779247785 173.37979686062317,200.19228140595806 175.650548265432,203.29311983453954 173.30095132568385,204.7593798037342 173.03287650708808,204.80745359691355 171.42442759533878,202.64411378647492 169.07483065559063,204.03827058774186 168.52291191136464,203.58156583757227 167.087923176412,203.437342922909 163.69756517611677,202.1633662971799 161.9787325154757,203.0046731364855 159.70798111066688,203.14889657242747" stroke="#4dd2ff" stroke-linecap="round" stroke-linejoin="round" stroke-width="0.5"><title>2022-04-03 6.2km</title></polyline><polyline fill="none" points="41.91803278680891,257.248112547808 42.606557377032004,254.39921011157276 42.39016393444035,253.22964495429187 44.199999999953434,252.3299732154992 44.199999999953434,251.4602853825636 38.77049180329777,247.98148339973704 35.6819672131096,247.1417604341259 29.052459016325884,247.23173097778636 23.072131147549953,248.16142342088278 20.45573770487681,247.9514933751634 15.773770491767209,251.73018904510536 11.977049180248287,253.61950102448463 11.799999999988358,254.42919884127332 15.104918032768182,253.01972203339392 20.554098360589705,248.22140337976452 21.655737704830244,247.86152326516458 26.39672131143743,247.92150334449252 29.229508196702227,247.29171131001203 36.01639344258001,247.8915133077826 39.399999999965075,249.33102827308176 40.12786885240348,248.82120164323715 39.47868852451211,248.16142342088278 34.12786885240348,247.05178983643418 24.86229508195538,247.7115729614743 23.052459016325884,248.25139335010317 20.652459016360808,247.9514933751634 14.711475409800187,252.5998753063177 11.799999999988358,253.76944539591204 12.07540983601939,254.42919884127332 15.63606557372259,252.6598534823861 20.436065573769156,248.37135317148932 21.891803278645966,247.83153321652208 22.777049180294853,247.98148339973704 25.98360655736178,247.2017408025713 34.855737704841886,246.75188745217747 40.14754098362755,248.3113732727652" stroke="#4dd2ff" stroke-linecap="round" stroke-linejoin="round" stroke-width="0.5"><title>2022-03-24 5.1km</title></polyline><polyline fill="none" points="67.0297297379002,267.43606837131665 66.13512450034614,267.23598997467343 64.85882102808682,268.1999999999971 64.28627367605804,267.90897918734845 64.0,267.181423062495 63.63022983513656,263.88915850172634 63.20081932109315,262.8705330578523 62.68791231827345,262.5067354786079 59.717822929495014,262.4339757873531 58.202958060544915,260.97876968008495 72.86255588685162,241.38577963197167 65.83692275447538,235.8000000000029 55.13744411317748,257.6317068519711 61.73366673151031,264.3620878472866 62.13922110587009,264.03467548662593" stroke="#4dd2ff" stroke-linecap="round" stroke-linejoin="round" stroke-width="0.5"><title>2021-10-26 5.0km</title></polyline></svg>