<?xml version="1.0" encoding="utf-8" ?>
<svg baseProfile="full" height="300mm" version="1.1" viewBox="0,0,200,300" width="200mm" xmlns="http://www.w3.org/2000/svg" xmlns:ev="http://www.w3.org/2001/xml-events" xmlns:xlink="http://www.w3.org/1999/xlink"><defs /><rect fill="#222222" height="300" width="200" x="0" y="0" /><text fill="#FFFFFF" style="font-size:12px; font-family:Arial; font-weight:bold;" x="10" y="20">Over 5km Runs</text><text fill="#FFFFFF" style="font-size:4px; font-family:Arial" x="10" y="280">ATHLETE</text><text fill="#FFFFFF" style="font-size:9px; font-family:Arial" x="10" y="290">Wenz</text><text fill="#FFFFFF" style="font-size:4px; font-family:Arial" x="120" y="280">STATISTICS</text><text fill="#FFFFFF" style="font-size:3px; font-family:Arial" x="120" y="285">Number: 33</text><text fill="#FFFFFF" style="font-size:3px; font-family:Arial" x="120" y="290">Weekly: 2.8</text><text fill="#FFFFFF" style="font-size:3px; font-family:Arial" x="141" y="285">Total: 239.1 km</text><text fill="#FFFFFF" style="font-size:3px; font-family:Arial" x="141" y="290">Avg: 7.2 km</text><text fill="#FFFFFF" style="font-size:3px; font-family:Arial" x="167" y="285">Min: 5.0 km</text><text fill="#FFFFFF" style="font-size:3px; font-family:Arial" x="167" y="290">Max: 15.0 km</text><polyline fill="none" points="29.31605847243918,44.57825841671729 30.435469459247543,44.542954663986166 31.933164158836007,44.09577195557722 33.616140676953364,44.825384090236184 34.17198613245273,44.81361622462646 34.47306908754399,45.084276535322715 35.376317952759564,44.44881121947765 35.69284105935367,44.40173944048729 36.34132742413203,45.34316783678878 36.194645984476665,46.86118927377902 36.60381000034977,47.86141446839247 37.3680975016905,49.01459409594827 38.742270988965174,50.297185601386445 41.22813538723858,53.532956876086246 42.18542478285963,56.497943170092185 42.571428571420256,56.52147420747497 42.501947889482835,55.90966416554511 41.65273955464363,53.87417325318893 41.14321455376921,52.109239522946154 41.14321455376921,51.744479925320775 41.91522213089047,51.41501769250317 41.96154258548631,51.2032195648535 40.78037099255016,46.44932687915207 40.27084599164664,45.36670335292001 38.58786947352928,43.189628110569174 36.225526287569664,41.28314985788529 34.295507344795624,40.31811870520323 32.65113120552269,39.91797917644726 30.21930733762565,39.729677276340226 28.33560884950566,39.97682339614403 28.173487258289242,39.5296058445565 26.17398763357778,38.211471102116775 24.30572929698974,37.76424007824244 20.430251259880606,38.046702174637176 20.082847850193502,38.199701908390125 19.040637621073984,38.08200984094583 16.848136102082208,39.764983928711445 15.713284963741899,40.36519376427532 14.655634583090432,40.565262343388895 12.216090639412869,40.40050003374199 11.806926623539766,40.17689330115536 11.714285714289872,40.50641871455082 13.66746488440549,40.765330239551986 15.775045569898793,40.64764332450068 16.91761678401963,40.02389872935237 18.670073984074406,38.43508533415661 19.117838378762826,38.199701908390125 20.051967547100503,38.31739373943492 23.68812323527527,38.08200984094583 25.26301869258168,38.24677866918137 25.687622859986732,38.376239566332515 26.197147860890254,38.870542179403856 25.76482361770468,39.81205943209716 25.556381571892416,41.03600924711645 25.64902248114231,41.494983837576 27.177597483823774,41.848038768839615 27.594481575477403,40.624105913164385 28.574931198410923,41.01247199176942 29.802423246001126,41.21253836115284 32.450409235520056,40.95362881193796 33.60070052539231,41.96572327327158 34.73555166373262,41.647974568910286 36.52660924263182,43.21316449157166 37.561099395970814,44.66063375700833 37.62286000215681,44.76654473867529 36.98209371312987,45.28432900504049 36.395367954537505,45.519683977527166 35.67740090782172,44.389971489828895 34.44990886020241,45.11957996194542 33.091175524517894,44.59002632955162 32.07984559846227,44.59002632955162 31.408199006371433,44.83715195347395 29.97998498872039,45.837411691176385 28.86057400194113,45.190186751424335 29.14621680547134,44.51941881705352 29.34693877553218,44.55472258394002" stroke="#4dd2ff" stroke-linecap="round" stroke-linejoin="round" stroke-width="0.5"><title>2022-06-10 10.5km</title></polyline><polyline fill="none" points="79.0,53.1400305257921 78.53165654811892,52.81367248680908 78.81266261928249,51.81419447011285 78.53165654811892,51.54902518243034 75.93569570063846,51.30425291790016 73.24606616277015,51.83459207897977 73.91512823686935,49.71321882176562 75.28001486803987,47.754988800996216 75.62792714659008,46.2250953301409 75.41382728287135,45.409142723896366 76.75195143106976,44.91956801406195 76.71180770662613,44.51158728671726 76.59137653326616,44.12400407797395 74.75814645024366,42.818449757141934 71.25226118200226,41.34968108814064 69.40564985750825,41.14568375991803 63.156610085454304,41.696475605836895 62.43402304543997,42.043268939552945 60.9620864824974,41.79847376805992 60.25288068392547,42.0636685105128 57.09490769417607,44.65438072768302 55.23491512823966,45.67432803985139 52.826291661476716,46.04150656515412 51.72902985999826,45.694726881658426 49.092925288074184,45.77632220778469 48.37033824805985,45.38874382474023 48.142857142869616,45.980310236460355 54.36513443189324,46.32708894499956 54.40527815633686,45.73552455288882 57.2956263164524,44.28719718819775 59.77115599057288,42.0636685105128 61.16280510468641,41.53327833321964 61.805104695784394,41.61487700231373 61.805104695784394,42.6348548349124 60.159211993566714,44.00160907320242 60.159211993566714,44.28719718819775 63.43761615661788,43.77721784811001 63.879197125526844,45.041961912749684 66.38148928259034,44.98076498186856 66.42163300703396,46.69426511076745 67.23788873743615,46.83705548344733 66.60897038778057,47.265425397257786 66.70263907819754,48.632117332053895 68.80349399079569,48.632117332053895 72.24247305165045,49.30525734715775 73.68764713167911,49.85600495086692 73.29959112874349,51.79379685719323 75.58778342214646,51.039082299073925 78.62532523847767,51.50822984601837 78.91971255111275,51.77339924019179 78.89295006811153,53.03804375121399" stroke="#4dd2ff" stroke-linecap="round" stroke-linejoin="round" stroke-width="0.5"><title>2022-06-09 5.2km</title></polyline><polyline fill="none" points="98.68629961585975,43.80136862579093 99.94073532099719,43.77125571205397 101.68904335101251,43.214164626726415 103.83244924090104,44.14766626458004 104.7609292116249,44.13260987873946 104.88933601608733,44.41868069233897 106.46972745560925,43.53035196683777 106.8351929760247,43.84653797374631 107.44759465885,44.915537932669395 107.19078104992514,46.451257679698756 107.43771721236408,47.369663283985574 108.58350100601092,49.34193894392956 110.26266691053752,50.92273312910402 113.6111212730757,55.16812973405467 114.97420888967463,59.202539247708046 115.42857142855064,59.09716564014525 115.2408999451145,58.269225000251026 113.84817998899962,54.882099925023795 113.52222425458604,53.18095273255312 113.64075361256255,52.92502459422394 114.59886592280236,52.44327514080942 113.107371501741,46.3609220946164 112.23815620999085,44.56924384011654 109.42308395830332,41.40735424820741 107.18090360343922,39.615557626995724 104.80043899762677,38.39590686352312 102.59776842873544,37.83877583970752 99.98024510696996,37.612910731761076 97.12566306930967,37.899006420208025 96.79970733489608,37.20635182299884 95.55514907627366,36.40828533187596 94.2315712456475,35.62526844340027 92.91787086150725,35.2337569326628 91.4856411194487,35.083175038016634 86.06292299248162,35.62526844340027 86.01353575999383,36.21253187635739 86.7247119077947,36.092067957397376 85.81598683004268,36.28782172741194 84.57142857142026,37.31175619621354 87.29760380461812,37.10094730156561 87.54453996708617,37.92912169234478 89.37186756904703,38.00440981971042 89.36199012256111,39.193952199326304 89.93488201938453,39.28429641908588 89.4706420340226,39.52521380633698 89.53978415948222,40.59427537359443 93.09566489845747,40.895416725528776 94.80446314247092,41.49769580116117 94.35010060359491,43.063598758024455 94.78470824946999,44.3132863090359 94.69581123100943,45.48767249483353 96.33546734953416,45.879130469518714 97.91585878908518,46.797543080981995 99.02213279675925,45.36722347607429 101.32357783059706,43.93687658798444 102.20267056883313,43.71102984830213 100.97786720318254,42.551672543057066 100.01975489300094,42.98831571031042 98.6566672763729,43.03348554803233 98.51838302539545,43.77125571205397" stroke="#4dd2ff" stroke-linecap="round" stroke-linejoin="round" stroke-width="0.5"><title>2022-06-07 8.0km</title></polyline><polyline fill="none" points="150.30917821679031,41.412558257576165 149.24053257668857,43.3289537026576 147.39397577213822,42.75404153356067 146.9539452144527,43.34093098060839 145.4452690167236,44.586554756035184 144.61235403252067,45.04168003221275 144.25090036017355,45.49680183609962 143.20582778568496,47.48492479225388 142.8286587362527,49.02986615942791 142.19218596533756,50.32327467462164 141.53999781733728,53.221366020101414 141.18640183345997,53.5566732876905 139.8348794063204,54.77813382621389 138.76623376624775,55.42477928156586 134.06733602532768,56.52645539716468 131.57644876133418,54.07160577941977 130.2563570883067,53.353094100002636 128.18978500491357,52.91000758424343 128.0404889228521,52.622598355032096 128.24478882463882,51.65258198414449 128.14263887374545,51.185531439768965 127.08970861072885,50.65859823082792 125.03885190439178,48.58674753378 121.46360362326959,48.45500892927885 121.0,48.15560192802877 121.0,47.59271269756937 123.75019098547637,45.544709192428854 123.73447560844943,45.30517202607007 123.5301757066627,45.26924136817979 122.7915529848542,45.88005960941882 122.58725308306748,45.79622218188888 122.66582996834768,45.58063968440911 127.08185092220083,42.10725872024341 127.14471243042499,40.598071549855376 127.36472770926775,40.52620454173666 129.26628833354334,40.981360797653906 131.7807486631209,40.63400502147124 134.71952417332795,39.04093365429435 137.650441995007,38.21443625788743 138.98624904509052,37.962891298913746 139.37913347160793,38.17850132871172 142.54578194915666,37.759258888549084 143.15082396595972,37.86706436888562 143.30797773657832,38.825326741884055 146.48248390265508,39.136758698565245 147.40969114922336,39.48412319354611 147.04037978831911,40.75378310379892 147.40969114922336,41.75990950020787 147.39397577213822,42.7300867395752 148.76907126489095,43.11336228854998 149.97915529849706,43.784088573713234 150.5763396268012,42.897770095281885 151.8571428571595,41.92759558308535 151.65284295540187,41.43651358062198 150.83564334828407,41.38860292490426" stroke="#4dd2ff" stroke-linecap="round" stroke-linejoin="round" stroke-width="0.5"><title>2022-06-05 8.1km</title></polyline><polyline fill="none" points="163.58194608899066,41.8692407951894 163.71735042141518,42.12150759222277 163.8677996796323,41.77750727629609 165.4926516682026,41.8692407951894 168.4865919064032,40.837234459737374 169.82559030439006,41.66284027410438 172.96997980074957,42.3049740036804 173.3611478721141,42.83243829517596 175.8886954098707,41.45643938000285 176.56571707181865,42.14444090973848 177.22769380791578,43.612163655234326 176.89670543983812,46.3411604975845 177.69408650830155,48.26747195258213 179.4994776067324,50.85876825857849 181.39513826009352,52.463966570590856 184.2536741659278,55.97239291702135 186.70599707460497,59.38899212873366 187.68391725287074,61.77367196139676 188.28571428568102,61.475589704823506 187.06707529426785,58.38007413560263 186.6307724454673,55.995323453731544 186.81131155532785,55.58257308906468 188.1202201017295,55.05516767477093 188.1352650275221,54.59655229159398 186.3750087065273,46.91447087388224 184.78024656965863,43.15350232340279 181.90666573797353,39.644682191596075 176.89670543983812,35.44771653143107 173.3912377237575,33.589993964342284 167.89983979944373,32.51204232431337 162.84474472387228,32.64965373852465 161.0092637737398,32.856070548907155 159.986208818038,33.36064340368466 160.1366580761969,34.32391266342893 159.59504074667348,36.61737820079725 159.17378282372374,36.73205026868527 157.42857142857974,40.44736297282361 160.06143344705924,39.80521879913431 163.04032875952544,40.149225055436546 163.71735042141518,40.401495651574805 163.5067214599112,41.548173156770645 164.04833878949285,41.84630742239824 163.67221564392094,42.02977427600126" stroke="#4dd2ff" stroke-linecap="round" stroke-linejoin="round" stroke-width="0.5"><title>2022-06-04 5.1km</title></polyline><polyline fill="none" points="42.33025246570469,87.32122181381419 42.42404317346518,86.03450494800927 41.43254140557838,85.74856565622031 39.51653123256983,85.56474711566989 36.90379008743912,86.17747429249721 37.57372371436213,84.23715890320454 38.75280689782812,82.54190568753984 39.31555114444927,80.58109564343613 39.11457105638692,79.82535667996126 40.293654239794705,79.31471906629304 40.32045158490655,78.57939639870165 36.78320203462499,76.29169187956722 35.05477327705012,75.74018398529006 33.326344519562554,75.53592104332347 26.908380373410182,75.98529897420667 26.184852056321688,76.25083954555885 24.52341666148277,76.08743004521239 20.316233484249096,79.294293508392 17.904472427238943,80.35641707864124 13.523106507025659,80.17258879293513 11.942063147434965,79.7436548340338 11.714285714289872,80.31556637722679 12.518206066568382,80.54024503216351 18.02506048011128,80.70364737866475 20.637801625183783,79.58025094530603 24.59041002416052,76.20998719508498 27.002171081170673,76.3733964985222 32.910985670867376,76.04657762910938 35.322746727848426,76.41424878330145 36.94398610503413,77.49682835240674 36.38124185844208,78.37513915867021 35.8318962843623,81.84745645333169 38.257056013913825,82.70530481830792 36.99758079525782,86.01408073955827 39.36914583458565,85.34007955932611 41.03058122942457,85.52389850591135 42.571428571420256,86.03450494800927 42.39724582841154,87.21910202230356" stroke="#4dd2ff" stroke-linecap="round" stroke-linejoin="round" stroke-width="0.5"><title>2022-06-03 5.0km</title></polyline><polyline fill="none" points="78.78552811220288,87.34421680191736 78.54424723846023,87.07858979114826 78.83914608421037,86.22040547910728 77.32443837661413,85.62784542067675 75.66228124615736,85.50524635711918 73.58458483312279,86.22040547910728 73.23606801542337,86.07737405679654 73.45053990324959,85.01484862566576 75.40759587936918,81.84763968920015 75.70249472511932,80.5602943309641 75.50142733028042,79.76335809018201 76.70783169916831,79.27293268580252 76.65421372721903,78.6803321685511 73.10202308555017,76.28946054802509 71.06454015147756,75.65597232810978 69.71068635970005,75.5129260552203 63.81270944522112,75.96249937864195 62.15055231479346,76.37120067622163 60.877125480998075,76.10554501951992 56.641305696975905,79.33423599065281 54.30892391715315,80.3355180745275 49.13478962396039,80.13117559228704 48.42435149566154,79.72248939676501 48.142857142869616,80.27421537291957 48.880104257230414,80.5398601463603 52.95507012537564,80.76463595146197 55.247238426236436,80.49899176481995 57.512597741151694,79.12989149761415 61.05138388983323,76.18728529546206 62.619709569378756,76.43250572925899 66.53382152170525,75.98293448252662 71.84200074474211,76.37120067622163 73.24947250841069,77.16816348490829 73.3164949733764,77.57685993980704 72.5792478590156,79.10945702576282 72.21732654835796,81.90894144285267 74.95184311782941,82.68542712619819 73.3969219312421,86.03650789921812 75.9571800918493,85.40308035792987 77.8472136031487,85.70957804768841 79.0000000000291,86.179539378958 78.77212361924467,87.16032125293714" stroke="#4dd2ff" stroke-linecap="round" stroke-linejoin="round" stroke-width="0.5"><title>2022-06-02 5.0km</title></polyline><polyline fill="none" points="95.09998911980074,76.08298759800527 96.75682733108988,76.02925228592358 98.51942117291037,75.47398549877107 99.1069524534687,75.63519234141859 99.09520182787674,75.20530678027717 101.65683821128914,76.35166367301281 102.72614514196175,76.40539879087737 102.86715264932718,76.7278088185194 103.7249483190244,76.42331048967753 104.72375149602885,75.63519234141859 105.3935371559055,76.19045812512923 105.9340659340669,77.35471386968857 105.69905342182028,79.71900185249251 106.25133282560273,80.88321154652658 107.63790664781118,82.99666108813835 109.34174736152636,84.44738984383002 113.33696006963146,89.65907261516259 114.77053639429505,94.22576085432956 115.42857142857974,94.15412833355367 113.19595256226603,87.4741430193244 113.19595256226603,86.84730907698395 114.41801762592513,86.16674152424093 113.10194755738485,80.29215313905297 111.7153737351764,76.9964829513483 108.4957023174793,73.073760270192 105.6638015449862,70.9242500249893 103.19617016645498,69.65243207300227 100.61103253185865,68.98964651636197 96.70982482866384,68.63138200281537 93.4431509085116,68.95382012976188 92.3973452290229,69.32999647138786 90.6700032640656,69.27625709115091 85.69948863019818,69.84947547800402 85.19421172887087,70.01069248560088 85.13545860082377,70.67347045565839 84.60668044825434,70.72720899413252 84.57142857142026,72.08857450415235 88.00261125012184,72.33935009510606 90.36448699815082,72.96628598808456 90.91676640190417,73.360357722755 90.44674137746915,74.91871525530587 92.64410836686147,74.36344155535335 95.40550538568641,74.82915521487303" stroke="#4dd2ff" stroke-linecap="round" stroke-linejoin="round" stroke-width="0.5"><title>2022-05-30 6.1km</title></polyline><polyline fill="none" points="136.8984994510247,78.58428464809913 137.0214712699817,78.46378167094372 137.8910577040515,78.53072779624199 139.62144687082036,77.94159958680757 141.60656337684486,78.73156576889232 142.37952909601154,78.74495494555595 142.67817494203337,79.02612703455088 143.9430279370281,78.22277506333194 144.25045748444973,78.4503924377932 144.80383066978538,79.41441035126991 144.57545443455456,81.00768718422842 144.82139807246858,81.73067419872314 146.13016957425862,83.75231850516502 147.22813224350102,84.66270784733206 150.31999512016773,88.63882150117934 151.45309259483474,92.13278629344495 151.80444064902258,92.10601331287035 151.85714285713038,91.69103073894075 150.80309869462508,89.06721017222662 150.23215810663532,86.81813894847801 150.32877882150933,86.55038732176399 151.1280956447299,86.24247162203028 151.17201415152522,86.00149312616486 149.76662193486118,80.43196969603014 149.0639258265146,79.11985080076192 147.36867146517034,77.05789751324846 144.61058923997916,74.7013013920623 144.18018787360052,74.63435142191156 142.44979870686075,73.64348400418385 140.1045504452777,73.12126416965839 137.71538367695757,73.00075131930862 135.71269976822077,73.25516708123905 135.39648651945754,72.67938265348857 133.17421007686062,71.28676720259318 130.8816640234436,70.72435656369635 127.21007685738732,70.99217174527803 126.21751860436052,71.25998585113848 125.29522996218293,71.1394696366624 124.74185677687638,71.27337652821734 122.52836403562105,73.05431261298872 121.61485909478506,73.58992318375022 121.0351348053955,73.71043496925995 121.0,74.08535913118249 123.0641698182153,73.02753197151469 125.19860924730892,71.1260789326916 127.9039892643923,71.2332044889954 128.82627790656989,71.00556247609711 129.74856654871837,71.16625103644765 131.092472855933,71.07251608999286 132.17286812249222,71.24659517141117 133.32353299990064,71.83578253615633 133.9998780041642,71.4474550852101 134.8518970355217,72.31784105299812 135.45797242893605,72.6258210585911 135.41405392216984,73.21499623600175 135.15932658288511,73.34889895937522 135.15054288154352,73.60331339290133 135.59851165060536,73.93806774755285 136.67012321579386,74.2728204215855 140.38562888864544,73.9514578867711 140.8775161644444,74.16569974875893 141.975478833745,75.25028861148166 144.58423813589616,74.56740138455643 147.1139441259147,76.70976923836497 149.0463584238314,79.03951615209371 149.942295961926,80.83363358408678 147.57948029768886,81.48967939817885 147.23691594484262,81.11479686616804 146.9031352933962,79.89641408175521 146.16530437965412,78.9056248558627 144.8916676833178,79.50813357172956 144.0484323533019,78.37005698260327 142.63425643529627,79.07968348852592 142.31804318653303,78.83867910694244 141.61534707818646,78.79851162534396 141.0004879834014,78.51733857657382 140.1133341466193,78.46378167094372 139.46334024643875,78.6378414569408 138.8572648530244,79.13323989947821" stroke="#4dd2ff" stroke-linecap="round" stroke-linejoin="round" stroke-width="0.5"><title>2022-05-28 10.0km</title></polyline><polyline fill="none" points="173.47989929345204,78.43457677618426 174.73418338340707,78.38109594599518 176.06740843012813,77.76606331158837 176.8305043450382,78.31424484788295 177.48834565095603,78.39446615758061 178.0760172175942,78.72872057431596 178.75140095836832,78.70198028274899 179.08470722002676,79.04960323586783 180.05831235280493,78.35435551479895 180.48810200602747,78.24739368261362 181.21611305128317,79.37048435108954 181.08454479006468,81.09519385332533 181.5318768780853,82.20486704765426 182.3125152278226,83.47495222540965 183.8123934053583,84.85196457476559 186.77706489080447,88.70210042039253 187.89100950217107,92.15099143678162 188.28571428573923,91.99058186162438 188.23308698125766,91.32220447293366 187.13668480468914,88.6218915273057 186.6718102818122,86.63000636057768 187.61910176236415,86.1487365781868 186.34727523755282,80.72084209826426 185.4613822789106,78.95601261932097 183.09315357755986,76.37553380563622 181.04068870301126,74.70418587569293 179.9004304393893,74.24957198113043 179.10224965485395,73.6879858259199 176.66385121419444,73.11302366454038 174.2429952083039,72.95256822174997 172.08527572485036,73.19325124094757 171.94493624623283,72.65839890570714 169.62933484936366,71.2142761394025 167.44530171362567,70.70615142036331 161.24405100298463,71.2142761394025 159.0512466499058,72.9793108224294 157.42857142857974,73.75484156892708 157.44611386337783,74.02226386983239 157.79696255989256,74.02226386983239 158.71794038818916,73.5409029548864 161.3317631771206,71.29450600372002 161.7176967432606,71.16078950947485 164.2876634451386,71.18753282981197 165.06830179484678,70.93347085297137 165.87525379681028,71.12067450886025 167.59441240964225,71.0538161207296 168.6381872817583,71.25439108362843 169.79598798017832,71.84274082239426 170.4626005035534,71.41485061887579 171.2081539836072,72.2839997146657 171.9186225940066,72.67177026643913 172.02387720296974,73.0461672770507 171.6116299845744,73.48741819395582 171.8221392024716,73.80832611503865 172.3220985949738,74.0356349567337 173.79566312028328,74.30305612984012 176.82173312758096,73.91529507837913 177.20766669375007,74.07574820112859 178.45317956633517,75.26576346010552 179.9004304393893,74.77104059842168 181.01437505078502,74.63733108587621 183.3299764476833,76.45575745110182 185.24210184361436,78.71535042988035 185.9613416714128,79.89191286533605 186.3034191505285,80.89464853199024 183.96150410137489,81.48291309534034 183.68959636159707,81.14867250368843 183.38260375213576,79.95876237954872 182.54056688054698,78.86242187123207 181.3389100950444,79.47744437921574 180.44424591894494,78.28750438983116 179.05839356777142,79.07634338786374 178.74262974094017,78.79557125634892 178.06724600019515,78.76883099159386 177.45326078130165,78.4212065726424 175.85689921220182,78.62175934352854" stroke="#4dd2ff" stroke-linecap="round" stroke-linejoin="round" stroke-width="0.5"><title>2022-05-26 10.0km</title></polyline><polyline fill="none" points="17.84523534611799,109.14937821656349 19.792902297340333,109.06269554164464 22.380313867761288,108.21753581215307 25.46530458627967,109.64780224653077 26.531545617966913,109.58279054704326 27.014908219047356,110.27624665550684 29.43172122433316,108.78097636719758 30.668560821155552,110.73132480526692 30.284714049717877,112.96334699165163 31.1234903280274,115.1736535708551 32.104432077205274,116.84218835867068 34.83400911849458,119.42078229571052 39.610768940648995,125.57448863697209 41.37362077977741,130.99119332365808 42.15553086978616,131.14285714285506 42.013365398859605,130.12453884020942 39.8950998824439,124.98946826645988 39.553902752290014,122.32433534187294 40.84760853747139,121.82596984942211 40.989774008397944,121.45761126734578 38.60139409726253,112.09654774138471 37.56358615972567,110.16789443227754 34.43594579998171,106.54886768177676 30.313147143868264,103.1247665731862 28.038499609509017,101.8461186800705 24.441713195759803,100.67581749950477 19.622303732321598,100.28571428571013 15.414205793698784,100.69748985890328 14.404830950312316,101.00090243382874 14.632295703748241,101.8244465513053 14.07785036729183,104.20835462333343 13.068475523847155,105.37861749742297 12.13018341595307,107.76244706259604 14.532779874105472,107.11231694855087" stroke="#4dd2ff" stroke-linecap="round" stroke-linejoin="round" stroke-width="0.5"><title>2022-05-24 5.1km</title></polyline><polyline fill="none" points="78.94631206116173,121.68880158545653 78.65102839743486,121.36144952222821 78.9194680917135,120.3180078018122 76.90617038466735,119.90881205340702 75.47001802027808,119.99065133456315 73.61778412974672,120.5635244620862 73.29565649660071,120.33846754607657 73.8728018393158,118.80397532423376 75.30895420370507,116.45104236550105 75.77872366865631,114.9369524252179 75.60423786743195,114.09805506893463 76.86590443053865,113.56606780071161 76.86590443053865,113.17730611727893 76.63773069038871,112.62485275226936 74.81234076930559,111.3971678828675 71.76555023924448,110.06715924711898 69.56434474614798,109.73976984311594 63.927111166354734,110.21039178055798 62.27620704652509,110.5787030847423 61.12191636118223,110.33316236321116 60.276331324188504,110.61962648085319 56.679239420889644,113.54560669642524 54.43776797366445,114.5686568754536 49.538743553101085,114.40496953711408 48.330764928861754,114.05713307003316 48.142857142869616,114.44589139640448 48.6797365314269,114.73234395084 51.364133474213304,115.01879569993616 55.283353010658175,114.83464823934628 57.49798048840603,113.54560669642524 60.45081712550018,110.8856281545959 61.2561362083361,110.5173179598496 69.05430932703894,110.39454759911314 71.83266016282141,110.66054986049858 73.34934443546808,111.7040904871028 72.59771329152863,113.15684493497974 72.26216367364395,116.10321288346313 74.98682657058816,116.9420937304094 73.40303237436456,120.33846754607657 76.03374137825449,119.72467343048629 77.41620580377639,119.86789238823985 79.0,120.29754805345146 78.9194680917135,121.13639436868834" stroke="#4dd2ff" stroke-linecap="round" stroke-linejoin="round" stroke-width="0.5"><title>2022-05-22 5.0km</title></polyline><polyline fill="none" points="90.77426647144603,108.70022348206112 90.85897098737769,109.15213494934869 91.96012969466392,109.19517403734062 93.48481098178308,108.97997842456243 95.37654517125338,108.22679037717899 95.99771162151592,108.76478237974516 97.48004065058194,109.00149800530926 98.5529645193019,109.6255639665178 99.66824064590037,109.53948611895612 100.00705870968523,110.05595216733491 102.15290644700872,108.70022348206112 102.85877741326112,109.25973263687774 103.55053096014308,110.61545424452197 103.18347805773374,113.2622898624104 104.1011103137862,115.32806736599741 105.6399090201594,117.5229123371173 107.54576062900014,119.13674025892396 112.54332706984133,125.59180896262114 114.35035674343817,131.14285714285506 115.01387545169564,131.0137662641646 114.91505351633532,130.3898248251644 112.64214900514344,124.88177043452015 112.28921352204634,122.57949194622051 112.43038771528518,122.19218790186278 113.658603196498,121.69729736414592 113.74330771248788,121.09481884267734 111.58334255579393,112.44457526728365 110.56688836443936,110.37874218373327 106.65636321151396,105.77351260883734 103.19759547704598,103.08345050518983 99.38589225936448,101.23264856767491 94.91067033354193,100.37179956615728 91.91777743666898,100.2857142857174 88.459009702201,100.6730975032624 87.42843809153419,101.08200049160223 87.54137744609034,101.92132279007637 86.99079809244722,104.31012719959836 86.25669228757033,105.02030202615424 84.98612454836257,107.882474078222 87.42843809153419,107.10775836091489 89.50369873218006,107.3014378153166 90.90132324537262,107.86095427285181 90.59074002021225,108.67870384080743" stroke="#4dd2ff" stroke-linecap="round" stroke-linejoin="round" stroke-width="0.5"><title>2022-05-16 5.4km</title></polyline><polyline fill="none" points="138.9935810570023,113.0556483361579 139.6945296341146,113.11435575679207 141.21967049426166,112.62121159150774 141.58169888026896,112.93823331804015 142.39048570004525,113.09087279560481 142.79873047574074,113.33744341770944 143.48427358962363,113.31396054611105 143.72305826973752,113.6309785169542 144.9631980600534,112.91475028614514 145.6641466372239,113.97147738611602 145.5100920048717,115.49782726261037 146.12631053419318,116.80106370317299 146.93509735399857,117.90468266175958 147.85172241638065,118.6678112506379 150.5245702874381,122.07241747945955 151.5105199344107,125.07769827719312 151.8571428571595,125.05422011947667 151.8417373939301,124.71378577359064 150.7402467727079,121.79066448677622 150.4398402396764,120.5344992107348 150.4937593609793,120.28795893298593 151.2178161329648,119.93575673326268 151.240924327838,119.71269424299317 150.11632551174262,115.12211406635834 149.42307966624503,113.76013349382993 147.59753227303736,111.59968544753428 145.132658155635,109.62703273385341 143.72305826973752,108.92249777908728 142.33656657874235,108.558484726389 139.8408815348521,108.32363639298273 137.59938663433422,108.52325753652258 137.43762927039643,108.07704462772381 136.37465230727685,107.30203516648544 135.32708080738666,106.71489994782314 133.817345410469,106.35087315137571 130.27408886668854,106.57398661806292 129.41908565722406,106.79709923336122 128.24827045146958,106.72664270999303 125.91434277157532,108.52325753652258 124.64339205477154,109.08689002781466 121.57000213966239,108.98120934954568 121.1540546323522,108.76984741997512 121.0924327794346,108.87552848025734 121.0,109.0986323136276 121.4467584337981,109.21605504187391 124.52785108055105,109.36870423610162 125.85272091862862,108.85204381669973 128.57178517940338,106.7383854697764 130.08922330790665,106.84407020178696 131.21382212397293,106.6679288756277 133.6401825833018,106.69141441644388 134.56451037732768,106.80884197901469 135.62748734044726,107.30203516648544 135.96640753158135,106.98498288066185 134.36423935528728,106.4565585838136 133.4091006347735,106.35087315137571 130.16625062408275,106.55050103005124 129.03394907640177,106.84407020178696 130.69003637402784,106.79709923336122 131.65287782612722,106.57398661806292 133.6478853148874,106.65618610169622 134.70315954642138,106.87929840333163 135.71992011982366,107.31377781074116 136.18208401685115,106.97324017039864 136.94465444691014,107.75999654428597 137.47614292846993,108.01833214938597 137.50695385495783,108.4762879169939 136.85992439914844,108.73462035744888 136.92924898368074,109.08689002781466 138.4389843805984,109.80316514616425 139.8408815348521,109.69748576241909 139.8948006561841,111.31788199139919 139.5481777334353,111.52923471081522 139.5327722701768,111.89322927018293" stroke="#4dd2ff" stroke-linecap="round" stroke-linejoin="round" stroke-width="0.5"><title>2022-05-14 9.9km</title></polyline><polyline fill="none" points="170.7099214431073,112.11501701255474 171.70497526915278,112.17888172648964 173.78935117836227,111.44443441941985 174.7529822519573,112.03518604802957 175.35001454755547,112.08308463638969 176.0517893511569,112.49820452670974 176.70119290080038,112.43434006924508 177.3296479488199,112.84945812583464 178.8798370672157,111.81165892093122 179.86441664243466,113.3284378058961 179.64445737563074,115.26029322957766 180.21006691883667,116.60138840287254 180.9118417224381,117.81474073741992 182.74483561245142,119.52298172188603 186.47366889729165,124.31224676196871 187.9295897585107,128.47867273739394 188.24381728252047,128.3669323606009 188.28571428571013,127.7603390041404 187.07070119288983,124.8071210409471 186.41082339247805,122.02939973533648 186.5050916496839,121.77397221532738 187.5210939772951,121.2631147140637 186.34797788772266,116.15435919154697 185.03869653766742,113.00911833975988 182.24207157405908,109.70408654356288 179.6968286296178,107.67629372271767 176.9944719231862,106.36698269361659 174.30258946758113,105.80812385974423 172.09252254874445,105.63248170063889 168.9607215594733,105.91989594073675 168.69886528950883,105.34506642158522 167.28484143150854,104.30716926385503 165.78702356707072,103.46087386151339 164.61390747746918,103.09361078973598 163.16846086701844,102.94989869117853 158.2141402385605,103.33313037677726 157.42857142857974,103.62055292876903 163.4722141402308,103.34909832358244 165.4413732906687,103.82813523681398 166.08030258945655,104.35507250785304 165.45184754143702,105.63248170063889 165.20046552224085,107.86789840637357 167.21152167589753,108.66624628494174 166.1117253418488,111.17300652388803 167.7980797206692,110.662080912909 169.85103287751554,110.86964483830525 170.44806517314282,111.09317461360479 170.34332266513957,112.03518604802957" stroke="#4dd2ff" stroke-linecap="round" stroke-linejoin="round" stroke-width="0.5"><title>2022-05-12 7.0km</title></polyline><polyline fill="none" points="22.89116684839246,144.6870208252367 24.21025081787957,144.6870208252367 26.389094874582952,143.93299948065396 26.907306434004568,144.39977534853824 28.732824427454034,145.02812363018165 29.828135223535355,145.06402911290934 30.33456924755592,145.548751718321 32.195419847324956,144.41772821785707 33.12584514718037,145.9257563724168 32.98451472190209,148.56474444151536 33.77360959650832,150.1624612690648 34.95136314065894,151.83195509209327 36.458887677203165,153.1064939097414 38.75550708829542,155.90682524890144 38.99105779713136,156.58894395871903 40.12170119956136,157.7557138997363 40.8519083969295,159.0301682843492 41.91188658666215,162.65598140951624 42.571428571420256,162.47648916911567 40.61635768809356,156.57099353303056 40.51035986910574,155.70936886178242 41.723446019605035,154.95544046362193 40.4396946564957,149.31872672658938 39.57993456922122,147.00290376767225 38.92039258449222,145.74623054492258 36.27044711011695,142.5506104995875 34.138713195192395,140.62959292069718 31.736095965083223,139.0317057324355 30.1461286804697,138.27763669130945 28.426608505978948,137.82878305205668 24.45757906214567,137.34401859048376 20.66521264993935,137.70310362919554 19.664122137386585,138.08014136768907 18.05059978191275,137.9903706217592 12.397382769879187,138.6905800492459 12.30316248635063,139.4266917394707 11.961613958526868,139.39078399279242 11.761395856039599,139.660091741629 11.714285714289872,140.68345378904633 11.949836423125817,140.9707112056276 13.728244274796452,140.8988969380589 16.802181025064783,141.4015956000294 18.109487459092634,141.9940582516574 17.74438386040856,143.66370460224425 19.758342420944246,142.96353412226017 21.17164667393081,143.0892061506238 22.608505997806787,143.52008033540187 22.372955288970843,144.41772821785707" stroke="#4dd2ff" stroke-linecap="round" stroke-linejoin="round" stroke-width="0.5"><title>2022-05-10 6.0km</title></polyline><polyline fill="none" points="66.02291273206356,147.44308446688592 66.79260948582669,147.43135178085868 68.30121512312326,146.8916456779334 69.95606314364704,147.63080712256487 70.6410932544677,147.63080712256487 70.84891137797968,147.90065738352132 71.98806257350952,147.1849648305615 72.18048676193575,147.27882664843128 72.76545629475731,148.17050639825902 72.57303210633108,149.61359084678406 73.02715319104027,150.72814387389008 73.73527420448954,151.80748022773696 74.98987991307513,152.96891773098469 77.10654598585097,155.6905798343687 77.76078822650015,156.7111704439667 78.53048498023418,159.32708567162626 79.0,159.30362506887832 78.73830310374615,158.1540439969467 78.11484873323934,156.74636290570197 77.5991519082163,154.9397891562985 77.58375797313056,154.55265894376862 78.3765456294932,154.10686946142596 77.17581869364949,149.21469301865727 76.59084916082793,148.01798319522277 75.12842532873037,146.18767370400747 73.48127427574946,144.6858384786683 72.54994120373158,144.0639735295008 70.88739621563582,143.20743172545917 69.34800270819687,142.8319573870358 67.08509425222292,142.62075201129846 64.77600399104995,142.79675654410312 64.49121619216749,142.32740994510823 62.605459145474015,141.0836232235706 60.56576274809777,140.61426286268397 56.99436981079634,140.87241152780553 56.432491180545185,141.06015529510478 55.30873392013018,141.02495338469453 53.346007198124425,142.56208371588946 51.74503795031342,143.34823398032677 48.76631151337642,143.26609937289686 48.2967964936106,143.05489556647444 48.142857142869616,143.336500472029 50.65206856004079,143.64157092145615 52.076007554423995,143.53596979233043 53.600007126806304,142.72635479459132 55.508855076070176,141.06015529510478 57.9564907529566,141.07188926051458 58.5799451234634,140.8372095042505 59.3573388447694,141.00148543259638 61.4586109824304,141.06015529510478 62.844065139157465,141.61164912268578 63.27509532123804,141.24789845911073 64.01400420482969,141.98713130325268 64.57588283505174,142.2218064407498 64.56818586753798,142.77328930368822 64.2603071660269,142.9727605466942 64.99921604958945,143.54770326053404 66.65406407011324,143.72370500106626 68.7399422727467,143.44210196170025 69.50963902648073,143.7823721301247 70.60260841678246,144.7327714137391 71.14909311194788,144.5215729088959 73.0194562234974,146.03514532506597 74.18169832162675,147.90065738352132 74.020062003372,147.7246682242294 72.78854719738592,148.35822671699134 72.53454726864584,149.4845359650826 72.65769874924445,149.9420928958898 73.73527420448954,151.80748022773696 74.85133449739078,152.80467544502608 77.44521255747532,156.06597155615236 78.68442433097516,159.3857371373124 78.90763638954377,159.2918947639846 78.93072729217238,158.9282541440989 77.73769732387154,156.0190477228207 77.48369739516056,154.76382119581467 77.55297010298818,154.5643901999938 78.34575775935082,154.14206349155575 77.35284894701908,149.9420928958898 76.74478851159802,148.3699592169105 74.48188005559496,145.6479561134256 72.8424259701278,144.33384026374551 70.78733563769492,143.20743172545917 67.89327584364219,142.6559529602564 64.72212521824986,142.7615556799683 64.54509496490937,142.3156762318431 63.26739835369517,141.34176981491692 61.76648968394147,140.80200745952243 60.73509603392449,140.6377309703057 57.486975733190775,140.84894351444382 56.1784912518342,141.10709114266865 58.918611695145955,140.93108151988054 58.880126857431605,142.5268827103646 58.656914798833895,143.75890528553646 59.11103588354308,143.9114396066252 58.78776324697537,144.00530668321517 58.84164201977546,144.8735699928875 61.835762391769094,145.20209869139944 62.81327726901509,145.56582473868548" stroke="#4dd2ff" stroke-linecap="round" stroke-linejoin="round" stroke-width="0.5"><title>2022-05-08 15.0km</title></polyline><polyline fill="none" points="95.6790606653376,144.56004272627615 96.53620352249709,144.5958390298838 99.10763209388824,143.77252041028987 101.62035225046566,144.86431084855576 102.5244618394936,144.82851465282147 103.0528375733411,145.3296600855101 104.40313111545402,144.4347555504719 105.02544031309662,144.36316279957828 105.96477495101863,145.90239427291817 105.67123287668801,147.81744748781057 106.28180039138533,149.4640024039545 107.84344422697905,151.7548108243427 109.27592954988359,152.88229647601838 113.33855185908033,158.268975548468 114.91193737767753,162.77850306858454 115.42857142855064,162.65324149538355 115.38160469665308,162.04482563630881 114.06653620349243,158.82373131809436 113.2563600782596,155.49514491588343 114.47749510762515,154.8150958449187 113.1506849314901,148.83759922681202 112.45792563597206,146.81518177800172 111.58904109583818,145.3296600855101 109.20547945203725,142.50173109173193 106.3170254402794,139.9600981008407 102.65362035221187,137.9732781802668 96.91193737764843,137.22149693141546 85.28767123285797,138.49236153243692 85.19373776906286,139.17253514222102 84.59491193733993,139.42312411117746 84.57142857142026,140.12118966687558" stroke="#4dd2ff" stroke-linecap="round" stroke-linejoin="round" stroke-width="0.5"><title>2022-05-05 5.1km</title></polyline><polyline fill="none" points="134.1636363636353,146.54858802114904 135.54545454547042,146.64361089794693 137.33246753248386,145.9942856246489 139.65974025975447,146.89700467650982 140.5116883117007,146.89700467650982 140.7922077922558,147.24541979271453 142.4129870129982,146.29519312324555 142.54805194807705,146.39021630536445 143.3480519480654,147.76803958126402 143.1298701298947,149.30420497160958 143.63896103895968,150.96703069406067 144.59480519482167,152.43978991718905 146.38181818183511,154.13422081086173 148.16883116884856,156.28783745190594 150.10129870133824,159.21729511095327 151.16103896105778,162.63749720625492 151.8571428571595,162.63749720625492 150.1532467532379,156.8579026029911 150.11168831170653,156.06614433605864 150.9012987013266,155.84445059717837 151.02597402597894,155.59108556124556 149.77922077925177,150.03268531713547 148.44935064934543,147.34044183004153 146.30909090911155,144.6956190408673 143.17142857145518,142.08238367008016 140.5116883117007,140.7361377170164 136.83376623378717,140.0709253515961 132.63636363635305,140.27682501664822 132.2831168831326,139.64328586812917 130.05974025974865,138.059415731208 128.35584415585618,137.489214694986 126.58961038963753,137.36250279375236 122.1844155844301,137.71096003229468 121.0207792207948,138.059415731208 121.0,138.2178041762745 124.72987012987141,137.94854363033664 124.39740259741666,141.59140251403733 124.92727272727643,141.7656219837736 124.62597402598476,141.78146009828197 124.57402597405598,143.11185036445386 128.63636363635305,143.5553087995795 130.02857142855646,144.03044007037533 130.1740259740618,144.26800463237305 129.7064935064991,145.31328020458022 129.77922077922267,145.56667825708428 131.62857142856228,145.05988133791107 132.91688311687903,145.13906857121037 134.48571428572177,145.6617023169092 135.44155844158377,145.6458649815322 136.34545454548788,145.3291176066923" stroke="#4dd2ff" stroke-linecap="round" stroke-linejoin="round" stroke-width="0.5"><title>2022-05-04 7.1km</title></polyline><polyline fill="none" points="168.23854806279996,144.46369852407952 170.1047655273578,144.4279157860874 171.9944574254041,143.76593254211912 174.35363799380139,144.76785121642024 175.59778297014418,144.910981535897 175.75036678800825,145.35826230252133 177.7104819866072,144.19532763921598 178.77856871159747,145.80554082383605 178.496875509416,147.93455580688897 179.10721078087226,149.45524965103687 180.562625658873,151.58417743426253 182.0767266206385,152.90802284422534 185.79742433299543,157.6486592784495 186.3608107373875,158.59675630253332 187.58148128021276,162.69313504827733 188.28571428571013,162.67524734079052 188.1096560343576,161.5840903958815 186.63076672281022,158.27476221790857 186.12606640221202,156.14599427541543 186.0908547519357,155.4662089259582 187.15894147692597,155.01897889430984 187.31152529479004,154.732750496034 185.3983589632262,147.20103538022522 184.36548388848314,145.1614590418394 183.21523664618144,143.67647496977588 178.8607292289089,139.79392979196564 175.7738412215258,138.12993006662145 172.1822528935445,137.34265054960997 168.34418301362894,137.30686495172995 165.33945552355726,137.87943279306637 163.5671357930696,137.86154010373866 158.0975927837717,138.52356721652177 158.06238113349536,139.20348183367605 157.85111123183742,139.47186775438604 157.51073194586206,139.34662109196506 157.42857142857974,139.91917582554743 157.51073194586206,140.8316773276165 157.99195783294272,141.42211449628667 159.91686138129444,142.60297709593578 163.05069825571263,143.47966799444112 163.7079823941458,145.00043786886818 163.73145682769245,146.55696368531062 166.53665163286496,147.3262710024792" stroke="#4dd2ff" stroke-linecap="round" stroke-linejoin="round" stroke-width="0.5"><title>2022-05-01 6.0km</title></polyline><polyline fill="none" points="18.73558725818293,177.73453101120685 18.651162790716626,177.49859834204835 20.550713308621198,177.69163420102268 21.845221809693612,177.2197681520629 21.929646277159918,177.82032457990135 21.915575532533694,177.2197681520629 23.041235098673496,176.79079720780283 23.91362126247259,177.4128045149264 25.208129763545003,177.5629436671079 26.13679890561616,178.09915320222353 27.403165917552542,178.03480820015102 27.69865155365551,178.61391182359512 29.682626539026387,177.36990757556487 30.06253664259566,177.45570143715304 31.216337697929703,179.23590851471818 30.963064295472577,182.1313626804549 31.68067226896528,183.69702001757832 32.72190736763878,185.4127825272153 35.071721711952705,187.60033976015984 39.79949188983301,193.54083291161805 41.966386554646306,199.63110388770292 42.571428571420256,199.48099574814842 42.501074848580174,198.62323090452992 39.99648231390165,191.69652743657207 40.13718975964002,190.68857959335583 41.44576900533866,189.93797395758884 39.672855188604444,182.38873258583044 38.139144029759336,178.76404928755073 35.212429157691076,175.20358973486145 31.216337697929703,171.8789571019006 27.02325581398327,169.8412278872347 24.321672855177894,169.17627625724708 20.466288841154892,168.9403246837246 16.20285323431017,169.36932715688454 15.724447918706574,169.66962786285876 16.498338870471343,170.42037593411078 18.32753566541942,170.95662132575671 23.252296267368365,170.37747618646972 24.518663279304747,170.6563242381235 26.826265389914624,172.6511390684973 28.21926910302136,172.1792507522332 29.063513777626213,173.2088225726984 31.79323822556762,175.3751808689267 33.52393980853958,178.184946478068 31.286691420769785,179.47183734668943 30.920852061768528,181.33780156837747 31.131913230463397,182.60320703343314 33.129958960344084,185.86316561960848 35.40941958181793,187.94348192826874 39.99648231390165,193.99118173743045 41.91010357631603,199.6096598807053 42.54328708228422,199.50243978101935 42.48700410401216,198.62323090452992 40.911080711346585,194.76320387919986 40.01055305846967,191.13894044329936 40.17940199340228,190.73147118464112 41.43169826071244,189.93797395758884 39.85577486810507,183.07504930216965 38.09693179599708,178.61391182359512 34.97322649991838,174.92475355401257 31.075630252133124,171.7288099601501 27.58608559705317,169.99137768239598 22.14070744579658,169.06902560659364 20.31151065073209,168.96177484827786 15.091264412738383,169.73397790428862 11.967559116717894,169.86267787088582 11.714285714260768,171.8360579400687 14.092241547827143,173.0157786123018" stroke="#4dd2ff" stroke-linecap="round" stroke-linejoin="round" stroke-width="0.5"><title>2022-04-30 10.1km</title></polyline><polyline fill="none" points="58.887020408175886,179.5653253411583 60.60326530615566,179.67283713319193 62.672163265320705,178.92025186866522 65.31706122448668,180.0849644695263 66.36326530613587,179.97745317400404 66.66889795922907,180.40749757907906 68.57322448980995,179.3861387331708 69.58416326533188,181.0525603009737 69.26677551024477,183.02355639452435 70.07787755102618,184.99450895741757 71.41795918368734,186.89374933532963 72.84032653059694,188.05835787755495 76.88408163265558,193.23620263592602 78.30644897959428,197.6254897453182 78.49453061225358,197.9658744204935 79.0000000000291,197.84046969121118 78.83542857141583,196.44309078701917 76.88408163265558,191.14001793777425 76.9546122449101,190.58461032267223 77.96555102040293,190.190447982779 78.09485714288894,189.92169993472635 76.66073469386902,183.68651802410022 75.35591836733511,180.80170312982955 72.00571428571129,176.8954076227892 69.25502040816355,174.67340177205188 66.62187755102059,173.34733965993655 62.62514285717043,172.4871807260788 59.944979591848096,172.41550044061296 57.147265306150075,172.68430121405981 55.995265306177316,173.06062093654327 54.725714285712456,172.98894111179106 49.22432653064607,173.63405746202625 48.89518367347773,173.72365658624767 48.69534693879541,174.3687676249101 48.142857142869616,174.29708885096625 48.260408163274406,172.8635012798768 52.82138775513158,172.50510078841762 52.88016326536308,171.19692677855346 53.27983673472772,170.60555415093404 54.043918367358856,171.05356407722866 53.37387755102827,172.34382009760157 53.103510204091435,174.90635659459804 55.59559183678357,175.71273397666664 54.043918367358856,179.0277644379239 54.467102040856844,180.38957910355384 54.39657142860233,181.67970014362072 56.50073469392373,182.23516318096517 58.181714285718044,183.3460788835946 59.568816326529486,181.5901090073312 58.2757551020768,180.90921343238006 58.5226122449385,179.81618598781643 58.84000000002561,179.708674368434" stroke="#4dd2ff" stroke-linecap="round" stroke-linejoin="round" stroke-width="0.5"><title>2022-04-28 7.1km</title></polyline><polyline fill="none" points="102.30736362340394,181.62519999521828 102.41504059251747,181.7424392527828 102.59193847028655,181.60175211545356 103.53795755590545,181.62519999521828 104.73009542797809,181.19141269525426 105.38384845465771,181.62519999521828 105.86839481556672,181.6486478655388 106.37601481270394,181.93002157525552 107.09898874803912,181.93002157525552 107.3604899586935,182.24656537789633 108.55262783079525,181.49623653998424 109.167924797046,182.63344991727718 108.99871813133359,183.899599577755 109.41404358352884,185.02504289363424 109.97550206523738,185.95117268549075 111.31377296682331,187.20552759032216 113.9518587095954,190.56987918235973 114.88249537101365,193.44173328559555 115.10554052129737,193.69960715177876 115.42857142855064,193.58239189924643 115.33627688363777,193.03147706068557 114.45947870673263,191.05048501536658 113.93647628545295,189.2100949101805 113.97493234582362,188.74119643974336 114.74405355361523,188.41296527007944 113.59806295396993,183.62995889546073 112.93661871529184,182.36380338783783 111.22147842188133,180.28865581968057 109.85244267198141,179.06932567352487 108.43725964962505,178.13136207904972 107.1912832929811,177.49822813422725 105.22233300100197,177.0175107387986 103.19185301239486,176.9119868783382 101.13060817547375,177.07613502335516 100.96909272184712,176.65403886084096 98.98476000572555,175.36428167843042 97.23116365191527,174.9069972901998 93.3547927645559,175.1884034914474 92.91639367610333,175.36428167843042 92.0088306509133,175.21185394699205 91.50121065374697,175.43463280488868 89.30921521151322,177.13475924900922 88.1401509756397,177.6389251597684 85.14826947730035,177.52167766203274 84.82523856998887,177.36925556298593 84.57142857142026,177.70927354539162 88.01709158238373,177.92031819365366 88.71699188149069,177.74444770640548 89.82452642073622,177.14648408706853 92.03190428714151,175.21185394699205 92.60105398090673,175.28220525709912 93.99316336703487,174.96562369395178 97.60034183165408,174.87182141964513 99.73849878934561,175.58705995471973 101.03831363053177,176.75956318757744 100.99985757016111,177.0995847206541 100.35379575559637,177.38098035397343 100.43839908845257,177.9554922275238 100.17689787779818,179.05760122160063 99.63851303234696,179.72589122411227 98.8847742486978,181.44934066744463 99.30009970089304,182.10587945526277 99.2847172767506,183.05550285481877 100.29226605896838,183.27825178635248 101.78436120209517,184.09889841219774 102.63808574277209,182.86792414808588 104.19171058255597,181.97691706171827 105.20695057683042,181.6134760565037 104.1532545221562,180.74589805955839 103.38413331433549,181.07417233124943 102.32274604757549,181.10934446517058 101.8612733228947,182.3169082121094 102.0612448369211,182.58655495815037 102.6919242273143,182.8913715194176 103.64563452498987,182.25828918949264 103.45335422304925,181.84795438333094 102.36889332003193,181.81278269434188" stroke="#4dd2ff" stroke-linecap="round" stroke-linejoin="round" stroke-width="0.5"><title>2022-04-27 10.1km</title></polyline><polyline fill="none" points="127.17703722417355,177.76994086008926 128.76261003356194,177.6404624029965 131.84881425165804,176.71252889527386 132.55665925581707,177.27360592733748 133.98650616419036,177.5541433449107 134.87839086947497,178.15837529553392 136.11004117666744,178.2015345905893 136.49227747891564,178.63312658786163 138.55918489099713,177.31676557771425 139.26702989521436,177.72678139170603 140.03150249965256,179.25893190529314 139.8191489984747,182.0642213072715 140.5553078027442,183.83367388605257 142.46648931398522,186.44464216622873 143.96712072275113,187.674580453393 148.79462365113432,193.93194325822697 150.6350206619245,199.7142857142826 151.44196396670304,199.541682980911 151.3994932664209,198.89442026217148 149.57325315568596,194.23401362445293 148.950349552033,191.77427309634368 148.86540815152694,190.8680387119457 150.30941196001368,190.0696830426241 148.55395634972956,182.3447462202239 146.911755940062,178.84892193652922 143.81139482185245,175.11560130957514 141.26315280690324,172.8496498229506 139.73420759791043,171.7058656897716 135.48713757301448,169.63407475510758 129.7960637396318,168.85714285714494 124.85530561057385,169.24560950826708 123.86432260478614,169.63407475510758 124.00589160562959,170.71313751750859 123.49624320259318,172.6338424277492 122.61851539742202,173.69129452375637 121.99561179376906,175.48246515174833 121.41517889039824,176.25934915406833 122.32122049567988,176.2809291850499" stroke="#4dd2ff" stroke-linecap="round" stroke-linejoin="round" stroke-width="0.5"><title>2022-04-25 5.0km</title></polyline><polyline fill="none" points="175.14943185879383,181.72765221486043 176.5001071964798,181.62176749030914 177.596083756187,181.13940132372227 178.06689058817574,181.49235256710745 178.78467805334367,181.61000250911093 179.20917601659312,181.8570666183441 179.88837275785045,181.8453016843996 180.20481669408036,182.15118919958695 181.43200171514763,181.40999746715897 182.06488958769478,182.4335454885695 181.90280854713637,183.82177745206718 182.3041520760744,184.91586929832192 183.1145572786627,186.15110973339324 184.25684270708007,187.16281107280884 186.8810119345726,190.5389437859776 187.95383405991015,193.72668150141544 188.28571428573923,193.60905588468086 188.2625598513696,193.15031372350495 187.78403487461037,191.6446731897995 187.30550989782205,190.7977333889794 186.88873007934308,189.29203240662537 186.85013935543247,188.82149291519818 187.67598084759084,188.42153137661808 186.641749446193,184.04530325323503 185.8313442435756,182.28060266760804 184.87429428999894,181.0570457276699 183.7165725720406,179.80993255297653 181.94911741587566,178.3745430219169 180.1893804045103,177.4803481601557 177.5574930322473,176.90382055271039 175.84406488959212,176.84499088603843 174.0688915886858,177.0920750891346 173.84506538984715,176.5508416665507 171.83062960053212,175.30363256999044 169.9319659830362,174.84474707001573 166.6903451725957,175.04477452472202 165.802758522128,175.30363256999044 164.61416422500042,175.24480129650328 162.85442721363506,176.66850153154883 161.48059744160855,177.44505071455205 160.53898377763107,177.6333035119642 158.00743228761712,177.49211397061663 157.57521617953898,177.31562656550523 157.42857142857974,177.609771945361 160.10676766958204,177.88038439058073 161.3339526906493,177.7744927130734 162.53798327737604,177.162670384354 164.6218823697709,175.38599625362986 164.96919888519915,175.24480129650328 165.9185306939471,175.33893130574506 167.9869934967428,175.11537228686575 170.03230186525616,175.1624374143612 171.08968770099455,175.32716506285215 172.05445579937077,175.7860467842911 172.3708997356007,175.46835982148332 170.7809619095351,174.9506440428886 168.65075394843007,174.9153450731901 166.17322947189678,175.13890485534648 165.40141499324818,175.3506975462551 167.02994354325347,175.28010006767727 168.0641749446222,175.05654082433466 168.6739083827706,175.20950250406167 170.12491960267653,175.13890485534648 171.4755949403334,175.53895707321135 171.90009290361195,175.96253879708092 171.46015865079244,176.95088424353526 171.2749231759226,178.45690238860334 172.82627027801936,178.95105615750072 172.02358322023065,180.90409931359682 172.79539769885014,180.64526601100806 174.16150932610617,180.6805615286794 175.15715000359342,180.93939467534074 174.9950689630641,181.49235256710745" stroke="#4dd2ff" stroke-linecap="round" stroke-linejoin="round" stroke-width="0.5"><title>2022-04-22 10.1km</title></polyline><polyline fill="none" points="27.748415407171706,215.68942828635772 28.977084349113284,215.67605049093618 29.064846416411456,215.42187186726733 30.363725012197392,215.06066899711004 30.93417844956275,215.46200539861093 31.750365675310604,215.5824058476719 32.312042905949056,215.91685039774893 32.97025841055438,215.86333938257303 33.28620185278123,216.23791558641096 34.743052169680595,215.4084940181201 35.50658215506701,216.62586729175018 35.34861043395358,218.16427422776542 35.79619697711314,219.40835124998557 36.761579717247514,220.78617288497844 37.95514383231057,221.85630595243128 40.98293515358819,225.7487700265374 42.150170648499625,229.22638064730927 42.57142857144936,229.22638064730927 42.3695758167305,228.0092375752065 41.614822038071,226.35067716068806 40.9917113603442,224.2105382030386 40.974158946890384,223.76912599208663 41.7464651389746,223.4213446147878 41.88688444663421,223.19394811737948 40.86006825941149,218.77962705610844 40.30716723552905,217.2679892884844 39.80692345200805,216.34493697215294 37.90248659194913,214.03056116708103 35.287176986865234,211.823133611535 33.27742564608343,210.81973327082233 31.14480741103762,210.33809573930193 28.661140906915534,210.1641702193847 26.3705509507854,210.40499004912635 26.072159922041465,209.80293884256025 23.860555826453492,208.39813153483192 21.72793759146589,207.91647649554943 15.47050219407538,208.39813153483192 13.38176499272231,210.1507913144451 11.740614334499696,210.91338460874613 11.714285714289872,211.30136732042956 13.302779132151045,210.52539963755407 15.909312530508032,208.29109738258558 18.34032179429778,208.38475227518938 19.38469039494521,208.1171665184338 20.27986348126433,208.29109738258558 22.22818137498689,208.25095953117125 23.25499756220961,208.57206166539981 23.904436860088026,209.0403328368957 23.412969283293933,210.24444359269546 23.25499756220961,212.07732596536516 25.001462701155106,212.59908617939436 24.062408581201453,214.77973207757168 25.51925889812992,214.338257381929 28.31886884450796,214.9135117107944 29.802047781588044,214.43190377394058" stroke="#4dd2ff" stroke-linecap="round" stroke-linejoin="round" stroke-width="0.5"><title>2022-04-21 8.1km</title></polyline><polyline fill="none" points="63.852267186768586,215.67606139371492 65.29156509021414,215.58241682567314 65.65138956607552,215.43526080998708 65.80058508046204,215.14094780340747 65.70404680646607,215.59579462918555 66.77474402729422,215.06068039419188 68.66162847395753,215.84997238518554 69.46903949294938,215.8365946327358 69.71477328133187,216.18441532359793 71.10141394441598,215.32823804893633 71.88249634325621,216.46534609449373 71.7420770355966,218.21779225637874 72.28620185278123,219.48862132678914 72.93564115068875,220.5052671310914 74.4978059483401,222.00345372629454 77.4904924427392,225.8424031208524 78.6226231106848,229.27988091011866 79.0000000000291,229.17288038449624 78.8683568990964,228.51749841594938 77.93807898586965,226.27042558517496 77.38517796198721,223.91626800585436 77.48171623598319,223.67549720146053 78.25402242812561,223.36784435197478 77.95563139932347,221.53527403408225 77.14822038033162,218.31143312037602 76.21794246710488,216.35832498810487 74.20819112629397,213.91017023474706 71.70697220868897,211.84990472313802 69.80253534863004,210.87326309773562 68.05607020968455,210.37824749143692 65.20380302294507,210.13742775839637 62.64115065825172,210.3916263399551 62.6235982447688,210.24445885832392 62.500731350563,209.81633342692658 60.157484154071426,208.33125201237635 58.016089712356916,207.8629762327364 53.98781082400819,208.13056279559896 53.03998049732763,208.38476903476112 52.381764992693206,208.19745926835822 51.98683568992419,208.2911142173907 49.81911262799986,210.01701756547118 48.16040955635253,210.819748074402 48.142857142869616,211.22110970176072 49.72257435400388,210.43176286941525 52.31155533887795,208.2911142173907 53.426133593398845,208.43828601414134 55.78693320334423,208.18407997916074 58.06874695271836,208.18407997916074 59.41150658216793,208.4249067733508 60.35933690881939,209.09386552253636 59.815212091692956,210.23107998025807" stroke="#4dd2ff" stroke-linecap="round" stroke-linejoin="round" stroke-width="0.5"><title>2022-04-19 7.2km</title></polyline><polyline fill="none" points="88.61430315475445,210.91457720690232 88.65889465674991,210.66534667877568 90.84387825499289,210.52940252239932 93.04372568725375,209.7137341444759 96.43267983960686,211.20912166665948 97.78528873377945,211.11849268397782 98.08256541378796,211.7075797701982 100.32700434804428,210.25751371819206 100.83237470407039,210.66534667877568 101.7539324122481,212.3419778083262 101.44179189822171,215.12875551548495 102.19984743226087,217.00922516014543 103.2997711484204,218.75372921976668 105.85635059664492,221.17786540979432 111.05869249725947,227.90626963706745 112.97612708347151,233.88673663741793 113.199084593507,233.88673663741793 113.6004081115243,233.7055150209635 113.54095277556917,232.50491446154047 111.53433518530801,227.65707663419744 110.89519032317912,224.77999029535567 112.45589289342752,223.62460427253973 110.79114348522853,216.35219715929998 109.09666640899377,212.00212216004002 105.75230375863612,208.03706396186317 101.29315355821745,204.23047700414463 99.76217865600483,203.50539826144814 98.85548478190321,203.14285714286234 98.70684644189896,204.93289259282756 99.40544663998298,205.83922882669867 102.33362193830544,208.2636424694283 104.14700968650868,210.8012906714357 105.54421008261852,213.1123134883237 106.19821877870709,215.64985265210998 110.46413913718425,215.03812968083366 111.29651384125464,217.46234569043736 112.53021206340054,223.69256848372606 111.14787550125038,224.68937221125088 112.24779921740992,228.92568982805096 113.92741245956859,233.6149041036333 113.12476542347576,234.0 112.574803565396,233.25245970659307 111.04382866324158,228.78976766797132 110.12227095518028,227.00011062547128 106.09417194069829,221.72158974166086 103.13626897439826,218.84435207034403 101.24856205616379,215.55922723602998 101.144515218155,214.67562561450904 101.59043023822596,212.6365185421746 103.96864367846865,211.18646442778117 105.51448241464095,213.08965663153504 106.287401782698,215.69516533294518 110.12227095518028,214.76625174028595 108.73993439297192,211.68492263148073 104.77129071450327,207.15340343484422 101.24856205616379,204.29845289741934 98.8703486159211,203.165515996865 98.78116561187198,205.20479422740027 100.11891067202669,206.51897622468096 98.8703486159211,207.56124761491083 97.3245098797488,207.15340343484422 96.78941185562871,207.51593166768725 95.95703715161653,208.53553607804497 96.16513082763413,210.50674514706043 92.43430849321885,211.11849268397782 91.61679762304993,211.93415090753115 89.29803951882059,213.2709113578021 87.57383477460826,215.46860174711765 86.07258754048962,214.6529690717216 88.27243497269228,209.351212972746 90.20473339292221,209.37387058012246 92.15189564717002,208.62616713524767 93.01399801921798,209.7137341444759 91.1411549350596,210.84660529925168 88.21297963673715,210.9372345002921" stroke="#4dd2ff" stroke-linecap="round" stroke-linejoin="round" stroke-width="0.5"><title>2022-04-10 10.4km</title></polyline><polyline fill="none" points="123.66311412659707,210.9723887870714 123.82831416232511,210.7205701146886 125.6755509247887,210.83503321652097 128.37882423581323,209.804861162811 129.29493352450663,210.49164356618712 131.74289768951712,211.31577698944602 133.10955253004795,211.17842183258472 133.3198071208899,211.81941114867368 135.72271673067007,210.44585820135399 137.0893715712591,212.30015077083954 136.83406242518686,215.20743766915257 137.5549353081151,217.0616527989405 139.19191747979494,219.57967444739188 141.51973616424948,221.70850391406566 146.55082815972855,228.20919950512325 148.39806492230855,233.97711203939252 149.19402873056242,234.0 146.46071904938435,225.50825127113785 146.44570086430758,224.79866951281292 148.03762848081533,223.9975235104066 146.13031897804467,215.39057136976044 144.5984641017858,212.25436613224883 141.33951794356108,208.2481390650646 136.66886238957522,204.28755907158484 134.2359164096415,203.14285714285506 134.16082548431586,205.3635684047622 137.76518989901524,208.2481390650646 139.55235392128816,211.38445450578 137.22453523683362,212.59775047342555 135.81282584107248,210.5374289127285 133.5000253416365,211.8880883616439 130.7366792904213,210.81214060536877 129.5352244855021,210.7205701146886 128.00336960930144,211.15552929038677 126.11107829154935,212.50618141692394" stroke="#4dd2ff" stroke-linecap="round" stroke-linejoin="round" stroke-width="0.5"><title>2022-04-09 5.2km</title></polyline><polyline fill="none" points="160.07468751777196,210.95529099315172 161.75797381758457,210.8178334373515 161.80306184350047,210.58873714298534 164.91413562977687,209.69525719965895 165.77080812165514,210.4970984965039 167.15350758226123,210.68037571592868 168.1905321776867,211.23020560792793 169.48305558646098,211.23020560792793 169.85878913552733,211.78003285026352 172.15827845584136,210.31382098258473 172.83459884417243,210.9323814120653 173.6010952842771,212.3756760394317 173.33056712895632,215.19348436065047 174.06700488511706,217.16361794737895 175.93064328853507,219.7980457489757 178.01972182129975,221.67647016464616 182.99443401099415,228.20489988760528 184.94824846618576,234.0 185.6395981964888,233.88547518046107 185.5043341187993,232.55697887326824 183.98637058056192,229.0066111201886 182.90425795922056,224.9063715541197 183.14472743065562,224.49404880784277 184.45228018140187,223.87556189487077 183.65572505735327,219.59187533223303 181.97243875754066,213.75022537753102 180.9805021879729,211.80294226117257 179.22206917835865,209.69525719965895 174.96876540291123,205.59432359964558 173.2554204191547,204.28840877233597 170.73049096943578,203.14285714285506 170.53510952391662,204.6778937061099 170.8056376791792,205.52559161298996 174.02191685925936,208.137377998617 176.06590736622456,211.23020560792793 173.7814473878243,212.49022245012748 172.11319042998366,210.47418882339116 170.0541705810465,211.73421401459927 166.9881848206278,210.70328534769942 164.237815241504,211.11565793227055" stroke="#4dd2ff" stroke-linecap="round" stroke-linejoin="round" stroke-width="0.5"><title>2022-04-07 5.0km</title></polyline><polyline fill="none" points="14.354862293519545,244.45685991075152 14.219698519445956,244.73157248600182 14.595153447473422,244.96049912634044 16.352282510721125,244.96049912634044 19.40097652649274,244.06768262941478 20.31708655093098,244.77735785081313 21.92403364297934,245.02917702879495 22.50974333070917,245.41835102806363 23.891417465929408,245.48702865473024 24.17676321126055,246.03644817880559 26.549638356547803,244.61710899339232 27.270511818351224,245.2123178998154 28.081494462909177,246.83768023875018 27.826185111887753,249.76785239398305 29.132768261479214,252.40036471934582 30.439351411070675,254.11718783788092 32.226516868628096,255.53640876458667 37.527940452622715,262.47202466687304 39.37517869862495,268.2857142857174 40.066015766293276,268.2170503900197 40.02096117491601,267.04975783784175 37.67812242388027,261.6709024665688 37.227576510224026,259.0157143604083 38.7293962223921,258.35190767265885 38.834523602272384,257.71098720379086 37.137467327469494,250.66062425479322 36.026120740454644,247.40998540568398 34.779610379366204,245.64727628945548 33.93859134049853,246.12801784210023 34.419173648406286,245.32678079479956 32.04629850311903,242.3049218368251 27.751094126258977,238.71063681610394 25.107891432766337,237.42857142857247 24.957709461566992,238.98536323773442 25.243055206898134,239.83243220340955 28.42691299674334,242.28202866028005 30.634587973647285,245.2352104879974 29.222877444233745,246.3569416784885 28.111530857218895,246.7918957012953 26.78992951050168,244.84603586357116 26.23425621696515,244.93760648295574 25.783710303308908,244.43396716631105 25.062836841505487,242.0073101826274 26.45952917379327,240.70238837379293 28.45694939099485,242.37360133900802 30.619569776579738,245.32678079479956 28.381858405366074,246.7232188607013 28.126549054286443,246.76900342563022 26.59469294786686,244.70867979664763 24.356981576711405,246.03644817880559 23.831344677426387,245.60149127388286 22.464688739390112,245.46413611705793 19.23577635816764,244.25082504493912 17.598792871867772,245.05206965380057 15.436172486282885,245.18942530707136" stroke="#4dd2ff" stroke-linecap="round" stroke-linejoin="round" stroke-width="0.5"><title>2022-04-03 6.2km</title></polyline><polyline fill="none" points="76.82669789221836,257.8553452836277 77.48243559716502,255.14210486815864 77.27634660422336,254.02823328980594 78.99999999994179,253.17140306239162 78.99999999994179,252.34312893578317 73.82903981261188,249.02998419022333 70.8875878219842,248.23024803249427 64.57377049175557,248.31593426456675 58.87822014046833,249.20135563892836 56.38641686178744,249.00142226205935 51.92740046832478,252.6001800429658 48.311475409718696,254.399524785229 48.14285714284051,255.17066556312056 51.290398126409855,253.82830669847317 56.480093676713295,249.25847940929816 57.52927400462795,248.91573644302116 62.04449648706941,248.97286032808915 64.74238875875017,248.37305839049077 71.20608899294166,248.94429838837095 74.42857142852154,250.3152650219854 75.12177985941526,249.82971585069754 74.50351288047386,249.20135563892836 69.40749414515449,248.14456174898805 60.583138173271436,248.77292662997934 58.85948477743659,249.2870412858174 56.57377049175557,249.00142226205935 50.9156908664736,253.4284526726915 48.14285714284051,254.54232894849702 48.40515222476097,255.17066556312056 51.796252927335445,253.48557474513655 56.36768149881391,249.40128873474896 57.75409836060135,248.88717449192336 58.59718969545793,249.02998419022333 61.65105386415962,248.28737219292816 70.1007025760482,247.8589404306549 75.140515222447,249.3441650216846" stroke="#4dd2ff" stroke-linecap="round" stroke-linejoin="round" stroke-width="0.5"><title>2022-03-24 5.1km</title></polyline><polyline fill="none" points="102.88545689324383,267.55816035363387 102.03345190509572,267.36760949969175 100.81792478862917,268.2857142857174 100.27264159623883,268.00855160699575 100.0,267.3156410119045 99.64783793821698,264.1801509540237 99.2388755439024,263.2100314836716 98.75039268404362,262.8635575986773 95.92173612333136,262.794262654621 94.47900767670944,261.4083520762797 108.44052941605332,242.74836155425874 101.74945024235058,237.42857142857247 91.55947058397578,258.22067319235066 97.84158736333484,264.63055985456594 98.2278296246368,264.31873855869344" stroke="#4dd2ff" stroke-linecap="round" stroke-linejoin="round" stroke-width="0.5"><title>2021-10-26 5.0km</title></polyline></svg>