<?xml version="1.0" encoding="utf-8" ?>
<svg baseProfile="full" height="300mm" version="1.1" viewBox="0,0,200,300" width="200mm" xmlns="http://www.w3.org/2000/svg" xmlns:ev="http://www.w3.org/2001/xml-events" xmlns:xlink="http://www.w3.org/1999/xlink"><defs /><rect fill="#222222" height="300" width="200" x="0" y="0" /><text fill="#FFFFFF" style="font-size:12px; font-family:Arial; font-weight:bold;" x="10" y="20">Over 5km Runs</text><text fill="#FFFFFF" style="font-size:4px; font-family:Arial" x="10" y="280">ATHLETE</text><text fill="#FFFFFF" style="font-size:9px; font-family:Arial" x="10" y="290">Wenz</text><text fill="#FFFFFF" style="font-size:4px; font-family:Arial" x="120" y="280">STATISTICS</text><text fill="#FFFFFF" style="font-size:3px; font-family:Arial" x="120" y="285">Number: 6</text><text fill="#FFFFFF" style="font-size:3px; font-family:Arial" x="120" y="290">Weekly: 1.5</text><text fill="#FFFFFF" style="font-size:3px; font-family:Arial" x="141" y="285">Total: 36.9 km</text><text fill="#FFFFFF" style="font-size:3px; font-family:Arial" x="141" y="290">Avg: 6.1 km</text><text fill="#FFFFFF" style="font-size:3px; font-family:Arial" x="167" y="285">Min: 5.0 km</text><text fill="#FFFFFF" style="font-size:3px; font-family:Arial" x="167" y="290">Max: 10.4 km</text><polyline fill="none" points="23.433374027721584,52.134013482776936 23.537420865730383,51.55247558381234 28.635715928277932,51.23527255226509 33.76869327016175,49.33204633712012 41.67625295906328,52.82128388887213 44.83234037877992,52.60981626261491 45.52598596550524,53.984352797138854 50.76301014539786,50.60086534243601 51.94220764283091,51.55247558381234 54.09250896179583,55.46461488609202 53.36418109573424,61.967096202788525 55.132977341883816,66.35485870699631 57.69946601288393,70.42536817945074 63.66481805883814,76.08168595617462 75.80361582688056,91.78129581983376 80.27762986137532,105.73571882063698 80.79786405141931,105.73571882063698 81.73428559361491,105.31286838225788 81.59555647626985,102.51146707692533 76.91344876564108,91.1998454798013 75.42211075406522,84.48664402248687 79.063750084606,81.790743302583 75.17933479871135,64.8217933716951 71.225554954377,54.67161837343883 63.42204210348427,45.41981591102376 53.017358302371576,36.53777967633505 49.44508353061974,34.84592927672202 47.3294644911075,34.0 46.98264169774484,38.17674938325945 48.61270882654935,40.291533928961144 55.44511785602663,45.94849909533514 59.676355935051106,51.86967823334271 62.936490192776546,57.26206480609835 64.46251048357226,63.18298952159239 74.41632465342991,61.75563592193066 76.35853229626082,67.41213994436839 79.23716148117092,81.94932646202506 76.01170950278174,84.27520182625449 78.57819817389827,94.15994293212134 82.49729573889636,105.10144290847529 80.62445265473798,106.0 79.34120831929613,104.25573931538383 75.76893354742788,93.84279122526641 73.61863222869579,89.6669247927639 64.2197345282184,77.3503760638705 57.317960940185,70.6368214974791 52.91331146436278,62.97153021741542 52.670535509008914,60.90979310052353 53.7110038890969,56.1518765984074 59.26016858301591,52.768416998151224 62.86712563410401,57.20919880691508 64.67060415970627,63.28871911020542 73.61863222869579,61.121254060664796 70.39318025030661,53.931486140121706 61.13301166717429,43.3579413479747 52.91331146436278,36.69639009398816 47.36414677044377,34.05287065934681 47.156053094309755,38.81118653061276 50.27745823469013,41.877611190924654 47.36414677044377,44.30957776813011 43.757189719355665,43.3579413479747 42.508627663133666,44.20384055795148 40.56642002041917,46.58291751543584 41.051971931010485,51.18240534313372 32.34671981737483,52.60981626261491 30.439194453763776,54.513018784229644 25.028758877306245,57.6321265015431 21.005614474066533,62.76007074328663 17.502704261103645,60.85692783401464 22.63568160298746,48.486163603069144 27.144377916818485,48.539031353619066 31.687756509985775,46.79438998225669 33.699328711489215,49.33204633712012 29.329361515119672,51.97541236491816 22.496952485642396,52.18688050068158" stroke="#4dd2ff" stroke-linecap="round" stroke-linejoin="round" stroke-width="0.5"><title>2022-04-10 10.4km</title></polyline><polyline fill="none" points="120.21393296204042,52.26890716984053 120.59939971205313,51.68133026760188 124.90961882448755,51.948410838551354 131.21725655021146,49.54467604657111 133.35484489053488,51.147168321112986 139.06676127552055,53.07014630870253 142.2556225701701,52.7496509427001 142.74621661542915,54.245292680250714 148.35300570493564,51.040335803161724 151.54186699958518,55.36701846530195 150.94614565884694,62.1506878946966 152.62818238558248,66.4771898642066 156.44780745287426,72.35257371058105 161.8793843833264,77.31984246616776 173.61859903938603,92.48813217862335 177.92881815205328,105.94659475858498 179.78606703795958,106.0 173.40834444854409,86.18591963265499 173.3733020167565,84.53022886322287 177.0877997885691,82.66088819094875 172.6374109488679,62.5779998627695 169.06308290420566,55.26018764190667 161.4588752016425,45.91232448515075 150.56067890895065,36.67097116704099 144.88380495575257,34.0 144.70859279681463,39.18165961111663 153.11877643107437,45.91232448515075 157.28882581635844,53.23039384682488 151.8572488859063,56.061417771328706 148.563260295894,51.25400079636893 143.16672579722945,54.4055395105097 136.71891834423877,51.89499474586046 133.91552379948553,51.68133026760188 130.3411957550561,52.69623501089518 125.92584934702609,55.84775663950131" stroke="#4dd2ff" stroke-linecap="round" stroke-linejoin="round" stroke-width="0.5"><title>2022-04-09 5.2km</title></polyline><polyline fill="none" points="20.17427087482065,132.22901231735887 24.10193890775554,131.9082780204917 24.207144301501103,131.37372000030882 31.466316469595768,129.28893346586847 33.46521895064507,131.15989649183757 36.69151769205928,131.58754333716934 39.11124174797442,132.8704797518294 42.1271297018975,132.8704797518294 43.00384131632745,134.15340998394822 48.36931639700197,130.73224895936437 49.94739730306901,132.17555662814993 51.7358889967436,135.54324409201217 51.10465663427021,142.11813017485838 52.823011398664676,146.71510854389635 57.17150100658182,152.86210674760514 62.04601758311037,157.2450970508362 73.65367935912218,172.47809973773838 78.21257975453045,186.0 79.82572912517935,185.73277542108553 79.51011294394266,182.63295070428285 75.96819802140817,174.3487592804304 73.44326857151464,164.781533626272 74.00436400482431,163.81944721829495 77.05532042332925,162.37631108803907 75.19669180060737,152.38104244187707 71.26902376767248,138.75052588091057 68.95450510538649,134.20686527607904 64.85149474954233,129.28893346586847 54.92711927345954,119.72008839917544 50.92931431136094,116.67295380213181 45.03781226207502,114.0 44.58192222251091,117.58175198092067 45.21315458486788,119.55971376363595 52.71780600491911,125.65388199678273 57.48711718781851,132.8704797518294 52.15671057160944,135.810519050312 48.2641110032564,131.10644058790058 43.45973135589156,134.04649936739588 36.30576458154246,131.64099914464168 29.888235563528724,132.60320184196462" stroke="#4dd2ff" stroke-linecap="round" stroke-linejoin="round" stroke-width="0.5"><title>2022-04-07 5.0km</title></polyline><polyline fill="none" points="120.16134535160381,130.39933979173657 119.84596321196295,131.0403358006588 120.72202471084893,131.57449796145374 124.82199252501596,131.57449796145374 131.93561189516913,129.49125946863205 134.07320195215289,131.14716831855185 137.8227451669518,131.73474640049972 139.18940110504627,132.64281906546967 142.41330742044374,132.8030668610154 143.07911415956914,134.08504575054394 148.61582283186726,130.77325431791542 150.2978609094862,132.1620750995644 152.1901537468657,135.95458722375042 151.59443192766048,142.7916555859556 154.6431259433739,148.9341843451257 157.6918199592037,152.94010495505063 161.86187269340735,156.25162045069737 174.23186105617788,172.4347242227086 178.5420836302219,186.0 180.15403678792063,185.83978424337693 180.04890940815676,183.11610162162106 174.58228565566242,170.56543908864842 173.53101185709238,164.37000017426908 177.03525785228703,162.82111790287308 177.28055507189129,161.32563680884778 173.3207570973318,144.87478992783872 170.72761506098323,137.2899659465911 167.81909088522661,133.17697800871974 165.8567131278105,134.29870829822903 166.97807184618432,132.4291551878705 161.44136317400262,125.37815095257247 151.41921962797642,116.99148590424738 145.251746676513,114.0 144.90132207702845,117.63251422137546 145.56712881615385,119.60900847461016 152.99613032571506,125.3247335406486 158.14737193856854,132.21549113866058 154.85338070313446,134.83286391646834 152.26023866678588,135.84775663634355 149.17650219111238,131.3074170149921 147.8799311729381,131.52108179355855 146.82865737436805,130.34592338804214 145.14661929674912,124.6837237594591 148.4055680721067,121.63890620550956 153.06621524563525,125.53840312434477 158.11232947860844,132.4291551878705 152.89100294583477,135.68751067495032 152.29528112674598,135.79434132647293 148.72095021174755,130.98691952550143 143.49962367897388,134.08504575054394 142.27313758071978,133.0701463057194 139.08427372516599,132.74965093978972 131.5501448357245,129.91859177150764 127.7305167010054,131.78816252552497 122.6844024680322,132.10865904983075" stroke="#4dd2ff" stroke-linecap="round" stroke-linejoin="round" stroke-width="0.5"><title>2022-04-03 6.2km</title></polyline><polyline fill="none" points="80.92896174849011,241.66247232846217 82.45901639340445,235.33157802573987 81.97814207652118,232.73254434289993 86.0,230.73327381224954 86.0,228.80063418351347 73.93442622956354,221.06996311055264 67.07103825139347,219.2039120758418 52.338797814096324,219.40384661735152 39.049180327914655,221.46982982420013 33.23497267754283,221.00331861150335 22.83060109289363,229.40042010025354 14.39344262285158,233.59889116554405 14.0,235.39821964729344 21.34426229505334,232.26604896312347 33.45355191244744,221.6031186217151 35.90163934417069,220.80338503373787 46.437158469925635,220.93667409889167 52.73224043706432,219.5371362445003 67.81420765025541,220.87002957289224 75.33333333325572,224.06895171798533 76.95081967208534,222.93600365164457 75.5081967212027,221.46982982420013 63.617486338713206,219.00397741430788 43.02732240431942,220.47016213662573 39.005464480724186,221.66976300027454 33.67213114746846,221.00331861150335 20.46994535520207,231.33305623629712 14.0,233.93210087984335 14.612021857872605,235.39821964729344 22.524590163840912,231.46634107199498 33.19125683058519,221.9363403811003 36.42622950824443,220.73674048116663 38.39344262285158,221.06996311055264 45.51912568300031,219.33720178352087 65.23497267754283,218.33752767153783 76.9945355191594,221.80305171728833" stroke="#4dd2ff" stroke-linecap="round" stroke-linejoin="round" stroke-width="0.5"><title>2022-03-24 5.1km</title></polyline><polyline fill="none" points="156.73273275082465,264.30237415849115 154.7447211118415,263.85775549928076 151.90849117346806,266.0 150.63616372452816,265.35328708299494 149.9999999999418,263.7364956944366 149.17828852246748,256.420352226065 148.22404293570435,254.15674012857198 147.08424959611148,253.34830106356821 140.48405095440103,253.1866128607944 137.1176845789305,249.9528215113096 169.69456863740925,206.41284362660372 154.08205056545557,194.0 130.30543136259075,242.51490411549457 144.9637038477813,257.47130632732296 145.8649357907707,256.743723303618" stroke="#4dd2ff" stroke-linecap="round" stroke-linejoin="round" stroke-width="0.5"><title>2021-10-26 5.0km</title></polyline></svg>