<?xml version="1.0" encoding="utf-8" ?>
<svg baseProfile="full" height="300mm" version="1.1" viewBox="0,0,200,300" width="200mm" xmlns="http://www.w3.org/2000/svg" xmlns:ev="http://www.w3.org/2001/xml-events" xmlns:xlink="http://www.w3.org/1999/xlink"><defs /><rect fill="#222222" height="300" width="200" x="0" y="0" /><text fill="#FFFFFF" style="font-size:12px; font-family:Arial; font-weight:bold;" x="10" y="20">Over 5km Runs</text><text fill="#FFFFFF" style="font-size:4px; font-family:Arial" x="10" y="280">ATHLETE</text><text fill="#FFFFFF" style="font-size:9px; font-family:Arial" x="10" y="290">Wenz</text><text fill="#FFFFFF" style="font-size:4px; font-family:Arial" x="120" y="280">STATISTICS</text><text fill="#FFFFFF" style="font-size:3px; font-family:Arial" x="120" y="285">Number: 30</text><text fill="#FFFFFF" style="font-size:3px; font-family:Arial" x="120" y="290">Weekly: 2.7</text><text fill="#FFFFFF" style="font-size:3px; font-family:Arial" x="141" y="285">Total: 215.4 km</text><text fill="#FFFFFF" style="font-size:3px; font-family:Arial" x="141" y="290">Avg: 7.2 km</text><text fill="#FFFFFF" style="font-size:3px; font-family:Arial" x="167" y="285">Min: 5.0 km</text><text fill="#FFFFFF" style="font-size:3px; font-family:Arial" x="167" y="290">Max: 15.0 km</text><polyline fill="none" points="42.57463712757453,41.983186170455156 41.45255920549971,43.99540138779048 39.51367456073058,43.391743610238336 39.05164247515495,44.0079775296399 37.4675324675336,45.3158824938364 36.59297173412051,45.79376403382412 36.2134453781473,46.271641927905875 35.11611917492701,48.35917103186512 34.72009167302167,49.98135946740149 34.051795263570966,51.33943840835127 33.36699770815903,54.38243432110539 32.99572192510823,54.7345069520743 31.576623376604402,56.01704051752313 30.45454545452958,56.696018245642335 25.52070282655768,57.852778167023644 22.90527119935723,55.2751860683893 21.51917494268855,54.52074880500368 19.349274255131604,54.05550796345415 19.192513368965592,53.75372827278261 19.407028265821282,52.735211083352624 19.299770817393437,52.244808011757414 18.194194041221635,51.69152814236804 16.040794499596814,49.516084910468635 12.286783804389415,49.37775937574406 11.799999999988358,49.0633820244293 11.799999999988358,48.47234833244511 14.687700534734176,46.32194465204884 14.671199388831155,46.07043062737284 14.456684491946362,46.032703436587326 13.681130634038709,46.67406258988922 13.46661573718302,46.58603329098332 13.549121466727229,46.359671668629744 18.185943468270125,42.7126216562574 18.251948051911313,41.12797512735051 18.482964094699128,41.0525147688204 20.47960275018704,41.53042883753733 23.119786096242024,41.16570527254589 26.205500381969614,39.49298033701052 29.28296409471659,38.625158070779435 30.685561497317394,38.36103586385798 31.098090145154856,38.58742639514821 34.42307104659267,38.147221832976356 35.05836516423733,38.260417587331176 35.223376623383956,39.266593078977166 38.55660809777328,39.59359663349096 39.5301757066627,39.958329353223235 39.14239877770888,41.291472258988506 39.5301757066627,42.34790497521681 39.51367456073058,43.36659107655214 40.957524828088935,43.76903040297475 42.22811306340736,44.47329300240017 42.855156608100515,43.54265860004671 44.19999999998254,42.52397536224089 43.98548510312685,42.00833925965344 43.127425515674986,41.95803307115057" stroke="#4dd2ff" stroke-linecap="round" stroke-linejoin="round" stroke-width="0.5"><title>2022-06-05 8.1km</title></polyline><polyline fill="none" points="54.26104339346057,42.462702834949596 54.40321794251213,42.727582971834636 54.56118966359645,42.366382640109805 56.26728425157489,42.462702834949596 59.410921501752455,41.379096182725334 60.81686981959501,42.24598228780815 64.11847879079869,42.92022270386951 64.52920526574599,43.47406020993367 67.18313018040499,42.029261349009175 67.89400292542996,42.75166295522649 68.58907849830575,44.29277183799422 68.24154071183875,47.158218522468815 69.0787908337661,49.18084555021778 70.97445148712723,51.9017066715096 72.96489517315058,53.58716489912331 75.96635787421837,57.271012562872784 78.54129692836432,60.85844173517398 79.56811311555794,63.36235555946769 80.20000000001164,63.04936919007014 78.92042905901326,59.7990778423773 78.46231106779305,57.29508962642285 78.65187713311752,56.86170174351719 80.02623110677814,56.30792605851457 80.04202827886911,55.826379906175134 78.19375914189732,47.76019441758399 76.51925889815902,43.811177439580206 73.50199902488384,40.12691630117479 68.24154071183875,35.72010235800553 64.56079960998613,33.769493662563036 58.79483178938972,32.63764444053231 53.48698196007172,32.782136425455974 51.55972696247045,32.99887407635106 50.485519258945715,33.528675573870714 50.64349098003004,34.54010829660547 50.07479278399842,36.94824711083493 49.63247196492739,37.06865278211626 47.79999999998836,40.96973112146952 50.56450511945877,40.295479739092116 53.692345197545364,40.65668630821165 54.40321794251213,40.921570434155 54.18205753294751,42.12558181461645 54.75075572897913,42.438622793517425 54.3558264261228,42.63126298980933" stroke="#4dd2ff" stroke-linecap="round" stroke-linejoin="round" stroke-width="0.5"><title>2022-06-04 5.1km</title></polyline><polyline fill="none" points="115.94676508900011,54.18728290450963 116.04524533211952,52.83623019541119 115.00416847586166,52.535993939040054 112.99235779419541,52.342984471455566 110.24897959182272,52.986348007121705 110.9524099000846,50.949016848368046 112.19044724275591,49.169000971924106 112.781328701647,47.11015042561485 112.570299609215,46.31662451395823 113.80833695176989,45.780455019616056 113.83647416415624,45.00836621863709 110.12236213631695,42.60627647354704 108.30751194088953,42.02719318455638 106.49266174552031,41.81271709549037 99.75379939208506,42.284563922919915 98.99409465916688,42.563381522842974 97.24958749458892,42.39180154747737 92.83204515848774,45.75900818381342 90.29969604860526,46.87423793257767 85.69926183240023,46.68121823258116 84.03916630480671,46.230837575742044 83.79999999998836,46.831344696096494 84.64411636989098,47.06725728377933 90.42631350411102,47.23882974760636 93.16969170642551,46.059263492577884 97.31993052538019,42.520486554843956 99.85227963526268,42.69206632345595 106.05653495440492,42.34890651056776 108.5888840642292,42.73496122247161 110.29118541028583,43.87166977002926 109.70030395133654,44.79389611660736 109.12349109858042,48.43982927600155 111.66990881459787,49.34057005922659 110.34745983500034,52.81478477653582 112.83760312630329,52.10708353729569 114.58211029088125,52.30009343120764 116.20000000001164,52.83623019541119 116.01710811984958,54.080057123421284" stroke="#4dd2ff" stroke-linecap="round" stroke-linejoin="round" stroke-width="0.5"><title>2022-06-03 5.0km</title></polyline><polyline fill="none" points="151.97480451775482,54.21142764201795 151.72145960031776,53.93251928070822 152.03110338834813,53.031425753069925 150.4406602953677,52.40923769171786 148.6953953084303,52.2805086749795 146.513814074744,53.031425753069925 146.14787141617853,52.88124275964219 146.37306689837715,51.76559105695924 148.4279756732867,48.440021673668525 148.73761946131708,47.08830904751812 148.5264986967668,46.25152599469584 149.79322328406852,45.73657932009519 149.73692441353342,45.114348776987754 146.00712423975347,42.603933575432166 143.86776715901215,41.93877094452182 142.44622067763703,41.788572357989324 136.25334491743706,42.260624347574776 134.50807993049966,42.68976071003999 133.1709817550145,42.41082227050356 128.72337098175194,45.80094779018691 126.27437011298025,46.85229397826333 120.84152910509147,46.637734371906845 120.0955690703704,46.20861386661272 119.79999999998836,46.78792614156555 120.57410947000608,47.0668531536794 124.85282363160513,47.3028677490438 127.25960034749005,47.02394135306531 129.63822762813652,45.58638607250032 133.35395308426814,42.496649560242076 135.00069504778367,42.75413101572485 139.1105125977192,42.28208120666386 144.68410078191664,42.68976071003999 146.16194613376865,43.526571659160254 146.2323197220103,43.95570293680794 145.45821025193436,45.5649298770586 145.07819287572056,48.504388515000755 147.94943527365103,49.31969848251174 146.31676802778384,52.83833329418121 149.00503909640247,52.173234375834 150.98957428324502,52.49505695007247 152.19999999995343,52.98851634791208 151.9607298001647,54.018337315588724" stroke="#4dd2ff" stroke-linecap="round" stroke-linejoin="round" stroke-width="0.5"><title>2022-06-02 5.0km</title></polyline><polyline fill="none" points="166.8549885757966,42.387136977908085 168.5946686976531,42.33071490022121 170.44539223154425,41.747684773712535 171.06230007612612,41.916951958490245 171.04996191925602,41.4655721192903 173.7396801218565,42.66924685666163 174.86245239907294,42.72566873042524 175.01051028180518,43.06419925944647 175.91119573498145,42.74447601415886 176.95993907083175,41.916951958490245 177.66321401370806,42.499981031389325 178.23076923078042,43.722449563181726 177.98400609291275,46.2049519451175 178.56389946688432,47.42737212385691 180.01980198017554,49.64649414255109 181.80883472959977,51.16975933602953 186.0038080731174,56.64202624592144 187.50906321400544,61.437048897045315 188.19999999998254,61.361834750234266 185.85575019038515,54.34785017029935 185.85575019038515,53.68967453084042 187.13891850720393,52.9750786004588 185.75704493524972,46.8067607960038 184.3011424219585,43.34630709891644 180.9204874333518,39.22744828370196 177.94699162224424,36.97046252623841 175.35597867477918,35.635053676654934 172.6415841584385,34.93912884218298 168.5453160700854,34.562951102954685 165.1153084539401,34.90151113625325 164.01721249049297,35.29649629495543 162.20350342727033,35.24006994571391 156.9844630617008,35.84194925190968 156.45392231529695,36.0112271098842 156.39223153085914,36.70714397844131 155.83701447068597,36.76356944384315 155.79999999998836,38.19300322936033 159.4027418126352,38.456317599862814 161.88271134803654,39.11460028748843 162.462604721979,39.52837560889748 161.96907844633097,41.16465101807262 164.27631378520164,40.58161363311956 167.1757806549722,41.07061297562177" stroke="#4dd2ff" stroke-linecap="round" stroke-linejoin="round" stroke-width="0.5"><title>2022-05-30 6.1km</title></polyline><polyline fill="none" points="28.49342442356283,85.81349888050318 28.62254483345896,85.68697075449018 29.535610589227872,85.75726418605336 31.352519214357017,85.13867956614922 33.436891545687104,85.96814405733676 34.24850555078592,85.98220269283411 34.562083689146675,86.27743338627988 35.89017933388823,85.4339138164978 36.21298035865766,85.67291205968286 36.79402220324846,86.68513086883468 36.554227156273555,88.35807154344002 36.81246797606582,89.11720790866093 38.18667805296718,91.23993443042491 39.339538855681894,92.19584323969684 42.58599487616448,96.3707625762363 43.775747224572115,100.03942560811629 44.14466268144315,100.01131397851714 44.19999999998254,99.57558227589107 43.09325362936943,96.82057068084032 42.49376601196127,94.45904589590282 42.59521776257316,94.17790668785165 43.43450042695622,93.85459520313452 43.48061485908693,93.60156778247256 42.00495303157368,87.75356818082946 41.267122117831605,86.3758433408002 39.48710503842449,84.21079238890889 36.59111870196648,81.73636646166779 36.13919726727181,81.66606899300677 34.322288642200874,80.6256582043934 31.859777967532864,80.07732737814149 29.351152860792354,79.95078888527496 27.248334756615805,80.21792543529955 26.91631084540859,79.61335178616355 24.582920580694918,78.15110556272339 22.175747224595398,77.56057439188226 18.32058070023777,77.84178033254284 17.278394534572726,78.12298514369832 16.30999146029353,77.99644311849625 15.728949615702732,78.13704535462966 13.40478223739774,80.00702824363907 12.445602049527224,80.56941934293718 11.836891545681283,80.6959567177255 11.799999999988358,81.08962708774561 13.967378309112974,79.97890857009043 16.20853970965254,77.9823828793269 19.049188727600267,78.09486471344644 20.017591801879462,77.85584059990288 20.985994876158657,78.02456358827112 22.39709649872384,77.92614189449523 23.531511528621195,78.10892492998028 24.739709649875294,78.72757166296287 25.449871904362226,78.31982783947024 26.344491887284676,79.23373310564784 26.98087105038576,79.55711211152084 26.934756618284155,80.17574604780384 26.667292912025005,80.31634390734325 26.658070025616325,80.58347906254494 27.128437233128352,80.9349711349314 28.253629376587924,81.28646144266531 32.154910333047155,80.9490307811102 32.671391972660786,81.17398473619687 33.8242527754046,82.31280304205939 36.563450042682234,81.59577145378353 39.21964133219444,83.84525770028631 41.248676345014246,86.29149195969876 42.1894107600383,88.17531526329185 39.70845431255293,88.86416336808907 39.34876174209057,88.47053670947571 38.998292058066,87.19123478584515 38.223569598631,86.15090609865729 36.88625106748077,86.78354025031513 36.000853970967,85.58855983173271 34.51596925704507,86.33366766295148 34.183945345837856,86.08061306229138 33.44611443209578,86.03843720661098 32.80051238255692,85.74320550540142 31.869000853941543,85.68697075449018 31.186507258738857,85.86973352978748 30.550128095637774,86.3899018944503" stroke="#4dd2ff" stroke-linecap="round" stroke-linejoin="round" stroke-width="0.5"><title>2022-05-28 10.0km</title></polyline><polyline fill="none" points="64.65389425811009,85.65630561499347 65.97089255257742,85.60015074329931 67.37077885161852,84.95436647716633 68.17202956226538,85.52995709027891 68.86276293348055,85.6141894654611 69.47981807845645,85.96515660302975 70.18897100625327,85.93707929688753 70.53894258098444,86.3020833976625 71.56122797040734,85.5720732905429 72.01250710629392,85.45976336674721 72.77691870380659,86.63900856864348 72.63877202954609,88.4499535459945 73.10847072198521,89.61511040003825 73.92814098918461,90.94869983668104 75.5030130756204,92.3945628035035 78.61591813529958,96.43720544141615 79.78555997725925,100.05854100862052 80.19999999998254,99.89011095470414 80.1447413302958,99.18831469658107 78.99351904491778,96.35298610367317 78.505400795897,94.2615066786093 79.50005685046199,93.75617340709505 78.164638999413,88.05688420317892 77.23445139284013,86.20381325028939 74.74781125641312,83.49431049592022 72.59272313813563,81.7393951694794 71.39545196134713,81.26205058018604 70.55736213756609,80.67238511721735 67.99704377487069,80.06867484777104 65.45514496869873,79.90019663283601 63.18953951107687,80.15291380299459 63.042183058540104,79.59131885099487 60.61080159182893,78.07498994637353 58.317566799290944,77.54145899138166 51.80625355313532,78.07498994637353 49.503808982350165,79.92827636355287 47.79999999998836,80.74258364737398 47.8184195565409,81.02337706332764 48.18681068785372,81.02337706332764 49.15383740758989,80.51794810263527 51.89835133595625,78.15923130390729 52.30358158040326,78.01882898495023 55.00204661738826,78.04690947130439 55.821716884558555,77.78014439562321 56.669016486615874,77.97670823430235 58.474133030103985,77.90650692676718 59.57009664582438,78.11711063781331 60.78578737916541,78.73487786351689 61.48573052868596,78.2855931498234 62.26856168275117,79.19819970040044 63.014553723682184,79.60535877976145 63.12507106308476,79.99847564090669 62.69221148377983,80.46178910365416 62.91324616258498,80.79874242079313 63.43820352471084,81.03741670457384 64.98544627625961,81.31820893633267 68.16281978396,80.91105983229863 68.56805002840701,81.07953561118484 69.87583854462719,82.3290516331108 71.39545196134713,81.80959262834585 72.56509380330681,81.66919764017075 74.99647527004709,83.57854532366036 77.0042069357587,85.95111795137564 77.75940875496599,87.18650850860286 78.11859010803164,88.2393809585883 75.65957930640434,88.85705875010899 75.37407617963618,88.50610612887249 75.05173393973382,87.25670049852488 74.16759522457141,86.10554296479677 72.90585559976171,86.75131659817634 71.96645821488346,85.50187960932453 70.51131324615562,86.33016055725602 70.179761227977,86.03534981916891 69.47060830018017,86.00727254117373 68.82592382034636,85.64226690127543 67.14974417281337,85.85284731070715" stroke="#4dd2ff" stroke-linecap="round" stroke-linejoin="round" stroke-width="0.5"><title>2022-05-26 10.0km</title></polyline><polyline fill="none" points="90.23749711341225,81.90684712739312 92.28254741220735,81.81583031872287 94.9993295611348,80.92841260276327 98.23856981558492,82.43019235885731 99.358122898906,82.36193007440306 99.86565362999681,83.09005898828036 102.40330728556728,81.52002518555673 103.70198886218714,83.56789104553172 103.29894975223579,85.91151434124185 104.17966484441422,88.23233624939894 105.20965368108591,89.98429777660931 108.0757095743902,92.6918214105026 113.09130738768727,99.15321306882106 114.94230181880994,104.84075298983953 115.76330741326092,105.0 115.61403366882587,103.93076578222099 113.38985487655737,98.53894167978433 113.0315978899016,95.74055210896768 114.38998896436533,95.2172683418903 114.53926270880038,94.83049183071125 112.03146380215185,85.00137512845686 110.9417654676945,82.97628915389214 107.65774308994878,79.17631106587214 103.32880450109951,75.58100490184734 100.9404245899641,74.23842461407912 97.16379885555943,73.00960837447928 92.10341891890857,72.59999999999854 87.68491608340992,73.03236435184954 86.62507249781629,73.35094755551836 86.86391048895894,74.21566887887457 86.2817428856506,76.71877235449938 85.22189930005698,77.94754837229266 84.23669258673908,80.45056941572693 86.75941886781948,79.76793279597769" stroke="#4dd2ff" stroke-linecap="round" stroke-linejoin="round" stroke-width="0.5"><title>2022-05-24 5.1km</title></polyline><polyline fill="none" points="152.14362766419072,95.07324166472972 151.83357981726294,94.72952199834253 152.11544149625115,93.63390819191409 150.0014789038687,93.20425265608355 148.4935189212556,93.29018390129204 146.5486733361613,93.89170068519888 146.21043932141038,93.65539092339168 146.81644193123793,92.04417409044981 148.32440191385103,89.57359448378702 148.81765985203674,87.98380004648789 148.6344497607788,87.10295782238973 149.95919965201756,86.54437119075737 149.95919965201756,86.13617142315343 149.7196172248805,85.55609538988938 147.80295780772576,84.26702627701889 144.6038277511252,82.87051720947784 142.29256198339863,82.5267583352761 136.37346672464628,83.02091136959643 134.6400173988077,83.40763823898305 133.42801217921078,83.14982048138336 132.5401478903368,83.45060780490167 128.76320139190648,86.52288703125669 126.40965637227055,87.59708971923101 121.26568073069211,87.42521801397379 119.99730317521608,87.05998972354428 119.79999999998836,87.46818596623052 120.36372335796477,87.76896114838746 123.18234014784684,88.06973548493988 127.29752066114452,87.87638065132342 129.62287951278267,86.52288703125669 132.72335798171116,83.72990956233116 133.56894301867578,83.34318385784718 141.75702479336178,83.2142749790728 144.67429317091592,83.49357735352532 146.2668116571731,84.58929501146486 145.4775989560294,86.11468718174001 145.12527185725048,89.20837352764647 147.9861678990419,90.08919841693569 146.32318399305223,93.65539092339168 149.08542844711337,93.01090710201242 150.53701609390555,93.16128700765694 152.19999999995343,93.61242545612913 152.11544149625115,94.49321408712422" stroke="#4dd2ff" stroke-linecap="round" stroke-linejoin="round" stroke-width="0.5"><title>2022-05-22 5.0km</title></polyline><polyline fill="none" points="162.31297979492228,81.43523465616454 162.4019195367,81.90974169681431 163.55813617934473,81.95493273920874 165.15905153076164,81.72897734579601 167.1453724297462,80.93812989604339 167.7975972025306,81.5030214987346 169.35404268302955,81.75157290558127 170.4806127451593,82.40684216484806 171.6516526780906,82.3164604249032 172.00741164508509,82.85874977570347 174.2605517692864,81.43523465616454 175.0017162838485,82.02271926872345 175.72805750806583,83.44622695675207 175.3426519605564,86.22540435552946 176.3061658294173,88.39447073429619 177.9219044710626,90.6990579539779 179.92304866039194,92.39357727186871 185.17049342324026,99.17139941075584 187.0678745805053,105.0 187.76456922420766,104.86445457737864 187.66080619208515,104.20931606642989 185.27425645530457,98.42585895625234 184.90367419808172,96.00846654353518 185.05190710094757,95.60179729696392 186.34153335628798,95.0821622323565 186.4304730980075,94.44955978481448 184.1625096835196,85.36680403065111 183.0952327825944,83.19767929291993 178.989181372046,78.36218823927629 175.35747525078477,75.53762303045369 171.3551868723007,73.59428099606157 166.65620385011425,72.69038954446296 163.51366630848497,72.60000000000582 159.88196018722374,73.00675237843097 158.79985999607015,73.43610051618452 158.91844631836284,74.31738892957947 158.34033799701137,76.82563355957973 157.5695269018761,77.57131712746195 156.23543077573413,80.57659778213565 158.79985999607015,79.763146278965 160.97888366872212,79.96650970608607 162.44638940755976,80.55400198649295 162.12027702113846,81.4126390328529" stroke="#4dd2ff" stroke-linecap="round" stroke-linejoin="round" stroke-width="0.5"><title>2022-05-16 5.4km</title></polyline><polyline fill="none" points="30.693260109837865,126.80843075296434 31.429256115836324,126.87007354462912 33.03065401897766,126.35227217108331 33.41078382424894,126.68514498394143 34.26000998503878,126.84541643538614 34.68866699951468,127.10431558859273 35.4084872691019,127.07965857341696 35.65921118322876,127.41252744280064 36.96135796303861,126.66048780045458 37.69735396906617,127.77005125541837 37.535596605128376,129.37271862574198 38.18262606090866,130.74111688833364 39.0318522216985,131.89991679484592 39.99430853719241,132.7012018131718 42.80079880182166,136.27603835343325 43.8360459311225,139.4315831910535 44.19999999998254,139.4069311254534 44.1838242636295,139.04947506227109 43.02725911134621,135.9801977111165 42.71183225166169,134.6612241712719 42.76844732902828,134.4023568796365 43.52870693959994,134.03254456992727 43.55297054420225,133.79832895514483 42.37214178731665,128.9782197696768 41.644233649538364,127.54814016852106 39.7274088866543,125.27966971990827 37.13929106341675,123.20838437054772 35.65921118322876,122.46862266804237 34.20339490767219,122.08640896271027 31.58292561158305,121.83981821262932 29.22935596606112,122.04942041335016 29.059510733903153,121.58089685910818 27.943384922633413,120.76713692480917 26.843434847716708,120.15064494521357 25.258212680986617,119.76841680894358 21.53779331003898,120.00268594896625 20.64003994007362,120.23695419503201 19.410683974041604,120.16297484549068 16.960059910139535,122.04942041335016 15.625561657507205,122.64123452920467 12.398502246622229,122.53026981701987 11.961757363955257,122.30833979097224 11.897054418368498,122.4193049042733 11.799999999988358,122.65356392931062 12.269096355477814,122.77685779396779 15.504243634553859,122.93713944790579 16.895356964552775,122.39464600753126 19.75037443835754,120.17530474326486 21.3436844732787,120.28627371187395 22.524513230164303,120.1013253194069 25.07219171244651,120.12598513726334 26.042735896160593,120.24928407796688 27.158861707459437,120.76713692480917 27.51472790815751,120.43423202469421 25.832451323018176,119.87938651300283 24.829555666510714,119.76841680894358 21.4245631552767,119.97802608155325 20.23564653020003,120.28627371187395 21.974538192735054,120.23695419503201 22.985521717433585,120.00268594896625 25.08027958063758,120.08899540678249 26.18831752371625,120.3232633234984 27.255916125810472,120.77946670127858 27.741188217682065,120.42190217891766 28.541887169267284,121.24799637150136 29.0999500748876,121.51924875685654 29.132301547710085,122.0001023128425 28.452920619107317,122.27135137531877 28.525711432856042,122.64123452920467 30.110933599615237,123.39332340347391 31.58292561158305,123.28236005053986 31.63954068897874,124.9837760909686 31.275586620089598,125.20569644635907 31.259410883678356,125.58789073369189" stroke="#4dd2ff" stroke-linecap="round" stroke-linejoin="round" stroke-width="0.5"><title>2022-05-14 9.9km</title></polyline><polyline fill="none" points="61.745417515252484,125.82076786318066 62.79022403259296,125.88782581280975 64.97881873726146,125.11665614038793 65.99063136451878,125.73694535042887 66.6175152749056,125.78723886820808 67.35437881870894,126.22311475304741 68.03625254580402,126.15605707270879 68.6961303462158,126.59193103212601 70.32382892054738,125.50224186697596 71.3576374745171,127.09485969618981 71.12668024440063,129.1233078910518 71.7205702647625,130.53145782301726 72.45743380853673,131.80547777428728 74.3820773930347,133.59913080798287 78.29735234210966,138.62785910006642 79.8260692464246,143.00260637426254 80.15600814661593,142.88527897862514 80.19999999998254,142.24835595434706 78.92423625249648,139.14747709299263 78.23136456205975,136.23086972210876 78.33034623213462,135.96267082609847 79.39714867612929,135.4262704497669 78.16537678206805,130.06207715112396 76.79063136450714,126.75957425674278 73.85417515275185,123.28929087074357 71.18167006107979,121.16010840885428 68.34419551931205,119.78533182830142 65.51771894094418,119.19853005273035 63.19714867617586,119.0141057856672 59.90875763742952,119.31589073777286 59.63380855394644,118.71231974266266 58.14908350305632,117.62252772704232 56.57637474540388,116.73391755459306 55.34460285131354,116.34829132921732 53.82688391034026,116.19739362573455 48.6248472504667,116.59978689561831 47.79999999998836,116.90158057520603 54.145824847219046,116.61655323976447 56.21344195515849,117.11954199865431 56.884317718911916,117.67282613324642 56.22443991850014,119.0141057856672 55.96048879832961,121.36129332669225 58.07209775966476,122.19955859918991 56.91731160893687,124.83165685008134 58.687983706680825,124.29518495855154 60.84358452138258,124.51312708021578 61.470468431769405,124.74783334428503 61.36048879835289,125.73694535042887" stroke="#4dd2ff" stroke-linecap="round" stroke-linejoin="round" stroke-width="0.5"><title>2022-05-12 7.0km</title></polyline><polyline fill="none" points="95.53572519079898,124.02137186649634 96.92076335876482,124.02137186649634 99.20854961831355,123.22964945468993 99.7526717557048,123.7197641159728 101.66946564882528,124.37952981168928 102.81954198470339,124.41723056855699 103.35129770991625,124.92618930424214 105.30519083965919,123.73861462874629 106.2821374045161,125.322044191038 106.13374045799719,128.09298166359076 106.96229007630609,129.7705843325166 108.1989312976948,131.52355284670193 109.78183206103859,132.86181860523357 112.19328244272037,135.80216651134833 112.44061068698647,136.51839115665643 113.62778625951614,137.74349959472602 114.39450381675852,139.08167669857357 115.50748091598507,142.88878047999606 116.19999999998254,142.70031362757436 114.14717557246331,136.49954320969118 114.03587786253775,135.5948373048741 115.3096183205489,134.8032124868114 113.96167938929284,128.88466306292685 113.05893129768083,126.45304895605659 112.36641221368336,125.13354207216616 109.58396946560242,121.77814102456614 107.34564885491272,119.76107256673276 104.82290076330537,118.08329101905838 103.15343511448009,117.29151852588257 101.34793893125607,116.82022220466024 97.1804580152384,116.31121952000831 93.19847328242031,116.68825881066005 92.14732824423118,117.08414843607898 90.45312977099093,116.98988915285008 84.51725190834259,117.72510905171657 84.41832061065361,118.49802632645151 84.05969465646194,118.46032319243386 83.8494656488183,118.74309632871154 83.79999999998836,119.81762647849973 84.04732824425446,120.11924676591298 85.9146564885159,120.04384178496548 89.14229007632821,120.57167538003705 90.51496183202835,121.19376116424246 90.13160305342171,122.9468898323612 92.24625954197836,122.21171082837827 93.73022900763317,122.34366645816044 95.23893129767384,122.7960843521796 94.99160305340774,123.73861462874629" stroke="#4dd2ff" stroke-linecap="round" stroke-linejoin="round" stroke-width="0.5"><title>2022-05-10 6.0km</title></polyline><polyline fill="none" points="138.57405836865655,126.91523869022785 139.38223996007582,126.90291936989888 140.96627587924013,126.33622796182681 142.70386630078428,127.11234747869094 143.42314791717217,127.11234747869094 143.64135694684228,127.3956902526952 144.83746570214862,126.64421307208613 145.0395111000107,126.74276798085339 145.6537291094719,127.67903171817306 145.4516837116389,129.1942703891218 145.92851085055736,130.36455106758513 146.67203791465727,131.4978542391218 147.98937390869833,132.71736361753574 150.21187328509404,135.57510882608403 150.8988276377786,136.6467289661632 151.70700922922697,139.39343995520903 152.19999999998254,139.3688063223235 151.92521825889708,138.1617461967944 151.27059116985765,136.6836810509849 150.72910950359073,134.78677861411416 150.71294587175362,134.38029189095323 151.54537291094312,133.91221293449416 150.2846096282883,128.77542766958868 149.67039161885623,127.51888235497972 148.13484659514506,125.5970573892082 146.40533798950491,124.02013040259772 145.42743826386868,123.36717220597347 143.68176602639141,122.46780331173068 142.06540284358198,122.07355525638559 139.6893489648064,121.85178961186466 137.2648041905486,122.03659437130773 136.96577700172202,121.54378044236364 134.98573210273753,120.23780438474569 132.8440508854692,119.7449760058189 129.09408830129541,120.01603210419489 128.50411573954625,120.21316305985965 127.32417061610613,120.1762010539278 125.26330755799427,121.79018790168266 123.58228984780726,122.61564567934329 120.45462708902778,122.52940434154152 119.96163631827221,122.3076403447958 119.79999999998836,122.60332549562736 122.43467198798317,122.92364946752787 123.92980793211609,122.81276828194314 125.53000748311752,121.9626725343187 127.53429782984313,120.21316305985965 130.10431529054767,120.22548372353776 130.7589423796162,119.9790699794612 131.57520578696858,120.15155970422711 133.78154153152718,120.21316305985965 135.23626839608187,120.79223157882006 135.6888500872592,120.41029338206863 136.46470441503334,121.18648786841368 137.0546769767825,121.432896762788 137.0465951608785,122.01195376887335 136.7233225243108,122.22139857402726 137.49917685205583,122.82508842356037 139.23676727359998,123.0098902511163 141.42693938635057,122.71420705978744 142.23512097776984,123.07149073663095 143.38273883756483,124.06940998442587 143.95654776750598,123.84765155433706 145.92042903465335,125.43690259131836 147.1407832376717,127.3956902526952 146.97106510348385,127.21090163543704 145.67797455721302,127.87613805284127 145.41127463203156,129.0587627633322 145.5405836866703,129.53919754068193 146.67203791465727,131.4978542391218 147.84390122222248,132.54490921727847 150.56747318530688,135.96927013395907 151.86864554751082,139.4550239941782 152.10301820898894,139.35648950218092 152.12726365673007,138.97466685129984 150.87458219003747,135.92000010895936 150.60788226488512,134.60201225560377 150.6806186081085,134.39260970999385 151.51304564726888,133.94916666613426 150.4704913943424,129.53919754068193 149.83202793714008,127.88845717775257 147.4559740583354,125.03035391909725 145.73454726859927,123.65053227693352 143.57670241955202,122.46780331173068 140.53793963577482,121.88875060826831 137.20823147913325,121.99963346396544 137.02234971313737,121.5314600434358 135.6807682713552,120.50885830566403 134.1048141680949,119.94210783249582 133.02185083559016,119.76961751882118 129.6113245197921,119.99139069016383 128.2374158143648,120.26244569979826 131.11454227985814,120.07763559587329 131.0741332002799,121.75322684588173 130.83976053874358,123.04685054981019 131.31658767769113,123.20701158695374 130.9771514092863,123.30557201737611 131.03372412070166,124.21724849253224 134.17755051134736,124.5622036259665 135.20394113243674,124.94411597562066" stroke="#4dd2ff" stroke-linecap="round" stroke-linejoin="round" stroke-width="0.5"><title>2022-05-08 15.0km</title></polyline><polyline fill="none" points="167.46301369860885,123.88804486259323 168.36301369863213,123.92563098137907 171.06301369861467,123.06114643080218 173.7013698630035,124.20752639098646 174.6506849314901,124.16994038546545 175.20547945200815,124.69614308978635 176.62328767121653,123.75649332799367 177.27671232877765,123.68132093955501 178.2630136985972,125.29751398656663 177.95479452054133,127.30831986220437 178.59589041097206,129.03720252415224 180.23561643832363,131.44255136556603 181.7397260274156,132.62641129982512 186.00547945205471,138.2824243258874 187.65753424656577,143.01742822201777 188.19999999998254,142.88590357015346 188.1506849315192,142.24706691812753 186.76986301367288,138.864917884006 185.91917808220023,135.3699021616776 187.2013698630035,134.6558506371657 185.80821917805588,128.37947918815917 185.08082191777066,126.25594086690398 184.1684931506461,124.69614308978635 181.6657534246624,121.7268176463258 178.632876712305,119.058103005882 174.78630136983702,116.97194208928704 168.7575342465425,116.1825717779866 156.55205479450524,117.51697960906313 156.45342465752037,118.23116189933353 155.82465753422002,118.49428031673597 155.79999999998836,119.22724915022263" stroke="#4dd2ff" stroke-linecap="round" stroke-linejoin="round" stroke-width="0.5"><title>2022-05-05 5.1km</title></polyline><polyline fill="none" points="25.621818181796698,166.7760174221985 27.07272727272357,166.87579144283518 28.949090909096412,166.1939999058668 31.392727272730554,167.1418549103255 32.28727272726246,167.1418549103255 32.58181818184676,167.5076907823459 34.28363636363065,166.50995277939364 34.42545454544597,166.60972712062357 35.265454545471584,168.05644156031485 35.036363636376336,169.66941522017441 35.57090909089311,171.41538222875533 36.57454545455403,172.96177941303904 38.45090909089777,174.74093185139645 40.32727272727061,177.00222932449105 42.35636363638332,180.07815986649075 43.469090909085935,183.6693720665644 44.19999999998254,183.6693720665644 42.41090909088962,177.60079773312464 42.36727272727876,176.7694515528492 43.19636363637983,176.53667312703328 43.32727272727061,176.27063983929838 42.01818181818817,170.43431958298606 40.6218181817967,167.6074639215367 38.374545454542385,164.83039999290486 35.0800000000163,162.08650285357726 32.28727272726246,160.67294460286212 28.425454545445973,159.9744716191708 24.018181818159064,160.19066626746644 23.647272727277596,159.52545016151998 21.312727272714255,157.86238651775784 19.523636363621335,157.26367542972002 17.669090909097577,157.13062793343124 13.043636363639962,157.4965080339025 11.821818181837443,157.86238651775784 11.799999999988358,158.02869438507332 15.716363636340247,157.74597081184766 15.36727272727876,161.57097263973264 15.923636363644619,161.75390308295755 15.607272727269446,161.77053310319025 15.552727272734046,163.16744288266636 19.818181818147423,163.6330742395512 21.279999999969732,164.13196207388683 21.432727272738703,164.38140486398333 20.941818181803683,165.47894421480305 21.018181818159064,165.7450121699294 22.95999999999185,165.21287540479534 24.312727272714255,165.29602199976216 25.95999999999185,165.8447874327394 26.963636363652768,165.82815823060082 27.912727272720076,165.49557348701637" stroke="#4dd2ff" stroke-linecap="round" stroke-linejoin="round" stroke-width="0.5"><title>2022-05-04 7.1km</title></polyline><polyline fill="none" points="59.15047546592541,164.58688345027622 61.11000380371115,164.54931157538522 63.09418029666995,163.8542291692138 65.57131989349728,164.90624377722997 66.87767211862956,165.05653061268094 67.03788512738538,165.52617541763902 69.09600608595065,164.30509402116877 70.21749714718317,165.9958178650195 69.92171928487369,168.23128359722614 70.56257131989696,169.8280121335847 72.09075694181956,172.06338630596292 73.68056295168935,173.4534239864297 77.58729554965976,178.43109224236832 78.17885127424961,179.42659411764907 79.46055534423795,183.72779180068756 80.19999999998254,183.70900970782532 80.01513883608277,182.5632949156643 78.46230505895801,179.08850032879855 77.93236972231534,176.8532939891811 77.8953974895121,176.1395193722492 79.01688855074462,175.66992783902242 79.17710155950044,175.36938802083023 77.1682769113977,167.46108714922593 76.08375808291021,165.31953199392592 74.87599847849924,163.76029871826177 70.30376569033251,159.68362628155592 67.06253328261664,157.93642656994052 63.291365538229,157.10978307708137 59.26139216430602,157.07220819930808 56.10642829973949,157.67340443271678 54.24549258273328,157.65461710891395 48.50247242295882,158.3497455773395 48.465500190184684,159.0636559253544 48.24366679342347,159.3454611420966 47.88626854316681,159.21395214655786 47.79999999998836,159.81513461681607 47.88626854316681,160.7732611939864 48.39155572457821,161.39322022109263 50.41270445034024,162.63312595072784 53.703233168518636,163.55365139415517 54.39338151385891,165.15045976230613 54.41802966906107,166.78481186956196 57.363484214496566,167.59258455259987" stroke="#4dd2ff" stroke-linecap="round" stroke-linejoin="round" stroke-width="0.5"><title>2022-05-01 6.0km</title></polyline><polyline fill="none" points="91.17236662103096,163.52125756176974 91.08372093021171,163.27352825915295 93.07824897405226,163.476215911076 94.43748290016083,162.98075655966386 94.52612859098008,163.61134080890042 94.51135430915747,162.98075655966386 95.69329685362754,162.53033706819406 96.60930232558167,163.1834447406727 97.96853625169024,163.3410908504593 98.9436388508766,163.90411086233507 100.27332421339815,163.83654861016112 100.58358413132373,164.44460741477815 102.66675786592532,163.13840295434056 103.06566347467015,163.22848650901142 104.27715458278544,165.09770394045336 104.01121751026949,168.1379308144824 104.76470588240772,169.78187101845833 105.85800273600034,171.58342165357317 108.32530779752415,173.88035674817365 113.28946648427518,180.11787455719605 115.56470588239608,186.51265908208734 116.19999999995343,186.35504553555802 116.1261285909568,185.4543924497557 113.4963064295589,178.18135380839522 113.64404924761038,177.12300857302034 115.01805745559977,176.33487265546864 113.15649794804631,168.40816921512305 111.54610123124439,164.60225175193045 108.47305061557563,160.86376922160707 104.27715458278544,157.3729049570029 99.87441860465333,155.23328928159754 97.0377564979135,154.5350900701087 92.9896032831748,154.28734091791557 88.51299589598784,154.73779351473058 88.01067031460116,155.05310925600497 88.82325581397163,155.8413947308145 90.74391244869912,156.40445239204564 95.91491108073387,155.79634999579866 97.24459644325543,156.08914045002894 99.66757865936961,158.18369602192251 101.13023255812004,157.68821328984632 102.01668946648715,158.7692637013315 104.88290013681399,161.04393991237157 106.70013679895783,163.9941938019765 104.35102599178208,165.34542921402317 103.96689466480166,167.30469164680107 104.1885088919662,168.63336738510407 106.28645690833218,172.05632390059327 108.67989056091756,174.2406560246818 113.4963064295589,180.59074082430016 115.50560875510564,186.49014287473983 116.17045143642463,186.37756177007395 116.1113543091924,185.4543924497557 114.45663474692265,181.4013640731646 113.5110807113233,177.59588746546797 113.68837209302,177.16804474387754 115.00328317371896,176.33487265546864 113.34856361150742,169.12880176727776 111.50177838577656,164.44460741477815 108.22188782488229,160.57099123171793 104.12941176473396,157.2152504581536 100.46538987691747,155.39094656652014 94.7477428180282,154.4224768869317 92.82708618330071,154.30986359069357 87.34582763339859,155.1206767995027 84.06593707250431,155.25581176443666 83.79999999998836,157.3278608370747 86.29685362521559,158.56656754291907" stroke="#4dd2ff" stroke-linecap="round" stroke-linejoin="round" stroke-width="0.5"><title>2022-04-30 10.1km</title></polyline><polyline fill="none" points="131.0813714285614,165.44359160821477 132.88342857145471,165.55647898984898 135.05577142856782,164.7662644621014 137.8329142856819,165.989212692999 138.9314285714354,165.8763258327017 139.2523428571585,166.32787245803775 141.25188571427134,165.25544566982717 142.31337142857956,167.00518831601948 141.98011428571772,169.07473421424947 142.8317714285513,171.1442344052848 144.23885714283097,173.13843680209538 145.73234285711078,174.36127577142906 149.97828571428545,179.79801276772196 151.47177142853616,184.40676423258265 151.66925714284298,184.7641681415189 152.20000000001164,184.63249317576992 152.02719999995315,183.16524532637413 149.97828571428545,177.59701883466187 150.05234285714687,177.0138408388084 151.11382857139688,176.59997038191796 151.2496000000101,176.31778493146703 149.74377142853336,169.77084392531106 148.37371428569895,166.74178828632284 144.85599999997066,162.6401780039305 141.9677714285499,160.3070718606541 139.20297142854542,158.91470664292865 135.00640000001295,158.0115397623813 132.1922285714245,157.9362754626418 129.25462857144885,158.2185162747628 128.0450285714469,158.61365198337444 126.71199999999953,158.53838816738426 120.935542857158,159.21576033512974 120.58994285712834,159.30983941556042 120.3801142857119,159.9872060061607 119.79999999998836,159.91194329351129 119.92342857143376,158.40667634386773 124.7124571428576,158.03035582783923 124.7741714286094,156.65677311748004 125.19382857144228,156.03583185847674 125.99611428572098,156.5062422810879 125.29257142858114,157.86101110248273 125.00868571427418,160.55167442432867 127.62537142861402,161.39837067549524 125.99611428572098,164.87915265982156 126.4404571428604,166.30905805873044 126.36639999999898,167.66368515080103 128.57577142861555,168.24692134001089 130.3408000000054,169.41338282776996 131.79725714283995,167.56961445769412 130.43954285717336,166.85467410399724 130.69874285714468,165.70699528720434 131.03200000000652,165.5941080868506" stroke="#4dd2ff" stroke-linecap="round" stroke-linejoin="round" stroke-width="0.5"><title>2022-04-28 7.1km</title></polyline><polyline fill="none" points="174.42273180457414,167.6064599949823 174.53579262216226,167.72956121542302 174.7215353938227,167.58183972122788 175.71485543370363,167.6064599949823 176.96660019940464,167.15098333001515 177.65304087739787,167.6064599949823 178.1618145563698,167.63108025881593 178.69481555334642,167.92652265401557 179.45393818544107,167.92652265401557 179.72851445662673,168.2588936467946 180.98025922235684,167.47104836698418 181.62632103692158,168.66512241314194 181.44865403790027,169.99457955664548 181.88474576271256,171.1762950383163 182.47427716851234,172.14873131976856 183.87946161517175,173.46580396984064 186.64945164506207,176.99837314147953 187.62662013957743,180.01381994987605 187.8608175473637,180.28458750936989 188.20000000001164,180.16151149420693 188.1030907278473,179.5830509137195 187.1824526420969,177.50300926613636 186.6333000997256,175.57059965568988 186.67367896312498,175.07825626173144 187.48125623131637,174.73361353358268 186.27796610168298,169.71145684023577 185.58344965107972,168.38199355722827 183.7825523429783,166.20308861066587 182.34506480558775,164.9227919572004 180.85912263210048,163.9379301830013 179.55084745763452,163.27313954093916 177.4834496510739,162.76838627574034 175.35144566302188,162.6575862222562 173.1871385842678,162.829941774522 173.01754735794384,162.38674080388228 170.93399800601765,161.03249576235248 169.09272183451685,160.55234715471306 165.0225324027997,160.8478236660194 164.5622133599245,161.03249576235248 163.60927218347206,160.87244664434184 163.07627118643722,161.10636444513148 160.77467597209034,162.89149721146168 159.54715852445224,163.42087141775846 156.40568295118283,163.29776154513456 156.06650049850577,163.13771834113504 155.79999999998836,163.4947372226634 159.41794616152765,163.71633410333743 160.1528414755885,163.53167009172466 161.3157527417934,162.90380829142305 163.63349950150587,160.87244664434184 164.2311066799739,160.94631551995553 165.69282153539825,160.61390487864992 169.48035892326152,160.5154124906294 171.72542372884345,161.26641295245645 173.09022931207437,162.49754134695468 173.049850448675,162.85456395668734 172.3714855434082,163.15002937167446 172.4603190428752,163.75326683889944 172.18574277171865,164.91048128268085 171.62043868395267,165.6121857853177 170.82901296115597,167.4218077008154 171.26510468596825,168.11117342802754 171.24895314060268,169.10827799756225 172.3068793619168,169.3421643756701 173.87357926223194,170.2038433328089 174.76999002991943,168.91132035549163 176.40129611169687,167.975762914808 177.46729810570832,167.59414985933108 176.36091724826838,166.68319296253685 175.553339980077,167.02788094781135 174.43888334996882,167.06481168842947 173.9543369890307,168.33275362271525 174.16430707878317,168.6158827060608 174.82652043868438,168.9359400953872 175.82791625126265,168.27120364896837 175.62602193420753,167.8403521024993 174.48733798606554,167.80342182905952" stroke="#4dd2ff" stroke-linecap="round" stroke-linejoin="round" stroke-width="0.5"><title>2022-04-27 10.1km</title></polyline><polyline fill="none" points="18.28588908544043,204.35843790309445 19.950740535219666,204.22248552314704 23.191254964272957,203.24815534003574 23.93449221859919,203.83728622370108 25.435831472452264,204.13185051215987 26.372310412931256,204.76629406031134 27.665543235547375,204.81161132012494 28.066891352878883,205.26478291725653 30.237144135579,203.88260385660396 30.98038138996344,204.3131204612946 31.783077624684665,205.9218785005578 31.560106448363513,208.86743237263727 32.333073192916345,210.7253575803552 34.3398137796903,213.46687427454162 35.91547675890615,214.758309476063 40.984354833723046,221.32854042114195 42.91677169507602,227.40000000000146 43.764062165049836,227.21876712996163 43.71946792979725,226.53914127528697 41.80191581347026,221.64571430567594 41.147867029649206,219.06298675115977 41.05867855908582,218.11144064754626 42.57488255802309,217.27316719475493 40.7316541672335,209.16198353123764 39.00734373705927,205.49136803335568 35.75196456297999,201.57138137505535 33.07631044724258,199.19213231409958 31.470917977858335,197.99115897426236 27.011494451668113,195.81577849286987 21.03586692659883,195.0 15.848070891108364,195.40788998367498 14.807538735039998,195.81577849286987 14.956186185940169,196.94879439338547 14.421055362734478,198.96553454913374 13.499441167339683,200.07585924994783 12.845392383460421,201.95658840933902 12.235937834950164,202.7723166117721 13.187281520513352,202.79497564430494" stroke="#4dd2ff" stroke-linecap="round" stroke-linejoin="round" stroke-width="0.5"><title>2022-04-25 5.0km</title></polyline><polyline fill="none" points="66.40690345168696,208.51403482560272 67.82511255628197,208.40285586482423 68.97588794396142,207.89637138990656 69.4702351175365,208.2669701954619 70.22391195595264,208.39050263456738 70.66963481737184,208.64991994926095 71.38279139570659,208.63756676861885 71.71505752875237,208.95874865956648 73.00360180088319,208.180497340516 73.66813406703295,209.25522276300035 73.49794897445827,210.71286632466945 73.91935967982863,211.86166276323638 74.77028514255653,213.158665220064 75.96968484239187,214.22095162644837 78.72506253124448,217.7658909752754 79.851525762846,221.11301557648767 80.19999999998254,220.98950867891108 80.1756878439046,220.50782940968202 79.67323661828414,218.9269068492904 79.17078539266367,218.0376200584251 78.73316658326075,216.45663402695573 78.69264632315026,215.9625675609568 79.55977988993982,215.54260794544825 78.4738369184488,210.94756841589697 77.62291145569179,209.09463280098862 76.61800900447997,207.80989801405303 75.40240120058297,206.50042918062536 73.54657328661415,204.99327017301403 71.6988494246907,204.05436556816494 68.93536768382182,203.44901158034554 67.13626813405426,203.38724043034017 65.27233616806916,203.64667884359005 65.03731865930604,203.0783837498784 62.92216108052526,201.76881419848723 60.928564282134175,201.2869844235138 57.52486243119347,201.4970132509552 56.59289644821547,201.76881419848723 55.344872436195146,201.70704136132554 53.497148574271705,203.2019266081261 52.05462731362786,204.01730325027893 51.0659329664777,204.21496868756003 48.40780390193686,204.06671966914655 47.95397698847228,203.8814078937794 47.79999999998836,204.1902605426294 50.61210605301312,204.4744036101074 51.90065032514394,204.363217348724 53.16488244119682,203.72080390357223 55.352976488211425,201.85529606631098 55.71765882940963,201.70704136132554 56.71445722860517,201.80587787103286 58.88634317155811,201.5711409012074 61.033916958462214,201.62055928507834 62.14417208600207,201.79352331599512 63.15717858928838,202.2753491235053 63.489444722334156,201.94177781255712 61.82001000497257,201.3981762450312 59.58329164580209,201.36111232684925 56.981890945433406,201.59585009811053 56.17148574287421,201.81823242356768 57.88144072034629,201.74410507106222 58.96738369180821,201.5093678655503 59.60760380188003,201.6699776292662 61.131165582773974,201.59585009811053 62.549374687310774,202.01590492686955 62.99509754875908,202.4606657369368 62.533166583278216,203.49842845571402 62.338669334654696,205.0797475080326 63.96758379190578,205.5986089653743 63.12476238119416,207.64930427927538 63.935167583753355,207.37752931155774 65.36958479238092,207.41458960511227 66.41500750373234,207.68636440910632 66.24482241118676,208.2669701954619" stroke="#4dd2ff" stroke-linecap="round" stroke-linejoin="round" stroke-width="0.5"><title>2022-04-22 10.1km</title></polyline><polyline fill="none" points="100.63583617750555,208.17389970067234 101.92593856656458,208.15985301548426 102.01808873721166,207.89296546062906 103.38191126281163,207.5137024469659 103.98088737204671,207.9351056685373 104.83788395908778,208.0615261400526 105.42764505121158,208.41269291763456 106.11877133106464,208.35650635170168 106.45051194541156,208.74981136573115 107.98020477817045,207.87891871902684 108.7819112628058,209.1571606563375 108.6160409556469,210.77248793914987 109.08600682596443,212.07876881248376 110.09965870308224,213.52548152922463 111.35290102392901,214.6491212500514 114.53208191125304,218.7362085278619 115.75767918091151,222.38769967967528 116.20000000001164,222.38769967967528 115.9880546075292,221.10969945396573 115.1955631399469,219.36821101871828 114.54129692836432,217.1210651131878 114.52286689419998,216.65758229168932 115.33378839591751,216.29241184552302 115.48122866894118,216.05364552324681 114.4030716723646,211.4186084089124 113.82252559729386,209.83138875290751 113.29726962459972,208.86218382075822 111.2976109215233,206.43208922543272 108.55153583621723,204.11429029211286 106.4412969283585,203.06071993436126 104.20204778158222,202.55500052626667 101.59419795224676,202.37237873035338 99.18907849831157,202.6252395515803 98.87576791812899,201.9930857846848 96.5535836177587,200.5180381115715 94.31433447101153,200.01230032032618 87.7440273037646,200.5180381115715 85.55085324234096,202.35833088016443 83.82764505120576,203.15905383917925 83.79999999998836,203.56643568645086 85.46791808874696,202.75166961942887 88.20477815699996,200.40565225171304 90.75733788398793,200.5039898889445 91.85392491469975,200.22302484435568 92.79385665533482,200.40565225171304 94.83959044370567,200.36350750772908 95.91774744031136,200.7006647486669 96.59965870308224,201.19234947873701 96.08361774744117,202.45666577232987 95.91774744031136,204.38119226363415 97.75153583619976,204.929040488365 96.76552901024115,207.21871868144808 98.29522184302914,206.75517025102454 101.23481228671153,207.3591872963334 102.79215017065872,206.85349896263506" stroke="#4dd2ff" stroke-linecap="round" stroke-linejoin="round" stroke-width="0.5"><title>2022-04-21 8.1km</title></polyline><polyline fill="none" points="136.29488054607646,208.15986446339957 137.8061433447001,208.0615376669557 138.18395904434146,207.9070238504828 138.3406143344473,207.59799519357693 138.23924914674717,208.0755843606421 139.3634812286473,207.51371441390074 141.34470989761758,208.34247100444554 142.19249146757647,208.32842436437204 142.45051194538246,208.693636089778 143.9064846416004,207.79464995138187 144.7266211604001,208.9886133992186 144.57918088734732,210.82868186919586 145.1505119453941,212.16305239312715 145.8324232081941,213.23053048764632 147.47269624573528,214.80362641260945 150.61501706484705,218.83452327689156 151.80375426620594,222.44387495562478 152.19999999998254,222.33152440372214 152.06177474404103,221.64337333674484 151.08498293513549,219.28394686443062 150.50443686006474,216.81208140614763 150.60580204776488,216.55927206153137 151.4167235494824,216.23623656956988 151.10341296927072,214.31203773578454 150.25563139931182,210.927004776393 149.27883959040628,208.87624123751084 147.16860068257665,206.30567874648114 144.54232081910595,204.1423999592953 142.54266211602953,203.11692625262003 140.70887372014113,202.59715986600713 137.71399317405303,202.34429914631255 135.02320819112356,202.6112076569516 135.00477815698832,202.45668180123903 134.87576791807078,202.00715009827036 132.415358361759,200.44781461299135 130.16689419795875,199.95612504437304 125.93720136518823,200.23709093537764 124.94197952214745,200.50400748649554 124.2508532423235,200.30733223177594 123.83617747441167,200.40566992825916 121.56006825936493,202.21786844374583 119.8184300341236,203.06073547812048 119.79999999998836,203.48216518684785 121.45870307166479,202.65335101288292 124.17713310581166,200.40566992825916 125.34744027303532,200.56020031484877 127.82627986348234,200.2932839781206 130.22218430030625,200.2932839781206 131.63208191125887,200.546152112016 132.62730375424144,201.248558798663 132.05597269625287,202.44263397926989" stroke="#4dd2ff" stroke-linecap="round" stroke-linejoin="round" stroke-width="0.5"><title>2022-04-19 7.2km</title></polyline><polyline fill="none" points="160.04501831246307,203.16030606724235 160.0918393895845,202.898614012709 162.38607216771925,202.75587264851492 164.69591197156115,201.89942085169605 168.25431383156683,203.46957774998737 169.67455317039276,203.37441731816944 169.98669368441915,203.99295875870303 172.34335456538247,202.47038940409402 172.87399343925063,202.898614012709 173.8416290328023,204.6590766987356 173.51388149306877,207.5851932912483 174.3098398038419,209.55968641814252 175.46475970576284,211.3914156807441 178.1491681264597,213.9367586802764 183.61162712209625,221.00158311891573 185.62493343756068,227.281073469283 185.8590388231096,227.281073469283 186.28042851708597,227.09079077201022 186.2180004142574,225.83016018461058 184.11105194449192,220.73993046590476 183.4399498393177,217.71898981011327 185.0786875380436,216.5058344861609 183.33070065942593,208.86980701725406 181.55149972939398,204.30222826803947 178.03991894650972,200.13891715995123 173.35781123605557,196.14200085435004 171.75028758874396,195.3806681745191 170.79825902095763,195.0 170.64218876394443,196.8795372224631 171.3757189719472,197.83119026802888 174.45030303520616,200.376824592895 176.35436017077882,203.0413552050013 177.82142058672616,205.4679291627399 178.50812971760752,208.13234528471367 182.98734609398525,207.4900361648688 183.86133953323588,210.03546297495632 185.1567226665211,216.5771969079069 183.70526927622268,217.62384082181234 184.86018917820184,222.0719743194495 186.62378308246844,226.99564930881024 185.78100369457388,227.40000000000146 185.2035437436425,226.61508269191836 183.5960200963309,221.92925605136406 182.62838450283743,220.0501161567372 178.39888053765753,214.50766922874027 175.2930824230425,211.48656967385614 173.31099015893415,208.03718859783112 173.20174097904237,207.10940689522977 173.66995175008196,204.96834446927824 176.16707586229313,203.44578764916514 177.79020653531188,205.4441394631067 178.60177187179215,208.1799235995859 182.62838450283743,207.20456432729407 181.17693111259723,203.9691687630475 177.00985525018768,199.2110736065879 173.31099015893415,196.21337554228376 170.81386604666477,195.02379179670243 170.72022389242193,197.16503393877065 172.12485620559892,198.54492503590882 170.81386604666477,199.6393099956549 169.19073537364602,199.2110736065879 168.62888244836358,199.5917282510709 167.75488900911296,200.66231288194103 167.97338736895472,202.73208240440727 164.0560239178012,203.37441731816944 163.19763750419952,204.23085845290188 160.7629414947587,205.63445692569076 158.95252651331248,207.94203183447098 157.37621691747336,207.0856175252993 159.68605672131525,201.51877362137748 161.71497006254504,201.54256410912058 163.75949042948196,200.75747549200605 164.66469792014686,201.89942085169605 162.69821268174564,203.0889355642139 159.6236286184867,203.18409622530453" stroke="#4dd2ff" stroke-linecap="round" stroke-linejoin="round" stroke-width="0.5"><title>2022-04-10 10.4km</title></polyline><polyline fill="none" points="14.596269832924008,244.02100822642387 14.769729870429728,243.75659862042085 16.70932847104268,243.87678487734956 19.547765447641723,242.79510422095336 20.50968020077562,243.5162257444972 23.080042574030813,244.38156583891396 24.515030156588182,244.23734292421432 24.735797476954758,244.9103817061041 27.25885256723268,243.46815111141768 28.693840149848256,245.41515830938442 28.425765546504408,248.46780955261056 29.18268207355868,250.4147354388915 30.901513353863265,253.05865816976439 33.3457229725318,255.29392910977185 38.62836956779938,262.11965948037687 40.567968168412335,268.17596764136397 41.40373016707599,268.1999999999971 38.53375500184484,259.28366383469256 38.517985907557886,258.53860298844666 40.1895099048852,257.6973996859233 38.18683492700802,248.66009993824264 36.57838730694493,245.36708443885436 33.15649384079734,241.16054601831274 28.252305509056896,237.00193702516117 25.697712230146863,235.79999999999563 25.618866758595686,238.13174682499812 29.403449394041672,241.16054601831274 31.2799716173904,244.45367723106756 28.835761998663656,245.72763799709355 27.353467133129016,243.5643003583682 24.92502660874743,244.98249277972354 22.023513254942372,243.8527476356321 20.761985709832516,243.75659862042085 19.153538089769427,244.21330575489992 17.1666322061792,245.63149048777268" stroke="#4dd2ff" stroke-linecap="round" stroke-linejoin="round" stroke-width="0.5"><title>2022-04-09 5.2km</title></polyline><polyline fill="none" points="50.57842189370422,244.0030555428093 52.34587250847835,243.85872510921763 52.393214935669675,243.61817400013388 55.65984241128899,242.6800200596408 56.55934852780774,243.52195342132472 58.01118296140339,243.7143945017233 59.100058786571026,244.29171588832105 60.457208365842234,244.29171588832105 60.851728592358995,244.86903449277452 63.26619237870909,243.3295120317125 63.97632878640434,243.97900048266456 64.78115004854044,245.49445984140038 64.49709548539249,248.45315857868263 65.27035512943985,250.52179884474754 67.22717545297928,253.28794803642086 69.42070791241713,255.26029367287265 74.64415571157588,262.1151448819801 76.69566088955617,268.1999999999971 77.42157810635399,268.07974893948995 77.27955082478002,266.6848278169273 75.6856891096104,262.95694167619513 74.54947085719323,258.6516901318246 74.80196380219422,258.2187512482342 76.1748941905098,257.56933998961176 75.33851131028496,253.07146909883886 73.57106069545262,246.93773664641049 72.5295272974181,244.8930893742363 70.68317263730569,242.6800200596408 66.21720367309172,238.37403977962822 64.41819144017063,237.0028292109564 61.76701551792212,235.79999999999563 61.56186500011245,237.41178839141503 61.84591956320219,238.30187119363836 65.22301270224852,241.04424689854932 67.36920273455326,244.29171588832105 64.97051975724753,245.61473357263458 63.21884995151777,243.49789826455526 61.056879110168666,244.82092471532815 57.837594061682466,243.7384496150844 54.94970600359375,244.17144082888262" stroke="#4dd2ff" stroke-linecap="round" stroke-linejoin="round" stroke-width="0.5"><title>2022-04-07 5.0km</title></polyline><polyline fill="none" points="86.57260540826246,243.17970290628 86.43068344541825,243.46815111029719 86.82491111994023,243.7085240826491 88.66989663627464,243.7085240826491 91.87102535285521,242.77106676087715 92.83294087852119,243.51622574334033 94.52023532515159,243.78063588022633 95.13523049734067,244.18926857945917 96.58598833926953,244.2613800874533 96.88560137187596,244.8382705877375 99.37712027441012,243.3479644430554 100.134037409327,243.97293379480107 100.9855691861012,245.67956425068405 100.71749436750542,248.75624501367565 102.08940667461138,251.52038295530656 103.46131898165913,253.3230472297655 105.33784271212062,254.81322920280945 110.90433747530915,262.0956259002123 112.84393763361732,268.1999999999971 113.56931655463995,268.1279029095167 113.52200923371129,266.9022457297251 111.06202854507137,261.25444758989033 110.5889553357847,258.46650007842254 112.16586603358155,257.76950305629 112.2762497824151,257.0965365639786 110.49434069386916,249.6936554675267 109.3274267775123,246.2804846759609 108.01859089836944,244.42964010391734 107.13552090758458,244.93441873419943 107.6401323308819,244.09311983453517 105.14861342834774,240.92016792865616 100.63864883262431,237.14616865690186 97.86328600445995,235.79999999999563 97.70559493469773,237.43463139962114 98.00520796730416,238.3240538135724 101.34825864661252,240.89613009328605 103.66631737240823,243.99697101239144 102.18402131646872,245.17478876240784 101.01710740011185,245.63149048635387 99.62942598602967,243.58833765674353 99.04596902785124,243.68448680709116 98.57289581850637,243.15566552461678 97.81597868358949,240.60767569175368 99.28250563249458,239.23750779247348 101.37979686062317,240.9922814059537 103.65054826543201,244.09311983453517 101.30095132568385,245.55937980372983 101.03287650708808,245.60745359690918 99.42442759533878,243.44411378647055 97.07483065559063,244.8382705877375 96.52291191136464,244.3815658375679 95.087923176412,244.23734292290465 91.69756517611677,242.96336629717553 89.97873251547571,243.80467313648114 87.70798111066688,243.9488965724231" stroke="#4dd2ff" stroke-linecap="round" stroke-linejoin="round" stroke-width="0.5"><title>2022-04-03 6.2km</title></polyline><polyline fill="none" points="149.9180327868089,257.248112547808 150.606557377032,254.39921011157276 150.39016393444035,253.22964495429187 152.19999999995343,252.3299732154992 152.19999999995343,251.4602853825636 146.77049180329777,247.98148339973704 143.6819672131096,247.1417604341259 137.05245901632588,247.23173097778636 131.07213114754995,248.16142342088278 128.4557377048768,247.9514933751634 123.77377049176721,251.73018904510536 119.97704918024829,253.61950102448463 119.79999999998836,254.42919884127332 123.10491803276818,253.01972203339392 128.5540983605897,248.22140337976452 129.65573770483024,247.86152326516458 134.39672131143743,247.92150334449252 137.22950819670223,247.29171131001203 144.01639344258,247.8915133077826 147.39999999996508,249.33102827308176 148.12786885240348,248.82120164323715 147.4786885245121,248.16142342088278 142.12786885240348,247.05178983643418 132.86229508195538,247.7115729614743 131.05245901632588,248.25139335010317 128.6524590163608,247.9514933751634 122.71147540980019,252.5998753063177 119.79999999998836,253.76944539591204 120.07540983601939,254.42919884127332 123.63606557372259,252.6598534823861 128.43606557376916,248.37135317148932 129.89180327864597,247.83153321652208 130.77704918029485,247.98148339973704 133.98360655736178,247.2017408025713 142.85573770484189,246.75188745217747 148.14754098362755,248.3113732727652" stroke="#4dd2ff" stroke-linecap="round" stroke-linejoin="round" stroke-width="0.5"><title>2022-03-24 5.1km</title></polyline><polyline fill="none" points="175.0297297379002,267.43606837131665 174.13512450034614,267.23598997467343 172.85882102808682,268.1999999999971 172.28627367605804,267.90897918734845 172.0,267.181423062495 171.63022983513656,263.88915850172634 171.20081932109315,262.8705330578523 170.68791231827345,262.5067354786079 167.71782292949501,262.4339757873531 166.20295806054492,260.97876968008495 180.86255588685162,241.38577963197167 173.83692275447538,235.8000000000029 163.13744411317748,257.6317068519711 169.7336667315103,264.3620878472866 170.1392211058701,264.03467548662593" stroke="#4dd2ff" stroke-linecap="round" stroke-linejoin="round" stroke-width="0.5"><title>2021-10-26 5.0km</title></polyline></svg>