<?xml version="1.0" encoding="utf-8" ?>
<svg baseProfile="full" height="300mm" version="1.1" viewBox="0,0,200,300" width="200mm" xmlns="http://www.w3.org/2000/svg" xmlns:ev="http://www.w3.org/2001/xml-events" xmlns:xlink="http://www.w3.org/1999/xlink"><defs /><rect fill="#222222" height="300" width="200" x="0" y="0" /><text fill="#FFFFFF" style="font-size:12px; font-family:Arial; font-weight:bold;" x="10" y="20">Over 5km Runs</text><text fill="#FFFFFF" style="font-size:4px; font-family:Arial" x="10" y="280">ATHLETE</text><text fill="#FFFFFF" style="font-size:9px; font-family:Arial" x="10" y="290">Wenz</text><text fill="#FFFFFF" style="font-size:4px; font-family:Arial" x="120" y="280">STATISTICS</text><text fill="#FFFFFF" style="font-size:3px; font-family:Arial" x="120" y="285">Number: 39</text><text fill="#FFFFFF" style="font-size:3px; font-family:Arial" x="120" y="290">Weekly: 2.8</text><text fill="#FFFFFF" style="font-size:3px; font-family:Arial" x="141" y="285">Total: 296.5 km</text><text fill="#FFFFFF" style="font-size:3px; font-family:Arial" x="141" y="290">Avg: 7.6 km</text><text fill="#FFFFFF" style="font-size:3px; font-family:Arial" x="167" y="285">Min: 5.0 km</text><text fill="#FFFFFF" style="font-size:3px; font-family:Arial" x="167" y="290">Max: 21.4 km</text><polyline fill="none" points="38.3113537117606,49.79893777090183 38.09912663756404,49.583268949674675 38.488209606992314,48.52288968661742 37.58034934499301,48.18140894467797 35.44628820961225,48.18140894467797 33.78384279477177,48.79247882578056 33.500873362412676,48.52288968661742 34.679912663734285,45.88087315103621 35.210480349342106,45.39559632996679 35.68209606988239,43.652172711197636 35.52882096069516,43.130936375157034 36.6724890829646,42.51982783963467 36.589956331881694,41.99858490897168 33.5716157204879,39.96750590867305 31.920960698655108,39.41029918789718 30.282096069859108,39.266503341954376 25.719213973759906,39.57206923842023 24.127510916994652,39.913582829256484 22.712663755432004,39.733838996522536 19.246288209600607,42.37603698949533 16.982532751047984,43.45446273417474 12.407860261999303,43.31067338567664 11.771179039293202,42.987146506871795 11.5,43.2208049255205 11.547161572030745,43.50838368033874 12.089519650646253,43.670146323791414 15.850655021815328,43.84988225153211 17.7017467248952,43.652172711197636 19.493886462878436,42.66361845866777 22.97205240171752,39.805736572961905 25.058951965067536,40.03940329744364 30.741921397391707,39.75181339603296 32.88777292575105,40.23712081856502 33.80742358075804,40.79432239174639 34.52663755454705,40.20117221080727 35.858951965055894,41.495312992090476 36.51921397380647,41.81884526354406 36.707860262016766,42.555775516011636 35.63493449779344,42.96917275711894 35.7646288209653,43.84988225153211 35.32838427947718,45.575328792707296 34.738864628830925,46.07857776826859 33.6659388646367,48.52288968661742 33.713100436667446,48.66667066189257 35.929694323131116,48.055599921921385 38.5,48.46897176136554 38.37030567685724,49.61921378927218 37.768995633145096,50.73349665803835" stroke="#4dd2ff" stroke-linecap="round" stroke-linejoin="round" stroke-width="0.5"><title>2022-06-20 5.3km</title></polyline><polyline fill="none" points="64.66916167664749,42.73133937710372 65.41017964071943,42.71080205171893 66.65643712574092,42.289785063938325 68.06437125749653,42.926443556814775 68.6976047904318,42.926443556814775 68.79191616766911,43.131815573447966 69.16916167666204,43.01886106636084 69.84281437128084,42.525965752200136 70.1594311377412,42.74160803668565 70.55014970060438,43.47067759782658 70.39520958084904,44.69261594816635 70.75224550899293,45.55514308815327 71.3315868263453,46.51006688257257 72.55763473054685,47.68059430743597 74.76721556887787,50.5143918719441 75.6631736526906,53.21456738188135 75.97979041915096,53.1632345759499 75.88547904191364,52.67043701768125 75.67664670658996,51.8696308587314 74.94910179641738,50.25771377675483 74.7065868263453,49.02564098838775 75.4139221556834,48.55333854999844 74.63922155689215,45.20602671243614 74.14745508981287,43.93275855806496 73.74326347305032,43.20369558442326 72.26796407185611,41.42720284913594 70.71856287424453,40.092225500251516 69.66092814369767,39.42472375696161 68.54940119759704,38.95233264291892 66.595808383252,38.56209321382266 65.16766467064735,38.47993716503697 63.51047904191364,38.675057565327734 63.2881736526906,38.212929095021536 61.62425149702176,37.16542243376898 60.10179640719434,36.764899510169926 55.258233532949816,37.13461308949263 53.64146706587053,38.4183200418629 52.09206586825894,39.17825937233283 49.50523952097865,39.07556552816095 49.13473053892085,38.90098551975461 49.0,39.13718185940161 49.35029940120876,39.29122236273179 50.65044910181314,39.38364644203466 52.5097305389354,39.31176106148632 54.40943113772664,38.120502899804706 55.392964071870665,37.17569221109079 56.21482035929512,37.26812011401125 58.14820359283476,37.03191514114587 60.03443113772664,37.0524547473251 61.26047904191364,37.31946887679442 61.75898203594261,37.62756037060899 62.277694610791514,37.39135705805165 63.37574850299279,38.233468226830155 63.38248502992792,38.664788089150534 62.80988023952523,38.88044665605412 62.93787425151095,39.15772061999087 63.53068862276268,39.568494099421514 64.22455089821597,39.80468735601244 66.97979041918006,39.537686202926125 67.42440119759704,39.75334108867173 68.10479041918006,40.46191502445072 70.36152694612974,39.784148855243984 71.57410179640283,40.64675878432536 72.7597305389354,41.80715156997394 73.87125748503604,43.244769831060694 74.24850299402897,43.96356380695215 74.41691616766911,44.548860010552744 73.51422155689215,44.88771264573006 72.59131736526615,45.02119943102298 72.2073353293381,43.8403427000012 71.58083832336706,42.99832385646732 70.59730538922304,43.52202013291753 70.41541916168353,44.743957256501744 71.25074850300734,46.386851910974656 72.60479041916551,47.70112963717111 74.79416167666204,50.52465896897047 75.696856287439,53.23510048983371 76.0,53.14270143914109 75.97305389221583,52.85523665841174 75.12425149699266,50.76080163145889 74.69985029941017,48.9845713843024 75.4139221556834,48.54307105726184 74.24850299402897,43.984100629226305 73.91167664671957,43.31664968327459 72.07934131738148,41.09859627355763 70.3413173652807,39.77387960178385 68.85254491018713,39.02421852872067 67.30314371257555,38.675057565327734 65.55164670657541,38.52101520591532 63.53742514969781,38.71613544947104 63.3555389221583,38.2745464657055 62.91766467067646,38.03834614160587 62.27095808382728,37.411896519817674 61.03143712574092,36.93948681129041 60.020958083856385,36.8059789287945 55.177395209582755,37.12434330394899 53.57410179641738,38.469667649671464 52.166167664690875,39.17825937233283 49.46482035929512,39.08583492185426 49.12125748505059,38.90098551975461 49.04041916168353,39.239875579853106 51.31062874253257,39.43499308052196 52.36152694610064,39.352838434151636 53.59431137725187,38.74694384090981 55.271706586834625,37.257850355279515 55.56811377246049,37.18596198633895 55.87799401198572,37.237310831580544 55.87799401198572,37.442705697041674 54.95508982035972,38.29508557276131 56.78742514969781,38.048615743588016 56.9423652694677,38.685327039471304 58.747754491021624,38.76748275826321 60.903443113784306,38.58263220536537 60.991017964086495,37.68917844663156 61.26047904191364,37.504323995803134 61.63772455090657,37.69944811873938 61.63098802395689,37.89457149709415 61.19985029941017,39.044757334708265 61.065119760489324,39.856033571777516 61.172904191640555,40.04087952167174 62.54715568861866,40.37976202780919 62.87050898204325,39.280953010267694 63.369011976057664,39.5274168999822 64.64895209582755,39.79441810668868 66.96631736526615,39.5274168999822 68.14520958083449,40.47218413972951 69.02769461077696,40.092225500251516 70.83308383233089,41.70446300488402 72.26796407185611,43.79926893172524 72.48353293414402,44.83637148169146 72.74625748503604,44.98012661113171 74.30913173651788,44.579664888333355 74.39670658682007,44.41537199236336 74.19461077844608,43.93275855806496 73.79041916166898,43.20369558442326 72.63173652694968,41.72500073439733 70.42215568861866,39.82522584848266 68.42140718564042,38.921524375215085 66.40044910179859,38.55182371493356 65.49775449102162,38.531284710988984 63.44311377246049,38.69559651153031 62.87050898204325,38.88044665605412 63.160179640733986,39.38364644203466 64.15044910178403,39.77387960178385" stroke="#ff0000" stroke-linecap="round" stroke-linejoin="round" stroke-width="0.5"><title>2022-06-17 21.4km</title></polyline><polyline fill="none" points="113.42900964064756,48.94106604759145 113.19237510953099,48.76071204438631 113.5,47.58840219647391 111.96187554774224,47.227688395745645 110.50657318139565,47.245724120220984 108.66082383872708,47.768758553575026 108.6963190184033,47.04733095217671 110.5184049079835,43.872980664767965 110.79053461877629,42.84489998657955 110.54206836107187,42.14146958414494 111.7370727432135,41.61840238019067 111.85539000874269,41.3117753615079 110.05696757227997,39.85077342540899 107.38299737073248,38.57012255225709 105.06397896580165,38.31759768953634 99.90534618753009,38.732459589147766 99.19544259420945,38.984983285445196 97.89395267306827,38.82264670502627 97.01840490795439,39.11124486733752 94.3444347064069,41.41999678175489 91.8834355828294,42.59238714262028 87.25723049955559,42.37594699709007 86.57099035932333,42.14146958414494 86.5,42.682570382654376 91.95442594218184,42.899009789325646 93.13759859770653,42.53827715515217 94.59290096405311,41.6905497618136 97.88212094653863,38.87675893109554 100.95836985102505,39.02105804125313 102.86327782648732,38.840684117334604 102.99342681857524,39.88684783344797 102.59114811569452,43.205631389260816 103.28921998242731,43.34992354462156 102.72129710778245,43.74672577673482 102.7686240139883,44.82890477248293 105.06397896580165,44.93712195489206 108.9684487291961,45.87499874103378 109.0631025416078,46.235717974203 108.49517966696294,47.93107896534639 109.05127081507817,49.44605532987771 108.9684487291961,50.852796217339346 111.76073619630188,51.68240231046366 112.97940403156099,49.157490373305336" stroke="#4dd2ff" stroke-linecap="round" stroke-linejoin="round" stroke-width="0.5"><title>2022-06-16 5.2km</title></polyline><polyline fill="none" points="150.74285714287544,50.184987654487486 150.71948051950312,48.93780388160667 149.64415584417293,48.652730843561585 148.17142857142608,48.63491374826117 145.96233766237856,49.02688901817601 147.06103896105196,46.4433837438919 147.5636363636586,45.87322072328243 148.0311688311922,44.48343301101704 147.92597402600222,43.46780514673446 149.07142857144936,42.95107773618656 148.9662337662885,42.41652897230961 147.47012987014023,41.31178465465928 145.28441558446502,40.1713889951352 143.49610389611917,39.81501234550524 137.24285714287544,40.18920779001928 136.60000000003492,40.47430802181043 135.1740259740327,40.26048293385975 132.13506493507884,42.630348864302505 129.47012987014023,43.96671151526971 124.84155844157794,43.80634905989427 124.40909090911737,43.46780514673446 124.0,43.948893478969694 127.01558441558154,44.305253524806176 130.08961038963753,44.19834566133068 132.59090909094084,42.755076896697574 135.41948051951476,40.31393925414886 142.80649350650492,40.22484536910633 144.43116883118637,40.45648928418814 145.43636363637052,40.812863357212336 145.99740259742248,41.472151618749194 145.29610389613663,43.14707814272697 145.00389610390994,45.285236270974565 147.18961038961424,46.15830269154685 146.0324675324955,49.00907199802168 148.15974025975447,48.51019398110657 150.49740259745158,48.72399918895826 151.0,48.93780388160667 150.75454545454704,49.864284930037684 150.95324675325537,50.13153728092584" stroke="#4dd2ff" stroke-linecap="round" stroke-linejoin="round" stroke-width="0.5"><title>2022-06-15 5.0km</title></polyline><polyline fill="none" points="188.3236830648384,50.22329433849518 188.17087505437667,49.91869414057874 188.39420983890886,49.1123944801584 187.18350021765218,48.73611881193938 185.93752720940392,48.6286111867812 183.83347845013486,49.23781935029547 183.4925990422489,49.13031232957292 184.58576404003543,46.460513100013486 185.114714845462,45.90504147672618 185.63191118850955,44.20276819210267 185.42033086629817,43.59352565166046 186.54875925116357,43.109712435572874 186.6075315629132,42.5542199523843 183.64540705265244,40.52933097699861 181.89399216367747,39.95590274099959 180.11906835000264,39.77670566150482 174.1478014801687,40.45765264902002 172.3376142794732,40.40389386527386 169.25794514582958,42.87676439592178 166.71898127993336,44.02357964145631 162.24053112755064,43.79063398764265 161.61754462341196,43.539768757196725 161.5,44.005660766604706 162.01719634304754,44.220687027402164 166.9188071397657,44.34611877358111 169.36373530692072,43.30682184032776 172.81954723552917,40.368054658101755 175.91097083152272,40.47557223644253 177.76817588155973,40.11717980486719 182.05855463646003,40.493491820205236 183.05768393559265,40.887721753104415 183.55137135391124,41.6044989867878 182.9401393121516,42.894683497506776 182.5875054418866,45.349566395518195 184.91488898562966,46.08422624912782 183.6218981279817,48.98696943373943 185.93752720940392,48.539021400189085 187.60666086198762,48.75403673691471 188.48824553762097,49.00488730827783 188.5,50.1516237972246" stroke="#4dd2ff" stroke-linecap="round" stroke-linejoin="round" stroke-width="0.5"><title>2022-06-14 5.0km</title></polyline><polyline fill="none" points="27.020958083841833,72.80321488481059 27.883233532935265,72.75187158683912 29.149700598805794,72.3513920935402 30.60479041915096,72.93670721830858 31.163922155683395,72.90590132613215 31.39296407184156,73.22422798385742 32.45733532932354,72.58757268690533 33.05014970060438,73.51174713294677 32.91541916168353,74.66180756498943 33.05014970060438,75.23682808276499 33.87200598801428,76.5716722174111 34.91616766466177,77.51631009168705 37.22679640719434,80.4835916702541 38.11601796407194,83.21457067636584 38.5,83.21457067636584 37.22005988023011,79.35419682884822 37.2402694610646,79.00510610497076 37.866766467064735,78.75868768883447 37.940868263467564,78.58414059238203 36.842814371266286,74.22026956482296 36.20958083833102,73.20369083992409 34.86901197604311,71.58123040694772 33.74401197602856,70.53379189926636 32.268712574848905,69.54794782296085 31.211077844302054,69.05501865778206 29.41242514968326,68.65451021236004 27.566616766474908,68.57235424610917 26.02395209579845,68.7366660466505 25.8218562874099,68.28480732477692 24.151197604776826,67.24757106576362 22.54116766466177,66.83677861234173 19.17964071854658,67.042175251554 18.714820359280566,67.20649196888917 17.967065868273494,67.08325448038158 16.101047904187,68.51073718479165 14.632485029942472,69.21932890745302 11.971556886230246,69.12690445697444 11.594311377237318,68.96259391033527 11.51347305389936,69.23986765154405 12.173652694604243,69.35283059660651 12.234281437136815,69.55821713006299 12.288173652690602,69.30148383431515 13.204341317366925,69.4657932920818 14.625748503007344,69.45552396642597 15.999999999985448,68.83936065388843 17.899700598805794,67.27838036670073 22.022455089812865,67.10379408242443 23.551646706589963,67.2989198903997 24.339820359280566,67.68916927262399 24.77769461076241,67.4221568591638 25.363772455079015,68.02806763579065 25.902694610776962,68.31561600082568 25.916167664676323,68.70585762427072 25.35029940120876,68.95232448364914 25.444610778446076,69.1782513945218 26.421407185625867,69.74306430491197 27.223053892230382,69.87656462677478 29.43937125748198,69.58902503893114 29.863772455079015,69.75333357280033 30.61152694611519,70.49271544221847 31.58832335329498,70.20517931885479 33.205089820345165,71.57096150609505 34.11452095808636,72.87509541537656 34.08083832333796,73.02912478352664 33.023203592791106,73.62470064211811 32.85479041915096,74.53858804142874 32.95583832333796,74.99039150965473 34.0336826347193,76.77702976125147 34.94985029939562,77.56764860666226 37.2402694610646,80.50412589108237 38.11601796407194,83.04003878584263 38.4326347305323,82.91683944576653 38.4326347305323,82.6807065477442 37.46257485028764,80.40145470454081 37.17964071854658,79.14884963277291 37.22679640719434,78.99483869468168 37.89371257483435,78.72788530332036 37.89371257483435,78.34798769020563 37.092065868273494,75.13414632162676 36.694610778431525,74.07651218401952 36.27694610776962,73.27557080760016 34.76122754489188,71.45800346072065 33.53517964070488,70.37975501513574 32.1676646706328,69.47606261564215 31.345808383222902,69.06528806384085 29.38547904189909,68.6442407238028 27.869760479035904,68.55181523392457 26.03742514969781,68.72639657459149 25.848802395208622,68.30534644418367 24.090568862273358,67.18595240811919 23.154191616747994,66.87785800615893 22.069610778431525,66.78542932363052 18.728293413165375,67.18595240811919 17.839071856287774,67.08325448038158 16.03368263473385,68.51073718479165 14.605538922158303,69.20905953232068 11.964820359280566,69.11663506328114 11.641467065855977,68.96259391033527 11.5,69.23986765154405 12.052395209582755,69.3733692870519 14.612275449093431,69.41444664324445 14.652694610776962,69.12690445697444 16.03368263473385,68.47992862630053 17.16541916166898,67.51458439083581" stroke="#4dd2ff" stroke-linecap="round" stroke-linejoin="round" stroke-width="0.5"><title>2022-06-11 15.5km</title></polyline><polyline fill="none" points="64.40155116337701,72.75597611462581 65.38103577683796,72.7250853309888 66.6915186389815,72.3338004611287 68.16412309232692,72.9722110789553 68.65048786588886,72.9619141965486 68.91393545159372,73.19874196840465 69.70427820866462,72.64270981704249 69.98123592694174,72.60152201042729 70.54866149611189,73.42527185719155 70.42031523642072,74.753540614558 70.77833375030605,75.62873765984114 71.44708531399374,76.63776983395292 72.64948711534089,77.7600374012145 74.82461846384103,80.59133726657456 75.66224668500945,83.18570027383248 76.0,83.20628993153878 75.93920440328657,82.67095614485152 75.19614711031318,80.88990159653986 74.75031273455534,79.34558458257743 74.75031273455534,79.02641993465659 75.42581936453644,78.73814048093845 75.46634976231144,78.55281711924545 74.43282461847411,74.39316101925942 73.98699024267262,73.44586543380501 72.51438578934176,71.54092459674575 70.44733550163801,69.87275612564918 68.75856892669981,69.02835386705192 67.31973980483599,68.67823177939135 65.19189392043336,68.51346761679815 63.543657743313815,68.7297204716233 63.401801351006725,68.33840511398739 61.652239179384196,67.18503721435263 60.01751313485147,66.79371006846122 56.626469852388254,67.04086440280662 56.3224918689084,67.1747391698409 55.410557918425184,67.07175861082942 53.492119089336484,68.54436093762342 52.49912434325961,69.06954454373772 51.57368026020413,69.24460455046574 49.439079309493536,69.10043752952333 49.08106079560821,68.90478163851003 49.0,69.19311637523424 50.70903177384753,69.41966395960844 52.55316487365053,69.31668790893673 53.55291468600626,68.77091138818287 55.086314736050554,67.3806996673884 55.478108581432025,67.1747391698409 56.295471603720216,67.27771952200783 59.4771078308695,67.07175861082942 60.855141356019885,67.21593133553324 61.22667000249203,67.3292096205405 61.67250437827897,67.76172440698065 61.29422066549887,68.58555200308547 61.111833875402226,69.65650809122599 61.192894671010436,70.05811085787718 62.53039779835672,70.36703392273557 62.89517137853545,69.29609267401975 63.75306479859864,69.6359129927987 64.82712034024007,69.81097106600646 67.14410808106186,69.58442521044708 68.150612959711,70.47000786411081 69.14360770577332,70.19197774779605 70.7107830872992,71.56151893012793 71.61596197147446,72.82805453738183 71.67000250187994,72.92072664634179 71.10933199900319,73.37378787940906 70.5959469602094,73.57972348033582 69.96772579432582,72.59122505359846 68.89367025268439,73.22963246670042 67.70477858395316,72.7662730383563 66.81986489865812,72.7662730383563 66.23217413057864,72.98250795929198 64.98248686514853,73.85773522977979 64.00300225168758,73.2914134074963 64.25293970477651,72.7044914649232 64.42857142857974,72.73538226094752" stroke="#4dd2ff" stroke-linecap="round" stroke-linejoin="round" stroke-width="0.5"><title>2022-06-10 10.5km</title></polyline><polyline fill="none" points="113.5,80.24752671007445 113.09019947960041,79.96196342596522 113.33607979185763,79.08742016135511 113.09019947960041,78.85539703463292 110.81873373803683,78.64122130317264 108.4653078924166,79.10526806911366 109.05073720726068,77.24906646905583 110.24501300955308,75.5356152008826 110.54943625326268,74.19695841388602 110.36209887251607,73.4829998834175 111.53295750217512,73.05462201230694 111.49783174326876,72.69763887588488 111.39245446660789,72.35850356823357 109.78837814394501,71.2161435375092 106.7207285342447,69.93097095213307 105.10494362533791,69.75247328993282 99.63703382477979,70.23441615512274 99.00477016475634,70.53786032211792 97.7168256721634,70.32366454706062 97.09627059844206,70.55570994670416 94.33304423242225,72.82258313673083 92.70555073721334,73.7150370348827 90.59800520379213,74.03631824452168 89.63790112751303,73.73288602146204 87.33130962704308,73.8042819318216 86.69904596704873,73.46515084665589 86.5,73.982771456911 91.94449262789567,74.28620282688644 91.97961838680203,73.76858398378681 94.50867302689585,72.50129753968213 96.67476149174036,70.55570994670416 97.89245446660789,70.09161854157719 98.45446660881862,70.16301737703179 98.45446660881862,71.05549798056018 97.01431049435632,72.2514079390603 97.01431049435632,72.50129753968213 99.882914137037,72.05506561710354 100.26929748483235,73.1617166736687 102.458803122252,73.10816935914772 102.49392888115835,74.60748197192879 103.20815264523844,74.73242354802642 102.65784908930073,75.10724722260784 102.73980919341557,76.3031026655517 104.57805724194623,76.3031026655517 107.58716392019414,76.89210017876758 108.85169124021195,77.37400433201401 108.51214223765419,79.06957225005317 110.51431049435632,78.4091970117006 113.17215958365705,78.81970111527335 113.42974848221638,79.05172433517873 113.40633130961214,80.15828828232043" stroke="#4dd2ff" stroke-linecap="round" stroke-linejoin="round" stroke-width="0.5"><title>2022-06-09 5.2km</title></polyline><polyline fill="none" points="136.3505121638882,72.0761975475616 137.448143405898,72.04984874804359 138.9779129321396,71.56239404837834 140.8533930857957,72.37920798149935 141.66581306018634,72.36603364388793 141.7781690141128,72.61634560579114 143.16101152368356,71.83905797098123 143.48079385401797,72.1157207270262 144.01664532651193,73.05109569108026 143.79193341868813,74.39485046973277 144.00800256084767,75.19845537348374 145.01056338028866,76.924196575932 146.47983354673488,78.30739148796056 149.40973111396306,82.02211351729056 150.6024327784835,85.55222184174272 151.0,85.46001993511891 150.83578745197156,84.7355718752151 149.61715749040013,81.77183743438945 149.33194622278097,80.28333364097853 149.43565941101406,80.05939651993685 150.2740076824557,79.63786574820551 148.96895006403793,74.31580683278298 148.20838668374927,72.74808836009834 145.74519846352632,69.98143496717239 143.78329065302387,68.41361292361762 141.7003841229307,67.34641850557455 139.7730473751435,66.85892885973954 137.48271446861327,66.66129689028458 134.98495518567506,66.91163061767656 134.6997439180559,66.30555784511671 133.61075544176856,65.60724966538692 132.4526248399634,64.9221098879716 131.3031370038516,64.57953731607267 130.0499359795358,64.44777815825728 125.30505761844688,64.9221098879716 125.26184379000915,65.43596539180726 125.88412291934947,65.33055946271998 125.08898847628734,65.50184401147999 124.0,66.39778667168503 126.38540332906996,66.21332888886172 126.6014724712004,66.9379814807944 128.2003841229307,67.00385859223752 128.19174135726644,68.04470817440597 128.69302176698693,68.12375936669196 128.28681177977705,68.33456208054122 128.3473111395724,69.26999095188876 131.45870678615756,69.53348963483222 132.95390524968388,70.06048382600784 132.55633802816737,71.43064891326867 132.93661971829715,72.52412552040187 132.85883482717327,73.55171343297116 134.29353393084602,73.89423916082524 135.676376440475,74.6978501958547 136.64436619717162,73.44632054155954 138.65813060180517,72.19476701448366 139.4273367477581,71.99715111725891 138.35563380279928,70.98271347516857 137.51728553138673,71.36477624651525 136.3245838668372,71.40429985452647 136.20358514724649,72.04984874804359" stroke="#4dd2ff" stroke-linecap="round" stroke-linejoin="round" stroke-width="0.5"><title>2022-06-07 8.0km</title></polyline><polyline fill="none" points="187.1455309396697,69.98598847537869 186.2104660046025,71.66283448982358 184.59472880062822,71.15978634186467 184.20970206265338,71.67331460802961 182.8896103896259,72.7632354115267 182.16080977846286,73.16147002818616 181.84453781515185,73.55970160658762 180.93009931246343,75.2993091932185 180.60007639421383,76.65113288949942 180.04316271966673,77.7828653402903 179.47249809016648,80.31869526758601 179.1631016042811,80.61208912672737 177.98051948053762,81.68086709793351 177.04545454545587,82.24668187136558 172.93391902216536,83.2106484725191 170.75439266616013,81.06265505699048 169.59931245225016,80.43395733750003 167.7910618793103,80.04625663621118 167.66042780748103,79.79477356065036 167.8391902215517,78.94600923612597 167.74980901452363,78.53734000979603 166.82849503438047,78.07627345197398 165.03399541635008,76.26340409205659 161.90565317035362,76.14813281311581 161.5,75.88615168702381 161.5,75.3936236103691 163.90641711228818,73.60162054337343 163.8926661573787,73.39202552280767 163.7139037433226,73.3605861971555 163.06760886173288,73.89505215823738 162.88884644766222,73.82169440915095 162.9576012223115,73.6330597238557 166.82161955692573,70.59385138021025 166.87662337662186,69.27331260612118 167.069136745602,69.2104289740164 168.7330022918468,69.60869069794717 170.93315508021624,69.30475439378642 173.50458365165105,67.91081694750756 176.06913674561656,67.1876317256465 177.23796791445056,66.96752988654771 177.58174178763875,67.15618866261866 180.352559205523,66.78935152747727 180.88197097022203,66.88368132277174 181.01948051949148,67.72216089914582 183.79717341483047,67.99466386124186 184.6084797555668,68.2986077943533 184.28533231477195,69.40956021582315 184.6084797555668,70.28992081268007 184.59472880062822,71.13882589712375 185.79793735676503,71.47419200247896 186.8567608861922,72.0610775019959 187.3792971734365,71.28554883336983 188.5,70.4366461351965 188.321237585973,70.0069493830415 187.60618792974856,69.96502755929032" stroke="#4dd2ff" stroke-linecap="round" stroke-linejoin="round" stroke-width="0.5"><title>2022-06-05 8.1km</title></polyline><polyline fill="none" points="16.884202827874105,100.38558569579618 17.002681618731003,100.60631914320402 17.13432471966371,100.30531886676181 18.556070209655445,100.38558569579618 21.175767918117344,99.48258015227475 22.347391516319476,100.20498523984133 25.098732325655874,100.7668522532258 25.44100438809255,101.22838350827806 27.65260848365142,100.02438445750886 28.245002437848598,100.62638579602935 28.82423208191176,101.91064319833094 28.534617259865627,104.29851543538825 29.232325694785686,105.98403795851482 30.81204290589085,108.25142222626164 32.47074597759638,109.65597074927064 34.97196489517228,112.72584380240005 37.11774744026479,115.71536811264377 37.973427596269175,117.80196296622307 38.5,117.54114099172875 37.433690882491646,114.83256486865139 37.05192588979844,112.74590802202147 37.20989761091187,112.38475145293341 38.355192588991486,111.92327171543002 38.368356899067294,111.52198325515201 36.82813261821866,104.80016201465332 35.43271574843675,101.50931453298108 32.918332520726835,98.43909691765293 28.534617259865627,94.76675196500582 25.467333008302376,93.14124471880496 20.662359824491432,92.1980370337842 16.239151633373694,92.31844702121452 14.633105802029604,92.4990617302974 13.73793271573959,92.94056297822681 13.869575816672295,93.78342358050577 13.395660653332015,95.79020592570305 13.027059970743721,95.89054398510052 11.5,99.14144260122703 13.803754266176838,98.57956644924707 16.410287664592033,98.88057192351698 17.002681618731003,99.10130869513523 16.818381277436856,100.10465151218523 17.292296440777136,100.36551899460028 16.96318868844537,100.52605249150656" stroke="#4dd2ff" stroke-linecap="round" stroke-linejoin="round" stroke-width="0.5"><title>2022-06-04 5.1km</title></polyline><polyline fill="none" points="75.78897090748069,110.15606908709015 75.87103777678567,109.03019182950811 75.00347372988472,108.77999494919641 73.32696482850588,108.61915372621297 71.04081632650923,109.1552900059396 71.6270082500996,107.45751404031034 72.65870603561052,105.97416747660463 73.1511072514113,104.25845868801116 72.97524967434583,103.59718709497247 74.00694745982764,103.15037918301095 74.03039513679687,102.50697184886667 70.93530178029323,100.50523039462132 69.42292661743704,100.02266098713153 67.91055145463906,99.84393091290985 62.29483282673755,100.23713660243811 61.66174554929603,100.46948460237036 60.2079895788047,100.32650128956448 56.52670429873979,103.13250681984937 54.41641337383771,104.06186494381836 50.58271819364745,103.90101519382006 49.1993052540347,103.52569797978504 49.0,104.02612058007799 49.703430308261886,104.22271440314944 54.52192792008282,104.36569145633985 56.80807642205036,103.38271957715187 60.266608771140454,100.43373879570572 62.37689969604253,100.57672193620965 67.5471124620235,100.29075542547798 69.65740338686737,100.61246768539422 71.07598784193397,101.55972480835771 70.58358662613318,102.32824676384189 70.10290924881701,105.36652439666796 72.2249240121746,106.11714171602944 71.12288319584331,109.01232064711803 73.19800260526245,108.42256961441308 74.65175857575377,108.58341119267425 76.0,109.03019182950811 75.84759009987465,110.0667142695238" stroke="#4dd2ff" stroke-linecap="round" stroke-linejoin="round" stroke-width="0.5"><title>2022-06-03 5.0km</title></polyline><polyline fill="none" points="113.31233709814842,110.17618970167678 113.10121633362724,109.94376606724836 113.35925282366225,109.19285479421524 112.0338835795119,108.67436474309216 110.57949609035859,108.56709056247928 108.76151172895334,109.19285479421524 108.45655951346271,109.06770229969698 108.64422241531429,108.1379925474539 110.35664639441529,105.3666847280474 110.6146828844503,104.24025753958995 110.43874891396263,103.54293832890107 111.49435273674317,103.11381610007084 111.44743701128755,102.59529064747767 108.33927019982366,100.50327797952195 106.55647263251012,99.94897578709788 105.37185056469752,99.82381029831595 100.21112076455029,100.21718695630989 98.75673327539698,100.57480059169029 97.64248479585513,100.34235189207538 93.93614248483209,103.16745649181394 91.89530842748354,104.0435783152061 87.36794092092896,103.86477864324843 86.7463075586711,103.5071782221712 86.5,103.98993845129735 87.14509122504387,104.2223776280589 90.71068635967094,104.41905645752558 92.71633362292778,104.18661779421382 94.6985230234568,102.9886550604133 97.79496090358589,100.41387463352294 99.16724587316276,100.62844251309434 102.59209383148118,100.23506767221261 107.2367506516166,100.57480059169029 108.46828844482661,101.2721430492893 108.52693310167524,101.62975244732661 107.88184187663137,102.97077489754156 107.56516072980594,105.42032376249699 109.95786272807163,106.09974873541796 108.59730668980046,109.03194441180676 110.83753258033539,108.47769531318772 112.49131190270418,108.74588079172099 113.5,109.15709695658734 113.30060816681362,110.01528109631909" stroke="#4dd2ff" stroke-linecap="round" stroke-linejoin="round" stroke-width="0.5"><title>2022-06-02 5.0km</title></polyline><polyline fill="none" points="133.2124904798402,100.32261414825189 134.66222391472547,100.27559575018677 136.20449352631113,99.78973731142469 136.71858339681057,99.93079329874308 136.70830159939942,99.5546434327407 138.94973343488527,100.55770571388712 139.885376999242,100.60472394202225 140.00875856817584,100.88683271620539 140.7593297791609,100.62039667846693 141.6332825590216,99.93079329874308 142.21934501142823,100.41665085948625 142.69230769231217,101.4353746359775 142.4866717441182,103.50412662093004 142.9699162224133,104.52281010321167 144.18316831684206,106.37207845212106 145.67402894134284,107.64146611335309 149.16984006093116,112.2016885382618 150.42421934500453,116.19754074754019 151.0,116.13486229185946 149.04645849199733,110.28987514191249 149.04645849199733,109.74139544236095 150.11576542269904,109.14589883371082 148.9642041127372,104.00563399666862 147.75095201830845,101.12192258243158 144.93373952782713,97.68954023641709 142.45582635188475,95.80871877186291 140.29664889565902,94.69587806388154 138.03465346537996,94.11594070181309 134.62109672508086,93.80245925245981 131.76275704495492,94.0845926135371 130.8476770754205,94.41374691246165 129.3362528560683,94.36672495475796 124.9870525514416,94.86829104325443 124.54493526276201,95.00935592489986 124.49352627573535,95.58928664869745 124.03084539223346,95.6363078698705 124.0,96.82750269113603 127.00228484388208,97.04693133322144 129.06892612337833,97.59550023957127 129.55217060167342,97.94031300741335 129.1408987052855,99.30387584839627 131.06359482102562,98.81801136093418 133.47981721250108,99.22551081301208" stroke="#4dd2ff" stroke-linecap="round" stroke-linejoin="round" stroke-width="0.5"><title>2022-05-30 6.1km</title></polyline><polyline fill="none" points="175.4111870196357,102.51124906708719 175.5187873612449,102.40580896207757 176.27967549103778,102.46438682171356 177.79376601197873,101.94889963846072 179.5307429547538,102.64012004778488 180.20708795901737,102.65183557736236 180.4684030742792,102.89786115523384 181.5751494449214,102.19492818041545 181.84415029891534,102.39409338307087 182.3283518360695,103.23760905736344 182.12852263025707,104.63172628619941 182.34372331341729,105.26433992388411 183.4888983774872,107.03327869202258 184.4496157130634,107.82986936641828 187.15499573014677,111.30896881353328 188.14645602050587,114.3661880067666 188.4538855678984,114.34276164876428 188.5,113.9796518965777 187.5777113578224,111.68380890069966 187.07813834332046,109.71587157992326 187.16268146882067,109.48158890654668 187.86208368916414,109.21216266927877 187.90051238259184,109.00130648539562 186.67079419299262,104.12797348402819 186.05593509820756,102.97986945066805 184.5725875320495,101.17566032409377 182.15926558498177,99.11363871805588 181.78266438940773,99.05505749417352 180.26857386849588,98.1880485036636 178.21648163962527,97.73110614845427 176.12596071735607,97.62565740439459 174.3736122972041,97.84827119608599 174.09692570453626,97.34445982180478 172.15243381727487,96.12592130227131 170.14645602050587,95.63381199323703 166.93381725021754,95.86815027712146 166.06532877881546,96.10248761974799 165.25832621692098,95.9970359320796 164.77412467976683,96.11420446219199 162.83731853117933,97.6725235363665 162.03800170795876,98.14118278578098 161.5307429547247,98.24663059810337 161.5,98.5746892397874 163.30614859095658,97.64909047507899 165.17378309139167,95.98531906610515 167.5409906063287,96.07905392787143 168.3479931682523,95.87986716658634 169.15499573014677,96.02046965689442 170.33091374894138,95.93845157874603 171.27625960719888,96.0907707749866 172.28309137490578,96.60630971913633 172.87489325364004,96.26652319955974 173.62040990608511,97.02811092137563 174.15072587531176,97.29759342626858 174.11229718191316,97.81312170650199 173.88941076004994,97.93028658945332 173.88172502137604,98.15289921878866 174.27369769429788,98.44580927911011 175.21135781382327,98.7387178688914 178.4624252775684,98.45752565092698 178.89282664388884,98.6449872801677 179.85354397952324,99.5940025350501 182.13620836893097,98.99647621149052 184.34970111015718,100.87104808357253 186.04056362085976,102.9095766330829 186.82450896670343,104.47942938607594 184.75704526048503,105.05346947340877 184.4573014517664,104.72544725789703 184.16524338175077,103.65936232153763 183.5196413322119,102.7924217488835 182.4052092228958,103.31961687526564 181.66737830915372,102.32379985977968 180.4299743808806,102.94472305246381 180.15328778821277,102.73384421857918 179.5384286934277,102.69869767217824 179.00042698546895,102.45267125450482 178.22416737829917,102.40580896207757 177.65542271564482,102.55811127482593 177.12510674638906,102.99158491204435" stroke="#4dd2ff" stroke-linecap="round" stroke-linejoin="round" stroke-width="0.5"><title>2022-05-28 10.0km</title></polyline><polyline fill="none" points="25.544911881763255,132.3802546791594 26.642410460481187,132.33345895274397 27.808982376387576,131.795305397638 28.47669130191207,132.27496424189667 29.05230244458653,132.34515788788121 29.566515065380372,132.63763050252237 30.15747583855409,132.61423274740446 30.449118817516137,132.918402831383 31.301023308711592,132.31006107544817 31.67708925527404,132.2164694722851 32.314098919858225,133.1991738072029 32.19897669131751,134.70829462165784 32.59039226832101,135.67925866669611 33.27345082434476,136.79058319723117 34.58584422970307,137.99546900291898 37.17993177945027,141.36433786784255 38.154633314406965,144.38211750718256 38.5,144.2417591289195 38.453951108589536,143.65692891381332 37.494599204103,141.29415508639067 37.08783399660024,139.5512555655041 37.91671404207591,139.13014450591072 36.80386583285872,134.3807368359776 36.02870949404314,132.83651104190358 33.956509380368516,130.5785920799317 32.16060261515668,129.11616264123222 31.1628766344802,128.71837548348776 30.464468448015396,128.2269875976781 28.330869812401943,127.72389570647283 26.212620807258645,127.58349719402759 24.32461625925498,127.7940948358264 24.20181921546464,127.3260990424933 22.175667993200477,126.06249162197491 20.26463899941882,125.61788249281744 14.838544627622468,126.06249162197491 12.91984081864939,127.60689696962436 11.5,128.28548637280983 11.515349630470155,128.51948088610152 11.822342239902355,128.51948088610152 12.628197839658242,128.09829008552697 14.915292779973242,126.13269275325365 15.252984650345752,126.01569082079004 17.501705514499918,126.03909122608457 18.184764070494566,125.81678699634722 18.890847072209,125.98059019524953 20.39511085842969,125.92208910563568 21.308413871534867,126.09759219817352 22.321489482652396,126.61239821959316 22.90477544060559,126.23799429151404 23.557134735630825,126.99849975033067 24.178794769744854,127.3377989831315 24.270892552594887,127.665396367418 23.910176236502593,128.05149091970816 24.094371802173555,128.3322853506579 24.531836270616623,128.53118058714244 25.821205230255146,128.76517411360692 28.469016486633336,128.42588319358038 28.80670835703495,128.56627967598615 29.896532120532356,129.6075430275887 31.1628766344802,129.1746605236185 32.13757816943689,129.05766470013987 34.16372939173016,130.64878776971454 35.836839113151655,132.62593162614576 36.46617396248621,133.6554237571654 36.765491756697884,134.53281746548964 34.71631608871394,135.04754895842052 34.47839681638288,134.75508844072465 34.20977828311152,133.71391708210285 33.47299602048588,132.7546191373258 32.42154633314931,133.2927638318106 31.6387151790841,132.25156634109953 30.426094371796353,132.9418004643776 30.149801023333566,132.69612484930258 29.558840250159847,132.67272711764235 29.02160318364622,132.36855575106165 27.62478681068751,132.54403942558565" stroke="#4dd2ff" stroke-linecap="round" stroke-linejoin="round" stroke-width="0.5"><title>2022-05-26 10.0km</title></polyline><polyline fill="none" points="54.364580927824136,129.2557059394967 56.06878951017279,129.17985859893815 58.3327746342693,128.4403438356385 61.03214151295833,129.69182696571806 61.9651024157356,129.63494172866922 62.38804469164461,130.2417158235694 64.50275607127696,128.9333543212997 65.58499071848928,130.6399092046122 65.24912479351042,132.59292861770518 65.98305403697304,134.52694687450276 66.84137806756189,135.98691481383867 69.2297579786391,138.24318450874853 73.40942282305332,143.62767755735695 74.95191818231251,148.36729415820446 75.63608951104106,148.5 75.51169472400215,147.60897148519143 73.65821239713114,143.11578473315603 73.35966490823193,140.78379342413973 74.49165747026564,140.34772361824434 74.61605225730455,140.02540985892847 72.52621983509744,131.8344792737189 71.61813788971631,130.14690762824466 68.88145257494762,126.98025922156376 65.27400375087745,123.98417075153702 63.28368715828401,122.86535384506715 60.13649904628983,121.84134031206486 55.919515765766846,121.5 52.23743006947916,121.86030362654128 51.35422708149417,122.12578962960106 51.55325874075061,122.84639073239669 51.068119071336696,124.93231029542221 50.18491608335171,125.95629031024873 49.363910488958936,128.04214117977244 51.466182389849564,127.47327732998383" stroke="#4dd2ff" stroke-linecap="round" stroke-linejoin="round" stroke-width="0.5"><title>2022-05-24 5.1km</title></polyline><polyline fill="none" points="113.45302305350197,140.22770138727356 113.19464984774822,139.94126833195332 113.4295345802384,139.02825682659022 111.66789908657665,138.67021054673387 110.4112657677615,138.74181991774094 108.79056111350656,139.24308390432998 108.50869943454745,139.04615910282155 109.01370160939405,137.70347840870818 110.2703349282383,135.64466206981888 110.68138321008882,134.31983337207203 110.52870813399204,133.58579818532598 111.6326663767104,133.1203093256263 111.6326663767104,132.78014285262907 111.43301435408648,132.2967461582448 109.8357981731242,131.22252189751453 107.16985645933892,130.0587643412291 105.2438016528904,129.77229861272644 100.31122227056767,130.18409280799824 98.86668116573128,130.50636519915133 97.85667681603809,130.29151706781704 97.11678990867222,130.5421731707538 93.9693344932748,133.10240585937572 92.00804697696003,133.99757476602827 87.721400608978,133.85434834497573 86.66441931272857,133.5499914362881 86.5,133.89015497185756 86.96976946498035,134.1408009569932 89.31861678994028,134.39144623745233 92.7479338843259,134.23031720943254 94.6857329273771,133.10240585937572 97.2694649847981,130.77492463527597 97.97411918226862,130.45265321487386 104.79752066117362,130.34522914922854 107.22857764246874,130.57798112794262 108.55567638101638,131.49107917622314 107.897999130073,132.76223931811546 107.60439321442391,135.3403112730375 109.98847324925009,136.07433201411186 108.60265332757263,139.04615910282155 110.90452370597632,138.50908925168187 112.11418007832253,138.63440583971533 113.5,139.01035454677185 113.4295345802384,139.74434507260594" stroke="#4dd2ff" stroke-linecap="round" stroke-linejoin="round" stroke-width="0.5"><title>2022-05-22 5.0km</title></polyline><polyline fill="none" points="129.42748316246434,128.86269554679893 129.50159961392637,129.25811808067374 130.46511348281638,129.29577728267031 131.79920960901654,129.10748112149304 133.4544770248176,128.44844158003252 133.9979976688046,128.91918458227883 135.2950355692301,129.12631075464742 136.23384395433823,129.67236847070308 137.20971056510461,129.59705035408115 137.50617637092364,130.0489581464135 139.3837931411108,128.86269554679893 140.00143023655983,129.35226605726348 140.60671459007426,130.538522463954 140.28554330047336,132.85450362960546 141.08847152453382,134.6620589452432 142.43492039258126,136.58254829498037 144.10254055034602,137.99464772655483 148.47541118608206,143.64283284229168 150.0565621504793,148.5 150.63714102018275,148.38704548114765 150.55067182678613,147.84109672201885 148.56188037944958,143.02154913020786 148.25306183175417,141.0070554529375 148.37658925083815,140.6681644141281 149.45127779690665,140.2351351936304 149.52539424836868,139.7079664873454 147.63542473627604,132.13900335886865 146.74602731887717,130.3313994107666 143.32431781006744,126.3018235327254 140.29789604237885,123.94801919203746 136.96265572693665,122.32856749671919 133.04683654182008,121.57532462038216 130.4280552570708,121.5 127.40163348938222,121.83896031535551 126.49988333007786,122.19675043015013 126.59870526532177,122.93115744131501 126.11694833086221,125.02136129964492 125.47460575160221,125.64276427288132 124.36285897978814,128.14716481844516 126.49988333007786,127.46928856580053 128.31573639065027,127.63875808839657 129.53865783964284,128.12833498873806 129.2668975176348,128.84386586070468" stroke="#4dd2ff" stroke-linecap="round" stroke-linejoin="round" stroke-width="0.5"><title>2022-05-16 5.4km</title></polyline><polyline fill="none" points="177.24438342486974,132.67369229413816 177.8577134298539,132.72506128719033 179.19221168247168,132.29356014257064 179.50898652021715,132.57095415328513 180.21667498753231,132.7045136961533 180.57388916627679,132.92026299049394 181.17373939092795,132.89971547784444 181.38267598602397,133.17710620233265 182.46779830254673,132.550406500377 183.08112830756,133.47504271284924 182.94633050427365,134.81059885478317 183.48552171741903,135.95093074027682 184.19321018474875,136.91659732903645 184.9952571143367,137.58433484430861 187.3339990015229,140.56336529452528 188.19670494260208,143.19298599254398 188.5,143.1724426045439 188.4865202196961,142.87456255188954 187.5227159261267,140.31683142592738 187.25986020971322,139.21768680939203 187.3070394408569,139.00196406636314 187.94058911634784,138.69378714160484 187.96080878684006,138.49860746261766 186.97678482277843,134.481849808064 186.3701947079535,133.29011680710028 184.77284073889314,131.39972476659023 182.61607588618062,129.6736536421231 181.38267598602397,129.05718555669955 180.16949575638864,128.73867413559128 177.98577134299558,128.53318184385716 176.02446330504608,128.70785034445726 175.8829256116005,128.3174140492556 174.95282076887088,127.63928077067249 174.03619570644514,127.12553745434343 172.71517723417492,126.80701400745238 169.6148277583561,127.00223829080278 168.86669995007105,127.1974618291897 167.84223664503952,127.13581237124163 165.80004992513568,128.70785034445726 164.68796804793237,129.201028774336 161.99875187219004,129.1085581808511 161.6347978033009,128.92361649247687 161.580878681998,129.01608742022654 161.5,129.2113032744237 161.89091362958425,129.31404816163922 164.58686969547125,129.44761620658755 165.74613080380368,128.99553833960817 168.12531203197432,127.14608728605162 169.45307039441832,127.23856142656223 170.43709435847995,127.0844377661706 172.5601597603818,127.1049876143843 173.36894658015808,127.20773673163785 174.29905142288771,127.63928077067249 174.5956065901264,127.3618600205773 173.19370943585818,126.89948876083508 172.35796305543045,126.80701400745238 169.52046929605422,126.98168840129438 168.52970544183336,127.23856142656223 169.9787818272889,127.1974618291897 170.82126809786132,127.00223829080278 172.56689965052647,127.0741628389842 173.49026460311143,127.26938610291472 174.37993010484206,127.6495555843976 174.7843235147302,127.35158514909926 175.45157264106092,128.0399969762475 175.91662506241119,128.26604063071136 175.94358462309174,128.66675192736875 175.37743384925125,128.89279281276686 175.43809286071337,129.201028774336 176.75911133302725,129.8277695028919 177.98577134299558,129.73530004211352 178.0329505741538,131.15314674247566 177.72965551674133,131.33808037196286 177.71617573640833,131.65657561141052" stroke="#4dd2ff" stroke-linecap="round" stroke-linejoin="round" stroke-width="0.5"><title>2022-05-14 9.9km</title></polyline><polyline fill="none" points="23.121181262715254,161.85063988598267 23.991853360494133,161.9065215106748 25.815682281041518,161.26388011698873 26.658859470451716,161.78078779202042 27.181262729107402,161.82269905683643 27.795315682247747,162.1859289608692 28.363543788174866,162.1300475605858 28.913441955199232,162.49327586010259 30.26985743379919,161.5852015558121 31.13136456211214,162.91238308015818 30.93890020364779,164.60275657587408 31.4338085539639,165.77621485251075 32.04786150713335,166.83789814523698 33.65173116087681,168.33260900665118 36.914460285101086,172.5232159167208 38.18839103868231,176.16883864521878 38.463340122194495,176.07106581552216 38.5,175.54029662862376 37.43686354375677,172.95623091082598 36.85947046839283,170.52572476842033 36.94195519346977,170.30222568841054 37.830957230122294,169.8552253748021 36.804480651713675,165.38506429260087 35.658859470451716,162.63297854728444 33.21181262729806,159.74107572561843 30.98472505089012,157.96675700737615 28.620162932755193,156.8211098569118 26.264765784115298,156.33210837727165 24.330957230151398,156.1784214880572 21.590631364524597,156.4299089481392 21.361507128283847,155.92693311888434 20.12423625253723,155.0187731058686 18.813645621179603,154.27826462882513 17.787169042770984,153.95690944101443 16.522403258626582,153.83116135477758 12.18737270872225,154.16648907967829 11.5,154.41798381266926 16.78818737270194,154.18046103313463 18.51120162929874,154.59961833220586 19.07026476575993,155.06068844436595 18.520366598735563,156.1784214880572 18.30040733196074,158.13441110557324 20.06008146639215,158.83296549932493 19.097759674099507,161.02638070840112 20.573319755581906,160.57932079879174 22.369653767818818,160.76093923351436 22.892057026474504,160.95652778690055 22.80040733196074,161.78078779202042" stroke="#4dd2ff" stroke-linecap="round" stroke-linejoin="round" stroke-width="0.5"><title>2022-05-12 7.0km</title></polyline><polyline fill="none" points="58.77977099234704,160.35114322208392 59.93396946566645,160.35114322208392 61.840458015271,159.69137454557494 62.29389312976855,160.09980342997733 63.89122137404047,160.64960817641258 64.84961832061526,160.68102547380113 65.29274809159688,161.1051577535327 66.92099236641661,160.11551219062676 67.73511450379738,161.43503682586015 67.61145038169343,163.7441513863232 68.30190839694114,165.1421536104317 69.3324427480984,166.60296070558252 70.65152671755641,167.71818217102555 72.66106870229123,170.16847209278785 72.86717557252268,170.7653259638828 73.85648854961619,171.78624966227653 74.49541984731331,172.9013972488101 75.4229007633403,176.07398373333126 76.0,175.9169280229762 74.28931297708186,170.74961934140447 74.19656488546752,169.9956977540569 75.2580152671726,169.3360104056701 74.1347328244301,164.40388588576752 73.38244274808676,162.3775407967114 72.80534351142705,161.27795172680635 70.4866412213596,158.48178418714087 68.62137404578971,156.8008938056082 66.51908396944054,155.40274251588562 65.12786259542918,154.7429321048985 63.62328244274249,154.3501851705514 60.150381679384736,153.92601626667602 56.832061068707844,154.24021567554882 55.95610687020235,154.57012369672884 54.54427480918821,154.49157429404295 49.59770992366248,155.10425754309108 49.51526717559318,155.74835527204414 49.21641221374739,155.7169359936961 49.04122137403465,155.95258027392265 49.0,156.84802206541644 49.20610687023145,157.09937230492505 50.762213740468724,157.03653482079972 53.45190839696443,157.47639615002845 54.59580152670969,157.9948009702057 54.27633587786113,159.45574152696645 56.03854961832985,158.8430923569831 57.27519083971856,158.95305538179673 58.53244274808094,159.33007029347937 58.32633587784949,160.11551219062676" stroke="#4dd2ff" stroke-linecap="round" stroke-linejoin="round" stroke-width="0.5"><title>2022-05-10 6.0km</title></polyline><polyline fill="none" points="102.14504864056653,162.76269890852564 102.81853330008744,162.7524328082509 104.13856323272921,162.28018996819083 105.58655525067297,162.92695623224427 106.18595659766288,162.92695623224427 106.3677974557213,163.16307521058116 107.36455475180992,162.5368442267427 107.5329259167047,162.61897331737782 108.04477425791265,163.39919309847755 107.87640309304697,164.66189199093787 108.27375904214568,165.63712588965427 108.89336492891016,166.5815451992712 109.99114492394438,167.59780301461433 111.84322773761232,169.97925735507306 112.41568969818763,170.87227413846995 113.08917435770854,173.16119996267662 113.5,173.1406719352708 113.27101521576697,172.13478849732928 112.7254926415626,170.9030675424874 112.2742579196929,169.322315511763 112.2607882264856,168.98357657579618 112.95447742579563,168.59351077874817 111.90384135695058,164.31285639132693 111.39199301572808,163.26573529581947 110.11237216263544,161.66421449100744 108.6711149912735,160.35010866883385 107.85619855325785,159.80597683831365 106.40147168868862,159.05650275978041 105.0545023696759,158.72796271365587 103.07445747069141,158.54315800988843 101.05400349215779,158.6971619760916 100.80481416813564,158.28648370197334 99.15477675230068,157.19817032062565 97.37004240458191,156.78748000484848 94.24507358443225,157.0133600868321 93.75342978298431,157.1776358832176 92.770142180103,157.14683421160953 91.05275629834796,158.49182325140282 89.6519082065206,159.17970473278547 87.04552257420437,159.10783695128703 86.63469693191291,158.9230336206674 86.5,159.16943791302765 88.69555999002478,159.43637455627686 89.941506610121,159.3439735682914 91.27500623595552,158.63556044526922 92.94524819156504,157.1776358832176 95.08692940881883,157.187903102953 95.6324519830232,156.9825583162201 96.31267148916959,157.1262997535232 98.15128460963024,157.1776358832176 99.3635569967737,157.66019298235187 99.74070840608329,157.34191115172507 100.3872536792187,157.98873989034837 100.87889748068119,158.19408063565788 100.87216263408482,158.676628140729 100.60276877027354,158.85116547835787 101.2493140433944,159.3542403529682 102.69730606135272,159.5082418759339 104.52244948864973,159.26183921649135 105.19593414817064,159.55957561386094 106.15228236466646,160.391174987024 106.63045647295075,160.20637629528574 108.26702419556386,161.53075215943318 109.28398603142705,163.16307521058116 109.14255425293231,163.00908469620117 108.06497879770177,163.56344837736833 107.84272886006511,164.54896896944774 107.95048640559253,164.94933128390403 108.89336492891016,166.5815451992712 109.86991768520966,167.45409101439873 112.13956098779454,170.30772511163377 113.2238712896069,173.2125199951479 113.41918184085807,173.13040791848834 113.43938638063264,172.81222237608745 112.39548515839851,170.26666675747038 112.1732352207473,169.1683435463383 112.23384884011466,168.99384142499548 112.92753803942469,168.6243055551131 112.05874282863806,164.94933128390403 111.52668994762644,163.57371431479623 109.54664504864195,161.19196159924832 108.11212272386183,160.04211023078096 106.31391868297942,159.05650275978041 103.78161636317964,158.5739588402248 101.00685956596863,158.66636121997362 100.8519580942957,158.27621670286317 99.73397355948691,157.42404858805457 98.42067847344151,156.9517565270835 97.51820902968757,156.80801459902068 94.67610376652738,156.99282557514016 93.5311798453331,157.2187047498337 95.92878523323452,157.06469632989683 95.89511100025265,158.46102237157174 95.69980044898693,159.53904212484485 96.0971563981002,159.67250965580024 95.81429284109618,159.75464334781282 95.86143676728534,160.5143737437793 98.48129209280887,160.8018363549745 99.3366176103882,161.12009664635116" stroke="#4dd2ff" stroke-linecap="round" stroke-linejoin="round" stroke-width="0.5"><title>2022-05-08 15.0km</title></polyline><polyline fill="none" points="133.7191780821595,160.24003738549072 134.4691780821886,160.27135915114195 136.7191780821595,159.55095535900182 138.91780821915017,160.50627199248265 139.7089041095751,160.47495032121515 140.171232876688,160.9134525748159 141.35273972601863,160.13041110665654 141.89726027398137,160.06776744962553 142.7191780821595,161.4145949888043 142.46232876711292,163.09026655183698 142.99657534246217,164.53100210345292 144.36301369860303,166.53545947129896 145.61643835616997,167.52200941651972 149.1712328767171,172.23535360490496 150.54794520547148,176.18119018500875 151.0,176.07158630846243 150.9589041095751,175.5392224317693 149.80821917805588,172.72076490332984 149.0993150684808,169.808251801398 150.16780821917928,169.21320886429748 149.00684931504657,163.98289932346233 148.400684931461,162.21328405575332 147.6404109588766,160.9134525748159 145.55479452054715,158.43901470526907 143.02739726024447,156.21508583823015 139.8219178081781,154.4766184077307 134.79794520544237,153.81880981498398 124.62671232875437,154.93081634088594 124.54452054793364,155.5259682494434 124.0205479451688,155.74523359727755 124.0,156.35604095851886" stroke="#4dd2ff" stroke-linecap="round" stroke-linejoin="round" stroke-width="0.5"><title>2022-05-05 5.1km</title></polyline><polyline fill="none" points="173.01818181818817,161.98001451849996 174.2272727272648,162.0631595356972 175.79090909089427,161.49499992156052 177.8272727272706,162.2848790919379 178.57272727272357,162.2848790919379 178.81818181820563,162.58974231862157 180.23636363635887,161.75829398283167 180.35454545455286,161.84143926718752 181.0545454545354,163.04703463360056 180.86363636364695,164.39117935014656 181.30909090908244,165.8461518572949 182.14545454547624,167.13481617753132 183.70909090907662,168.61744320949583 185.2727272727061,170.5018577704068 186.96363636365277,173.06513322207684 187.8909090909001,176.05781005547033 188.5,176.05781005547033 187.00909090909408,171.0006647776063 186.97272727271775,170.30787629404585 187.6636363636353,170.11389427252652 187.7727272727061,169.8921998660844 186.68181818182347,165.02859965248717 185.51818181815906,162.67288660127815 183.64545454544714,160.35866666075162 180.89999999999418,158.0720857113156 178.57272727272357,156.89412050238388 175.35454545455286,156.31205968264112 171.68181818179437,156.49222188955537 171.37272727271193,155.9378751346012 169.42727272724733,154.55198876480063 167.9363636363414,154.05306285810366 166.3909090909292,153.94218994452604 162.53636363634723,154.2470900282533 161.51818181818817,154.55198876480063 161.5,154.6905786542302 164.76363636361202,154.4549756765373 164.47272727274685,157.6424771997772 164.93636363637052,157.79491923579917 164.6727272727294,157.80877758599308 164.62727272728807,158.97286906888985 168.18181818179437,159.36089519962843 169.39999999999418,159.77663506157114 169.52727272728225,159.98450405331823 169.11818181816489,160.89912017900133 169.18181818179437,161.12084347494238 170.79999999998836,160.677396170664 171.92727272724733,160.7466849998018 173.29999999998836,161.20398952728647 174.13636363638216,161.19013185883523 174.92727272727643,160.9129779058494" stroke="#4dd2ff" stroke-linecap="round" stroke-linejoin="round" stroke-width="0.5"><title>2022-05-04 7.1km</title></polyline><polyline fill="none" points="20.958729554957245,190.15573620855866 22.59166983643081,190.12442631281738 24.245150247239508,189.5451909743424 26.309433244576212,190.42186981435225 27.39806009887252,190.5471088438935 27.53157093952177,190.93847951469797 29.24667173830676,189.92091168430488 30.18124762264779,191.3298482208411 29.934766070742626,193.19273633101693 30.468809433252318,194.52334344464907 31.7422974515066,196.38615525496425 33.06713579306961,197.544519988689 36.32274629137828,201.6925768686342 36.81570939521771,202.52216176470392 37.88379612020799,206.1064931672372 38.5,206.0908414231817 38.345949030073825,205.13607909638085 37.05192088248441,202.24041694065818 36.610308101953706,200.37774499098305 36.57949790795101,199.7829328102016 37.51407379232114,199.3916065325102 37.64758463294129,199.14115668401791 35.973564092826564,192.55090595768706 35.069798402430024,190.76627666159766 34.063332065416034,189.46691559854662 30.253138075291645,186.0696885679572 27.552111068856902,184.61368880828377 24.409471281862352,183.92481923090236 21.051160136936232,183.89350683275552 18.422023583116243,184.3945036939258 16.8712438189541,184.37884759075678 12.085393685818417,184.9581213144411 12.05458349181572,185.55304660445836 11.869722327857744,185.78788428507687 11.571890452643856,185.6782934554576 11.5,186.17927884734672 11.571890452643856,186.97771766165533 11.992963103839429,187.49435018424265 13.67725370862172,188.52760495893745 16.41936097375583,189.29470949513052 16.994484594877576,190.62538313525147 17.015024724241812,191.98734322463133 19.46957017877139,192.66048712716292" stroke="#4dd2ff" stroke-linecap="round" stroke-linejoin="round" stroke-width="0.5"><title>2022-05-01 6.0km</title></polyline><polyline fill="none" points="55.14363885088824,189.2677146348069 55.069767441862496,189.06127354929777 56.73187414504355,189.23017992589303 57.86456908346736,188.81729713305685 57.9384404924931,189.3427840074146 57.926128590945154,188.81729713305685 58.911080711346585,188.44194755683566 59.67441860467079,188.9862039505606 60.8071135430946,189.1175757087185 61.619699042406864,189.58675905194832 62.7277701778512,189.53045717514033 62.986320109455846,190.0371728456521 64.72229822160443,188.948669128622 65.05471956223482,189.02373875751073 66.06429548567394,190.58141995038022 65.8426812585385,193.11494234540442 66.47058823533007,194.4848925153783 67.38166894667665,195.9861847113134 69.43775649793679,197.9002972901435 73.57455540358205,203.0982287976658 75.47058823533007,208.42721590174187 76.0,208.29587127963168 75.9384404924931,207.5453270414655 73.74692202464212,201.4844615070033 73.87004103968502,200.60250714418362 75.01504787965678,199.94572721289296 73.46374829002889,193.34014101260254 72.12175102601759,190.1685431266087 69.56087551297969,187.05314101800468 66.06429548567394,184.1440874641703 62.39534883722081,182.36107440133492 60.03146374828066,181.77924172508938 56.6580027359887,181.5727840982654 52.927496580028674,181.9481612622767 52.5088919288537,182.2109243800005 53.186046511662425,182.86782894234784 54.78659370724927,183.33704366003803 59.095759233954595,182.83029166316555 60.203830369369825,183.07428370835987 62.222982216160744,184.81974668493785 63.44186046512914,184.4068444082004 64.18057455541566,185.30771975111566 66.56908344733529,187.2032832603145 68.08344733246486,189.66182816831133 66.12585499315173,190.78785767835507 65.80574555401108,192.42057637233665 65.99042407661909,193.5278061542558 67.73871409028652,196.38026991715742 69.73324213409796,198.20054668723606 73.74692202464212,203.49228402024892 75.4213406292547,208.40845239561895 75.97537619702052,208.3146348083974 75.92612859100336,207.5453270414655 74.54719562243554,204.1678033943026 73.75923392613186,200.99657288788876 73.90697674421244,200.64003728656098 75.00273597810883,199.94572721289296 73.62380300959921,193.9406681393957 72.08481532151927,190.0371728456521 69.35157318742131,186.80915935976373 65.94117647060193,184.01270871513407 62.887824897421524,182.49245547210012 58.1231190150429,181.68539740577398 56.522571819397854,181.5915529922495 51.95485636117519,182.2672306662571 49.22161422710633,182.37984313703055 49.0,184.10655069756467 51.08071135432692,185.1388062857659" stroke="#4dd2ff" stroke-linecap="round" stroke-linejoin="round" stroke-width="0.5"><title>2022-04-30 10.1km</title></polyline><polyline fill="none" points="95.9011428571539,190.86965967351716 97.40285714287893,190.96373249154567 99.21314285715926,190.30522038508934 101.52742857142584,191.32434391084098 102.44285714285797,191.2302715272599 102.71028571430361,191.60656038170418 104.3765714285837,190.71287139152992 105.26114285716903,192.170990263352 104.98342857146054,193.8956118452188 105.69314285714063,195.62019533774583 106.86571428569732,197.28203066841525 108.11028571426868,198.3010631428624 111.64857142858091,202.83167730643618 112.89314285712317,206.67230352715706 113.05771428570733,206.97014011793362 113.5,206.8604109798107 113.35599999997066,205.63770443864632 111.64857142858091,200.9975156955552 111.71028571430361,200.5115340323464 112.59485714283073,200.16664198494254 112.70800000001327,199.9314874428892 111.45314285712084,194.4757032710986 110.31142857141094,191.95149023860722 107.38000000000466,188.53348166994692 104.97314285713946,186.5892265505463 102.66914285713574,185.4289222024454 99.17200000002049,184.67628313532623 96.826857142878,184.6135628855409 94.37885714287404,184.8487635623096 93.37085714287241,185.1780433194799 92.26000000000931,185.11532347282628 87.44628571430803,185.67980027927842 87.15828571427846,185.75819951297308 86.98342857143143,186.32267167180544 86.5,186.2599527446 86.60285714286147,185.00556361989584 90.59371428572922,184.69196318987088 90.64514285718906,183.547310931237 90.99485714288312,183.02985988207365 91.66342857145355,183.42186856758053 91.07714285716065,184.55084258540592 90.84057142859092,186.79306202028238 93.02114285717835,187.49864222958422 91.66342857145355,190.39929388318706 92.03371428573155,191.59088171561598 91.97200000000885,192.7197376256736 93.81314285716508,193.2057677833509 95.2840000000142,194.1778190231489 96.49771428570966,192.6413453814166 95.36628571432084,192.0455617533371 95.58228571430664,191.089162739343 95.86000000001513,190.9950900723852" stroke="#4dd2ff" stroke-linecap="round" stroke-linejoin="round" stroke-width="0.5"><title>2022-04-28 7.1km</title></polyline><polyline fill="none" points="139.518943170493,192.67204999581736 139.61316051847825,192.77463434618403 139.76794616151892,192.6515331010196 140.59571286142454,192.67204999581736 141.63883349951357,192.29248610834475 142.2108673978364,192.67204999581736 142.6348454636318,192.692566882346 143.07901296112686,192.9387688783463 143.71161515454878,192.9387688783463 143.94042871386046,193.21574470565974 144.98354935196403,192.55920697248803 145.52193419744435,193.55426867761707 145.3738783649169,194.6621496305379 145.7372881356132,195.64691253192723 146.22856430709362,196.4572760998053 147.3995513459813,197.55483664153144 149.7078763708996,200.49864428456567 150.5221834496624,203.01151662489428 150.7173479561461,203.23715625780824 151.0,203.13459291183972 150.91924227320123,202.65254242809897 150.1520438684238,200.91917438844393 149.6944167497859,199.30883304640884 149.72806580261386,198.898546884775 150.4010468594497,198.6113446113195 149.39830508474552,194.42621403352678 148.81954137589491,193.31832796435629 147.31879361915344,191.50257384222277 146.12088733799465,190.43565996433244 144.88260219343647,189.61494181916714 143.79237288137665,189.06094961744748 142.06954137590947,188.64032189644786 140.29287138587097,188.54798851854503 138.48928215356136,188.69161814543259 138.34795613163442,188.32228400323584 136.61166500500985,187.19374646862707 135.0772681954404,186.7936226289239 131.6854436690046,187.03985305501556 131.3018444666086,187.19374646862707 130.50772681956005,187.0603722036176 130.06355932205042,187.25530370427805 128.14556331008498,188.74291434288534 127.1226321037102,189.18405951479508 124.50473579265235,189.0814679542782 124.22208374876936,188.94809861761314 124.0,189.24561435221767 127.01495513461123,189.43027841944786 127.6273678963189,189.2763917431039 128.59646061815147,188.7531735761877 130.5279162512743,187.0603722036176 131.02592223332613,187.12192959996173 132.2440179461846,186.84492073220827 135.40029910270823,186.76284374219176 137.27118644070288,187.3886774603816 138.4085244267335,188.41461778913072 138.37487537390552,188.7121366305728 137.80957128616865,188.9583578097263 137.88359920241055,189.46105569908468 137.65478564309888,190.4254010689001 137.1836989033036,191.0101548210987 136.52417746762512,192.51817308401223 136.88758723830688,193.09264452335265 136.87412761716405,193.92356499796733 137.75573280161188,194.1184703130566 139.0613160518551,194.83653611067348 139.80832502493286,193.75943362957696 141.1677467597474,192.97980242900303 142.05608175475209,192.66179154943893 141.13409770689032,191.90266080211586 140.46111665006902,192.1899007898428 139.53240279163583,192.22067640702517 139.12861415754014,193.27729468559482 139.30358923232416,193.5132355883834 139.8554336989182,193.77995007948994 140.6899302093807,193.22600304080697 140.52168494518264,192.86696008541549 139.57278165506432,192.83618485755142" stroke="#4dd2ff" stroke-linecap="round" stroke-linejoin="round" stroke-width="0.5"><title>2022-04-27 10.1km</title></polyline><polyline fill="none" points="166.90490757118096,189.2986982525763 168.29228377935942,189.1854046026201 170.99271247020806,188.3734627833619 171.61207684886176,188.86440518641757 172.86319289371022,189.10987542679504 173.64359201077605,189.63857838358672 174.7212860296131,189.67634276676836 175.05574279406574,190.05398576437437 176.86428677965887,188.90216988050088 177.48365115831257,189.26093371774186 178.15256468721782,190.60156541712786 177.96675537366536,193.05619364386075 178.6108943274303,194.60446465029236 180.28317814978072,196.8890618954465 181.5962306324509,197.96525789671432 185.8202956947789,203.4404503509504 187.43064307922032,208.5 188.13671847086516,208.34897260829894 188.09955660815467,207.78261772939732 186.50159651125432,203.70476192139176 185.9565558580507,201.5524889592998 185.88223213260062,200.75953387295158 187.14573546504835,200.06097266229335 185.60971180602792,193.30165294269682 184.1727864475688,190.24280669446307 181.4599704691791,186.97615114587825 179.23025870605488,184.99344359507813 177.89243164821528,183.99263247854833 174.1762453764386,182.1798154107164 169.1965557721851,181.5 164.87339240926667,181.83990831972915 164.0062822792097,182.1798154107164 164.13015515494044,183.12399532782 163.68421280229813,184.80461212427326 162.91620097277337,185.729882708285 162.37116031956975,187.29715700777888 161.86328152910573,187.97693050980888 162.65606793377083,187.9958130369123" stroke="#4dd2ff" stroke-linecap="round" stroke-linejoin="round" stroke-width="0.5"><title>2022-04-25 5.0km</title></polyline><polyline fill="none" points="27.00575287643005,222.76169568800105 28.18759379691619,222.6690465540196 29.146573286649073,222.24697615825426 29.558529264642857,222.55580849621765 30.186593296661158,222.6587521954716 30.55802901450079,222.874933291052 31.152326163108228,222.864638973846 31.429214607313043,223.13229054963813 32.50300150075054,222.48374778376092 33.05677838920383,223.37935230249786 32.914957478729775,224.59405527055787 33.26613306654326,225.55138563603032 33.97523761881166,226.63222101671636 34.974737368684146,227.51745968870455 37.27088544273283,230.47157581272768 38.209604802395916,233.2608463137367 38.5,233.15792389909257 38.4797398699302,232.75652450806592 38.061030515265884,231.43908904107593 37.64232116058702,230.69801671535606 37.277638819417916,229.38052835579583 37.24387193597795,228.96880630079613 37.96648324164562,228.618839954539 37.0615307653934,224.78964034658202 36.35242621311045,223.24552733415476 35.51500750375271,222.17491501171025 34.502001000524615,221.08369098385447 32.95547773886938,219.82772514417593 31.415707853928325,219.04530464013442 29.112806403194554,218.54084298362068 27.613556778393104,218.48936702528226 26.060280140096438,218.70556570298868 25.86443221611262,218.2319864582314 24.101800900461967,217.14067849873754 22.440470235131215,216.73915368625967 19.60405202601396,216.91417770912813 18.827413706865627,217.14067849873754 17.78739369685354,217.08920113443673 16.24762381191249,218.33493884010386 15.045522761385655,219.01441937523123 14.22161080542719,219.1791405729673 12.006503251643153,219.0555997242882 11.628314157089335,218.90117324481616 11.5,219.15855045218996 13.843421710873372,219.39533634175677 14.917208604310872,219.30268112393605 15.970735367693123,218.76733658630837 17.794147073538625,217.2127467219252 18.098049024527427,217.08920113443673 18.92871435720008,217.17156489252375 20.73861930964631,216.97595075100617 22.52826413208095,217.01713273756468 23.453476738373865,217.16126942999472 24.297648824431235,217.562790936252 24.5745372686506,217.28481484379517 23.18334167082503,216.8318135375266 21.31940970485448,216.80092693903862 19.151575787895126,216.99654174842726 18.476238119081245,217.18186035297185 19.90120060031768,217.12008755921852 20.806153076540795,216.9244732212901 21.33966983492428,217.05831469105397 22.609304652331048,216.99654174842726 23.791145572788082,217.34658743905675 24.162581290656817,217.7172214474449 23.777638819432468,218.5820237130938 23.615557778903167,219.89978959002474 24.97298649327422,220.33217413781313 24.27063531767635,222.04108689939676 24.945972986490233,221.81460775963205 26.141320660331985,221.84549133759356 27.012506253144238,222.0719703409195 26.870685342670185,222.55580849621765" stroke="#4dd2ff" stroke-linecap="round" stroke-linejoin="round" stroke-width="0.5"><title>2022-04-22 10.1km</title></polyline><polyline fill="none" points="63.02986348126433,222.47824975055846 64.10494880547049,222.46654417956597 64.18174061432364,222.24413788385573 65.31825938564725,221.92808537247038 65.81740614335285,222.27925472378047 66.53156996588223,222.38460511670928 67.02303754267632,222.6772440980276 67.59897610923508,222.6304219597514 67.8754266211763,222.95817613810868 69.15017064847052,222.23243226585328 69.81825938567636,223.29763388028005 69.68003412970575,224.64373994928974 70.07167235494126,225.73230734373647 70.91638225255883,226.93790127435204 71.96075085326447,227.87426770837556 74.61006825938239,231.2801737732152 75.6313993174117,234.32308306639607 76.0,234.32308306639607 75.82337883961736,233.25808287830296 75.16296928329393,231.80684251559796 74.6177474402939,229.93422092765468 74.60238907849998,229.54798524307625 75.27815699658822,229.24367653793524 75.40102389079402,229.04470460270386 74.5025597269705,225.18217367409306 74.01877133108792,223.8594906274193 73.58105802049977,223.05181985062882 71.91467576794093,221.02674102119272 69.6262798634998,219.0952419100904 67.8677474402939,218.2172666119659 66.001706484647,217.79583377188828 63.828498293529265,217.64364894196115 61.82423208194086,217.85436629298056 61.563139931764454,217.32757148723613 59.6279863481177,216.09836509297747 57.76194539249991,215.67691693360393 52.28668941979413,216.09836509297747 50.45904436861747,217.63194240013763 49.02303754264722,218.29921153264877 49.0,218.6386964053745 50.38993174061761,217.95972468285618 52.67064846417634,216.00471020975965 54.79778156997054,216.08665824078707 55.71160409555887,215.85252070362912 56.4948805460881,216.00471020975965 58.19965870308806,215.96958958977484 59.09812286691158,216.25055395721938 59.66638225258794,216.66029123228145 59.23634812288219,217.71388814360762 59.09812286691158,219.31766021969452 60.6262798634998,219.7742004069696 59.80460750852944,221.6822655678734 61.079351535852766,221.2959752091847 63.529010238911724,221.79932274694147 64.82679180888226,221.37791580219346" stroke="#4dd2ff" stroke-linecap="round" stroke-linejoin="round" stroke-width="0.5"><title>2022-04-21 8.1km</title></polyline><polyline fill="none" points="100.2457337884116,222.46655371949964 101.505119453941,222.38461472246127 101.81996587029425,222.25585320873506 101.95051194538246,221.99832932798017 101.8660409556469,222.39632030053326 102.80290102388244,221.92809534491607 104.45392491470557,222.61872583703735 105.16040955632343,222.60702030364337 105.3754266211472,222.91136340814774 106.58873720135307,222.16220829281883 107.27218430035282,223.15717783267974 107.14931740614702,224.69056822432685 107.6254266211763,225.80254366093868 108.19368600685266,226.69210873970587 109.56058020479395,228.00302201050727 112.17918088738224,231.36210273074175 113.16979522185284,234.36989579635338 113.5,234.27627033643512 113.38481228670571,233.7028111139516 112.57081911264686,231.73662238702673 112.08703071673517,229.67673450511938 112.17150170647074,229.46606005127614 112.84726962458808,229.1968638079743 112.58617747438257,227.59336477981924 111.8796928327647,224.7725039803263 111.06569965870585,223.06353436459176 109.30716723549995,220.92139895540095 107.1186006825883,219.11866663274486 105.45221843002946,218.2641052105173 103.92406143344124,217.83096655500412 101.42832764505874,217.6202492885932 99.18600682594115,217.84267304746027 99.17064846417634,217.7139015010289 99.06313993173535,217.33929174855803 97.01279863479431,216.03984551082613 95.13907849832322,215.630104203643 91.61433447099989,215.86424244614682 90.78498293514713,216.08667290541416 90.20904436861747,215.9227768598139 89.86348122867639,216.00472494021597 87.96672354949987,217.51489036978455 86.51535836179391,218.21727956509858 86.5,218.56847098903745 87.8822525597352,217.87779251073516 90.14761092152912,216.00472494021597 91.1228668942058,216.13350026237094 93.18856655291165,215.91106998176474 95.18515358361765,215.91106998176474 96.36006825938239,216.12179342667878 97.18941979520605,216.70713233221977 96.71331058020587,217.7021949827249" stroke="#4dd2ff" stroke-linecap="round" stroke-linejoin="round" stroke-width="0.5"><title>2022-04-19 7.2km</title></polyline><polyline fill="none" points="127.5375152604247,218.30025505603408 127.57653282466345,218.08217834392417 129.48839347314788,217.96322720709577 131.41325997633976,217.24951737641095 134.37859485967783,218.55798145832523 135.56212764204247,218.47868109847332 135.82224473706447,218.99413229891798 137.7861288045533,217.72532450340805 138.2283278660907,218.08217834392417 139.034690860688,219.54923058227723 138.76156791092944,221.98766107604024 139.4248665032501,223.63307201512362 140.38729975483147,225.15951306728675 142.62430677207885,227.28063223356003 147.1763559351093,233.16798593242856 148.85411119801574,238.40089455773705 149.0491990193259,238.40089455773705 149.40035709759104,238.24232564333943 149.34833367861575,237.19180015384336 147.5925432871154,232.9499420549182 147.03329153280356,230.43249150842894 148.3989062817418,229.42152873846499 146.9422505495604,223.05817251437838 145.45958310787682,219.2518568900341 142.5332657888066,215.78243096662482 138.63150936341844,212.4516673786202 137.2919063240115,211.81722347876348 136.49854918417986,211.5 136.36849063666887,213.06628101872047 136.9797658099851,213.85932522335497 139.54191919602454,215.98068716075068 141.12863347568782,218.20112933750352 142.3511838223203,220.22327430228324 142.9234414313687,222.44362107059715 146.65612174503622,221.90836347072036 147.3844496110978,224.02955247912905 148.46393555548275,229.48099742325576 147.2543910635868,230.35320068483998 148.2168243152264,234.05997859954368 149.68648590211524,238.16304109067278 148.98416974552674,238.5 148.5029531197215,237.8459022432653 147.16335008031456,233.94104670947127 146.35698708574637,232.375096797281 142.83240044809645,227.7563910239478 140.24423535258393,225.2388080615492 138.5924917991506,222.36432383152714 138.50145081590745,221.59117241269269 138.89162645844044,219.80695372440096 140.97256321864552,218.53815637429943 142.325172112789,220.2034495525877 143.0014765598753,222.48326966632158 146.35698708574637,221.67047027274384 145.14744259385043,218.97430730253836 141.6748793752049,215.0092280054887 138.5924917991506,212.51114628523646 136.5115550389164,211.5198264972496 136.4335199103807,213.3041949489707 137.6040468380379,214.4541041965931 136.5115550389164,215.3660916630397 135.15894614477293,215.0092280054887 134.69073537370423,215.32644020922453 133.96240750764264,216.21859406828298 134.14448947415804,217.9434020036715 130.88001993155922,218.47868109847332 130.16469792017597,219.19238204408612 128.1357845790044,220.3620474380732 126.6271054278186,222.28502652872703 125.31351409791387,221.57134793775185 127.23838060113485,216.9323113511491 128.92914171880693,216.9521367576017 130.63290869124467,216.2978962433408 131.38724826680846,217.24951737641095 129.74851056816988,218.2407796368425 127.18635718213045,218.32008018775377" stroke="#4dd2ff" stroke-linecap="round" stroke-linejoin="round" stroke-width="0.5"><title>2022-04-10 10.4km</title></polyline><polyline fill="none" points="163.8302248607797,218.35084018868656 163.97477489203447,218.13049885035434 165.59110705921194,218.23065406445676 167.9564712063293,217.32925351746235 168.75806683397968,217.93018812041555 170.9000354783202,218.65130486576527 172.09585846381378,218.53111910351436 172.27983123081503,219.09198475509038 174.38237713937997,217.89012592618383 175.57820012484444,219.51263192448823 175.3548046220676,222.0565079605076 175.98556839462253,223.67894619907747 177.41792779485695,225.88221514147153 179.4547691437474,227.74494092480745 183.85697463981342,233.4330495669783 185.47330680701998,238.47997303446755 186.1697751392494,238.5 183.77812916820403,231.0697198622438 183.76498825629824,230.44883582370676 185.15792492075707,229.74783307160396 183.4890291058109,222.21674994853674 182.14865608909167,219.47257036571682 179.29707820064505,215.96712168193335 175.21025459087105,212.50161418764037 173.08142685843632,211.5 173.01572229882004,213.44312235416874 176.169541161682,215.96712168193335 177.73330968111986,218.71139769255387 175.69646833222941,219.77303166424826 174.46122261096025,217.97025029864017 172.4375221739756,219.1520773164375 170.01959437911864,218.2106230296995 168.96832142482162,218.13049885035434 167.6279484081606,218.51108812908933 165.97219350514933,219.69290873980935" stroke="#4dd2ff" stroke-linecap="round" stroke-linejoin="round" stroke-width="0.5"><title>2022-04-09 5.2km</title></polyline><polyline fill="none" points="13.815351578057744,248.33587961900776 15.288227090379223,248.21560425768257 15.327679113048362,248.015145000114 18.049868676054757,247.23335004969704 18.799457106448244,247.93496118443727 20.009319134493126,248.09532875144214 20.91671565544675,248.5764299069342 22.04767363818246,248.5764299069342 22.37644049359369,249.05752874397876 24.388493648875738,247.77459335976164 24.980273988621775,248.31583373555623 25.650958373764297,249.57871653450275 25.414246237807674,252.04429881557007 26.0586292744847,253.7681657039575 27.68931287745363,256.07329003035557 29.517256593651837,257.71691139406175 33.87012975962716,263.4292874016537 35.579717407905264,268.5 36.18464842191315,268.39979078290344 36.06629235393484,267.2373565141097 34.73807425799896,264.13078473016503 33.79122571431799,260.5430751098538 34.00163650180912,260.18229270686425 35.145745158719365,259.64111665801465 34.44875942519866,255.8928909157039 32.975883912848076,250.78144720534328 32.10793941447628,249.07757447852782 30.56931053104927,247.23335004969704 26.847669727547327,243.64503314968897 25.348492866760353,242.5023576757958 23.139179598219926,241.5 22.968220833397936,242.84315699284343 23.20493296929635,243.58489266136166 26.019177251815563,245.87020574878989 27.807668945431942,248.5764299069342 25.808766464324435,249.67894464386336 24.3490416262066,247.91491522046272 22.54739925841568,249.01743726277346 19.86466171804932,248.11537467924063 17.45808833630872,248.47620069074037" stroke="#4dd2ff" stroke-linecap="round" stroke-linejoin="round" stroke-width="0.5"><title>2022-04-07 5.0km</title></polyline><polyline fill="none" points="51.31050450686598,247.6497524219012 51.19223620451521,247.89012592524523 51.52075926656835,248.0904367355397 53.058247196895536,248.0904367355397 55.725854460702976,247.30922230073338 56.527450732071884,247.93018811945512 57.93352943760692,248.1505299001874 58.446025414421456,248.4910571495493 59.65499028269551,248.5511500728826 59.90466780986753,249.0318921564467 61.98093356197933,247.78997036921646 62.611697841086425,248.310778162333 63.321307655074634,249.7329702089046 63.097911972901784,252.2968708447297 64.24117222879431,254.60031912942213 65.38443248471594,256.1025393581367 66.94820226004231,257.34435766900424 71.58694789608126,263.4130215835103 73.20328136134776,268.5 73.80776379551389,268.43991909125907 73.76834102804423,267.41853810810426 71.71835712090251,262.7120396582395 71.32412944643875,260.3887500653509 72.63822169462219,259.80791921357013 72.73020815197378,259.2471138033143 71.24528391152853,253.0780462229377 70.27285564789781,250.2337372299662 69.18215908194543,248.69136675326445 68.44626742295804,249.11201561183407 68.86677694236278,248.41093319544598 66.79051119025098,245.76680660721468 63.03220736052026,242.62180721408367 60.719405003706925,241.5 60.58799577888567,242.86219283301762 60.837673306057695,243.603378177977 63.6235488721577,245.74677507773595 65.55526447697775,248.33080917699408 64.32001776370453,249.31232396867563 63.34758950007381,249.69290873863065 62.19118832168169,247.9902813806184 61.704974189866334,248.07040567258082 61.31074651540257,247.62972127051762 60.67998223632458,245.50639640979352 61.90208802706911,244.36458982706245 63.649830717156874,245.82690117162565 65.54212355450727,248.41093319544598 63.58412610471714,249.6328165031082 63.36073042251519,249.6728779974219 62.02035632941988,247.87009482205758 60.062358879629755,249.0318921564467 59.60242659278447,248.65130486464477 58.4066026469518,248.5311191024157 55.58130431341124,247.46947191431536 54.148943762877025,248.1705609470664 52.25665092552663,248.2907471436847" stroke="#4dd2ff" stroke-linecap="round" stroke-linejoin="round" stroke-width="0.5"><title>2022-04-03 6.2km</title></polyline><polyline fill="none" points="111.5983606557129,259.3734271231733 112.17213114758488,256.99934175964154 111.9918032787391,256.02470412857656 113.5,255.27497767958994 113.5,254.55023781881027 108.97540983610088,251.65123616644996 106.4016393442871,250.9514670284334 100.87704918032978,251.0264424814959 95.893442622968,251.80118618406414 93.71311475412222,251.62624447930284 89.81147540983511,254.77515753759508 86.64754098356934,256.3495841870754 86.5,257.02433236772777 89.25409836065955,255.84976836116402 93.7950819671969,251.85116948313953 94.71311475412222,251.55126938764442 98.66393442626577,251.6012527870771 101.02459016395733,251.0764260916767 106.68032786890399,251.57626108982367 109.5,252.77585689423722 110.106557377032,252.35100136935944 109.56557377049467,251.80118618406414 105.106557377032,250.87649153036182 97.38524590164889,251.426310801231 95.87704918032978,251.8761611250884 93.87704918032978,251.62624447930284 88.92622950818622,255.4998960886005 86.5,256.474537829934 86.72950819676043,257.02433236772777 89.696721311484,255.54987790199084 93.696721311484,251.97612764290534 94.90983606560621,251.5262776804302 95.64754098362755,251.65123616644996 98.31967213115422,251.0014506688094 105.71311475412222,250.6265728768194 110.12295081972843,251.92614439397585" stroke="#4dd2ff" stroke-linecap="round" stroke-linejoin="round" stroke-width="0.5"><title>2022-03-24 5.1km</title></polyline><polyline fill="none" points="140.0247747815738,267.86339030943054 139.27927041694056,267.69665831222665 138.21568419007235,268.5 137.7385613967199,268.25748265611765 137.5,267.6511858854137 137.19185819593258,264.9076320847671 136.83401610091096,264.0587775482127 136.4065935985418,263.75561289883626 133.9315191079222,263.69497982279427 132.66913171712076,262.4823080667411 144.88546323904302,246.15481635997276 139.03076896205312,241.5 130.11453676098608,259.6930890433068 135.61138894292526,265.30173987273884 135.94935092155356,265.0288962388513" stroke="#4dd2ff" stroke-linecap="round" stroke-linejoin="round" stroke-width="0.5"><title>2021-10-26 5.0km</title></polyline></svg>