<?xml version="1.0" encoding="utf-8" ?>
<svg baseProfile="full" height="300mm" version="1.1" viewBox="0,0,200,300" width="200mm" xmlns="http://www.w3.org/2000/svg" xmlns:ev="http://www.w3.org/2001/xml-events" xmlns:xlink="http://www.w3.org/1999/xlink"><defs /><rect fill="#222222" height="300" width="200" x="0" y="0" /><text fill="#FFFFFF" style="font-size:12px; font-family:Arial; font-weight:bold;" x="10" y="20">Over 5km Runs</text><text fill="#FFFFFF" style="font-size:4px; font-family:Arial" x="10" y="280">ATHLETE</text><text fill="#FFFFFF" style="font-size:9px; font-family:Arial" x="10" y="290">Wenz</text><text fill="#FFFFFF" style="font-size:4px; font-family:Arial" x="120" y="280">STATISTICS</text><text fill="#FFFFFF" style="font-size:3px; font-family:Arial" x="120" y="285">Number: 2</text><text fill="#FFFFFF" style="font-size:3px; font-family:Arial" x="120" y="290">Weekly: 1.0</text><text fill="#FFFFFF" style="font-size:3px; font-family:Arial" x="141" y="285">Total: 10.1 km</text><text fill="#FFFFFF" style="font-size:3px; font-family:Arial" x="141" y="290">Avg: 5.0 km</text><text fill="#FFFFFF" style="font-size:3px; font-family:Arial" x="167" y="285">Min: 5.0 km</text><text fill="#FFFFFF" style="font-size:3px; font-family:Arial" x="167" y="290">Max: 5.1 km</text><polyline fill="none" points="146.39344262285158,107.49370849269326 148.6885245903395,97.99736703856615 147.9672131149564,94.09881651430624 154.0,91.09991071835975 154.0,88.2009512752411 135.90163934440352,76.60494466579985 125.60655737714842,73.8058681137336 103.50819672131911,74.10576992598362 83.57377049187198,77.20474473625654 74.85245901648887,76.50497791721136 59.245901639340445,89.10063015038031 46.59016393427737,95.39833674830152 46.0,98.09732947091106 57.01639344263822,93.3990734446561 75.18032786878757,77.40467793255812 78.85245901648887,76.2050775505777 94.65573770506307,76.4050111483084 104.09836065582931,74.30570436670678 126.72131147561595,76.3050443592947 138.0,81.10342757694889 140.42622950812802,79.40400547743775 138.26229508197866,77.20474473625654 120.42622950812802,73.50596612144727 89.54098360659555,75.70524320492405 83.50819672131911,77.5046445003536 75.50819672131911,76.50497791721136 55.7049180327449,91.99958435440203 46.0,95.89815131973592 46.91803278704174,98.09732947091106 58.78688524593599,92.19951160796336 74.78688524593599,77.90451057162136 79.63934426242486,76.10511072172085 82.5901639345102,76.60494466579985 93.27868852461688,74.00580267523765 122.85245901648887,72.50629150727764 140.49180327891372,77.70457757590339" stroke="#4dd2ff" stroke-linecap="round" stroke-linejoin="round" stroke-width="0.5"><title>2022-03-24 5.1km</title></polyline><polyline fill="none" points="110.09909912629519,261.45356123772217 107.11708166776225,260.7866332489066 102.86273676028941,264.0 100.95424558687955,263.0299306244706 100.0,260.6047435416549 98.76743278373033,249.6305283390684 97.33606440364383,246.2351101928507 95.62637439416721,245.02245159534505 85.72607643168885,244.77991929117707 80.67652686848305,239.9292322669644 129.54185295617208,174.61926543989102 106.12307584821247,156.0 70.45814704394434,228.7723561732273 92.44555577170104,251.20695949095534 93.79740368621424,250.1155849554052" stroke="#4dd2ff" stroke-linecap="round" stroke-linejoin="round" stroke-width="0.5"><title>2021-10-26 5.0km</title></polyline></svg>