<?xml version="1.0" encoding="utf-8" ?>
<svg baseProfile="full" height="300mm" version="1.1" viewBox="0,0,200,300" width="200mm" xmlns="http://www.w3.org/2000/svg" xmlns:ev="http://www.w3.org/2001/xml-events" xmlns:xlink="http://www.w3.org/1999/xlink"><defs /><rect fill="#222222" height="300" width="200" x="0" y="0" /><text fill="#FFFFFF" style="font-size:12px; font-family:Arial; font-weight:bold;" x="10" y="20">Over 5km Runs</text><text fill="#FFFFFF" style="font-size:4px; font-family:Arial" x="10" y="280">ATHLETE</text><text fill="#FFFFFF" style="font-size:9px; font-family:Arial" x="10" y="290">Wenz</text><text fill="#FFFFFF" style="font-size:4px; font-family:Arial" x="120" y="280">STATISTICS</text><text fill="#FFFFFF" style="font-size:3px; font-family:Arial" x="120" y="285">Number: 14</text><text fill="#FFFFFF" style="font-size:3px; font-family:Arial" x="120" y="290">Weekly: 2.3</text><text fill="#FFFFFF" style="font-size:3px; font-family:Arial" x="141" y="285">Total: 100.5 km</text><text fill="#FFFFFF" style="font-size:3px; font-family:Arial" x="141" y="290">Avg: 7.2 km</text><text fill="#FFFFFF" style="font-size:3px; font-family:Arial" x="167" y="285">Min: 5.0 km</text><text fill="#FFFFFF" style="font-size:3px; font-family:Arial" x="167" y="290">Max: 10.4 km</text><polyline fill="none" points="27.53396728791995,46.249177933699684 30.146671738359146,46.199082100516534 32.79224039561814,45.27230555895949 36.095093191368505,46.67499170298106 37.83689615823096,46.87537415024417 38.05051350325812,47.501567223524034 40.79467478132574,45.87345869489218 42.28999619628303,48.12775715335738 41.895625713223126,51.10837812964019 42.75009509321535,53.237349511444336 44.78767592244549,56.2178484079559 46.90741726895794,58.071231981914025 52.116394066251814,64.70812298982491 52.90513503237162,66.03545882354229 54.614073792356066,71.77038906758389 55.600000000034925,71.74534627710091 55.35351844812976,70.21772655422683 53.283073411963414,65.58466710506036 52.57649296312593,62.60439198558015 52.527196652721614,61.65269249634002 54.02251806773711,61.026570452027954 54.23613541270606,60.625850694443216 51.55770254856907,50.08144953230658 50.11167744389968,47.226042658570805 48.50133130472386,45.14706495768041 42.405020920501556,39.71150170874898 38.08337771019433,37.381902093264216 33.055154050991405,36.27971076944959 27.681856219132897,36.22961093241611 23.475237733044196,37.0312059102871 20.99399011034984,37.00615614522394 13.336629897356033,37.93299410311738 13.287333586951718,38.884874567142106 12.991555724584032,39.260614856131724 12.515024724241812,39.08526952874672 12.400000000023283,39.88684615576494 12.515024724241812,41.16434825865872 13.188740966143087,41.990960294795514 15.883605933864601,43.64416793430428 20.27097755804425,44.87153519221465 21.19117535185069,47.00061301641108 21.2240395587869,49.17974915942614 25.151312286034226,50.25677940346941" stroke="#4dd2ff" stroke-linecap="round" stroke-linejoin="round" stroke-width="0.5"><title>2022-05-01 6.0km</title></polyline><polyline fill="none" points="88.22982216143282,44.8283434156765 88.11162790696835,44.498037678858964 90.77099863206968,44.76828788142302 92.58331053354777,44.107675412873505 92.70150478801224,44.94845441184589 92.68180574552389,44.107675412873505 94.25772913818946,43.50711609091377 95.47906976746162,44.37792632088531 97.29138166893972,44.58812113394379 98.59151846787427,45.33881448309694 100.36443228460848,45.24873148021288 100.77811217511771,46.05947655302589 103.5556771546253,44.31787060578063 104.087551299599,44.43798201200843 105.70287277706666,46.930271920587984 105.34829001367325,50.98390775262669 106.35294117656304,53.17582802459947 107.81067031470593,55.57789553809562 111.10041039669886,58.640475664215046 117.71928864577785,66.95716607625945 120.75294117652811,75.48354544278118 121.60000000003492,75.27339404739905 121.5015047880006,74.07252326632442 117.99507523945067,64.37513841118198 118.19206566351932,62.96401143068215 120.02407660748577,61.913163540608366 117.54199726408115,51.34422562015243 115.394801641698,46.269669002562296 111.29740082082571,41.28502562879294 105.70287277706666,36.63053994264919 99.83255813957658,33.777719042118406 96.05034199723741,32.84678676012845 90.65280437760521,32.51645455720427 84.6839945280226,33.11705801963399 84.01422708621249,33.53747900799499 85.09767441864824,34.588526307750726 87.65854993159883,35.339269856049214 94.55321477435064,34.528466661053244 96.32612859102665,34.91885393335542 99.55677154590376,37.711594695880194 101.50697674421826,37.05095105311193 102.68891928868834,38.49235160177341 106.51053351577139,41.525253216488636 108.93351573194377,45.45892506929522 105.80136798910098,47.260572285347735 105.28919288644101,49.872922195718274 105.58467852260219,51.64448984678893 108.38194254448172,56.20843186744605 111.57318741455674,59.12087469956896 117.99507523945067,67.58765443238372 120.67414500686573,75.45352383296995 121.56060191523284,75.30341569341545 121.48180574562866,74.07252326632442 119.27551299589686,68.66848543086962 118.01477428182261,63.594516620607465 118.25116279075155,63.02405965849175 120.00437756499741,61.913163540608366 117.79808481538203,52.30506902303023 115.33570451446576,46.05947655302589 110.96251709986245,40.89465497560741 105.50588235299801,36.420333944202866 100.62051983590936,33.98792875534855 92.99699042411521,32.69663584922091 90.43611491104821,32.54648478758463 83.12777017790359,33.627569065996795 78.75458276341669,33.807749019237235 78.40000000002328,36.5704811160831 81.72913816693472,38.22209005721379" stroke="#4dd2ff" stroke-linecap="round" stroke-linejoin="round" stroke-width="0.5"><title>2022-04-30 10.1km</title></polyline><polyline fill="none" points="159.4418285714928,47.391455477620184 161.8445714286645,47.541971986465796 164.74102857144317,46.48835261613567 168.44388571428135,48.11895025733247 169.90857142861933,47.968434443602746 170.33645714289742,48.570496610715054 173.00251428573392,47.140594226439134 174.4178285714588,49.47358442136465 173.9734857143485,52.23297895234282 175.10902857145993,54.992312540380226 176.98514285718556,57.65124906945857 178.97645714285318,59.281701028579846 184.63771428575274,66.53068369029643 186.62902857142035,72.67568564345129 186.89234285714338,73.15222418869234 187.60000000003492,72.97665756769857 187.36959999997634,71.02032710183266 184.63771428575274,63.5960251128854 184.7364571429207,62.81845445174258 186.15177142858738,62.26662717589352 186.33280000003288,61.89037990862562 184.32502857141662,53.161125233746134 182.49828571430407,49.12238438176428 177.8080000000191,43.6535706719078 173.95702857145807,40.542762480872625 170.2706285714521,38.68627552391263 164.67520000005607,37.48205301651615 160.9229714286048,37.38170061686105 157.00617142859846,37.75802169968665 155.39337142865406,38.2848693111664 153.61600000003818,38.1845175565104 145.91405714291614,39.08768044684257 145.4532571429154,39.213119220745284 145.17348571430193,40.116274674881424 144.40000000002328,40.01592439135129 144.56457142863655,38.008901791828976 150.94994285720168,37.507141103786125 151.03222857153742,35.6756974899763 151.59177142864792,34.847775811307656 152.66148571431404,35.47498970812012 151.72342857148033,37.28134813664656 151.3449142857571,40.86889923244598 154.83382857148536,41.99782756732748 152.66148571431404,46.638870213100745 153.2539428572054,48.545410744976834 153.15520000003744,50.351580201073375 156.1010285714874,51.12922845335561 158.454400000046,52.684510437036806 160.39634285715874,50.22615261026658 158.58605714293662,49.27289880533499 158.93165714293718,47.74266038294445 159.3760000000475,47.59214411580615" stroke="#4dd2ff" stroke-linecap="round" stroke-linejoin="round" stroke-width="0.5"><title>2022-04-28 7.1km</title></polyline><polyline fill="none" points="37.23030907276552,98.27527999331505 37.38105682953028,98.43941495390027 37.628713858430274,98.24245296164008 38.95314057826181,98.27527999331505 40.62213359918678,97.66797777335887 41.53738783652079,98.27527999331505 42.21575274181669,98.30810701176233 42.92642073778552,98.70203020536428 43.93858424725477,98.70203020536428 44.30468594215927,99.14519152905996 45.97367896314245,98.09473115598666 46.83509471587604,99.6868298841946 46.598205383867025,101.45943940886355 47.179661016969476,103.03506005109375 47.96570289134979,104.33164175969432 49.83928215355263,106.08773862646194 53.532602193416096,110.7978308553138 54.83549351943657,114.81842659983522 55.14775672982796,115.17945001249609 55.60000000000582,115.01534865894791 55.470787637110334,114.24406788496708 54.24327018944314,111.47067902152048 53.511066799634136,108.8941328742585 53.564905284147244,108.23767501564726 54.641674975078786,107.77815137811558 53.037288135587005,101.08194245365303 52.11126620142022,99.30932474297879 49.71006979062804,96.40411814756226 47.79341974077397,94.69705594293919 45.81216350948671,93.38390691067616 44.06779661017936,92.49751938792178 41.31126620143186,91.82451503432094 38.468594217381906,91.67678162967786 35.58285144568072,91.90658903270378 35.35672981059179,91.3156544051817 32.578664008004125,89.50999434980622 30.123629112698836,88.86979620628699 24.696709870389896,89.26376488803362 24.082951146556297,89.50999434980622 22.812362911266973,89.29659552579687 22.101694915269036,89.60848592685215 19.032901296101045,91.98866294862091 17.39621136590722,92.69449522368086 13.207577268214663,92.53034872685384 12.7553339980077,92.31695778818539 12.39999999999418,92.7929829635541 17.223928215360502,93.08844547111948 18.2037886340986,92.84222678896913 19.75433698904817,92.00507772190758 22.844666002027225,89.29659552579687 23.64147557329852,89.39508735994605 25.59042871388374,88.95187317153614 30.64047856433899,88.82054998751119 33.6338983050955,89.82188393661636 35.453639082756126,91.46338846260915 35.39980059824302,91.93941860891937 34.495314057858195,92.33337249556644 34.6137587238336,93.13768911853549 34.2476570289291,94.68064171024889 33.49391824527993,95.61624771376228 32.438683948188554,98.0290769344283 33.020139581291005,98.94823123737297 32.99860418745084,100.27770399675501 34.40917248255573,100.58955250089639 36.49810568295652,101.73845777707902 37.69332003989257,100.0150938073275 39.86839481559582,98.76768388641358 41.289730807591695,98.25886647911102 39.814556331024505,97.04425728338538 38.73778664009296,97.50384126375138 37.25184446660569,97.55308225124463 36.60578265204094,99.243671496959 36.88574277170119,99.62117694141489 37.768693918245845,100.04792012718826 39.103888334997464,99.16160486530134 38.834695912286406,98.58713613666623 37.316450648067985,98.53789577208954" stroke="#4dd2ff" stroke-linecap="round" stroke-linejoin="round" stroke-width="0.5"><title>2022-04-27 10.1km</title></polyline><polyline fill="none" points="87.04785211395938,92.87791720412497 89.26765404699836,92.69664736419509 93.58833995234454,91.39754045338486 94.57932295819046,92.18304829827684 96.58110862993635,92.57580068288371 97.82974721729988,93.42172541374748 99.5540576474159,93.48214842683228 100.08918847056339,94.08637722300773 102.98285884747747,92.24347180880432 103.97384185332339,92.81749394838698 105.04410349961836,94.96250466741913 104.74680859787622,98.88990983019175 105.77743092388846,101.36714344048232 108.45308503968408,105.0224990327115 110.55396901193308,106.74441263475455 117.31247311166953,115.50472056152648 119.88902892678743,123.60000000000582 121.01874955341918,123.35835617328121 120.9592905730824,122.45218836703862 118.40255441801855,115.92761907423846 117.53048937290441,112.48398233488842 117.41157141217263,111.21525419672253 119.433176744089,110.09755625967227 116.97553888970288,99.28264470832073 114.67645831615664,94.38849071114964 110.3359527506982,89.16184183341102 106.76841392973438,85.98950975213666 104.62789063714445,84.38821196569188 98.68199260230176,81.4877046571637 90.71448923554271,80.40000000000873 83.79742785484996,80.94385331157537 82.4100516467588,81.4877046571637 82.60824824793963,82.99839252451784 81.89474048372358,85.68737939884886 80.66592155647231,87.16781233326765 79.79385651135817,89.6754512124462 78.98125044658082,90.76308881570003 80.24970869405661,90.79330085907714" stroke="#4dd2ff" stroke-linecap="round" stroke-linejoin="round" stroke-width="0.5"><title>2022-04-25 5.0km</title></polyline><polyline fill="none" points="169.20920460228808,98.41871310080023 171.10015007507172,98.27047448642406 172.63451725864434,97.59516185320535 173.2936468234111,98.08929359394097 174.29854927465203,98.25400351275312 174.89284642320126,98.5998932656803 175.84372186096152,98.58342235815508 176.28674337171833,99.01166487941373 178.0048024012067,97.9739964540131 178.8908454227494,99.40696368399222 178.66393196597346,101.35048843288678 179.22581290645758,102.88221701764269 180.36038019010448,104.61155362674617 181.95957978989463,106.02793550192291 185.63341670838417,110.75452130036138 187.13536768383346,115.21735410198016 187.60000000000582,115.05267823854956 187.5675837918825,114.41043921290111 186.89764882443706,112.30254246571712 186.2277138569334,111.11682674456097 185.64422211106285,109.00884536926606 185.59019509758218,108.35009008127236 186.74637318661553,107.79014392726094 185.2984492246469,101.66342455452832 184.1638819409709,99.19284373465052 182.8240120059927,97.47986401872913 181.2032016008452,95.73390557416133 178.728764382191,93.72436023067712 176.26513256630278,92.47248742421652 172.58049024510547,91.66534877379308 170.1816908454348,91.58298724045017 167.69644822413102,91.92890512478334 167.3830915457802,91.17117833317025 164.56288144073915,89.42508559797716 161.9047523762274,88.78264589801256 157.3664832416107,89.06268433460355 156.12386193097336,89.42508559797716 154.45982991496567,89.34272181509732 151.99619809907745,91.33590214416472 150.0728364182287,92.42307100036851 148.75457728869515,92.68662491674331 145.2104052026407,92.48895955885382 144.60530265135458,92.24187719170732 144.39999999999418,92.65368072350248 148.14947473737993,93.03253814680647 149.8675337668974,92.88428979829769 151.55317658832064,92.02773853809049 154.47063531764434,89.54039475507307 154.95687843923224,89.34272181509732 156.28594297153177,89.474503828038 159.18179089543992,89.16152120160405 162.04522261134116,89.22741238010349 163.5255627813749,89.4580310879901 164.87623811908998,90.10046549799881 165.31925962984678,89.65570375006791 163.09334667332587,88.93090166003822 160.11105552778463,88.88148310245742 156.64252126062638,89.19446679748216 155.56198099051835,89.49097656475351 157.84192096051993,89.39214009474381 159.28984492245945,89.07915715406125 160.14347173587885,89.29330350568489 162.17488744371803,89.19446679748216 164.06583291647257,89.75453990248934 164.6601300650509,90.34755431590747 164.04422211108613,91.73123794094863 163.78489244624507,93.83966334403522 165.9567783892271,94.53147862049809 164.83301650828798,97.26573903903045 165.913556778396,96.90337241540692 167.826113056537,96.95278614014387 169.22001000502496,97.31515254547412 168.99309654827812,98.08929359394097" stroke="#4dd2ff" stroke-linecap="round" stroke-linejoin="round" stroke-width="0.5"><title>2022-04-22 10.1km</title></polyline><polyline fill="none" points="34.847781569988,145.96519960090518 36.56791808872367,145.94647068731865 36.69078498292947,145.5906206141808 38.509215017053066,145.08493659595842 39.30784982937621,145.64680755805603 40.45051194541156,145.81536818674067 41.23686006828211,146.28359055684996 42.15836177475285,146.20867513561097 42.600682593882084,146.73308182098117 44.64027303754119,145.57189162537543 45.70921501706471,147.2762142084539 45.48805460752919,149.42998391887522 46.11467576792347,151.17169174998708 47.46621160409995,153.1006420389749 49.137201365228975,154.59882833340816 53.37610921499436,160.04827803715307 55.01023890785291,164.91693290623516 55.59999999997672,164.91693290623516 55.31740614338196,163.21293260529637 54.26075085325283,160.89094802496402 53.38839590444695,157.89475348425185 53.36382252559997,157.27677638892783 54.44505119451787,156.78988246070367 54.641638225264614,156.47152736433782 53.2040955631237,150.29147787855618 52.43003412973485,148.17518500387814 51.72969283279963,146.88291176101484 49.06348122868803,143.64278563391417 45.402047781593865,140.55238705615193 42.588395904458594,139.14762657915708 39.60273037542356,138.47333403502853 36.125597269652644,138.22983830714657 32.9187713310821,138.56698606877762 32.50102389079984,137.72411437958363 29.404778156982502,135.75738414876832 26.419112628005678,135.08306709377212 17.658703071676427,135.75738414876832 14.734470989758847,138.2111078402304 12.436860068235546,139.2787384522453 12.39999999999418,139.82191424860503 14.623890784976538,138.7355594925757 18.27303754267632,135.60753633562854 21.676450511964504,135.73865318526805 23.13856655289419,135.36403312581388 24.391808873740956,135.60753633562854 27.1194539249409,135.55134334364266 28.55699658705271,136.00088633155974 29.466211604099954,136.65646597165323 28.778156996588223,138.34222102977947 28.55699658705271,140.9082563515185 31.00204778157058,141.6387206511572 29.687372013635468,144.69162490860617 31.726962457352784,144.0735603347057 35.64641638225294,144.87891639511508 37.722866894182516,144.20466528351972" stroke="#4dd2ff" stroke-linecap="round" stroke-linejoin="round" stroke-width="0.5"><title>2022-04-21 8.1km</title></polyline><polyline fill="none" points="100.39317406143527,145.94648595120088 102.4081911262765,145.8153835559351 102.91194539246499,145.6093651339761 103.12081911260611,145.19732692476828 102.98566552900593,145.83411248085758 104.48464163820609,145.08495255186426 107.1262798634998,146.18996133925975 108.25665529008256,146.17123248583084 108.60068259382388,146.65818145303638 110.54197952215327,145.45953326850577 111.63549488052377,147.0514845322905 111.43890784980613,149.50490915892442 112.2006825938588,151.2840698575019 113.10989761090605,152.70737398352503 115.29692832764704,154.80483521681163 119.48668941980577,160.17936436919263 121.07167235494126,164.9918332741654 121.59999999997672,164.84203253829037 121.41569965871167,163.9244977823255 120.11331058020005,160.77859581923985 119.33924914675299,157.48277520819101 119.47440273035318,157.145696082036 120.55563139932929,156.71498209275887 120.13788395901793,154.14938364770933 119.00750853240606,149.6360063685206 117.70511945389444,146.90165498334682 114.89146757678827,143.47423832864297 111.38976109214127,140.58986661239032 108.72354948802968,139.22256833682331 106.2784982935118,138.52954648801096 102.2853242320707,138.1923988617491 98.69761092148838,138.54827687593206 98.6730375426414,138.34224240164622 98.50102389077074,137.74286679769284 95.22047781565925,135.66375281732326 92.22252559728804,135.00816672582732 86.58293515359401,135.38278791383345 85.2559726962063,135.73867664865975 84.33447098973556,135.47644297569786 83.78156996588223,135.60755990433972 80.74675767918234,138.02382459165528 78.42457337884116,139.1476473041621 78.39999999999418,139.70955358246283 80.61160409558215,138.60446801717626 84.23617747440585,135.60755990433972 85.79658703072346,135.81360041979497 89.10170648465282,135.4577119708265 92.29624573377077,135.4577119708265 94.17610921501182,135.7948694826846 95.50307167234132,136.73141173154727 94.74129692831775,138.3235119723613" stroke="#4dd2ff" stroke-linecap="round" stroke-linejoin="round" stroke-width="0.5"><title>2022-04-19 7.2km</title></polyline><polyline fill="none" points="150.06002441665623,139.28040808966034 150.1224525194266,138.9314853502874 153.1814295569784,138.74116353136196 156.26121596212033,137.59922780227498 161.00575177546125,139.69277033332037 162.89940422726795,139.56588975756313 163.31559157930315,140.39061167827458 166.45780608721543,138.36051920546743 167.1653245856869,138.9314853502874 168.45550537708914,141.27876893166103 168.01850865746383,145.18025772167312 169.07978640514193,147.8129152242036 170.619679607742,150.25522090766754 174.1988908352796,153.6490115737106 181.48216949612834,163.06877749189152 184.1665779168252,171.44143129237636 184.4787184309098,171.44143129237636 185.04057135613402,171.187721029346 184.95733388577355,169.50688024614647 182.14806925936136,162.7199072878866 181.2532664524624,158.69198641349794 183.4382500507636,157.0744459815469 181.10760087927338,146.89307602301415 178.73533297260292,140.8029710240662 174.05322526209056,135.25188954660553 167.81041498144623,129.92266780580394 165.6670501183835,128.90755756602448 164.39767869462958,128.40000000000873 164.18958501861198,130.90604962994985 165.1676252959296,132.17492035738542 169.26707071362762,135.5690994572069 171.80581356107723,139.12180694000563 173.7618941156543,142.35723888366192 174.67750629014336,145.90979371295543 180.64979479205795,145.05338155316713 181.81511937774485,148.4472839666123 183.5422968887142,157.16959587721794 181.60702570172725,158.5651210957585 183.14691890432732,164.4959657592699 185.49837744334945,171.06086574507935 184.3746715928428,171.60000000000582 183.60472499154275,170.5534435892332 181.46136012848,164.30567473516567 180.1711793371942,161.80015487565834 174.53184071695432,154.4102256383194 170.39077656413428,150.38209289847873 167.74798687861767,145.78291813044052 167.60232130542863,144.5458758603054 168.22660233348142,141.69112595904153 171.5561011498212,139.66105019889073 173.72027538041584,142.32551928414614 174.80236249580048,145.97323146612325 180.1711793371942,144.67275243639597 178.23590815014904,140.3588916840672 172.67980700032786,134.01476480878773 167.74798687861767,130.01783405638707 164.4184880622197,128.43172239561682 164.29363185662078,131.28671191836474 166.16647494083736,133.12656671454897 164.4184880622197,134.58574666087225 162.25431383162504,134.01476480878773 161.50517659791512,134.52230433476507 160.33985201222822,135.9497505092586 160.6311831586645,138.70944320588023 155.40803189045982,139.56588975756313 154.26351667230483,140.70781127053488 151.01725532638375,142.57927590092004 148.60336868447484,145.6560424459749 146.50162255665055,144.51415670040296 149.58140896179248,137.09169816183567 152.28662675007945,137.12341881217435 155.01265390595654,136.07663398934528 156.2195972268819,137.59922780227498 153.5976169090718,139.1852474189509 149.4981714913738,139.31212830041477" stroke="#4dd2ff" stroke-linecap="round" stroke-linejoin="round" stroke-width="0.5"><title>2022-04-10 10.4km</title></polyline><polyline fill="none" points="16.12835977721261,187.36134430191305 16.359639827220235,187.00879816057568 18.945771294704173,187.16904650314245 22.73035393015016,185.72680562795722 24.012906934309285,186.68830099268234 27.440056765277404,187.84208778523316 29.35337354207877,187.6497905656288 29.647729969234206,188.54717560815334 33.01180342299631,186.6242014819145 34.92512019973947,189.22021107919863 34.56768739531981,193.29041273682378 35.57690943137277,195.88631391854142 37.86868447175948,199.41154422637192 41.127630629984196,202.3919054797152 48.1711594236549,211.49287930718856 50.757290891197044,219.56795685517136 51.87164022278739,219.60000000000582 48.04500666912645,207.71155177960463 48.02398121007718,206.71813731794828 50.25267987314146,205.5965329145838 47.58244656928582,193.54679991767625 45.437849742535036,189.15611258515855 40.87532512098551,183.5473946911079 34.33640734537039,178.00258270023915 30.93028297345154,176.40000000000873 30.825155678088777,179.50899576669326 35.87126585864462,183.5473946911079 38.373295489815064,187.93823630810948 35.11434933153214,189.63685066280595 33.13795617752476,186.75240047783882 29.90003547834931,188.64332370631746 26.03135100658983,187.13699684753374 24.349314279737882,187.00879816057568 22.204717453045305,187.61774100655748 19.555509608180728,189.5086539837066" stroke="#4dd2ff" stroke-linecap="round" stroke-linejoin="round" stroke-width="0.5"><title>2022-04-09 5.2km</title></polyline><polyline fill="none" points="82.10456252488075,187.3374073904124 84.4611633446184,187.14496681229502 84.5242865808541,186.8242320001882 88.87978988169925,185.57336007952108 90.07913137035212,186.69593789509963 92.01491061522393,186.95252600230742 93.46674504876137,187.72228785109473 95.27627782110358,187.72228785109473 95.80230478977319,188.49204599038057 99.02158983820118,186.43934937562153 99.96843838185305,187.30533397689578 101.04153339803452,189.32594645521021 100.66279398050392,193.27087810491503 101.69380683917552,196.0290651263349 104.30290060391417,199.717264048566 107.2276105498313,202.34705823050172 114.1922076154151,211.48685984265467 116.92754785268335,219.60000000000582 117.89543747511925,219.4396652526484 117.70606776635395,217.5797704225697 115.58091881283326,212.60925556826987 114.0659611429437,206.8689201757661 114.40261840290623,206.2916683309886 116.23319225397427,205.42578665282053 115.11801508034114,199.42862546512333 112.76141426060349,191.25031552855216 111.37270306318533,188.52411916565325 108.91089684970211,185.57336007952108 102.95627156406408,179.832053039514 100.55758858681656,178.0037722812849 97.02268735721009,176.40000000000873 96.74915333348326,178.54905118855822 97.12789275089744,179.73582825818448 101.63068360293983,183.39232919807546 104.49227031267947,187.72228785109473 101.2940263429773,189.4863114301843 98.95846660196548,186.66386435274035 96.07583881350001,188.42789962043753 91.78345874889055,186.9845994867792 87.93294133810559,187.56192110518168" stroke="#4dd2ff" stroke-linecap="round" stroke-linejoin="round" stroke-width="0.5"><title>2022-04-07 5.0km</title></polyline><polyline fill="none" points="148.096807210939,186.2396038750594 147.90757792722434,186.6242014804011 148.43321482650936,186.9446987768897 150.89319551503286,186.9446987768897 155.16136713710148,185.69475568119378 156.44392117130337,186.68830099113984 158.69364710018272,187.04084784031147 159.5136406630627,187.58569143929344 161.44798445230117,187.6818401166238 161.8474684957764,188.45102745034092 165.16949369915528,186.46395259075507 166.1787165456917,187.29724505974445 167.31409224809613,189.5727523342648 166.9566591565963,193.6749933515821 168.7858755660709,197.36051060708996 170.6150919755455,199.76406297304493 173.11712361610262,201.75097227042716 180.53911663370673,211.460834533631 183.1252501780982,219.60000000000582 184.09242207277566,219.50387054603198 184.02934564487077,217.86966097298136 180.7493713934091,210.3392634532065 180.118607114302,206.6220001045731 182.22115471138386,205.69267074172967 182.36833304318134,204.7953820853145 179.992454258434,194.92487395671196 178.43656903662486,190.37397956795758 176.69145453110104,187.90618680523767 175.51402787672123,188.57922497895197 176.18684310774552,187.45749311272812 172.86481790436665,183.22689057156094 166.85153177683242,178.19489154256007 163.1510480059078,176.40000000000873 162.94079324620543,178.57950853284274 163.34027728968067,179.76540508477774 167.79767819546396,183.1948401244008 170.88842316315277,187.329294683208 168.91202842193889,188.89971834988683 167.35614320007153,189.50865398181486 165.50590131466743,186.78445020900108 164.72795870376285,186.91264907614095 164.09719442465575,186.20755403283692 163.08797157806111,182.81023425568128 165.0433408432873,180.98334372331738 167.83972914743936,183.32304187460977 170.86739768722327,187.45749311272812 167.73460176750086,189.41250640498765 167.37716867605923,189.4766047958983 165.23257012706017,186.59215171531832 162.09977420739597,188.45102745034092 161.3638825484668,187.84208778344328 159.4505642350996,187.64979056388256 154.9300869014114,185.95115506292495 152.63831002061488,187.0728975153179 149.61064148083096,187.26519542990718" stroke="#4dd2ff" stroke-linecap="round" stroke-linejoin="round" stroke-width="0.5"><title>2022-04-03 6.2km</title></polyline><polyline fill="none" points="52.55737704917556,252.9974833970773 53.47540983610088,249.19894681542064 53.186885245959274,247.6395266057225 55.600000000034925,246.4399642873468 55.600000000034925,245.2803805100848 48.36065573774977,240.6419778663112 44.24262295087101,239.52234724549635 35.40327868849272,239.6423079703818 27.429508196772076,240.88189789450553 23.94098360656062,240.60199116688455 17.69836065574782,245.64025206014048 12.63606557372259,248.1593346993177 12.400000000023283,249.23893178836443 16.806557377101853,247.35962937786826 24.072131147491746,240.96187117301452 25.54098360653734,240.48203102021944 31.86229508195538,240.56200445932336 35.63934426230844,239.7222817466827 44.688524590223096,240.52201774371497 49.20000000001164,242.44137103078538 50.17049180326285,241.761602190978 49.304918032779824,240.88189789450553 42.17049180326285,239.4023864485789 29.816393442684785,240.2820972819609 27.40327868849272,241.00185780014726 24.203278688539285,240.60199116688455 16.281967213144526,246.79983374176663 12.400000000023283,248.35926052788273 12.76721311477013,249.23893178836443 17.514754098374397,246.87980464319116 23.91475409839768,241.16180422864272 25.8557377049583,240.44204428869125 27.036065573745873,240.6419778663112 31.31147540989332,239.60232107009506 43.14098360657226,239.00251660290814 50.196721311542206,241.08183103035844" stroke="#4dd2ff" stroke-linecap="round" stroke-linejoin="round" stroke-width="0.5"><title>2022-03-24 5.1km</title></polyline><polyline fill="none" points="104.03963965049479,266.58142449508887 102.84683266712818,266.314653299567 101.14509470405756,267.59999999999854 100.38169823470525,267.2119722497955 99.99999999994179,266.2418974166576 99.50697311351541,261.85221133563755 98.93442576145753,260.4940440771388 98.25054975767853,260.00898063814384 94.29043057264062,259.9119677164708 92.27061074739322,257.9716929067872 111.81674118241062,231.84770617596223 102.4492303392617,224.40000000000146 88.18325881753117,253.50894246929238 96.97822230868042,262.4827837963894 97.51896147447405,262.0462339821679" stroke="#4dd2ff" stroke-linecap="round" stroke-linejoin="round" stroke-width="0.5"><title>2021-10-26 5.0km</title></polyline></svg>