<?xml version="1.0" encoding="utf-8" ?>
<svg baseProfile="full" height="300mm" version="1.1" viewBox="0,0,200,300" width="200mm" xmlns="http://www.w3.org/2000/svg" xmlns:ev="http://www.w3.org/2001/xml-events" xmlns:xlink="http://www.w3.org/1999/xlink"><defs /><rect fill="#222222" height="300" width="200" x="0" y="0" /><text fill="#FFFFFF" style="font-size:12px; font-family:Arial; font-weight:bold;" x="10" y="20">Over 5km Runs</text><text fill="#FFFFFF" style="font-size:4px; font-family:Arial" x="10" y="280">ATHLETE</text><text fill="#FFFFFF" style="font-size:9px; font-family:Arial" x="10" y="290">Wenz</text><text fill="#FFFFFF" style="font-size:4px; font-family:Arial" x="120" y="280">STATISTICS</text><text fill="#FFFFFF" style="font-size:3px; font-family:Arial" x="120" y="285">Number: 37</text><text fill="#FFFFFF" style="font-size:3px; font-family:Arial" x="120" y="290">Weekly: 2.8</text><text fill="#FFFFFF" style="font-size:3px; font-family:Arial" x="141" y="285">Total: 269.9 km</text><text fill="#FFFFFF" style="font-size:3px; font-family:Arial" x="141" y="290">Avg: 7.3 km</text><text fill="#FFFFFF" style="font-size:3px; font-family:Arial" x="167" y="285">Min: 5.0 km</text><text fill="#FFFFFF" style="font-size:3px; font-family:Arial" x="167" y="290">Max: 15.5 km</text><polyline fill="none" points="38.429009640647564,48.94106604759145 38.192375109530985,48.76071204438631 38.5,47.58840219647391 36.96187554774224,47.227688395745645 35.50657318139565,47.245724120220984 33.66082383872708,47.768758553575026 33.6963190184033,47.04733095217671 35.518404907983495,43.872980664767965 35.79053461877629,42.84489998657955 35.54206836107187,42.14146958414494 36.7370727432135,41.61840238019067 36.85539000874269,41.3117753615079 35.05696757227997,39.85077342540899 32.38299737073248,38.57012255225709 30.063978965801653,38.31759768953634 24.905346187530085,38.732459589147766 24.195442594209453,38.984983285445196 22.89395267306827,38.82264670502627 22.01840490795439,39.11124486733752 19.3444347064069,41.41999678175489 16.883435582829406,42.59238714262028 12.25723049955559,42.37594699709007 11.570990359323332,42.14146958414494 11.5,42.682570382654376 16.954425942181842,42.899009789325646 18.13759859770653,42.53827715515217 19.592900964053115,41.6905497618136 22.882120946538635,38.87675893109554 25.958369851025054,39.02105804125313 27.86327782648732,38.840684117334604 27.993426818575244,39.88684783344797 27.591148115694523,43.205631389260816 28.289219982427312,43.34992354462156 27.721297107782448,43.74672577673482 27.7686240139883,44.82890477248293 30.063978965801653,44.93712195489206 33.9684487291961,45.87499874103378 34.063102541607805,46.235717974203 33.49517966696294,47.93107896534639 34.05127081507817,49.44605532987771 33.9684487291961,50.852796217339346 36.76073619630188,51.68240231046366 37.97940403156099,49.157490373305336" stroke="#4dd2ff" stroke-linecap="round" stroke-linejoin="round" stroke-width="0.5"><title>2022-06-16 5.2km</title></polyline><polyline fill="none" points="75.74285714287544,50.184987654487486 75.71948051950312,48.93780388160667 74.64415584417293,48.652730843561585 73.17142857142608,48.63491374826117 70.96233766237856,49.02688901817601 72.06103896105196,46.4433837438919 72.56363636365859,45.87322072328243 73.03116883119219,44.48343301101704 72.92597402600222,43.46780514673446 74.07142857144936,42.95107773618656 73.9662337662885,42.41652897230961 72.47012987014023,41.31178465465928 70.28441558446502,40.1713889951352 68.49610389611917,39.81501234550524 62.24285714287544,40.18920779001928 61.600000000034925,40.47430802181043 60.1740259740327,40.26048293385975 57.135064935078844,42.630348864302505 54.47012987014023,43.96671151526971 49.841558441577945,43.80634905989427 49.40909090911737,43.46780514673446 49.0,43.948893478969694 52.01558441558154,44.305253524806176 55.08961038963753,44.19834566133068 57.59090909094084,42.755076896697574 60.419480519514764,40.31393925414886 67.80649350650492,40.22484536910633 69.43116883118637,40.45648928418814 70.43636363637052,40.812863357212336 70.99740259742248,41.472151618749194 70.29610389613663,43.14707814272697 70.00389610390994,45.285236270974565 72.18961038961424,46.15830269154685 71.0324675324955,49.00907199802168 73.15974025975447,48.51019398110657 75.49740259745158,48.72399918895826 76.0,48.93780388160667 75.75454545454704,49.864284930037684 75.95324675325537,50.13153728092584" stroke="#4dd2ff" stroke-linecap="round" stroke-linejoin="round" stroke-width="0.5"><title>2022-06-15 5.0km</title></polyline><polyline fill="none" points="113.3236830648384,50.22329433849518 113.17087505437667,49.91869414057874 113.39420983890886,49.1123944801584 112.18350021765218,48.73611881193938 110.93752720940392,48.6286111867812 108.83347845013486,49.23781935029547 108.49259904224891,49.13031232957292 109.58576404003543,46.460513100013486 110.114714845462,45.90504147672618 110.63191118850955,44.20276819210267 110.42033086629817,43.59352565166046 111.54875925116357,43.109712435572874 111.60753156291321,42.5542199523843 108.64540705265244,40.52933097699861 106.89399216367747,39.95590274099959 105.11906835000264,39.77670566150482 99.14780148016871,40.45765264902002 97.3376142794732,40.40389386527386 94.25794514582958,42.87676439592178 91.71898127993336,44.02357964145631 87.24053112755064,43.79063398764265 86.61754462341196,43.539768757196725 86.5,44.005660766604706 87.01719634304754,44.220687027402164 91.9188071397657,44.34611877358111 94.36373530692072,43.30682184032776 97.81954723552917,40.368054658101755 100.91097083152272,40.47557223644253 102.76817588155973,40.11717980486719 107.05855463646003,40.493491820205236 108.05768393559265,40.887721753104415 108.55137135391124,41.6044989867878 107.94013931215159,42.894683497506776 107.5875054418866,45.349566395518195 109.91488898562966,46.08422624912782 108.6218981279817,48.98696943373943 110.93752720940392,48.539021400189085 112.60666086198762,48.75403673691471 113.48824553762097,49.00488730827783 113.5,50.1516237972246" stroke="#4dd2ff" stroke-linecap="round" stroke-linejoin="round" stroke-width="0.5"><title>2022-06-14 5.0km</title></polyline><polyline fill="none" points="139.52095808384183,42.803214884810586 140.38323353293526,42.751871586839115 141.6497005988058,42.3513920935402 143.10479041915096,42.936707218308584 143.6639221556834,42.90590132613215 143.89296407184156,43.22422798385742 144.95733532932354,42.58757268690533 145.55014970060438,43.511747132946766 145.41541916168353,44.66180756498943 145.55014970060438,45.23682808276499 146.37200598801428,46.571672217411106 147.41616766466177,47.516310091687046 149.72679640719434,50.4835916702541 150.61601796407194,53.21457067636584 151.0,53.21457067636584 149.7200598802301,49.35419682884822 149.7402694610646,49.005106104970764 150.36676646706474,48.75868768883447 150.44086826346756,48.58414059238203 149.3428143712663,44.22026956482296 148.70958083833102,43.20369083992409 147.3690119760431,41.581230406947725 146.24401197602856,40.53379189926636 144.7687125748489,39.54794782296085 143.71107784430205,39.05501865778206 141.91242514968326,38.65451021236004 140.0666167664749,38.57235424610917 138.52395209579845,38.7366660466505 138.3218562874099,38.28480732477692 136.65119760477683,37.24757106576362 135.04116766466177,36.83677861234173 131.67964071854658,37.042175251554 131.21482035928057,37.20649196888917 130.4670658682735,37.083254480381584 128.601047904187,38.51073718479165 127.13248502994247,39.21932890745302 124.47155688623025,39.126904456974444 124.09431137723732,38.96259391033527 124.01347305389936,39.239867651544046 124.67365269460424,39.35283059660651 124.73428143713681,39.558217130062985 124.7881736526906,39.30148383431515 125.70434131736693,39.4657932920818 127.12574850300734,39.45552396642597 128.49999999998545,38.839360653888434 130.3997005988058,37.27838036670073 134.52245508981287,37.10379408242443 136.05164670658996,37.2989198903997 136.83982035928057,37.689169272623985 137.2776946107624,37.422156859163806 137.86377245507902,38.02806763579065 138.40269461077696,38.315616000825685 138.41616766467632,38.70585762427072 137.85029940120876,38.952324483649136 137.94461077844608,39.178251394521794 138.92140718562587,39.74306430491197 139.72305389223038,39.87656462677478 141.93937125748198,39.58902503893114 142.36377245507902,39.75333357280033 143.1115269461152,40.49271544221847 144.08832335329498,40.20517931885479 145.70508982034517,41.570961506095045 146.61452095808636,42.87509541537656 146.58083832333796,43.02912478352664 145.5232035927911,43.624700642118114 145.35479041915096,44.53858804142874 145.45583832333796,44.99039150965473 146.5336826347193,46.77702976125147 147.44985029939562,47.56764860666226 149.7402694610646,50.50412589108237 150.61601796407194,53.040038785842626 150.9326347305323,52.91683944576653 150.9326347305323,52.680706547744194 149.96257485028764,50.40145470454081 149.67964071854658,49.14884963277291 149.72679640719434,48.994838694681675 150.39371257483435,48.72788530332036 150.39371257483435,48.34798769020563 149.5920658682735,45.13414632162676 149.19461077843152,44.07651218401952 148.77694610776962,43.27557080760016 147.26122754489188,41.45800346072065 146.03517964070488,40.37975501513574 144.6676646706328,39.47606261564215 143.8458083832229,39.06528806384085 141.8854790418991,38.644240723802795 140.3697604790359,38.55181523392457 138.5374251496978,38.72639657459149 138.34880239520862,38.30534644418367 136.59056886227336,37.18595240811919 135.654191616748,36.87785800615893 134.56961077843152,36.785429323630524 131.22829341316537,37.18595240811919 130.33907185628777,37.083254480381584 128.53368263473385,38.51073718479165 127.1055389221583,39.20905953232068 124.46482035928057,39.11663506328114 124.14146706585598,38.96259391033527 124.0,39.239867651544046 124.55239520958276,39.3733692870519 127.11227544909343,39.414446643244446 127.15269461077696,39.126904456974444 128.53368263473385,38.479928626300534 129.66541916166898,37.51458439083581" stroke="#4dd2ff" stroke-linecap="round" stroke-linejoin="round" stroke-width="0.5"><title>2022-06-11 15.5km</title></polyline><polyline fill="none" points="176.901551163377,42.75597611462581 177.88103577683796,42.725085330988804 179.1915186389815,42.3338004611287 180.66412309232692,42.9722110789553 181.15048786588886,42.961914196548605 181.41393545159372,43.19874196840465 182.20427820866462,42.64270981704249 182.48123592694174,42.60152201042729 183.0486614961119,43.42527185719155 182.92031523642072,44.753540614558005 183.27833375030605,45.628737659841136 183.94708531399374,46.637769833952916 185.1494871153409,47.760037401214504 187.32461846384103,50.591337266574556 188.16224668500945,53.18570027383248 188.5,53.20628993153878 188.43920440328657,52.670956144851516 187.69614711031318,50.88990159653986 187.25031273455534,49.34558458257743 187.25031273455534,49.02641993465659 187.92581936453644,48.738140480938455 187.96634976231144,48.55281711924545 186.93282461847411,44.39316101925942 186.48699024267262,43.44586543380501 185.01438578934176,41.540924596745754 182.947335501638,39.872756125649175 181.2585689266998,39.02835386705192 179.819739804836,38.67823177939135 177.69189392043336,38.51346761679815 176.04365774331382,38.729720471623295 175.90180135100672,38.33840511398739 174.1522391793842,37.18503721435263 172.51751313485147,36.79371006846122 169.12646985238825,37.04086440280662 168.8224918689084,37.174739169840905 167.91055791842518,37.07175861082942 165.99211908933648,38.54436093762342 164.9991243432596,39.06954454373772 164.07368026020413,39.24460455046574 161.93907930949354,39.10043752952333 161.5810607956082,38.90478163851003 161.5,39.19311637523424 163.20903177384753,39.41966395960844 165.05316487365053,39.31668790893673 166.05291468600626,38.77091138818287 167.58631473605055,37.3806996673884 167.97810858143202,37.174739169840905 168.79547160372022,37.27771952200783 171.9771078308695,37.07175861082942 173.35514135601989,37.21593133553324 173.72667000249203,37.329209620540496 174.17250437827897,37.76172440698065 173.79422066549887,38.58555200308547 173.61183387540223,39.65650809122599 173.69289467101044,40.05811085787718 175.03039779835672,40.36703392273557 175.39517137853545,39.29609267401975 176.25306479859864,39.635912992798694 177.32712034024007,39.81097106600646 179.64410808106186,39.58442521044708 180.650612959711,40.47000786411081 181.64360770577332,40.191977747796045 183.2107830872992,41.56151893012793 184.11596197147446,42.82805453738183 184.17000250187994,42.92072664634179 183.6093319990032,43.373787879409065 183.0959469602094,43.579723480335815 182.46772579432582,42.591225053598464 181.3936702526844,43.22963246670042 180.20477858395316,42.7662730383563 179.31986489865812,42.7662730383563 178.73217413057864,42.98250795929198 177.48248686514853,43.85773522977979 176.50300225168758,43.29141340749629 176.7529397047765,42.704491464923194 176.92857142857974,42.73538226094752" stroke="#4dd2ff" stroke-linecap="round" stroke-linejoin="round" stroke-width="0.5"><title>2022-06-10 10.5km</title></polyline><polyline fill="none" points="38.5,80.24752671007445 38.090199479600415,79.96196342596522 38.33607979185763,79.08742016135511 38.090199479600415,78.85539703463292 35.818733738036826,78.64122130317264 33.465307892416604,79.10526806911366 34.05073720726068,77.24906646905583 35.24501300955308,75.5356152008826 35.549436253262684,74.19695841388602 35.36209887251607,73.4829998834175 36.53295750217512,73.05462201230694 36.49783174326876,72.69763887588488 36.39245446660789,72.35850356823357 34.78837814394501,71.2161435375092 31.7207285342447,69.93097095213307 30.10494362533791,69.75247328993282 24.63703382477979,70.23441615512274 24.004770164756337,70.53786032211792 22.716825672163395,70.32366454706062 22.09627059844206,70.55570994670416 19.333044232422253,72.82258313673083 17.705550737213343,73.7150370348827 15.598005203792127,74.03631824452168 14.637901127513032,73.73288602146204 12.331309627043083,73.8042819318216 11.699045967048733,73.46515084665589 11.5,73.982771456911 16.94449262789567,74.28620282688644 16.97961838680203,73.76858398378681 19.50867302689585,72.50129753968213 21.674761491740355,70.55570994670416 22.892454466607887,70.09161854157719 23.45446660881862,70.16301737703179 23.45446660881862,71.05549798056018 22.014310494356323,72.2514079390603 22.014310494356323,72.50129753968213 24.882914137037005,72.05506561710354 25.26929748483235,73.1617166736687 27.458803122251993,73.10816935914772 27.493928881158354,74.60748197192879 28.208152645238442,74.73242354802642 27.657849089300726,75.10724722260784 27.739809193415567,76.3031026655517 29.578057241946226,76.3031026655517 32.58716392019414,76.89210017876758 33.85169124021195,77.37400433201401 33.51214223765419,79.06957225005317 35.51431049435632,78.4091970117006 38.17215958365705,78.81970111527335 38.42974848221638,79.05172433517873 38.40633130961214,80.15828828232043" stroke="#4dd2ff" stroke-linecap="round" stroke-linejoin="round" stroke-width="0.5"><title>2022-06-09 5.2km</title></polyline><polyline fill="none" points="61.3505121638882,72.0761975475616 62.44814340589801,72.04984874804359 63.97791293213959,71.56239404837834 65.85339308579569,72.37920798149935 66.66581306018634,72.36603364388793 66.77816901411279,72.61634560579114 68.16101152368356,71.83905797098123 68.48079385401797,72.1157207270262 69.01664532651193,73.05109569108026 68.79193341868813,74.39485046973277 69.00800256084767,75.19845537348374 70.01056338028866,76.924196575932 71.47983354673488,78.30739148796056 74.40973111396306,82.02211351729056 75.60243277848349,85.55222184174272 76.0,85.46001993511891 75.83578745197156,84.7355718752151 74.61715749040013,81.77183743438945 74.33194622278097,80.28333364097853 74.43565941101406,80.05939651993685 75.2740076824557,79.63786574820551 73.96895006403793,74.31580683278298 73.20838668374927,72.74808836009834 70.74519846352632,69.98143496717239 68.78329065302387,68.41361292361762 66.7003841229307,67.34641850557455 64.7730473751435,66.85892885973954 62.48271446861327,66.66129689028458 59.98495518567506,66.91163061767656 59.6997439180559,66.30555784511671 58.61075544176856,65.60724966538692 57.45262483996339,64.9221098879716 56.30313700385159,64.57953731607267 55.0499359795358,64.44777815825728 50.30505761844688,64.9221098879716 50.26184379000915,65.43596539180726 50.884122919349466,65.33055946271998 50.08898847628734,65.50184401147999 49.0,66.39778667168503 51.38540332906996,66.21332888886172 51.601472471200395,66.9379814807944 53.2003841229307,67.00385859223752 53.19174135726644,68.04470817440597 53.69302176698693,68.12375936669196 53.286811779777054,68.33456208054122 53.34731113957241,69.26999095188876 56.45870678615756,69.53348963483222 57.953905249683885,70.06048382600784 57.556338028167374,71.43064891326867 57.93661971829715,72.52412552040187 57.85883482717327,73.55171343297116 59.293533930846024,73.89423916082524 60.676376440474996,74.6978501958547 61.64436619717162,73.44632054155954 63.65813060180517,72.19476701448366 64.42733674775809,71.99715111725891 63.355633802799275,70.98271347516857 62.51728553138673,71.36477624651525 61.3245838668372,71.40429985452647 61.203585147246486,72.04984874804359" stroke="#4dd2ff" stroke-linecap="round" stroke-linejoin="round" stroke-width="0.5"><title>2022-06-07 8.0km</title></polyline><polyline fill="none" points="112.1455309396697,69.98598847537869 111.2104660046025,71.66283448982358 109.59472880062822,71.15978634186467 109.20970206265338,71.67331460802961 107.88961038962589,72.7632354115267 107.16080977846286,73.16147002818616 106.84453781515185,73.55970160658762 105.93009931246343,75.2993091932185 105.60007639421383,76.65113288949942 105.04316271966673,77.7828653402903 104.47249809016648,80.31869526758601 104.16310160428111,80.61208912672737 102.98051948053762,81.68086709793351 102.04545454545587,82.24668187136558 97.93391902216536,83.2106484725191 95.75439266616013,81.06265505699048 94.59931245225016,80.43395733750003 92.79106187931029,80.04625663621118 92.66042780748103,79.79477356065036 92.83919022155169,78.94600923612597 92.74980901452363,78.53734000979603 91.82849503438047,78.07627345197398 90.03399541635008,76.26340409205659 86.90565317035362,76.14813281311581 86.5,75.88615168702381 86.5,75.3936236103691 88.90641711228818,73.60162054337343 88.8926661573787,73.39202552280767 88.71390374332259,73.3605861971555 88.06760886173288,73.89505215823738 87.88884644766222,73.82169440915095 87.9576012223115,73.6330597238557 91.82161955692573,70.59385138021025 91.87662337662186,69.27331260612118 92.06913674560201,69.2104289740164 93.73300229184679,69.60869069794717 95.93315508021624,69.30475439378642 98.50458365165105,67.91081694750756 101.06913674561656,67.1876317256465 102.23796791445056,66.96752988654771 102.58174178763875,67.15618866261866 105.352559205523,66.78935152747727 105.88197097022203,66.88368132277174 106.01948051949148,67.72216089914582 108.79717341483047,67.99466386124186 109.6084797555668,68.2986077943533 109.28533231477195,69.40956021582315 109.6084797555668,70.28992081268007 109.59472880062822,71.13882589712375 110.79793735676503,71.47419200247896 111.8567608861922,72.0610775019959 112.3792971734365,71.28554883336983 113.5,70.4366461351965 113.321237585973,70.0069493830415 112.60618792974856,69.96502755929032" stroke="#4dd2ff" stroke-linecap="round" stroke-linejoin="round" stroke-width="0.5"><title>2022-06-05 8.1km</title></polyline><polyline fill="none" points="129.3842028278741,70.38558569579618 129.502681618731,70.60631914320402 129.6343247196637,70.30531886676181 131.05607020965545,70.38558569579618 133.67576791811734,69.48258015227475 134.84739151631948,70.20498523984133 137.59873232565587,70.7668522532258 137.94100438809255,71.22838350827806 140.15260848365142,70.02438445750886 140.7450024378486,70.62638579602935 141.32423208191176,71.91064319833094 141.03461725986563,74.29851543538825 141.7323256947857,75.98403795851482 143.31204290589085,78.25142222626164 144.97074597759638,79.65597074927064 147.47196489517228,82.72584380240005 149.6177474402648,85.71536811264377 150.47342759626918,87.80196296622307 151.0,87.54114099172875 149.93369088249165,84.83256486865139 149.55192588979844,82.74590802202147 149.70989761091187,82.38475145293341 150.85519258899149,81.92327171543002 150.8683568990673,81.52198325515201 149.32813261821866,74.80016201465332 147.93271574843675,71.50931453298108 145.41833252072684,68.43909691765293 141.03461725986563,64.76675196500582 137.96733300830238,63.141244718804955 133.16235982449143,62.1980370337842 128.7391516333737,62.318447021214524 127.1331058020296,62.4990617302974 126.23793271573959,62.94056297822681 126.3695758166723,63.78342358050577 125.89566065333202,65.79020592570305 125.52705997074372,65.89054398510052 124.0,69.14144260122703 126.30375426617684,68.57956644924707 128.91028766459203,68.88057192351698 129.502681618731,69.10130869513523 129.31838127743686,70.10465151218523 129.79229644077714,70.36551899460028 129.46318868844537,70.52605249150656" stroke="#4dd2ff" stroke-linecap="round" stroke-linejoin="round" stroke-width="0.5"><title>2022-06-04 5.1km</title></polyline><polyline fill="none" points="188.2889709074807,80.15606908709015 188.37103777678567,79.03019182950811 187.50347372988472,78.77999494919641 185.82696482850588,78.61915372621297 183.54081632650923,79.1552900059396 184.1270082500996,77.45751404031034 185.15870603561052,75.97416747660463 185.6511072514113,74.25845868801116 185.47524967434583,73.59718709497247 186.50694745982764,73.15037918301095 186.53039513679687,72.50697184886667 183.43530178029323,70.50523039462132 181.92292661743704,70.02266098713153 180.41055145463906,69.84393091290985 174.79483282673755,70.23713660243811 174.16174554929603,70.46948460237036 172.7079895788047,70.32650128956448 169.0267042987398,73.13250681984937 166.9164133738377,74.06186494381836 163.08271819364745,73.90101519382006 161.6993052540347,73.52569797978504 161.5,74.02612058007799 162.2034303082619,74.22271440314944 167.02192792008282,74.36569145633985 169.30807642205036,73.38271957715187 172.76660877114045,70.43373879570572 174.87689969604253,70.57672193620965 180.0471124620235,70.29075542547798 182.15740338686737,70.61246768539422 183.57598784193397,71.55972480835771 183.08358662613318,72.32824676384189 182.602909248817,75.36652439666796 184.7249240121746,76.11714171602944 183.62288319584331,79.01232064711803 185.69800260526245,78.42256961441308 187.15175857575377,78.58341119267425 188.5,79.03019182950811 188.34759009987465,80.0667142695238" stroke="#4dd2ff" stroke-linecap="round" stroke-linejoin="round" stroke-width="0.5"><title>2022-06-03 5.0km</title></polyline><polyline fill="none" points="38.31233709814842,110.17618970167678 38.101216333627235,109.94376606724836 38.359252823662246,109.19285479421524 37.033883579511894,108.67436474309216 35.57949609035859,108.56709056247928 33.76151172895334,109.19285479421524 33.45655951346271,109.06770229969698 33.64422241531429,108.1379925474539 35.35664639441529,105.3666847280474 35.6146828844503,104.24025753958995 35.43874891396263,103.54293832890107 36.49435273674317,103.11381610007084 36.44743701128755,102.59529064747767 33.33927019982366,100.50327797952195 31.556472632510122,99.94897578709788 30.371850564697525,99.82381029831595 25.211120764550287,100.21718695630989 23.756733275396982,100.57480059169029 22.642484795855125,100.34235189207538 18.93614248483209,103.16745649181394 16.895308427483542,104.0435783152061 12.367940920928959,103.86477864324843 11.746307558671106,103.5071782221712 11.5,103.98993845129735 12.14509122504387,104.2223776280589 15.710686359670945,104.41905645752558 17.716333622927777,104.18661779421382 19.6985230234568,102.9886550604133 22.79496090358589,100.41387463352294 24.167245873162756,100.62844251309434 27.59209383148118,100.23506767221261 32.2367506516166,100.57480059169029 33.46828844482661,101.2721430492893 33.52693310167524,101.62975244732661 32.88184187663137,102.97077489754156 32.56516072980594,105.42032376249699 34.95786272807163,106.09974873541796 33.59730668980046,109.03194441180676 35.83753258033539,108.47769531318772 37.49131190270418,108.74588079172099 38.5,109.15709695658734 38.30060816681362,110.01528109631909" stroke="#4dd2ff" stroke-linecap="round" stroke-linejoin="round" stroke-width="0.5"><title>2022-06-02 5.0km</title></polyline><polyline fill="none" points="58.2124904798402,100.32261414825189 59.66222391472547,100.27559575018677 61.204493526311126,99.78973731142469 61.71858339681057,99.93079329874308 61.70830159939942,99.5546434327407 63.949733434885275,100.55770571388712 64.885376999242,100.60472394202225 65.00875856817584,100.88683271620539 65.75932977916091,100.62039667846693 66.63328255902161,99.93079329874308 67.21934501142823,100.41665085948625 67.69230769231217,101.4353746359775 67.48667174411821,103.50412662093004 67.9699162224133,104.52281010321167 69.18316831684206,106.37207845212106 70.67402894134284,107.64146611335309 74.16984006093116,112.2016885382618 75.42421934500453,116.19754074754019 76.0,116.13486229185946 74.04645849199733,110.28987514191249 74.04645849199733,109.74139544236095 75.11576542269904,109.14589883371082 73.9642041127372,104.00563399666862 72.75095201830845,101.12192258243158 69.93373952782713,97.68954023641709 67.45582635188475,95.80871877186291 65.29664889565902,94.69587806388154 63.03465346537996,94.11594070181309 59.62109672508086,93.80245925245981 56.762757044954924,94.0845926135371 55.847677075420506,94.41374691246165 54.33625285606831,94.36672495475796 49.98705255144159,94.86829104325443 49.54493526276201,95.00935592489986 49.49352627573535,95.58928664869745 49.03084539223346,95.6363078698705 49.0,96.82750269113603 52.00228484388208,97.04693133322144 54.06892612337833,97.59550023957127 54.552170601673424,97.94031300741335 54.14089870528551,99.30387584839627 56.06359482102562,98.81801136093418 58.479817212501075,99.22551081301208" stroke="#4dd2ff" stroke-linecap="round" stroke-linejoin="round" stroke-width="0.5"><title>2022-05-30 6.1km</title></polyline><polyline fill="none" points="100.41118701963569,102.51124906708719 100.5187873612449,102.40580896207757 101.27967549103778,102.46438682171356 102.79376601197873,101.94889963846072 104.5307429547538,102.64012004778488 105.20708795901737,102.65183557736236 105.4684030742792,102.89786115523384 106.57514944492141,102.19492818041545 106.84415029891534,102.39409338307087 107.32835183606949,103.23760905736344 107.12852263025707,104.63172628619941 107.34372331341729,105.26433992388411 108.4888983774872,107.03327869202258 109.4496157130634,107.82986936641828 112.15499573014677,111.30896881353328 113.14645602050587,114.3661880067666 113.4538855678984,114.34276164876428 113.5,113.9796518965777 112.57771135782241,111.68380890069966 112.07813834332046,109.71587157992326 112.16268146882067,109.48158890654668 112.86208368916414,109.21216266927877 112.90051238259184,109.00130648539562 111.67079419299262,104.12797348402819 111.05593509820756,102.97986945066805 109.57258753204951,101.17566032409377 107.15926558498177,99.11363871805588 106.78266438940773,99.05505749417352 105.26857386849588,98.1880485036636 103.21648163962527,97.73110614845427 101.12596071735607,97.62565740439459 99.37361229720409,97.84827119608599 99.09692570453626,97.34445982180478 97.15243381727487,96.12592130227131 95.14645602050587,95.63381199323703 91.93381725021754,95.86815027712146 91.06532877881546,96.10248761974799 90.25832621692098,95.9970359320796 89.77412467976683,96.11420446219199 87.83731853117933,97.6725235363665 87.03800170795876,98.14118278578098 86.5307429547247,98.24663059810337 86.5,98.5746892397874 88.30614859095658,97.64909047507899 90.17378309139167,95.98531906610515 92.5409906063287,96.07905392787143 93.34799316825229,95.87986716658634 94.15499573014677,96.02046965689442 95.33091374894138,95.93845157874603 96.27625960719888,96.0907707749866 97.28309137490578,96.60630971913633 97.87489325364004,96.26652319955974 98.62040990608511,97.02811092137563 99.15072587531176,97.29759342626858 99.11229718191316,97.81312170650199 98.88941076004994,97.93028658945332 98.88172502137604,98.15289921878866 99.27369769429788,98.44580927911011 100.21135781382327,98.7387178688914 103.4624252775684,98.45752565092698 103.89282664388884,98.6449872801677 104.85354397952324,99.5940025350501 107.13620836893097,98.99647621149052 109.34970111015718,100.87104808357253 111.04056362085976,102.9095766330829 111.82450896670343,104.47942938607594 109.75704526048503,105.05346947340877 109.4573014517664,104.72544725789703 109.16524338175077,103.65936232153763 108.5196413322119,102.7924217488835 107.40520922289579,103.31961687526564 106.66737830915372,102.32379985977968 105.4299743808806,102.94472305246381 105.15328778821277,102.73384421857918 104.5384286934277,102.69869767217824 104.00042698546895,102.45267125450482 103.22416737829917,102.40580896207757 102.65542271564482,102.55811127482593 102.12510674638906,102.99158491204435" stroke="#4dd2ff" stroke-linecap="round" stroke-linejoin="round" stroke-width="0.5"><title>2022-05-28 10.0km</title></polyline><polyline fill="none" points="138.04491188176326,102.3802546791594 139.1424104604812,102.33345895274397 140.30898237638758,101.795305397638 140.97669130191207,102.27496424189667 141.55230244458653,102.34515788788121 142.06651506538037,102.63763050252237 142.6574758385541,102.61423274740446 142.94911881751614,102.91840283138299 143.8010233087116,102.31006107544817 144.17708925527404,102.2164694722851 144.81409891985822,103.1991738072029 144.6989766913175,104.70829462165784 145.090392268321,105.67925866669611 145.77345082434476,106.79058319723117 147.08584422970307,107.99546900291898 149.67993177945027,111.36433786784255 150.65463331440696,114.38211750718256 151.0,114.24175912891951 150.95395110858954,113.65692891381332 149.994599204103,111.29415508639067 149.58783399660024,109.5512555655041 150.4167140420759,109.13014450591072 149.30386583285872,104.38073683597759 148.52870949404314,102.83651104190358 146.45650938036852,100.5785920799317 144.66060261515668,99.11616264123222 143.6628766344802,98.71837548348776 142.9644684480154,98.22698759767809 140.83086981240194,97.72389570647283 138.71262080725865,97.58349719402759 136.82461625925498,97.7940948358264 136.70181921546464,97.3260990424933 134.67566799320048,96.06249162197491 132.76463899941882,95.61788249281744 127.33854462762247,96.06249162197491 125.41984081864939,97.60689696962436 124.0,98.28548637280983 124.01534963047015,98.51948088610152 124.32234223990235,98.51948088610152 125.12819783965824,98.09829008552697 127.41529277997324,96.13269275325365 127.75298465034575,96.01569082079004 130.00170551449992,96.03909122608457 130.68476407049457,95.81678699634722 131.390847072209,95.98059019524953 132.8951108584297,95.92208910563568 133.80841387153487,96.09759219817352 134.8214894826524,96.61239821959316 135.4047754406056,96.23799429151404 136.05713473563083,96.99849975033067 136.67879476974485,97.3377989831315 136.7708925525949,97.665396367418 136.4101762365026,98.05149091970816 136.59437180217355,98.33228535065791 137.03183627061662,98.53118058714244 138.32120523025515,98.76517411360692 140.96901648663334,98.42588319358038 141.30670835703495,98.56627967598615 142.39653212053236,99.60754302758869 143.6628766344802,99.17466052361851 144.6375781694369,99.05766470013987 146.66372939173016,100.64878776971454 148.33683911315165,102.62593162614576 148.9661739624862,103.65542375716541 149.26549175669788,104.53281746548964 147.21631608871394,105.04754895842052 146.97839681638288,104.75508844072465 146.70977828311152,103.71391708210285 145.97299602048588,102.75461913732579 144.9215463331493,103.29276383181059 144.1387151790841,102.25156634109953 142.92609437179635,102.9418004643776 142.64980102333357,102.69612484930258 142.05884025015985,102.67272711764235 141.52160318364622,102.36855575106165 140.1247868106875,102.54403942558565" stroke="#4dd2ff" stroke-linecap="round" stroke-linejoin="round" stroke-width="0.5"><title>2022-05-26 10.0km</title></polyline><polyline fill="none" points="166.86458092782414,99.25570593949669 168.5687895101728,99.17985859893815 170.8327746342693,98.44034383563849 173.53214151295833,99.69182696571806 174.4651024157356,99.63494172866922 174.8880446916446,100.2417158235694 177.00275607127696,98.9333543212997 178.08499071848928,100.6399092046122 177.74912479351042,102.59292861770518 178.48305403697304,104.52694687450276 179.3413780675619,105.98691481383867 181.7297579786391,108.24318450874853 185.90942282305332,113.62767755735695 187.4519181823125,118.36729415820446 188.13608951104106,118.5 188.01169472400215,117.60897148519143 186.15821239713114,113.11578473315603 185.85966490823193,110.78379342413973 186.99165747026564,110.34772361824434 187.11605225730455,110.02540985892847 185.02621983509744,101.8344792737189 184.1181378897163,100.14690762824466 181.38145257494762,96.98025922156376 177.77400375087745,93.98417075153702 175.783687158284,92.86535384506715 172.63649904628983,91.84134031206486 168.41951576576685,91.5 164.73743006947916,91.86030362654128 163.85422708149417,92.12578962960106 164.0532587407506,92.84639073239669 163.5681190713367,94.93231029542221 162.6849160833517,95.95629031024873 161.86391048895894,98.04214117977244 163.96618238984956,97.47327732998383" stroke="#4dd2ff" stroke-linecap="round" stroke-linejoin="round" stroke-width="0.5"><title>2022-05-24 5.1km</title></polyline><polyline fill="none" points="38.453023053501965,140.22770138727356 38.194649847748224,139.94126833195332 38.429534580238396,139.02825682659022 36.667899086576654,138.67021054673387 35.411265767761506,138.74181991774094 33.790561113506556,139.24308390432998 33.50869943454745,139.04615910282155 34.01370160939405,137.70347840870818 35.2703349282383,135.64466206981888 35.681383210088825,134.31983337207203 35.52870813399204,133.58579818532598 36.632666376710404,133.1203093256263 36.632666376710404,132.78014285262907 36.43301435408648,132.2967461582448 34.8357981731242,131.22252189751453 32.16985645933892,130.0587643412291 30.243801652890397,129.77229861272644 25.31122227056767,130.18409280799824 23.86668116573128,130.50636519915133 22.85667681603809,130.29151706781704 22.116789908672217,130.5421731707538 18.9693344932748,133.10240585937572 17.00804697696003,133.99757476602827 12.721400608978001,133.85434834497573 11.664419312728569,133.5499914362881 11.5,133.89015497185756 11.969769464980345,134.1408009569932 14.318616789940279,134.39144623745233 17.747933884325903,134.23031720943254 19.685732927377103,133.10240585937572 22.269464984798105,130.77492463527597 22.974119182268623,130.45265321487386 29.79752066117362,130.34522914922854 32.228577642468736,130.57798112794262 33.55567638101638,131.49107917622314 32.897999130073,132.76223931811546 32.60439321442391,135.3403112730375 34.98847324925009,136.07433201411186 33.602653327572625,139.04615910282155 35.90452370597632,138.50908925168187 37.11418007832253,138.63440583971533 38.5,139.01035454677185 38.429534580238396,139.74434507260594" stroke="#4dd2ff" stroke-linecap="round" stroke-linejoin="round" stroke-width="0.5"><title>2022-05-22 5.0km</title></polyline><polyline fill="none" points="54.42748316246434,128.86269554679893 54.50159961392637,129.25811808067374 55.46511348281638,129.29577728267031 56.79920960901654,129.10748112149304 58.454477024817606,128.44844158003252 58.9979976688046,128.91918458227883 60.295035569230095,129.12631075464742 61.23384395433823,129.67236847070308 62.209710565104615,129.59705035408115 62.50617637092364,130.0489581464135 64.3837931411108,128.86269554679893 65.00143023655983,129.35226605726348 65.60671459007426,130.538522463954 65.28554330047336,132.85450362960546 66.08847152453382,134.6620589452432 67.43492039258126,136.58254829498037 69.10254055034602,137.99464772655483 73.47541118608206,143.64283284229168 75.0565621504793,148.5 75.63714102018275,148.38704548114765 75.55067182678613,147.84109672201885 73.56188037944958,143.02154913020786 73.25306183175417,141.0070554529375 73.37658925083815,140.6681644141281 74.45127779690665,140.2351351936304 74.52539424836868,139.7079664873454 72.63542473627604,132.13900335886865 71.74602731887717,130.3313994107666 68.32431781006744,126.3018235327254 65.29789604237885,123.94801919203746 61.962655726936646,122.32856749671919 58.046836541820085,121.57532462038216 55.42805525707081,121.5 52.40163348938222,121.83896031535551 51.499883330077864,122.19675043015013 51.59870526532177,122.93115744131501 51.116948330862215,125.02136129964492 50.47460575160221,125.64276427288132 49.36285897978814,128.14716481844516 51.499883330077864,127.46928856580053 53.31573639065027,127.63875808839657 54.53865783964284,128.12833498873806 54.26689751763479,128.84386586070468" stroke="#4dd2ff" stroke-linecap="round" stroke-linejoin="round" stroke-width="0.5"><title>2022-05-16 5.4km</title></polyline><polyline fill="none" points="102.24438342486974,132.67369229413816 102.8577134298539,132.72506128719033 104.19221168247168,132.29356014257064 104.50898652021715,132.57095415328513 105.21667498753231,132.7045136961533 105.57388916627679,132.92026299049394 106.17373939092795,132.89971547784444 106.38267598602397,133.17710620233265 107.46779830254673,132.550406500377 108.08112830756,133.47504271284924 107.94633050427365,134.81059885478317 108.48552171741903,135.95093074027682 109.19321018474875,136.91659732903645 109.99525711433671,137.58433484430861 112.3339990015229,140.56336529452528 113.19670494260208,143.19298599254398 113.5,143.1724426045439 113.4865202196961,142.87456255188954 112.5227159261267,140.31683142592738 112.25986020971322,139.21768680939203 112.3070394408569,139.00196406636314 112.94058911634784,138.69378714160484 112.96080878684006,138.49860746261766 111.97678482277843,134.481849808064 111.37019470795349,133.29011680710028 109.77284073889314,131.39972476659023 107.61607588618062,129.6736536421231 106.38267598602397,129.05718555669955 105.16949575638864,128.73867413559128 102.98577134299558,128.53318184385716 101.02446330504608,128.70785034445726 100.88292561160051,128.3174140492556 99.95282076887088,127.63928077067249 99.03619570644514,127.12553745434343 97.71517723417492,126.80701400745238 94.61482775835611,127.00223829080278 93.86669995007105,127.1974618291897 92.84223664503952,127.13581237124163 90.80004992513568,128.70785034445726 89.68796804793237,129.201028774336 86.99875187219004,129.1085581808511 86.6347978033009,128.92361649247687 86.580878681998,129.01608742022654 86.5,129.2113032744237 86.89091362958425,129.31404816163922 89.58686969547125,129.44761620658755 90.74613080380368,128.99553833960817 93.12531203197432,127.14608728605162 94.45307039441832,127.23856142656223 95.43709435847995,127.0844377661706 97.5601597603818,127.1049876143843 98.36894658015808,127.20773673163785 99.29905142288771,127.63928077067249 99.59560659012641,127.3618600205773 98.19370943585818,126.89948876083508 97.35796305543045,126.80701400745238 94.52046929605422,126.98168840129438 93.52970544183336,127.23856142656223 94.97878182728891,127.1974618291897 95.82126809786132,127.00223829080278 97.56689965052647,127.0741628389842 98.49026460311143,127.26938610291472 99.37993010484206,127.6495555843976 99.7843235147302,127.35158514909926 100.45157264106092,128.0399969762475 100.91662506241119,128.26604063071136 100.94358462309174,128.66675192736875 100.37743384925125,128.89279281276686 100.43809286071337,129.201028774336 101.75911133302725,129.8277695028919 102.98577134299558,129.73530004211352 103.0329505741538,131.15314674247566 102.72965551674133,131.33808037196286 102.71617573640833,131.65657561141052" stroke="#4dd2ff" stroke-linecap="round" stroke-linejoin="round" stroke-width="0.5"><title>2022-05-14 9.9km</title></polyline><polyline fill="none" points="135.62118126271525,131.85063988598267 136.49185336049413,131.9065215106748 138.31568228104152,131.26388011698873 139.15885947045172,131.78078779202042 139.6812627291074,131.82269905683643 140.29531568224775,132.1859289608692 140.86354378817487,132.1300475605858 141.41344195519923,132.49327586010259 142.7698574337992,131.5852015558121 143.63136456211214,132.91238308015818 143.4389002036478,134.60275657587408 143.9338085539639,135.77621485251075 144.54786150713335,136.83789814523698 146.1517311608768,138.33260900665118 149.4144602851011,142.5232159167208 150.6883910386823,146.16883864521878 150.9633401221945,146.07106581552216 151.0,145.54029662862376 149.93686354375677,142.95623091082598 149.35947046839283,140.52572476842033 149.44195519346977,140.30222568841054 150.3309572301223,139.8552253748021 149.30448065171367,135.38506429260087 148.15885947045172,132.63297854728444 145.71181262729806,129.74107572561843 143.48472505089012,127.96675700737615 141.1201629327552,126.82110985691179 138.7647657841153,126.33210837727165 136.8309572301514,126.17842148805721 134.0906313645246,126.4299089481392 133.86150712828385,125.92693311888434 132.62423625253723,125.0187731058686 131.3136456211796,124.27826462882513 130.28716904277098,123.95690944101443 129.02240325862658,123.83116135477758 124.68737270872225,124.16648907967829 124.0,124.41798381266926 129.28818737270194,124.18046103313463 131.01120162929874,124.59961833220586 131.57026476575993,125.06068844436595 131.02036659873556,126.17842148805721 130.80040733196074,128.13441110557324 132.56008146639215,128.83296549932493 131.5977596740995,131.02638070840112 133.0733197555819,130.57932079879174 134.86965376781882,130.76093923351436 135.3920570264745,130.95652778690055 135.30040733196074,131.78078779202042" stroke="#4dd2ff" stroke-linecap="round" stroke-linejoin="round" stroke-width="0.5"><title>2022-05-12 7.0km</title></polyline><polyline fill="none" points="171.27977099234704,130.35114322208392 172.43396946566645,130.35114322208392 174.340458015271,129.69137454557494 174.79389312976855,130.09980342997733 176.39122137404047,130.64960817641258 177.34961832061526,130.68102547380113 177.79274809159688,131.1051577535327 179.4209923664166,130.11551219062676 180.23511450379738,131.43503682586015 180.11145038169343,133.7441513863232 180.80190839694114,135.1421536104317 181.8324427480984,136.60296070558252 183.1515267175564,137.71818217102555 185.16106870229123,140.16847209278785 185.36717557252268,140.7653259638828 186.3564885496162,141.78624966227653 186.99541984731331,142.9013972488101 187.9229007633403,146.07398373333126 188.5,145.9169280229762 186.78931297708186,140.74961934140447 186.69656488546752,139.9956977540569 187.7580152671726,139.3360104056701 186.6347328244301,134.40388588576752 185.88244274808676,132.3775407967114 185.30534351142705,131.27795172680635 182.9866412213596,128.48178418714087 181.1213740457897,126.80089380560821 179.01908396944054,125.40274251588562 177.62786259542918,124.7429321048985 176.1232824427425,124.35018517055141 172.65038167938474,123.92601626667602 169.33206106870784,124.24021567554882 168.45610687020235,124.57012369672884 167.0442748091882,124.49157429404295 162.09770992366248,125.10425754309108 162.01526717559318,125.74835527204414 161.7164122137474,125.7169359936961 161.54122137403465,125.95258027392265 161.5,126.84802206541644 161.70610687023145,127.09937230492505 163.26221374046872,127.03653482079972 165.95190839696443,127.47639615002845 167.0958015267097,127.99480097020569 166.77633587786113,129.45574152696645 168.53854961832985,128.8430923569831 169.77519083971856,128.95305538179673 171.03244274808094,129.33007029347937 170.8263358778495,130.11551219062676" stroke="#4dd2ff" stroke-linecap="round" stroke-linejoin="round" stroke-width="0.5"><title>2022-05-10 6.0km</title></polyline><polyline fill="none" points="27.14504864056653,162.76269890852564 27.818533300087438,162.7524328082509 29.13856323272921,162.28018996819083 30.586555250672973,162.92695623224427 31.18595659766288,162.92695623224427 31.367797455721302,163.16307521058116 32.36455475180992,162.5368442267427 32.5329259167047,162.61897331737782 33.04477425791265,163.39919309847755 32.876403093046974,164.66189199093787 33.273759042145684,165.63712588965427 33.89336492891016,166.5815451992712 34.991144923944375,167.59780301461433 36.843227737612324,169.97925735507306 37.415689698187634,170.87227413846995 38.08917435770854,173.16119996267662 38.5,173.1406719352708 38.271015215766965,172.13478849732928 37.725492641562596,170.9030675424874 37.2742579196929,169.322315511763 37.2607882264856,168.98357657579618 37.95447742579563,168.59351077874817 36.90384135695058,164.31285639132693 36.391993015728076,163.26573529581947 35.11237216263544,161.66421449100744 33.6711149912735,160.35010866883385 32.856198553257855,159.80597683831365 31.401471688688616,159.05650275978041 30.0545023696759,158.72796271365587 28.074457470691414,158.54315800988843 26.05400349215779,158.6971619760916 25.804814168135636,158.28648370197334 24.154776752300677,157.19817032062565 22.37004240458191,156.78748000484848 19.245073584432248,157.0133600868321 18.753429782984313,157.1776358832176 17.770142180102994,157.14683421160953 16.05275629834796,158.49182325140282 14.651908206520602,159.17970473278547 12.04552257420437,159.10783695128703 11.634696931912913,158.9230336206674 11.5,159.16943791302765 13.695559990024776,159.43637455627686 14.941506610120996,159.3439735682914 16.275006235955516,158.63556044526922 17.945248191565042,157.1776358832176 20.086929408818833,157.187903102953 20.632451983023202,156.9825583162201 21.31267148916959,157.1262997535232 23.15128460963024,157.1776358832176 24.363556996773696,157.66019298235187 24.740708406083286,157.34191115172507 25.387253679218702,157.98873989034837 25.87889748068119,158.19408063565788 25.872162634084816,158.676628140729 25.602768770273542,158.85116547835787 26.249314043394406,159.3542403529682 27.69730606135272,159.5082418759339 29.522449488649727,159.26183921649135 30.195934148170636,159.55957561386094 31.152282364666462,160.391174987024 31.630456472950755,160.20637629528574 33.26702419556386,161.53075215943318 34.28398603142705,163.16307521058116 34.142554252932314,163.00908469620117 33.06497879770177,163.56344837736833 32.84272886006511,164.54896896944774 32.95048640559253,164.94933128390403 33.89336492891016,166.5815451992712 34.86991768520966,167.45409101439873 37.13956098779454,170.30772511163377 38.223871289606905,173.2125199951479 38.41918184085807,173.13040791848834 38.43938638063264,172.81222237608745 37.395485158398515,170.26666675747038 37.1732352207473,169.1683435463383 37.23384884011466,168.99384142499548 37.92753803942469,168.6243055551131 37.05874282863806,164.94933128390403 36.52668994762644,163.57371431479623 34.54664504864195,161.19196159924832 33.11212272386183,160.04211023078096 31.31391868297942,159.05650275978041 28.781616363179637,158.5739588402248 26.006859565968625,158.66636121997362 25.851958094295696,158.27621670286317 24.733973559486913,157.42404858805457 23.420678473441512,156.9517565270835 22.51820902968757,156.80801459902068 19.676103766527376,156.99282557514016 18.5311798453331,157.2187047498337 20.92878523323452,157.06469632989683 20.895111000252655,158.46102237157174 20.699800448986934,159.53904212484485 21.097156398100196,159.67250965580024 20.814292841096176,159.75464334781282 20.86143676728534,160.5143737437793 23.48129209280887,160.8018363549745 24.336617610388203,161.12009664635116" stroke="#4dd2ff" stroke-linecap="round" stroke-linejoin="round" stroke-width="0.5"><title>2022-05-08 15.0km</title></polyline><polyline fill="none" points="58.71917808215949,160.24003738549072 59.46917808218859,160.27135915114195 61.71917808215949,159.55095535900182 63.917808219150174,160.50627199248265 64.70890410957509,160.47495032121515 65.17123287668801,160.9134525748159 66.35273972601863,160.13041110665654 66.89726027398137,160.06776744962553 67.71917808215949,161.4145949888043 67.46232876711292,163.09026655183698 67.99657534246217,164.53100210345292 69.36301369860303,166.53545947129896 70.61643835616997,167.52200941651972 74.17123287671711,172.23535360490496 75.54794520547148,176.18119018500875 76.0,176.07158630846243 75.95890410957509,175.5392224317693 74.80821917805588,172.72076490332984 74.09931506848079,169.808251801398 75.16780821917928,169.21320886429748 74.00684931504657,163.98289932346233 73.400684931461,162.21328405575332 72.6404109588766,160.9134525748159 70.55479452054715,158.43901470526907 68.02739726024447,156.21508583823015 64.82191780817811,154.4766184077307 59.797945205442375,153.81880981498398 49.626712328754365,154.93081634088594 49.544520547933644,155.5259682494434 49.0205479451688,155.74523359727755 49.0,156.35604095851886" stroke="#4dd2ff" stroke-linecap="round" stroke-linejoin="round" stroke-width="0.5"><title>2022-05-05 5.1km</title></polyline><polyline fill="none" points="98.01818181818817,161.98001451849996 99.22727272726479,162.0631595356972 100.79090909089427,161.49499992156052 102.82727272727061,162.2848790919379 103.57272727272357,162.2848790919379 103.81818181820563,162.58974231862157 105.23636363635887,161.75829398283167 105.35454545455286,161.84143926718752 106.0545454545354,163.04703463360056 105.86363636364695,164.39117935014656 106.30909090908244,165.8461518572949 107.14545454547624,167.13481617753132 108.70909090907662,168.61744320949583 110.2727272727061,170.5018577704068 111.96363636365277,173.06513322207684 112.8909090909001,176.05781005547033 113.5,176.05781005547033 112.00909090909408,171.0006647776063 111.97272727271775,170.30787629404585 112.6636363636353,170.11389427252652 112.7727272727061,169.8921998660844 111.68181818182347,165.02859965248717 110.51818181815906,162.67288660127815 108.64545454544714,160.35866666075162 105.89999999999418,158.0720857113156 103.57272727272357,156.89412050238388 100.35454545455286,156.31205968264112 96.68181818179437,156.49222188955537 96.37272727271193,155.9378751346012 94.42727272724733,154.55198876480063 92.93636363634141,154.05306285810366 91.3909090909292,153.94218994452604 87.53636363634723,154.2470900282533 86.51818181818817,154.55198876480063 86.5,154.6905786542302 89.76363636361202,154.4549756765373 89.47272727274685,157.6424771997772 89.93636363637052,157.79491923579917 89.67272727272939,157.80877758599308 89.62727272728807,158.97286906888985 93.18181818179437,159.36089519962843 94.39999999999418,159.77663506157114 94.52727272728225,159.98450405331823 94.11818181816489,160.89912017900133 94.18181818179437,161.12084347494238 95.79999999998836,160.677396170664 96.92727272724733,160.7466849998018 98.29999999998836,161.20398952728647 99.13636363638216,161.19013185883523 99.92727272727643,160.9129779058494" stroke="#4dd2ff" stroke-linecap="round" stroke-linejoin="round" stroke-width="0.5"><title>2022-05-04 7.1km</title></polyline><polyline fill="none" points="133.45872955495724,160.15573620855866 135.0916698364308,160.12442631281738 136.7451502472395,159.5451909743424 138.8094332445762,160.42186981435225 139.89806009887252,160.5471088438935 140.03157093952177,160.93847951469797 141.74667173830676,159.92091168430488 142.6812476226478,161.3298482208411 142.43476607074263,163.19273633101693 142.96880943325232,164.52334344464907 144.2422974515066,166.38615525496425 145.5671357930696,167.544519988689 148.82274629137828,171.6925768686342 149.3157093952177,172.52216176470392 150.383796120208,176.1064931672372 151.0,176.0908414231817 150.84594903007383,175.13607909638085 149.5519208824844,172.24041694065818 149.1103081019537,170.37774499098305 149.079497907951,169.7829328102016 150.01407379232114,169.3916065325102 150.1475846329413,169.14115668401791 148.47356409282656,162.55090595768706 147.56979840243002,160.76627666159766 146.56333206541603,159.46691559854662 142.75313807529164,156.0696885679572 140.0521110688569,154.61368880828377 136.90947128186235,153.92481923090236 133.55116013693623,153.89350683275552 130.92202358311624,154.3945036939258 129.3712438189541,154.37884759075678 124.58539368581842,154.9581213144411 124.55458349181572,155.55304660445836 124.36972232785774,155.78788428507687 124.07189045264386,155.6782934554576 124.0,156.17927884734672 124.07189045264386,156.97771766165533 124.49296310383943,157.49435018424265 126.17725370862172,158.52760495893745 128.91936097375583,159.29470949513052 129.49448459487758,160.62538313525147 129.5150247242418,161.98734322463133 131.9695701787714,162.66048712716292" stroke="#4dd2ff" stroke-linecap="round" stroke-linejoin="round" stroke-width="0.5"><title>2022-05-01 6.0km</title></polyline><polyline fill="none" points="167.64363885088824,159.2677146348069 167.5697674418625,159.06127354929777 169.23187414504355,159.23017992589303 170.36456908346736,158.81729713305685 170.4384404924931,159.3427840074146 170.42612859094515,158.81729713305685 171.41108071134659,158.44194755683566 172.1744186046708,158.9862039505606 173.3071135430946,159.1175757087185 174.11969904240686,159.58675905194832 175.2277701778512,159.53045717514033 175.48632010945585,160.0371728456521 177.22229822160443,158.948669128622 177.55471956223482,159.02373875751073 178.56429548567394,160.58141995038022 178.3426812585385,163.11494234540442 178.97058823533007,164.4848925153783 179.88166894667665,165.9861847113134 181.9377564979368,167.9002972901435 186.07455540358205,173.0982287976658 187.97058823533007,178.42721590174187 188.5,178.29587127963168 188.4384404924931,177.5453270414655 186.24692202464212,171.4844615070033 186.37004103968502,170.60250714418362 187.51504787965678,169.94572721289296 185.9637482900289,163.34014101260254 184.6217510260176,160.1685431266087 182.0608755129797,157.05314101800468 178.56429548567394,154.1440874641703 174.8953488372208,152.36107440133492 172.53146374828066,151.77924172508938 169.1580027359887,151.5727840982654 165.42749658002867,151.9481612622767 165.0088919288537,152.2109243800005 165.68604651166243,152.86782894234784 167.28659370724927,153.33704366003803 171.5957592339546,152.83029166316555 172.70383036936983,153.07428370835987 174.72298221616074,154.81974668493785 175.94186046512914,154.4068444082004 176.68057455541566,155.30771975111566 179.0690834473353,157.2032832603145 180.58344733246486,159.66182816831133 178.62585499315173,160.78785767835507 178.30574555401108,162.42057637233665 178.4904240766191,163.5278061542558 180.23871409028652,166.38026991715742 182.23324213409796,168.20054668723606 186.24692202464212,173.49228402024892 187.9213406292547,178.40845239561895 188.47537619702052,178.3146348083974 188.42612859100336,177.5453270414655 187.04719562243554,174.1678033943026 186.25923392613186,170.99657288788876 186.40697674421244,170.64003728656098 187.50273597810883,169.94572721289296 186.12380300959921,163.9406681393957 184.58481532151927,160.0371728456521 181.8515731874213,156.80915935976373 178.44117647060193,154.01270871513407 175.38782489742152,152.49245547210012 170.6231190150429,151.68539740577398 169.02257181939785,151.5915529922495 164.4548563611752,152.2672306662571 161.72161422710633,152.37984313703055 161.5,154.10655069756467 163.58071135432692,155.1388062857659" stroke="#4dd2ff" stroke-linecap="round" stroke-linejoin="round" stroke-width="0.5"><title>2022-04-30 10.1km</title></polyline><polyline fill="none" points="20.9011428571539,190.86965967351716 22.40285714287893,190.96373249154567 24.213142857159255,190.30522038508934 26.527428571425844,191.32434391084098 27.442857142857974,191.2302715272599 27.71028571430361,191.60656038170418 29.376571428583702,190.71287139152992 30.261142857169034,192.170990263352 29.983428571460536,193.8956118452188 30.69314285714063,195.62019533774583 31.865714285697322,197.28203066841525 33.110285714268684,198.3010631428624 36.64857142858091,202.83167730643618 37.893142857123166,206.67230352715706 38.057714285707334,206.97014011793362 38.5,206.8604109798107 38.35599999997066,205.63770443864632 36.64857142858091,200.9975156955552 36.71028571430361,200.5115340323464 37.59485714283073,200.16664198494254 37.70800000001327,199.9314874428892 36.45314285712084,194.4757032710986 35.31142857141094,191.95149023860722 32.38000000000466,188.53348166994692 29.973142857139464,186.5892265505463 27.66914285713574,185.4289222024454 24.17200000002049,184.67628313532623 21.826857142877998,184.6135628855409 19.37885714287404,184.8487635623096 18.37085714287241,185.1780433194799 17.260000000009313,185.11532347282628 12.446285714308033,185.67980027927842 12.158285714278463,185.75819951297308 11.983428571431432,186.32267167180544 11.5,186.2599527446 11.602857142861467,185.00556361989584 15.59371428572922,184.69196318987088 15.645142857189057,183.547310931237 15.99485714288312,183.02985988207365 16.66342857145355,183.42186856758053 16.077142857160652,184.55084258540592 15.84057142859092,186.79306202028238 18.021142857178347,187.49864222958422 16.66342857145355,190.39929388318706 17.03371428573155,191.59088171561598 16.972000000008848,192.7197376256736 18.813142857165076,193.2057677833509 20.284000000014203,194.1778190231489 21.497714285709662,192.6413453814166 20.36628571432084,192.0455617533371 20.582285714306636,191.089162739343 20.860000000015134,190.9950900723852" stroke="#4dd2ff" stroke-linecap="round" stroke-linejoin="round" stroke-width="0.5"><title>2022-04-28 7.1km</title></polyline><polyline fill="none" points="64.518943170493,192.67204999581736 64.61316051847825,192.77463434618403 64.76794616151892,192.6515331010196 65.59571286142454,192.67204999581736 66.63883349951357,192.29248610834475 67.21086739783641,192.67204999581736 67.63484546363179,192.692566882346 68.07901296112686,192.9387688783463 68.71161515454878,192.9387688783463 68.94042871386046,193.21574470565974 69.98354935196403,192.55920697248803 70.52193419744435,193.55426867761707 70.37387836491689,194.6621496305379 70.7372881356132,195.64691253192723 71.22856430709362,196.4572760998053 72.39955134598131,197.55483664153144 74.70787637089961,200.49864428456567 75.5221834496624,203.01151662489428 75.71734795614611,203.23715625780824 76.0,203.13459291183972 75.91924227320123,202.65254242809897 75.15204386842379,200.91917438844393 74.69441674978589,199.30883304640884 74.72806580261386,198.898546884775 75.4010468594497,198.6113446113195 74.39830508474552,194.42621403352678 73.81954137589491,193.31832796435629 72.31879361915344,191.50257384222277 71.12088733799465,190.43565996433244 69.88260219343647,189.61494181916714 68.79237288137665,189.06094961744748 67.06954137590947,188.64032189644786 65.29287138587097,188.54798851854503 63.48928215356136,188.69161814543259 63.34795613163442,188.32228400323584 61.611665005009854,187.19374646862707 60.07726819544041,186.7936226289239 56.6854436690046,187.03985305501556 56.3018444666086,187.19374646862707 55.50772681956005,187.0603722036176 55.06355932205042,187.25530370427805 53.14556331008498,188.74291434288534 52.1226321037102,189.18405951479508 49.504735792652355,189.0814679542782 49.222083748769364,188.94809861761314 49.0,189.24561435221767 52.01495513461123,189.43027841944786 52.6273678963189,189.2763917431039 53.59646061815147,188.7531735761877 55.52791625127429,187.0603722036176 56.02592223332613,187.12192959996173 57.24401794618461,186.84492073220827 60.40029910270823,186.76284374219176 62.27118644070288,187.3886774603816 63.40852442673349,188.41461778913072 63.374875373905525,188.7121366305728 62.80957128616865,188.9583578097263 62.88359920241055,189.46105569908468 62.654785643098876,190.4254010689001 62.18369890330359,191.0101548210987 61.52417746762512,192.51817308401223 61.88758723830688,193.09264452335265 61.87412761716405,193.92356499796733 62.755732801611884,194.1184703130566 64.0613160518551,194.83653611067348 64.80832502493286,193.75943362957696 66.16774675974739,192.97980242900303 67.05608175475209,192.66179154943893 66.13409770689032,191.90266080211586 65.46111665006902,192.1899007898428 64.53240279163583,192.22067640702517 64.12861415754014,193.27729468559482 64.30358923232416,193.5132355883834 64.8554336989182,193.77995007948994 65.68993020938069,193.22600304080697 65.52168494518264,192.86696008541549 64.57278165506432,192.83618485755142" stroke="#4dd2ff" stroke-linecap="round" stroke-linejoin="round" stroke-width="0.5"><title>2022-04-27 10.1km</title></polyline><polyline fill="none" points="91.90490757118096,189.2986982525763 93.29228377935942,189.1854046026201 95.99271247020806,188.3734627833619 96.61207684886176,188.86440518641757 97.86319289371022,189.10987542679504 98.64359201077605,189.63857838358672 99.72128602961311,189.67634276676836 100.05574279406574,190.05398576437437 101.86428677965887,188.90216988050088 102.48365115831257,189.26093371774186 103.15256468721782,190.60156541712786 102.96675537366536,193.05619364386075 103.61089432743029,194.60446465029236 105.28317814978072,196.8890618954465 106.5962306324509,197.96525789671432 110.8202956947789,203.4404503509504 112.43064307922032,208.5 113.13671847086516,208.34897260829894 113.09955660815467,207.78261772939732 111.50159651125432,203.70476192139176 110.9565558580507,201.5524889592998 110.88223213260062,200.75953387295158 112.14573546504835,200.06097266229335 110.60971180602792,193.30165294269682 109.1727864475688,190.24280669446307 106.4599704691791,186.97615114587825 104.23025870605488,184.99344359507813 102.89243164821528,183.99263247854833 99.1762453764386,182.1798154107164 94.19655577218509,181.5 89.87339240926667,181.83990831972915 89.0062822792097,182.1798154107164 89.13015515494044,183.12399532782 88.68421280229813,184.80461212427326 87.91620097277337,185.729882708285 87.37116031956975,187.29715700777888 86.86328152910573,187.97693050980888 87.65606793377083,187.9958130369123" stroke="#4dd2ff" stroke-linecap="round" stroke-linejoin="round" stroke-width="0.5"><title>2022-04-25 5.0km</title></polyline><polyline fill="none" points="139.50575287643005,192.76169568800105 140.6875937969162,192.6690465540196 141.64657328664907,192.24697615825426 142.05852926464286,192.55580849621765 142.68659329666116,192.6587521954716 143.0580290145008,192.874933291052 143.65232616310823,192.864638973846 143.92921460731304,193.13229054963813 145.00300150075054,192.48374778376092 145.55677838920383,193.37935230249786 145.41495747872978,194.59405527055787 145.76613306654326,195.55138563603032 146.47523761881166,196.63222101671636 147.47473736868415,197.51745968870455 149.77088544273283,200.47157581272768 150.70960480239592,203.2608463137367 151.0,203.15792389909257 150.9797398699302,202.75652450806592 150.56103051526588,201.43908904107593 150.14232116058702,200.69801671535606 149.77763881941792,199.38052835579583 149.74387193597795,198.96880630079613 150.46648324164562,198.618839954539 149.5615307653934,194.78964034658202 148.85242621311045,193.24552733415476 148.0150075037527,192.17491501171025 147.00200100052461,191.08369098385447 145.45547773886938,189.82772514417593 143.91570785392832,189.04530464013442 141.61280640319455,188.54084298362068 140.1135567783931,188.48936702528226 138.56028014009644,188.70556570298868 138.36443221611262,188.2319864582314 136.60180090046197,187.14067849873754 134.94047023513122,186.73915368625967 132.10405202601396,186.91417770912813 131.32741370686563,187.14067849873754 130.28739369685354,187.08920113443673 128.7476238119125,188.33493884010386 127.54552276138566,189.01441937523123 126.72161080542719,189.1791405729673 124.50650325164315,189.0555997242882 124.12831415708933,188.90117324481616 124.0,189.15855045218996 126.34342171087337,189.39533634175677 127.41720860431087,189.30268112393605 128.47073536769312,188.76733658630837 130.29414707353862,187.2127467219252 130.59804902452743,187.08920113443673 131.42871435720008,187.17156489252375 133.2386193096463,186.97595075100617 135.02826413208095,187.01713273756468 135.95347673837387,187.16126942999472 136.79764882443123,187.562790936252 137.0745372686506,187.28481484379517 135.68334167082503,186.8318135375266 133.81940970485448,186.80092693903862 131.65157578789513,186.99654174842726 130.97623811908124,187.18186035297185 132.40120060031768,187.12008755921852 133.3061530765408,186.9244732212901 133.83966983492428,187.05831469105397 135.10930465233105,186.99654174842726 136.29114557278808,187.34658743905675 136.66258129065682,187.7172214474449 136.27763881943247,188.5820237130938 136.11555777890317,189.89978959002474 137.47298649327422,190.33217413781313 136.77063531767635,192.04108689939676 137.44597298649023,191.81460775963205 138.64132066033198,191.84549133759356 139.51250625314424,192.0719703409195 139.37068534267019,192.55580849621765" stroke="#4dd2ff" stroke-linecap="round" stroke-linejoin="round" stroke-width="0.5"><title>2022-04-22 10.1km</title></polyline><polyline fill="none" points="175.52986348126433,192.47824975055846 176.60494880547049,192.46654417956597 176.68174061432364,192.24413788385573 177.81825938564725,191.92808537247038 178.31740614335285,192.27925472378047 179.03156996588223,192.38460511670928 179.52303754267632,192.6772440980276 180.09897610923508,192.6304219597514 180.3754266211763,192.95817613810868 181.65017064847052,192.23243226585328 182.31825938567636,193.29763388028005 182.18003412970575,194.64373994928974 182.57167235494126,195.73230734373647 183.41638225255883,196.93790127435204 184.46075085326447,197.87426770837556 187.1100682593824,201.2801737732152 188.1313993174117,204.32308306639607 188.5,204.32308306639607 188.32337883961736,203.25808287830296 187.66296928329393,201.80684251559796 187.1177474402939,199.93422092765468 187.10238907849998,199.54798524307625 187.77815699658822,199.24367653793524 187.90102389079402,199.04470460270386 187.0025597269705,195.18217367409306 186.51877133108792,193.8594906274193 186.08105802049977,193.05181985062882 184.41467576794093,191.02674102119272 182.1262798634998,189.0952419100904 180.3677474402939,188.2172666119659 178.501706484647,187.79583377188828 176.32849829352926,187.64364894196115 174.32423208194086,187.85436629298056 174.06313993176445,187.32757148723613 172.1279863481177,186.09836509297747 170.2619453924999,185.67691693360393 164.78668941979413,186.09836509297747 162.95904436861747,187.63194240013763 161.52303754264722,188.29921153264877 161.5,188.6386964053745 162.8899317406176,187.95972468285618 165.17064846417634,186.00471020975965 167.29778156997054,186.08665824078707 168.21160409555887,185.85252070362912 168.9948805460881,186.00471020975965 170.69965870308806,185.96958958977484 171.59812286691158,186.25055395721938 172.16638225258794,186.66029123228145 171.7363481228822,187.71388814360762 171.59812286691158,189.31766021969452 173.1262798634998,189.7742004069696 172.30460750852944,191.6822655678734 173.57935153585277,191.2959752091847 176.02901023891172,191.79932274694147 177.32679180888226,191.37791580219346" stroke="#4dd2ff" stroke-linecap="round" stroke-linejoin="round" stroke-width="0.5"><title>2022-04-21 8.1km</title></polyline><polyline fill="none" points="25.2457337884116,222.46655371949964 26.505119453941006,222.38461472246127 26.819965870294254,222.25585320873506 26.95051194538246,221.99832932798017 26.866040955646895,222.39632030053326 27.80290102388244,221.92809534491607 29.453924914705567,222.61872583703735 30.16040955632343,222.60702030364337 30.3754266211472,222.91136340814774 31.58873720135307,222.16220829281883 32.27218430035282,223.15717783267974 32.14931740614702,224.69056822432685 32.6254266211763,225.80254366093868 33.19368600685266,226.69210873970587 34.56058020479395,228.00302201050727 37.179180887382245,231.36210273074175 38.16979522185284,234.36989579635338 38.5,234.27627033643512 38.38481228670571,233.7028111139516 37.57081911264686,231.73662238702673 37.08703071673517,229.67673450511938 37.171501706470735,229.46606005127614 37.84726962458808,229.1968638079743 37.586177474382566,227.59336477981924 36.879692832764704,224.7725039803263 36.06569965870585,223.06353436459176 34.307167235499946,220.92139895540095 32.118600682588294,219.11866663274486 30.45221843002946,218.2641052105173 28.92406143344124,217.83096655500412 26.428327645058744,217.6202492885932 24.18600682594115,217.84267304746027 24.170648464176338,217.7139015010289 24.06313993173535,217.33929174855803 22.012798634794308,216.03984551082613 20.139078498323215,215.630104203643 16.614334470999893,215.86424244614682 15.784982935147127,216.08667290541416 15.20904436861747,215.9227768598139 14.863481228676392,216.00472494021597 12.966723549499875,217.51489036978455 11.515358361793915,218.21727956509858 11.5,218.56847098903745 12.882252559735207,217.87779251073516 15.147610921529122,216.00472494021597 16.1228668942058,216.13350026237094 18.188566552911652,215.91106998176474 20.185153583617648,215.91106998176474 21.360068259382388,216.12179342667878 22.18941979520605,216.70713233221977 21.71331058020587,217.7021949827249" stroke="#4dd2ff" stroke-linecap="round" stroke-linejoin="round" stroke-width="0.5"><title>2022-04-19 7.2km</title></polyline><polyline fill="none" points="52.5375152604247,218.30025505603408 52.576532824663445,218.08217834392417 54.48839347314788,217.96322720709577 56.41325997633976,217.24951737641095 59.37859485967783,218.55798145832523 60.56212764204247,218.47868109847332 60.822244737064466,218.99413229891798 62.7861288045533,217.72532450340805 63.228327866090694,218.08217834392417 64.03469086068799,219.54923058227723 63.76156791092944,221.98766107604024 64.42486650325009,223.63307201512362 65.38729975483147,225.15951306728675 67.62430677207885,227.28063223356003 72.17635593510931,233.16798593242856 73.85411119801574,238.40089455773705 74.0491990193259,238.40089455773705 74.40035709759104,238.24232564333943 74.34833367861575,237.19180015384336 72.5925432871154,232.9499420549182 72.03329153280356,230.43249150842894 73.3989062817418,229.42152873846499 71.94225054956041,223.05817251437838 70.45958310787682,219.2518568900341 67.5332657888066,215.78243096662482 63.631509363418445,212.4516673786202 62.29190632401151,211.81722347876348 61.498549184179865,211.5 61.36849063666887,213.06628101872047 61.97976580998511,213.85932522335497 64.54191919602454,215.98068716075068 66.12863347568782,218.20112933750352 67.35118382232031,220.22327430228324 67.9234414313687,222.44362107059715 71.65612174503622,221.90836347072036 72.3844496110978,224.02955247912905 73.46393555548275,229.48099742325576 72.25439106358681,230.35320068483998 73.2168243152264,234.05997859954368 74.68648590211524,238.16304109067278 73.98416974552674,238.5 73.5029531197215,237.8459022432653 72.16335008031456,233.94104670947127 71.35698708574637,232.375096797281 67.83240044809645,227.7563910239478 65.24423535258393,225.2388080615492 63.592491799150594,222.36432383152714 63.50145081590745,221.59117241269269 63.89162645844044,219.80695372440096 65.97256321864552,218.53815637429943 67.325172112789,220.2034495525877 68.0014765598753,222.48326966632158 71.35698708574637,221.67047027274384 70.14744259385043,218.97430730253836 66.67487937520491,215.0092280054887 63.592491799150594,212.51114628523646 61.51155503891641,211.5198264972496 61.43351991038071,213.3041949489707 62.6040468380379,214.4541041965931 61.51155503891641,215.3660916630397 60.158946144772926,215.0092280054887 59.69073537370423,215.32644020922453 58.96240750764264,216.21859406828298 59.144489474158036,217.9434020036715 55.88001993155922,218.47868109847332 55.16469792017597,219.19238204408612 53.135784579004394,220.3620474380732 51.627105427818606,222.28502652872703 50.31351409791387,221.57134793775185 52.23838060113485,216.9323113511491 53.92914171880693,216.9521367576017 55.632908691244666,216.2978962433408 56.387248266808456,217.24951737641095 54.74851056816988,218.2407796368425 52.18635718213045,218.32008018775377" stroke="#4dd2ff" stroke-linecap="round" stroke-linejoin="round" stroke-width="0.5"><title>2022-04-10 10.4km</title></polyline><polyline fill="none" points="88.83022486077971,218.35084018868656 88.97477489203447,218.13049885035434 90.59110705921194,218.23065406445676 92.9564712063293,217.32925351746235 93.75806683397968,217.93018812041555 95.9000354783202,218.65130486576527 97.09585846381378,218.53111910351436 97.27983123081503,219.09198475509038 99.38237713937997,217.89012592618383 100.57820012484444,219.51263192448823 100.3548046220676,222.0565079605076 100.98556839462253,223.67894619907747 102.41792779485695,225.88221514147153 104.4547691437474,227.74494092480745 108.85697463981342,233.4330495669783 110.47330680701998,238.47997303446755 111.1697751392494,238.5 108.77812916820403,231.0697198622438 108.76498825629824,230.44883582370676 110.15792492075707,229.74783307160396 108.48902910581091,222.21674994853674 107.14865608909167,219.47257036571682 104.29707820064505,215.96712168193335 100.21025459087105,212.50161418764037 98.08142685843632,211.5 98.01572229882004,213.44312235416874 101.16954116168199,215.96712168193335 102.73330968111986,218.71139769255387 100.69646833222941,219.77303166424826 99.46122261096025,217.97025029864017 97.4375221739756,219.1520773164375 95.01959437911864,218.2106230296995 93.96832142482162,218.13049885035434 92.62794840816059,218.51108812908933 90.97219350514933,219.69290873980935" stroke="#4dd2ff" stroke-linecap="round" stroke-linejoin="round" stroke-width="0.5"><title>2022-04-09 5.2km</title></polyline><polyline fill="none" points="126.31535157805774,218.33587961900776 127.78822709037922,218.21560425768257 127.82767911304836,218.015145000114 130.54986867605476,217.23335004969704 131.29945710644824,217.93496118443727 132.50931913449313,218.09532875144214 133.41671565544675,218.5764299069342 134.54767363818246,218.5764299069342 134.8764404935937,219.05752874397876 136.88849364887574,217.77459335976164 137.48027398862178,218.31583373555623 138.1509583737643,219.57871653450275 137.91424623780767,222.04429881557007 138.5586292744847,223.7681657039575 140.18931287745363,226.07329003035557 142.01725659365184,227.71691139406175 146.37012975962716,233.4292874016537 148.07971740790526,238.5 148.68464842191315,238.39979078290344 148.56629235393484,237.2373565141097 147.23807425799896,234.13078473016503 146.291225714318,230.54307510985382 146.50163650180912,230.18229270686425 147.64574515871936,229.64111665801465 146.94875942519866,225.8928909157039 145.47588391284808,220.78144720534328 144.60793941447628,219.07757447852782 143.06931053104927,217.23335004969704 139.34766972754733,213.64503314968897 137.84849286676035,212.5023576757958 135.63917959821993,211.5 135.46822083339794,212.84315699284343 135.70493296929635,213.58489266136166 138.51917725181556,215.87020574878989 140.30766894543194,218.5764299069342 138.30876646432444,219.67894464386336 136.8490416262066,217.91491522046272 135.04739925841568,219.01743726277346 132.36466171804932,218.11537467924063 129.95808833630872,218.47620069074037" stroke="#4dd2ff" stroke-linecap="round" stroke-linejoin="round" stroke-width="0.5"><title>2022-04-07 5.0km</title></polyline><polyline fill="none" points="163.81050450686598,217.6497524219012 163.6922362045152,217.89012592524523 164.02075926656835,218.0904367355397 165.55824719689554,218.0904367355397 168.22585446070298,217.30922230073338 169.02745073207188,217.93018811945512 170.43352943760692,218.1505299001874 170.94602541442146,218.4910571495493 172.1549902826955,218.5511500728826 172.40466780986753,219.0318921564467 174.48093356197933,217.78997036921646 175.11169784108642,218.310778162333 175.82130765507463,219.7329702089046 175.59791197290178,222.2968708447297 176.7411722287943,224.60031912942213 177.88443248471594,226.1025393581367 179.4482022600423,227.34435766900424 184.08694789608126,233.41302158351027 185.70328136134776,238.5 186.3077637955139,238.43991909125907 186.26834102804423,237.41853810810426 184.2183571209025,232.71203965823952 183.82412944643875,230.3887500653509 185.1382216946222,229.80791921357013 185.23020815197378,229.24711380331428 183.74528391152853,223.0780462229377 182.7728556478978,220.2337372299662 181.68215908194543,218.69136675326445 180.94626742295804,219.11201561183407 181.36677694236278,218.41093319544598 179.29051119025098,215.76680660721468 175.53220736052026,212.62180721408367 173.21940500370692,211.5 173.08799577888567,212.86219283301762 173.3376733060577,213.603378177977 176.1235488721577,215.74677507773595 178.05526447697775,218.33080917699408 176.82001776370453,219.31232396867563 175.8475895000738,219.69290873863065 174.6911883216817,217.9902813806184 174.20497418986633,218.07040567258082 173.81074651540257,217.62972127051762 173.17998223632458,215.50639640979352 174.4020880270691,214.36458982706245 176.14983071715687,215.82690117162565 178.04212355450727,218.41093319544598 176.08412610471714,219.6328165031082 175.8607304225152,219.6728779974219 174.52035632941988,217.87009482205758 172.56235887962976,219.0318921564467 172.10242659278447,218.65130486464477 170.9066026469518,218.5311191024157 168.08130431341124,217.46947191431536 166.64894376287702,218.1705609470664 164.75665092552663,218.2907471436847" stroke="#4dd2ff" stroke-linecap="round" stroke-linejoin="round" stroke-width="0.5"><title>2022-04-03 6.2km</title></polyline><polyline fill="none" points="36.598360655712895,259.3734271231733 37.17213114758488,256.99934175964154 36.9918032787391,256.02470412857656 38.5,255.27497767958994 38.5,254.55023781881027 33.97540983610088,251.65123616644996 31.401639344287105,250.9514670284334 25.877049180329777,251.0264424814959 20.893442622967996,251.80118618406414 18.713114754122216,251.62624447930284 14.811475409835111,254.77515753759508 11.647540983569343,256.3495841870754 11.5,257.02433236772777 14.254098360659555,255.84976836116402 18.795081967196893,251.85116948313953 19.713114754122216,251.55126938764442 23.66393442626577,251.6012527870771 26.024590163957328,251.0764260916767 31.680327868903987,251.57626108982367 34.5,252.77585689423722 35.106557377032004,252.35100136935944 34.565573770494666,251.80118618406414 30.106557377032004,250.87649153036182 22.385245901648887,251.426310801231 20.877049180329777,251.8761611250884 18.877049180329777,251.62624447930284 13.926229508186225,255.4998960886005 11.5,256.474537829934 11.729508196760435,257.02433236772777 14.696721311483998,255.54987790199084 18.696721311483998,251.97612764290534 19.909836065606214,251.5262776804302 20.64754098362755,251.65123616644996 23.31967213115422,251.0014506688094 30.713114754122216,250.6265728768194 35.12295081972843,251.92614439397585" stroke="#4dd2ff" stroke-linecap="round" stroke-linejoin="round" stroke-width="0.5"><title>2022-03-24 5.1km</title></polyline><polyline fill="none" points="65.0247747815738,267.86339030943054 64.27927041694056,267.69665831222665 63.21568419007235,268.5 62.73856139671989,268.25748265611765 62.5,267.6511858854137 62.19185819593258,264.9076320847671 61.83401610091096,264.0587775482127 61.406593598541804,263.75561289883626 58.93151910792221,263.69497982279427 57.66913171712076,262.4823080667411 69.88546323904302,246.15481635997276 64.03076896205312,241.5 55.114536760986084,259.6930890433068 60.61138894292526,265.30173987273884 60.94935092155356,265.0288962388513" stroke="#4dd2ff" stroke-linecap="round" stroke-linejoin="round" stroke-width="0.5"><title>2021-10-26 5.0km</title></polyline></svg>