<?xml version="1.0" encoding="utf-8" ?>
<svg baseProfile="full" height="300mm" version="1.1" viewBox="0,0,200,300" width="200mm" xmlns="http://www.w3.org/2000/svg" xmlns:ev="http://www.w3.org/2001/xml-events" xmlns:xlink="http://www.w3.org/1999/xlink"><defs /><rect fill="#222222" height="300" width="200" x="0" y="0" /><text fill="#FFFFFF" style="font-size:12px; font-family:Arial; font-weight:bold;" x="10" y="20">Over 5km Runs</text><text fill="#FFFFFF" style="font-size:4px; font-family:Arial" x="10" y="280">ATHLETE</text><text fill="#FFFFFF" style="font-size:9px; font-family:Arial" x="10" y="290">Wenz</text><text fill="#FFFFFF" style="font-size:4px; font-family:Arial" x="120" y="280">STATISTICS</text><text fill="#FFFFFF" style="font-size:3px; font-family:Arial" x="120" y="285">Number: 17</text><text fill="#FFFFFF" style="font-size:3px; font-family:Arial" x="120" y="290">Weekly: 2.4</text><text fill="#FFFFFF" style="font-size:3px; font-family:Arial" x="141" y="285">Total: 127.7 km</text><text fill="#FFFFFF" style="font-size:3px; font-family:Arial" x="141" y="290">Avg: 7.5 km</text><text fill="#FFFFFF" style="font-size:3px; font-family:Arial" x="167" y="285">Min: 5.0 km</text><text fill="#FFFFFF" style="font-size:3px; font-family:Arial" x="167" y="290">Max: 15.0 km</text><polyline fill="none" points="35.71757296085707,49.14404836278845 36.72779995013843,49.12864921238361 38.70784484909382,48.420284952291695 40.87983287603129,49.3904343483664 41.778934896487044,49.3904343483664 42.051696183596505,49.74461281587719 43.54683212772943,48.80526634011767 43.79938887504977,48.92845997607219 44.5671613868908,50.098789647723606 44.31460463957046,51.99283798640681 44.91063856321853,53.45568883448868 45.840047393372515,54.872317798908625 47.48671738590929,56.39670452192513 50.264841606403934,59.96888603261323 51.12353454728145,61.3084112077122 52.133761536562815,64.74179994401493 52.75,64.71100790290802 52.406522823672276,63.20218274599756 51.588238962373,61.354601313738385 50.91138687953935,58.98347326764633 50.89118233975023,58.475364863697905 51.93171613870072,57.89026616812771 50.35576203541132,51.469284586994036 49.58798952359939,49.8986029437292 47.66855824398226,47.4963217365148 45.5066724869248,45.52516300325078 44.284297829901334,44.7089652574723 42.10220753305475,43.58475413967244 40.08175355452113,43.09194407048926 37.111686206044396,42.81473701483628 34.08100523822941,43.04574296413921 33.70722125220345,42.42972555296001 31.23216512845829,40.797255480938475 28.55506360688014,40.18122000727453 23.867610376677476,40.52004013024998 23.13014467447647,40.766453824828204 21.655213270161767,40.72025131741975 19.079134447529214,42.73773487710423 16.977862309780903,43.76955709918548 13.068283861328382,43.66175542693236 12.452045397862094,43.38455043100112 12.25,43.75415686954511 15.54333998504444,44.15456183441711 17.412259915174218,44.015960352437105 19.412509353947826,42.95334066790383 21.91787228733301,40.766453824828204 25.130394113250077,40.78185465442948 25.948677974549355,40.47383747433196 26.96900723373983,40.6894496302848 29.726926914445357,40.766453824828204 31.54533549514599,41.49028947352781 32.11106260912493,41.01286672758579 33.08088051882805,41.983109835520736 33.81834622102906,42.291120953486825 33.80824395114905,43.01494221109897 33.404153155424865,43.276748217540444 34.373971065098885,44.03136052945774 36.545959092036355,44.262362813904474 39.283674232981866,43.89275882473885 40.29390122226323,44.33936342079687 41.72842354699969,45.58676248053962 42.445684709440684,45.309564442926785 44.90053629333852,47.29612823915522 46.42597904714057,49.74461281587719 46.21383137939847,49.513627044303576 44.59746819655993,50.345172566056135 44.26409329008311,51.823453454169794 44.42572960839607,52.423996925856045 45.840047393372515,54.872317798908625 47.30487652780721,56.18113652160537 50.70934148167726,60.461587667457934 52.33580693442491,64.81877999272547 52.628772761294385,64.6956118777307 52.65907957096351,64.21833356413117 51.093227737612324,60.40000013620738 50.759852831135504,58.75251531950926 50.85077326017199,58.49076213749504 51.891307059151586,57.936458332667826 50.58811424297164,52.423996925856045 49.79003492146148,50.36057147219981 46.81996757298475,46.78794239887793 44.6681840858073,45.06316534616781 41.97087802446913,43.58475413967244 38.172424544754904,42.860938260339026 34.01028934895294,42.99954182996589 33.77793714145082,42.41432505429839 32.10096033924492,41.13607288208004 30.131017710169544,40.42763479062705 28.777313544531353,40.2120218985292 24.51415564978379,40.48923836270842 22.796769768028753,40.82805712475238 26.39317784985178,40.59704449484707 26.342666500393534,42.691533557357616 26.04970067346585,44.30856318726728 26.645734597172122,44.50876448369672 26.221439261658816,44.6319650217265 26.292155150935287,45.77156061567075 30.22193813920603,46.202754532467225 31.504926415596856,46.68014496952674" stroke="#4dd2ff" stroke-linecap="round" stroke-linejoin="round" stroke-width="0.5"><title>2022-05-08 15.0km</title></polyline><polyline fill="none" points="71.82876712328289,45.36005607824336 72.95376712328289,45.4070387267202 76.32876712322468,44.326433038506366 79.62671232875437,45.75940798873489 80.81335616437718,45.71242548182636 81.50684931501746,46.37017886223475 83.27910958905704,45.19561665999208 84.09589041094296,45.10165117444558 85.32876712322468,47.12189248321374 84.94349315064028,49.635399827755464 85.7448630136787,51.796503155186656 87.79452054790454,54.80318920695572 89.67465753422584,56.28301412478322 95.00684931507567,63.35303040736471 97.07191780820722,69.27178527751676 97.75,69.10737946269364 97.68835616437718,68.30883364766487 95.96232876705471,64.08114735500567 94.89897260273574,59.712377702097 96.50171232875437,58.8198132964535 94.7602739725844,50.97434898519714 93.85102739720605,48.31992608363362 92.71061643830035,46.37017886223475 89.58219178079162,42.65852205790725 85.7910958903376,39.322628757348866 80.98287671228172,36.71492761160334 73.44691780814901,35.728214722483244 58.19006849313155,37.39622451132891 58.066780821885914,38.28895237416873 57.2808219177532,38.6178503959236 57.25,39.53406143777829" stroke="#4dd2ff" stroke-linecap="round" stroke-linejoin="round" stroke-width="0.5"><title>2022-05-05 5.1km</title></polyline><polyline fill="none" points="119.52727272725315,47.970021777749935 121.34090909091174,48.09473930354579 123.68636363634141,47.24249988234078 126.74090909090592,48.42731863791414 127.8590909090708,48.42731863791414 128.2272727272939,48.88461347793054 130.35454545455286,47.63744097424933 130.5318181818293,47.762158900783106 131.58181818181765,49.57055195040448 131.29545454547042,51.58676902522711 131.96363636362366,53.769227785945986 133.2181818181998,55.70222426630062 135.56363636362948,57.926164814249205 137.90909090908826,60.752786655612 140.4454545454646,64.59769983311708 141.8363636363647,69.08671508320549 142.75,69.08671508320549 140.51363636361202,61.50099716641125 140.45909090907662,60.4618144410706 141.49545454545296,60.1708414087916 141.65909090905916,59.838299799128436 140.0227272727643,52.54289947873622 138.27727272725315,49.009329901920864 135.4681818181998,45.53799999113107 131.35000000000582,42.10812856697157 127.8590909090708,40.34118075357401 123.0318181818293,39.46808952396532 117.5227272727061,39.73833283433487 117.05909090908244,38.90681270190544 114.1409090909001,36.82798314720276 111.90454545451212,36.07959428715549 109.5863636363938,35.91328491679451 103.8045454545354,36.370635042381764 102.27727272728225,36.82798314720276 102.25,37.03586798135075 107.14545454544714,36.68246351480775 106.70909090910573,41.463715799669444 107.40454545454122,41.692378853702394 107.00909090906498,41.713166378991446 106.94090909091756,43.45930360334023 112.2727272727061,44.041342799442646 114.09999999997672,44.66495259236399 114.29090909092338,44.97675607998099 113.67727272724733,46.34868026850745 113.7727272727061,46.681265212413564 116.19999999998254,46.01609425600327 117.8909090909001,46.12002749970998 119.94999999998254,46.80598429092788 121.20454545455868,46.78519778826012 122.3909090909292,46.36946685877774" stroke="#4dd2ff" stroke-linecap="round" stroke-linejoin="round" stroke-width="0.5"><title>2022-05-04 7.1km</title></polyline><polyline fill="none" points="161.43809433240676,45.23360431284527 163.88750475464622,45.18663946923334 166.36772537085926,44.31778646152088 169.46414986689342,45.632804721542925 171.09709014830878,45.82066326585482 171.29735640925355,46.4077192720506 173.8700076074456,44.88136752646096 175.2718714340008,46.99477233127254 174.90214910614304,49.78910449653631 175.70321414986392,51.785015166977246 177.61344617727445,54.57923288246093 179.60070368961897,56.31677998304076 184.48411943705287,62.538865302958584 185.22356409282656,63.78324264706316 186.82569418032654,69.15973975085944 187.75,69.13626213477983 187.51892354513984,67.70411864458583 185.5778813236975,63.36062541099818 184.915462152916,60.566617486481846 184.8692468618974,59.674399215313315 186.2711106884526,59.08740979877621 186.47137694939738,58.711735026037786 183.96034613926895,48.82635893653787 182.60469760361593,46.14941499240376 181.09499809815316,44.20037339782721 175.37970711296657,39.104532851946715 171.32816660328535,36.92053321243293 166.61420692282263,35.88722884635354 161.57674020540435,35.840260249140556 157.63303537468892,36.591755540895974 155.30686572840204,36.56827138614608 148.12809052871307,37.43718197167618 148.08187523775268,38.329569906694815 147.80458349181572,38.68182642762258 147.35783567896578,38.51744018319732 147.25,39.26891827102372 147.35783567896578,40.46657649248664 147.9894446557737,41.24152527636761 150.51588056294713,42.791407438409806 154.62904146063374,43.942064242699416 155.49172689236002,45.93807470288448 155.5225370863336,47.98101483695791 159.2043552681571,48.99073069074802" stroke="#4dd2ff" stroke-linecap="round" stroke-linejoin="round" stroke-width="0.5"><title>2022-05-01 6.0km</title></polyline><polyline fill="none" points="21.465458276332356,92.65157195220672 21.354651162750088,92.34191032393574 23.84781121753622,92.5952698888359 25.546853625157382,91.97594569958164 25.65766073873965,92.76417601112189 25.63919288641773,91.97594569958164 27.116621066990774,91.41292133524257 28.261627906991635,92.22930592584453 29.9606703146128,92.42636356307776 31.179548563610297,93.1301385779152 32.841655266762245,93.04568576269958 33.22948016418377,93.80575926847087 35.83344733243575,92.17300369292207 36.33207934338134,92.28560813626973 37.8464432284818,94.62212992556306 37.514021887793206,98.42241351809935 38.455882353009656,100.47733877306746 39.82250342000043,102.72927706696646 42.90663474693429,105.60044593521161 49.11183310538763,113.3973431964987 51.955882353009656,121.39082385261281 52.75,121.19380691944389 52.65766073873965,120.06799056219461 49.370383036963176,110.97669226049766 49.55506155954208,109.65376071627543 51.272571819485165,108.66859081933217 48.94562243501423,98.76021151890745 46.93262653902639,94.00281468991307 43.091313269454986,89.32971152700338 37.8464432284818,84.96613119624817 32.34302325581666,82.29161160199874 28.797195622406434,81.41886258763407 23.737004104012158,81.10917614738719 18.14124487002846,81.67224189341505 17.513337893295102,82.0663865700044 18.529069767449982,83.05174341351812 20.92989056085935,83.75556549005705 27.393638850888237,82.99543749474105 29.055745554098394,83.36142556253617 32.08447332424112,85.9796200273995 33.91279069765005,85.36026661230426 35.02086183312349,86.71157962666621 38.60362517100293,89.55492489046446 40.875170998682734,93.24274225247063 37.93878248974215,94.93178651752532 37.45861833106028,97.38086455849407 37.73563611495774,99.04170923138008 40.35807113541523,103.32040487573249 43.349863201146945,106.05082003085408 49.370383036963176,113.98842603037338 51.8820109438966,121.36267859342479 52.713064295530785,121.2219522125888 52.63919288653415,120.06799056219461 50.570793433638755,115.00170509144664 49.38885088922689,110.24485933182586 49.610465116333216,109.71005592984147 51.254103967163246,108.66859081933217 49.18570451438427,99.6610022090972 46.87722298229346,93.80575926847087 42.77735978108831,88.96373903963831 37.6617647059029,84.76906307269383 33.081737346132286,82.48868320814654 25.934678522578906,81.27809610866098 23.533857729111332,81.13732948836696 16.682284541719127,82.15084599937836 12.582421340688597,82.31976470554218 12.25,84.9098260463361 15.371067031519488,86.45820942865248" stroke="#4dd2ff" stroke-linecap="round" stroke-linejoin="round" stroke-width="0.5"><title>2022-04-30 10.1km</title></polyline><polyline fill="none" points="71.35171428567264,95.05448951026483 73.60428571427474,95.19559873730759 76.31971428566612,94.2078305776231 79.79114285710966,95.73651586625056 81.16428571427241,95.59540729087894 81.56542857142631,96.15984057254536 84.064857142861,94.8193070872876 85.3917142857099,97.00648539502436 84.97514285711804,99.59341776781366 86.03971428569639,102.18029300660419 87.79857142851688,104.67304600261559 89.66542857140303,106.20159471428633 94.9728571427986,112.99751595965063 96.83971428568475,118.7584552907283 97.08657142851735,119.20521017690044 97.75,119.0406164697124 97.53399999992689,117.20655665796221 94.9728571427986,110.24627354332188 95.06542857142631,109.51730104850867 96.392285714217,108.9999629774029 96.56199999997625,108.64723116433015 94.67971428565215,100.463554906637 92.96714285708731,96.67723535789992 88.56999999994878,91.55022250490583 84.95971428568009,88.63383982581581 81.5037142856745,86.89338330366445 76.25799999997253,85.76442470298207 72.74028571427334,85.67034432830405 69.06828571431106,86.0231453434535 67.55628571432317,86.51706497921259 65.88999999995576,86.42298520922486 58.66942857141839,87.26970041891036 58.23742857138859,87.38729926945234 57.975142857118044,88.2340075076936 57.25,88.13992911689274 57.4042857142631,86.25834542983648 63.39057142857928,85.7879447847954 63.46771428571083,84.0709663968446 63.99228571431013,83.29478982309956 64.99514285713667,83.88280285135988 64.11571428569732,85.5762638781016 63.760857142857276,88.93959303041629 67.03171428572387,89.99796334437269 64.99514285713667,94.34894082477695 65.55057142855367,96.13632257340942 65.45799999998417,97.82960643850674 68.21971428574761,98.55865167501906 70.42599999997765,100.01672853471246 72.24657142854994,97.71201807211764 70.54942857142305,96.81834262999473 70.8734285714454,95.38374410900724 71.28999999997905,95.2426351085669" stroke="#4dd2ff" stroke-linecap="round" stroke-linejoin="round" stroke-width="0.5"><title>2022-04-28 7.1km</title></polyline><polyline fill="none" points="125.5284147557104,97.75807499372604 125.66974077769555,97.91195151927968 125.90191924225655,97.72729965153849 127.14356929212227,97.75807499372604 128.70825024924125,97.1887291625244 129.5663010967255,97.75807499372604 130.20226819542586,97.78885032352264 130.8685194416612,98.15815331752674 131.81742273180862,98.15815331752674 132.16064307076158,98.57361705849326 133.72532402793877,97.58881045873568 134.53290129613015,99.08140301642561 134.31081754737534,100.74322444581048 134.85593220338342,102.22036879789812 135.59284646064043,103.4359141497116 137.34932701895013,105.08225496230443 140.81181455633487,109.49796642685396 142.03327517447178,113.26727493734506 142.32602193421917,113.60573438671418 142.75,113.45188936776685 142.62886340977275,112.72881364215573 141.4780658025993,110.12876158267318 140.79162512463517,107.71324956961325 140.84209870389896,107.09782032716612 141.85157028914546,106.66701691698108 140.34745762709645,100.3893210502938 139.4793120638351,98.7274919465417 137.22819042872288,96.00386076333962 135.4313310069847,94.40348994650412 133.57390329011832,93.17241272875981 131.93855932203587,92.34142442618031 129.3543120638351,91.71048284467543 126.68930707877735,91.571982777823 123.98392323032022,91.78742721815797 123.7719341974298,91.23342600485921 121.16749750750023,89.54061970294424 118.86590229315334,88.94043394339678 113.77816550349235,89.30977958253061 113.20276669989107,89.54061970294424 112.01159022931824,89.34055830543366 111.34533898305381,89.63295555642253 108.46834496510564,91.86437151433347 106.93394815555075,92.5260892721999 103.0071036889567,92.37220193142275 102.58312562311767,92.17214792642335 102.25,92.6184215283356 106.77243270189501,92.89541762917361 107.69105184444925,92.66458761465765 109.14469092720537,91.87976036428154 112.04187437688233,89.34055830543366 112.78888334994554,89.43289439994987 114.61602691924782,89.01738109831786 119.35044865406235,88.8942656132931 122.15677966101794,89.83301619057602 123.86278664006386,91.37192668369971 123.81231306082918,91.81820494586282 122.96435692923842,92.18753671459854 123.07539880360127,92.94158354862884 122.73217846461921,94.38810160335561 122.02554835495539,95.26523223164986 121.03626620140858,97.52725962602563 121.58138085744577,98.38896678503806 121.56119142571697,99.63534749695827 122.88359920238145,99.92770546959218 124.84197407777538,101.00480416601204 125.96248753738473,99.38915044436726 128.00162013960653,98.21970364351 129.3341226321063,97.74268732416385 127.95114656031365,96.60399120317743 126.94167497506714,97.03485118476965 125.5486041874392,97.0810146105432 124.94292123630294,98.6659420283977 125.20538384845713,99.01985338257509 126.0331505483482,99.41992511924036 127.28489531404921,98.58900456121773 127.03252741775941,98.05044012812868 125.60917248256737,98.00427728633076" stroke="#4dd2ff" stroke-linecap="round" stroke-linejoin="round" stroke-width="0.5"><title>2022-04-27 10.1km</title></polyline><polyline fill="none" points="155.3573613568442,92.6980473788717 157.43842566909734,92.5281069039338 161.48906870535575,91.31019417505013 162.41811527335085,92.04660777963 164.29478934057988,92.41481314020348 165.46538801625138,93.20786757538735 167.08192904444877,93.26451415015617 167.5836141911568,93.83097864657611 170.2964301695465,92.1032548207586 171.2254767374834,92.64140057662007 172.2288470308995,94.6523481257027 171.9501330605126,98.33429046580568 172.91634149115998,100.65669697544945 175.4247672247002,104.08359284317703 177.39434594870545,105.6978868450824 183.7304435421829,113.91067552642926 186.14596461888868,121.5 187.2050777063705,121.27345891245204 187.14933491224656,120.42392659410689 184.75239476689603,114.30714288209856 183.93483378714882,111.07873343895335 183.82334819895914,109.889300809431 185.71860319760162,108.8414589934473 183.41456770908553,98.7024794140525 181.2591796714114,94.11421004169824 177.18995570379775,89.21422671882465 173.84538805915508,86.24016539262811 171.83864747238113,84.73894871782977 166.26436806470156,82.01972311608552 158.7948336583213,81.0 152.31008861394366,81.509862479601 151.00942341884365,82.01972311608552 151.19523273245431,83.43599299173366 150.52631920349086,85.95691818642081 149.3743014592328,87.34482406243478 148.5567404794274,89.6957355116756 147.7949222936877,90.71539576471696 148.98410190071445,90.74371955537936" stroke="#4dd2ff" stroke-linecap="round" stroke-linejoin="round" stroke-width="0.5"><title>2022-04-25 5.0km</title></polyline><polyline fill="none" points="35.50862931465963,146.64254353199794 37.28139069536701,146.50356983102392 38.71985992998816,145.87046423738502 39.337793896964286,146.33371274432284 40.27988994499901,146.48812829320377 40.837043521751184,146.812399936578 41.72848924464779,146.79695846077084 42.143821910984116,147.19843582445174 43.75450225113309,146.2256216756432 44.58516758380574,147.56902845374861 44.372436218109215,149.3910829058368 44.899199599807616,150.82707845404366 45.96285642820294,152.44833152507636 47.46210605301894,153.776189533055 50.90632816409925,158.20736371909152 52.314407203608425,162.39126947060868 52.75,162.23688584863703 52.71960980488802,161.6347867621007 52.09154577291338,159.65863356160844 51.463481740880525,158.54702507302864 50.916458229126874,156.5707925336901 50.86580790398875,155.95320945119602 51.94972486246843,155.42825993181032 50.592296148097375,149.6844605198712 49.528639319643844,147.36829100123578 48.272511255636346,145.76237251756538 46.753001500765095,144.1255364757817 44.433216608304065,142.2415877162639 42.12356178089976,141.0679569601998 38.66920960479183,140.3112644754292 36.42033516758238,140.23405053791794 34.09042021012283,140.55834855448484 33.7966483241762,139.84797968734347 31.152701350685675,138.21101774810813 28.660705352696823,137.60873052939132 24.406078039028216,137.8712665636922 23.24112056029844,138.21101774810813 21.68109054528759,138.13380170165328 19.371435717883287,140.00240826015215 17.568284142093034,141.02162906284502 16.332416208140785,141.2687108594473 13.009754877479281,141.08339958643046 12.442471235641278,140.85175986722606 12.25,141.23782567828312 15.765132566302782,141.5930045126297 17.375812906451756,141.45402168590226 18.95610305154696,140.6510048794662 21.691220610315213,138.31912008288782 22.14707353679114,138.13380170165328 23.393071535800118,138.25734733878926 26.107928964484017,137.96392612651107 28.79239619814325,138.02569910635066 30.18021510753897,138.24190414499026 31.4464732366323,138.84418640437798 31.861805902968626,138.42722226569458 29.775012506259372,137.7477203062881 26.97911455729627,137.70139040856156 23.727363681828137,137.99481262263726 22.714357178629143,138.27279052945232 24.85180090047652,138.18013133882778 26.209229614789365,137.8867098319388 27.009504752379144,138.08747203658277 28.913956978503847,137.99481262263726 30.686718359182123,138.51988115858694 31.2438719359925,139.07583217116917 30.666458229126874,140.3730355696389 30.423336668376578,142.3496843850371 32.4594797398895,142.99826120671787 31.405952976521803,145.56163034908968 32.4189594797499,145.22191163944808 34.21198099051253,145.26823700639216 35.51875937971636,145.6079555113829 35.306028013990726,146.33371274432284" stroke="#4dd2ff" stroke-linecap="round" stroke-linejoin="round" stroke-width="0.5"><title>2022-04-22 10.1km</title></polyline><polyline fill="none" points="78.29479522188194,146.21737462584133 79.90742320820573,146.19981626935623 80.02261092152912,145.86620682579087 81.72738907849998,145.3921280587092 82.47610921505839,145.91888208567252 83.54735494885244,146.07690767506574 84.28455631402903,146.51586614704138 85.14846416385262,146.4456329396271 85.56313993179356,146.9372642071612 87.47525597270578,145.84864839877991 88.47738907852909,147.44645082042553 88.27005119458772,149.46560992393643 88.85750853244099,151.09846101560834 90.1245733788819,152.9068519115317 91.69112627991126,154.3114015625688 95.66510238908813,159.42026065982645 97.19709897614666,163.9846245995941 97.75,163.9846245995941 97.4850682594406,162.38712431745807 96.4944539249409,160.21026377339876 95.67662116044085,157.40133139148384 95.65358361776453,156.8219778646162 96.66723549488233,156.36551480690832 96.85153583620558,156.06705690405943 95.5038395904703,150.27326051114505 94.77815699664643,148.2892359411344 94.1215870307642,147.07772977594868 91.6220136519114,144.04011153178726 88.18941979526426,141.14286286514107 85.55162116046995,139.82589991795248 82.7525597269996,139.19375065783242 79.492747440323,138.96547341294354 76.4863481229113,139.28154943947447 76.09470989767578,138.49135723085783 73.19197952220566,136.64754763946985 70.39291808876442,136.0153754004059 62.180034129705746,136.64754763946985 59.43856655291165,138.9479136002119 57.28455631399993,139.94881729897315 57.25,140.4580446080654 59.33489761094097,139.4395870242879 62.75597269626451,136.50706531464675 65.94667235499946,136.62998736118607 67.31740614335285,136.2787810554437 68.4923208191467,136.50706531464675 71.04948805464664,136.45438438466226 72.39718430038192,136.8758309358309 73.2495733788819,137.49043684842036 72.60452218432329,139.0708322154096 72.39718430038192,141.4764903295436 74.68941979523515,142.1613006104526 73.45691126282327,145.02339835181192 75.3690273037937,144.4439628137843 79.04351535838214,145.19898412041948 80.9901877133234,144.56687370329018" stroke="#4dd2ff" stroke-linecap="round" stroke-linejoin="round" stroke-width="0.5"><title>2022-04-21 8.1km</title></polyline><polyline fill="none" points="122.8686006826174,146.19983057925856 124.75767918091151,146.07692208369554 125.22994880547049,145.88377981310623 125.42576791808824,145.49749399197754 125.29906143347034,146.0944804508108 126.70435153582366,145.39214301737957 129.18088737205835,146.42808875555784 130.2406143344706,146.4105304554687 130.56313993173535,146.86704511222342 132.3831058020296,145.7433124392337 133.40827645052923,147.2357667490287 133.22397610920598,149.53585233649937 133.93813993176445,151.20381549141166 134.79052901026444,152.53816310956609 136.84087030717637,154.50453301576636 140.76877133108792,159.54315409612173 142.2546928327647,164.05484369453188 142.75,163.91440550465632 142.57721843005856,163.0542166709347 141.3562286689703,160.10493358054373 140.6305460750882,157.01510175768635 140.7572525597352,156.69909007691604 141.77090443688212,156.29529571197054 141.3792662115884,153.89004716973432 140.31953924914706,149.65875597049308 139.09854948805878,147.09530154689128 136.46075085323537,143.8820984331105 133.17790102391155,141.1779999491264 130.67832764505874,139.89615781578323 128.3860921501764,139.24644983251346 124.64249146758812,138.93037393289706 121.27901023891172,139.26400957119768 121.2559726962354,139.07085225154879 121.09470989761758,138.5089376228425 118.01919795220601,136.55976826624828 115.20861774747027,135.94515630546812 109.92150170649984,136.29636366922932 108.67747440270614,136.63000935812306 107.81356655291165,136.38416528972448 107.29522184302914,136.50708741032577 104.45008532423526,138.7723355546841 102.27303754270542,139.82591934765514 102.25,140.35270648356527 104.32337883961736,139.31668876610638 107.72141638226458,136.50708741032577 109.18430034132325,136.7002503935655 112.28284982938203,136.36660497265257 115.27773037541192,136.36660497265257 117.04010238908813,136.68269014002726 118.28412969282363,137.56069849833148 117.56996587032336,139.053292474091" stroke="#4dd2ff" stroke-linecap="round" stroke-linejoin="round" stroke-width="0.5"><title>2022-04-19 7.2km</title></polyline><polyline fill="none" points="152.5562728905934,139.9503825840511 152.61479923693696,139.62326751589717 155.48259020969272,139.44484081065457 158.36988996446598,138.37427606462734 162.81789228948765,140.33697218749148 164.5931914630346,140.2180216477136 164.9833671055967,140.99119844839151 167.92919320677174,139.08798675512662 168.5924917990924,139.62326751589717 169.80203629098833,141.82384587342676 169.3923518663505,145.4814916140749 170.38729975483147,147.9496080226818 171.8309496322181,150.23926960093377 175.18646015808918,153.42094835035095 182.01453390263487,162.25197889865376 184.53116679697996,170.10134183660557 184.82379852893064,170.10134183660557 185.350535646372,169.86348846500914 185.2725005178945,168.28770023076504 182.63881493062945,161.92491308238823 181.79993729916168,158.1487372626434 183.8483594225836,156.63229310770112 181.6633758242824,147.08725877157121 179.43937466177158,141.37778533506207 175.0498986832099,136.17364644994086 169.19726404506946,131.1775010679412 167.1878594859736,130.2258352181525 165.9978237762116,129.75 165.80273595493054,132.0994215280807 166.719648714934,133.28898783503973 170.5628787939786,136.47103074112965 172.94295021344442,139.80169400625164 174.77677573339315,142.83491145342123 175.63516214699484,146.16543160589936 181.23418261751067,145.3625452060951 182.32667441660305,148.54432871870813 183.94590333319502,156.72149613489455 182.131586595322,158.02980102726724 183.57523647282505,163.58996789931552 185.77972885314375,169.74456163602008 184.726254618261,170.25 184.0044296795386,169.26885336490523 181.99502512044273,163.41157006421417 180.785480628605,161.06264519592514 175.49860067211557,154.1345865359326 171.61635302886134,150.3582120923238 169.13873769866768,146.046485747298 169.0021762237884,144.8867586190463 169.58743968763156,142.2104305866087 172.70884482789552,140.3072345614637 174.7377581691253,142.8051743288961 175.7522148397984,146.22490449948236 180.785480628605,145.00570540913031 178.971163890732,140.96146095381118 173.76231906277826,135.01384200823668 169.13873769866768,131.26671942786197 166.01733255834552,129.77973974587803 165.90027986554196,132.4562924234633 167.6560702570132,134.18115629488602 166.01733255834552,135.54913749457046 163.98841921711573,135.01384200823668 163.28610306052724,135.4896603138477 162.19361126143485,136.82789110242447 162.4667342111934,139.41510300550726 157.57002989726607,140.2180216477136 156.4970468802494,141.28857306613645 153.45367686846294,143.0430711571098 151.19065814168425,145.92753979309055 149.22027114685625,144.85702190663142 152.10757090162951,137.89846702672367 154.64371257816674,137.92820513641345 157.1993630368379,136.9468443650112 158.33087240019813,138.37427606462734 155.8727658521966,139.86116945526737 152.02953577315202,139.98012028163066" stroke="#4dd2ff" stroke-linecap="round" stroke-linejoin="round" stroke-width="0.5"><title>2022-04-10 10.4km</title></polyline><polyline fill="none" points="15.74533729115501,188.77626028304803 15.962162338022608,188.4457482755388 18.3866605887888,188.59598109668877 21.93470680952305,187.24388027620444 23.13710025092587,188.1452821806306 26.35005321749486,189.22695729865518 28.143787695735227,189.04667865527153 28.419746846193448,189.88797713264648 31.5735657090554,188.08518888927938 33.36730018729577,190.51894788673962 33.03220693313051,194.3347619407723 33.97835259191925,196.76841929861985 36.126891692285426,200.07332271221094 39.18215371563565,202.86741138722573 45.785461959720124,211.39957435047836 48.20996021054452,218.96995955171587 49.25466270884499,219.0 45.66719375230605,207.85457979337662 45.64748238446191,206.92325373557105 47.73688738112105,205.87174960740958 45.233543658745475,194.57512492281967 43.22298413363751,190.4588555485825 38.94561730098212,185.20068252290366 32.81538188632112,180.00242128146056 29.622140287654474,178.5 29.523583448200952,181.41468353125674 34.25431174249388,185.20068252290366 36.5999645217089,189.31709653884172 33.544702498358674,190.9095474963833 31.69183391641127,188.20537544797116 28.65628326096339,189.97811597466352 25.029391568677966,188.56593454456015 23.45248213724699,188.4457482755388 21.44192261225544,189.01663219364127 18.958290257724002,190.78936310972495" stroke="#4dd2ff" stroke-linecap="round" stroke-linejoin="round" stroke-width="0.5"><title>2022-04-09 5.2km</title></polyline><polyline fill="none" points="60.723027367086615,188.75381942851527 62.932340635568835,188.57340638652386 62.991518669587094,188.2727175001637 67.07480301411124,187.10002507455647 68.19918565970147,188.15244177666318 70.01397870172514,188.39299312715593 71.37507348321378,189.11464486041223 73.07151045725914,189.11464486041223 73.56466074037598,189.83629311597906 76.58274047332816,187.91189003964246 77.47041098296177,188.7237506033416 78.4764375606319,190.61807480175048 78.12136935675517,194.3164482233551 79.08794391172705,196.90224855593988 81.5339693161659,200.35993504553335 84.2758848904632,202.82536709109263 90.80519463942619,211.39393110248784 93.36957611184334,219.0 94.27697263291338,218.84968617436243 94.09943853091681,217.10603477116092 92.10711138701299,212.44617709524755 90.68683857150609,207.0646126647771 91.00245475274278,206.5234390603 92.71861773810815,205.71167498701834 91.67313913779799,200.08933637355221 89.46382586931577,192.42217080801493 88.16190912172897,189.86636171779537 85.85396579658845,187.10002507455647 80.27150459133554,181.71754972453346 78.02273930015508,180.00353651370096 74.70876939734444,178.5 74.45233125012601,180.5147354892688 74.80739945394453,181.6273389920534 79.028765877767,185.05530862319574 81.71150341816247,189.11464486041223 78.71314969653031,190.76841696580232 76.5235624393099,188.12237283069408 73.82109888765262,189.77615589415655 69.79699257708853,188.42306201886095 66.18713250447763,188.96430103610328" stroke="#4dd2ff" stroke-linecap="round" stroke-linejoin="round" stroke-width="0.5"><title>2022-04-07 5.0km</title></polyline><polyline fill="none" points="105.71575676032808,187.7246286328591 105.53835430677282,188.0851888878824 106.03113889985252,188.3856551033241 108.33737079537241,188.3856551033241 112.33878169103991,187.213833451111 113.54117609810783,188.14528217918996 115.65029415639583,188.47579485029564 116.41903812164674,188.9865857243276 118.23248542408692,189.0767251093348 118.60700171481585,189.79783823469188 121.72140034293989,187.9349555538356 122.66754676162964,188.7161672435177 123.73196148261195,190.84945531336416 123.39686795935268,194.69530626710912 125.11175834323512,198.15047869413684 126.82664872705936,200.40380903721962 129.17230339010712,202.2665365035209 136.13042184413644,211.36953237527632 138.5549220420071,219.0 139.4616456932854,218.90987863689952 139.4025115420809,217.37780716216366 136.32753568136832,210.3180594873702 135.73619416967267,206.8331250980409 137.70733254193328,205.9618788203661 137.84531222796068,205.12067070498597 135.6179258673219,195.86706933441747 134.15928347187582,191.6006058449566 132.5232386229327,189.28705012990395 131.41940113448072,189.91802341776202 132.0501654135296,188.8663997931726 128.93576678540558,184.90020991083293 123.29831104079494,180.1827108211437 119.82910750556039,178.5 119.6319936683285,180.54328924953006 120.00650995911565,181.65506726698368 124.1853233082802,184.87016261661483 127.08289671549574,188.74621376549476 125.2300266455859,190.21848595302436 123.77138425008161,190.7893631079496 122.03678248252254,188.2354220709385 121.3074612847995,188.3556085088785 120.71611977316206,187.69458190578735 119.76997335447231,184.50959461470484 121.60313204058912,182.79688474060094 124.22474607574986,184.9903517574421 127.0631853317609,188.8663997931726 124.12618915707571,190.6992247546732 123.79109563381644,190.7593169961474 121.78053449414438,188.05514223310456 118.84353831945919,189.79783823469188 118.1536398892058,189.22695729696716 116.35990397044225,189.04667865364172 112.12195647013141,187.4542078714876 109.97341564431554,188.50584142061416 107.1349763883045,188.6861207155307" stroke="#4dd2ff" stroke-linecap="round" stroke-linejoin="round" stroke-width="0.5"><title>2022-04-03 6.2km</title></polyline><polyline fill="none" points="184.89754098351113,205.31014068475633 185.7581967213191,201.74901263945503 185.48770491802134,200.28705619287211 187.75,199.16246651938127 187.75,198.07535672820813 180.96311475412222,193.72685424967494 177.10245901637245,192.67720054264646 168.81557377043646,192.78966372224386 161.3401639343938,193.95177927608893 158.069672131096,193.6893667189579 152.21721311472356,198.41273630638898 147.4713114753249,200.7743762806058 147.25,201.78649855159165 151.38114754093112,200.02465254174604 158.19262295070803,194.02675422470202 159.569672131096,193.576904081463 165.49590163928224,193.65187918061565 169.03688524587778,192.86463913752232 177.52049180323957,193.6143916347355 181.7499999999418,195.41378534135583 182.659836065548,194.77650205403916 181.8483606556547,193.95177927608893 175.1598360654898,192.56473729554273 163.57786885241512,193.38946620184288 161.31557377043646,194.06424168763624 158.31557377043646,193.6893667189579 150.88934426225023,199.49984413290804 147.25,200.9618067449046 147.59426229505334,201.78649855159165 152.0450819671969,199.57481685299717 158.0450819671969,194.214191464358 159.8647540983511,193.53941652063804 160.9713114753249,193.72685424967494 164.97950819670223,192.75217600321048 176.069672131096,192.1898593152291 182.68442622950533,194.13921659096377" stroke="#4dd2ff" stroke-linecap="round" stroke-linejoin="round" stroke-width="0.5"><title>2022-03-24 5.1km</title></polyline><polyline fill="none" points="36.28716217237525,266.7950854641458 35.168905625410844,266.54498746834724 33.57352628506487,267.75 32.857842095021624,267.38622398418374 32.49999999994179,266.4767788281242 32.03778729389887,262.3614481271579 31.501024151337333,261.088166322319 30.859890397812705,260.63341934826167 27.147278661839664,260.54246973419504 25.25369757565204,258.72346210011165 43.57819485856453,234.23222453997005 34.79615344305057,227.25 21.42180514143547,254.53963356496388 29.66708341438789,262.95260980911553 30.17402638233034,262.54334435828787" stroke="#4dd2ff" stroke-linecap="round" stroke-linejoin="round" stroke-width="0.5"><title>2021-10-26 5.0km</title></polyline></svg>