<?xml version="1.0" encoding="utf-8" ?>
<svg baseProfile="full" height="300mm" version="1.1" viewBox="0,0,200,300" width="200mm" xmlns="http://www.w3.org/2000/svg" xmlns:ev="http://www.w3.org/2001/xml-events" xmlns:xlink="http://www.w3.org/1999/xlink"><defs /><rect fill="#222222" height="300" width="200" x="0" y="0" /><text fill="#FFFFFF" style="font-size:12px; font-family:Arial; font-weight:bold;" x="10" y="20">Over 5km Runs</text><text fill="#FFFFFF" style="font-size:4px; font-family:Arial" x="10" y="280">ATHLETE</text><text fill="#FFFFFF" style="font-size:9px; font-family:Arial" x="10" y="290">Wenz</text><text fill="#FFFFFF" style="font-size:4px; font-family:Arial" x="120" y="280">STATISTICS</text><text fill="#FFFFFF" style="font-size:3px; font-family:Arial" x="120" y="285">Number: 31</text><text fill="#FFFFFF" style="font-size:3px; font-family:Arial" x="120" y="290">Weekly: 2.6</text><text fill="#FFFFFF" style="font-size:3px; font-family:Arial" x="141" y="285">Total: 223.5 km</text><text fill="#FFFFFF" style="font-size:3px; font-family:Arial" x="141" y="290">Avg: 7.2 km</text><text fill="#FFFFFF" style="font-size:3px; font-family:Arial" x="167" y="285">Min: 5.0 km</text><text fill="#FFFFFF" style="font-size:3px; font-family:Arial" x="167" y="290">Max: 15.0 km</text><polyline fill="none" points="25.82915675872937,43.80136862579093 27.083592463866808,43.77125571205397 28.83190049388213,43.214164626726415 30.975306383770658,44.14766626458004 31.903786354494514,44.13260987873946 32.03219315895694,44.41868069233897 33.61258459847886,43.53035196683777 33.978050118894316,43.84653797374631 34.59045180171961,44.915537932669395 34.33363819279475,46.451257679698756 34.58057435523369,47.369663283985574 35.726358148880536,49.34193894392956 37.405524053407134,50.92273312910402 40.75397841594531,55.16812973405467 42.117066032544244,59.202539247708046 42.571428571420256,59.09716564014525 42.38375708798412,58.269225000251026 40.991037131869234,54.882099925023795 40.66508139745565,53.18095273255312 40.783610755432164,52.92502459422394 41.74172306567198,52.44327514080942 40.250228644610615,46.3609220946164 39.381013352860464,44.56924384011654 36.56594110117294,41.40735424820741 34.323760746308835,39.615557626995724 31.943296140496386,38.39590686352312 29.74062557160505,37.83877583970752 27.123102249839576,37.612910731761076 24.268520212179283,37.899006420208025 23.9425644777657,37.20635182299884 22.69800621914328,36.40828533187596 21.374428388517117,35.62526844340027 20.06072800437687,35.2337569326628 18.628498262318317,35.083175038016634 13.205780135351233,35.62526844340027 13.156392902863445,36.21253187635739 13.867569050664315,36.092067957397376 12.958843972912291,36.28782172741194 11.714285714289872,37.31175619621354 14.440460947487736,37.10094730156561 14.687397109955782,37.92912169234478 16.514724711916642,38.00440981971042 16.504847265430726,39.193952199326304 17.077739162254147,39.28429641908588 16.61349917689222,39.52521380633698 16.68264130235184,40.59427537359443 20.238522041327087,40.895416725528776 21.94732028534054,41.49769580116117 21.492957746464526,43.063598758024455 21.927565392339602,44.3132863090359 21.838668373879045,45.48767249483353 23.47832449240377,45.879130469518714 25.058715931954794,46.797543080981995 26.164989939628867,45.36722347607429 28.466434973466676,43.93687658798444 29.345527711702744,43.71102984830213 28.120724346052157,42.551672543057066 27.162612035870552,42.98831571031042 25.799524419242516,43.03348554803233 25.661240168265067,43.77125571205397" stroke="#4dd2ff" stroke-linecap="round" stroke-linejoin="round" stroke-width="0.5"><title>2022-06-07 8.0km</title></polyline><polyline fill="none" points="77.45203535965993,41.412558257576165 76.38338971955818,43.3289537026576 74.53683291500784,42.75404153356067 74.0968023573223,43.34093098060839 72.58812615959323,44.586554756035184 71.75521117539029,45.04168003221275 71.39375750304316,45.49680183609962 70.34868492855458,47.48492479225388 69.97151587912231,49.02986615942791 69.33504310820717,50.32327467462164 68.6828549602069,53.221366020101414 68.32925897632958,53.5566732876905 66.97773654919001,54.77813382621389 65.90909090911737,55.42477928156586 61.21019316819729,56.52645539716468 58.71930590420379,54.07160577941977 57.3992142311763,53.353094100002636 55.33264214778319,52.91000758424343 55.18334606572171,52.622598355032096 55.38764596750843,51.65258198414449 55.28549601661507,51.185531439768965 54.232565753598465,50.65859823082792 52.18170904726139,48.58674753378 48.60646076613921,48.45500892927885 48.142857142869616,48.15560192802877 48.142857142869616,47.59271269756937 50.89304812834598,45.544709192428854 50.877332751319045,45.30517202607007 50.67303284953232,45.26924136817979 49.93441012772382,45.88005960941882 49.730110225937096,45.79622218188888 49.808687111217296,45.58063968440911 54.224708065070445,42.10725872024341 54.287569573294604,40.598071549855376 54.50758485213737,40.52620454173666 56.40914547641296,40.981360797653906 58.92360580599052,40.63400502147124 61.86238131619757,39.04093365429435 64.7932991378766,38.21443625788743 66.12910618796013,37.962891298913746 66.52199061447755,38.17850132871172 69.68863909202628,37.759258888549084 70.29368110882933,37.86706436888562 70.45083487944794,38.825326741884055 73.62534104552469,39.136758698565245 74.55254829209298,39.48412319354611 74.18323693118873,40.75378310379892 74.55254829209298,41.75990950020787 74.53683291500784,42.7300867395752 75.91192840776057,43.11336228854998 77.12201244136668,43.784088573713234 77.71919676967082,42.897770095281885 79.0000000000291,41.92759558308535 78.79570009827148,41.43651358062198 77.97850049115368,41.38860292490426" stroke="#4dd2ff" stroke-linecap="round" stroke-linejoin="round" stroke-width="0.5"><title>2022-06-05 8.1km</title></polyline><polyline fill="none" points="90.72480323183117,41.8692407951894 90.86020756425569,42.12150759222277 91.01065682247281,41.77750727629609 92.63550881104311,41.8692407951894 95.6294490492437,40.837234459737374 96.96844744723057,41.66284027410438 100.11283694359008,42.3049740036804 100.5040050149546,42.83243829517596 103.03155255271122,41.45643938000285 103.70857421465917,42.14444090973848 104.3705509507563,43.612163655234326 104.03956258267863,46.3411604975845 104.83694365114206,48.26747195258213 106.64233474957291,50.85876825857849 108.53799540293403,52.463966570590856 111.39653130876832,55.97239291702135 113.84885421744548,59.38899212873366 114.82677439571125,61.77367196139676 115.42857142852154,61.475589704823506 114.20993243710836,58.38007413560263 113.77362958830781,55.995323453731544 113.95416869816836,55.58257308906468 115.26307724457001,55.05516767477093 115.27812217036262,54.59655229159398 113.51786584936781,46.91447087388224 111.92310371249914,43.15350232340279 109.04952288081404,39.644682191596075 104.03956258267863,35.44771653143107 100.53409486659802,33.589993964342284 95.04269694228424,32.51204232431337 89.9876018667128,32.64965373852465 88.15212091658032,32.856070548907155 87.1290659608785,33.36064340368466 87.27951521903742,34.32391266342893 86.73789788951399,36.61737820079725 86.31663996656425,36.73205026868527 84.57142857142026,40.44736297282361 87.20429058989976,39.80521879913431 90.18318590236595,40.149225055436546 90.86020756425569,40.401495651574805 90.64957860275172,41.548173156770645 91.19119593233336,41.84630742239824 90.81507278676145,42.02977427600126" stroke="#4dd2ff" stroke-linecap="round" stroke-linejoin="round" stroke-width="0.5"><title>2022-06-04 5.1km</title></polyline><polyline fill="none" points="151.61596675141482,53.03550752810406 151.7097574591753,51.74879066229914 150.7182556912885,51.46285137051018 148.80224551827996,51.27903282995976 146.18950437314925,51.89176000678708 146.85943800007226,49.95144461749442 148.03852118353825,48.25619140182971 148.6012654301594,46.295381357726 148.40028534209705,45.53964239425113 149.57936852550483,45.02900478058291 149.60616587061668,44.29368211299152 146.06891632033512,42.0059775938571 144.34048756276025,41.45446969957993 142.61205880527268,41.25020675761334 136.1940946591203,41.69958468849654 135.47056634203182,41.96512525984872 133.8091309471929,41.80171575950226 129.60194776995922,45.008579222681874 127.19018671294907,46.070702792931115 122.80882079273579,45.886874507225 121.22777743314509,45.45794054832368 121.0,46.02985209151666 121.80392035227851,46.25453074645338 127.3107747658214,46.41793309295463 129.9235159108939,45.294536659595906 133.87612430987065,41.92427290937485 136.2878853668808,42.08768221281207 142.1966999565775,41.76086334339925 144.60846101355855,42.12853449759132 146.22970039074426,43.21111406669661 145.6669561441522,44.08942487296008 145.11761057007243,47.56174216762156 147.54277029962395,48.419590532597795 146.28329508096795,51.72836645384814 148.65486012029578,51.054365273615986 150.3162955151347,51.23818422020122 151.85714285713038,51.74879066229914 151.68296011412167,52.93338773659343" stroke="#4dd2ff" stroke-linecap="round" stroke-linejoin="round" stroke-width="0.5"><title>2022-06-03 5.0km</title></polyline><polyline fill="none" points="188.071242397913,53.05850251620723 187.82996152417036,52.79287550543813 188.1248603699205,51.93469119339716 186.61015266232425,51.34213113496662 184.9479955318675,51.21953207140905 182.87029911883292,51.93469119339716 182.5217823011335,51.791659771086415 182.73625418895972,50.729134339955635 184.6933101650793,47.56192540349002 184.98820901082945,46.27458004525397 184.78714161599055,45.47764380447188 185.99354598487844,44.98721840009239 185.93992801292916,44.394617882840976 182.3877373712603,42.00374626231496 180.3502544371877,41.370258042399655 178.99640064541018,41.22721176951018 173.09842373093124,41.67678509293182 171.4362666005036,42.085486390511505 170.1628397667082,41.819830733809795 165.92701998268603,45.04852170494269 163.59463820286328,46.04980378881737 158.42050390967051,45.84546130657691 157.71006578137167,45.436775111054885 157.42857142857974,45.98850108720944 158.16581854294054,46.25414586065017 162.24078441108577,46.47892166575184 164.53295271194656,46.21327747910982 166.79831202686182,44.844177211904025 170.33709817554336,41.90157100975193 171.90542385508888,42.146791443548864 175.81953580741538,41.69722019681649 181.12771503045224,42.085486390511505 182.53518679412082,42.88244919919816 182.60220925908652,43.29114565409691 181.86496214472572,44.823742740052694 181.5030408340681,47.62322715714254 184.23755740353954,48.399712840488064 182.68263621695223,51.750793613507994 185.24289437755942,51.11736607221974 187.13292788885883,51.42386376197828 188.28571428573923,51.89382509324787 188.0578379049548,52.87460696722701" stroke="#4dd2ff" stroke-linecap="round" stroke-linejoin="round" stroke-width="0.5"><title>2022-06-02 5.0km</title></polyline><polyline fill="none" points="22.242846262670355,76.08298759800527 23.899684473959496,76.02925228592358 25.662278315779986,75.47398549877107 26.24980959633831,75.63519234141859 26.23805897074635,75.20530678027717 28.799695354158757,76.35166367301281 29.869002284831367,76.40539879087737 30.010009792196797,76.7278088185194 30.867805461894022,76.42331048967753 31.86660863889847,75.63519234141859 32.53639429877512,76.19045812512923 33.07692307693651,77.35471386968857 32.8419105646899,79.71900185249251 33.39418996847235,80.88321154652658 34.780763790680794,82.99666108813835 36.484604504395975,84.44738984383002 40.479817212501075,89.65907261516259 41.913393537164666,94.22576085432956 42.57142857144936,94.15412833355367 40.338809705135645,87.4741430193244 40.338809705135645,86.84730907698395 41.56087476879475,86.16674152424093 40.24480470025446,80.29215313905297 38.858230878046015,76.9964829513483 35.638559460348915,73.073760270192 32.806658687855816,70.9242500249893 30.339027309324592,69.65243207300227 27.75388967472827,68.98964651636197 23.852681971533457,68.63138200281537 20.586008051381214,68.95382012976188 19.54020237189252,69.32999647138786 17.812860406935215,69.27625709115091 12.842345773067791,69.84947547800402 12.337068871740485,70.01069248560088 12.278315743693383,70.67347045565839 11.749537591123953,70.72720899413252 11.714285714289872,72.08857450415235 15.14546839299146,72.33935009510606 17.50734414102044,72.96628598808456 18.059623544773785,73.360357722755 17.589598520338768,74.91871525530587 19.78696550973109,74.36344155535335 22.548362528556027,74.82915521487303" stroke="#4dd2ff" stroke-linecap="round" stroke-linejoin="round" stroke-width="0.5"><title>2022-05-30 6.1km</title></polyline><polyline fill="none" points="64.0413565938943,78.58428464809913 64.16432841285132,78.46378167094372 65.0339148469211,78.53072779624199 66.76430401368998,77.94159958680757 68.74942051971448,78.73156576889232 69.52238623888115,78.74495494555595 69.82103208490298,79.02612703455088 71.08588507989771,78.22277506333194 71.39331462731934,78.4503924377932 71.946687812655,79.41441035126991 71.71831157742417,81.00768718422842 71.9642552153382,81.73067419872314 73.27302671712823,83.75231850516502 74.37098938637064,84.66270784733206 77.46285226303735,88.63882150117934 78.59594973770436,92.13278629344495 78.9472977918922,92.10601331287035 79.0,91.69103073894075 77.9459558374947,89.06721017222662 77.37501524950494,86.81813894847801 77.47163596437895,86.55038732176399 78.27095278759953,86.24247162203028 78.31487129439483,86.00149312616486 76.9094790777308,80.43196969603014 76.20678296938422,79.11985080076192 74.51152860803995,77.05789751324846 71.75344638284878,74.7013013920623 71.32304501647013,74.63435142191156 69.59265584973036,73.64348400418385 67.24740758814733,73.12126416965839 64.85824081982719,73.00075131930862 62.85555691109039,73.25516708123905 62.539343662327155,72.67938265348857 60.317067219730234,71.28676720259318 58.02452116631321,70.72435656369635 54.35293400025694,70.99217174527803 53.36037574723014,71.25998585113848 52.438087105052546,71.1394696366624 51.88471391974599,71.27337652821734 49.67122117849067,73.05431261298872 48.75771623765468,73.58992318375022 48.17799194826512,73.71043496925995 48.142857142869616,74.08535913118249 50.20702696108492,73.02753197151469 52.34146639017854,71.1260789326916 55.04684640726191,71.2332044889954 55.9691350494395,71.00556247609711 56.89142369158799,71.16625103644765 58.23532999880263,71.07251608999286 59.315725265361834,71.24659517141117 60.46639014277025,71.83578253615633 61.14273514703382,71.4474550852101 61.994754178391304,72.31784105299812 62.60082957180566,72.6258210585911 62.55691106503946,73.21499623600175 62.30218372575473,73.34889895937522 62.29340002441313,73.60331339290133 62.741368793474976,73.93806774755285 63.81298035866348,74.2728204215855 67.52848603151506,73.9514578867711 68.020373307314,74.16569974875893 69.11833597661462,75.25028861148166 71.72709527876577,74.56740138455643 74.25680126878433,76.70976923836497 76.18921556670102,79.03951615209371 77.08515310479561,80.83363358408678 74.72233744055848,81.48967939817885 74.37977308771224,81.11479686616804 74.0459924362658,79.89641408175521 73.30816152252373,78.9056248558627 72.03452482618741,79.50813357172956 71.19128949617152,78.37005698260327 69.77711357816588,79.07968348852592 69.46090032940265,78.83867910694244 68.75820422105608,78.79851162534396 68.14334512627102,78.51733857657382 67.25619128948892,78.46378167094372 66.60619738930836,78.6378414569408 66.000121995894,79.13323989947821" stroke="#4dd2ff" stroke-linecap="round" stroke-linejoin="round" stroke-width="0.5"><title>2022-05-28 10.0km</title></polyline><polyline fill="none" points="100.62275643629255,78.43457677618426 101.87704052624758,78.38109594599518 103.21026557296864,77.76606331158837 103.97336148787872,78.31424484788295 104.63120279379655,78.39446615758061 105.21887436043471,78.72872057431596 105.89425810120883,78.70198028274899 106.22756436286727,79.04960323586783 107.20116949564544,78.35435551479895 107.63095914886799,78.24739368261362 108.35897019412369,79.37048435108954 108.2274019329052,81.09519385332533 108.67473402092583,82.20486704765426 109.4553723706631,83.47495222540965 110.95525054819882,84.85196457476559 113.91992203364498,88.70210042039253 115.03386664501159,92.15099143678162 115.42857142857974,91.99058186162438 115.37594412409817,91.32220447293366 114.27954194752965,88.6218915273057 113.81466742465273,86.63000636057768 114.76195890520466,86.1487365781868 113.49013238039333,80.72084209826426 112.60423942175112,78.95601261932097 110.23601072040037,76.37553380563622 108.18354584585177,74.70418587569293 107.04328758222982,74.24957198113043 106.24510679769446,73.6879858259199 103.80670835703495,73.11302366454038 101.38585235114442,72.95256822174997 99.22813286769087,73.19325124094757 99.08779338907334,72.65839890570714 96.77219199220417,71.2142761394025 94.58815885646618,70.70615142036331 88.38690814582515,71.2142761394025 86.19410379274632,72.9793108224294 84.57142857142026,73.75484156892708 84.58897100621834,74.02226386983239 84.93981970273308,74.02226386983239 85.86079753102968,73.5409029548864 88.4746203199611,71.29450600372002 88.86055388610112,71.16078950947485 91.43052058797912,71.18753282981197 92.21115893768729,70.93347085297137 93.0181109396508,71.12067450886025 94.73726955248276,71.0538161207296 95.7810444245988,71.25439108362843 96.93884512301884,71.84274082239426 97.60545764639392,71.41485061887579 98.3510111264477,72.2839997146657 99.0614797368471,72.67177026643913 99.16673434581026,73.0461672770507 98.7544871274149,73.48741819395582 98.9649963453121,73.80832611503865 99.46495573781431,74.0356349567337 100.93852026312379,74.30305612984012 103.96459027042147,73.91529507837913 104.35052383659058,74.07574820112859 105.59603670917568,75.26576346010552 107.04328758222982,74.77104059842168 108.15723219362553,74.63733108587621 110.4728335905238,76.45575745110182 112.38495898645488,78.71535042988035 113.10419881425332,79.89191286533605 113.44627629336901,80.89464853199024 111.1043612442154,81.48291309534034 110.83245350443758,81.14867250368843 110.52546089497628,79.95876237954872 109.68342402338749,78.86242187123207 108.48176723788492,79.47744437921574 107.58710306178546,78.28750438983116 106.20125071061193,79.07634338786374 105.88548688378069,78.79557125634892 105.21010314303567,78.76883099159386 104.59611792414216,78.4212065726424 102.99975635504234,78.62175934352854" stroke="#4dd2ff" stroke-linecap="round" stroke-linejoin="round" stroke-width="0.5"><title>2022-05-26 10.0km</title></polyline><polyline fill="none" points="127.13094963185722,74.86366393085336 129.07861658307957,74.77698125593452 131.66602815350052,73.93182152644295 134.7510188720189,75.36208796082065 135.81725990370614,75.29707626133313 136.3006225047866,75.99053236979671 138.7174355100724,74.49526208148745 139.95427510689478,76.4456105195568 139.5704283354571,78.6776327059415 140.40920461376663,80.88793928514497 141.3901463629445,82.55647407296055 144.1197234042338,85.1350680100004 148.89648322638823,91.28877435126196 150.65933506551664,96.70547903794795 151.4412451555254,96.85714285714494 151.29907968459884,95.8388245544993 149.18081416818313,90.70375398074975 148.83961703802925,88.03862105616281 150.13332282321062,87.54025556371198 150.27548829413718,87.17189698163565 147.88710838300176,77.81083345567458 146.8493004454649,75.8821801465674 143.72166008572094,72.26315339606663 139.5988614296075,68.83905228747608 137.32421389524825,67.56040439436038 133.72742748149903,66.39010321379465 128.90801801806083,66.0 124.69992007943802,66.41177557319315 123.69054523605155,66.71518814811861 123.91800998948747,67.53873226559517 123.36356465303106,69.9226403376233 122.35418980958639,71.09290321171284 121.4158977016923,73.47673277688591 123.8184941598447,72.82660266284074" stroke="#4dd2ff" stroke-linecap="round" stroke-linejoin="round" stroke-width="0.5"><title>2022-05-24 5.1km</title></polyline><polyline fill="none" points="188.23202634687186,87.40308729973913 187.93674268314498,87.07573523651081 188.20518237742363,86.0322935160948 186.19188467037748,85.62309776768961 184.7557323059882,85.70493704884575 182.90349841545685,86.2778101763688 182.58137078231084,86.05275326035917 183.15851612502593,84.51826103851636 184.5946684894152,82.16532807978365 185.06443795436644,80.65123813950049 184.88995215314208,79.81234078321722 186.15161871624878,79.2803535149942 186.15161871624878,78.89159183156153 185.92344497609884,78.33913846655196 184.09805505501572,77.1114535971501 181.0512645249546,75.78144496140158 178.8500590318581,75.45405555739853 173.21282545206486,75.92467749484058 171.56192133223522,76.2929887990249 170.40763064689236,76.04744807749375 169.56204560989863,76.33391219513578 165.96495370659977,79.25989241070783 163.72348225937458,80.2829425897362 158.8244578388112,80.11925525139668 157.61647921457188,79.77141878431576 157.42857142857974,80.16017711068707 157.96545081713703,80.4466296651226 160.64984775992343,80.73308141421876 164.5690672963683,80.54893395362888 166.78369477411616,79.25989241070783 169.7365314112103,76.5999138688785 170.54185049404623,76.2316036741322 178.34002361274906,76.10883331339573 181.11837444853154,76.37483557478117 182.6350587211782,77.4183762013854 181.88342757723876,78.87113064926234 181.54787795935408,81.81749859774573 184.2725408562983,82.65637944469199 182.68874666007468,86.05275326035917 185.31945566396462,85.43895914476889 186.70192008948652,85.58217810252245 188.28571428571013,86.01183376773406 188.20518237742363,86.85068008297094" stroke="#4dd2ff" stroke-linecap="round" stroke-linejoin="round" stroke-width="0.5"><title>2022-05-22 5.0km</title></polyline><polyline fill="none" points="17.917123614286538,108.70022348206112 18.0018281302182,109.15213494934869 19.10298683750443,109.19517403734062 20.627668124623597,108.97997842456243 22.519402314093895,108.22679037717899 23.14056876435643,108.76478237974516 24.622897793422453,109.00149800530926 25.695821662142407,109.6255639665178 26.81109778874088,109.53948611895612 27.149915852525737,110.05595216733491 29.29576358984923,108.70022348206112 30.001634556101635,109.25973263687774 30.69338810298359,110.61545424452197 30.32633520057425,113.2622898624104 31.243967456626706,115.32806736599741 32.782766162999906,117.5229123371173 34.688617771840654,119.13674025892396 39.68618421268184,125.59180896262114 41.49321388627868,131.14285714285506 42.15673259453615,131.0137662641646 42.05791065917583,130.3898248251644 39.78500614798395,124.88177043452015 39.43207066488685,122.57949194622051 39.57324485812569,122.19218790186278 40.80146033933852,121.69729736414592 40.88616485532839,121.09481884267734 38.726199698634446,112.44457526728365 37.70974550727988,110.37874218373327 33.799220354354475,105.77351260883734 30.34045261988649,103.08345050518983 26.528749402204994,101.23264856767491 22.053527476382442,100.37179956615728 19.060634579509497,100.2857142857174 15.601866845041513,100.6730975032624 14.571295234374702,101.08200049160223 14.684234588930849,101.92132279007637 14.133655235287733,104.31012719959836 13.399549430410843,105.02030202615424 12.12898169120308,107.882474078222 14.571295234374702,107.10775836091489 16.646555875020567,107.3014378153166 18.044180388213135,107.86095427285181 17.733597163052764,108.67870384080743" stroke="#4dd2ff" stroke-linecap="round" stroke-linejoin="round" stroke-width="0.5"><title>2022-05-16 5.4km</title></polyline><polyline fill="none" points="66.13643819987192,113.0556483361579 66.8373867769842,113.11435575679207 68.36252763713128,112.62121159150774 68.72455602313858,112.93823331804015 69.53334284291486,113.09087279560481 69.94158761861036,113.33744341770944 70.62713073249324,113.31396054611105 70.86591541260714,113.6309785169542 72.10605520292302,112.91475028614514 72.80700378009351,113.97147738611602 72.65294914774131,115.49782726261037 73.2691676770628,116.80106370317299 74.07795449686819,117.90468266175958 74.99457955925027,118.6678112506379 77.66742743030773,122.07241747945955 78.65337707728031,125.07769827719312 79.0000000000291,125.05422011947667 78.9845945367997,124.71378577359064 77.88310391557752,121.79066448677622 77.58269738254603,120.5344992107348 77.63661650384893,120.28795893298593 78.36067327583442,119.93575673326268 78.38378147070762,119.71269424299317 77.25918265461223,115.12211406635834 76.56593680911465,113.76013349382993 74.74038941590698,111.59968544753428 72.27551529850462,109.62703273385341 70.86591541260714,108.92249777908728 69.47942372161197,108.558484726389 66.9837386777217,108.32363639298273 64.74224377720384,108.52325753652258 64.58048641326604,108.07704462772381 63.51750945014646,107.30203516648544 62.46993795025628,106.71489994782314 60.960202553338604,106.35087315137571 57.41694600955816,106.57398661806292 56.561942800093675,106.79709923336122 55.391127594339196,106.72664270999303 53.057199914444936,108.52325753652258 51.786249197641155,109.08689002781466 48.71285928253201,108.98120934954568 48.296911775221815,108.76984741997512 48.23528992230422,108.87552848025734 48.142857142869616,109.0986323136276 48.58961557666771,109.21605504187391 51.67070822342066,109.36870423610162 52.995578061498236,108.85204381669973 55.714642322272994,106.7383854697764 57.232080450776266,106.84407020178696 58.35667926684255,106.6679288756277 60.78303972617141,106.69141441644388 61.707367520197295,106.80884197901469 62.770344483316876,107.30203516648544 63.10926467445097,106.98498288066185 61.5070964981569,106.4565585838136 60.55195777764311,106.35087315137571 57.309107766952366,106.55050103005124 56.176806219271384,106.84407020178696 57.83289351689746,106.79709923336122 58.79573496899684,106.57398661806292 60.790742457757005,106.65618610169622 61.84601668929099,106.87929840333163 62.86277726269327,107.31377781074116 63.324941159720765,106.97324017039864 64.08751158977975,107.75999654428597 64.61900007133954,108.01833214938597 64.64981099782744,108.4762879169939 64.00278154201806,108.73462035744888 64.07210612655035,109.08689002781466 65.58184152346803,109.80316514616425 66.9837386777217,109.69748576241909 67.0376577990537,111.31788199139919 66.69103487630491,111.52923471081522 66.67562941304641,111.89322927018293" stroke="#4dd2ff" stroke-linecap="round" stroke-linejoin="round" stroke-width="0.5"><title>2022-05-14 9.9km</title></polyline><polyline fill="none" points="97.85277858594782,112.11501701255474 98.8478324119933,112.17888172648964 100.93220832120278,111.44443441941985 101.8958393947978,112.03518604802957 102.49287169039599,112.08308463638969 103.19464649399742,112.49820452670974 103.84405004364089,112.43434006924508 104.47250509166042,112.84945812583464 106.02269421005622,111.81165892093122 107.00727378527517,113.3284378058961 106.78731451847125,115.26029322957766 107.35292406167719,116.60138840287254 108.05469886527862,117.81474073741992 109.88769275529194,119.52298172188603 113.61652604013216,124.31224676196871 115.07244690135121,128.47867273739394 115.38667442536098,128.3669323606009 115.42857142855064,127.7603390041404 114.21355833573034,124.8071210409471 113.55368053531856,122.02939973533648 113.6479487925244,121.77397221532738 114.66395112013561,121.2631147140637 113.49083503056318,116.15435919154697 112.18155368050793,113.00911833975988 109.3849287168996,109.70408654356288 106.83968577245832,107.67629372271767 104.13732906602672,106.36698269361659 101.44544661042164,105.80812385974423 99.23537969158497,105.63248170063889 96.10357870231383,105.91989594073675 95.84172243234934,105.34506642158522 94.42769857434905,104.30716926385503 92.92988070991123,103.46087386151339 91.7567646203097,103.09361078973598 90.31131800985895,102.94989869117853 85.35699738140102,103.33313037677726 84.57142857142026,103.62055292876903 90.6150712830713,103.34909832358244 92.58423043350922,103.82813523681398 93.22315973229706,104.35507250785304 92.59470468427753,105.63248170063889 92.34332266508136,107.86789840637357 94.35437881873804,108.66624628494174 93.25458248468931,111.17300652388803 94.9409368635097,110.662080912909 96.99389002035605,110.86964483830525 97.59092231598333,111.09317461360479 97.48617980798008,112.03518604802957" stroke="#4dd2ff" stroke-linecap="round" stroke-linejoin="round" stroke-width="0.5"><title>2022-05-12 7.0km</title></polyline><polyline fill="none" points="132.1768811341026,110.40130653952656 133.4959651035897,110.40130653952656 135.67480916029308,109.64728519494383 136.1930207197147,110.11406106282811 138.01853871316416,110.74240934447153 139.11384950924548,110.77831482719921 139.62028353326605,111.26303743261087 141.48113413303508,110.13201393214695 142.4115594328905,111.64004208670667 142.27022900761222,114.27903015580523 143.05932388221845,115.87674698335468 144.23707742636907,117.54624080638314 145.7446019629133,118.82077962403127 148.04122137400554,121.62111096319131 148.2767720828415,122.3032296730089 149.40741548527149,123.46999961402616 150.13762268263963,124.74445399863907 151.19760087237228,128.37026712380612 151.85714285713038,128.19077488340554 149.9020719738037,122.28527924732043 149.79607415481587,121.4236545760723 151.00916030531516,120.6697261779118 149.72540894220583,115.03301244087925 148.86564885493135,112.71718948196212 148.20610687020235,111.46051625921245 145.55616139582708,108.26489621387736 143.42442748090252,106.34387863498705 141.02181025079335,104.74599144672538 139.43184296617983,103.99192240559933 137.71232279168908,103.54306876634655 133.7432933478558,103.05830430477363 129.95092693564948,103.41738934348541 128.9498364230967,103.79442708197894 127.33631406762288,103.70465633604908 121.68309705558931,104.40486576353578 121.58887677206076,105.14097745376057 121.247328244237,105.1050697070823 121.04711014174973,105.37437745591888 121.0,106.3977395033362 121.23555070883594,106.68499691991747 123.01395856050658,106.61318265234877 126.08789531077491,107.11588131431927 127.39520174480276,107.70834396594728 127.03009814611869,109.37799031653412 129.04405670665437,108.67781983655004 130.45736095964094,108.80349186491367 131.89422028351692,109.23436604969174 131.65866957468097,110.13201393214695" stroke="#4dd2ff" stroke-linecap="round" stroke-linejoin="round" stroke-width="0.5"><title>2022-05-10 6.0km</title></polyline><polyline fill="none" points="175.3086270177737,113.15737018117215 176.07832377153682,113.14563749514491 177.58692940883338,112.60593139221965 179.24177742935717,113.34509283685111 179.92680754017783,113.34509283685111 180.1346256636898,113.61494309780755 181.27377685921965,112.89925054484775 181.46620104764588,112.99311236271751 182.05117058046744,113.88479211254526 181.8587463920412,115.3278765610703 182.3128674767504,116.44242958817631 183.02098849019967,117.5217659420232 184.27559419878526,118.68320344527092 186.3922602715611,121.40486554865493 187.04650251221028,122.42545615825293 187.8161992659443,125.0413713859125 188.28571428571013,125.01791078316455 188.02401738945628,123.86832971123295 187.40056301894947,122.4606486199882 186.88486619392643,120.65407487058474 186.8694722588407,120.26694465805485 187.66225991520332,119.82115517571219 186.46153297935962,114.9289787329435 185.87656344653806,113.732268909509 184.4141396144405,111.9019594182937 182.76698856145958,110.40012419295454 181.8356554894417,109.77825924378703 180.17311050134595,108.92171743974541 178.633716993907,108.54624310132203 176.37080853793304,108.3350377255847 174.06171827676008,108.51104225838935 173.7769304778776,108.04169565939446 171.89117343118414,106.79790893785685 169.8514770338079,106.3285485769702 166.28008409650647,106.58669724209176 165.7182054662553,106.77444100939101 164.5944482058403,106.73923909898076 162.63172148383455,108.27636943017569 161.03075223602355,109.062519694613 158.05202579908655,108.9803850871831 157.58251077932073,108.76918128076068 157.42857142857974,109.05078618631524 159.93778284575092,109.35585663574238 161.36172184013412,109.25025550661667 162.88572141251643,108.44064050887755 164.7945693617803,106.77444100939101 167.24220503866673,106.78617497480082 167.86565940917353,106.55149521853673 168.64305313047953,106.71577114688262 170.74432526814053,106.77444100939101 172.1297794248676,107.32593483697201 172.56080960694817,106.96218417339696 173.29971849053982,107.70141701753892 173.86159712076187,107.93609215503602 173.8539001532481,108.48757501797445 173.54602145173703,108.68704626098042 174.28493033529958,109.26198897482027 175.93977835582336,109.4379907153525 178.02565655845683,109.15638767598648 178.79535331219085,109.49665784441095 179.8883227024926,110.44705712802534 180.434807397658,110.23585862318214 182.30517050920753,111.7494310393522 183.46741260733688,113.61494309780755 183.30577628908213,113.43895393851562 182.07426148309605,114.07251243127757 181.82026155435597,115.19882167936885 181.94341303495457,115.65637861017603 183.02098849019967,117.5217659420232 184.1370487831009,118.51896115931231 186.73092684318544,121.7802572704386 187.9701386166853,125.10002285159862 188.1933506752539,125.00618047827084 188.2164415778825,124.64253985838513 187.02341160958167,121.73333343710692 186.7694116808707,120.4781069101009 186.8386843886983,120.27867591428003 187.63147204506095,119.85634920584198 186.6385632327292,115.65637861017603 186.03050279730815,114.08424493119674 183.76759434130508,111.36224182771184 182.12814025583793,110.04812597803175 180.07304992340505,108.92171743974541 177.17899012935231,108.37023867454263 174.00783950395999,108.47584139425453 173.8308092506195,108.02996194612933 172.5531126394053,107.05605552920315 171.0522039696516,106.51629317380866 170.02081031963462,106.35201668459194 166.7726900189009,106.56322922873005 165.46420553754433,106.82137685695488 168.20432598085608,106.64536723416677 168.16584114314173,108.24116842465082 167.94262908454402,109.47319099982269 168.3967501692532,109.62572532091144 168.0734775326855,109.7195923975014 168.1273563054856,110.58785570717373 171.12147667747922,110.91638440568568 172.09899155472522,111.28011045297171" stroke="#4dd2ff" stroke-linecap="round" stroke-linejoin="round" stroke-width="0.5"><title>2022-05-08 15.0km</title></polyline><polyline fill="none" points="22.821917808207218,144.56004272627615 23.679060665366706,144.5958390298838 26.250489236757858,143.77252041028987 28.763209393335273,144.86431084855576 29.667318982363213,144.82851465282147 30.19569471621071,145.3296600855101 31.545988258323632,144.4347555504719 32.16829745596624,144.36316279957828 33.10763209388824,145.90239427291817 32.814090019557625,147.81744748781057 33.42465753425495,149.4640024039545 34.98630136984866,151.7548108243427 36.4187866927532,152.88229647601838 40.48140900194994,158.268975548468 42.05479452054715,162.77850306858454 42.571428571420256,162.65324149538355 42.5244618395227,162.04482563630881 41.20939334636205,158.82373131809436 40.39921722112922,155.49514491588343 41.62035225049476,154.8150958449187 40.29354207435972,148.83759922681202 39.600782778841676,146.81518177800172 38.7318982387078,145.3296600855101 36.34833659490687,142.50173109173193 33.45988258314901,139.9600981008407 29.79647749508149,137.9732781802668 24.054794520518044,137.22149693141546 12.43052837572759,138.49236153243692 12.33659491193248,139.17253514222102 11.737769080209546,139.42312411117746 11.714285714289872,140.12118966687558" stroke="#4dd2ff" stroke-linecap="round" stroke-linejoin="round" stroke-width="0.5"><title>2022-05-05 5.1km</title></polyline><polyline fill="none" points="61.30649350650492,146.54858802114904 62.688311688340036,146.64361089794693 64.47532467535348,145.9942856246489 66.80259740262409,146.89700467650982 67.65454545457033,146.89700467650982 67.93506493512541,147.24541979271453 69.55584415586782,146.29519312324555 69.69090909094666,146.39021630536445 70.49090909093502,147.76803958126402 70.27272727276431,149.30420497160958 70.7818181818293,150.96703069406067 71.73766233769129,152.43978991718905 73.52467532470473,154.13422081086173 75.31168831171817,156.28783745190594 77.24415584420785,159.21729511095327 78.3038961039274,162.63749720625492 79.0000000000291,162.63749720625492 77.29610389610752,156.8579026029911 77.25454545457615,156.06614433605864 78.04415584419621,155.84445059717837 78.16883116884856,155.59108556124556 76.92207792212139,150.03268531713547 75.59220779221505,147.34044183004153 73.45194805198116,144.6956190408673 70.3142857143248,142.08238367008016 67.65454545457033,140.7361377170164 63.97662337665679,140.0709253515961 59.77922077922267,140.27682501664822 59.42597402600222,139.64328586812917 57.20259740261827,138.059415731208 55.49870129872579,137.489214694986 53.732467532507144,137.36250279375236 49.327272727299714,137.71096003229468 48.16363636366441,138.059415731208 48.142857142869616,138.2178041762745 51.87272727274103,137.94854363033664 51.540259740286274,141.59140251403733 52.07012987014605,141.7656219837736 51.768831168854376,141.78146009828197 51.7168831169256,143.11185036445386 55.77922077922267,143.5553087995795 57.17142857142608,144.03044007037533 57.31688311693142,144.26800463237305 56.849350649368716,145.31328020458022 56.922077922092285,145.56667825708428 58.7714285714319,145.05988133791107 60.05974025974865,145.13906857121037 61.628571428591385,145.6617023169092 62.58441558445338,145.6458649815322 63.4883116883575,145.3291176066923" stroke="#4dd2ff" stroke-linecap="round" stroke-linejoin="round" stroke-width="0.5"><title>2022-05-04 7.1km</title></polyline><polyline fill="none" points="95.38140520564048,144.46369852407952 97.24762267019833,144.4279157860874 99.13731456824462,143.76593254211912 101.4964951366419,144.76785121642024 102.74064011298469,144.910981535897 102.89322393084876,145.35826230252133 104.8533391294477,144.19532763921598 105.92142585443798,145.80554082383605 105.6397326522565,147.93455580688897 106.25006792371278,149.45524965103687 107.70548280171352,151.58417743426253 109.21958376347902,152.90802284422534 112.94028147583595,157.6486592784495 113.50366788022802,158.59675630253332 114.72433842305327,162.69313504827733 115.42857142855064,162.67524734079052 115.25251317719813,161.5840903958815 113.77362386565073,158.27476221790857 113.26892354505253,156.14599427541543 113.2337118947762,155.4662089259582 114.30179861976649,155.01897889430984 114.45438243763056,154.732750496034 112.54121610606671,147.20103538022522 111.50834103132365,145.1614590418394 110.35809378902195,143.67647496977588 106.0035863717494,139.79392979196564 102.91669836436631,138.12993006662145 99.32511003638501,137.34265054960997 95.48704015646945,137.30686495172995 92.48231266639777,137.87943279306637 90.70999293591012,137.86154010373866 85.2404499266122,138.52356721652177 85.20523827633588,139.20348183367605 84.99396837467793,139.47186775438604 84.65358908870257,139.34662109196506 84.57142857142026,139.91917582554743 84.65358908870257,140.8316773276165 85.13481497578323,141.42211449628667 87.05971852413495,142.60297709593578 90.19355539855314,143.47966799444112 90.85083953698631,145.00043786886818 90.87431397053297,146.55696368531062 93.67950877570547,147.3262710024792" stroke="#4dd2ff" stroke-linecap="round" stroke-linejoin="round" stroke-width="0.5"><title>2022-05-01 6.0km</title></polyline><polyline fill="none" points="128.02130154392216,143.44881672549673 127.93687707645586,143.21288405633823 129.83642759436043,143.40591991531255 131.13093609543284,142.93405386635277 131.21536056289915,143.53461029419122 131.20128981827293,142.93405386635277 132.32694938441273,142.5050829220927 133.19933554821182,143.12709022921626 134.49384404928423,143.27722938139777 135.4225131913554,143.8134389165134 136.68888020329177,143.7490939144409 136.98436583939474,144.328197537885 138.96834082476562,143.08419328985474 139.3482509283349,143.1699871514429 140.50205198366893,144.95019422900805 140.2487785812118,147.84564839474479 140.9663865547045,149.4113057318682 142.007621653378,151.12706824150519 144.35743599769194,153.3146254744497 149.08520617557224,159.25511862590793 151.25210084038554,165.3453896019928 151.8571428571595,165.1952814624383 151.7867891343194,164.3375166188198 149.28219659964088,157.41081315086194 149.42290404537925,156.4028653076457 150.7314832910779,155.6522596718787 148.95856947434368,148.1030183001203 147.42485831549857,144.4783350018406 144.4981434434303,140.91787544915132 140.50205198366893,137.59324281619047 136.3089700997225,135.55551360152458 133.60738714091713,134.89056197153695 129.75200312689412,134.65461039801448 125.4885675200494,135.0836128711744 125.0101622044458,135.38391357714863 125.78405315621058,136.13466164840065 127.61324995115865,136.6709070400466 132.5380105531076,136.0917619007596 133.80437756504398,136.37060995241336 136.11197967565386,138.36542478278716 137.5049833887606,137.89353646652307 138.34922806336544,138.92310828698828 141.07895251130685,141.08946658321656 142.8096540942788,143.89923219235789 140.57240570650902,145.1861230609793 140.20656634750776,147.05208728266734 140.41762751620263,148.317492747723 142.41567324608332,151.57745133389835 144.69513386755716,153.6577676425586 149.28219659964088,159.70546745172032 151.19581786205526,165.32394559499517 151.82900136802346,165.21672549530922 151.7727183897514,164.3375166188198 150.19679499708582,160.47748959348974 149.2962673442089,156.85322615758923 149.4651162791415,156.445756898931 150.71741254645167,155.6522596718787 149.1414891538443,148.78933501645952 147.3826460817363,144.328197537885 144.25894078565761,140.63903926830244 140.36134453787236,137.44309567443997 136.8717998827924,135.70566339668585 131.4264217315358,134.7833113208835 129.59722493647132,134.67606056256773 124.37697869847761,135.4482636185785 121.25327340245713,135.5769635851757 121.0,137.55034365435858 123.37795583356638,138.73006432659167" stroke="#4dd2ff" stroke-linecap="round" stroke-linejoin="round" stroke-width="0.5"><title>2022-04-30 10.1km</title></polyline><polyline fill="none" points="168.172734693886,145.27961105544819 169.8889795918658,145.3871228474818 171.95787755103083,144.6345375829551 174.6027755101968,145.79925018381618 175.648979591846,145.6917388882939 175.9546122449392,146.12178329336894 177.85893877552007,145.10042444746068 178.869877551042,146.76684601526358 178.5524897959549,148.73784210881422 179.3635918367363,150.70879467170744 180.70367346939747,152.6080350496195 182.12604081630707,153.77264359184483 186.1697959183657,158.9504883502159 187.5921632653044,163.33977545960806 187.7802448979637,163.68016013478336 188.28571428573923,163.55475540550106 188.12114285712596,162.15737650130905 186.1697959183657,156.85430365206412 186.24032653062022,156.2988960369621 187.25126530611305,155.90473369706888 187.38057142859907,155.63598564901622 185.94644897957915,149.4008037383901 184.64163265304524,146.51598884411942 181.29142857142142,142.60969333707908 178.54073469387367,140.38768748634175 175.90759183673072,139.06162537422642 171.91085714288056,138.20146644036868 169.23069387755822,138.12978615490283 166.4329795918602,138.3985869283497 165.28097959188744,138.77490665083315 164.01142857142258,138.70322682608094 158.5100408163562,139.34834317631612 158.18089795918786,139.43794230053754 157.98106122450554,140.08305333919998 157.42857142857974,140.01137456525612 157.54612244898453,138.57778699416667 162.1071020408417,138.2193865027075 162.1658775510732,136.91121249284333 162.56555102043785,136.3198398652239 163.32963265306898,136.76784979151853 162.6595918367384,138.05810581189144 162.38922448980156,140.6206423088879 164.8813061224937,141.4270196909565 163.32963265306898,144.74205015221378 163.75281632656697,146.10386481784371 163.68228571431246,147.3939858579106 165.78644897963386,147.94944889525505 167.46742857142817,149.06036459788447 168.8545306122396,147.30439472162107 167.56146938778693,146.62349914666993 167.80832653064863,145.5304717021063 168.12571428573574,145.42296008272388" stroke="#4dd2ff" stroke-linecap="round" stroke-linejoin="round" stroke-width="0.5"><title>2022-04-28 7.1km</title></polyline><polyline fill="none" points="29.45022076627356,181.62519999521828 29.557897735387087,181.7424392527828 29.734795613156166,181.60175211545356 30.680814698775066,181.62519999521828 31.8729525708477,181.19141269525426 32.526705597527325,181.62519999521828 33.01125195843633,181.6486478655388 33.51887195557356,181.93002157525552 34.241845890908735,181.93002157525552 34.50334710156312,182.24656537789633 35.69548497366486,181.49623653998424 36.310781939915614,182.63344991727718 36.141575274203205,183.899599577755 36.55690072639845,185.02504289363424 37.118359208106995,185.95117268549075 38.456630109692924,187.20552759032216 41.094715852465015,190.56987918235973 42.02535251388326,193.44173328559555 42.24839766416699,193.69960715177876 42.571428571420256,193.58239189924643 42.47913402650738,193.03147706068557 41.60233584960224,191.05048501536658 41.07933342832257,189.2100949101805 41.117789488693234,188.74119643974336 41.88691069648485,188.41296527007944 40.740920096839545,183.62995889546073 40.07947585816146,182.36380338783783 38.364335564750945,180.28865581968057 36.99529981485102,179.06932567352487 35.580116792494664,178.13136207904972 34.33414043585071,177.49822813422725 32.36519014387159,177.0175107387986 30.334710155264474,176.9119868783382 28.27346531834337,177.07613502335516 28.111949864716735,176.65403886084096 26.127617148595164,175.36428167843042 24.374020794784883,174.9069972901998 20.49764990742551,175.1884034914474 20.05925081897294,175.36428167843042 19.151687793782912,175.21185394699205 18.644067796616582,175.43463280488868 16.452072354382835,177.13475924900922 15.283008118509315,177.6389251597684 12.291126620169962,177.52167766203274 11.968095712858485,177.36925556298593 11.714285714289872,177.70927354539162 15.159948725253344,177.92031819365366 15.859849024360301,177.74444770640548 16.967383563605836,177.14648408706853 19.17476143001113,175.21185394699205 19.743911123776343,175.28220525709912 21.136020509904483,174.96562369395178 24.743198974523693,174.87182141964513 26.88135593221523,175.58705995471973 28.18117077340139,176.75956318757744 28.142714713030728,177.0995847206541 27.49665289846598,177.38098035397343 27.581256231322186,177.9554922275238 27.3197550206678,179.05760122160063 26.78137017521658,179.72589122411227 26.02763139156741,181.44934066744463 26.44295684376266,182.10587945526277 26.427574419620214,183.05550285481877 27.435123201837996,183.27825178635248 28.927218344964786,184.09889841219774 29.780942885641707,182.86792414808588 31.334567725425586,181.97691706171827 32.34980771970004,181.6134760565037 31.29611166502582,180.74589805955839 30.526990457205102,181.07417233124943 29.46560319044511,181.10934446517058 29.00413046576432,182.3169082121094 29.20410197979072,182.58655495815037 29.83478137018392,182.8913715194176 30.78849166785949,182.25828918949264 30.59621136591886,181.84795438333094 29.511750462901546,181.81278269434188" stroke="#4dd2ff" stroke-linecap="round" stroke-linejoin="round" stroke-width="0.5"><title>2022-04-27 10.1km</title></polyline><polyline fill="none" points="54.319894367072266,177.76994086008926 55.90546717646066,177.6404624029965 58.99167139455676,176.71252889527386 59.69951639871579,177.27360592733748 61.12936330708908,177.5541433449107 62.02124801237369,178.15837529553392 63.25289831956616,178.2015345905893 63.63513462181436,178.63312658786163 65.70204203389585,177.31676557771425 66.40988703811308,177.72678139170603 67.17435964255128,179.25893190529314 66.96200614137342,182.0642213072715 67.69816494564293,183.83367388605257 69.60934645688394,186.44464216622873 71.10997786564985,187.674580453393 75.93748079403304,193.93194325822697 77.77787780482322,199.7142857142826 78.58482110960176,199.541682980911 78.54235040931962,198.89442026217148 76.71611029858468,194.23401362445293 76.09320669493172,191.77427309634368 76.00826529442566,190.8680387119457 77.4522691029124,190.0696830426241 75.69681349262828,182.3447462202239 74.05461308296071,178.84892193652922 70.95425196475117,175.11560130957514 68.40600994980196,172.8496498229506 66.87706474080915,171.7058656897716 62.6299947159132,169.63407475510758 56.93892088253051,168.85714285714494 51.99816275347257,169.24560950826708 51.00717974768486,169.63407475510758 51.148748748528305,170.71313751750859 50.6391003454919,172.6338424277492 49.761372540320735,173.69129452375637 49.13846893666778,175.48246515174833 48.55803603329696,176.25934915406833 49.4640776385786,176.2809291850499" stroke="#4dd2ff" stroke-linecap="round" stroke-linejoin="round" stroke-width="0.5"><title>2022-04-25 5.0km</title></polyline><polyline fill="none" points="102.29228900163434,181.72765221486043 103.64296433932032,181.62176749030914 104.73894089902751,181.13940132372227 105.20974773101625,181.49235256710745 105.92753519618418,181.61000250911093 106.35203315943363,181.8570666183441 107.03122990069096,181.8453016843996 107.34767383692088,182.15118919958695 108.57485885798815,181.40999746715897 109.20774673053529,182.4335454885695 109.04566568997689,183.82177745206718 109.4470092189149,184.91586929832192 110.2574144215032,186.15110973339324 111.39969984992058,187.16281107280884 114.02386907741311,190.5389437859776 115.09669120275066,193.72668150141544 115.42857142857974,193.60905588468086 115.4054169942101,193.15031372350495 114.92689201745088,191.6446731897995 114.44836704066256,190.7977333889794 114.03158722218359,189.29203240662537 113.99299649827299,188.82149291519818 114.81883799043135,188.42153137661808 113.7846065890335,184.04530325323503 112.9742013864161,182.28060266760804 112.01715143283946,181.0570457276699 110.85942971488112,179.80993255297653 109.09197455871617,178.3745430219169 107.33223754735081,177.4803481601557 104.7003501750878,176.90382055271039 102.98692203243263,176.84499088603843 101.21174873152631,177.0920750891346 100.98792253268766,176.5508416665507 98.97348674337263,175.30363256999044 97.07482312587672,174.84474707001573 93.83320231543621,175.04477452472202 92.9456156649685,175.30363256999044 91.75702136784093,175.24480129650328 89.99728435647557,176.66850153154883 88.62345458444906,177.44505071455205 87.68184092047159,177.6333035119642 85.15028943045763,177.49211397061663 84.7180733223795,177.31562656550523 84.57142857142026,177.609771945361 87.24962481242255,177.88038439058073 88.47680983348982,177.7744927130734 89.68084042021655,177.162670384354 91.76473951261141,175.38599625362986 92.11205602803966,175.24480129650328 93.06138783678762,175.33893130574506 95.12985063958331,175.11537228686575 97.17515900809667,175.1624374143612 98.23254484383506,175.32716506285215 99.19731294221128,175.7860467842911 99.5137568784412,175.46835982148332 97.92381905237562,174.9506440428886 95.79361109127058,174.9153450731901 93.31608661473729,175.13890485534648 92.5442721360887,175.3506975462551 94.17280068609398,175.28010006767727 95.20703208746272,175.05654082433466 95.81676552561112,175.20950250406167 97.26777674551704,175.13890485534648 98.6184520831739,175.53895707321135 99.04295004645246,175.96253879708092 98.60301579363295,176.95088424353526 98.4177803187631,178.45690238860334 99.96912742085988,178.95105615750072 99.16644036307116,180.90409931359682 99.93825484169065,180.64526601100806 101.30436646894668,180.6805615286794 102.30000714643393,180.93939467534074 102.13792610590463,181.49235256710745" stroke="#4dd2ff" stroke-linecap="round" stroke-linejoin="round" stroke-width="0.5"><title>2022-04-22 10.1km</title></polyline><polyline fill="none" points="137.03412969288183,181.40371400064396 138.2627986348234,181.3903362052224 138.35056070212158,181.13615758155356 139.64943929790752,180.77495471139628 140.21989273527288,181.17629111289716 141.03607996102073,181.29669156195814 141.59775719165918,181.63113611203516 142.2559726962645,181.57762509685926 142.57191613849136,181.9522013006972 144.02876645539072,181.12277973240634 144.79229644077714,182.34015300603642 144.6343247196637,183.87855994205165 145.08191126282327,185.1226369642718 146.04729400295764,186.50045859926468 147.2408581180207,187.57059166671752 150.26864943929831,191.46305574082362 151.43588493420975,194.9406663615955 151.8571428571595,194.9406663615955 151.65529010244063,193.72352328949273 150.90053632378113,192.0649628749743 150.27742564605433,189.92482391732483 150.2598732326005,189.48341170637286 151.03217942468473,189.13563032907405 151.17259873234434,188.9082338316657 150.14578254512162,184.49391277039467 149.59288152123918,182.98227500277062 149.09263773771818,182.05922268643917 147.18820087765926,179.74484688136727 144.57289127257536,177.53741932582125 142.56313993179356,176.53401898510856 140.43052169674775,176.05238145358817 137.94685519262566,175.87845593367092 135.65626523649553,176.1192757634126 135.3578742077516,175.5172245568465 133.14627011216362,174.11241724911815 131.01365187717602,173.63076220983567 124.75621647978551,174.11241724911815 122.66747927843244,175.86507702873132 121.02632862020982,176.62767032303236 121.0,177.0156530347158 122.58849341786117,176.2396853518403 125.19502681621816,174.0053830968718 127.6260360800079,174.09903798947562 128.67040468065534,173.83145223272004 129.56557776697446,174.0053830968718 131.51389566069702,173.96524524545748 132.54071184791974,174.28634737968605 133.19015114579815,174.75461855118192 132.69868356900406,175.9587293069817 132.54071184791974,177.7916116796514 134.28717698686523,178.3133718936806 133.34812286691158,180.4940177918579 134.80497318384005,180.05254309621523 137.6045831302181,180.62779742508064 139.08776206729817,180.1461894882268" stroke="#4dd2ff" stroke-linecap="round" stroke-linejoin="round" stroke-width="0.5"><title>2022-04-21 8.1km</title></polyline><polyline fill="none" points="173.1379814724787,181.39034710800115 174.57727937592426,181.29670253995937 174.93710385178565,181.14954652427332 175.08629936617217,180.8552335176937 174.9897610921762,181.31008034347178 176.06045831300435,180.7749661084781 177.94734275966766,181.56425809947177 178.7547537786595,181.55088034702203 179.000487567042,181.89870103788417 180.3871282301261,181.04252376322256 181.16821062896634,182.17963180877996 181.02779132130672,183.93207797066498 181.57191613849136,185.20290704107538 182.22135543639888,186.21955284537762 183.78352023405023,187.71773944058077 186.77620672844932,191.55668883513863 187.90833739639493,194.9941666244049 188.28571428573923,194.88716609878247 188.15407118480653,194.2317841302356 187.22379327157978,191.9847112994612 186.67089224769734,189.6305537201406 186.7674305216933,189.38978291574676 187.53973671383574,189.08213006626102 187.2413456850336,187.24955974836848 186.43393466604175,184.02571883466226 185.503656752815,182.0726107023911 183.4939054120041,179.6244559490333 180.9926864943991,177.56419043742426 179.08824963434017,176.58754881202185 177.34178449539468,176.09253320572316 174.4895173086552,175.8517134726826 171.92686494396185,176.10591205424134 171.90931253047893,175.95874457261016 171.78644563627313,175.5306191412128 169.44319843978155,174.0455377266626 167.30180399806704,173.57726194702263 163.27352510971832,173.8448485098852 162.32569478303776,174.09905474904735 161.66747927840333,173.91174498264445 161.27254997563432,174.00539993167695 159.10482691370999,175.7313032797574 157.44612384206266,176.53403378868825 157.42857142857974,176.93539541604696 159.008288639714,176.14604858370149 161.59726962458808,174.00539993167695 162.71184787910897,174.15257172842757 165.07264748905436,173.89836569344698 167.35446123842848,173.89836569344698 168.69722086787806,174.13919248763705 169.64505119452951,174.8081512368226 169.10092637740308,175.9453656945443" stroke="#4dd2ff" stroke-linecap="round" stroke-linejoin="round" stroke-width="0.5"><title>2022-04-19 7.2km</title></polyline><polyline fill="none" points="15.757160297594965,210.91457720690232 15.80175179959042,210.66534667877568 17.9867353978334,210.52940252239932 20.186582830094267,209.7137341444759 23.575536982447375,211.20912166665948 24.928145876619965,211.11849268397782 25.225422556628473,211.7075797701982 27.469861490884796,210.25751371819206 27.9752318469109,210.66534667877568 28.896789555088617,212.3419778083262 28.58464904106222,215.12875551548495 29.34270457510138,217.00922516014543 30.442628291260917,218.75372921976668 32.99920773948543,221.17786540979432 38.201549640099984,227.90626963706745 40.11898422631202,233.88673663741793 40.34194173634751,233.88673663741793 40.743265254364815,233.7055150209635 40.68380991840968,232.50491446154047 38.67719232814852,227.65707663419744 38.038047466019634,224.77999029535567 39.59875003626803,223.62460427253973 37.93400062806904,216.35219715929998 36.23952355183428,212.00212216004002 32.89516090147663,208.03706396186317 28.436010701057967,204.23047700414463 26.905035798845347,203.50539826144814 25.998341924743727,203.14285714286234 25.849703584739473,204.93289259282756 26.548303782823496,205.83922882669867 29.476479081145953,208.2636424694283 31.289866829349194,210.8012906714357 32.68706722545903,213.1123134883237 33.3410759215476,215.64985265210998 37.60699628002476,215.03812968083366 38.43937098409515,217.46234569043736 39.67306920624105,223.69256848372606 38.290732644090895,224.68937221125088 39.39065636025043,228.92568982805096 41.0702696024091,233.6149041036333 40.26762256631628,234.0 39.71766070823651,233.25245970659307 38.186685806082096,228.78976766797132 37.265128098020796,227.00011062547128 33.2370290835388,221.72158974166086 30.279126117238775,218.84435207034403 28.391419199004304,215.55922723602998 28.287372360995505,214.67562561450904 28.733287381066475,212.6365185421746 31.111500821309164,211.18646442778117 32.657339557481464,213.08965663153504 33.43025892553851,215.69516533294518 37.265128098020796,214.76625174028595 35.88279153581243,211.68492263148073 31.914147857343778,207.15340343484422 28.391419199004304,204.29845289741934 26.013205758761615,203.165515996865 25.924022754712496,205.20479422740027 27.2617678148672,206.51897622468096 26.013205758761615,207.56124761491083 24.467367022589315,207.15340343484422 23.932268998469226,207.51593166768725 23.099894294457044,208.53553607804497 23.30798797047464,210.50674514706043 19.577165636059362,211.11849268397782 18.759654765890446,211.93415090753115 16.4408966616611,213.2709113578021 14.71669191744877,215.46860174711765 13.215444683330134,214.6529690717216 15.415292115532793,209.351212972746 17.34759053576272,209.37387058012246 19.294752790010534,208.62616713524767 20.15685516205849,209.7137341444759 18.284012077900115,210.84660529925168 15.355836779577658,210.9372345002921" stroke="#4dd2ff" stroke-linecap="round" stroke-linejoin="round" stroke-width="0.5"><title>2022-04-10 10.4km</title></polyline><polyline fill="none" points="50.80597126943758,210.9723887870714 50.971171305165626,210.7205701146886 52.81840806762921,210.83503321652097 55.52168137865374,209.804861162811 56.437790667347144,210.49164356618712 58.885754832357634,211.31577698944602 60.25240967288846,211.17842183258472 60.4626642637304,211.81941114867368 62.865573873510584,210.44585820135399 64.23222871409962,212.30015077083954 63.97691956802737,215.20743766915257 64.6977924509556,217.0616527989405 66.33477462263545,219.57967444739188 68.66259330708999,221.70850391406566 73.69368530256907,228.20919950512325 75.54092206514906,233.97711203939252 76.33688587340293,234.0 73.60357619222486,225.50825127113785 73.5885580071481,224.79866951281292 75.18048562365584,223.9975235104066 73.27317612088518,215.39057136976044 71.7413212446263,212.25436613224883 68.48237508640159,208.2481390650646 63.81171953241574,204.28755907158484 61.378773552482016,203.14285714285506 61.30368262715638,205.3635684047622 64.90804704185575,208.2481390650646 66.69521106412867,211.38445450578 64.36739237967413,212.59775047342555 62.95568298391299,210.5374289127285 60.64288248447701,211.8880883616439 57.87953643326182,210.81214060536877 56.678081628342625,210.7205701146886 55.146226752141956,211.15552929038677 53.25393543438986,212.50618141692394" stroke="#4dd2ff" stroke-linecap="round" stroke-linejoin="round" stroke-width="0.5"><title>2022-04-09 5.2km</title></polyline><polyline fill="none" points="87.21754466067068,210.95529099315172 88.90083096048329,210.8178334373515 88.94591898639919,210.58873714298534 92.05699277267559,209.69525719965895 92.91366526455386,210.4970984965039 94.29636472515995,210.68037571592868 95.33338932058541,211.23020560792793 96.6259127293597,211.23020560792793 97.00164627842605,211.78003285026352 99.30113559874007,210.31382098258473 99.97745598707115,210.9323814120653 100.74395242717583,212.3756760394317 100.47342427185504,215.19348436065047 101.20986202801578,217.16361794737895 103.07350043143379,219.7980457489757 105.16257896419847,221.67647016464616 110.13729115389287,228.20489988760528 112.09110560908448,234.0 112.78245533938752,233.88547518046107 112.64719126169803,232.55697887326824 111.12922772346064,229.0066111201886 110.04711510211928,224.9063715541197 110.28758457355434,224.49404880784277 111.5951373243006,223.87556189487077 110.79858220025199,219.59187533223303 109.11529590043938,213.75022537753102 108.12335933087161,211.80294226117257 106.36492632125737,209.69525719965895 102.11162254580995,205.59432359964558 100.39827756205341,204.28840877233597 97.8733481123345,203.14285714285506 97.67796666681534,204.6778937061099 97.94849482207792,205.52559161298996 101.16477400215808,208.137377998617 103.20876450912328,211.23020560792793 100.92430453072302,212.49022245012748 99.25604757288238,210.47418882339116 97.19702772394521,211.73421401459927 94.13104196352651,210.70328534769942 91.38067238440271,211.11565793227055" stroke="#4dd2ff" stroke-linecap="round" stroke-linejoin="round" stroke-width="0.5"><title>2022-04-07 5.0km</title></polyline><polyline fill="none" points="123.64057657920057,210.17114562503411 123.50541280512698,210.44585820028442 123.88086773315445,210.67478484062303 125.63799679640215,210.67478484062303 128.68669081217377,209.78196834369737 129.602800836612,210.49164356509573 131.20974792866036,210.74346274307754 131.7954576163902,211.13263674234622 133.17713175161043,211.20131436901283 133.46247749694157,211.75073389308818 135.83535264222883,210.33139470767492 136.55622610403225,210.92660361409798 137.3672087485902,212.55196595303278 137.11189939756878,215.48213810826564 138.41848254716024,218.1146504336284 139.7250656967517,219.83147355216352 141.51223115430912,221.25069447886926 146.81365473830374,228.18631038115564 148.66089298430597,234.0 149.3517300519743,233.93133610430232 149.30667546059703,232.76404355212435 146.9638367095613,227.3851881808514 146.51329079590505,224.7300000746909 148.01511050807312,224.06619338694145 148.1202378879534,223.42527291807346 146.42318161315052,216.37490996907582 145.31183502613567,213.12427111996658 144.06532466504723,211.36156200373807 143.22430562617956,211.84230355638283 143.7048879340873,211.04106650908216 141.33201278880006,208.01920755110768 137.03680841194,204.42492253038654 134.39360571844736,203.14285714285506 134.24342374724802,204.69964895201701 134.52876949257916,205.54671791769215 137.71262728242436,207.99631437456264 139.9203022593283,210.94949620228 138.50859172991477,212.0712273927711 137.39724514289992,212.50618141557788 136.0756437961827,210.56032157785376 135.51997050264617,210.65189219723834 135.06942458898993,210.14825288059365 134.3485511271865,207.72159589691 135.7452434594743,206.41667408807552 137.74266367667587,208.08788705329061 139.90528406226076,211.04106650908216 137.6675726910471,212.4375045749839 137.41226333996747,212.4832891399128 135.88040723354788,210.42296551093023 133.64269586239243,211.75073389308818 133.1170589631074,211.31577698816545 131.75040302507114,211.17842183134053 128.52149064384867,209.96511075922172 126.8845071575488,210.76635536808317 124.72188677196391,210.90371102135396" stroke="#4dd2ff" stroke-linecap="round" stroke-linejoin="round" stroke-width="0.5"><title>2022-04-03 6.2km</title></polyline><polyline fill="none" points="186.1124121779576,223.56963099791756 186.76814988290425,220.8563905824485 186.5620608899626,219.7425190040958 188.28571428568102,218.8856887766815 188.28571428568102,218.05741465007304 183.1147540983511,214.7442699045132 180.17330210772343,213.94453374678415 173.8594847774948,214.03021997885662 168.16393442620756,214.91564135321823 165.67213114752667,214.71570797634922 161.213114754064,218.31446575725568 157.59718969545793,220.11381049951888 157.42857142857974,220.88495127741044 160.5761124121491,219.54259241276304 165.76580796245253,214.97276512358803 166.81498829036718,214.63002215731103 171.33021077280864,214.68714604237903 174.0281030444894,214.08734410478064 180.4918032786809,214.65858410266083 183.71428571426077,216.02955073627527 184.4074941451545,215.5440015649874 183.7892271662131,214.91564135321823 178.69320843089372,213.85884746327793 169.86885245901067,214.4872123442692 168.14519906317582,215.00132700010727 165.8594847774948,214.71570797634922 160.20140515221283,219.14273838698136 157.42857142857974,220.2566146627869 157.6908665105002,220.88495127741044 161.08196721307468,219.19986045942642 165.65339578455314,215.11557444903883 167.03981264634058,214.60146020621323 167.88290398119716,214.7442699045132 170.93676814989885,214.00165790721803 179.38641686178744,213.57322614494478 184.42622950818622,215.05845073597447" stroke="#4dd2ff" stroke-linecap="round" stroke-linejoin="round" stroke-width="0.5"><title>2022-03-24 5.1km</title></polyline><polyline fill="none" points="30.02831403608434,267.55816035363387 29.17630904793623,267.36760949969175 27.960781931469683,268.2857142857174 27.41549873907934,268.00855160699575 27.142857142840512,267.3156410119045 26.790695081057493,264.1801509540237 26.381732686742907,263.2100314836716 25.89324982688413,262.8635575986773 23.06459326617187,262.794262654621 21.621864819549955,261.4083520762797 35.583386558893835,242.74836155425874 28.89230738519109,237.42857142857247 18.702327726816293,258.22067319235066 24.98444450617535,264.63055985456594 25.37068676747731,264.31873855869344" stroke="#4dd2ff" stroke-linecap="round" stroke-linejoin="round" stroke-width="0.5"><title>2021-10-26 5.0km</title></polyline></svg>