<?xml version="1.0" encoding="utf-8" ?>
<svg baseProfile="full" height="300mm" version="1.1" viewBox="0,0,200,300" width="200mm" xmlns="http://www.w3.org/2000/svg" xmlns:ev="http://www.w3.org/2001/xml-events" xmlns:xlink="http://www.w3.org/1999/xlink"><defs /><rect fill="#222222" height="300" width="200" x="0" y="0" /><text fill="#FFFFFF" style="font-size:12px; font-family:Arial; font-weight:bold;" x="10" y="20">Over 5km Runs</text><text fill="#FFFFFF" style="font-size:4px; font-family:Arial" x="10" y="280">ATHLETE</text><text fill="#FFFFFF" style="font-size:9px; font-family:Arial" x="10" y="290">Wenz</text><text fill="#FFFFFF" style="font-size:4px; font-family:Arial" x="120" y="280">STATISTICS</text><text fill="#FFFFFF" style="font-size:3px; font-family:Arial" x="120" y="285">Number: 36</text><text fill="#FFFFFF" style="font-size:3px; font-family:Arial" x="120" y="290">Weekly: 2.8</text><text fill="#FFFFFF" style="font-size:3px; font-family:Arial" x="141" y="285">Total: 264.7 km</text><text fill="#FFFFFF" style="font-size:3px; font-family:Arial" x="141" y="290">Avg: 7.4 km</text><text fill="#FFFFFF" style="font-size:3px; font-family:Arial" x="167" y="285">Min: 5.0 km</text><text fill="#FFFFFF" style="font-size:3px; font-family:Arial" x="167" y="290">Max: 15.5 km</text><polyline fill="none" points="38.24285714287544,50.184987654487486 38.21948051950312,48.93780388160667 37.14415584417293,48.652730843561585 35.67142857142608,48.63491374826117 33.46233766237856,49.02688901817601 34.56103896105196,46.4433837438919 35.06363636365859,45.87322072328243 35.53116883119219,44.48343301101704 35.42597402600222,43.46780514673446 36.57142857144936,42.95107773618656 36.4662337662885,42.41652897230961 34.97012987014023,41.31178465465928 32.78441558446502,40.1713889951352 30.996103896119166,39.81501234550524 24.742857142875437,40.18920779001928 24.100000000034925,40.47430802181043 22.674025974032702,40.26048293385975 19.635064935078844,42.630348864302505 16.970129870140227,43.96671151526971 12.341558441577945,43.80634905989427 11.909090909117367,43.46780514673446 11.5,43.948893478969694 14.515584415581543,44.305253524806176 17.589610389637528,44.19834566133068 20.09090909094084,42.755076896697574 22.919480519514764,40.31393925414886 30.30649350650492,40.22484536910633 31.93116883118637,40.45648928418814 32.936363636370515,40.812863357212336 33.49740259742248,41.472151618749194 32.79610389613663,43.14707814272697 32.50389610390994,45.285236270974565 34.689610389614245,46.15830269154685 33.5324675324955,49.00907199802168 35.65974025975447,48.51019398110657 37.99740259745158,48.72399918895826 38.5,48.93780388160667 38.25454545454704,49.864284930037684 38.45324675325537,50.13153728092584" stroke="#4dd2ff" stroke-linecap="round" stroke-linejoin="round" stroke-width="0.5"><title>2022-06-15 5.0km</title></polyline><polyline fill="none" points="75.8236830648384,50.22329433849518 75.67087505437667,49.91869414057874 75.89420983890886,49.1123944801584 74.68350021765218,48.73611881193938 73.43752720940392,48.6286111867812 71.33347845013486,49.23781935029547 70.99259904224891,49.13031232957292 72.08576404003543,46.460513100013486 72.614714845462,45.90504147672618 73.13191118850955,44.20276819210267 72.92033086629817,43.59352565166046 74.04875925116357,43.109712435572874 74.10753156291321,42.5542199523843 71.14540705265244,40.52933097699861 69.39399216367747,39.95590274099959 67.61906835000264,39.77670566150482 61.64780148016871,40.45765264902002 59.8376142794732,40.40389386527386 56.75794514582958,42.87676439592178 54.21898127993336,44.02357964145631 49.74053112755064,43.79063398764265 49.11754462341196,43.539768757196725 49.0,44.005660766604706 49.517196343047544,44.220687027402164 54.418807139765704,44.34611877358111 56.86373530692072,43.30682184032776 60.31954723552917,40.368054658101755 63.41097083152272,40.47557223644253 65.26817588155973,40.11717980486719 69.55855463646003,40.493491820205236 70.55768393559265,40.887721753104415 71.05137135391124,41.6044989867878 70.44013931215159,42.894683497506776 70.0875054418866,45.349566395518195 72.41488898562966,46.08422624912782 71.1218981279817,48.98696943373943 73.43752720940392,48.539021400189085 75.10666086198762,48.75403673691471 75.98824553762097,49.00488730827783 76.0,50.1516237972246" stroke="#4dd2ff" stroke-linecap="round" stroke-linejoin="round" stroke-width="0.5"><title>2022-06-14 5.0km</title></polyline><polyline fill="none" points="102.02095808384183,42.803214884810586 102.88323353293526,42.751871586839115 104.1497005988058,42.3513920935402 105.60479041915096,42.936707218308584 106.1639221556834,42.90590132613215 106.39296407184156,43.22422798385742 107.45733532932354,42.58757268690533 108.05014970060438,43.511747132946766 107.91541916168353,44.66180756498943 108.05014970060438,45.23682808276499 108.87200598801428,46.571672217411106 109.91616766466177,47.516310091687046 112.22679640719434,50.4835916702541 113.11601796407194,53.21457067636584 113.5,53.21457067636584 112.22005988023011,49.35419682884822 112.2402694610646,49.005106104970764 112.86676646706474,48.75868768883447 112.94086826346756,48.58414059238203 111.84281437126629,44.22026956482296 111.20958083833102,43.20369083992409 109.86901197604311,41.581230406947725 108.74401197602856,40.53379189926636 107.2687125748489,39.54794782296085 106.21107784430205,39.05501865778206 104.41242514968326,38.65451021236004 102.56661676647491,38.57235424610917 101.02395209579845,38.7366660466505 100.8218562874099,38.28480732477692 99.15119760477683,37.24757106576362 97.54116766466177,36.83677861234173 94.17964071854658,37.042175251554 93.71482035928057,37.20649196888917 92.9670658682735,37.083254480381584 91.101047904187,38.51073718479165 89.63248502994247,39.21932890745302 86.97155688623025,39.126904456974444 86.59431137723732,38.96259391033527 86.51347305389936,39.239867651544046 87.17365269460424,39.35283059660651 87.23428143713681,39.558217130062985 87.2881736526906,39.30148383431515 88.20434131736693,39.4657932920818 89.62574850300734,39.45552396642597 90.99999999998545,38.839360653888434 92.8997005988058,37.27838036670073 97.02245508981287,37.10379408242443 98.55164670658996,37.2989198903997 99.33982035928057,37.689169272623985 99.77769461076241,37.422156859163806 100.36377245507902,38.02806763579065 100.90269461077696,38.315616000825685 100.91616766467632,38.70585762427072 100.35029940120876,38.952324483649136 100.44461077844608,39.178251394521794 101.42140718562587,39.74306430491197 102.22305389223038,39.87656462677478 104.43937125748198,39.58902503893114 104.86377245507902,39.75333357280033 105.61152694611519,40.49271544221847 106.58832335329498,40.20517931885479 108.20508982034517,41.570961506095045 109.11452095808636,42.87509541537656 109.08083832333796,43.02912478352664 108.0232035927911,43.624700642118114 107.85479041915096,44.53858804142874 107.95583832333796,44.99039150965473 109.0336826347193,46.77702976125147 109.94985029939562,47.56764860666226 112.2402694610646,50.50412589108237 113.11601796407194,53.040038785842626 113.4326347305323,52.91683944576653 113.4326347305323,52.680706547744194 112.46257485028764,50.40145470454081 112.17964071854658,49.14884963277291 112.22679640719434,48.994838694681675 112.89371257483435,48.72788530332036 112.89371257483435,48.34798769020563 112.0920658682735,45.13414632162676 111.69461077843152,44.07651218401952 111.27694610776962,43.27557080760016 109.76122754489188,41.45800346072065 108.53517964070488,40.37975501513574 107.1676646706328,39.47606261564215 106.3458083832229,39.06528806384085 104.38547904189909,38.644240723802795 102.8697604790359,38.55181523392457 101.03742514969781,38.72639657459149 100.84880239520862,38.30534644418367 99.09056886227336,37.18595240811919 98.154191616748,36.87785800615893 97.06961077843152,36.785429323630524 93.72829341316537,37.18595240811919 92.83907185628777,37.083254480381584 91.03368263473385,38.51073718479165 89.6055389221583,39.20905953232068 86.96482035928057,39.11663506328114 86.64146706585598,38.96259391033527 86.5,39.239867651544046 87.05239520958276,39.3733692870519 89.61227544909343,39.414446643244446 89.65269461077696,39.126904456974444 91.03368263473385,38.479928626300534 92.16541916166898,37.51458439083581" stroke="#4dd2ff" stroke-linecap="round" stroke-linejoin="round" stroke-width="0.5"><title>2022-06-11 15.5km</title></polyline><polyline fill="none" points="139.401551163377,42.75597611462581 140.38103577683796,42.725085330988804 141.6915186389815,42.3338004611287 143.16412309232692,42.9722110789553 143.65048786588886,42.961914196548605 143.91393545159372,43.19874196840465 144.70427820866462,42.64270981704249 144.98123592694174,42.60152201042729 145.5486614961119,43.42527185719155 145.42031523642072,44.753540614558005 145.77833375030605,45.628737659841136 146.44708531399374,46.637769833952916 147.6494871153409,47.760037401214504 149.82461846384103,50.591337266574556 150.66224668500945,53.18570027383248 151.0,53.20628993153878 150.93920440328657,52.670956144851516 150.19614711031318,50.88990159653986 149.75031273455534,49.34558458257743 149.75031273455534,49.02641993465659 150.42581936453644,48.738140480938455 150.46634976231144,48.55281711924545 149.43282461847411,44.39316101925942 148.98699024267262,43.44586543380501 147.51438578934176,41.540924596745754 145.447335501638,39.872756125649175 143.7585689266998,39.02835386705192 142.319739804836,38.67823177939135 140.19189392043336,38.51346761679815 138.54365774331382,38.729720471623295 138.40180135100672,38.33840511398739 136.6522391793842,37.18503721435263 135.01751313485147,36.79371006846122 131.62646985238825,37.04086440280662 131.3224918689084,37.174739169840905 130.41055791842518,37.07175861082942 128.49211908933648,38.54436093762342 127.49912434325961,39.06954454373772 126.57368026020413,39.24460455046574 124.43907930949354,39.10043752952333 124.08106079560821,38.90478163851003 124.0,39.19311637523424 125.70903177384753,39.41966395960844 127.55316487365053,39.31668790893673 128.55291468600626,38.77091138818287 130.08631473605055,37.3806996673884 130.47810858143202,37.174739169840905 131.29547160372022,37.27771952200783 134.4771078308695,37.07175861082942 135.85514135601989,37.21593133553324 136.22667000249203,37.329209620540496 136.67250437827897,37.76172440698065 136.29422066549887,38.58555200308547 136.11183387540223,39.65650809122599 136.19289467101044,40.05811085787718 137.53039779835672,40.36703392273557 137.89517137853545,39.29609267401975 138.75306479859864,39.635912992798694 139.82712034024007,39.81097106600646 142.14410808106186,39.58442521044708 143.150612959711,40.47000786411081 144.14360770577332,40.191977747796045 145.7107830872992,41.56151893012793 146.61596197147446,42.82805453738183 146.67000250187994,42.92072664634179 146.1093319990032,43.373787879409065 145.5959469602094,43.579723480335815 144.96772579432582,42.591225053598464 143.8936702526844,43.22963246670042 142.70477858395316,42.7662730383563 141.81986489865812,42.7662730383563 141.23217413057864,42.98250795929198 139.98248686514853,43.85773522977979 139.00300225168758,43.29141340749629 139.2529397047765,42.704491464923194 139.42857142857974,42.73538226094752" stroke="#4dd2ff" stroke-linecap="round" stroke-linejoin="round" stroke-width="0.5"><title>2022-06-10 10.5km</title></polyline><polyline fill="none" points="188.5,50.24752671007445 188.09019947960041,49.96196342596522 188.33607979185763,49.08742016135511 188.09019947960041,48.855397034632915 185.81873373803683,48.64122130317264 183.4653078924166,49.10526806911366 184.05073720726068,47.24906646905583 185.24501300955308,45.5356152008826 185.54943625326268,44.19695841388602 185.36209887251607,43.482999883417506 186.53295750217512,43.054622012306936 186.49783174326876,42.69763887588488 186.3924544666079,42.35850356823357 184.788378143945,41.2161435375092 181.7207285342447,39.930970952133066 180.1049436253379,39.75247328993282 174.6370338247798,40.234416155122744 174.00477016475634,40.53786032211792 172.7168256721634,40.323664547060616 172.09627059844206,40.555709946704155 169.33304423242225,42.82258313673083 167.70555073721334,43.7150370348827 165.59800520379213,44.03631824452168 164.63790112751303,43.732886021462036 162.33130962704308,43.804281931821606 161.69904596704873,43.46515084665589 161.5,43.982771456910996 166.94449262789567,44.28620282688644 166.97961838680203,43.76858398378681 169.50867302689585,42.50129753968213 171.67476149174036,40.555709946704155 172.8924544666079,40.09161854157719 173.45446660881862,40.16301737703179 173.45446660881862,41.055497980560176 172.01431049435632,42.2514079390603 172.01431049435632,42.50129753968213 174.882914137037,42.05506561710354 175.26929748483235,43.16171667366871 177.458803122252,43.10816935914772 177.49392888115835,44.60748197192879 178.20815264523844,44.73242354802642 177.65784908930073,45.10724722260784 177.73980919341557,46.303102665551705 179.57805724194623,46.303102665551705 182.58716392019414,46.89210017876758 183.85169124021195,47.37400433201401 183.5121422376542,49.06957225005317 185.51431049435632,48.4091970117006 188.17215958365705,48.81970111527335 188.42974848221638,49.05172433517873 188.40633130961214,50.15828828232043" stroke="#4dd2ff" stroke-linecap="round" stroke-linejoin="round" stroke-width="0.5"><title>2022-06-09 5.2km</title></polyline><polyline fill="none" points="23.850512163888197,72.0761975475616 24.94814340589801,72.04984874804359 26.47791293213959,71.56239404837834 28.353393085795688,72.37920798149935 29.165813060186338,72.36603364388793 29.27816901411279,72.61634560579114 30.661011523683555,71.83905797098123 30.980793854017975,72.1157207270262 31.516645326511934,73.05109569108026 31.29193341868813,74.39485046973277 31.50800256084767,75.19845537348374 32.51056338028866,76.924196575932 33.97983354673488,78.30739148796056 36.90973111396306,82.02211351729056 38.10243277848349,85.55222184174272 38.5,85.46001993511891 38.335787451971555,84.7355718752151 37.11715749040013,81.77183743438945 36.83194622278097,80.28333364097853 36.93565941101406,80.05939651993685 37.774007682455704,79.63786574820551 36.46895006403793,74.31580683278298 35.70838668374927,72.74808836009834 33.24519846352632,69.98143496717239 31.28329065302387,68.41361292361762 29.2003841229307,67.34641850557455 27.273047375143506,66.85892885973954 24.982714468613267,66.66129689028458 22.484955185675062,66.91163061767656 22.1997439180559,66.30555784511671 21.11075544176856,65.60724966538692 19.95262483996339,64.9221098879716 18.80313700385159,64.57953731607267 17.549935979535803,64.44777815825728 12.805057618446881,64.9221098879716 12.761843790009152,65.43596539180726 13.384122919349466,65.33055946271998 12.58898847628734,65.50184401147999 11.5,66.39778667168503 13.885403329069959,66.21332888886172 14.101472471200395,66.9379814807944 15.7003841229307,67.00385859223752 15.691741357266437,68.04470817440597 16.19302176698693,68.12375936669196 15.786811779777054,68.33456208054122 15.847311139572412,69.26999095188876 18.958706786157563,69.53348963483222 20.453905249683885,70.06048382600784 20.056338028167374,71.43064891326867 20.436619718297152,72.52412552040187 20.35883482717327,73.55171343297116 21.793533930846024,73.89423916082524 23.176376440474996,74.6978501958547 24.14436619717162,73.44632054155954 26.15813060180517,72.19476701448366 26.92733674775809,71.99715111725891 25.855633802799275,70.98271347516857 25.017285531386733,71.36477624651525 23.8245838668372,71.40429985452647 23.703585147246486,72.04984874804359" stroke="#4dd2ff" stroke-linecap="round" stroke-linejoin="round" stroke-width="0.5"><title>2022-06-07 8.0km</title></polyline><polyline fill="none" points="74.6455309396697,69.98598847537869 73.7104660046025,71.66283448982358 72.09472880062822,71.15978634186467 71.70970206265338,71.67331460802961 70.38961038962589,72.7632354115267 69.66080977846286,73.16147002818616 69.34453781515185,73.55970160658762 68.43009931246343,75.2993091932185 68.10007639421383,76.65113288949942 67.54316271966673,77.7828653402903 66.97249809016648,80.31869526758601 66.66310160428111,80.61208912672737 65.48051948053762,81.68086709793351 64.54545454545587,82.24668187136558 60.433919022165355,83.2106484725191 58.25439266616013,81.06265505699048 57.09931245225016,80.43395733750003 55.29106187931029,80.04625663621118 55.16042780748103,79.79477356065036 55.33919022155169,78.94600923612597 55.249809014523635,78.53734000979603 54.32849503438047,78.07627345197398 52.53399541635008,76.26340409205659 49.40565317035362,76.14813281311581 49.0,75.88615168702381 49.0,75.3936236103691 51.40641711228818,73.60162054337343 51.3926661573787,73.39202552280767 51.21390374332259,73.3605861971555 50.56760886173288,73.89505215823738 50.38884644766222,73.82169440915095 50.457601222311496,73.6330597238557 54.321619556925725,70.59385138021025 54.376623376621865,69.27331260612118 54.56913674560201,69.2104289740164 56.23300229184679,69.60869069794717 58.43315508021624,69.30475439378642 61.004583651651046,67.91081694750756 63.56913674561656,67.1876317256465 64.73796791445056,66.96752988654771 65.08174178763875,67.15618866261866 67.852559205523,66.78935152747727 68.38197097022203,66.88368132277174 68.51948051949148,67.72216089914582 71.29717341483047,67.99466386124186 72.1084797555668,68.2986077943533 71.78533231477195,69.40956021582315 72.1084797555668,70.28992081268007 72.09472880062822,71.13882589712375 73.29793735676503,71.47419200247896 74.3567608861922,72.0610775019959 74.8792971734365,71.28554883336983 76.0,70.4366461351965 75.821237585973,70.0069493830415 75.10618792974856,69.96502755929032" stroke="#4dd2ff" stroke-linecap="round" stroke-linejoin="round" stroke-width="0.5"><title>2022-06-05 8.1km</title></polyline><polyline fill="none" points="91.8842028278741,70.38558569579618 92.002681618731,70.60631914320402 92.13432471966371,70.30531886676181 93.55607020965545,70.38558569579618 96.17576791811734,69.48258015227475 97.34739151631948,70.20498523984133 100.09873232565587,70.7668522532258 100.44100438809255,71.22838350827806 102.65260848365142,70.02438445750886 103.2450024378486,70.62638579602935 103.82423208191176,71.91064319833094 103.53461725986563,74.29851543538825 104.23232569478569,75.98403795851482 105.81204290589085,78.25142222626164 107.47074597759638,79.65597074927064 109.97196489517228,82.72584380240005 112.1177474402648,85.71536811264377 112.97342759626918,87.80196296622307 113.5,87.54114099172875 112.43369088249165,84.83256486865139 112.05192588979844,82.74590802202147 112.20989761091187,82.38475145293341 113.35519258899149,81.92327171543002 113.3683568990673,81.52198325515201 111.82813261821866,74.80016201465332 110.43271574843675,71.50931453298108 107.91833252072684,68.43909691765293 103.53461725986563,64.76675196500582 100.46733300830238,63.141244718804955 95.66235982449143,62.1980370337842 91.2391516333737,62.318447021214524 89.6331058020296,62.4990617302974 88.73793271573959,62.94056297822681 88.8695758166723,63.78342358050577 88.39566065333202,65.79020592570305 88.02705997074372,65.89054398510052 86.5,69.14144260122703 88.80375426617684,68.57956644924707 91.41028766459203,68.88057192351698 92.002681618731,69.10130869513523 91.81838127743686,70.10465151218523 92.29229644077714,70.36551899460028 91.96318868844537,70.52605249150656" stroke="#4dd2ff" stroke-linecap="round" stroke-linejoin="round" stroke-width="0.5"><title>2022-06-04 5.1km</title></polyline><polyline fill="none" points="150.7889709074807,80.15606908709015 150.87103777678567,79.03019182950811 150.00347372988472,78.77999494919641 148.32696482850588,78.61915372621297 146.04081632650923,79.1552900059396 146.6270082500996,77.45751404031034 147.65870603561052,75.97416747660463 148.1511072514113,74.25845868801116 147.97524967434583,73.59718709497247 149.00694745982764,73.15037918301095 149.03039513679687,72.50697184886667 145.93530178029323,70.50523039462132 144.42292661743704,70.02266098713153 142.91055145463906,69.84393091290985 137.29483282673755,70.23713660243811 136.66174554929603,70.46948460237036 135.2079895788047,70.32650128956448 131.5267042987398,73.13250681984937 129.4164133738377,74.06186494381836 125.58271819364745,73.90101519382006 124.1993052540347,73.52569797978504 124.0,74.02612058007799 124.70343030826189,74.22271440314944 129.52192792008282,74.36569145633985 131.80807642205036,73.38271957715187 135.26660877114045,70.43373879570572 137.37689969604253,70.57672193620965 142.5471124620235,70.29075542547798 144.65740338686737,70.61246768539422 146.07598784193397,71.55972480835771 145.58358662613318,72.32824676384189 145.102909248817,75.36652439666796 147.2249240121746,76.11714171602944 146.12288319584331,79.01232064711803 148.19800260526245,78.42256961441308 149.65175857575377,78.58341119267425 151.0,79.03019182950811 150.84759009987465,80.0667142695238" stroke="#4dd2ff" stroke-linecap="round" stroke-linejoin="round" stroke-width="0.5"><title>2022-06-03 5.0km</title></polyline><polyline fill="none" points="188.31233709814842,80.17618970167678 188.10121633362724,79.94376606724836 188.35925282366225,79.19285479421524 187.0338835795119,78.67436474309216 185.5794960903586,78.56709056247928 183.76151172895334,79.19285479421524 183.4565595134627,79.06770229969698 183.6442224153143,78.1379925474539 185.3566463944153,75.3666847280474 185.6146828844503,74.24025753958995 185.43874891396263,73.54293832890107 186.49435273674317,73.11381610007084 186.44743701128755,72.59529064747767 183.33927019982366,70.50327797952195 181.55647263251012,69.94897578709788 180.37185056469752,69.82381029831595 175.2111207645503,70.21718695630989 173.75673327539698,70.57480059169029 172.64248479585513,70.34235189207538 168.9361424848321,73.16745649181394 166.89530842748354,74.0435783152061 162.36794092092896,73.86477864324843 161.7463075586711,73.5071782221712 161.5,73.98993845129735 162.14509122504387,74.2223776280589 165.71068635967094,74.41905645752558 167.71633362292778,74.18661779421382 169.6985230234568,72.9886550604133 172.7949609035859,70.41387463352294 174.16724587316276,70.62844251309434 177.59209383148118,70.23506767221261 182.2367506516166,70.57480059169029 183.4682884448266,71.2721430492893 183.52693310167524,71.62975244732661 182.88184187663137,72.97077489754156 182.56516072980594,75.42032376249699 184.95786272807163,76.09974873541796 183.59730668980046,79.03194441180676 185.8375325803354,78.47769531318772 187.49131190270418,78.74588079172099 188.5,79.15709695658734 188.30060816681362,80.01528109631909" stroke="#4dd2ff" stroke-linecap="round" stroke-linejoin="round" stroke-width="0.5"><title>2022-06-02 5.0km</title></polyline><polyline fill="none" points="20.7124904798402,100.32261414825189 22.162223914725473,100.27559575018677 23.704493526311126,99.78973731142469 24.218583396810573,99.93079329874308 24.20830159939942,99.5546434327407 26.449733434885275,100.55770571388712 27.385376999242,100.60472394202225 27.508758568175836,100.88683271620539 28.259329779160907,100.62039667846693 29.13328255902161,99.93079329874308 29.71934501142823,100.41665085948625 30.19230769231217,101.4353746359775 29.986671744118212,103.50412662093004 30.469916222413303,104.52281010321167 31.683168316842057,106.37207845212106 33.17402894134284,107.64146611335309 36.669840060931165,112.2016885382618 37.92421934500453,116.19754074754019 38.5,116.13486229185946 36.54645849199733,110.28987514191249 36.54645849199733,109.74139544236095 37.61576542269904,109.14589883371082 36.46420411273721,104.00563399666862 35.25095201830845,101.12192258243158 32.43373952782713,97.68954023641709 29.955826351884753,95.80871877186291 27.79664889565902,94.69587806388154 25.53465346537996,94.11594070181309 22.12109672508086,93.80245925245981 19.262757044954924,94.0845926135371 18.347677075420506,94.41374691246165 16.836252856068313,94.36672495475796 12.487052551441593,94.86829104325443 12.04493526276201,95.00935592489986 11.993526275735348,95.58928664869745 11.53084539223346,95.6363078698705 11.5,96.82750269113603 14.50228484388208,97.04693133322144 16.568926123378333,97.59550023957127 17.052170601673424,97.94031300741335 16.640898705285508,99.30387584839627 18.563594821025617,98.81801136093418 20.979817212501075,99.22551081301208" stroke="#4dd2ff" stroke-linecap="round" stroke-linejoin="round" stroke-width="0.5"><title>2022-05-30 6.1km</title></polyline><polyline fill="none" points="62.91118701963569,102.51124906708719 63.018787361244904,102.40580896207757 63.77967549103778,102.46438682171356 65.29376601197873,101.94889963846072 67.0307429547538,102.64012004778488 67.70708795901737,102.65183557736236 67.9684030742792,102.89786115523384 69.07514944492141,102.19492818041545 69.34415029891534,102.39409338307087 69.82835183606949,103.23760905736344 69.62852263025707,104.63172628619941 69.84372331341729,105.26433992388411 70.9888983774872,107.03327869202258 71.9496157130634,107.82986936641828 74.65499573014677,111.30896881353328 75.64645602050587,114.3661880067666 75.9538855678984,114.34276164876428 76.0,113.9796518965777 75.07771135782241,111.68380890069966 74.57813834332046,109.71587157992326 74.66268146882067,109.48158890654668 75.36208368916414,109.21216266927877 75.40051238259184,109.00130648539562 74.17079419299262,104.12797348402819 73.55593509820756,102.97986945066805 72.07258753204951,101.17566032409377 69.65926558498177,99.11363871805588 69.28266438940773,99.05505749417352 67.76857386849588,98.1880485036636 65.71648163962527,97.73110614845427 63.625960717356065,97.62565740439459 61.87361229720409,97.84827119608599 61.59692570453626,97.34445982180478 59.65243381727487,96.12592130227131 57.646456020505866,95.63381199323703 54.433817250217544,95.86815027712146 53.565328778815456,96.10248761974799 52.75832621692098,95.9970359320796 52.27412467976683,96.11420446219199 50.337318531179335,97.6725235363665 49.538001707958756,98.14118278578098 49.0307429547247,98.24663059810337 49.0,98.5746892397874 50.80614859095658,97.64909047507899 52.67378309139167,95.98531906610515 55.040990606328705,96.07905392787143 55.84799316825229,95.87986716658634 56.654995730146766,96.02046965689442 57.830913748941384,95.93845157874603 58.77625960719888,96.0907707749866 59.78309137490578,96.60630971913633 60.37489325364004,96.26652319955974 61.120409906085115,97.02811092137563 61.650725875311764,97.29759342626858 61.61229718191316,97.81312170650199 61.38941076004994,97.93028658945332 61.38172502137604,98.15289921878866 61.77369769429788,98.44580927911011 62.71135781382327,98.7387178688914 65.9624252775684,98.45752565092698 66.39282664388884,98.6449872801677 67.35354397952324,99.5940025350501 69.63620836893097,98.99647621149052 71.84970111015718,100.87104808357253 73.54056362085976,102.9095766330829 74.32450896670343,104.47942938607594 72.25704526048503,105.05346947340877 71.9573014517664,104.72544725789703 71.66524338175077,103.65936232153763 71.0196413322119,102.7924217488835 69.90520922289579,103.31961687526564 69.16737830915372,102.32379985977968 67.9299743808806,102.94472305246381 67.65328778821277,102.73384421857918 67.0384286934277,102.69869767217824 66.50042698546895,102.45267125450482 65.72416737829917,102.40580896207757 65.15542271564482,102.55811127482593 64.62510674638906,102.99158491204435" stroke="#4dd2ff" stroke-linecap="round" stroke-linejoin="round" stroke-width="0.5"><title>2022-05-28 10.0km</title></polyline><polyline fill="none" points="100.54491188176326,102.3802546791594 101.64241046048119,102.33345895274397 102.80898237638758,101.795305397638 103.47669130191207,102.27496424189667 104.05230244458653,102.34515788788121 104.56651506538037,102.63763050252237 105.15747583855409,102.61423274740446 105.44911881751614,102.91840283138299 106.30102330871159,102.31006107544817 106.67708925527404,102.2164694722851 107.31409891985822,103.1991738072029 107.19897669131751,104.70829462165784 107.59039226832101,105.67925866669611 108.27345082434476,106.79058319723117 109.58584422970307,107.99546900291898 112.17993177945027,111.36433786784255 113.15463331440696,114.38211750718256 113.5,114.24175912891951 113.45395110858954,113.65692891381332 112.494599204103,111.29415508639067 112.08783399660024,109.5512555655041 112.91671404207591,109.13014450591072 111.80386583285872,104.38073683597759 111.02870949404314,102.83651104190358 108.95650938036852,100.5785920799317 107.16060261515668,99.11616264123222 106.1628766344802,98.71837548348776 105.4644684480154,98.22698759767809 103.33086981240194,97.72389570647283 101.21262080725865,97.58349719402759 99.32461625925498,97.7940948358264 99.20181921546464,97.3260990424933 97.17566799320048,96.06249162197491 95.26463899941882,95.61788249281744 89.83854462762247,96.06249162197491 87.91984081864939,97.60689696962436 86.5,98.28548637280983 86.51534963047015,98.51948088610152 86.82234223990235,98.51948088610152 87.62819783965824,98.09829008552697 89.91529277997324,96.13269275325365 90.25298465034575,96.01569082079004 92.50170551449992,96.03909122608457 93.18476407049457,95.81678699634722 93.890847072209,95.98059019524953 95.39511085842969,95.92208910563568 96.30841387153487,96.09759219817352 97.3214894826524,96.61239821959316 97.90477544060559,96.23799429151404 98.55713473563083,96.99849975033067 99.17879476974485,97.3377989831315 99.27089255259489,97.665396367418 98.9101762365026,98.05149091970816 99.09437180217355,98.33228535065791 99.53183627061662,98.53118058714244 100.82120523025515,98.76517411360692 103.46901648663334,98.42588319358038 103.80670835703495,98.56627967598615 104.89653212053236,99.60754302758869 106.1628766344802,99.17466052361851 107.13757816943689,99.05766470013987 109.16372939173016,100.64878776971454 110.83683911315165,102.62593162614576 111.46617396248621,103.65542375716541 111.76549175669788,104.53281746548964 109.71631608871394,105.04754895842052 109.47839681638288,104.75508844072465 109.20977828311152,103.71391708210285 108.47299602048588,102.75461913732579 107.42154633314931,103.29276383181059 106.6387151790841,102.25156634109953 105.42609437179635,102.9418004643776 105.14980102333357,102.69612484930258 104.55884025015985,102.67272711764235 104.02160318364622,102.36855575106165 102.62478681068751,102.54403942558565" stroke="#4dd2ff" stroke-linecap="round" stroke-linejoin="round" stroke-width="0.5"><title>2022-05-26 10.0km</title></polyline><polyline fill="none" points="129.36458092782414,99.25570593949669 131.0687895101728,99.17985859893815 133.3327746342693,98.44034383563849 136.03214151295833,99.69182696571806 136.9651024157356,99.63494172866922 137.3880446916446,100.2417158235694 139.50275607127696,98.9333543212997 140.58499071848928,100.6399092046122 140.24912479351042,102.59292861770518 140.98305403697304,104.52694687450276 141.8413780675619,105.98691481383867 144.2297579786391,108.24318450874853 148.40942282305332,113.62767755735695 149.9519181823125,118.36729415820446 150.63608951104106,118.5 150.51169472400215,117.60897148519143 148.65821239713114,113.11578473315603 148.35966490823193,110.78379342413973 149.49165747026564,110.34772361824434 149.61605225730455,110.02540985892847 147.52621983509744,101.8344792737189 146.6181378897163,100.14690762824466 143.88145257494762,96.98025922156376 140.27400375087745,93.98417075153702 138.283687158284,92.86535384506715 135.13649904628983,91.84134031206486 130.91951576576685,91.5 127.23743006947916,91.86030362654128 126.35422708149417,92.12578962960106 126.5532587407506,92.84639073239669 126.0681190713367,94.93231029542221 125.18491608335171,95.95629031024873 124.36391048895894,98.04214117977244 126.46618238984956,97.47327732998383" stroke="#4dd2ff" stroke-linecap="round" stroke-linejoin="round" stroke-width="0.5"><title>2022-05-24 5.1km</title></polyline><polyline fill="none" points="188.45302305350197,110.22770138727356 188.19464984774822,109.94126833195332 188.4295345802384,109.02825682659022 186.66789908657665,108.67021054673387 185.4112657677615,108.74181991774094 183.79056111350656,109.24308390432998 183.50869943454745,109.04615910282155 184.01370160939405,107.70347840870818 185.2703349282383,105.64466206981888 185.68138321008882,104.31983337207203 185.52870813399204,103.58579818532598 186.6326663767104,103.1203093256263 186.6326663767104,102.78014285262907 186.43301435408648,102.29674615824479 184.8357981731242,101.22252189751453 182.16985645933892,100.05876434122911 180.2438016528904,99.77229861272644 175.31122227056767,100.18409280799824 173.86668116573128,100.50636519915133 172.8566768160381,100.29151706781704 172.11678990867222,100.54217317075381 168.9693344932748,103.10240585937572 167.00804697696003,103.99757476602827 162.721400608978,103.85434834497573 161.66441931272857,103.54999143628811 161.5,103.89015497185756 161.96976946498035,104.14080095699319 164.31861678994028,104.39144623745233 167.7479338843259,104.23031720943254 169.6857329273771,103.10240585937572 172.2694649847981,100.77492463527597 172.97411918226862,100.45265321487386 179.79752066117362,100.34522914922854 182.22857764246874,100.57798112794262 183.55567638101638,101.49107917622314 182.897999130073,102.76223931811546 182.6043932144239,105.34031127303751 184.9884732492501,106.07433201411186 183.60265332757263,109.04615910282155 185.90452370597632,108.50908925168187 187.11418007832253,108.63440583971533 188.5,109.01035454677185 188.4295345802384,109.74434507260594" stroke="#4dd2ff" stroke-linecap="round" stroke-linejoin="round" stroke-width="0.5"><title>2022-05-22 5.0km</title></polyline><polyline fill="none" points="16.92748316246434,128.86269554679893 17.001599613926373,129.25811808067374 17.965113482816378,129.29577728267031 19.299209609016543,129.10748112149304 20.954477024817606,128.44844158003252 21.4979976688046,128.91918458227883 22.795035569230095,129.12631075464742 23.733843954338226,129.67236847070308 24.709710565104615,129.59705035408115 25.00617637092364,130.0489581464135 26.8837931411108,128.86269554679893 27.501430236559827,129.35226605726348 28.10671459007426,130.538522463954 27.785543300473364,132.85450362960546 28.588471524533816,134.6620589452432 29.93492039258126,136.58254829498037 31.60254055034602,137.99464772655483 35.975411186082056,143.64283284229168 37.556562150479294,148.5 38.13714102018275,148.38704548114765 38.05067182678613,147.84109672201885 36.061880379449576,143.02154913020786 35.75306183175417,141.0070554529375 35.87658925083815,140.6681644141281 36.95127779690665,140.2351351936304 37.025394248368684,139.7079664873454 35.135424736276036,132.13900335886865 34.24602731887717,130.3313994107666 30.82431781006744,126.3018235327254 27.797896042378852,123.94801919203746 24.462655726936646,122.32856749671919 20.546836541820085,121.57532462038216 17.92805525707081,121.5 14.90163348938222,121.83896031535551 13.999883330077864,122.19675043015013 14.098705265321769,122.93115744131501 13.616948330862215,125.02136129964492 12.974605751602212,125.64276427288132 11.862858979788143,128.14716481844516 13.999883330077864,127.46928856580053 15.815736390650272,127.63875808839657 17.038657839642838,128.12833498873806 16.76689751763479,128.84386586070468" stroke="#4dd2ff" stroke-linecap="round" stroke-linejoin="round" stroke-width="0.5"><title>2022-05-16 5.4km</title></polyline><polyline fill="none" points="64.74438342486974,132.67369229413816 65.3577134298539,132.72506128719033 66.69221168247168,132.29356014257064 67.00898652021715,132.57095415328513 67.71667498753231,132.7045136961533 68.07388916627679,132.92026299049394 68.67373939092795,132.89971547784444 68.88267598602397,133.17710620233265 69.96779830254673,132.550406500377 70.58112830756,133.47504271284924 70.44633050427365,134.81059885478317 70.98552171741903,135.95093074027682 71.69321018474875,136.91659732903645 72.49525711433671,137.58433484430861 74.8339990015229,140.56336529452528 75.69670494260208,143.19298599254398 76.0,143.1724426045439 75.9865202196961,142.87456255188954 75.0227159261267,140.31683142592738 74.75986020971322,139.21768680939203 74.8070394408569,139.00196406636314 75.44058911634784,138.69378714160484 75.46080878684006,138.49860746261766 74.47678482277843,134.481849808064 73.87019470795349,133.29011680710028 72.27284073889314,131.39972476659023 70.11607588618062,129.6736536421231 68.88267598602397,129.05718555669955 67.66949575638864,128.73867413559128 65.48577134299558,128.53318184385716 63.52446330504608,128.70785034445726 63.38292561160051,128.3174140492556 62.45282076887088,127.63928077067249 61.53619570644514,127.12553745434343 60.21517723417492,126.80701400745238 57.114827758356114,127.00223829080278 56.36669995007105,127.1974618291897 55.34223664503952,127.13581237124163 53.30004992513568,128.70785034445726 52.18796804793237,129.201028774336 49.49875187219004,129.1085581808511 49.1347978033009,128.92361649247687 49.080878681998,129.01608742022654 49.0,129.2113032744237 49.39091362958425,129.31404816163922 52.08686969547125,129.44761620658755 53.24613080380368,128.99553833960817 55.62531203197432,127.14608728605162 56.95307039441832,127.23856142656223 57.93709435847995,127.0844377661706 60.060159760381794,127.1049876143843 60.86894658015808,127.20773673163785 61.799051422887715,127.63928077067249 62.09560659012641,127.3618600205773 60.69370943585818,126.89948876083508 59.857963055430446,126.80701400745238 57.020469296054216,126.98168840129438 56.02970544183336,127.23856142656223 57.47878182728891,127.1974618291897 58.32126809786132,127.00223829080278 60.066899650526466,127.0741628389842 60.99026460311143,127.26938610291472 61.87993010484206,127.6495555843976 62.284323514730204,127.35158514909926 62.95157264106092,128.0399969762475 63.416625062411185,128.26604063071136 63.44358462309174,128.66675192736875 62.87743384925125,128.89279281276686 62.93809286071337,129.201028774336 64.25911133302725,129.8277695028919 65.48577134299558,129.73530004211352 65.5329505741538,131.15314674247566 65.22965551674133,131.33808037196286 65.21617573640833,131.65657561141052" stroke="#4dd2ff" stroke-linecap="round" stroke-linejoin="round" stroke-width="0.5"><title>2022-05-14 9.9km</title></polyline><polyline fill="none" points="98.12118126271525,131.85063988598267 98.99185336049413,131.9065215106748 100.81568228104152,131.26388011698873 101.65885947045172,131.78078779202042 102.1812627291074,131.82269905683643 102.79531568224775,132.1859289608692 103.36354378817487,132.1300475605858 103.91344195519923,132.49327586010259 105.26985743379919,131.5852015558121 106.13136456211214,132.91238308015818 105.93890020364779,134.60275657587408 106.4338085539639,135.77621485251075 107.04786150713335,136.83789814523698 108.6517311608768,138.33260900665118 111.91446028510109,142.5232159167208 113.18839103868231,146.16883864521878 113.4633401221945,146.07106581552216 113.5,145.54029662862376 112.43686354375677,142.95623091082598 111.85947046839283,140.52572476842033 111.94195519346977,140.30222568841054 112.8309572301223,139.8552253748021 111.80448065171367,135.38506429260087 110.65885947045172,132.63297854728444 108.21181262729806,129.74107572561843 105.98472505089012,127.96675700737615 103.62016293275519,126.82110985691179 101.2647657841153,126.33210837727165 99.3309572301514,126.17842148805721 96.5906313645246,126.4299089481392 96.36150712828385,125.92693311888434 95.12423625253723,125.0187731058686 93.8136456211796,124.27826462882513 92.78716904277098,123.95690944101443 91.52240325862658,123.83116135477758 87.18737270872225,124.16648907967829 86.5,124.41798381266926 91.78818737270194,124.18046103313463 93.51120162929874,124.59961833220586 94.07026476575993,125.06068844436595 93.52036659873556,126.17842148805721 93.30040733196074,128.13441110557324 95.06008146639215,128.83296549932493 94.0977596740995,131.02638070840112 95.5733197555819,130.57932079879174 97.36965376781882,130.76093923351436 97.8920570264745,130.95652778690055 97.80040733196074,131.78078779202042" stroke="#4dd2ff" stroke-linecap="round" stroke-linejoin="round" stroke-width="0.5"><title>2022-05-12 7.0km</title></polyline><polyline fill="none" points="133.77977099234704,130.35114322208392 134.93396946566645,130.35114322208392 136.840458015271,129.69137454557494 137.29389312976855,130.09980342997733 138.89122137404047,130.64960817641258 139.84961832061526,130.68102547380113 140.29274809159688,131.1051577535327 141.9209923664166,130.11551219062676 142.73511450379738,131.43503682586015 142.61145038169343,133.7441513863232 143.30190839694114,135.1421536104317 144.3324427480984,136.60296070558252 145.6515267175564,137.71818217102555 147.66106870229123,140.16847209278785 147.86717557252268,140.7653259638828 148.8564885496162,141.78624966227653 149.49541984731331,142.9013972488101 150.4229007633403,146.07398373333126 151.0,145.9169280229762 149.28931297708186,140.74961934140447 149.19656488546752,139.9956977540569 150.2580152671726,139.3360104056701 149.1347328244301,134.40388588576752 148.38244274808676,132.3775407967114 147.80534351142705,131.27795172680635 145.4866412213596,128.48178418714087 143.6213740457897,126.80089380560821 141.51908396944054,125.40274251588562 140.12786259542918,124.7429321048985 138.6232824427425,124.35018517055141 135.15038167938474,123.92601626667602 131.83206106870784,124.24021567554882 130.95610687020235,124.57012369672884 129.5442748091882,124.49157429404295 124.59770992366248,125.10425754309108 124.51526717559318,125.74835527204414 124.21641221374739,125.7169359936961 124.04122137403465,125.95258027392265 124.0,126.84802206541644 124.20610687023145,127.09937230492505 125.76221374046872,127.03653482079972 128.45190839696443,127.47639615002845 129.5958015267097,127.99480097020569 129.27633587786113,129.45574152696645 131.03854961832985,128.8430923569831 132.27519083971856,128.95305538179673 133.53244274808094,129.33007029347937 133.3263358778495,130.11551219062676" stroke="#4dd2ff" stroke-linecap="round" stroke-linejoin="round" stroke-width="0.5"><title>2022-05-10 6.0km</title></polyline><polyline fill="none" points="177.14504864056653,132.76269890852564 177.81853330008744,132.7524328082509 179.1385632327292,132.28018996819083 180.58655525067297,132.92695623224427 181.18595659766288,132.92695623224427 181.3677974557213,133.16307521058116 182.36455475180992,132.5368442267427 182.5329259167047,132.61897331737782 183.04477425791265,133.39919309847755 182.87640309304697,134.66189199093787 183.27375904214568,135.63712588965427 183.89336492891016,136.5815451992712 184.99114492394438,137.59780301461433 186.84322773761232,139.97925735507306 187.41568969818763,140.87227413846995 188.08917435770854,143.16119996267662 188.5,143.1406719352708 188.27101521576697,142.13478849732928 187.7254926415626,140.9030675424874 187.2742579196929,139.322315511763 187.2607882264856,138.98357657579618 187.95447742579563,138.59351077874817 186.90384135695058,134.31285639132693 186.39199301572808,133.26573529581947 185.11237216263544,131.66421449100744 183.6711149912735,130.35010866883385 182.85619855325785,129.80597683831365 181.40147168868862,129.05650275978041 180.0545023696759,128.72796271365587 178.0744574706914,128.54315800988843 176.0540034921578,128.6971619760916 175.80481416813564,128.28648370197334 174.15477675230068,127.19817032062565 172.3700424045819,126.78748000484848 169.24507358443225,127.01336008683211 168.7534297829843,127.17763588321759 167.770142180103,127.14683421160953 166.05275629834796,128.49182325140282 164.6519082065206,129.17970473278547 162.04552257420437,129.10783695128703 161.6346969319129,128.9230336206674 161.5,129.16943791302765 163.69555999002478,129.43637455627686 164.941506610121,129.3439735682914 166.27500623595552,128.63556044526922 167.94524819156504,127.17763588321759 170.08692940881883,127.18790310295299 170.6324519830232,126.98255831622009 171.3126714891696,127.1262997535232 173.15128460963024,127.17763588321759 174.3635569967737,127.66019298235187 174.7407084060833,127.34191115172507 175.3872536792187,127.98873989034837 175.8788974806812,128.19408063565788 175.87216263408482,128.676628140729 175.60276877027354,128.85116547835787 176.2493140433944,129.3542403529682 177.69730606135272,129.5082418759339 179.52244948864973,129.26183921649135 180.19593414817064,129.55957561386094 181.15228236466646,130.391174987024 181.63045647295075,130.20637629528574 183.26702419556386,131.53075215943318 184.28398603142705,133.16307521058116 184.1425542529323,133.00908469620117 183.06497879770177,133.56344837736833 182.8427288600651,134.54896896944774 182.95048640559253,134.94933128390403 183.89336492891016,136.5815451992712 184.86991768520966,137.45409101439873 187.13956098779454,140.30772511163377 188.2238712896069,143.2125199951479 188.41918184085807,143.13040791848834 188.43938638063264,142.81222237608745 187.39548515839851,140.26666675747038 187.1732352207473,139.1683435463383 187.23384884011466,138.99384142499548 187.9275380394247,138.6243055551131 187.05874282863806,134.94933128390403 186.52668994762644,133.57371431479623 184.54664504864195,131.19196159924832 183.11212272386183,130.04211023078096 181.31391868297942,129.05650275978041 178.78161636317964,128.5739588402248 176.00685956596863,128.66636121997362 175.8519580942957,128.27621670286317 174.7339735594869,127.42404858805457 173.4206784734415,126.95175652708349 172.51820902968757,126.80801459902068 169.67610376652738,126.99282557514016 168.5311798453331,127.2187047498337 170.92878523323452,127.06469632989683 170.89511100025265,128.46102237157174 170.69980044898693,129.53904212484485 171.0971563981002,129.67250965580024 170.81429284109618,129.75464334781282 170.86143676728534,130.5143737437793 173.48129209280887,130.8018363549745 174.3366176103882,131.12009664635116" stroke="#4dd2ff" stroke-linecap="round" stroke-linejoin="round" stroke-width="0.5"><title>2022-05-08 15.0km</title></polyline><polyline fill="none" points="21.219178082159488,160.24003738549072 21.96917808218859,160.27135915114195 24.219178082159488,159.55095535900182 26.417808219150174,160.50627199248265 27.208904109575087,160.47495032121515 27.67123287668801,160.9134525748159 28.852739726018626,160.13041110665654 29.397260273981374,160.06776744962553 30.219178082159488,161.4145949888043 29.962328767112922,163.09026655183698 30.496575342462165,164.53100210345292 31.863013698603027,166.53545947129896 33.116438356169965,167.52200941651972 36.67123287671711,172.23535360490496 38.04794520547148,176.18119018500875 38.5,176.07158630846243 38.45890410957509,175.5392224317693 37.30821917805588,172.72076490332984 36.59931506848079,169.808251801398 37.66780821917928,169.21320886429748 36.506849315046566,163.98289932346233 35.900684931461,162.21328405575332 35.1404109588766,160.9134525748159 33.05479452054715,158.43901470526907 30.52739726024447,156.21508583823015 27.321917808178114,154.4766184077307 22.297945205442375,153.81880981498398 12.126712328754365,154.93081634088594 12.044520547933644,155.5259682494434 11.5205479451688,155.74523359727755 11.5,156.35604095851886" stroke="#4dd2ff" stroke-linecap="round" stroke-linejoin="round" stroke-width="0.5"><title>2022-05-05 5.1km</title></polyline><polyline fill="none" points="60.51818181818817,161.98001451849996 61.72727272726479,162.0631595356972 63.290909090894274,161.49499992156052 65.32727272727061,162.2848790919379 66.07272727272357,162.2848790919379 66.31818181820563,162.58974231862157 67.73636363635887,161.75829398283167 67.85454545455286,161.84143926718752 68.5545454545354,163.04703463360056 68.36363636364695,164.39117935014656 68.80909090908244,165.8461518572949 69.64545454547624,167.13481617753132 71.20909090907662,168.61744320949583 72.7727272727061,170.5018577704068 74.46363636365277,173.06513322207684 75.3909090909001,176.05781005547033 76.0,176.05781005547033 74.50909090909408,171.0006647776063 74.47272727271775,170.30787629404585 75.1636363636353,170.11389427252652 75.2727272727061,169.8921998660844 74.18181818182347,165.02859965248717 73.01818181815906,162.67288660127815 71.14545454544714,160.35866666075162 68.39999999999418,158.0720857113156 66.07272727272357,156.89412050238388 62.85454545455286,156.31205968264112 59.18181818179437,156.49222188955537 58.87272727271193,155.9378751346012 56.92727272724733,154.55198876480063 55.43636363634141,154.05306285810366 53.8909090909292,153.94218994452604 50.03636363634723,154.2470900282533 49.01818181818817,154.55198876480063 49.0,154.6905786542302 52.26363636361202,154.4549756765373 51.97272727274685,157.6424771997772 52.436363636370515,157.79491923579917 52.17272727272939,157.80877758599308 52.12727272728807,158.97286906888985 55.68181818179437,159.36089519962843 56.89999999999418,159.77663506157114 57.02727272728225,159.98450405331823 56.618181818164885,160.89912017900133 56.68181818179437,161.12084347494238 58.29999999998836,160.677396170664 59.42727272724733,160.7466849998018 60.79999999998836,161.20398952728647 61.63636363638216,161.19013185883523 62.42727272727643,160.9129779058494" stroke="#4dd2ff" stroke-linecap="round" stroke-linejoin="round" stroke-width="0.5"><title>2022-05-04 7.1km</title></polyline><polyline fill="none" points="95.95872955495724,160.15573620855866 97.59166983643081,160.12442631281738 99.24515024723951,159.5451909743424 101.30943324457621,160.42186981435225 102.39806009887252,160.5471088438935 102.53157093952177,160.93847951469797 104.24667173830676,159.92091168430488 105.18124762264779,161.3298482208411 104.93476607074263,163.19273633101693 105.46880943325232,164.52334344464907 106.7422974515066,166.38615525496425 108.06713579306961,167.544519988689 111.32274629137828,171.6925768686342 111.81570939521771,172.52216176470392 112.88379612020799,176.1064931672372 113.5,176.0908414231817 113.34594903007383,175.13607909638085 112.05192088248441,172.24041694065818 111.6103081019537,170.37774499098305 111.57949790795101,169.7829328102016 112.51407379232114,169.3916065325102 112.64758463294129,169.14115668401791 110.97356409282656,162.55090595768706 110.06979840243002,160.76627666159766 109.06333206541603,159.46691559854662 105.25313807529164,156.0696885679572 102.5521110688569,154.61368880828377 99.40947128186235,153.92481923090236 96.05116013693623,153.89350683275552 93.42202358311624,154.3945036939258 91.8712438189541,154.37884759075678 87.08539368581842,154.9581213144411 87.05458349181572,155.55304660445836 86.86972232785774,155.78788428507687 86.57189045264386,155.6782934554576 86.5,156.17927884734672 86.57189045264386,156.97771766165533 86.99296310383943,157.49435018424265 88.67725370862172,158.52760495893745 91.41936097375583,159.29470949513052 91.99448459487758,160.62538313525147 92.01502472424181,161.98734322463133 94.46957017877139,162.66048712716292" stroke="#4dd2ff" stroke-linecap="round" stroke-linejoin="round" stroke-width="0.5"><title>2022-05-01 6.0km</title></polyline><polyline fill="none" points="130.14363885088824,159.2677146348069 130.0697674418625,159.06127354929777 131.73187414504355,159.23017992589303 132.86456908346736,158.81729713305685 132.9384404924931,159.3427840074146 132.92612859094515,158.81729713305685 133.91108071134659,158.44194755683566 134.6744186046708,158.9862039505606 135.8071135430946,159.1175757087185 136.61969904240686,159.58675905194832 137.7277701778512,159.53045717514033 137.98632010945585,160.0371728456521 139.72229822160443,158.948669128622 140.05471956223482,159.02373875751073 141.06429548567394,160.58141995038022 140.8426812585385,163.11494234540442 141.47058823533007,164.4848925153783 142.38166894667665,165.9861847113134 144.4377564979368,167.9002972901435 148.57455540358205,173.0982287976658 150.47058823533007,178.42721590174187 151.0,178.29587127963168 150.9384404924931,177.5453270414655 148.74692202464212,171.4844615070033 148.87004103968502,170.60250714418362 150.01504787965678,169.94572721289296 148.4637482900289,163.34014101260254 147.1217510260176,160.1685431266087 144.5608755129797,157.05314101800468 141.06429548567394,154.1440874641703 137.3953488372208,152.36107440133492 135.03146374828066,151.77924172508938 131.6580027359887,151.5727840982654 127.92749658002867,151.9481612622767 127.5088919288537,152.2109243800005 128.18604651166243,152.86782894234784 129.78659370724927,153.33704366003803 134.0957592339546,152.83029166316555 135.20383036936983,153.07428370835987 137.22298221616074,154.81974668493785 138.44186046512914,154.4068444082004 139.18057455541566,155.30771975111566 141.5690834473353,157.2032832603145 143.08344733246486,159.66182816831133 141.12585499315173,160.78785767835507 140.80574555401108,162.42057637233665 140.9904240766191,163.5278061542558 142.73871409028652,166.38026991715742 144.73324213409796,168.20054668723606 148.74692202464212,173.49228402024892 150.4213406292547,178.40845239561895 150.97537619702052,178.3146348083974 150.92612859100336,177.5453270414655 149.54719562243554,174.1678033943026 148.75923392613186,170.99657288788876 148.90697674421244,170.64003728656098 150.00273597810883,169.94572721289296 148.62380300959921,163.9406681393957 147.08481532151927,160.0371728456521 144.3515731874213,156.80915935976373 140.94117647060193,154.01270871513407 137.88782489742152,152.49245547210012 133.1231190150429,151.68539740577398 131.52257181939785,151.5915529922495 126.95485636117519,152.2672306662571 124.22161422710633,152.37984313703055 124.0,154.10655069756467 126.08071135432692,155.1388062857659" stroke="#4dd2ff" stroke-linecap="round" stroke-linejoin="round" stroke-width="0.5"><title>2022-04-30 10.1km</title></polyline><polyline fill="none" points="170.9011428571539,160.86965967351716 172.40285714287893,160.96373249154567 174.21314285715926,160.30522038508934 176.52742857142584,161.32434391084098 177.44285714285797,161.2302715272599 177.7102857143036,161.60656038170418 179.3765714285837,160.71287139152992 180.26114285716903,162.170990263352 179.98342857146054,163.8956118452188 180.69314285714063,165.62019533774583 181.86571428569732,167.28203066841525 183.11028571426868,168.3010631428624 186.6485714285809,172.83167730643618 187.89314285712317,176.67230352715706 188.05771428570733,176.97014011793362 188.5,176.8604109798107 188.35599999997066,175.63770443864632 186.6485714285809,170.9975156955552 186.7102857143036,170.5115340323464 187.59485714283073,170.16664198494254 187.70800000001327,169.9314874428892 186.45314285712084,164.4757032710986 185.31142857141094,161.95149023860722 182.38000000000466,158.53348166994692 179.97314285713946,156.5892265505463 177.66914285713574,155.4289222024454 174.1720000000205,154.67628313532623 171.826857142878,154.6135628855409 169.37885714287404,154.8487635623096 168.3708571428724,155.1780433194799 167.2600000000093,155.11532347282628 162.44628571430803,155.67980027927842 162.15828571427846,155.75819951297308 161.98342857143143,156.32267167180544 161.5,156.2599527446 161.60285714286147,155.00556361989584 165.59371428572922,154.69196318987088 165.64514285718906,153.547310931237 165.99485714288312,153.02985988207365 166.66342857145355,153.42186856758053 166.07714285716065,154.55084258540592 165.84057142859092,156.79306202028238 168.02114285717835,157.49864222958422 166.66342857145355,160.39929388318706 167.03371428573155,161.59088171561598 166.97200000000885,162.7197376256736 168.81314285716508,163.2057677833509 170.2840000000142,164.1778190231489 171.49771428570966,162.6413453814166 170.36628571432084,162.0455617533371 170.58228571430664,161.089162739343 170.86000000001513,160.9950900723852" stroke="#4dd2ff" stroke-linecap="round" stroke-linejoin="round" stroke-width="0.5"><title>2022-04-28 7.1km</title></polyline><polyline fill="none" points="27.018943170493003,192.67204999581736 27.113160518478253,192.77463434618403 27.26794616151892,192.6515331010196 28.095712861424545,192.67204999581736 29.138833499513566,192.29248610834475 29.71086739783641,192.67204999581736 30.13484546363179,192.692566882346 30.579012961126864,192.9387688783463 31.21161515454878,192.9387688783463 31.440428713860456,193.21574470565974 32.48354935196403,192.55920697248803 33.02193419744435,193.55426867761707 32.87387836491689,194.6621496305379 33.2372881356132,195.64691253192723 33.72856430709362,196.4572760998053 34.89955134598131,197.55483664153144 37.20787637089961,200.49864428456567 38.02218344966241,203.01151662489428 38.217347956146114,203.23715625780824 38.5,203.13459291183972 38.419242273201235,202.65254242809897 37.65204386842379,200.91917438844393 37.19441674978589,199.30883304640884 37.228065802613855,198.898546884775 37.90104685944971,198.6113446113195 36.898305084745516,194.42621403352678 36.319541375894914,193.31832796435629 34.81879361915344,191.50257384222277 33.620887337994645,190.43565996433244 32.38260219343647,189.61494181916714 31.29237288137665,189.06094961744748 29.569541375909466,188.64032189644786 27.792871385870967,188.54798851854503 25.989282153561362,188.69161814543259 25.84795613163442,188.32228400323584 24.111665005009854,187.19374646862707 22.57726819544041,186.7936226289239 19.1854436690046,187.03985305501556 18.8018444666086,187.19374646862707 18.007726819560048,187.0603722036176 17.563559322050423,187.25530370427805 15.645563310084981,188.74291434288534 14.622632103710203,189.18405951479508 12.004735792652355,189.0814679542782 11.722083748769364,188.94809861761314 11.5,189.24561435221767 14.514955134611228,189.43027841944786 15.127367896318901,189.2763917431039 16.09646061815147,188.7531735761877 18.02791625127429,187.0603722036176 18.525922233326128,187.12192959996173 19.744017946184613,186.84492073220827 22.90029910270823,186.76284374219176 24.771186440702877,187.3886774603816 25.908524426733493,188.41461778913072 25.874875373905525,188.7121366305728 25.309571286168648,188.9583578097263 25.38359920241055,189.46105569908468 25.154785643098876,190.4254010689001 24.683698903303593,191.0101548210987 24.024177467625123,192.51817308401223 24.387587238306878,193.09264452335265 24.37412761716405,193.92356499796733 25.255732801611884,194.1184703130566 26.5613160518551,194.83653611067348 27.308325024932856,193.75943362957696 28.667746759747388,192.97980242900303 29.556081754752086,192.66179154943893 28.634097706890316,191.90266080211586 27.961116650069016,192.1899007898428 27.032402791635832,192.22067640702517 26.62861415754014,193.27729468559482 26.803589232324157,193.5132355883834 27.355433698918205,193.77995007948994 28.18993020938069,193.22600304080697 28.021684945182642,192.86696008541549 27.07278165506432,192.83618485755142" stroke="#4dd2ff" stroke-linecap="round" stroke-linejoin="round" stroke-width="0.5"><title>2022-04-27 10.1km</title></polyline><polyline fill="none" points="54.404907571180956,189.2986982525763 55.79228377935942,189.1854046026201 58.49271247020806,188.3734627833619 59.11207684886176,188.86440518641757 60.36319289371022,189.10987542679504 61.14359201077605,189.63857838358672 62.22128602961311,189.67634276676836 62.555742794065736,190.05398576437437 64.36428677965887,188.90216988050088 64.98365115831257,189.26093371774186 65.65256468721782,190.60156541712786 65.46675537366536,193.05619364386075 66.11089432743029,194.60446465029236 67.78317814978072,196.8890618954465 69.0962306324509,197.96525789671432 73.3202956947789,203.4404503509504 74.93064307922032,208.5 75.63671847086516,208.34897260829894 75.59955660815467,207.78261772939732 74.00159651125432,203.70476192139176 73.4565558580507,201.5524889592998 73.38223213260062,200.75953387295158 74.64573546504835,200.06097266229335 73.10971180602792,193.30165294269682 71.6727864475688,190.24280669446307 68.9599704691791,186.97615114587825 66.73025870605488,184.99344359507813 65.39243164821528,183.99263247854833 61.6762453764386,182.1798154107164 56.69655577218509,181.5 52.37339240926667,181.83990831972915 51.5062822792097,182.1798154107164 51.63015515494044,183.12399532782 51.184212802298134,184.80461212427326 50.41620097277337,185.729882708285 49.87116031956975,187.29715700777888 49.363281529105734,187.97693050980888 50.15606793377083,187.9958130369123" stroke="#4dd2ff" stroke-linecap="round" stroke-linejoin="round" stroke-width="0.5"><title>2022-04-25 5.0km</title></polyline><polyline fill="none" points="102.00575287643005,192.76169568800105 103.18759379691619,192.6690465540196 104.14657328664907,192.24697615825426 104.55852926464286,192.55580849621765 105.18659329666116,192.6587521954716 105.55802901450079,192.874933291052 106.15232616310823,192.864638973846 106.42921460731304,193.13229054963813 107.50300150075054,192.48374778376092 108.05677838920383,193.37935230249786 107.91495747872978,194.59405527055787 108.26613306654326,195.55138563603032 108.97523761881166,196.63222101671636 109.97473736868415,197.51745968870455 112.27088544273283,200.47157581272768 113.20960480239592,203.2608463137367 113.5,203.15792389909257 113.4797398699302,202.75652450806592 113.06103051526588,201.43908904107593 112.64232116058702,200.69801671535606 112.27763881941792,199.38052835579583 112.24387193597795,198.96880630079613 112.96648324164562,198.618839954539 112.0615307653934,194.78964034658202 111.35242621311045,193.24552733415476 110.51500750375271,192.17491501171025 109.50200100052461,191.08369098385447 107.95547773886938,189.82772514417593 106.41570785392832,189.04530464013442 104.11280640319455,188.54084298362068 102.6135567783931,188.48936702528226 101.06028014009644,188.70556570298868 100.86443221611262,188.2319864582314 99.10180090046197,187.14067849873754 97.44047023513122,186.73915368625967 94.60405202601396,186.91417770912813 93.82741370686563,187.14067849873754 92.78739369685354,187.08920113443673 91.24762381191249,188.33493884010386 90.04552276138566,189.01441937523123 89.22161080542719,189.1791405729673 87.00650325164315,189.0555997242882 86.62831415708933,188.90117324481616 86.5,189.15855045218996 88.84342171087337,189.39533634175677 89.91720860431087,189.30268112393605 90.97073536769312,188.76733658630837 92.79414707353862,187.2127467219252 93.09804902452743,187.08920113443673 93.92871435720008,187.17156489252375 95.73861930964631,186.97595075100617 97.52826413208095,187.01713273756468 98.45347673837387,187.16126942999472 99.29764882443123,187.562790936252 99.5745372686506,187.28481484379517 98.18334167082503,186.8318135375266 96.31940970485448,186.80092693903862 94.15157578789513,186.99654174842726 93.47623811908124,187.18186035297185 94.90120060031768,187.12008755921852 95.8061530765408,186.9244732212901 96.33966983492428,187.05831469105397 97.60930465233105,186.99654174842726 98.79114557278808,187.34658743905675 99.16258129065682,187.7172214474449 98.77763881943247,188.5820237130938 98.61555777890317,189.89978959002474 99.97298649327422,190.33217413781313 99.27063531767635,192.04108689939676 99.94597298649023,191.81460775963205 101.14132066033198,191.84549133759356 102.01250625314424,192.0719703409195 101.87068534267019,192.55580849621765" stroke="#4dd2ff" stroke-linecap="round" stroke-linejoin="round" stroke-width="0.5"><title>2022-04-22 10.1km</title></polyline><polyline fill="none" points="138.02986348126433,192.47824975055846 139.10494880547049,192.46654417956597 139.18174061432364,192.24413788385573 140.31825938564725,191.92808537247038 140.81740614335285,192.27925472378047 141.53156996588223,192.38460511670928 142.02303754267632,192.6772440980276 142.59897610923508,192.6304219597514 142.8754266211763,192.95817613810868 144.15017064847052,192.23243226585328 144.81825938567636,193.29763388028005 144.68003412970575,194.64373994928974 145.07167235494126,195.73230734373647 145.91638225255883,196.93790127435204 146.96075085326447,197.87426770837556 149.6100682593824,201.2801737732152 150.6313993174117,204.32308306639607 151.0,204.32308306639607 150.82337883961736,203.25808287830296 150.16296928329393,201.80684251559796 149.6177474402939,199.93422092765468 149.60238907849998,199.54798524307625 150.27815699658822,199.24367653793524 150.40102389079402,199.04470460270386 149.5025597269705,195.18217367409306 149.01877133108792,193.8594906274193 148.58105802049977,193.05181985062882 146.91467576794093,191.02674102119272 144.6262798634998,189.0952419100904 142.8677474402939,188.2172666119659 141.001706484647,187.79583377188828 138.82849829352926,187.64364894196115 136.82423208194086,187.85436629298056 136.56313993176445,187.32757148723613 134.6279863481177,186.09836509297747 132.7619453924999,185.67691693360393 127.28668941979413,186.09836509297747 125.45904436861747,187.63194240013763 124.02303754264722,188.29921153264877 124.0,188.6386964053745 125.38993174061761,187.95972468285618 127.67064846417634,186.00471020975965 129.79778156997054,186.08665824078707 130.71160409555887,185.85252070362912 131.4948805460881,186.00471020975965 133.19965870308806,185.96958958977484 134.09812286691158,186.25055395721938 134.66638225258794,186.66029123228145 134.2363481228822,187.71388814360762 134.09812286691158,189.31766021969452 135.6262798634998,189.7742004069696 134.80460750852944,191.6822655678734 136.07935153585277,191.2959752091847 138.52901023891172,191.79932274694147 139.82679180888226,191.37791580219346" stroke="#4dd2ff" stroke-linecap="round" stroke-linejoin="round" stroke-width="0.5"><title>2022-04-21 8.1km</title></polyline><polyline fill="none" points="175.2457337884116,192.46655371949964 176.505119453941,192.38461472246127 176.81996587029425,192.25585320873506 176.95051194538246,191.99832932798017 176.8660409556469,192.39632030053326 177.80290102388244,191.92809534491607 179.45392491470557,192.61872583703735 180.16040955632343,192.60702030364337 180.3754266211472,192.91136340814774 181.58873720135307,192.16220829281883 182.27218430035282,193.15717783267974 182.14931740614702,194.69056822432685 182.6254266211763,195.80254366093868 183.19368600685266,196.69210873970587 184.56058020479395,198.00302201050727 187.17918088738224,201.36210273074175 188.16979522185284,204.36989579635338 188.5,204.27627033643512 188.3848122867057,203.7028111139516 187.57081911264686,201.73662238702673 187.08703071673517,199.67673450511938 187.17150170647074,199.46606005127614 187.84726962458808,199.1968638079743 187.58617747438257,197.59336477981924 186.8796928327647,194.7725039803263 186.06569965870585,193.06353436459176 184.30716723549995,190.92139895540095 182.1186006825883,189.11866663274486 180.45221843002946,188.2641052105173 178.92406143344124,187.83096655500412 176.42832764505874,187.6202492885932 174.18600682594115,187.84267304746027 174.17064846417634,187.7139015010289 174.06313993173535,187.33929174855803 172.0127986347943,186.03984551082613 170.13907849832322,185.630104203643 166.6143344709999,185.86424244614682 165.78498293514713,186.08667290541416 165.20904436861747,185.9227768598139 164.8634812286764,186.00472494021597 162.96672354949987,187.51489036978455 161.51535836179391,188.21727956509858 161.5,188.56847098903745 162.8822525597352,187.87779251073516 165.14761092152912,186.00472494021597 166.1228668942058,186.13350026237094 168.18856655291165,185.91106998176474 170.18515358361765,185.91106998176474 171.3600682593824,186.12179342667878 172.18941979520605,186.70713233221977 171.71331058020587,187.7021949827249" stroke="#4dd2ff" stroke-linecap="round" stroke-linejoin="round" stroke-width="0.5"><title>2022-04-19 7.2km</title></polyline><polyline fill="none" points="15.037515260424698,218.30025505603408 15.076532824663445,218.08217834392417 16.98839347314788,217.96322720709577 18.91325997633976,217.24951737641095 21.878594859677833,218.55798145832523 23.06212764204247,218.47868109847332 23.322244737064466,218.99413229891798 25.2861288045533,217.72532450340805 25.728327866090694,218.08217834392417 26.534690860687988,219.54923058227723 26.261567910929443,221.98766107604024 26.924866503250087,223.63307201512362 27.887299754831474,225.15951306728675 30.124306772078853,227.28063223356003 34.676355935109314,233.16798593242856 36.354111198015744,238.40089455773705 36.5491990193259,238.40089455773705 36.90035709759104,238.24232564333943 36.848333678615745,237.19180015384336 35.092543287115404,232.9499420549182 34.53329153280356,230.43249150842894 35.8989062817418,229.42152873846499 34.44225054956041,223.05817251437838 32.959583107876824,219.2518568900341 30.033265788806602,215.78243096662482 26.131509363418445,212.4516673786202 24.791906324011507,211.81722347876348 23.998549184179865,211.5 23.868490636668867,213.06628101872047 24.47976580998511,213.85932522335497 27.041919196024537,215.98068716075068 28.62863347568782,218.20112933750352 29.85118382232031,220.22327430228324 30.4234414313687,222.44362107059715 34.15612174503622,221.90836347072036 34.88444961109781,224.02955247912905 35.96393555548275,229.48099742325576 34.75439106358681,230.35320068483998 35.716824315226404,234.05997859954368 37.18648590211524,238.16304109067278 36.48416974552674,238.5 36.0029531197215,237.8459022432653 34.66335008031456,233.94104670947127 33.85698708574637,232.375096797281 30.33240044809645,227.7563910239478 27.744235352583928,225.2388080615492 26.092491799150594,222.36432383152714 26.001450815907447,221.59117241269269 26.39162645844044,219.80695372440096 28.47256321864552,218.53815637429943 29.825172112789005,220.2034495525877 30.5014765598753,222.48326966632158 33.85698708574637,221.67047027274384 32.64744259385043,218.97430730253836 29.17487937520491,215.0092280054887 26.092491799150594,212.51114628523646 24.011555038916413,211.5198264972496 23.93351991038071,213.3041949489707 25.104046838037902,214.4541041965931 24.011555038916413,215.3660916630397 22.658946144772926,215.0092280054887 22.19073537370423,215.32644020922453 21.462407507642638,216.21859406828298 21.644489474158036,217.9434020036715 18.380019931559218,218.47868109847332 17.664697920175968,219.19238204408612 15.635784579004394,220.3620474380732 14.127105427818606,222.28502652872703 12.813514097913867,221.57134793775185 14.73838060113485,216.9323113511491 16.42914171880693,216.9521367576017 18.132908691244666,216.2978962433408 18.887248266808456,217.24951737641095 17.248510568169877,218.2407796368425 14.68635718213045,218.32008018775377" stroke="#4dd2ff" stroke-linecap="round" stroke-linejoin="round" stroke-width="0.5"><title>2022-04-10 10.4km</title></polyline><polyline fill="none" points="51.33022486077971,218.35084018868656 51.474774892034475,218.13049885035434 53.091107059211936,218.23065406445676 55.4564712063293,217.32925351746235 56.25806683397968,217.93018812041555 58.400035478320206,218.65130486576527 59.595858463813784,218.53111910351436 59.779831230815034,219.09198475509038 61.88237713937997,217.89012592618383 63.07820012484444,219.51263192448823 62.854804622067604,222.0565079605076 63.48556839462253,223.67894619907747 64.91792779485695,225.88221514147153 66.9547691437474,227.74494092480745 71.35697463981342,233.4330495669783 72.97330680701998,238.47997303446755 73.6697751392494,238.5 71.27812916820403,231.0697198622438 71.26498825629824,230.44883582370676 72.65792492075707,229.74783307160396 70.98902910581091,222.21674994853674 69.64865608909167,219.47257036571682 66.79707820064505,215.96712168193335 62.710254590871045,212.50161418764037 60.581426858436316,211.5 60.51572229882004,213.44312235416874 63.66954116168199,215.96712168193335 65.23330968111986,218.71139769255387 63.196468332229415,219.77303166424826 61.96122261096025,217.97025029864017 59.937522173975594,219.1520773164375 57.519594379118644,218.2106230296995 56.468321424821625,218.13049885035434 55.12794840816059,218.51108812908933 53.472193505149335,219.69290873980935" stroke="#4dd2ff" stroke-linecap="round" stroke-linejoin="round" stroke-width="0.5"><title>2022-04-09 5.2km</title></polyline><polyline fill="none" points="88.81535157805774,218.33587961900776 90.28822709037922,218.21560425768257 90.32767911304836,218.015145000114 93.04986867605476,217.23335004969704 93.79945710644824,217.93496118443727 95.00931913449313,218.09532875144214 95.91671565544675,218.5764299069342 97.04767363818246,218.5764299069342 97.37644049359369,219.05752874397876 99.38849364887574,217.77459335976164 99.98027398862178,218.31583373555623 100.6509583737643,219.57871653450275 100.41424623780767,222.04429881557007 101.0586292744847,223.7681657039575 102.68931287745363,226.07329003035557 104.51725659365184,227.71691139406175 108.87012975962716,233.4292874016537 110.57971740790526,238.5 111.18464842191315,238.39979078290344 111.06629235393484,237.2373565141097 109.73807425799896,234.13078473016503 108.79122571431799,230.54307510985382 109.00163650180912,230.18229270686425 110.14574515871936,229.64111665801465 109.44875942519866,225.8928909157039 107.97588391284808,220.78144720534328 107.10793941447628,219.07757447852782 105.56931053104927,217.23335004969704 101.84766972754733,213.64503314968897 100.34849286676035,212.5023576757958 98.13917959821993,211.5 97.96822083339794,212.84315699284343 98.20493296929635,213.58489266136166 101.01917725181556,215.87020574878989 102.80766894543194,218.5764299069342 100.80876646432444,219.67894464386336 99.3490416262066,217.91491522046272 97.54739925841568,219.01743726277346 94.86466171804932,218.11537467924063 92.45808833630872,218.47620069074037" stroke="#4dd2ff" stroke-linecap="round" stroke-linejoin="round" stroke-width="0.5"><title>2022-04-07 5.0km</title></polyline><polyline fill="none" points="126.31050450686598,217.6497524219012 126.19223620451521,217.89012592524523 126.52075926656835,218.0904367355397 128.05824719689554,218.0904367355397 130.72585446070298,217.30922230073338 131.52745073207188,217.93018811945512 132.93352943760692,218.1505299001874 133.44602541442146,218.4910571495493 134.6549902826955,218.5511500728826 134.90466780986753,219.0318921564467 136.98093356197933,217.78997036921646 137.61169784108642,218.310778162333 138.32130765507463,219.7329702089046 138.09791197290178,222.2968708447297 139.2411722287943,224.60031912942213 140.38443248471594,226.1025393581367 141.9482022600423,227.34435766900424 146.58694789608126,233.41302158351027 148.20328136134776,238.5 148.8077637955139,238.43991909125907 148.76834102804423,237.41853810810426 146.7183571209025,232.71203965823952 146.32412944643875,230.3887500653509 147.6382216946222,229.80791921357013 147.73020815197378,229.24711380331428 146.24528391152853,223.0780462229377 145.2728556478978,220.2337372299662 144.18215908194543,218.69136675326445 143.44626742295804,219.11201561183407 143.86677694236278,218.41093319544598 141.79051119025098,215.76680660721468 138.03220736052026,212.62180721408367 135.71940500370692,211.5 135.58799577888567,212.86219283301762 135.8376733060577,213.603378177977 138.6235488721577,215.74677507773595 140.55526447697775,218.33080917699408 139.32001776370453,219.31232396867563 138.3475895000738,219.69290873863065 137.1911883216817,217.9902813806184 136.70497418986633,218.07040567258082 136.31074651540257,217.62972127051762 135.67998223632458,215.50639640979352 136.9020880270691,214.36458982706245 138.64983071715687,215.82690117162565 140.54212355450727,218.41093319544598 138.58412610471714,219.6328165031082 138.3607304225152,219.6728779974219 137.02035632941988,217.87009482205758 135.06235887962976,219.0318921564467 134.60242659278447,218.65130486464477 133.4066026469518,218.5311191024157 130.58130431341124,217.46947191431536 129.14894376287702,218.1705609470664 127.25665092552663,218.2907471436847" stroke="#4dd2ff" stroke-linecap="round" stroke-linejoin="round" stroke-width="0.5"><title>2022-04-03 6.2km</title></polyline><polyline fill="none" points="186.5983606557129,229.37342712317331 187.17213114758488,226.99934175964154 186.9918032787391,226.02470412857656 188.5,225.27497767958994 188.5,224.55023781881027 183.97540983610088,221.65123616644996 181.4016393442871,220.9514670284334 175.87704918032978,221.0264424814959 170.893442622968,221.80118618406414 168.71311475412222,221.62624447930284 164.8114754098351,224.77515753759508 161.64754098356934,226.34958418707538 161.5,227.02433236772777 164.25409836065955,225.84976836116402 168.7950819671969,221.85116948313953 169.71311475412222,221.55126938764442 173.66393442626577,221.6012527870771 176.02459016395733,221.0764260916767 181.680327868904,221.57626108982367 184.5,222.77585689423722 185.106557377032,222.35100136935944 184.56557377049467,221.80118618406414 180.106557377032,220.87649153036182 172.3852459016489,221.426310801231 170.87704918032978,221.8761611250884 168.87704918032978,221.62624447930284 163.92622950818622,225.4998960886005 161.5,226.47453782993398 161.72950819676043,227.02433236772777 164.696721311484,225.54987790199084 168.696721311484,221.97612764290534 169.9098360656062,221.5262776804302 170.64754098362755,221.65123616644996 173.31967213115422,221.0014506688094 180.71311475412222,220.6265728768194 185.12295081972843,221.92614439397585" stroke="#4dd2ff" stroke-linecap="round" stroke-linejoin="round" stroke-width="0.5"><title>2022-03-24 5.1km</title></polyline><polyline fill="none" points="27.524774781573797,267.86339030943054 26.779270416940562,267.69665831222665 25.715684190072352,268.5 25.238561396719888,268.25748265611765 25.0,267.6511858854137 24.691858195932582,264.9076320847671 24.334016100910958,264.0587775482127 23.906593598541804,263.75561289883626 21.431519107922213,263.69497982279427 20.169131717120763,262.4823080667411 32.38546323904302,246.15481635997276 26.530768962053116,241.5 17.614536760986084,259.6930890433068 23.11138894292526,265.30173987273884 23.44935092155356,265.0288962388513" stroke="#4dd2ff" stroke-linecap="round" stroke-linejoin="round" stroke-width="0.5"><title>2021-10-26 5.0km</title></polyline></svg>