<?xml version="1.0" encoding="utf-8" ?>
<svg baseProfile="full" height="300mm" version="1.1" viewBox="0,0,200,300" width="200mm" xmlns="http://www.w3.org/2000/svg" xmlns:ev="http://www.w3.org/2001/xml-events" xmlns:xlink="http://www.w3.org/1999/xlink"><defs /><rect fill="#222222" height="300" width="200" x="0" y="0" /><text fill="#FFFFFF" style="font-size:12px; font-family:Arial; font-weight:bold;" x="10" y="20">Over 5km Runs</text><text fill="#FFFFFF" style="font-size:4px; font-family:Arial" x="10" y="280">ATHLETE</text><text fill="#FFFFFF" style="font-size:9px; font-family:Arial" x="10" y="290">Wenz</text><text fill="#FFFFFF" style="font-size:4px; font-family:Arial" x="120" y="280">STATISTICS</text><text fill="#FFFFFF" style="font-size:3px; font-family:Arial" x="120" y="285">Number: 10</text><text fill="#FFFFFF" style="font-size:3px; font-family:Arial" x="120" y="290">Weekly: 1.7</text><text fill="#FFFFFF" style="font-size:3px; font-family:Arial" x="141" y="285">Total: 67.2 km</text><text fill="#FFFFFF" style="font-size:3px; font-family:Arial" x="141" y="290">Avg: 6.7 km</text><text fill="#FFFFFF" style="font-size:3px; font-family:Arial" x="167" y="285">Min: 5.0 km</text><text fill="#FFFFFF" style="font-size:3px; font-family:Arial" x="167" y="290">Max: 10.4 km</text><polyline fill="none" points="23.809815142361913,48.597396505152574 26.584567558718845,48.37080920524022 31.985424940416124,46.7469255667238 33.22415369772352,47.72881037283514 35.72638578742044,48.219750853590085 37.28718402155209,49.27715676717344 39.44257205922622,49.352685533536715 40.11148558813147,50.10797152874875 43.72857355931774,47.804339761001756 44.96730231662514,48.52186743548373 46.30512937443564,51.20313083425572 45.93351074733073,56.1123872877215 47.221788654860575,59.208929300584714 50.56635629956145,63.778123790893005 53.192461264901794,65.93051579342864 61.64059138955781,76.88090070190083 64.86128615844063,87.0 66.27343694173032,86.69794521659787 66.19911321630934,85.56523545879463 63.00319302250864,77.40952384278353 61.91311171610141,73.10497791859962 61.76446426520124,71.51906774590316 64.2914709300967,70.1219453245867 61.219423612055834,56.60330588539364 58.34557289513759,50.48561338892614 52.919940938358195,43.952302291756496 48.460517412109766,39.98688719015627 45.78486329643056,37.98526495709666 38.3524907528772,34.3596308214328 28.393111544370186,33.0 19.746784818533342,33.679816639458295 18.0125645584194,34.3596308214328 18.26031030988088,36.247990655640024 17.36842560459627,39.609224248546525 15.832401945546735,41.45976541657001 14.742320639139507,44.59431401555776 13.726563058211468,45.95386101961776 15.312135867541656,45.99162607382459" stroke="#4dd2ff" stroke-linecap="round" stroke-linejoin="round" stroke-width="0.5"><title>2022-04-25 5.0km</title></polyline><polyline fill="none" points="104.0115057528601,55.52339137600211 106.37518759383238,55.338093108039175 108.29314657329815,54.49395231650851 109.11705852928571,55.1116169924353 110.37318659332232,55.31750439094321 111.11605802900158,55.749866582104005 112.30465232621646,55.729277947692026 112.85842921462609,56.264581099276256 115.00600300150109,54.96749556752184 116.11355677840766,56.75870460499573 115.82991495745955,59.18811054111575 116.53226613308652,61.102771272060636 117.95047523762332,63.264442033432715 119.94947473736829,65.0349193774091 124.54177088546567,70.94315162545536 126.41920960479183,76.52169262747339 127.0,76.31584779818513 126.9594797398604,75.51304901613184 126.12206103053177,72.87817808215186 125.28464232117403,71.39603343071212 124.55527763883583,68.76105671159166 124.4877438719559,67.93761260159226 125.93296648329124,67.237679909078 124.1230615307868,59.57928069316404 122.7048524262209,56.491054668309516 121.03001500750543,54.34983002342051 119.00400200104923,52.167381967708934 115.91095547773875,49.65545028835186 112.83141570785665,48.090609280268836 108.22561280638911,47.081685967241356 105.22711355678621,46.978734050564526 102.12056028019288,47.41113140597736 101.72886443222524,46.46397291646281 98.20360180092393,44.281356997475086 94.88094047026243,43.47830737251934 89.20810405202792,43.82835541825625 87.65482741373125,44.281356997475086 85.57478739370708,44.17840226887347 82.49524762382498,46.66987768020772 80.09104552277131,48.028838750462455 78.44322161085438,48.3582811459346 74.0130065032863,48.11119944857637 73.25662831417867,47.80234648963233 73.0,48.31710090437991 77.68684342174674,48.79067268351355 79.83441720862174,48.60536224787211 81.94147073538625,47.53467317261675 85.58829414707725,44.42549344385043 86.19609804905485,44.17840226887347 87.85742871440016,44.343129785047495 91.47723861929262,43.95190150201233 95.0565282641619,44.03426547512936 96.90695347674773,44.322538859989436 98.59529764886247,45.12558187250397 99.1490745373012,44.56962968759035 96.36668334165006,43.66362707505323 92.63881940970896,43.601853878077236 88.30315157579025,43.993083496854524 86.95247623816249,44.363720705943706 89.80240120063536,44.24017511843704 91.61230615308159,43.8489464425802 92.67933966984856,44.11662938210793 95.2186093046621,43.993083496854524 97.58229114557616,44.693174878113496 98.32516258131363,45.4344428948898 97.55527763886494,47.16404742618761 97.23111555780633,49.79957918004948 99.94597298654844,50.66434827562625 98.5412706353527,54.08217379879352 99.89194597298047,53.62921551926411 102.28264132066397,53.690982675187115 104.02501250628848,54.14394068183901 103.74137068534037,55.1116169924353" stroke="#4dd2ff" stroke-linecap="round" stroke-linejoin="round" stroke-width="0.5"><title>2022-04-22 10.1km</title></polyline><polyline fill="none" points="161.05972696252866,54.95649950111692 163.20989761094097,54.93308835913194 163.3634812286473,54.48827576771146 165.6365187712945,53.856170744940755 166.6348122867057,54.55850944756094 168.06313993176445,54.76921023341856 169.04607508535264,55.35448819605517 170.19795221847016,55.260843919502804 170.7508532423526,55.91635227621737 173.30034129694104,54.46486453170655 174.6365187713527,56.59526776056009 174.3600682594115,59.28747989857948 175.1433447098825,61.46461468747293 176.83276450511767,63.87580254870409 178.92150170652894,65.74853541675111 184.22013651876478,72.56034754643042 186.2627986348234,78.64616613279213 187.0,78.64616613279213 186.64675767923472,76.51616575660591 185.32593856658787,73.61368503119593 184.2354948805878,69.86844185530936 184.20477815699996,69.09597048615251 185.55631399317645,68.48735307587049 185.80204778158804,68.08940920540772 184.005119453941,60.36434734818613 183.03754266217584,57.71898125483858 182.16211604099954,56.103639701257634 178.82935153588187,52.05348204238544 174.2525597269996,48.190483820180816 170.7354948805878,46.434533223931794 167.003412969294,45.591667543776566 162.65699658705853,45.28729788392229 158.64846416388173,45.708732585961116 158.1262798635289,44.655142974472255 154.2559726962354,42.19673018595495 150.52389078499982,41.35383386720787 139.57337883958826,42.19673018595495 135.91808873723494,45.263884800275264 133.04607508529443,46.59842306529754 133.0,47.27739281074901 135.77986348123522,45.91944936571235 140.34129692835268,42.0094204195193 144.59556313994108,42.17331648157415 146.42320819111774,41.70504140725825 147.9897610921762,42.0094204195193 151.39931740617612,41.93917917954968 153.19624573382316,42.50110791443876 154.33276450517587,43.320582464562904 153.47269624576438,45.42777628721524 153.19624573382316,48.635320439389034 156.2525597269996,49.548400813939224 154.6092150170589,53.3645311357468 157.15870307170553,52.59195041836938 162.05802047782345,53.59864549388294 164.65358361776453,52.75583160438691" stroke="#4dd2ff" stroke-linecap="round" stroke-linejoin="round" stroke-width="0.5"><title>2022-04-21 8.1km</title></polyline><polyline fill="none" points="40.4914675768232,114.93310743899929 43.01023890788201,114.76922944492253 43.63993174058851,114.51170641747012 43.90102389076492,113.99665865596035 43.73208191129379,114.79264060106652 45.60580204776488,113.85619068983215 48.907849829411134,115.23745167407469 50.32081911264686,115.21404060728673 50.7508532422944,115.82272681629547 53.17747440270614,114.32441658563766 54.54436860070564,116.31435566535947 54.29863481229404,119.3811364486537 55.250853242352605,121.60508732187736 56.38737201370532,123.38421747941175 59.1211604095879,126.00604402101453 64.35836177476449,132.7242054614835 66.33959044370567,138.73979159270675 67.0,138.55254067287024 66.76962457341142,137.40562222790322 65.14163822529372,133.47324477405346 64.17406143347034,129.35346901023877 64.34300341294147,128.9321201025523 65.69453924917616,128.3937276159486 65.17235494876513,125.18672955963848 63.75938566552941,119.54500796065258 62.131399317411706,116.12706872918352 58.61433447099989,111.84279791080189 54.23720136517659,108.23733326548972 50.90443686005892,106.5282104210346 47.84812286688248,105.66193311000825 42.85665529011749,105.24049857718637 38.3720136518823,105.68534609492053 38.341296928352676,105.42780300205777 38.1262798634707,104.67858349711605 34.025597269588616,102.07969102165225 30.27815699664643,101.26020840728597 23.228668941999786,101.72848489229364 21.569965870294254,102.17334581082832 20.41808873723494,101.84555371962779 19.726962457352784,102.00944988043193 15.93344709899975,105.0297807395691 13.03071672358783,106.43455913019716 13.0,107.1369419780749 15.764505119470414,105.75558502147032 20.295221843058243,102.00944988043193 22.2457337884116,102.26700052474189 26.377133105823305,101.82213996352948 30.370307167235296,101.82213996352948 32.720136518764775,102.24358685335756 34.3788395904121,103.41426466443954 33.42662116041174,105.40438996544981" stroke="#4dd2ff" stroke-linecap="round" stroke-linejoin="round" stroke-width="0.5"><title>2022-04-19 7.2km</title></polyline><polyline fill="none" points="80.0750305208494,106.60051011206815 80.15306564932689,106.16435668784834 83.97678694629576,105.92645441419154 87.82651995267952,104.4990347528219 93.75718971935567,107.11596291665046 96.12425528408494,106.95736219694663 96.64448947412893,107.98826459783595 100.5722576091066,105.45064900681609 101.45665573218139,106.16435668784834 103.06938172137598,109.09846116455446 102.52313582185889,113.97532215208048 103.84973300650017,117.26614403024723 105.77459950966295,120.3190261345735 110.2486135441577,124.56126446712005 119.35271187021863,136.33597186485713 122.70822239603149,146.8017891154741 123.0983980386518,146.8017891154741 123.80071419518208,146.48465128667885 123.69666735723149,144.38360030768672 120.18508657423081,135.89988410983642 119.06658306560712,130.86498301685788 121.7978125634836,128.84305747692997 118.88450109912083,116.11634502875677 115.91916621575365,108.50371378006821 110.0665315776132,101.56486193324963 102.26301872683689,94.90333475724037 99.58381264802301,93.63444695752696 97.99709836835973,93.0 97.73698127333773,96.13256203744095 98.95953161997022,97.71865044670994 104.08383839204907,101.96137432150135 107.25726695137564,106.40225867500703 109.70236764464062,110.44654860456649 110.8468828627374,114.88724214119429 118.31224349007243,113.81672694144072 119.76889922219561,118.0591049582581 121.9278711109655,128.96199484651152 119.50878212717362,130.70640136967995 121.43364863045281,138.11995719908737 124.37297180423047,146.32608218134556 122.96833949105348,147.0 122.005906239443,145.6918044865306 119.32670016062912,137.88209341894253 117.71397417149274,134.750193594562 110.6648008961929,125.5127820478956 105.48847070516786,120.47761612309841 102.18498359830119,114.72864766305429 102.0029016318149,113.18234482538537 102.78325291688088,109.61390744880191 106.94512643729104,107.07631274859887 109.65034422557801,110.4068991051754 111.0029531197506,114.96653933264315 117.71397417149274,113.34094054548768 115.29488518770086,107.94861460507673 108.34975875040982,100.01845601097739 102.18498359830119,95.02229257047293 98.02311007783283,93.03965299449919 97.86703982076142,96.60838989794138 100.2080936760758,98.90820839318621 98.02311007783283,100.7321833260794 95.31789228954585,100.01845601097739 94.38147074740846,100.65288041844906 92.92481501528528,102.43718813656596 93.28897894831607,105.88680400734302 86.76003986311844,106.95736219694663 85.32939584035194,108.38476408817223 81.27156915800879,110.72409487614641 78.25421085563721,114.57005305745406 75.62702819582773,113.1426958755037 79.4767612022697,103.86462270229822 82.85828343761386,103.90427351520339 86.26581738248933,102.5957924866816 87.77449653361691,104.4990347528219 84.49702113633975,106.48155927368498 79.3727143642609,106.64016037550755" stroke="#4dd2ff" stroke-linecap="round" stroke-linejoin="round" stroke-width="0.5"><title>2022-04-10 10.4km</title></polyline><polyline fill="none" points="137.66044972155942,106.70168037737312 137.94954978406895,106.26099770070869 141.18221411842387,106.46130812891352 145.9129424126586,104.6585070349247 147.51613366795937,105.8603762408311 151.8000709566404,107.30260973153054 154.19171692762757,107.06223820702871 154.55966246163007,108.18396951018076 158.76475427875994,105.78025185236766 161.1564002496889,109.02526384897646 160.7096092441352,114.11301592101518 161.97113678924507,117.35789239815495 164.8358555897139,121.76443028294307 168.9095382874948,125.4898818496149 177.71394927962683,136.8660991339566 180.94661361403996,146.9599460689351 182.3395502784988,147.0 177.55625833640806,132.1394397244876 177.52997651259648,130.89767164741352 180.31584984151414,129.49566614320793 176.97805821162183,114.43349989707349 174.29731217818335,108.94514073143364 168.5941564012901,101.9342433638667 160.4205091817421,95.00322837528074 156.16285371687263,93.0 156.03144459764007,96.88624470833747 162.33908232336398,101.9342433638667 165.46661936223973,107.42279538510775 161.39293666445883,109.54606332849653 158.9224452219205,105.94050059728033 154.8750443479512,108.304154632875 150.0391887582373,106.42124605939898 147.93664284964325,106.26099770070869 145.25589681632118,107.02217625817866 141.94438701029867,109.38581747961871" stroke="#4dd2ff" stroke-linecap="round" stroke-linejoin="round" stroke-width="0.5"><title>2022-04-09 5.2km</title></polyline><polyline fill="none" points="17.630703156115487,166.6717592380155 20.576454180758446,166.43120851536514 20.655358226096723,166.03029000022798 26.099737352109514,164.46670009939407 27.59891421289649,165.86992236887454 30.01863826898625,166.19065750288428 31.833431310893502,167.15285981386842 34.09534727636492,167.15285981386842 34.75288098718738,168.11505748795753 38.776987297751475,165.54918671952328 39.96054797724355,166.63166747111245 41.301916747528594,169.1574330690055 40.82849247561535,174.08859763114015 42.1172585489694,177.536331407915 45.37862575490726,182.14658006071113 49.03451318730367,185.4338227881235 57.74025951925432,196.85857480330742 61.15943481581053,207.0 62.369296843826305,206.79958156580688 62.13258470786968,204.4747130282194 59.47614851599792,198.26156946033007 57.58245142863598,191.08615021970763 58.00327300361823,190.3645854137285 60.29149031743873,189.2822333160293 58.89751885039732,181.7857818314078 55.95176782569615,171.56289441068657 54.215878828952555,168.15514895705564 51.13862106209854,164.46670009939407 43.695339455094654,157.29006629937794 40.696985733520705,155.00471535159159 36.27835919643985,153.0 35.93644166679587,155.68631398568687 36.4098659385927,157.16978532272333 42.038354503631126,161.74041149757977 45.615337890863884,167.15285981386842 41.61753292864887,169.35788928772672 38.6980832524132,165.82983044092543 35.09479851683136,168.0348745255469 29.72932343609864,166.23074935848126 24.91617667261744,166.95240138148074" stroke="#4dd2ff" stroke-linecap="round" stroke-linejoin="round" stroke-width="0.5"><title>2022-04-07 5.0km</title></polyline><polyline fill="none" points="77.62100901373196,165.29950484380242 77.38447240903042,165.78025185049046 78.0415185331367,166.1808734710794 81.11649439379107,166.1808734710794 86.45170892140595,164.61844460146676 88.05490146414377,165.86037623891025 90.86705887521384,166.3010598003748 91.89205082884291,166.9821142990986 94.30998056539102,167.10230014576518 94.80933561973507,168.0637843128934 98.96186712395865,165.57994073843292 100.22339568217285,166.62155632466602 101.64261531014927,169.46594041780918 101.19582394580357,174.59374168945942 103.48234445758862,179.20063825884426 105.76886496943189,182.20507871627342 108.89640452008462,184.68871533800848 118.17389579216251,196.82604316702054 121.40656272269553,207.0 122.61552759102779,206.87983818251814 122.53668205608847,204.83707621620852 118.43671424180502,195.42407931647904 117.6482588928775,190.7775001307018 120.27644338924438,189.61583842714026 120.46041630394757,188.49422760662856 117.49056782305706,176.1560924458754 115.54571129579563,170.46747445993242 113.36431816389086,167.3827335065289 111.89253484591609,168.22403122366813 112.73355388472555,166.82186639089196 108.58102238050196,161.53361321442935 101.06441472104052,155.24361442816735 96.43881000741385,153.0 96.17599155777134,155.72438566603523 96.67534661211539,157.20675635595398 102.2470977443154,161.4935501554719 106.11052895395551,166.66161835398816 103.64003552740905,168.62464793735126 101.69517900014762,169.3858174772613 99.38237664336339,165.9805627612368 98.40994837973267,166.14081134516164 97.62149303080514,165.25944254103524 96.35996447264915,161.01279281958705 98.80417605413822,158.7291796541249 102.29966143431375,161.6538023432513 106.08424710901454,166.82186639089196 102.16825220943429,169.26563300621638 101.72146084503038,169.34575599484378 99.04071265883977,165.74018964411516 95.12471775925951,168.0637843128934 94.20485318556894,167.30260972928954 91.8132052939036,167.06223820483137 86.16260862682248,164.93894382863073 83.29788752575405,166.3411218941328 79.51330185105326,166.58149428736942" stroke="#4dd2ff" stroke-linecap="round" stroke-linejoin="round" stroke-width="0.5"><title>2022-04-03 6.2km</title></polyline><polyline fill="none" points="183.1967213114258,188.74685424634663 184.34426229516976,183.99868351928308 183.9836065574782,182.04940825715312 187.0,180.54995535917988 187.0,179.10047563762055 177.95081967220176,173.30247233289992 172.8032786885742,171.9029340568668 161.75409836065955,172.0528849629918 151.786885245936,173.60237236812827 147.42622950824443,173.25248895860568 139.62295081967022,179.55031507519016 133.29508196713869,182.69916837415076 133.0,184.04866473545553 138.5081967213191,181.69953672232805 147.5901639343938,173.70233896627906 149.42622950824443,173.10253877528885 157.32786885253154,173.2025055741542 162.04918032791466,172.1528521833534 173.36065573780797,173.15252217964735 179.0,175.55171378847444 180.213114754064,174.70200273871887 179.13114754098933,173.60237236812827 170.213114754064,171.75298306072364 154.77049180329777,172.85262160246202 151.75409836065955,173.7523222501768 147.75409836065955,173.25248895860568 137.85245901637245,180.99979217720102 133.0,182.94907565986796 133.45901639352087,184.04866473545553 139.393442622968,181.09975580398168 147.393442622968,173.95225528581068 149.81967213121243,173.05255536086042 151.2950819672551,173.30247233289992 156.63934426230844,172.00290133761882 171.42622950824443,171.25314575363882 180.24590163945686,173.8522887879517" stroke="#4dd2ff" stroke-linecap="round" stroke-linejoin="round" stroke-width="0.5"><title>2022-03-24 5.1km</title></polyline><polyline fill="none" points="45.04954956314759,265.7267806188611 43.558540833881125,265.3933166244533 41.431368380144704,267.0 40.477122793439776,266.5149653122353 40.0,265.30237177082745 39.383716391865164,259.8152641695342 38.668032201821916,258.11755509642535 37.81318719708361,257.5112257976725 32.863038215844426,257.38995964558853 30.338263434241526,254.9646161334822 54.77092647808604,222.3096327199455 43.06153792410623,213.0 25.22907352197217,249.38617808661365 36.22277788585052,260.60347974547767 36.89870184310712,260.0577924777026" stroke="#4dd2ff" stroke-linecap="round" stroke-linejoin="round" stroke-width="0.5"><title>2021-10-26 5.0km</title></polyline></svg>