<?xml version="1.0" encoding="utf-8" ?>
<svg baseProfile="full" height="300mm" version="1.1" viewBox="0,0,200,300" width="200mm" xmlns="http://www.w3.org/2000/svg" xmlns:ev="http://www.w3.org/2001/xml-events" xmlns:xlink="http://www.w3.org/1999/xlink"><defs /><rect fill="#222222" height="300" width="200" x="0" y="0" /><text fill="#FFFFFF" style="font-size:12px; font-family:Arial; font-weight:bold;" x="10" y="20">Over 5km Runs</text><text fill="#FFFFFF" style="font-size:4px; font-family:Arial" x="10" y="280">ATHLETE</text><text fill="#FFFFFF" style="font-size:9px; font-family:Arial" x="10" y="290">Wenz</text><text fill="#FFFFFF" style="font-size:4px; font-family:Arial" x="120" y="280">STATISTICS</text><text fill="#FFFFFF" style="font-size:3px; font-family:Arial" x="120" y="285">Number: 26</text><text fill="#FFFFFF" style="font-size:3px; font-family:Arial" x="120" y="290">Weekly: 2.4</text><text fill="#FFFFFF" style="font-size:3px; font-family:Arial" x="141" y="285">Total: 192.2 km</text><text fill="#FFFFFF" style="font-size:3px; font-family:Arial" x="141" y="290">Avg: 7.4 km</text><text fill="#FFFFFF" style="font-size:3px; font-family:Arial" x="167" y="285">Min: 5.0 km</text><text fill="#FFFFFF" style="font-size:3px; font-family:Arial" x="167" y="290">Max: 15.0 km</text><polyline fill="none" points="22.854988575796597,42.387136977908085 24.594668697653105,42.33071490022121 26.445392231544247,41.747684773712535 27.06230007612612,41.916951958490245 27.04996191925602,41.4655721192903 29.73968012185651,42.66924685666163 30.862452399072936,42.72566873042524 31.010510281805182,43.06419925944647 31.911195734981447,42.74447601415886 32.95993907083175,41.916951958490245 33.66321401370806,42.499981031389325 34.230769230780425,43.722449563181726 33.98400609291275,46.2049519451175 34.56389946688432,47.42737212385691 36.019801980175544,49.64649414255109 37.808834729599766,51.16975933602953 42.0038080731174,56.64202624592144 43.50906321400544,61.437048897045315 44.19999999998254,61.361834750234266 41.85575019038515,54.34785017029935 41.85575019038515,53.68967453084042 43.138918507203925,52.9750786004588 41.75704493524972,46.8067607960038 40.3011424219585,43.34630709891644 36.92048743335181,39.22744828370196 33.94699162224424,36.97046252623841 31.35597867477918,35.635053676654934 28.64158415843849,34.93912884218298 24.54531607008539,34.562951102954685 21.115308453940088,34.90151113625325 20.017212490492966,35.29649629495543 18.203503427270334,35.24006994571391 12.984463061700808,35.84194925190968 12.45392231529695,36.0112271098842 12.392231530859135,36.70714397844131 11.837014470685972,36.76356944384315 11.799999999988358,38.19300322936033 15.402741812635213,38.456317599862814 17.882711348036537,39.11460028748843 18.462604721979005,39.52837560889748 17.96907844633097,41.16465101807262 20.276313785201637,40.58161363311956 23.175780654972186,41.07061297562177" stroke="#4dd2ff" stroke-linecap="round" stroke-linejoin="round" stroke-width="0.5"><title>2022-05-30 6.1km</title></polyline><polyline fill="none" points="64.49342442356283,45.0134988805039 64.62254483345896,44.8869707544909 65.53561058922787,44.95726418605409 67.35251921435702,44.33867956614995 69.4368915456871,45.168144057337486 70.24850555078592,45.182202692834835 70.56208368914668,45.47743338628061 71.89017933388823,44.633913816498534 72.21298035865766,44.872912059683586 72.79402220324846,45.885130868835404 72.55422715627356,47.55807154344075 72.81246797606582,48.31720790866166 74.18667805296718,50.43993443042564 75.3395388556819,51.39584323969757 78.58599487616448,55.57076257623703 79.77574722457211,59.23942560811702 80.14466268144315,59.211313978517865 80.19999999998254,58.77558227589179 79.09325362936943,56.02057068084105 78.49376601196127,53.659045895903546 78.59521776257316,53.377906687852374 79.43450042695622,53.05459520313525 79.48061485908693,52.801567782473285 78.00495303157368,46.95356818083019 77.2671221178316,45.57584334080093 75.48710503842449,43.41079238890961 72.59111870196648,40.93636646166851 72.13919726727181,40.8660689930075 70.32228864220087,39.82565820439413 67.85977796753286,39.27732737814222 65.35115286079235,39.15078888527569 63.248334756615805,39.417925435300276 62.91631084540859,38.813351786164276 60.58292058069492,37.351105562724115 58.1757472245954,36.76057439188298 54.32058070023777,37.04178033254357 53.278394534572726,37.32298514369904 52.30999146029353,37.19644311849697 51.72894961570273,37.33704535463039 49.40478223739774,39.2070282436398 48.445602049527224,39.76941934293791 47.83689154568128,39.89595671772622 47.79999999998836,40.28962708774634 49.96737830911297,39.17890857009115 52.20853970965254,37.18238287932763 55.04918872760027,37.29486471344717 56.01759180187946,37.055840599903604 56.98599487615866,37.22456358827185 58.39709649872384,37.12614189449596 59.531511528621195,37.308924929981 60.739709649875294,37.9275716629636 61.449871904362226,37.51982783947096 62.344491887284676,38.43373310564857 62.98087105038576,38.757112111521565 62.934756618284155,39.37574604780457 62.667292912025005,39.51634390734398 62.658070025616325,39.783479062545666 63.12843723312835,40.13497113493213 64.25362937658792,40.48646144266604 68.15491033304716,40.14903078111092 68.67139197266079,40.3739847361976 69.8242527754046,41.51280304206011 72.56345004268223,40.795771453784255 75.21964133219444,43.04525770028704 77.24867634501425,45.49149195969949 78.1894107600383,47.37531526329258 75.70845431255293,48.064163368089794 75.34876174209057,47.67053670947644 74.998292058066,46.39123478584588 74.223569598631,45.350906098658015 72.88625106748077,45.983540250315855 72.000853970967,44.78855983173344 70.51596925704507,45.53366766295221 70.18394534583786,45.280613062292105 69.44611443209578,45.23843720661171 68.80051238255692,44.94320550540215 67.86900085394154,44.8869707544909 67.18650725873886,45.06973352978821 66.55012809563777,45.58990189445103" stroke="#4dd2ff" stroke-linecap="round" stroke-linejoin="round" stroke-width="0.5"><title>2022-05-28 10.0km</title></polyline><polyline fill="none" points="100.65389425811009,44.8563056149942 101.97089255257742,44.80015074330004 103.37077885161852,44.15436647716706 104.17202956226538,44.72995709027964 104.86276293348055,44.81418946546182 105.47981807845645,45.16515660303048 106.18897100625327,45.13707929688826 106.53894258098444,45.50208339766323 107.56122797040734,44.77207329054363 108.01250710629392,44.65976336674794 108.77691870380659,45.8390085686442 108.63877202954609,47.64995354599523 109.10847072198521,48.815110400038975 109.92814098918461,50.14869983668177 111.5030130756204,51.59456280350423 114.61591813529958,55.63720544141688 115.78555997725925,59.25854100862125 116.19999999998254,59.09011095470487 116.1447413302958,58.3883146965818 114.99351904491778,55.5529861036739 114.505400795897,53.46150667861002 115.50005685046199,52.956173407095775 114.164638999413,47.25688420317965 113.23445139284013,45.40381325029011 110.74781125641312,42.694310495920945 108.59272313813563,40.93939516948012 107.39545196134713,40.46205058018677 106.55736213756609,39.87238511721807 103.99704377487069,39.26867484777176 101.45514496869873,39.10019663283674 99.18953951107687,39.35291380299532 99.0421830585401,38.791318850995594 96.61080159182893,37.27498994637426 94.31756679929094,36.74145899138239 87.80625355313532,37.27498994637426 85.50380898235017,39.128276363553596 83.79999999998836,39.942583647374704 83.8184195565409,40.22337706332837 84.18681068785372,40.22337706332837 85.15383740758989,39.717948102636 87.89835133595625,37.35923130390802 88.30358158040326,37.21882898495096 91.00204661738826,37.246909471305116 91.82171688455855,36.98014439562394 92.66901648661587,37.17670823430308 94.47413303010399,37.106506926767906 95.57009664582438,37.31711063781404 96.78578737916541,37.93487786351761 97.48573052868596,37.485593149824126 98.26856168275117,38.398199700401165 99.01455372368218,38.80535877976217 99.12507106308476,39.19847564090742 98.69221148377983,39.66178910365488 98.91324616258498,39.99874242079386 99.43820352471084,40.23741670457457 100.98544627625961,40.518208936333394 104.16281978396,40.11105983229936 104.56805002840701,40.279535611185565 105.87583854462719,41.52905163311152 107.39545196134713,41.00959262834658 108.56509380330681,40.86919764017148 110.99647527004709,42.77854532366109 113.0042069357587,45.151117951376364 113.75940875496599,46.38650850860358 114.11859010803164,47.43938095858903 111.65957930640434,48.05705875010972 111.37407617963618,47.706106128873216 111.05173393973382,46.456700498525606 110.16759522457141,45.305542964797496 108.90585559976171,45.95131659817707 107.96645821488346,44.70187960932526 106.51131324615562,45.53016055725675 106.179761227977,45.23534981916964 105.47060830018017,45.20727254117446 104.82592382034636,44.84226690127616 103.14974417281337,45.052847310707875" stroke="#4dd2ff" stroke-linecap="round" stroke-linejoin="round" stroke-width="0.5"><title>2022-05-26 10.0km</title></polyline><polyline fill="none" points="126.23749711341225,41.10684712739021 128.28254741220735,41.01583031871996 130.9993295611348,40.12841260276036 134.23856981558492,41.6301923588544 135.358122898906,41.56193007440015 135.8656536299968,42.29005898827745 138.40330728556728,40.72002518555382 139.70198886218714,42.76789104552881 139.29894975223579,45.111514341238944 140.17966484441422,47.43233624939603 141.2096536810859,49.1842977766064 144.0757095743902,51.89182141049969 149.09130738768727,58.35321306881815 150.94230181880994,64.04075298983662 151.76330741326092,64.19999999999709 151.61403366882587,63.13076578221808 149.38985487655737,57.73894167978142 149.0315978899016,54.940552108964766 150.38998896436533,54.41726834188739 150.53926270880038,54.03049183070834 148.03146380215185,44.20137512845395 146.9417654676945,42.17628915388923 143.65774308994878,38.37631106586923 139.3288045010995,34.781004901844426 136.9404245899641,33.43842461407621 133.16379885555943,32.209608374476375 128.10341891890857,31.799999999995634 123.68491608340992,32.23236435184663 122.62507249781629,32.55094755551545 122.86391048895894,33.41566887887166 122.2817428856506,35.91877235449647 121.22189930005698,37.14754837228975 120.23669258673908,39.65056941572402 122.75941886781948,38.967932795974775" stroke="#4dd2ff" stroke-linecap="round" stroke-linejoin="round" stroke-width="0.5"><title>2022-05-24 5.1km</title></polyline><polyline fill="none" points="188.14362766419072,54.27324166472681 187.83357981726294,53.929521998339624 188.11544149625115,52.83390819191118 186.0014789038687,52.404252656080644 184.4935189212556,52.49018390128913 182.5486733361613,53.091700685195974 182.21043932141038,52.85539092338877 182.81644193123793,51.244174090446904 184.32440191385103,48.77359448378411 184.81765985203674,47.183800046484976 184.6344497607788,46.302957822386816 185.95919965201756,45.744371190754464 185.95919965201756,45.33617142315052 185.7196172248805,44.75609538988647 183.80295780772576,43.467026277015975 180.6038277511252,42.07051720947493 178.29256198339863,41.72675833527319 172.37346672464628,42.22091136959352 170.6400173988077,42.607638238980144 169.42801217921078,42.34982048138045 168.5401478903368,42.650607804898755 164.76320139190648,45.72288703125378 162.40965637227055,46.7970897192281 157.2656807306921,46.62521801397088 155.99730317521608,46.259989723541366 155.79999999998836,46.66818596622761 156.36372335796477,46.96896114838455 159.18234014784684,47.26973548493697 163.29752066114452,47.076380651320505 165.62287951278267,45.72288703125378 168.72335798171116,42.92990956232825 169.56894301867578,42.54318385784427 177.75702479336178,42.41427497906989 180.67429317091592,42.693577353522414 182.2668116571731,43.789295011461945 181.4775989560294,45.3146871817371 181.12527185725048,48.40837352764356 183.9861678990419,49.28919841693278 182.32318399305223,52.85539092338877 185.08542844711337,52.210907102009514 186.53701609390555,52.36128700765403 188.19999999995343,52.81242545612622 188.11544149625115,53.693214087121305" stroke="#4dd2ff" stroke-linecap="round" stroke-linejoin="round" stroke-width="0.5"><title>2022-05-22 5.0km</title></polyline><polyline fill="none" points="18.312979794922285,81.43523465616454 18.401919536700007,81.90974169681431 19.55813617934473,81.95493273920874 21.159051530761644,81.72897734579601 23.145372429746203,80.93812989604339 23.797597202530596,81.5030214987346 25.354042683029547,81.75157290558127 26.480612745159306,82.40684216484806 27.651652678090613,82.3164604249032 28.007411645085085,82.85874977570347 30.260551769286394,81.43523465616454 31.00171628384851,82.02271926872345 31.72805750806583,83.44622695675207 31.342651960556395,86.22540435552946 32.306165829417296,88.39447073429619 33.92190447106259,90.6990579539779 35.92304866039194,92.39357727186871 41.17049342324026,99.17139941075584 43.067874580505304,105.0 43.76456922420766,104.86445457737864 43.66080619208515,104.20931606642989 41.27425645530457,98.42585895625234 40.90367419808172,96.00846654353518 41.051907100947574,95.60179729696392 42.34153335628798,95.0821622323565 42.430473098007496,94.44955978481448 40.1625096835196,85.36680403065111 39.095232782594394,83.19767929291993 34.989181372046005,78.36218823927629 31.357475250784773,75.53762303045369 27.355186872300692,73.59428099606157 22.656203850114252,72.69038954446296 19.51366630848497,72.60000000000582 15.88196018722374,73.00675237843097 14.799859996070154,73.43610051618452 14.91844631836284,74.31738892957947 14.340337997011375,76.82563355957973 13.569526901876088,77.57131712746195 12.23543077573413,80.57659778213565 14.799859996070154,79.763146278965 16.97888366872212,79.96650970608607 18.446389407559764,80.55400198649295 18.120277021138463,81.4126390328529" stroke="#4dd2ff" stroke-linecap="round" stroke-linejoin="round" stroke-width="0.5"><title>2022-05-16 5.4km</title></polyline><polyline fill="none" points="66.69326010983787,86.00843075296507 67.42925611583632,86.07007354462985 69.03065401897766,85.55227217108404 69.41078382424894,85.88514498394215 70.26000998503878,86.04541643538687 70.68866699951468,86.30431558859345 71.4084872691019,86.27965857341769 71.65921118322876,86.61252744280137 72.96135796303861,85.8604878004553 73.69735396906617,86.9700512554191 73.53559660512838,88.57271862574271 74.18262606090866,89.94111688833436 75.0318522216985,91.09991679484665 75.99430853719241,91.90120181317252 78.80079880182166,95.47603835343398 79.8360459311225,98.63158319105423 80.19999999998254,98.60693112545414 80.1838242636295,98.24947506227181 79.02725911134621,95.18019771111722 78.71183225166169,93.86122417127262 78.76844732902828,93.60235687963723 79.52870693959994,93.232544569928 79.55297054420225,92.99832895514555 78.37214178731665,88.17821976967753 77.64423364953836,86.74814016852179 75.7274088866543,84.479669719909 73.13929106341675,82.40838437054845 71.65921118322876,81.6686226680431 70.20339490767219,81.286408962711 67.58292561158305,81.03981821263005 65.22935596606112,81.24942041335089 65.05951073390315,80.7808968591089 63.94338492263341,79.96713692480989 62.84343484771671,79.3506449452143 61.25821268098662,78.96841680894431 57.53779331003898,79.20268594896697 56.64003994007362,79.43695419503274 55.4106839740416,79.36297484549141 52.960059910139535,81.24942041335089 51.625561657507205,81.8412345292054 48.39850224662223,81.7302698170206 47.96175736395526,81.50833979097297 47.8970544183685,81.61930490427403 47.79999999998836,81.85356392931135 48.269096355477814,81.97685779396852 51.50424363455386,82.13713944790652 52.895356964552775,81.59464600753199 55.75037443835754,79.37530474326559 57.3436844732787,79.48627371187467 58.5245132301643,79.30132531940762 61.07219171244651,79.32598513726407 62.04273589616059,79.4492840779676 63.15886170745944,79.96713692480989 63.51472790815751,79.63423202469494 61.83245132301818,79.07938651300356 60.829555666510714,78.96841680894431 57.4245631552767,79.17802608155398 56.23564653020003,79.48627371187467 57.974538192735054,79.43695419503274 58.985521717433585,79.20268594896697 61.08027958063758,79.28899540678322 62.18831752371625,79.52326332349912 63.25591612581047,79.9794667012793 63.741188217682065,79.62190217891839 64.54188716926728,80.44799637150209 65.0999500748876,80.71924875685727 65.13230154771009,81.20010231284323 64.45292061910732,81.4713513753195 64.52571143285604,81.8412345292054 66.11093359961524,82.59332340347464 67.58292561158305,82.48236005054059 67.63954068897874,84.18377609096933 67.2755866200896,84.4056964463598 67.25941088367836,84.78789073369262" stroke="#4dd2ff" stroke-linecap="round" stroke-linejoin="round" stroke-width="0.5"><title>2022-05-14 9.9km</title></polyline><polyline fill="none" points="97.74541751525248,85.02076786318503 98.79022403259296,85.08782581281412 100.97881873726146,84.3166561403923 101.99063136451878,84.93694535043323 102.6175152749056,84.98723886821244 103.35437881870894,85.42311475305178 104.03625254580402,85.35605707271316 104.6961303462158,85.79193103213038 106.32382892054738,84.70224186698033 107.3576374745171,86.29485969619418 107.12668024440063,88.32330789105617 107.7205702647625,89.73145782302163 108.45743380853673,91.00547777429165 110.3820773930347,92.79913080798724 114.29735234210966,97.82785910007078 115.8260692464246,102.2026063742669 116.15600814661593,102.0852789786295 116.19999999998254,101.44835595435143 114.92423625249648,98.347477092997 114.23136456205975,95.43086972211313 114.33034623213462,95.16267082610284 115.39714867612929,94.62627044977125 114.16537678206805,89.26207715112832 112.79063136450714,85.95957425674715 109.85417515275185,82.48929087074794 107.18167006107979,80.36010840885865 104.34419551931205,78.98533182830579 101.51771894094418,78.39853005273471 99.19714867617586,78.21410578567156 95.90875763742952,78.51589073777723 95.63380855394644,77.91231974266702 94.14908350305632,76.82252772704669 92.57637474540388,75.93391755459743 91.34460285131354,75.54829132922168 89.82688391034026,75.39739362573891 84.6248472504667,75.79978689562267 83.79999999998836,76.10158057521039 90.14582484721905,75.81655323976884 92.21344195515849,76.31954199865868 92.88431771891192,76.87282613325078 92.22443991850014,78.21410578567156 91.9604887983296,80.56129332669661 94.07209775966476,81.39955859919428 92.91731160893687,84.03165685008571 94.68798370668082,83.49518495855591 96.84358452138258,83.71312708022015 97.4704684317694,83.94783334428939 97.36048879835289,84.93694535043323" stroke="#4dd2ff" stroke-linecap="round" stroke-linejoin="round" stroke-width="0.5"><title>2022-05-12 7.0km</title></polyline><polyline fill="none" points="131.53572519079898,83.22137186649343 132.92076335876482,83.22137186649343 135.20854961831355,82.42964945468702 135.7526717557048,82.91976411596988 137.66946564882528,83.57952981168637 138.8195419847034,83.61723056855408 139.35129770991625,84.12618930423923 141.3051908396592,82.93861462874338 142.2821374045161,84.52204419103509 142.1337404579972,87.29298166358785 142.9622900763061,88.97058433251368 144.1989312976948,90.72355284669902 145.78183206103859,92.06181860523066 148.19328244272037,95.00216651134542 148.44061068698647,95.71839115665352 149.62778625951614,96.94349959472311 150.39450381675852,98.28167669857066 151.50748091598507,102.08878047999315 152.19999999998254,101.90031362757145 150.1471755724633,95.69954320968827 150.03587786253775,94.79483730487118 151.3096183205489,94.00321248680848 149.96167938929284,88.08466306292394 149.05893129768083,85.65304895605368 148.36641221368336,84.33354207216325 145.58396946560242,80.97814102456323 143.34564885491272,78.96107256672985 140.82290076330537,77.28329101905547 139.1534351144801,76.49151852587966 137.34793893125607,76.02022220465733 133.1804580152384,75.5112195200054 129.1984732824203,75.88825881065713 128.14732824423118,76.28414843607607 126.45312977099093,76.18988915284717 120.51725190834259,76.92510905171366 120.41832061065361,77.6980263264486 120.05969465646194,77.66032319243095 119.8494656488183,77.94309632870863 119.79999999998836,79.01762647849682 120.04732824425446,79.31924676591007 121.9146564885159,79.24384178496257 125.14229007632821,79.77167538003414 126.51496183202835,80.39376116423955 126.13160305342171,82.14688983235828 128.24625954197836,81.41171082837536 129.73022900763317,81.54366645815753 131.23893129767384,81.9960843521767 130.99160305340774,82.93861462874338" stroke="#4dd2ff" stroke-linecap="round" stroke-linejoin="round" stroke-width="0.5"><title>2022-05-10 6.0km</title></polyline><polyline fill="none" points="174.57405836865655,86.11523869022858 175.38223996007582,86.10291936989961 176.96627587924013,85.53622796182754 178.70386630078428,86.31234747869166 179.42314791717217,86.31234747869166 179.64135694684228,86.59569025269593 180.83746570214862,85.84421307208686 181.0395111000107,85.94276798085411 181.6537291094719,86.87903171817379 181.4516837116389,88.39427038912254 181.92851085055736,89.56455106758585 182.67203791465727,90.69785423912253 183.98937390869833,91.91736361753647 186.21187328509404,94.77510882608476 186.8988276377786,95.84672896616394 187.70700922922697,98.59343995520976 188.19999999998254,98.56880632232424 187.92521825889708,97.36174619679514 187.27059116985765,95.88368105098562 186.72910950359073,93.98677861411488 186.71294587175362,93.58029189095396 187.54537291094312,93.11221293449489 186.2846096282883,87.97542766958941 185.67039161885623,86.71888235498045 184.13484659514506,84.79705738920893 182.40533798950491,83.22013040259844 181.42743826386868,82.5671722059742 179.68176602639141,81.6678033117314 178.06540284358198,81.27355525638632 175.6893489648064,81.05178961186539 173.2648041905486,81.23659437130846 172.96577700172202,80.74378044236437 170.98573210273753,79.43780438474641 168.8440508854692,78.94497600581963 165.09408830129541,79.21603210419562 164.50411573954625,79.41316305986038 163.32417061610613,79.37620105392853 161.26330755799427,80.99018790168338 159.58228984780726,81.81564567934402 156.45462708902778,81.72940434154225 155.9616363182722,81.50764034479653 155.79999999998836,81.80332549562809 158.43467198798317,82.1236494675286 159.9298079321161,82.01276828194386 161.53000748311752,81.16267253431943 163.53429782984313,79.41316305986038 166.10431529054767,79.42548372353849 166.7589423796162,79.17906997946193 167.57520578696858,79.35155970422784 169.78154153152718,79.41316305986038 171.23626839608187,79.99223157882079 171.6888500872592,79.61029338206936 172.46470441503334,80.3864878684144 173.0546769767825,80.63289676278873 173.0465951608785,81.21195376887408 172.7233225243108,81.42139857402799 173.49917685205583,82.0250884235611 175.23676727359998,82.20989025111703 177.42693938635057,81.91420705978817 178.23512097776984,82.27149073663168 179.38273883756483,83.2694099844266 179.95654776750598,83.04765155433779 181.92042903465335,84.63690259131909 183.1407832376717,86.59569025269593 182.97106510348385,86.41090163543777 181.67797455721302,87.076138052842 181.41127463203156,88.25876276333292 181.5405836866703,88.73919754068265 182.67203791465727,90.69785423912253 183.84390122222248,91.7449092172792 186.56747318530688,95.1692701339598 187.86864554751082,98.65502399417892 188.10301820898894,98.55648950218165 188.12726365673007,98.17466685130057 186.87458219003747,95.12000010896008 186.60788226488512,93.8020122556045 186.6806186081085,93.59260970999458 187.51304564726888,93.14916666613499 186.4704913943424,88.73919754068265 185.83202793714008,87.0884571777533 183.4559740583354,84.23035391909798 181.73454726859927,82.85053227693425 179.57670241955202,81.6678033117314 176.53793963577482,81.08875060826904 173.20823147913325,81.19963346396617 173.02234971313737,80.73146004343653 171.6807682713552,79.70885830566476 170.1048141680949,79.14210783249655 169.02185083559016,78.9696175188219 165.6113245197921,79.19139069016455 164.2374158143648,79.46244569979899 167.11454227985814,79.27763559587402 167.0741332002799,80.95322684588245 166.83976053874358,82.24685054981092 167.31658767769113,82.40701158695447 166.9771514092863,82.50557201737683 167.03372412070166,83.41724849253296 170.17755051134736,83.76220362596723 171.20394113243674,84.14411597562139" stroke="#4dd2ff" stroke-linecap="round" stroke-linejoin="round" stroke-width="0.5"><title>2022-05-08 15.0km</title></polyline><polyline fill="none" points="23.463013698608847,123.88804486259323 24.36301369863213,123.92563098137907 27.063013698614668,123.06114643080218 29.701369863003492,124.20752639098646 30.650684931490105,124.16994038546545 31.20547945200815,124.69614308978635 32.62328767121653,123.75649332799367 33.27671232877765,123.68132093955501 34.263013698597206,125.29751398656663 33.95479452054133,127.30831986220437 34.59589041097206,129.03720252415224 36.23561643832363,131.44255136556603 37.7397260274156,132.62641129982512 42.005479452054715,138.2824243258874 43.657534246565774,143.01742822201777 44.19999999998254,142.88590357015346 44.15068493151921,142.24706691812753 42.769863013672875,138.864917884006 41.91917808220023,135.3699021616776 43.20136986300349,134.6558506371657 41.80821917805588,128.37947918815917 41.08082191777066,126.25594086690398 40.1684931506461,124.69614308978635 37.6657534246624,121.7268176463258 34.632876712305006,119.058103005882 30.78630136983702,116.97194208928704 24.75753424654249,116.1825717779866 12.552054794505239,117.51697960906313 12.453424657520372,118.23116189933353 11.824657534220023,118.49428031673597 11.799999999988358,119.22724915022263" stroke="#4dd2ff" stroke-linecap="round" stroke-linejoin="round" stroke-width="0.5"><title>2022-05-05 5.1km</title></polyline><polyline fill="none" points="61.6218181817967,125.97601742220286 63.07272727272357,126.07579144283955 64.94909090909641,125.39399990587117 67.39272727273055,126.34185491032986 68.28727272726246,126.34185491032986 68.58181818184676,126.70769078235026 70.28363636363065,125.70995277939801 70.42545454544597,125.80972712062794 71.26545454547158,127.25644156031922 71.03636363637634,128.86941522017878 71.57090909089311,130.6153822287597 72.57454545455403,132.1617794130434 74.45090909089777,133.94093185140082 76.32727272727061,136.20222932449542 78.35636363638332,139.27815986649512 79.46909090908593,142.86937206656876 80.19999999998254,142.86937206656876 78.41090909088962,136.800797733129 78.36727272727876,135.96945155285357 79.19636363637983,135.73667312703765 79.32727272727061,135.47063983930275 78.01818181818817,129.63431958299043 76.6218181817967,126.80746392154106 74.37454545454239,124.03039999290922 71.0800000000163,121.28650285358162 68.28727272726246,119.87294460286648 64.42545454544597,119.17447161917516 60.018181818159064,119.3906662674708 59.647272727277596,118.72545016152435 57.312727272714255,117.0623865177622 55.523636363621335,116.46367542972439 53.66909090909758,116.33062793343561 49.04363636363996,116.69650803390687 47.82181818183744,117.0623865177622 47.79999999998836,117.22869438507769 51.71636363634025,116.94597081185202 51.36727272727876,120.77097263973701 51.92363636364462,120.95390308296192 51.60727272726945,120.97053310319461 51.552727272734046,122.36744288267073 55.81818181814742,122.83307423955557 57.27999999996973,123.33196207389119 57.4327272727387,123.5814048639877 56.94181818180368,124.67894421480742 57.018181818159064,124.94501216993376 58.95999999999185,124.4128754047997 60.312727272714255,124.49602199976653 61.95999999999185,125.04478743274376 62.96363636365277,125.02815823060519 63.912727272720076,124.69557348702074" stroke="#4dd2ff" stroke-linecap="round" stroke-linejoin="round" stroke-width="0.5"><title>2022-05-04 7.1km</title></polyline><polyline fill="none" points="95.15047546592541,123.78688345028058 97.11000380371115,123.74931157538958 99.09418029666995,123.05422916921816 101.57131989349728,124.10624377723434 102.87767211862956,124.25653061268531 103.03788512738538,124.72617541764339 105.09600608595065,123.50509402117314 106.21749714718317,125.19581786502386 105.92171928487369,127.4312835972305 106.56257131989696,129.02801213358907 108.09075694181956,131.2633863059673 109.68056295168935,132.65342398643406 113.58729554965976,137.6310922423727 114.17885127424961,138.62659411765344 115.46055534423795,142.92779180069192 116.19999999998254,142.90900970782968 116.01513883608277,141.76329491566867 114.46230505895801,138.2885003288029 113.93236972231534,136.05329398918548 113.8953974895121,135.33951937225356 115.01688855074462,134.8699278390268 115.17710155950044,134.5693880208346 113.1682769113977,126.6610871492303 112.08375808291021,124.51953199393029 110.87599847849924,122.96029871826613 106.30376569033251,118.88362628156028 103.06253328261664,117.13642656994489 99.291365538229,116.30978307708574 95.26139216430602,116.27220819931244 92.10642829973949,116.87340443272114 90.24549258273328,116.85461710891832 84.50247242295882,117.54974557734386 84.46550019018468,118.26365592535876 84.24366679342347,118.54546114210098 83.8862685431668,118.41395214656222 83.79999999998836,119.01513461682043 83.8862685431668,119.97326119399077 84.39155572457821,120.593220221097 86.41270445034024,121.83312595073221 89.70323316851864,122.75365139415953 90.39338151385891,124.35045976231049 90.41802966906107,125.98481186956633 93.36348421449657,126.79258455260424" stroke="#4dd2ff" stroke-linecap="round" stroke-linejoin="round" stroke-width="0.5"><title>2022-05-01 6.0km</title></polyline><polyline fill="none" points="127.17236662103096,122.72125756177411 127.08372093021171,122.47352825915732 129.07824897405226,122.67621591108036 130.43748290016083,122.18075655966823 130.52612859098008,122.81134080890479 130.51135430915747,122.18075655966823 131.69329685362754,121.73033706819842 132.60930232558167,122.38344474067708 133.96853625169024,122.54109085046366 134.9436388508766,123.10411086233944 136.27332421339815,123.03654861016548 136.58358413132373,123.64460741478251 138.66675786592532,122.33840295434493 139.06566347467015,122.42848650901578 140.27715458278544,124.29770394045772 140.0112175102695,127.33793081448675 140.76470588240772,128.9818710184627 141.85800273600034,130.78342165357753 144.32530779752415,133.08035674817802 149.28946648427518,139.3178745572004 151.56470588239608,145.7126590820917 152.19999999995343,145.55504553556239 152.1261285909568,144.65439244976005 149.4963064295589,137.38135380839958 149.64404924761038,136.3230085730247 151.01805745559977,135.534872655473 149.1564979480463,127.60816921512742 147.5461012312444,123.80225175193482 144.47305061557563,120.06376922161144 140.27715458278544,116.57290495700727 135.87441860465333,114.4332892816019 133.0377564979135,113.73509007011307 128.9896032831748,113.48734091791994 124.51299589598784,113.93779351473495 124.01067031460116,114.25310925600934 124.82325581397163,115.04139473081887 126.74391244869912,115.60445239205 131.91491108073387,114.99634999580303 133.24459644325543,115.2891404500333 135.6675786593696,117.38369602192688 137.13023255812004,116.88821328985068 138.01668946648715,117.96926370133588 140.882900136814,120.24393991237594 142.70013679895783,123.19419380198087 140.35102599178208,124.54542921402754 139.96689466480166,126.50469164680544 140.1885088919662,127.83336738510843 142.28645690833218,131.25632390059764 144.67989056091756,133.44065602468618 149.4963064295589,139.79074082430452 151.50560875510564,145.6901428747442 152.17045143642463,145.57756177007832 152.1113543091924,144.65439244976005 150.45663474692265,140.60136407316895 149.5110807113233,136.79588746547233 149.68837209302,136.3680447438819 151.00328317371896,135.534872655473 149.34856361150742,128.32880176728213 147.50177838577656,123.64460741478251 144.2218878248823,119.77099123172229 140.12941176473396,116.41525045815797 136.46538987691747,114.59094656652451 130.7477428180282,113.62247688693606 128.8270861833007,113.50986359069793 123.34582763339859,114.32067679950705 120.06593707250431,114.45581176444102 119.79999999998836,116.52786083707906 122.29685362521559,117.76656754292344" stroke="#4dd2ff" stroke-linecap="round" stroke-linejoin="round" stroke-width="0.5"><title>2022-04-30 10.1km</title></polyline><polyline fill="none" points="167.0813714285614,124.64359160821186 168.88342857145471,124.75647898984607 171.05577142856782,123.96626446209848 173.8329142856819,125.18921269299608 174.9314285714354,125.07632583269879 175.2523428571585,125.52787245803484 177.25188571427134,124.45544566982426 178.31337142857956,126.20518831601657 177.98011428571772,128.27473421424656 178.8317714285513,130.3442344052819 180.23885714283097,132.33843680209247 181.73234285711078,133.56127577142615 185.97828571428545,138.99801276771905 187.47177142853616,143.60676423257974 187.66925714284298,143.96416814151598 188.20000000001164,143.832493175767 188.02719999995315,142.36524532637122 185.97828571428545,136.79701883465896 186.05234285714687,136.21384083880548 187.11382857139688,135.79997038191505 187.2496000000101,135.51778493146412 185.74377142853336,128.97084392530815 184.37371428569895,125.94178828631993 180.85599999997066,121.84017800392758 177.9677714285499,119.5070718606512 175.20297142854542,118.11470664292574 171.00640000001295,117.21153976237838 168.1922285714245,117.13627546263888 165.25462857144885,117.4185162747599 164.0450285714469,117.81365198337153 162.71199999999953,117.73838816738134 156.935542857158,118.41576033512683 156.58994285712834,118.50983941555751 156.3801142857119,119.1872060061578 155.79999999998836,119.11194329350838 155.92342857143376,117.60667634386482 160.7124571428576,117.23035582783632 160.7741714286094,115.85677311747713 161.19382857144228,115.23583185847383 161.99611428572098,115.706242281085 161.29257142858114,117.06101110247982 161.00868571427418,119.75167442432576 163.62537142861402,120.59837067549233 161.99611428572098,124.07915265981865 162.4404571428604,125.50905805872753 162.36639999999898,126.86368515079812 164.57577142861555,127.44692134000798 166.3408000000054,128.61338282776705 167.79725714283995,126.7696144576912 166.43954285717336,126.05467410399433 166.69874285714468,124.90699528720143 167.03200000000652,124.7941080868477" stroke="#4dd2ff" stroke-linecap="round" stroke-linejoin="round" stroke-width="0.5"><title>2022-04-28 7.1km</title></polyline><polyline fill="none" points="30.42273180457414,167.6064599949823 30.535792622162262,167.72956121542302 30.721535393822705,167.58183972122788 31.714855433703633,167.6064599949823 32.96660019940464,167.15098333001515 33.65304087739787,167.6064599949823 34.16181455636979,167.63108025881593 34.694815553346416,167.92652265401557 35.453938185441075,167.92652265401557 35.728514456626726,168.2588936467946 36.980259222356835,167.47104836698418 37.62632103692158,168.66512241314194 37.44865403790027,169.99457955664548 37.884745762712555,171.1762950383163 38.474277168512344,172.14873131976856 39.87946161517175,173.46580396984064 42.64945164506207,176.99837314147953 43.626620139577426,180.01381994987605 43.860817547363695,180.28458750936989 44.20000000001164,180.16151149420693 44.1030907278473,179.5830509137195 43.182452642096905,177.50300926613636 42.6333000997256,175.57059965568988 42.673678963124985,175.07825626173144 43.481256231316365,174.73361353358268 42.27796610168298,169.71145684023577 41.58344965107972,168.38199355722827 39.782552342978306,166.20308861066587 38.345064805587754,164.9227919572004 36.85912263210048,163.9379301830013 35.55084745763452,163.27313954093916 33.4834496510739,162.76838627574034 31.351445663021877,162.6575862222562 29.187138584267814,162.829941774522 29.01754735794384,162.38674080388228 26.933998006017646,161.03249576235248 25.09272183451685,160.55234715471306 21.022532402799698,160.8478236660194 20.5622133599245,161.03249576235248 19.609272183472058,160.87244664434184 19.076271186437225,161.10636444513148 16.774675972090336,162.89149721146168 15.547158524452243,163.42087141775846 12.405682951182825,163.29776154513456 12.066500498505775,163.13771834113504 11.799999999988358,163.4947372226634 15.417946161527652,163.71633410333743 16.152841475588502,163.53167009172466 17.315752741793403,162.90380829142305 19.633499501505867,160.87244664434184 20.23110667997389,160.94631551995553 21.692821535398252,160.61390487864992 25.48035892326152,160.5154124906294 27.725423728843452,161.26641295245645 29.09022931207437,162.49754134695468 29.049850448674988,162.85456395668734 28.3714855434082,163.15002937167446 28.4603190428752,163.75326683889944 28.18574277171865,164.91048128268085 27.62043868395267,165.6121857853177 26.829012961155968,167.4218077008154 27.265104685968254,168.11117342802754 27.24895314060268,169.10827799756225 28.3068793619168,169.3421643756701 29.873579262231942,170.2038433328089 30.769990029919427,168.91132035549163 32.401296111696865,167.975762914808 33.46729810570832,167.59414985933108 32.36091724826838,166.68319296253685 31.553339980077,167.02788094781135 30.43888334996882,167.06481168842947 29.954336989030708,168.33275362271525 30.164307078783168,168.6158827060608 30.826520438684383,168.9359400953872 31.82791625126265,168.27120364896837 31.62602193420753,167.8403521024993 30.48733798606554,167.80342182905952" stroke="#4dd2ff" stroke-linecap="round" stroke-linejoin="round" stroke-width="0.5"><title>2022-04-27 10.1km</title></polyline><polyline fill="none" points="54.28588908544043,163.55843790309154 55.950740535219666,163.42248552314413 59.19125496427296,162.44815534003283 59.93449221859919,163.03728622369817 61.435831472452264,163.33185051215696 62.372310412931256,163.96629406030843 63.665543235547375,164.01161132012203 64.06689135287888,164.46478291725361 66.237144135579,163.08260385660105 66.98038138996344,163.5131204612917 67.78307762468467,165.12187850055489 67.56010644836351,168.06743237263436 68.33307319291634,169.92535758035228 70.3398137796903,172.6668742745387 71.91547675890615,173.9583094760601 76.98435483372305,180.52854042113904 78.91677169507602,186.59999999999854 79.76406216504984,186.41876712995872 79.71946792979725,185.73914127528406 77.80191581347026,180.84571430567303 77.1478670296492,178.26298675115686 77.05867855908582,177.31144064754335 78.57488255802309,176.47316719475202 76.7316541672335,168.36198353123473 75.00734373705927,164.69136803335277 71.75196456297999,160.77138137505244 69.07631044724258,158.39213231409667 67.47091797785833,157.19115897425945 63.01149445166811,155.01577849286696 57.03586692659883,154.1999999999971 51.848070891108364,154.60788998367207 50.80753873504,155.01577849286696 50.95618618594017,156.14879439338256 50.42105536273448,158.16553454913083 49.49944116733968,159.27585924994492 48.84539238346042,161.1565884093361 48.235937834950164,161.9723166117692 49.18728152051335,161.99497564430203" stroke="#4dd2ff" stroke-linecap="round" stroke-linejoin="round" stroke-width="0.5"><title>2022-04-25 5.0km</title></polyline><polyline fill="none" points="102.40690345168696,167.7140348255998 103.82511255628197,167.60285586482132 104.97588794396142,167.09637138990365 105.4702351175365,167.466970195459 106.22391195595264,167.59050263456447 106.66963481737184,167.84991994925804 107.38279139570659,167.83756676861594 107.71505752875237,168.15874865956357 109.00360180088319,167.3804973405131 109.66813406703295,168.45522276299744 109.49794897445827,169.91286632466654 109.91935967982863,171.06166276323347 110.77028514255653,172.35866522006108 111.96968484239187,173.42095162644546 114.72506253124448,176.9658909752725 115.851525762846,180.31301557648476 116.19999999998254,180.18950867890817 116.1756878439046,179.7078294096791 115.67323661828414,178.12690684928748 115.17078539266367,177.23762005842218 114.73316658326075,175.65663402695282 114.69264632315026,175.1625675609539 115.55977988993982,174.74260794544534 114.4738369184488,170.14756841589406 113.62291145569179,168.2946328009857 112.61800900447997,167.00989801405012 111.40240120058297,165.70042918062245 109.54657328661415,164.19327017301111 107.6988494246907,163.25436556816203 104.93536768382182,162.64901158034263 103.13626813405426,162.58724043033726 101.27233616806916,162.84667884358714 101.03731865930604,162.2783837498755 98.92216108052526,160.96881419848432 96.92856428213418,160.48698442351088 93.52486243119347,160.6970132509523 92.59289644821547,160.96881419848432 91.34487243619515,160.90704136132263 89.4971485742717,162.40192660812318 88.05462731362786,163.21730325027602 87.0659329664777,163.41496868755712 84.40780390193686,163.26671966914364 83.95397698847228,163.0814078937765 83.79999999998836,163.3902605426265 86.61210605301312,163.6744036101045 87.90065032514394,163.56321734872108 89.16488244119682,162.92080390356932 91.35297648821143,161.05529606630807 91.71765882940963,160.90704136132263 92.71445722860517,161.00587787102995 94.88634317155811,160.7711409012045 97.03391695846221,160.82055928507543 98.14417208600207,160.9935233159922 99.15717858928838,161.47534912350238 99.48944472233416,161.1417778125542 97.82001000497257,160.5981762450283 95.58329164580209,160.56111232684634 92.9818909454334,160.79585009810762 92.17148574287421,161.01823242356477 93.88144072034629,160.9441050710593 94.96738369180821,160.7093678655474 95.60760380188003,160.8699776292633 97.13116558277397,160.79585009810762 98.54937468731077,161.21590492686664 98.99509754875908,161.66066573693388 98.53316658327822,162.6984284557111 98.3386693346547,164.2797475080297 99.96758379190578,164.7986089653714 99.12476238119416,166.84930427927247 99.93516758375335,166.57752931155483 101.36958479238092,166.61458960510936 102.41500750373234,166.8863644091034 102.24482241118676,167.466970195459" stroke="#4dd2ff" stroke-linecap="round" stroke-linejoin="round" stroke-width="0.5"><title>2022-04-22 10.1km</title></polyline><polyline fill="none" points="136.63583617750555,167.37389970066943 137.92593856656458,167.35985301548135 138.01808873721166,167.09296546062615 139.38191126281163,166.713702446963 139.9808873720467,167.13510566853438 140.83788395908778,167.26152614004968 141.42764505121158,167.61269291763165 142.11877133106464,167.55650635169877 142.45051194541156,167.94981136572824 143.98020477817045,167.07891871902393 144.7819112628058,168.3571606563346 144.6160409556469,169.97248793914696 145.08600682596443,171.27876881248085 146.09965870308224,172.72548152922172 147.352901023929,173.84912125004848 150.53208191125304,177.93620852785898 151.7576791809115,181.58769967967237 152.20000000001164,181.58769967967237 151.9880546075292,180.30969945396282 151.1955631399469,178.56821101871537 150.54129692836432,176.3210651131849 150.52286689419998,175.8575822916864 151.3337883959175,175.4924118455201 151.48122866894118,175.2536455232439 150.4030716723646,170.6186084089095 149.82252559729386,169.0313887529046 149.29726962459972,168.0621838207553 147.2976109215233,165.6320892254298 144.55153583621723,163.31429029210994 142.4412969283585,162.26071993435835 140.20204778158222,161.75500052626376 137.59419795224676,161.57237873035047 135.18907849831157,161.8252395515774 134.875767918129,161.1930857846819 132.5535836177587,159.7180381115686 130.31433447101153,159.21230032032327 123.7440273037646,159.7180381115686 121.55085324234096,161.55833088016152 119.82764505120576,162.35905383917634 119.79999999998836,162.76643568644795 121.46791808874696,161.95166961942596 124.20477815699996,159.60565225171013 126.75733788398793,159.70398988894158 127.85392491469975,159.42302484435277 128.79385665533482,159.60565225171013 130.83959044370567,159.56350750772617 131.91774744031136,159.90066474866398 132.59965870308224,160.3923494787341 132.08361774744117,161.65666577232696 131.91774744031136,163.58119226363124 133.75153583619976,164.12904048836208 132.76552901024115,166.41871868144517 134.29522184302914,165.95517025102163 137.23481228671153,166.5591872963305 138.79215017065872,166.05349896263215" stroke="#4dd2ff" stroke-linecap="round" stroke-linejoin="round" stroke-width="0.5"><title>2022-04-21 8.1km</title></polyline><polyline fill="none" points="172.29488054607646,167.3598644634003 173.8061433447001,167.26153766695643 174.18395904434146,167.10702385048353 174.3406143344473,166.79799519357766 174.23924914674717,167.27558436064282 175.3634812286473,166.71371441390147 177.34470989761758,167.54247100444627 178.19249146757647,167.52842436437277 178.45051194538246,167.89363608977874 179.9064846416004,166.9946499513826 180.7266211604001,168.18861339921932 180.57918088734732,170.0286818691966 181.1505119453941,171.36305239312787 181.8324232081941,172.43053048764705 183.47269624573528,174.00362641261017 186.61501706484705,178.0345232768923 187.80375426620594,181.6438749556255 188.19999999998254,181.53152440372287 188.06177474404103,180.84337333674557 187.08498293513549,178.48394686443135 186.50443686006474,176.01208140614835 186.60580204776488,175.7592720615321 187.4167235494824,175.4362365695706 187.10341296927072,173.51203773578527 186.25563139931182,170.12700477639373 185.27883959040628,168.07624123751157 183.16860068257665,165.50567874648186 180.54232081910595,163.34239995929602 178.54266211602953,162.31692625262076 176.70887372014113,161.79715986600786 173.71399317405303,161.54429914631328 171.02320819112356,161.81120765695232 171.00477815698832,161.65668180123976 170.87576791807078,161.2071500982711 168.415358361759,159.64781461299208 166.16689419795875,159.15612504437377 161.93720136518823,159.43709093537836 160.94197952214745,159.70400748649627 160.2508532423235,159.50733223177667 159.83617747441167,159.60566992825989 157.56006825936493,161.41786844374656 155.8184300341236,162.2607354781212 155.79999999998836,162.68216518684858 157.4587030716648,161.85335101288365 160.17713310581166,159.60566992825989 161.34744027303532,159.7602003148495 163.82627986348234,159.49328397812133 166.22218430030625,159.49328397812133 167.63208191125887,159.74615211201672 168.62730375424144,160.44855879866373 168.05597269625287,161.6426339792706" stroke="#4dd2ff" stroke-linecap="round" stroke-linejoin="round" stroke-width="0.5"><title>2022-04-19 7.2km</title></polyline><polyline fill="none" points="16.04501831246307,203.16030606724235 16.091839389584493,202.898614012709 18.38607216771925,202.75587264851492 20.695911971561145,201.89942085169605 24.254313831566833,203.46957774998737 25.674553170392755,203.37441731816944 25.98669368441915,203.99295875870303 28.34335456538247,202.47038940409402 28.873993439250626,202.898614012709 29.841629032802302,204.6590766987356 29.513881493068766,207.5851932912483 30.309839803841896,209.55968641814252 31.464759705762845,211.3914156807441 34.1491681264597,213.9367586802764 39.61162712209625,221.00158311891573 41.624933437560685,227.281073469283 41.859038823109586,227.281073469283 42.280428517085966,227.09079077201022 42.2180004142574,225.83016018461058 40.11105194449192,220.73993046590476 39.439949839317705,217.71898981011327 41.078687538043596,216.5058344861609 39.33070065942593,208.86980701725406 37.55149972939398,204.30222826803947 34.039918946509715,200.13891715995123 29.357811236055568,196.14200085435004 27.75028758874396,195.3806681745191 26.79825902095763,195.0 26.642188763944432,196.8795372224631 27.375718971947208,197.83119026802888 30.45030303520616,200.376824592895 32.35436017077882,203.0413552050013 33.82142058672616,205.4679291627399 34.50812971760752,208.13234528471367 38.98734609398525,207.4900361648688 39.86133953323588,210.03546297495632 41.15672266652109,216.5771969079069 39.70526927622268,217.62384082181234 40.860189178201836,222.0719743194495 42.623783082468435,226.99564930881024 41.78100369457388,227.40000000000146 41.20354374364251,226.61508269191836 39.5960200963309,221.92925605136406 38.628384502837434,220.0501161567372 34.39888053765753,214.50766922874027 31.293082423042506,211.48656967385614 29.310990158934146,208.03718859783112 29.20174097904237,207.10940689522977 29.669951750081964,204.96834446927824 32.16707586229313,203.44578764916514 33.79020653531188,205.4441394631067 34.60177187179215,208.1799235995859 38.628384502837434,207.20456432729407 37.17693111259723,203.9691687630475 33.009855250187684,199.2110736065879 29.310990158934146,196.21337554228376 26.81386604666477,195.02379179670243 26.720223892421927,197.16503393877065 28.124856205598917,198.54492503590882 26.81386604666477,199.6393099956549 25.19073537364602,199.2110736065879 24.628882448363584,199.5917282510709 23.754889009112958,200.66231288194103 23.973387368954718,202.73208240440727 20.056023917801213,203.37441731816944 19.19763750419952,204.23085845290188 16.762941494758707,205.63445692569076 14.952526513312478,207.94203183447098 13.376216917473357,207.0856175252993 15.686056721315254,201.51877362137748 17.714970062545035,201.54256410912058 19.759490429481957,200.75747549200605 20.664697920146864,201.89942085169605 18.698212681745645,203.0889355642139 15.623628618486691,203.18409622530453" stroke="#4dd2ff" stroke-linecap="round" stroke-linejoin="round" stroke-width="0.5"><title>2022-04-10 10.4km</title></polyline><polyline fill="none" points="50.59626983292401,203.22100822642824 50.76972987042973,202.9565986204252 52.70932847104268,203.07678487735393 55.54776544764172,201.99510422095773 56.50968020077562,202.71622574450157 59.08004257403081,203.58156583891832 60.51503015658818,203.43734292421868 60.73579747695476,204.11038170610846 63.25885256723268,202.66815111142205 64.69384014984826,204.6151583093888 64.42576554650441,207.66780955261493 65.18268207355868,209.61473543889588 66.90151335386327,212.25865816976875 69.3457229725318,214.49392910977622 74.62836956779938,221.31965948038123 76.56796816841234,227.37596764136833 77.40373016707599,227.40000000000146 74.53375500184484,218.48366383469693 74.51798590755789,217.73860298845102 76.1895099048852,216.89739968592767 74.18683492700802,207.860099938247 72.57838730694493,204.56708443885873 69.15649384079734,200.3605460183171 64.2523055090569,196.20193702516553 61.69771223014686,195.0 61.618866758595686,197.33174682500248 65.40344939404167,200.3605460183171 67.2799716173904,203.65367723107192 64.83576199866366,204.92763799709792 63.353467133129016,202.76430035837257 60.92502660874743,204.1824927797279 58.02351325494237,203.05274763563648 56.761985709832516,202.9565986204252 55.15353808976943,203.4133057549043 53.1666322061792,204.83149048777705" stroke="#4dd2ff" stroke-linecap="round" stroke-linejoin="round" stroke-width="0.5"><title>2022-04-09 5.2km</title></polyline><polyline fill="none" points="86.57842189370422,203.20305554281367 88.34587250847835,203.058725109222 88.39321493566968,202.81817400013824 91.65984241128899,201.88002005964518 92.55934852780774,202.7219534213291 94.01118296140339,202.91439450172766 95.10005878657103,203.49171588832542 96.45720836584223,203.49171588832542 96.851728592359,204.06903449277888 99.26619237870909,202.52951203171688 99.97632878640434,203.17900048266893 100.78115004854044,204.69445984140475 100.49709548539249,207.653158578687 101.27035512943985,209.7217988447519 103.22717545297928,212.48794803642522 105.42070791241713,214.46029367287701 110.64415571157588,221.31514488198445 112.69566088955617,227.40000000000146 113.42157810635399,227.2797489394943 113.27955082478002,225.88482781693165 111.6856891096104,222.1569416761995 110.54947085719323,217.85169013182895 110.80196380219422,217.41875124823855 112.1748941905098,216.76933998961613 111.33851131028496,212.27146909884323 109.57106069545262,206.13773664641485 108.5295272974181,204.09308937424066 106.68317263730569,201.88002005964518 102.21720367309172,197.57403977963259 100.41819144017063,196.20282921096077 97.76701551792212,195.0 97.56186500011245,196.6117883914194 97.84591956320219,197.50187119364273 101.22301270224852,200.24424689855368 103.36920273455326,203.49171588832542 100.97051975724753,204.81473357263894 99.21884995151777,202.69789826455963 97.05687911016867,204.0209247153325 93.83759406168247,202.93844961508876 90.94970600359375,203.371440828887" stroke="#4dd2ff" stroke-linecap="round" stroke-linejoin="round" stroke-width="0.5"><title>2022-04-07 5.0km</title></polyline><polyline fill="none" points="122.57260540826246,202.37970290628436 122.43068344541825,202.66815111030155 122.82491111994023,202.90852408265346 124.66989663627464,202.90852408265346 127.87102535285521,201.9710667608815 128.83294087852119,202.7162257433447 130.5202353251516,202.9806358802307 131.13523049734067,203.38926857946353 132.58598833926953,203.46138008745766 132.88560137187596,204.03827058774186 135.37712027441012,202.54796444305975 136.134037409327,203.17293379480543 136.9855691861012,204.87956425068842 136.71749436750542,207.95624501368002 138.08940667461138,210.72038295531092 139.46131898165913,212.52304722976987 141.33784271212062,214.01322920281382 146.90433747530915,221.2956259002167 148.84393763361732,227.40000000000146 149.56931655463995,227.32790290952107 149.5220092337113,226.10224572972947 147.06202854507137,220.4544475898947 146.5889553357847,217.6665000784269 148.16586603358155,216.96950305629434 148.2762497824151,216.29653656398295 146.49434069386916,208.89365546753106 145.3274267775123,205.48048467596527 144.01859089836944,203.6296401039217 143.13552090758458,204.1344187342038 143.6401323308819,203.29311983453954 141.14861342834774,200.12016792866052 136.6386488326243,196.34616865690623 133.86328600445995,195.0 133.70559493469773,196.6346313996255 134.00520796730416,197.52405381357676 137.34825864661252,200.0961300932904 139.66631737240823,203.1969710123958 138.18402131646872,204.3747887624122 137.01710740011185,204.83149048635823 135.62942598602967,202.7883376567479 135.04596902785124,202.88448680709553 134.57289581850637,202.35566552462114 133.8159786835895,199.80767569175805 135.28250563249458,198.43750779247785 137.37979686062317,200.19228140595806 139.650548265432,203.29311983453954 137.30095132568385,204.7593798037342 137.03287650708808,204.80745359691355 135.42442759533878,202.64411378647492 133.07483065559063,204.03827058774186 132.52291191136464,203.58156583757227 131.087923176412,203.437342922909 127.69756517611677,202.1633662971799 125.97873251547571,203.0046731364855 123.70798111066688,203.14889657242747" stroke="#4dd2ff" stroke-linecap="round" stroke-linejoin="round" stroke-width="0.5"><title>2022-04-03 6.2km</title></polyline><polyline fill="none" points="185.9180327868089,216.44811254780507 186.606557377032,213.59921011156985 186.39016393444035,212.42964495428896 188.19999999995343,211.52997321549628 188.19999999995343,210.6602853825607 182.77049180329777,207.18148339973413 179.6819672131096,206.341760434123 173.05245901632588,206.43173097778345 167.07213114754995,207.36142342087987 164.4557377048768,207.1514933751605 159.7737704917672,210.93018904510245 155.9770491802483,212.81950102448172 155.79999999998836,213.6291988412704 159.10491803276818,212.219722033391 164.5540983605897,207.4214033797616 165.65573770483024,207.06152326516167 170.39672131143743,207.1215033444896 173.22950819670223,206.49171131000912 180.01639344258,207.09151330777968 183.39999999996508,208.53102827307885 184.12786885240348,208.02120164323424 183.4786885245121,207.36142342087987 178.12786885240348,206.25178983643127 168.86229508195538,206.9115729614714 167.05245901632588,207.45139335010026 164.6524590163608,207.1514933751605 158.7114754098002,211.7998753063148 155.79999999998836,212.96944539590913 156.0754098360194,213.6291988412704 159.6360655737226,211.8598534823832 164.43606557376916,207.5713531714864 165.89180327864597,207.03153321651916 166.77704918029485,207.18148339973413 169.98360655736178,206.40174080256838 178.85573770484189,205.95188745217456 184.14754098362755,207.51137327276228" stroke="#4dd2ff" stroke-linecap="round" stroke-linejoin="round" stroke-width="0.5"><title>2022-03-24 5.1km</title></polyline><polyline fill="none" points="31.029729737900198,267.43606837131665 30.135124500346137,267.23598997467343 28.858821028086822,268.1999999999971 28.286273676058045,267.90897918734845 28.0,267.181423062495 27.63022983513656,263.88915850172634 27.20081932109315,262.8705330578523 26.687912318273447,262.5067354786079 23.717822929495014,262.4339757873531 22.202958060544915,260.97876968008495 36.862555886851624,241.38577963197167 29.83692275447538,235.8000000000029 19.13744411317748,257.6317068519711 25.73366673151031,264.3620878472866 26.139221105870092,264.03467548662593" stroke="#4dd2ff" stroke-linecap="round" stroke-linejoin="round" stroke-width="0.5"><title>2021-10-26 5.0km</title></polyline></svg>