<?xml version="1.0" encoding="utf-8" ?>
<svg baseProfile="full" height="300mm" version="1.1" viewBox="0,0,200,300" width="200mm" xmlns="http://www.w3.org/2000/svg" xmlns:ev="http://www.w3.org/2001/xml-events" xmlns:xlink="http://www.w3.org/1999/xlink"><defs /><rect fill="#222222" height="300" width="200" x="0" y="0" /><text fill="#FFFFFF" style="font-size:12px; font-family:Arial; font-weight:bold;" x="10" y="20">Over 5km Runs</text><text fill="#FFFFFF" style="font-size:4px; font-family:Arial" x="10" y="280">ATHLETE</text><text fill="#FFFFFF" style="font-size:9px; font-family:Arial" x="10" y="290">Wenz</text><text fill="#FFFFFF" style="font-size:4px; font-family:Arial" x="120" y="280">STATISTICS</text><text fill="#FFFFFF" style="font-size:3px; font-family:Arial" x="120" y="285">Number: 40</text><text fill="#FFFFFF" style="font-size:3px; font-family:Arial" x="120" y="290">Weekly: 2.9</text><text fill="#FFFFFF" style="font-size:3px; font-family:Arial" x="141" y="285">Total: 301.6 km</text><text fill="#FFFFFF" style="font-size:3px; font-family:Arial" x="141" y="290">Avg: 7.5 km</text><text fill="#FFFFFF" style="font-size:3px; font-family:Arial" x="167" y="285">Min: 5.0 km</text><text fill="#FFFFFF" style="font-size:3px; font-family:Arial" x="167" y="290">Max: 21.4 km</text><polyline fill="none" points="38.5,50.14267756758636 37.89404402245418,50.178203477822535 38.29024600778939,49.09465679760615 36.96180405697669,48.6150499313153 35.58675010787556,48.52623355963442 33.31441519202781,48.988077718691784 33.93202416918939,47.26503145796596 34.95748813118553,45.84393712258316 35.3653431161074,44.29847111916024 35.20220112215611,43.641195784832234 36.41411307727685,42.96615116873727 36.53064307293971,42.610862459550845 33.30276219249936,40.461335335610784 30.529348295211094,39.821796522177465 25.273845489835367,40.1415665068198 24.015321536455303,40.47910023662553 22.75679758307524,40.24815624490293 22.080923608125886,40.47910023662553 18.864695727213984,43.10826625287882 16.988562796701444,43.92542355574551 12.269097971468,43.76554554698669 11.814630988345016,43.516845847902005 11.5,43.97871616114571 15.42706085453392,44.3339993764821 17.687742770795012,44.13859378458437 19.284203711693408,43.250381108693546 22.75679758307524,40.35474585444899 31.47324126024614,40.35474585444899 32.53366422094405,40.71004362544045 33.337721191201126,41.45616429932852 32.941519205865916,41.98910378475557 32.708459214511095,42.98391556672141 32.4404402244254,45.382076548099576 34.79434613723424,46.0571027282931 33.337721191201126,48.97031452639931 35.43526111351093,48.45518039806484 37.299741044436814,48.6683397115703 38.29024600778939,48.988077718691784 38.09214501513634,49.98281079506705" stroke="#4dd2ff" stroke-linecap="round" stroke-linejoin="round" stroke-width="0.5"><title>2022-06-21 5.1km</title></polyline><polyline fill="none" points="75.8113537117606,49.79893777090183 75.59912663756404,49.583268949674675 75.98820960699231,48.52288968661742 75.08034934499301,48.18140894467797 72.94628820961225,48.18140894467797 71.28384279477177,48.79247882578056 71.00087336241268,48.52288968661742 72.17991266373429,45.88087315103621 72.7104803493421,45.39559632996679 73.18209606988239,43.652172711197636 73.02882096069516,43.130936375157034 74.1724890829646,42.51982783963467 74.0899563318817,41.99858490897168 71.0716157204879,39.96750590867305 69.42096069865511,39.41029918789718 67.78209606985911,39.266503341954376 63.219213973759906,39.57206923842023 61.62751091699465,39.913582829256484 60.212663755432004,39.733838996522536 56.74628820960061,42.37603698949533 54.482532751047984,43.45446273417474 49.9078602619993,43.31067338567664 49.2711790392932,42.987146506871795 49.0,43.2208049255205 49.047161572030745,43.50838368033874 49.58951965064625,43.670146323791414 53.35065502181533,43.84988225153211 55.2017467248952,43.652172711197636 56.993886462878436,42.66361845866777 60.47205240171752,39.805736572961905 62.558951965067536,40.03940329744364 68.2419213973917,39.75181339603296 70.38777292575105,40.23712081856502 71.30742358075804,40.79432239174639 72.02663755454705,40.20117221080727 73.3589519650559,41.495312992090476 74.01921397380647,41.81884526354406 74.20786026201677,42.555775516011636 73.13493449779344,42.96917275711894 73.2646288209653,43.84988225153211 72.82838427947718,45.575328792707296 72.23886462883092,46.07857776826859 71.1659388646367,48.52288968661742 71.21310043666745,48.66667066189257 73.42969432313112,48.055599921921385 76.0,48.46897176136554 75.87030567685724,49.61921378927218 75.2689956331451,50.73349665803835" stroke="#4dd2ff" stroke-linecap="round" stroke-linejoin="round" stroke-width="0.5"><title>2022-06-20 5.3km</title></polyline><polyline fill="none" points="102.16916167664749,42.73133937710372 102.91017964071943,42.71080205171893 104.15643712574092,42.289785063938325 105.56437125749653,42.926443556814775 106.1976047904318,42.926443556814775 106.29191616766911,43.131815573447966 106.66916167666204,43.01886106636084 107.34281437128084,42.525965752200136 107.6594311377412,42.74160803668565 108.05014970060438,43.47067759782658 107.89520958084904,44.69261594816635 108.25224550899293,45.55514308815327 108.8315868263453,46.51006688257257 110.05763473054685,47.68059430743597 112.26721556887787,50.5143918719441 113.1631736526906,53.21456738188135 113.47979041915096,53.1632345759499 113.38547904191364,52.67043701768125 113.17664670658996,51.8696308587314 112.44910179641738,50.25771377675483 112.2065868263453,49.02564098838775 112.9139221556834,48.55333854999844 112.13922155689215,45.20602671243614 111.64745508981287,43.93275855806496 111.24326347305032,43.20369558442326 109.76796407185611,41.42720284913594 108.21856287424453,40.092225500251516 107.16092814369767,39.42472375696161 106.04940119759704,38.95233264291892 104.095808383252,38.56209321382266 102.66766467064735,38.47993716503697 101.01047904191364,38.675057565327734 100.7881736526906,38.212929095021536 99.12425149702176,37.16542243376898 97.60179640719434,36.764899510169926 92.75823353294982,37.13461308949263 91.14146706587053,38.4183200418629 89.59206586825894,39.17825937233283 87.00523952097865,39.07556552816095 86.63473053892085,38.90098551975461 86.5,39.13718185940161 86.85029940120876,39.29122236273179 88.15044910181314,39.38364644203466 90.0097305389354,39.31176106148632 91.90943113772664,38.120502899804706 92.89296407187067,37.17569221109079 93.71482035929512,37.26812011401125 95.64820359283476,37.03191514114587 97.53443113772664,37.0524547473251 98.76047904191364,37.31946887679442 99.25898203594261,37.62756037060899 99.77769461079151,37.39135705805165 100.87574850299279,38.233468226830155 100.88248502992792,38.664788089150534 100.30988023952523,38.88044665605412 100.43787425151095,39.15772061999087 101.03068862276268,39.568494099421514 101.72455089821597,39.80468735601244 104.47979041918006,39.537686202926125 104.92440119759704,39.75334108867173 105.60479041918006,40.46191502445072 107.86152694612974,39.784148855243984 109.07410179640283,40.64675878432536 110.2597305389354,41.80715156997394 111.37125748503604,43.244769831060694 111.74850299402897,43.96356380695215 111.91691616766911,44.548860010552744 111.01422155689215,44.88771264573006 110.09131736526615,45.02119943102298 109.7073353293381,43.8403427000012 109.08083832336706,42.99832385646732 108.09730538922304,43.52202013291753 107.91541916168353,44.743957256501744 108.75074850300734,46.386851910974656 110.10479041916551,47.70112963717111 112.29416167666204,50.52465896897047 113.196856287439,53.23510048983371 113.5,53.14270143914109 113.47305389221583,52.85523665841174 112.62425149699266,50.76080163145889 112.19985029941017,48.9845713843024 112.9139221556834,48.54307105726184 111.74850299402897,43.984100629226305 111.41167664671957,43.31664968327459 109.57934131738148,41.09859627355763 107.8413173652807,39.77387960178385 106.35254491018713,39.02421852872067 104.80314371257555,38.675057565327734 103.05164670657541,38.52101520591532 101.03742514969781,38.71613544947104 100.8555389221583,38.2745464657055 100.41766467067646,38.03834614160587 99.77095808382728,37.411896519817674 98.53143712574092,36.93948681129041 97.52095808385639,36.8059789287945 92.67739520958276,37.12434330394899 91.07410179641738,38.469667649671464 89.66616766469087,39.17825937233283 86.96482035929512,39.08583492185426 86.62125748505059,38.90098551975461 86.54041916168353,39.239875579853106 88.81062874253257,39.43499308052196 89.86152694610064,39.352838434151636 91.09431137725187,38.74694384090981 92.77170658683463,37.257850355279515 93.06811377246049,37.18596198633895 93.37799401198572,37.237310831580544 93.37799401198572,37.442705697041674 92.45508982035972,38.29508557276131 94.28742514969781,38.048615743588016 94.4423652694677,38.685327039471304 96.24775449102162,38.76748275826321 98.4034431137843,38.58263220536537 98.4910179640865,37.68917844663156 98.76047904191364,37.504323995803134 99.13772455090657,37.69944811873938 99.13098802395689,37.89457149709415 98.69985029941017,39.044757334708265 98.56511976048932,39.856033571777516 98.67290419164055,40.04087952167174 100.04715568861866,40.37976202780919 100.37050898204325,39.280953010267694 100.86901197605766,39.5274168999822 102.14895209582755,39.79441810668868 104.46631736526615,39.5274168999822 105.64520958083449,40.47218413972951 106.52769461077696,40.092225500251516 108.33308383233089,41.70446300488402 109.76796407185611,43.79926893172524 109.98353293414402,44.83637148169146 110.24625748503604,44.98012661113171 111.80913173651788,44.579664888333355 111.89670658682007,44.41537199236336 111.69461077844608,43.93275855806496 111.29041916166898,43.20369558442326 110.13173652694968,41.72500073439733 107.92215568861866,39.82522584848266 105.92140718564042,38.921524375215085 103.90044910179859,38.55182371493356 102.99775449102162,38.531284710988984 100.94311377246049,38.69559651153031 100.37050898204325,38.88044665605412 100.66017964073399,39.38364644203466 101.65044910178403,39.77387960178385" stroke="#ff0000" stroke-linecap="round" stroke-linejoin="round" stroke-width="0.5"><title>2022-06-17 21.4km</title></polyline><polyline fill="none" points="150.92900964064756,48.94106604759145 150.69237510953099,48.76071204438631 151.0,47.58840219647391 149.46187554774224,47.227688395745645 148.00657318139565,47.245724120220984 146.16082383872708,47.768758553575026 146.1963190184033,47.04733095217671 148.0184049079835,43.872980664767965 148.2905346187763,42.84489998657955 148.04206836107187,42.14146958414494 149.2370727432135,41.61840238019067 149.3553900087427,41.3117753615079 147.55696757227997,39.85077342540899 144.88299737073248,38.57012255225709 142.56397896580165,38.31759768953634 137.40534618753009,38.732459589147766 136.69544259420945,38.984983285445196 135.39395267306827,38.82264670502627 134.5184049079544,39.11124486733752 131.8444347064069,41.41999678175489 129.3834355828294,42.59238714262028 124.75723049955559,42.37594699709007 124.07099035932333,42.14146958414494 124.0,42.682570382654376 129.45442594218184,42.899009789325646 130.63759859770653,42.53827715515217 132.09290096405311,41.6905497618136 135.38212094653863,38.87675893109554 138.45836985102505,39.02105804125313 140.36327782648732,38.840684117334604 140.49342681857524,39.88684783344797 140.09114811569452,43.205631389260816 140.7892199824273,43.34992354462156 140.22129710778245,43.74672577673482 140.2686240139883,44.82890477248293 142.56397896580165,44.93712195489206 146.4684487291961,45.87499874103378 146.5631025416078,46.235717974203 145.99517966696294,47.93107896534639 146.55127081507817,49.44605532987771 146.4684487291961,50.852796217339346 149.26073619630188,51.68240231046366 150.479404031561,49.157490373305336" stroke="#4dd2ff" stroke-linecap="round" stroke-linejoin="round" stroke-width="0.5"><title>2022-06-16 5.2km</title></polyline><polyline fill="none" points="188.24285714287544,50.184987654487486 188.21948051950312,48.93780388160667 187.14415584417293,48.652730843561585 185.67142857142608,48.63491374826117 183.46233766237856,49.02688901817601 184.56103896105196,46.4433837438919 185.0636363636586,45.87322072328243 185.5311688311922,44.48343301101704 185.42597402600222,43.46780514673446 186.57142857144936,42.95107773618656 186.4662337662885,42.41652897230961 184.97012987014023,41.31178465465928 182.78441558446502,40.1713889951352 180.99610389611917,39.81501234550524 174.74285714287544,40.18920779001928 174.10000000003492,40.47430802181043 172.6740259740327,40.26048293385975 169.63506493507884,42.630348864302505 166.97012987014023,43.96671151526971 162.34155844157794,43.80634905989427 161.90909090911737,43.46780514673446 161.5,43.948893478969694 164.51558441558154,44.305253524806176 167.58961038963753,44.19834566133068 170.09090909094084,42.755076896697574 172.91948051951476,40.31393925414886 180.30649350650492,40.22484536910633 181.93116883118637,40.45648928418814 182.93636363637052,40.812863357212336 183.49740259742248,41.472151618749194 182.79610389613663,43.14707814272697 182.50389610390994,45.285236270974565 184.68961038961424,46.15830269154685 183.5324675324955,49.00907199802168 185.65974025975447,48.51019398110657 187.99740259745158,48.72399918895826 188.5,48.93780388160667 188.25454545454704,49.864284930037684 188.45324675325537,50.13153728092584" stroke="#4dd2ff" stroke-linecap="round" stroke-linejoin="round" stroke-width="0.5"><title>2022-06-15 5.0km</title></polyline><polyline fill="none" points="38.323683064838406,80.22329433849518 38.170875054376666,79.91869414057874 38.394209838908864,79.1123944801584 37.18350021765218,78.73611881193938 35.937527209403925,78.6286111867812 33.83347845013486,79.23781935029547 33.49259904224891,79.13031232957292 34.58576404003543,76.46051310001349 35.114714845462004,75.90504147672618 35.63191118850955,74.20276819210267 35.42033086629817,73.59352565166046 36.548759251163574,73.10971243557287 36.60753156291321,72.5542199523843 33.645407052652445,70.52933097699861 31.893992163677467,69.95590274099959 30.119068350002635,69.77670566150482 24.14780148016871,70.45765264902002 22.3376142794732,70.40389386527386 19.25794514582958,72.87676439592178 16.71898127993336,74.02357964145631 12.24053112755064,73.79063398764265 11.617544623411959,73.53976875719673 11.5,74.0056607666047 12.017196343047544,74.22068702740216 16.918807139765704,74.34611877358111 19.363735306920717,73.30682184032776 22.81954723552917,70.36805465810176 25.910970831522718,70.47557223644253 27.768175881559728,70.11717980486719 32.05855463646003,70.49349182020524 33.05768393559265,70.88772175310442 33.551371353911236,71.6044989867878 32.94013931215159,72.89468349750678 32.587505441886606,75.3495663955182 34.91488898562966,76.08422624912782 33.621898127981694,78.98696943373943 35.937527209403925,78.53902140018909 37.60666086198762,78.75403673691471 38.48824553762097,79.00488730827783 38.5,80.1516237972246" stroke="#4dd2ff" stroke-linecap="round" stroke-linejoin="round" stroke-width="0.5"><title>2022-06-14 5.0km</title></polyline><polyline fill="none" points="64.52095808384183,72.80321488481059 65.38323353293526,72.75187158683912 66.6497005988058,72.3513920935402 68.10479041915096,72.93670721830858 68.6639221556834,72.90590132613215 68.89296407184156,73.22422798385742 69.95733532932354,72.58757268690533 70.55014970060438,73.51174713294677 70.41541916168353,74.66180756498943 70.55014970060438,75.23682808276499 71.37200598801428,76.5716722174111 72.41616766466177,77.51631009168705 74.72679640719434,80.4835916702541 75.61601796407194,83.21457067636584 76.0,83.21457067636584 74.72005988023011,79.35419682884822 74.7402694610646,79.00510610497076 75.36676646706474,78.75868768883447 75.44086826346756,78.58414059238203 74.34281437126629,74.22026956482296 73.70958083833102,73.20369083992409 72.36901197604311,71.58123040694772 71.24401197602856,70.53379189926636 69.7687125748489,69.54794782296085 68.71107784430205,69.05501865778206 66.91242514968326,68.65451021236004 65.06661676647491,68.57235424610917 63.52395209579845,68.7366660466505 63.3218562874099,68.28480732477692 61.651197604776826,67.24757106576362 60.04116766466177,66.83677861234173 56.67964071854658,67.042175251554 56.214820359280566,67.20649196888917 55.467065868273494,67.08325448038158 53.601047904187,68.51073718479165 52.13248502994247,69.21932890745302 49.471556886230246,69.12690445697444 49.09431137723732,68.96259391033527 49.01347305389936,69.23986765154405 49.67365269460424,69.35283059660651 49.734281437136815,69.55821713006299 49.7881736526906,69.30148383431515 50.704341317366925,69.4657932920818 52.125748503007344,69.45552396642597 53.49999999998545,68.83936065388843 55.399700598805794,67.27838036670073 59.522455089812865,67.10379408242443 61.05164670658996,67.2989198903997 61.839820359280566,67.68916927262399 62.27769461076241,67.4221568591638 62.863772455079015,68.02806763579065 63.40269461077696,68.31561600082568 63.41616766467632,68.70585762427072 62.85029940120876,68.95232448364914 62.944610778446076,69.1782513945218 63.92140718562587,69.74306430491197 64.72305389223038,69.87656462677478 66.93937125748198,69.58902503893114 67.36377245507902,69.75333357280033 68.11152694611519,70.49271544221847 69.08832335329498,70.20517931885479 70.70508982034517,71.57096150609505 71.61452095808636,72.87509541537656 71.58083832333796,73.02912478352664 70.5232035927911,73.62470064211811 70.35479041915096,74.53858804142874 70.45583832333796,74.99039150965473 71.5336826347193,76.77702976125147 72.44985029939562,77.56764860666226 74.7402694610646,80.50412589108237 75.61601796407194,83.04003878584263 75.9326347305323,82.91683944576653 75.9326347305323,82.6807065477442 74.96257485028764,80.40145470454081 74.67964071854658,79.14884963277291 74.72679640719434,78.99483869468168 75.39371257483435,78.72788530332036 75.39371257483435,78.34798769020563 74.5920658682735,75.13414632162676 74.19461077843152,74.07651218401952 73.77694610776962,73.27557080760016 72.26122754489188,71.45800346072065 71.03517964070488,70.37975501513574 69.6676646706328,69.47606261564215 68.8458083832229,69.06528806384085 66.88547904189909,68.6442407238028 65.3697604790359,68.55181523392457 63.53742514969781,68.72639657459149 63.34880239520862,68.30534644418367 61.59056886227336,67.18595240811919 60.654191616747994,66.87785800615893 59.569610778431525,66.78542932363052 56.228293413165375,67.18595240811919 55.339071856287774,67.08325448038158 53.53368263473385,68.51073718479165 52.1055389221583,69.20905953232068 49.464820359280566,69.11663506328114 49.14146706585598,68.96259391033527 49.0,69.23986765154405 49.552395209582755,69.3733692870519 52.11227544909343,69.41444664324445 52.15269461077696,69.12690445697444 53.53368263473385,68.47992862630053 54.66541916166898,67.51458439083581" stroke="#4dd2ff" stroke-linecap="round" stroke-linejoin="round" stroke-width="0.5"><title>2022-06-11 15.5km</title></polyline><polyline fill="none" points="101.90155116337701,72.75597611462581 102.88103577683796,72.7250853309888 104.1915186389815,72.3338004611287 105.66412309232692,72.9722110789553 106.15048786588886,72.9619141965486 106.41393545159372,73.19874196840465 107.20427820866462,72.64270981704249 107.48123592694174,72.60152201042729 108.04866149611189,73.42527185719155 107.92031523642072,74.753540614558 108.27833375030605,75.62873765984114 108.94708531399374,76.63776983395292 110.14948711534089,77.7600374012145 112.32461846384103,80.59133726657456 113.16224668500945,83.18570027383248 113.5,83.20628993153878 113.43920440328657,82.67095614485152 112.69614711031318,80.88990159653986 112.25031273455534,79.34558458257743 112.25031273455534,79.02641993465659 112.92581936453644,78.73814048093845 112.96634976231144,78.55281711924545 111.93282461847411,74.39316101925942 111.48699024267262,73.44586543380501 110.01438578934176,71.54092459674575 107.94733550163801,69.87275612564918 106.25856892669981,69.02835386705192 104.81973980483599,68.67823177939135 102.69189392043336,68.51346761679815 101.04365774331382,68.7297204716233 100.90180135100672,68.33840511398739 99.1522391793842,67.18503721435263 97.51751313485147,66.79371006846122 94.12646985238825,67.04086440280662 93.8224918689084,67.1747391698409 92.91055791842518,67.07175861082942 90.99211908933648,68.54436093762342 89.99912434325961,69.06954454373772 89.07368026020413,69.24460455046574 86.93907930949354,69.10043752952333 86.58106079560821,68.90478163851003 86.5,69.19311637523424 88.20903177384753,69.41966395960844 90.05316487365053,69.31668790893673 91.05291468600626,68.77091138818287 92.58631473605055,67.3806996673884 92.97810858143202,67.1747391698409 93.79547160372022,67.27771952200783 96.9771078308695,67.07175861082942 98.35514135601989,67.21593133553324 98.72667000249203,67.3292096205405 99.17250437827897,67.76172440698065 98.79422066549887,68.58555200308547 98.61183387540223,69.65650809122599 98.69289467101044,70.05811085787718 100.03039779835672,70.36703392273557 100.39517137853545,69.29609267401975 101.25306479859864,69.6359129927987 102.32712034024007,69.81097106600646 104.64410808106186,69.58442521044708 105.650612959711,70.47000786411081 106.64360770577332,70.19197774779605 108.2107830872992,71.56151893012793 109.11596197147446,72.82805453738183 109.17000250187994,72.92072664634179 108.60933199900319,73.37378787940906 108.0959469602094,73.57972348033582 107.46772579432582,72.59122505359846 106.39367025268439,73.22963246670042 105.20477858395316,72.7662730383563 104.31986489865812,72.7662730383563 103.73217413057864,72.98250795929198 102.48248686514853,73.85773522977979 101.50300225168758,73.2914134074963 101.75293970477651,72.7044914649232 101.92857142857974,72.73538226094752" stroke="#4dd2ff" stroke-linecap="round" stroke-linejoin="round" stroke-width="0.5"><title>2022-06-10 10.5km</title></polyline><polyline fill="none" points="151.0,80.24752671007445 150.59019947960041,79.96196342596522 150.83607979185763,79.08742016135511 150.59019947960041,78.85539703463292 148.31873373803683,78.64122130317264 145.9653078924166,79.10526806911366 146.55073720726068,77.24906646905583 147.74501300955308,75.5356152008826 148.04943625326268,74.19695841388602 147.86209887251607,73.4829998834175 149.03295750217512,73.05462201230694 148.99783174326876,72.69763887588488 148.8924544666079,72.35850356823357 147.288378143945,71.2161435375092 144.2207285342447,69.93097095213307 142.6049436253379,69.75247328993282 137.1370338247798,70.23441615512274 136.50477016475634,70.53786032211792 135.2168256721634,70.32366454706062 134.59627059844206,70.55570994670416 131.83304423242225,72.82258313673083 130.20555073721334,73.7150370348827 128.09800520379213,74.03631824452168 127.13790112751303,73.73288602146204 124.83130962704308,73.8042819318216 124.19904596704873,73.46515084665589 124.0,73.982771456911 129.44449262789567,74.28620282688644 129.47961838680203,73.76858398378681 132.00867302689585,72.50129753968213 134.17476149174036,70.55570994670416 135.3924544666079,70.09161854157719 135.95446660881862,70.16301737703179 135.95446660881862,71.05549798056018 134.51431049435632,72.2514079390603 134.51431049435632,72.50129753968213 137.382914137037,72.05506561710354 137.76929748483235,73.1617166736687 139.958803122252,73.10816935914772 139.99392888115835,74.60748197192879 140.70815264523844,74.73242354802642 140.15784908930073,75.10724722260784 140.23980919341557,76.3031026655517 142.07805724194623,76.3031026655517 145.08716392019414,76.89210017876758 146.35169124021195,77.37400433201401 146.0121422376542,79.06957225005317 148.01431049435632,78.4091970117006 150.67215958365705,78.81970111527335 150.92974848221638,79.05172433517873 150.90633130961214,80.15828828232043" stroke="#4dd2ff" stroke-linecap="round" stroke-linejoin="round" stroke-width="0.5"><title>2022-06-09 5.2km</title></polyline><polyline fill="none" points="173.8505121638882,72.0761975475616 174.948143405898,72.04984874804359 176.4779129321396,71.56239404837834 178.3533930857957,72.37920798149935 179.16581306018634,72.36603364388793 179.2781690141128,72.61634560579114 180.66101152368356,71.83905797098123 180.98079385401797,72.1157207270262 181.51664532651193,73.05109569108026 181.29193341868813,74.39485046973277 181.50800256084767,75.19845537348374 182.51056338028866,76.924196575932 183.97983354673488,78.30739148796056 186.90973111396306,82.02211351729056 188.1024327784835,85.55222184174272 188.5,85.46001993511891 188.33578745197156,84.7355718752151 187.11715749040013,81.77183743438945 186.83194622278097,80.28333364097853 186.93565941101406,80.05939651993685 187.7740076824557,79.63786574820551 186.46895006403793,74.31580683278298 185.70838668374927,72.74808836009834 183.24519846352632,69.98143496717239 181.28329065302387,68.41361292361762 179.2003841229307,67.34641850557455 177.2730473751435,66.85892885973954 174.98271446861327,66.66129689028458 172.48495518567506,66.91163061767656 172.1997439180559,66.30555784511671 171.11075544176856,65.60724966538692 169.9526248399634,64.9221098879716 168.8031370038516,64.57953731607267 167.5499359795358,64.44777815825728 162.80505761844688,64.9221098879716 162.76184379000915,65.43596539180726 163.38412291934947,65.33055946271998 162.58898847628734,65.50184401147999 161.5,66.39778667168503 163.88540332906996,66.21332888886172 164.1014724712004,66.9379814807944 165.7003841229307,67.00385859223752 165.69174135726644,68.04470817440597 166.19302176698693,68.12375936669196 165.78681177977705,68.33456208054122 165.8473111395724,69.26999095188876 168.95870678615756,69.53348963483222 170.45390524968388,70.06048382600784 170.05633802816737,71.43064891326867 170.43661971829715,72.52412552040187 170.35883482717327,73.55171343297116 171.79353393084602,73.89423916082524 173.176376440475,74.6978501958547 174.14436619717162,73.44632054155954 176.15813060180517,72.19476701448366 176.9273367477581,71.99715111725891 175.85563380279928,70.98271347516857 175.01728553138673,71.36477624651525 173.8245838668372,71.40429985452647 173.70358514724649,72.04984874804359" stroke="#4dd2ff" stroke-linecap="round" stroke-linejoin="round" stroke-width="0.5"><title>2022-06-07 8.0km</title></polyline><polyline fill="none" points="37.1455309396697,99.98598847537869 36.210466004602495,101.66283448982358 34.59472880062822,101.15978634186467 34.20970206265338,101.67331460802961 32.88961038962589,102.7632354115267 32.16080977846286,103.16147002818616 31.844537815151853,103.55970160658762 30.930099312463426,105.2993091932185 30.60007639421383,106.65113288949942 30.043162719666725,107.7828653402903 29.472498090166482,110.31869526758601 29.16310160428111,110.61208912672737 27.980519480537623,111.68086709793351 27.04545454545587,112.24668187136558 22.933919022165355,113.2106484725191 20.75439266616013,111.06265505699048 19.59931245225016,110.43395733750003 17.79106187931029,110.04625663621118 17.660427807481028,109.79477356065036 17.83919022155169,108.94600923612597 17.749809014523635,108.53734000979603 16.828495034380467,108.07627345197398 15.03399541635008,106.26340409205659 11.905653170353617,106.14813281311581 11.5,105.88615168702381 11.5,105.3936236103691 13.906417112288182,103.60162054337343 13.892666157378699,103.39202552280767 13.71390374332259,103.3605861971555 13.067608861732879,103.89505215823738 12.888846447662218,103.82169440915095 12.957601222311496,103.6330597238557 16.821619556925725,100.59385138021025 16.876623376621865,99.27331260612118 17.06913674560201,99.2104289740164 18.733002291846788,99.60869069794717 20.93315508021624,99.30475439378642 23.504583651651046,97.91081694750756 26.06913674561656,97.1876317256465 27.237967914450564,96.96752988654771 27.581741787638748,97.15618866261866 30.352559205522994,96.78935152747727 30.881970970222028,96.88368132277174 31.01948051949148,97.72216089914582 33.79717341483047,97.99466386124186 34.608479755566805,98.2986077943533 34.28533231477195,99.40956021582315 34.608479755566805,100.28992081268007 34.59472880062822,101.13882589712375 35.79793735676503,101.47419200247896 36.856760886192205,102.0610775019959 37.3792971734365,101.28554883336983 38.5,100.4366461351965 38.321237585972995,100.0069493830415 37.60618792974856,99.96502755929032" stroke="#4dd2ff" stroke-linecap="round" stroke-linejoin="round" stroke-width="0.5"><title>2022-06-05 8.1km</title></polyline><polyline fill="none" points="54.384202827874105,100.38558569579618 54.502681618731,100.60631914320402 54.63432471966371,100.30531886676181 56.056070209655445,100.38558569579618 58.675767918117344,99.48258015227475 59.847391516319476,100.20498523984133 62.598732325655874,100.7668522532258 62.94100438809255,101.22838350827806 65.15260848365142,100.02438445750886 65.7450024378486,100.62638579602935 66.32423208191176,101.91064319833094 66.03461725986563,104.29851543538825 66.73232569478569,105.98403795851482 68.31204290589085,108.25142222626164 69.97074597759638,109.65597074927064 72.47196489517228,112.72584380240005 74.6177474402648,115.71536811264377 75.47342759626918,117.80196296622307 76.0,117.54114099172875 74.93369088249165,114.83256486865139 74.55192588979844,112.74590802202147 74.70989761091187,112.38475145293341 75.85519258899149,111.92327171543002 75.8683568990673,111.52198325515201 74.32813261821866,104.80016201465332 72.93271574843675,101.50931453298108 70.41833252072684,98.43909691765293 66.03461725986563,94.76675196500582 62.967333008302376,93.14124471880496 58.16235982449143,92.1980370337842 53.739151633373694,92.31844702121452 52.133105802029604,92.4990617302974 51.23793271573959,92.94056297822681 51.369575816672295,93.78342358050577 50.895660653332015,95.79020592570305 50.52705997074372,95.89054398510052 49.0,99.14144260122703 51.30375426617684,98.57956644924707 53.91028766459203,98.88057192351698 54.502681618731,99.10130869513523 54.318381277436856,100.10465151218523 54.792296440777136,100.36551899460028 54.46318868844537,100.52605249150656" stroke="#4dd2ff" stroke-linecap="round" stroke-linejoin="round" stroke-width="0.5"><title>2022-06-04 5.1km</title></polyline><polyline fill="none" points="113.28897090748069,110.15606908709015 113.37103777678567,109.03019182950811 112.50347372988472,108.77999494919641 110.82696482850588,108.61915372621297 108.54081632650923,109.1552900059396 109.1270082500996,107.45751404031034 110.15870603561052,105.97416747660463 110.6511072514113,104.25845868801116 110.47524967434583,103.59718709497247 111.50694745982764,103.15037918301095 111.53039513679687,102.50697184886667 108.43530178029323,100.50523039462132 106.92292661743704,100.02266098713153 105.41055145463906,99.84393091290985 99.79483282673755,100.23713660243811 99.16174554929603,100.46948460237036 97.7079895788047,100.32650128956448 94.02670429873979,103.13250681984937 91.91641337383771,104.06186494381836 88.08271819364745,103.90101519382006 86.6993052540347,103.52569797978504 86.5,104.02612058007799 87.20343030826189,104.22271440314944 92.02192792008282,104.36569145633985 94.30807642205036,103.38271957715187 97.76660877114045,100.43373879570572 99.87689969604253,100.57672193620965 105.0471124620235,100.29075542547798 107.15740338686737,100.61246768539422 108.57598784193397,101.55972480835771 108.08358662613318,102.32824676384189 107.60290924881701,105.36652439666796 109.7249240121746,106.11714171602944 108.62288319584331,109.01232064711803 110.69800260526245,108.42256961441308 112.15175857575377,108.58341119267425 113.5,109.03019182950811 113.34759009987465,110.0667142695238" stroke="#4dd2ff" stroke-linecap="round" stroke-linejoin="round" stroke-width="0.5"><title>2022-06-03 5.0km</title></polyline><polyline fill="none" points="150.81233709814842,110.17618970167678 150.60121633362724,109.94376606724836 150.85925282366225,109.19285479421524 149.5338835795119,108.67436474309216 148.0794960903586,108.56709056247928 146.26151172895334,109.19285479421524 145.9565595134627,109.06770229969698 146.1442224153143,108.1379925474539 147.8566463944153,105.3666847280474 148.1146828844503,104.24025753958995 147.93874891396263,103.54293832890107 148.99435273674317,103.11381610007084 148.94743701128755,102.59529064747767 145.83927019982366,100.50327797952195 144.05647263251012,99.94897578709788 142.87185056469752,99.82381029831595 137.7111207645503,100.21718695630989 136.25673327539698,100.57480059169029 135.14248479585513,100.34235189207538 131.4361424848321,103.16745649181394 129.39530842748354,104.0435783152061 124.86794092092896,103.86477864324843 124.2463075586711,103.5071782221712 124.0,103.98993845129735 124.64509122504387,104.2223776280589 128.21068635967094,104.41905645752558 130.21633362292778,104.18661779421382 132.1985230234568,102.9886550604133 135.2949609035859,100.41387463352294 136.66724587316276,100.62844251309434 140.09209383148118,100.23506767221261 144.7367506516166,100.57480059169029 145.9682884448266,101.2721430492893 146.02693310167524,101.62975244732661 145.38184187663137,102.97077489754156 145.06516072980594,105.42032376249699 147.45786272807163,106.09974873541796 146.09730668980046,109.03194441180676 148.3375325803354,108.47769531318772 149.99131190270418,108.74588079172099 151.0,109.15709695658734 150.80060816681362,110.01528109631909" stroke="#4dd2ff" stroke-linecap="round" stroke-linejoin="round" stroke-width="0.5"><title>2022-06-02 5.0km</title></polyline><polyline fill="none" points="170.7124904798402,100.32261414825189 172.16222391472547,100.27559575018677 173.70449352631113,99.78973731142469 174.21858339681057,99.93079329874308 174.20830159939942,99.5546434327407 176.44973343488527,100.55770571388712 177.385376999242,100.60472394202225 177.50875856817584,100.88683271620539 178.2593297791609,100.62039667846693 179.1332825590216,99.93079329874308 179.71934501142823,100.41665085948625 180.19230769231217,101.4353746359775 179.9866717441182,103.50412662093004 180.4699162224133,104.52281010321167 181.68316831684206,106.37207845212106 183.17402894134284,107.64146611335309 186.66984006093116,112.2016885382618 187.92421934500453,116.19754074754019 188.5,116.13486229185946 186.54645849199733,110.28987514191249 186.54645849199733,109.74139544236095 187.61576542269904,109.14589883371082 186.4642041127372,104.00563399666862 185.25095201830845,101.12192258243158 182.43373952782713,97.68954023641709 179.95582635188475,95.80871877186291 177.79664889565902,94.69587806388154 175.53465346537996,94.11594070181309 172.12109672508086,93.80245925245981 169.26275704495492,94.0845926135371 168.3476770754205,94.41374691246165 166.8362528560683,94.36672495475796 162.4870525514416,94.86829104325443 162.044935262762,95.00935592489986 161.99352627573535,95.58928664869745 161.53084539223346,95.6363078698705 161.5,96.82750269113603 164.50228484388208,97.04693133322144 166.56892612337833,97.59550023957127 167.05217060167342,97.94031300741335 166.6408987052855,99.30387584839627 168.56359482102562,98.81801136093418 170.97981721250108,99.22551081301208" stroke="#4dd2ff" stroke-linecap="round" stroke-linejoin="round" stroke-width="0.5"><title>2022-05-30 6.1km</title></polyline><polyline fill="none" points="25.41118701963569,132.5112490670872 25.518787361244904,132.40580896207757 26.27967549103778,132.46438682171356 27.793766011978732,131.94889963846072 29.530742954753805,132.64012004778488 30.20708795901737,132.65183557736236 30.468403074279195,132.89786115523384 31.575149444921408,132.19492818041545 31.844150298915338,132.39409338307087 32.32835183606949,133.23760905736344 32.128522630257066,134.6317262861994 32.343723313417286,135.2643399238841 33.4888983774872,137.03327869202258 34.449615713063395,137.82986936641828 37.154995730146766,141.30896881353328 38.146456020505866,144.3661880067666 38.453885567898396,144.34276164876428 38.5,143.9796518965777 37.57771135782241,141.68380890069966 37.07813834332046,139.71587157992326 37.162681468820665,139.48158890654668 37.86208368916414,139.21216266927877 37.90051238259184,139.00130648539562 36.670794192992616,134.1279734840282 36.055935098207556,132.97986945066805 34.57258753204951,131.17566032409377 32.15926558498177,129.11363871805588 31.782664389407728,129.05505749417352 30.268573868495878,128.1880485036636 28.216481639625272,127.73110614845427 26.125960717356065,127.62565740439459 24.37361229720409,127.84827119608599 24.09692570453626,127.34445982180478 22.15243381727487,126.12592130227131 20.146456020505866,125.63381199323703 16.933817250217544,125.86815027712146 16.065328778815456,126.10248761974799 15.258326216920977,125.9970359320796 14.774124679766828,126.11420446219199 12.837318531179335,127.6725235363665 12.038001707958756,128.14118278578098 11.530742954724701,128.24663059810337 11.5,128.5746892397874 13.306148590956582,127.64909047507899 15.17378309139167,125.98531906610515 17.540990606328705,126.07905392787143 18.347993168252287,125.87986716658634 19.154995730146766,126.02046965689442 20.330913748941384,125.93845157874603 21.27625960719888,126.0907707749866 22.28309137490578,126.60630971913633 22.87489325364004,126.26652319955974 23.620409906085115,127.02811092137563 24.150725875311764,127.29759342626858 24.112297181913164,127.81312170650199 23.88941076004994,127.93028658945332 23.88172502137604,128.15289921878866 24.27369769429788,128.4458092791101 25.21135781382327,128.7387178688914 28.4624252775684,128.45752565092698 28.89282664388884,128.6449872801677 29.853543979523238,129.5940025350501 32.136208368930966,128.99647621149052 34.349701110157184,130.87104808357253 36.04056362085976,132.9095766330829 36.82450896670343,134.47942938607594 34.75704526048503,135.05346947340877 34.4573014517664,134.72544725789703 34.16524338175077,133.65936232153763 33.519641332211904,132.7924217488835 32.40520922289579,133.31961687526564 31.66737830915372,132.32379985977968 30.429974380880594,132.94472305246381 30.153287788212765,132.73384421857918 29.538428693427704,132.69869767217824 29.00042698546895,132.45267125450482 28.22416737829917,132.40580896207757 27.655422715644818,132.55811127482593 27.125106746389065,132.99158491204435" stroke="#4dd2ff" stroke-linecap="round" stroke-linejoin="round" stroke-width="0.5"><title>2022-05-28 10.0km</title></polyline><polyline fill="none" points="63.044911881763255,132.3802546791594 64.14241046048119,132.33345895274397 65.30898237638758,131.795305397638 65.97669130191207,132.27496424189667 66.55230244458653,132.34515788788121 67.06651506538037,132.63763050252237 67.65747583855409,132.61423274740446 67.94911881751614,132.918402831383 68.80102330871159,132.31006107544817 69.17708925527404,132.2164694722851 69.81409891985822,133.1991738072029 69.69897669131751,134.70829462165784 70.09039226832101,135.67925866669611 70.77345082434476,136.79058319723117 72.08584422970307,137.99546900291898 74.67993177945027,141.36433786784255 75.65463331440696,144.38211750718256 76.0,144.2417591289195 75.95395110858954,143.65692891381332 74.994599204103,141.29415508639067 74.58783399660024,139.5512555655041 75.41671404207591,139.13014450591072 74.30386583285872,134.3807368359776 73.52870949404314,132.83651104190358 71.45650938036852,130.5785920799317 69.66060261515668,129.11616264123222 68.6628766344802,128.71837548348776 67.9644684480154,128.2269875976781 65.83086981240194,127.72389570647283 63.712620807258645,127.58349719402759 61.82461625925498,127.7940948358264 61.70181921546464,127.3260990424933 59.67566799320048,126.06249162197491 57.76463899941882,125.61788249281744 52.33854462762247,126.06249162197491 50.41984081864939,127.60689696962436 49.0,128.28548637280983 49.015349630470155,128.51948088610152 49.322342239902355,128.51948088610152 50.12819783965824,128.09829008552697 52.41529277997324,126.13269275325365 52.75298465034575,126.01569082079004 55.00170551449992,126.03909122608457 55.684764070494566,125.81678699634722 56.390847072209,125.98059019524953 57.89511085842969,125.92208910563568 58.80841387153487,126.09759219817352 59.821489482652396,126.61239821959316 60.40477544060559,126.23799429151404 61.057134735630825,126.99849975033067 61.678794769744854,127.3377989831315 61.77089255259489,127.665396367418 61.41017623650259,128.05149091970816 61.594371802173555,128.3322853506579 62.03183627061662,128.53118058714244 63.321205230255146,128.76517411360692 65.96901648663334,128.42588319358038 66.30670835703495,128.56627967598615 67.39653212053236,129.6075430275887 68.6628766344802,129.1746605236185 69.63757816943689,129.05766470013987 71.66372939173016,130.64878776971454 73.33683911315165,132.62593162614576 73.96617396248621,133.6554237571654 74.26549175669788,134.53281746548964 72.21631608871394,135.04754895842052 71.97839681638288,134.75508844072465 71.70977828311152,133.71391708210285 70.97299602048588,132.7546191373258 69.92154633314931,133.2927638318106 69.1387151790841,132.25156634109953 67.92609437179635,132.9418004643776 67.64980102333357,132.69612484930258 67.05884025015985,132.67272711764235 66.52160318364622,132.36855575106165 65.12478681068751,132.54403942558565" stroke="#4dd2ff" stroke-linecap="round" stroke-linejoin="round" stroke-width="0.5"><title>2022-05-26 10.0km</title></polyline><polyline fill="none" points="91.86458092782414,129.2557059394967 93.56878951017279,129.17985859893815 95.8327746342693,128.4403438356385 98.53214151295833,129.69182696571806 99.4651024157356,129.63494172866922 99.88804469164461,130.2417158235694 102.00275607127696,128.9333543212997 103.08499071848928,130.6399092046122 102.74912479351042,132.59292861770518 103.48305403697304,134.52694687450276 104.34137806756189,135.98691481383867 106.7297579786391,138.24318450874853 110.90942282305332,143.62767755735695 112.45191818231251,148.36729415820446 113.13608951104106,148.5 113.01169472400215,147.60897148519143 111.15821239713114,143.11578473315603 110.85966490823193,140.78379342413973 111.99165747026564,140.34772361824434 112.11605225730455,140.02540985892847 110.02621983509744,131.8344792737189 109.11813788971631,130.14690762824466 106.38145257494762,126.98025922156376 102.77400375087745,123.98417075153702 100.78368715828401,122.86535384506715 97.63649904628983,121.84134031206486 93.41951576576685,121.5 89.73743006947916,121.86030362654128 88.85422708149417,122.12578962960106 89.0532587407506,122.84639073239669 88.5681190713367,124.93231029542221 87.68491608335171,125.95629031024873 86.86391048895894,128.04214117977244 88.96618238984956,127.47327732998383" stroke="#4dd2ff" stroke-linecap="round" stroke-linejoin="round" stroke-width="0.5"><title>2022-05-24 5.1km</title></polyline><polyline fill="none" points="150.95302305350197,140.22770138727356 150.69464984774822,139.94126833195332 150.9295345802384,139.02825682659022 149.16789908657665,138.67021054673387 147.9112657677615,138.74181991774094 146.29056111350656,139.24308390432998 146.00869943454745,139.04615910282155 146.51370160939405,137.70347840870818 147.7703349282383,135.64466206981888 148.18138321008882,134.31983337207203 148.02870813399204,133.58579818532598 149.1326663767104,133.1203093256263 149.1326663767104,132.78014285262907 148.93301435408648,132.2967461582448 147.3357981731242,131.22252189751453 144.66985645933892,130.0587643412291 142.7438016528904,129.77229861272644 137.81122227056767,130.18409280799824 136.36668116573128,130.50636519915133 135.3566768160381,130.29151706781704 134.61678990867222,130.5421731707538 131.4693344932748,133.10240585937572 129.50804697696003,133.99757476602827 125.221400608978,133.85434834497573 124.16441931272857,133.5499914362881 124.0,133.89015497185756 124.46976946498035,134.1408009569932 126.81861678994028,134.39144623745233 130.2479338843259,134.23031720943254 132.1857329273771,133.10240585937572 134.7694649847981,130.77492463527597 135.47411918226862,130.45265321487386 142.29752066117362,130.34522914922854 144.72857764246874,130.57798112794262 146.05567638101638,131.49107917622314 145.397999130073,132.76223931811546 145.1043932144239,135.3403112730375 147.4884732492501,136.07433201411186 146.10265332757263,139.04615910282155 148.40452370597632,138.50908925168187 149.61418007832253,138.63440583971533 151.0,139.01035454677185 150.9295345802384,139.74434507260594" stroke="#4dd2ff" stroke-linecap="round" stroke-linejoin="round" stroke-width="0.5"><title>2022-05-22 5.0km</title></polyline><polyline fill="none" points="166.92748316246434,128.86269554679893 167.00159961392637,129.25811808067374 167.96511348281638,129.29577728267031 169.29920960901654,129.10748112149304 170.9544770248176,128.44844158003252 171.4979976688046,128.91918458227883 172.7950355692301,129.12631075464742 173.73384395433823,129.67236847070308 174.70971056510461,129.59705035408115 175.00617637092364,130.0489581464135 176.8837931411108,128.86269554679893 177.50143023655983,129.35226605726348 178.10671459007426,130.538522463954 177.78554330047336,132.85450362960546 178.58847152453382,134.6620589452432 179.93492039258126,136.58254829498037 181.60254055034602,137.99464772655483 185.97541118608206,143.64283284229168 187.5565621504793,148.5 188.13714102018275,148.38704548114765 188.05067182678613,147.84109672201885 186.06188037944958,143.02154913020786 185.75306183175417,141.0070554529375 185.87658925083815,140.6681644141281 186.95127779690665,140.2351351936304 187.02539424836868,139.7079664873454 185.13542473627604,132.13900335886865 184.24602731887717,130.3313994107666 180.82431781006744,126.3018235327254 177.79789604237885,123.94801919203746 174.46265572693665,122.32856749671919 170.54683654182008,121.57532462038216 167.9280552570708,121.5 164.90163348938222,121.83896031535551 163.99988333007786,122.19675043015013 164.09870526532177,122.93115744131501 163.61694833086221,125.02136129964492 162.9746057516022,125.64276427288132 161.86285897978814,128.14716481844516 163.99988333007786,127.46928856580053 165.81573639065027,127.63875808839657 167.03865783964284,128.12833498873806 166.7668975176348,128.84386586070468" stroke="#4dd2ff" stroke-linecap="round" stroke-linejoin="round" stroke-width="0.5"><title>2022-05-16 5.4km</title></polyline><polyline fill="none" points="27.24438342486974,162.67369229413816 27.857713429853902,162.72506128719033 29.19221168247168,162.29356014257064 29.50898652021715,162.57095415328513 30.216674987532315,162.7045136961533 30.573889166276786,162.92026299049394 31.17373939092795,162.89971547784444 31.38267598602397,163.17710620233265 32.467798302546726,162.550406500377 33.08112830755999,163.47504271284924 32.94633050427365,164.81059885478317 33.48552171741903,165.95093074027682 34.19321018474875,166.91659732903645 34.99525711433671,167.58433484430861 37.3339990015229,170.56336529452528 38.19670494260208,173.19298599254398 38.5,173.1724426045439 38.486520219696104,172.87456255188954 37.52271592612669,170.31683142592738 37.259860209713224,169.21768680939203 37.3070394408569,169.00196406636314 37.94058911634784,168.69378714160484 37.96080878684006,168.49860746261766 36.97678482277843,164.481849808064 36.37019470795349,163.29011680710028 34.77284073889314,161.39972476659023 32.616075886180624,159.6736536421231 31.38267598602397,159.05718555669955 30.169495756388642,158.73867413559128 27.985771342995577,158.53318184385716 26.024463305046083,158.70785034445726 25.882925611600513,158.3174140492556 24.95282076887088,157.63928077067249 24.03619570644514,157.12553745434343 22.715177234174917,156.80701400745238 19.614827758356114,157.00223829080278 18.86669995007105,157.1974618291897 17.84223664503952,157.13581237124163 15.800049925135681,158.70785034445726 14.687968047932372,159.201028774336 11.998751872190041,159.1085581808511 11.634797803300899,158.92361649247687 11.580878681998001,159.01608742022654 11.5,159.2113032744237 11.890913629584247,159.31404816163922 14.58686969547125,159.44761620658755 15.74613080380368,158.99553833960817 18.125312031974318,157.14608728605162 19.45307039441832,157.23856142656223 20.437094358479953,157.0844377661706 22.560159760381794,157.1049876143843 23.36894658015808,157.20773673163785 24.299051422887715,157.63928077067249 24.59560659012641,157.3618600205773 23.19370943585818,156.89948876083508 22.357963055430446,156.80701400745238 19.520469296054216,156.98168840129438 18.529705441833357,157.23856142656223 19.978781827288913,157.1974618291897 20.82126809786132,157.00223829080278 22.566899650526466,157.0741628389842 23.490264603111427,157.26938610291472 24.37993010484206,157.6495555843976 24.784323514730204,157.35158514909926 25.45157264106092,158.0399969762475 25.916625062411185,158.26604063071136 25.943584623091738,158.66675192736875 25.377433849251247,158.89279281276686 25.43809286071337,159.201028774336 26.75911133302725,159.8277695028919 27.985771342995577,159.73530004211352 28.0329505741538,161.15314674247566 27.72965551674133,161.33808037196286 27.71617573640833,161.65657561141052" stroke="#4dd2ff" stroke-linecap="round" stroke-linejoin="round" stroke-width="0.5"><title>2022-05-14 9.9km</title></polyline><polyline fill="none" points="60.621181262715254,161.85063988598267 61.49185336049413,161.9065215106748 63.31568228104152,161.26388011698873 64.15885947045172,161.78078779202042 64.6812627291074,161.82269905683643 65.29531568224775,162.1859289608692 65.86354378817487,162.1300475605858 66.41344195519923,162.49327586010259 67.76985743379919,161.5852015558121 68.63136456211214,162.91238308015818 68.43890020364779,164.60275657587408 68.9338085539639,165.77621485251075 69.54786150713335,166.83789814523698 71.1517311608768,168.33260900665118 74.41446028510109,172.5232159167208 75.68839103868231,176.16883864521878 75.9633401221945,176.07106581552216 76.0,175.54029662862376 74.93686354375677,172.95623091082598 74.35947046839283,170.52572476842033 74.44195519346977,170.30222568841054 75.3309572301223,169.8552253748021 74.30448065171367,165.38506429260087 73.15885947045172,162.63297854728444 70.71181262729806,159.74107572561843 68.48472505089012,157.96675700737615 66.12016293275519,156.8211098569118 63.7647657841153,156.33210837727165 61.8309572301514,156.1784214880572 59.0906313645246,156.4299089481392 58.86150712828385,155.92693311888434 57.62423625253723,155.0187731058686 56.3136456211796,154.27826462882513 55.287169042770984,153.95690944101443 54.02240325862658,153.83116135477758 49.68737270872225,154.16648907967829 49.0,154.41798381266926 54.28818737270194,154.18046103313463 56.01120162929874,154.59961833220586 56.57026476575993,155.06068844436595 56.02036659873556,156.1784214880572 55.80040733196074,158.13441110557324 57.56008146639215,158.83296549932493 56.59775967409951,161.02638070840112 58.073319755581906,160.57932079879174 59.86965376781882,160.76093923351436 60.392057026474504,160.95652778690055 60.30040733196074,161.78078779202042" stroke="#4dd2ff" stroke-linecap="round" stroke-linejoin="round" stroke-width="0.5"><title>2022-05-12 7.0km</title></polyline><polyline fill="none" points="96.27977099234704,160.35114322208392 97.43396946566645,160.35114322208392 99.340458015271,159.69137454557494 99.79389312976855,160.09980342997733 101.39122137404047,160.64960817641258 102.34961832061526,160.68102547380113 102.79274809159688,161.1051577535327 104.42099236641661,160.11551219062676 105.23511450379738,161.43503682586015 105.11145038169343,163.7441513863232 105.80190839694114,165.1421536104317 106.8324427480984,166.60296070558252 108.15152671755641,167.71818217102555 110.16106870229123,170.16847209278785 110.36717557252268,170.7653259638828 111.35648854961619,171.78624966227653 111.99541984731331,172.9013972488101 112.9229007633403,176.07398373333126 113.5,175.9169280229762 111.78931297708186,170.74961934140447 111.69656488546752,169.9956977540569 112.7580152671726,169.3360104056701 111.6347328244301,164.40388588576752 110.88244274808676,162.3775407967114 110.30534351142705,161.27795172680635 107.9866412213596,158.48178418714087 106.12137404578971,156.8008938056082 104.01908396944054,155.40274251588562 102.62786259542918,154.7429321048985 101.1232824427425,154.3501851705514 97.65038167938474,153.92601626667602 94.33206106870784,154.24021567554882 93.45610687020235,154.57012369672884 92.04427480918821,154.49157429404295 87.09770992366248,155.10425754309108 87.01526717559318,155.74835527204414 86.71641221374739,155.7169359936961 86.54122137403465,155.95258027392265 86.5,156.84802206541644 86.70610687023145,157.09937230492505 88.26221374046872,157.03653482079972 90.95190839696443,157.47639615002845 92.09580152670969,157.9948009702057 91.77633587786113,159.45574152696645 93.53854961832985,158.8430923569831 94.77519083971856,158.95305538179673 96.03244274808094,159.33007029347937 95.82633587784949,160.11551219062676" stroke="#4dd2ff" stroke-linecap="round" stroke-linejoin="round" stroke-width="0.5"><title>2022-05-10 6.0km</title></polyline><polyline fill="none" points="139.64504864056653,162.76269890852564 140.31853330008744,162.7524328082509 141.6385632327292,162.28018996819083 143.08655525067297,162.92695623224427 143.68595659766288,162.92695623224427 143.8677974557213,163.16307521058116 144.86455475180992,162.5368442267427 145.0329259167047,162.61897331737782 145.54477425791265,163.39919309847755 145.37640309304697,164.66189199093787 145.77375904214568,165.63712588965427 146.39336492891016,166.5815451992712 147.49114492394438,167.59780301461433 149.34322773761232,169.97925735507306 149.91568969818763,170.87227413846995 150.58917435770854,173.16119996267662 151.0,173.1406719352708 150.77101521576697,172.13478849732928 150.2254926415626,170.9030675424874 149.7742579196929,169.322315511763 149.7607882264856,168.98357657579618 150.45447742579563,168.59351077874817 149.40384135695058,164.31285639132693 148.89199301572808,163.26573529581947 147.61237216263544,161.66421449100744 146.1711149912735,160.35010866883385 145.35619855325785,159.80597683831365 143.90147168868862,159.05650275978041 142.5545023696759,158.72796271365587 140.5744574706914,158.54315800988843 138.5540034921578,158.6971619760916 138.30481416813564,158.28648370197334 136.65477675230068,157.19817032062565 134.8700424045819,156.78748000484848 131.74507358443225,157.0133600868321 131.2534297829843,157.1776358832176 130.270142180103,157.14683421160953 128.55275629834796,158.49182325140282 127.1519082065206,159.17970473278547 124.54552257420437,159.10783695128703 124.13469693191291,158.9230336206674 124.0,159.16943791302765 126.19555999002478,159.43637455627686 127.441506610121,159.3439735682914 128.77500623595552,158.63556044526922 130.44524819156504,157.1776358832176 132.58692940881883,157.187903102953 133.1324519830232,156.9825583162201 133.8126714891696,157.1262997535232 135.65128460963024,157.1776358832176 136.8635569967737,157.66019298235187 137.2407084060833,157.34191115172507 137.8872536792187,157.98873989034837 138.3788974806812,158.19408063565788 138.37216263408482,158.676628140729 138.10276877027354,158.85116547835787 138.7493140433944,159.3542403529682 140.19730606135272,159.5082418759339 142.02244948864973,159.26183921649135 142.69593414817064,159.55957561386094 143.65228236466646,160.391174987024 144.13045647295075,160.20637629528574 145.76702419556386,161.53075215943318 146.78398603142705,163.16307521058116 146.6425542529323,163.00908469620117 145.56497879770177,163.56344837736833 145.3427288600651,164.54896896944774 145.45048640559253,164.94933128390403 146.39336492891016,166.5815451992712 147.36991768520966,167.45409101439873 149.63956098779454,170.30772511163377 150.7238712896069,173.2125199951479 150.91918184085807,173.13040791848834 150.93938638063264,172.81222237608745 149.89548515839851,170.26666675747038 149.6732352207473,169.1683435463383 149.73384884011466,168.99384142499548 150.4275380394247,168.6243055551131 149.55874282863806,164.94933128390403 149.02668994762644,163.57371431479623 147.04664504864195,161.19196159924832 145.61212272386183,160.04211023078096 143.81391868297942,159.05650275978041 141.28161636317964,158.5739588402248 138.50685956596863,158.66636121997362 138.3519580942957,158.27621670286317 137.2339735594869,157.42404858805457 135.9206784734415,156.9517565270835 135.01820902968757,156.80801459902068 132.17610376652738,156.99282557514016 131.0311798453331,157.2187047498337 133.42878523323452,157.06469632989683 133.39511100025265,158.46102237157174 133.19980044898693,159.53904212484485 133.5971563981002,159.67250965580024 133.31429284109618,159.75464334781282 133.36143676728534,160.5143737437793 135.98129209280887,160.8018363549745 136.8366176103882,161.12009664635116" stroke="#4dd2ff" stroke-linecap="round" stroke-linejoin="round" stroke-width="0.5"><title>2022-05-08 15.0km</title></polyline><polyline fill="none" points="171.2191780821595,160.24003738549072 171.9691780821886,160.27135915114195 174.2191780821595,159.55095535900182 176.41780821915017,160.50627199248265 177.2089041095751,160.47495032121515 177.671232876688,160.9134525748159 178.85273972601863,160.13041110665654 179.39726027398137,160.06776744962553 180.2191780821595,161.4145949888043 179.96232876711292,163.09026655183698 180.49657534246217,164.53100210345292 181.86301369860303,166.53545947129896 183.11643835616997,167.52200941651972 186.6712328767171,172.23535360490496 188.04794520547148,176.18119018500875 188.5,176.07158630846243 188.4589041095751,175.5392224317693 187.30821917805588,172.72076490332984 186.5993150684808,169.808251801398 187.66780821917928,169.21320886429748 186.50684931504657,163.98289932346233 185.900684931461,162.21328405575332 185.1404109588766,160.9134525748159 183.05479452054715,158.43901470526907 180.52739726024447,156.21508583823015 177.3219178081781,154.4766184077307 172.29794520544237,153.81880981498398 162.12671232875437,154.93081634088594 162.04452054793364,155.5259682494434 161.5205479451688,155.74523359727755 161.5,156.35604095851886" stroke="#4dd2ff" stroke-linecap="round" stroke-linejoin="round" stroke-width="0.5"><title>2022-05-05 5.1km</title></polyline><polyline fill="none" points="23.018181818188168,191.98001451849996 24.22727272726479,192.0631595356972 25.790909090894274,191.49499992156052 27.82727272727061,192.2848790919379 28.57272727272357,192.2848790919379 28.81818181820563,192.58974231862157 30.236363636358874,191.75829398283167 30.354545454552863,191.84143926718752 31.0545454545354,193.04703463360056 30.863636363646947,194.39117935014656 31.309090909082443,195.8461518572949 32.14545454547624,197.13481617753132 33.70909090907662,198.61744320949583 35.272727272706106,200.5018577704068 36.96363636365277,203.06513322207684 37.890909090900095,206.05781005547033 38.5,206.05781005547033 37.009090909094084,201.0006647776063 36.97272727271775,200.30787629404585 37.663636363635305,200.11389427252652 37.772727272706106,199.8921998660844 36.68181818182347,195.02859965248717 35.518181818159064,192.67288660127815 33.64545454544714,190.35866666075162 30.89999999999418,188.0720857113156 28.57272727272357,186.89412050238388 25.354545454552863,186.31205968264112 21.68181818179437,186.49222188955537 21.372727272711927,185.9378751346012 19.427272727247328,184.55198876480063 17.93636363634141,184.05306285810366 16.3909090909292,183.94218994452604 12.536363636347232,184.2470900282533 11.518181818188168,184.55198876480063 11.5,184.6905786542302 14.763636363612022,184.4549756765373 14.472727272746852,187.6424771997772 14.936363636370515,187.79491923579917 14.67272727272939,187.80877758599308 14.627272727288073,188.97286906888985 18.18181818179437,189.36089519962843 19.39999999999418,189.77663506157114 19.527272727282252,189.98450405331823 19.118181818164885,190.89912017900133 19.18181818179437,191.12084347494238 20.79999999998836,190.677396170664 21.927272727247328,190.7466849998018 23.29999999998836,191.20398952728647 24.136363636382157,191.19013185883523 24.92727272727643,190.9129779058494" stroke="#4dd2ff" stroke-linecap="round" stroke-linejoin="round" stroke-width="0.5"><title>2022-05-04 7.1km</title></polyline><polyline fill="none" points="58.458729554957245,190.15573620855866 60.09166983643081,190.12442631281738 61.74515024723951,189.5451909743424 63.80943324457621,190.42186981435225 64.89806009887252,190.5471088438935 65.03157093952177,190.93847951469797 66.74667173830676,189.92091168430488 67.68124762264779,191.3298482208411 67.43476607074263,193.19273633101693 67.96880943325232,194.52334344464907 69.2422974515066,196.38615525496425 70.56713579306961,197.544519988689 73.82274629137828,201.6925768686342 74.31570939521771,202.52216176470392 75.38379612020799,206.1064931672372 76.0,206.0908414231817 75.84594903007383,205.13607909638085 74.55192088248441,202.24041694065818 74.1103081019537,200.37774499098305 74.07949790795101,199.7829328102016 75.01407379232114,199.3916065325102 75.14758463294129,199.14115668401791 73.47356409282656,192.55090595768706 72.56979840243002,190.76627666159766 71.56333206541603,189.46691559854662 67.75313807529164,186.0696885679572 65.0521110688569,184.61368880828377 61.90947128186235,183.92481923090236 58.55116013693623,183.89350683275552 55.92202358311624,184.3945036939258 54.3712438189541,184.37884759075678 49.58539368581842,184.9581213144411 49.55458349181572,185.55304660445836 49.369722327857744,185.78788428507687 49.071890452643856,185.6782934554576 49.0,186.17927884734672 49.071890452643856,186.97771766165533 49.49296310383943,187.49435018424265 51.17725370862172,188.52760495893745 53.91936097375583,189.29470949513052 54.49448459487758,190.62538313525147 54.51502472424181,191.98734322463133 56.96957017877139,192.66048712716292" stroke="#4dd2ff" stroke-linecap="round" stroke-linejoin="round" stroke-width="0.5"><title>2022-05-01 6.0km</title></polyline><polyline fill="none" points="92.64363885088824,189.2677146348069 92.5697674418625,189.06127354929777 94.23187414504355,189.23017992589303 95.36456908346736,188.81729713305685 95.4384404924931,189.3427840074146 95.42612859094515,188.81729713305685 96.41108071134659,188.44194755683566 97.17441860467079,188.9862039505606 98.3071135430946,189.1175757087185 99.11969904240686,189.58675905194832 100.2277701778512,189.53045717514033 100.48632010945585,190.0371728456521 102.22229822160443,188.948669128622 102.55471956223482,189.02373875751073 103.56429548567394,190.58141995038022 103.3426812585385,193.11494234540442 103.97058823533007,194.4848925153783 104.88166894667665,195.9861847113134 106.93775649793679,197.9002972901435 111.07455540358205,203.0982287976658 112.97058823533007,208.42721590174187 113.5,208.29587127963168 113.4384404924931,207.5453270414655 111.24692202464212,201.4844615070033 111.37004103968502,200.60250714418362 112.51504787965678,199.94572721289296 110.96374829002889,193.34014101260254 109.62175102601759,190.1685431266087 107.06087551297969,187.05314101800468 103.56429548567394,184.1440874641703 99.89534883722081,182.36107440133492 97.53146374828066,181.77924172508938 94.1580027359887,181.5727840982654 90.42749658002867,181.9481612622767 90.0088919288537,182.2109243800005 90.68604651166243,182.86782894234784 92.28659370724927,183.33704366003803 96.5957592339546,182.83029166316555 97.70383036936983,183.07428370835987 99.72298221616074,184.81974668493785 100.94186046512914,184.4068444082004 101.68057455541566,185.30771975111566 104.06908344733529,187.2032832603145 105.58344733246486,189.66182816831133 103.62585499315173,190.78785767835507 103.30574555401108,192.42057637233665 103.49042407661909,193.5278061542558 105.23871409028652,196.38026991715742 107.23324213409796,198.20054668723606 111.24692202464212,203.49228402024892 112.9213406292547,208.40845239561895 113.47537619702052,208.3146348083974 113.42612859100336,207.5453270414655 112.04719562243554,204.1678033943026 111.25923392613186,200.99657288788876 111.40697674421244,200.64003728656098 112.50273597810883,199.94572721289296 111.12380300959921,193.9406681393957 109.58481532151927,190.0371728456521 106.85157318742131,186.80915935976373 103.44117647060193,184.01270871513407 100.38782489742152,182.49245547210012 95.6231190150429,181.68539740577398 94.02257181939785,181.5915529922495 89.45485636117519,182.2672306662571 86.72161422710633,182.37984313703055 86.5,184.10655069756467 88.58071135432692,185.1388062857659" stroke="#4dd2ff" stroke-linecap="round" stroke-linejoin="round" stroke-width="0.5"><title>2022-04-30 10.1km</title></polyline><polyline fill="none" points="133.4011428571539,190.86965967351716 134.90285714287893,190.96373249154567 136.71314285715926,190.30522038508934 139.02742857142584,191.32434391084098 139.94285714285797,191.2302715272599 140.2102857143036,191.60656038170418 141.8765714285837,190.71287139152992 142.76114285716903,192.170990263352 142.48342857146054,193.8956118452188 143.19314285714063,195.62019533774583 144.36571428569732,197.28203066841525 145.61028571426868,198.3010631428624 149.1485714285809,202.83167730643618 150.39314285712317,206.67230352715706 150.55771428570733,206.97014011793362 151.0,206.8604109798107 150.85599999997066,205.63770443864632 149.1485714285809,200.9975156955552 149.2102857143036,200.5115340323464 150.09485714283073,200.16664198494254 150.20800000001327,199.9314874428892 148.95314285712084,194.4757032710986 147.81142857141094,191.95149023860722 144.88000000000466,188.53348166994692 142.47314285713946,186.5892265505463 140.16914285713574,185.4289222024454 136.6720000000205,184.67628313532623 134.326857142878,184.6135628855409 131.87885714287404,184.8487635623096 130.8708571428724,185.1780433194799 129.7600000000093,185.11532347282628 124.94628571430803,185.67980027927842 124.65828571427846,185.75819951297308 124.48342857143143,186.32267167180544 124.0,186.2599527446 124.10285714286147,185.00556361989584 128.09371428572922,184.69196318987088 128.14514285718906,183.547310931237 128.49485714288312,183.02985988207365 129.16342857145355,183.42186856758053 128.57714285716065,184.55084258540592 128.34057142859092,186.79306202028238 130.52114285717835,187.49864222958422 129.16342857145355,190.39929388318706 129.53371428573155,191.59088171561598 129.47200000000885,192.7197376256736 131.31314285716508,193.2057677833509 132.7840000000142,194.1778190231489 133.99771428570966,192.6413453814166 132.86628571432084,192.0455617533371 133.08228571430664,191.089162739343 133.36000000001513,190.9950900723852" stroke="#4dd2ff" stroke-linecap="round" stroke-linejoin="round" stroke-width="0.5"><title>2022-04-28 7.1km</title></polyline><polyline fill="none" points="177.018943170493,192.67204999581736 177.11316051847825,192.77463434618403 177.26794616151892,192.6515331010196 178.09571286142454,192.67204999581736 179.13883349951357,192.29248610834475 179.7108673978364,192.67204999581736 180.1348454636318,192.692566882346 180.57901296112686,192.9387688783463 181.21161515454878,192.9387688783463 181.44042871386046,193.21574470565974 182.48354935196403,192.55920697248803 183.02193419744435,193.55426867761707 182.8738783649169,194.6621496305379 183.2372881356132,195.64691253192723 183.72856430709362,196.4572760998053 184.8995513459813,197.55483664153144 187.2078763708996,200.49864428456567 188.0221834496624,203.01151662489428 188.2173479561461,203.23715625780824 188.5,203.13459291183972 188.41924227320123,202.65254242809897 187.6520438684238,200.91917438844393 187.1944167497859,199.30883304640884 187.22806580261386,198.898546884775 187.9010468594497,198.6113446113195 186.89830508474552,194.42621403352678 186.31954137589491,193.31832796435629 184.81879361915344,191.50257384222277 183.62088733799465,190.43565996433244 182.38260219343647,189.61494181916714 181.29237288137665,189.06094961744748 179.56954137590947,188.64032189644786 177.79287138587097,188.54798851854503 175.98928215356136,188.69161814543259 175.84795613163442,188.32228400323584 174.11166500500985,187.19374646862707 172.5772681954404,186.7936226289239 169.1854436690046,187.03985305501556 168.8018444666086,187.19374646862707 168.00772681956005,187.0603722036176 167.56355932205042,187.25530370427805 165.64556331008498,188.74291434288534 164.6226321037102,189.18405951479508 162.00473579265235,189.0814679542782 161.72208374876936,188.94809861761314 161.5,189.24561435221767 164.51495513461123,189.43027841944786 165.1273678963189,189.2763917431039 166.09646061815147,188.7531735761877 168.0279162512743,187.0603722036176 168.52592223332613,187.12192959996173 169.7440179461846,186.84492073220827 172.90029910270823,186.76284374219176 174.77118644070288,187.3886774603816 175.9085244267335,188.41461778913072 175.87487537390552,188.7121366305728 175.30957128616865,188.9583578097263 175.38359920241055,189.46105569908468 175.15478564309888,190.4254010689001 174.6836989033036,191.0101548210987 174.02417746762512,192.51817308401223 174.38758723830688,193.09264452335265 174.37412761716405,193.92356499796733 175.25573280161188,194.1184703130566 176.5613160518551,194.83653611067348 177.30832502493286,193.75943362957696 178.6677467597474,192.97980242900303 179.55608175475209,192.66179154943893 178.63409770689032,191.90266080211586 177.96111665006902,192.1899007898428 177.03240279163583,192.22067640702517 176.62861415754014,193.27729468559482 176.80358923232416,193.5132355883834 177.3554336989182,193.77995007948994 178.1899302093807,193.22600304080697 178.02168494518264,192.86696008541549 177.07278165506432,192.83618485755142" stroke="#4dd2ff" stroke-linecap="round" stroke-linejoin="round" stroke-width="0.5"><title>2022-04-27 10.1km</title></polyline><polyline fill="none" points="16.904907571180956,219.2986982525763 18.292283779359423,219.1854046026201 20.992712470208062,218.3734627833619 21.61207684886176,218.86440518641757 22.86319289371022,219.10987542679504 23.643592010776047,219.63857838358672 24.72128602961311,219.67634276676836 25.055742794065736,220.05398576437437 26.86428677965887,218.90216988050088 27.48365115831257,219.26093371774186 28.15256468721782,220.60156541712786 27.966755373665364,223.05619364386075 28.610894327430287,224.60446465029236 30.283178149780724,226.8890618954465 31.596230632450897,227.96525789671432 35.820295694778906,233.4404503509504 37.43064307922032,238.5 38.13671847086516,238.34897260829894 38.09955660815467,237.78261772939732 36.50159651125432,233.70476192139176 35.956555858050706,231.5524889592998 35.88223213260062,230.75953387295158 37.14573546504835,230.06097266229335 35.60971180602792,223.30165294269682 34.1727864475688,220.24280669446307 31.459970469179098,216.97615114587825 29.230258706054883,214.99344359507813 27.89243164821528,213.99263247854833 24.1762453764386,212.1798154107164 19.196555772185093,211.5 14.873392409266671,211.83990831972915 14.0062822792097,212.1798154107164 14.13015515494044,213.12399532782 13.684212802298134,214.80461212427326 12.916200972773368,215.729882708285 12.371160319569753,217.29715700777888 11.863281529105734,217.97693050980888 12.656067933770828,217.9958130369123" stroke="#4dd2ff" stroke-linecap="round" stroke-linejoin="round" stroke-width="0.5"><title>2022-04-25 5.0km</title></polyline><polyline fill="none" points="64.50575287643005,222.76169568800105 65.68759379691619,222.6690465540196 66.64657328664907,222.24697615825426 67.05852926464286,222.55580849621765 67.68659329666116,222.6587521954716 68.05802901450079,222.874933291052 68.65232616310823,222.864638973846 68.92921460731304,223.13229054963813 70.00300150075054,222.48374778376092 70.55677838920383,223.37935230249786 70.41495747872978,224.59405527055787 70.76613306654326,225.55138563603032 71.47523761881166,226.63222101671636 72.47473736868415,227.51745968870455 74.77088544273283,230.47157581272768 75.70960480239592,233.2608463137367 76.0,233.15792389909257 75.9797398699302,232.75652450806592 75.56103051526588,231.43908904107593 75.14232116058702,230.69801671535606 74.77763881941792,229.38052835579583 74.74387193597795,228.96880630079613 75.46648324164562,228.618839954539 74.5615307653934,224.78964034658202 73.85242621311045,223.24552733415476 73.01500750375271,222.17491501171025 72.00200100052461,221.08369098385447 70.45547773886938,219.82772514417593 68.91570785392832,219.04530464013442 66.61280640319455,218.54084298362068 65.1135567783931,218.48936702528226 63.56028014009644,218.70556570298868 63.36443221611262,218.2319864582314 61.60180090046197,217.14067849873754 59.940470235131215,216.73915368625967 57.10405202601396,216.91417770912813 56.32741370686563,217.14067849873754 55.28739369685354,217.08920113443673 53.74762381191249,218.33493884010386 52.545522761385655,219.01441937523123 51.72161080542719,219.1791405729673 49.50650325164315,219.0555997242882 49.128314157089335,218.90117324481616 49.0,219.15855045218996 51.34342171087337,219.39533634175677 52.41720860431087,219.30268112393605 53.47073536769312,218.76733658630837 55.294147073538625,217.2127467219252 55.59804902452743,217.08920113443673 56.42871435720008,217.17156489252375 58.23861930964631,216.97595075100617 60.02826413208095,217.01713273756468 60.953476738373865,217.16126942999472 61.797648824431235,217.562790936252 62.0745372686506,217.28481484379517 60.68334167082503,216.8318135375266 58.81940970485448,216.80092693903862 56.651575787895126,216.99654174842726 55.976238119081245,217.18186035297185 57.40120060031768,217.12008755921852 58.306153076540795,216.9244732212901 58.83966983492428,217.05831469105397 60.10930465233105,216.99654174842726 61.29114557278808,217.34658743905675 61.66258129065682,217.7172214474449 61.27763881943247,218.5820237130938 61.11555777890317,219.89978959002474 62.47298649327422,220.33217413781313 61.77063531767635,222.04108689939676 62.44597298649023,221.81460775963205 63.641320660331985,221.84549133759356 64.51250625314424,222.0719703409195 64.37068534267019,222.55580849621765" stroke="#4dd2ff" stroke-linecap="round" stroke-linejoin="round" stroke-width="0.5"><title>2022-04-22 10.1km</title></polyline><polyline fill="none" points="100.52986348126433,222.47824975055846 101.60494880547049,222.46654417956597 101.68174061432364,222.24413788385573 102.81825938564725,221.92808537247038 103.31740614335285,222.27925472378047 104.03156996588223,222.38460511670928 104.52303754267632,222.6772440980276 105.09897610923508,222.6304219597514 105.3754266211763,222.95817613810868 106.65017064847052,222.23243226585328 107.31825938567636,223.29763388028005 107.18003412970575,224.64373994928974 107.57167235494126,225.73230734373647 108.41638225255883,226.93790127435204 109.46075085326447,227.87426770837556 112.11006825938239,231.2801737732152 113.1313993174117,234.32308306639607 113.5,234.32308306639607 113.32337883961736,233.25808287830296 112.66296928329393,231.80684251559796 112.1177474402939,229.93422092765468 112.10238907849998,229.54798524307625 112.77815699658822,229.24367653793524 112.90102389079402,229.04470460270386 112.0025597269705,225.18217367409306 111.51877133108792,223.8594906274193 111.08105802049977,223.05181985062882 109.41467576794093,221.02674102119272 107.1262798634998,219.0952419100904 105.3677474402939,218.2172666119659 103.501706484647,217.79583377188828 101.32849829352926,217.64364894196115 99.32423208194086,217.85436629298056 99.06313993176445,217.32757148723613 97.1279863481177,216.09836509297747 95.26194539249991,215.67691693360393 89.78668941979413,216.09836509297747 87.95904436861747,217.63194240013763 86.52303754264722,218.29921153264877 86.5,218.6386964053745 87.88993174061761,217.95972468285618 90.17064846417634,216.00471020975965 92.29778156997054,216.08665824078707 93.21160409555887,215.85252070362912 93.9948805460881,216.00471020975965 95.69965870308806,215.96958958977484 96.59812286691158,216.25055395721938 97.16638225258794,216.66029123228145 96.73634812288219,217.71388814360762 96.59812286691158,219.31766021969452 98.1262798634998,219.7742004069696 97.30460750852944,221.6822655678734 98.57935153585277,221.2959752091847 101.02901023891172,221.79932274694147 102.32679180888226,221.37791580219346" stroke="#4dd2ff" stroke-linecap="round" stroke-linejoin="round" stroke-width="0.5"><title>2022-04-21 8.1km</title></polyline><polyline fill="none" points="137.7457337884116,222.46655371949964 139.005119453941,222.38461472246127 139.31996587029425,222.25585320873506 139.45051194538246,221.99832932798017 139.3660409556469,222.39632030053326 140.30290102388244,221.92809534491607 141.95392491470557,222.61872583703735 142.66040955632343,222.60702030364337 142.8754266211472,222.91136340814774 144.08873720135307,222.16220829281883 144.77218430035282,223.15717783267974 144.64931740614702,224.69056822432685 145.1254266211763,225.80254366093868 145.69368600685266,226.69210873970587 147.06058020479395,228.00302201050727 149.67918088738224,231.36210273074175 150.66979522185284,234.36989579635338 151.0,234.27627033643512 150.8848122867057,233.7028111139516 150.07081911264686,231.73662238702673 149.58703071673517,229.67673450511938 149.67150170647074,229.46606005127614 150.34726962458808,229.1968638079743 150.08617747438257,227.59336477981924 149.3796928327647,224.7725039803263 148.56569965870585,223.06353436459176 146.80716723549995,220.92139895540095 144.6186006825883,219.11866663274486 142.95221843002946,218.2641052105173 141.42406143344124,217.83096655500412 138.92832764505874,217.6202492885932 136.68600682594115,217.84267304746027 136.67064846417634,217.7139015010289 136.56313993173535,217.33929174855803 134.5127986347943,216.03984551082613 132.63907849832322,215.630104203643 129.1143344709999,215.86424244614682 128.28498293514713,216.08667290541416 127.70904436861747,215.9227768598139 127.36348122867639,216.00472494021597 125.46672354949987,217.51489036978455 124.01535836179391,218.21727956509858 124.0,218.56847098903745 125.3822525597352,217.87779251073516 127.64761092152912,216.00472494021597 128.6228668942058,216.13350026237094 130.68856655291165,215.91106998176474 132.68515358361765,215.91106998176474 133.8600682593824,216.12179342667878 134.68941979520605,216.70713233221977 134.21331058020587,217.7021949827249" stroke="#4dd2ff" stroke-linecap="round" stroke-linejoin="round" stroke-width="0.5"><title>2022-04-19 7.2km</title></polyline><polyline fill="none" points="165.0375152604247,218.30025505603408 165.07653282466345,218.08217834392417 166.98839347314788,217.96322720709577 168.91325997633976,217.24951737641095 171.87859485967783,218.55798145832523 173.06212764204247,218.47868109847332 173.32224473706447,218.99413229891798 175.2861288045533,217.72532450340805 175.7283278660907,218.08217834392417 176.534690860688,219.54923058227723 176.26156791092944,221.98766107604024 176.9248665032501,223.63307201512362 177.88729975483147,225.15951306728675 180.12430677207885,227.28063223356003 184.6763559351093,233.16798593242856 186.35411119801574,238.40089455773705 186.5491990193259,238.40089455773705 186.90035709759104,238.24232564333943 186.84833367861575,237.19180015384336 185.0925432871154,232.9499420549182 184.53329153280356,230.43249150842894 185.8989062817418,229.42152873846499 184.4422505495604,223.05817251437838 182.95958310787682,219.2518568900341 180.0332657888066,215.78243096662482 176.13150936341844,212.4516673786202 174.7919063240115,211.81722347876348 173.99854918417986,211.5 173.86849063666887,213.06628101872047 174.4797658099851,213.85932522335497 177.04191919602454,215.98068716075068 178.62863347568782,218.20112933750352 179.8511838223203,220.22327430228324 180.4234414313687,222.44362107059715 184.15612174503622,221.90836347072036 184.8844496110978,224.02955247912905 185.96393555548275,229.48099742325576 184.7543910635868,230.35320068483998 185.7168243152264,234.05997859954368 187.18648590211524,238.16304109067278 186.48416974552674,238.5 186.0029531197215,237.8459022432653 184.66335008031456,233.94104670947127 183.85698708574637,232.375096797281 180.33240044809645,227.7563910239478 177.74423535258393,225.2388080615492 176.0924917991506,222.36432383152714 176.00145081590745,221.59117241269269 176.39162645844044,219.80695372440096 178.47256321864552,218.53815637429943 179.825172112789,220.2034495525877 180.5014765598753,222.48326966632158 183.85698708574637,221.67047027274384 182.64744259385043,218.97430730253836 179.1748793752049,215.0092280054887 176.0924917991506,212.51114628523646 174.0115550389164,211.5198264972496 173.9335199103807,213.3041949489707 175.1040468380379,214.4541041965931 174.0115550389164,215.3660916630397 172.65894614477293,215.0092280054887 172.19073537370423,215.32644020922453 171.46240750764264,216.21859406828298 171.64448947415804,217.9434020036715 168.38001993155922,218.47868109847332 167.66469792017597,219.19238204408612 165.6357845790044,220.3620474380732 164.1271054278186,222.28502652872703 162.81351409791387,221.57134793775185 164.73838060113485,216.9323113511491 166.42914171880693,216.9521367576017 168.13290869124467,216.2978962433408 168.88724826680846,217.24951737641095 167.24851056816988,218.2407796368425 164.68635718213045,218.32008018775377" stroke="#4dd2ff" stroke-linecap="round" stroke-linejoin="round" stroke-width="0.5"><title>2022-04-10 10.4km</title></polyline><polyline fill="none" points="13.830224860779708,248.35084018868656 13.974774892034475,248.13049885035434 15.591107059211936,248.23065406445676 17.956471206329297,247.32925351746235 18.758066833979683,247.93018812041555 20.900035478320206,248.65130486576527 22.095858463813784,248.53111910351436 22.279831230815034,249.09198475509038 24.38237713937997,247.89012592618383 25.578200124844443,249.51263192448823 25.354804622067604,252.0565079605076 25.985568394622533,253.67894619907747 27.41792779485695,255.88221514147153 29.4547691437474,257.74494092480745 33.856974639813416,263.4330495669783 35.47330680701998,268.47997303446755 36.169775139249396,268.5 33.77812916820403,261.0697198622438 33.76498825629824,260.44883582370676 35.15792492075707,259.74783307160396 33.489029105810914,252.21674994853674 32.14865608909167,249.47257036571682 29.297078200645046,245.96712168193335 25.210254590871045,242.50161418764037 23.081426858436316,241.5 23.015722298820037,243.44312235416874 26.16954116168199,245.96712168193335 27.733309681119863,248.71139769255387 25.696468332229415,249.77303166424826 24.46122261096025,247.97025029864017 22.437522173975594,249.1520773164375 20.019594379118644,248.2106230296995 18.968321424821625,248.13049885035434 17.62794840816059,248.51108812908933 15.972193505149335,249.69290873980935" stroke="#4dd2ff" stroke-linecap="round" stroke-linejoin="round" stroke-width="0.5"><title>2022-04-09 5.2km</title></polyline><polyline fill="none" points="51.315351578057744,248.33587961900776 52.78822709037922,248.21560425768257 52.82767911304836,248.015145000114 55.54986867605476,247.23335004969704 56.299457106448244,247.93496118443727 57.509319134493126,248.09532875144214 58.41671565544675,248.5764299069342 59.54767363818246,248.5764299069342 59.87644049359369,249.05752874397876 61.88849364887574,247.77459335976164 62.480273988621775,248.31583373555623 63.1509583737643,249.57871653450275 62.914246237807674,252.04429881557007 63.5586292744847,253.7681657039575 65.18931287745363,256.07329003035557 67.01725659365184,257.71691139406175 71.37012975962716,263.4292874016537 73.07971740790526,268.5 73.68464842191315,268.39979078290344 73.56629235393484,267.2373565141097 72.23807425799896,264.13078473016503 71.29122571431799,260.5430751098538 71.50163650180912,260.18229270686425 72.64574515871936,259.64111665801465 71.94875942519866,255.8928909157039 70.47588391284808,250.78144720534328 69.60793941447628,249.07757447852782 68.06931053104927,247.23335004969704 64.34766972754733,243.64503314968897 62.84849286676035,242.5023576757958 60.639179598219926,241.5 60.468220833397936,242.84315699284343 60.70493296929635,243.58489266136166 63.51917725181556,245.87020574878989 65.30766894543194,248.5764299069342 63.308766464324435,249.67894464386336 61.8490416262066,247.91491522046272 60.04739925841568,249.01743726277346 57.36466171804932,248.11537467924063 54.95808833630872,248.47620069074037" stroke="#4dd2ff" stroke-linecap="round" stroke-linejoin="round" stroke-width="0.5"><title>2022-04-07 5.0km</title></polyline><polyline fill="none" points="88.81050450686598,247.6497524219012 88.69223620451521,247.89012592524523 89.02075926656835,248.0904367355397 90.55824719689554,248.0904367355397 93.22585446070298,247.30922230073338 94.02745073207188,247.93018811945512 95.43352943760692,248.1505299001874 95.94602541442146,248.4910571495493 97.15499028269551,248.5511500728826 97.40466780986753,249.0318921564467 99.48093356197933,247.78997036921646 100.11169784108642,248.310778162333 100.82130765507463,249.7329702089046 100.59791197290178,252.2968708447297 101.74117222879431,254.60031912942213 102.88443248471594,256.1025393581367 104.44820226004231,257.34435766900424 109.08694789608126,263.4130215835103 110.70328136134776,268.5 111.30776379551389,268.43991909125907 111.26834102804423,267.41853810810426 109.21835712090251,262.7120396582395 108.82412944643875,260.3887500653509 110.13822169462219,259.80791921357013 110.23020815197378,259.2471138033143 108.74528391152853,253.0780462229377 107.77285564789781,250.2337372299662 106.68215908194543,248.69136675326445 105.94626742295804,249.11201561183407 106.36677694236278,248.41093319544598 104.29051119025098,245.76680660721468 100.53220736052026,242.62180721408367 98.21940500370692,241.5 98.08799577888567,242.86219283301762 98.3376733060577,243.603378177977 101.1235488721577,245.74677507773595 103.05526447697775,248.33080917699408 101.82001776370453,249.31232396867563 100.84758950007381,249.69290873863065 99.6911883216817,247.9902813806184 99.20497418986633,248.07040567258082 98.81074651540257,247.62972127051762 98.17998223632458,245.50639640979352 99.40208802706911,244.36458982706245 101.14983071715687,245.82690117162565 103.04212355450727,248.41093319544598 101.08412610471714,249.6328165031082 100.86073042251519,249.6728779974219 99.52035632941988,247.87009482205758 97.56235887962976,249.0318921564467 97.10242659278447,248.65130486464477 95.9066026469518,248.5311191024157 93.08130431341124,247.46947191431536 91.64894376287702,248.1705609470664 89.75665092552663,248.2907471436847" stroke="#4dd2ff" stroke-linecap="round" stroke-linejoin="round" stroke-width="0.5"><title>2022-04-03 6.2km</title></polyline><polyline fill="none" points="149.0983606557129,259.3734271231733 149.67213114758488,256.99934175964154 149.4918032787391,256.02470412857656 151.0,255.27497767958994 151.0,254.55023781881027 146.47540983610088,251.65123616644996 143.9016393442871,250.9514670284334 138.37704918032978,251.0264424814959 133.393442622968,251.80118618406414 131.21311475412222,251.62624447930284 127.31147540983511,254.77515753759508 124.14754098356934,256.3495841870754 124.0,257.02433236772777 126.75409836065955,255.84976836116402 131.2950819671969,251.85116948313953 132.21311475412222,251.55126938764442 136.16393442626577,251.6012527870771 138.52459016395733,251.0764260916767 144.180327868904,251.57626108982367 147.0,252.77585689423722 147.606557377032,252.35100136935944 147.06557377049467,251.80118618406414 142.606557377032,250.87649153036182 134.8852459016489,251.426310801231 133.37704918032978,251.8761611250884 131.37704918032978,251.62624447930284 126.42622950818622,255.4998960886005 124.0,256.474537829934 124.22950819676043,257.02433236772777 127.196721311484,255.54987790199084 131.196721311484,251.97612764290534 132.4098360656062,251.5262776804302 133.14754098362755,251.65123616644996 135.81967213115422,251.0014506688094 143.21311475412222,250.6265728768194 147.62295081972843,251.92614439397585" stroke="#4dd2ff" stroke-linecap="round" stroke-linejoin="round" stroke-width="0.5"><title>2022-03-24 5.1km</title></polyline><polyline fill="none" points="177.5247747815738,267.86339030943054 176.77927041694056,267.69665831222665 175.71568419007235,268.5 175.2385613967199,268.25748265611765 175.0,267.6511858854137 174.69185819593258,264.9076320847671 174.33401610091096,264.0587775482127 173.9065935985418,263.75561289883626 171.4315191079222,263.69497982279427 170.16913171712076,262.4823080667411 182.38546323904302,246.15481635997276 176.53076896205312,241.5 167.61453676098608,259.6930890433068 173.11138894292526,265.30173987273884 173.44935092155356,265.0288962388513" stroke="#4dd2ff" stroke-linecap="round" stroke-linejoin="round" stroke-width="0.5"><title>2021-10-26 5.0km</title></polyline></svg>