<?xml version="1.0" encoding="utf-8" ?>
<svg baseProfile="full" height="300mm" version="1.1" viewBox="0,0,200,300" width="200mm" xmlns="http://www.w3.org/2000/svg" xmlns:ev="http://www.w3.org/2001/xml-events" xmlns:xlink="http://www.w3.org/1999/xlink"><defs /><rect fill="#222222" height="300" width="200" x="0" y="0" /><text fill="#FFFFFF" style="font-size:12px; font-family:Arial; font-weight:bold;" x="10" y="20">Over 5km Runs</text><text fill="#FFFFFF" style="font-size:4px; font-family:Arial" x="10" y="280">ATHLETE</text><text fill="#FFFFFF" style="font-size:9px; font-family:Arial" x="10" y="290">Wenz</text><text fill="#FFFFFF" style="font-size:4px; font-family:Arial" x="120" y="280">STATISTICS</text><text fill="#FFFFFF" style="font-size:3px; font-family:Arial" x="120" y="285">Number: 45</text><text fill="#FFFFFF" style="font-size:3px; font-family:Arial" x="120" y="290">Weekly: 3.0</text><text fill="#FFFFFF" style="font-size:3px; font-family:Arial" x="141" y="285">Total: 337.9 km</text><text fill="#FFFFFF" style="font-size:3px; font-family:Arial" x="141" y="290">Avg: 7.5 km</text><text fill="#FFFFFF" style="font-size:3px; font-family:Arial" x="167" y="285">Min: 5.0 km</text><text fill="#FFFFFF" style="font-size:3px; font-family:Arial" x="167" y="290">Max: 21.4 km</text><polyline fill="none" points="38.21935902989935,50.00007689861377 38.06734517108998,49.87530509608041 38.383066262467764,49.10884588999761 37.28388912949595,48.556278171090526 35.64681680381182,48.46715402332484 33.40168904289021,48.93059861456277 34.594413165876176,46.25684653135977 35.13230835861759,45.57948321796721 35.54157644006773,44.22474108444294 35.36617583371117,43.547362264107505 36.488739714201074,42.99475992422231 36.57059333045618,42.620414449018426 36.40688609791687,42.29954564232321 33.881117366836406,40.67735780919611 31.682763100921875,39.87516605757264 30.46665223041782,39.7503800224149 25.391728020826122,40.08908456686913 23.69618882634677,40.463440717649064 22.62039844089304,40.249523110556765 19.322867042035796,42.78084841740929 16.972498917311896,43.92170383013581 12.283456041594036,43.79692348350363 11.804027717647841,43.51171060404886 11.5,44.01083254173864 15.124945864052279,44.31386949180887 17.545474231272237,44.17126399715926 19.74382849718677,42.97693398503179 22.491771329630865,40.463440717649064 23.1699870073935,40.231696620008734 24.245777392818127,40.427787818924116 30.267864876572276,40.142564113666594 32.54807275877101,40.60605216932163 33.7992637505522,41.28345343565161 34.44239930709591,40.71301060770929 35.62343005632283,41.87171876244247 36.441966219194,42.29954564232321 36.488739714201074,42.852152310289966 35.506496318790596,43.458233087127155 35.670203551329905,44.17126399715926 35.27262884369702,45.739911838274566 34.44239930709591,46.9342046759848 33.55370290169958,49.09102117857401 35.62343005632283,48.46715402332484 37.70485058470513,48.66322703030164 38.5,49.05537174495839 38.3129060199135,50.24961997757782" stroke="#4dd2ff" stroke-linecap="round" stroke-linejoin="round" stroke-width="0.5"><title>2022-06-29 5.2km</title></polyline><polyline fill="none" points="57.09999999999127,42.79642399401928 57.88876404493931,42.73476587896948 59.122471910115564,42.31343343807748 59.66853932583763,42.65255494338271 60.62584269660874,42.94029264022902 61.13146067416528,42.95056895661037 61.293258426958346,43.17664739532847 62.344943820207845,42.570343875704566 62.70224719100224,42.78614764665326 63.0662921348121,43.56714416442264 62.89101123592991,44.62558095058921 63.25505617978342,45.612065431712836 64.05730337077694,46.814317685744754 64.99438202247256,47.59525273785039 67.27977528089832,50.544202652730746 68.12247191010101,53.15393298929848 68.5,53.17448151910139 68.24382022469945,52.10594703093011 67.4280898876168,50.33870642388865 67.23258426965913,49.40368816526461 67.26629213482374,48.99268572434812 67.85280898875499,48.74608267559597 67.93370786517335,48.571404797206924 66.81460674156551,44.132331579610764 66.2483146067243,43.14581857611847 63.7808988764009,40.53557786748206 62.93146067413909,39.9086892098494 61.01011235953774,38.96320326697605 58.8865168539196,38.57267136681912 57.54494382021949,38.552116973733064 56.05505617977178,38.75766053312327 55.8325842696504,38.28490911232075 54.69325842696708,37.54494159909882 54.052808988752076,37.19550877628717 52.6303370786336,36.82551848089497 48.794382022475475,37.19550877628717 47.72247191010683,37.1543988755875 45.65955056178791,38.73710621435748 44.641573033703025,39.22013052337934 41.95842696628824,39.137913941689476 41.661797752807615,38.96320326697605 41.5,39.20985345787631 41.8101123595261,39.29206992401305 43.846067415739526,39.41539437557003 45.0123595505429,39.33317810753215 45.93595505616395,38.8604320032573 47.553932584269205,37.4627223260286 48.113483146051294,37.174953830079176 48.67977528087795,37.277728478667996 50.54719101122464,37.08245646985597 52.313483146048384,37.061901478202344 53.63483146067301,37.26745102308632 54.09999999997672,37.586051186091936 54.221348314604256,37.884094704142626 53.877528089884436,38.38768153183992 53.75617977527145,38.87070913893331 53.58764044943382,39.857304553108406 53.749438202241436,40.10395043485187 55.04382022470236,40.37114879860019 55.40786516852677,39.33317810753215 56.729213483136846,39.795642896970094 59.50674157303001,39.51816452481944 59.95842696628824,39.795642896970094 60.59887640448869,40.494470649809955 61.58314606742351,40.17588859310126 63.194382022469654,41.53241778797019 64.16516853931535,42.77587129726089 63.632584269638755,43.330791212734766 63.12696629212587,43.54659177717258 62.41910112359619,42.632002188845945 61.36741573033214,43.228028719360736 61.19213483144995,42.99167420157028 60.57191011235409,43.00195050766342 60.221348314589704,42.78614764665326 59.17640449437022,42.79642399401928 57.44382022469654,43.865152852104075 56.59438202246383,44.87220385346154 55.569662921334384,44.327576690709975 56.473033707850846,42.11818064293766 56.6550561797485,42.0154157147299 57.066292134826654,42.09762767380016 56.641573033703025,43.25885748905057" stroke="#4dd2ff" stroke-linecap="round" stroke-linejoin="round" stroke-width="0.5"><title>2022-06-27 11.0km</title></polyline><polyline fill="none" points="95.88374609281891,41.50773277580083 95.96814138014452,40.983249603476 95.02031738398364,40.706161900572624 94.26075979802408,40.725953931047115 93.24152440491889,41.0228334338608 93.46874248617678,40.26083911420574 94.15039672997955,39.241529590141 94.3970906468021,38.31126754658544 94.32567924981413,37.91540603167596 94.96838182256033,37.64819771148541 94.8580187545158,37.27212428780331 93.97511421014497,36.6684214747911 93.09870161097206,36.163680659548845 91.84575619138195,35.86677188271278 88.43099302715564,36.09440210496177 88.06095215195091,36.25275294380481 87.28841067565372,36.12409292602024 86.91187785526563,36.26264985432499 86.15881221447489,37.004912479580526 84.94481846597046,37.84612993964038 84.19824477037764,38.113337186612625 84.28913200288662,38.707125881672255 83.87364751142741,38.75660794995201 84.21772060592775,38.776400763388665 84.17876893484208,38.95453572634506 83.99050252464076,39.01391390426579 84.3345756191411,39.08318835472892 84.39949507093115,39.291011121888005 84.23719644146331,39.52852178262037 82.91283962491434,39.94416268461282 80.46537629236991,41.13168880347803 78.29057465736696,41.339502932351024 76.6870641981368,40.88428988841406 76.70654003367235,42.18064640720695 76.48581389756873,42.51709977748396 74.62262563117838,43.94205329365286 74.2525847559591,44.397238095622015 73.09052656887798,45.089902554420405 73.01911517191911,45.27790979924612 73.14246213033039,45.406545921952784 73.6098821832129,44.901894592450844 73.90201971628994,44.901894592450844 73.86955999038764,45.15916846488835 73.40213993749057,45.683607199742255 72.65556624188321,45.98045684054887 71.90899254629039,46.70278349813816 71.5,46.79183673661828 71.74020197162463,47.28657402035242 72.14919451791502,47.52404615260821 73.65532579946739,47.53394079997088 74.23310892042355,47.385520881169214 75.0900456840609,47.543835445325385 76.62214474634675,49.136847445202875 77.64787208464986,49.73050334481741 77.77771098822996,50.205422916485986 77.71279153643991,51.18493008153018 78.91380139456305,51.29376300943113 80.53029574415996,52.11494917305026 82.5363068045408,54.13322811728722 86.36655446022633,53.22303411807661 87.14558788169234,52.73825001970545 88.52188025969372,51.46195887993599 88.65821110844263,50.729807961128245 89.09317143545195,49.72060913842506 89.10615532578959,49.12695311963398 89.76184178890253,47.66257103474345 90.02801154124609,46.534571386455355 90.66422216879437,45.3471754454913 91.42377975475392,44.30818053037001 91.84575619138195,42.89313317910273 92.87797547488299,42.992088860562944 93.31293580187776,42.784281700001884 93.38434719885117,42.22022927587386 93.22854051455215,41.0624172324533 94.56588122143876,40.725953931047115 96.81209425344423,41.032729386475694 97.58463572974142,40.706161900572624 98.5,41.48794105933848 96.51346477519837,42.61605621398121 95.74092329885752,43.55613245105269 95.54616494348738,43.59571421498549 94.66326039914566,43.0712532626676 95.3189468622295,41.34939882138133 95.62406828564417,40.92387379828142 96.00060110603226,40.9436657412989 96.00060110603226,41.05252128577922 95.55914883385412,42.101480574496236" stroke="#4dd2ff" stroke-linecap="round" stroke-linejoin="round" stroke-width="0.5"><title>2022-06-25 10.0km</title></polyline><polyline fill="none" points="128.28942807627027,50.15381624711881 127.97357019066112,49.957661398133496 128.31282495669439,49.01254559838708 126.92071057192516,48.602397876507894 125.43500866551767,48.54890020793391 123.45797227037838,49.083875443619036 123.83232235701871,47.728598587273154 124.65121317157173,46.26630299266981 125.06065857887734,45.998807290969125 125.51689774697297,44.233315451128874 125.42331022533472,43.5199754590285 126.45277296361746,43.12763602094492 126.48786828425364,42.62829241091822 123.43457538995426,40.50605074259511 121.76169844018295,39.98885811206128 120.33448873483576,39.84618375288119 115.67850953203742,40.14936649215815 114.13431542459875,40.50605074259511 112.70710571925156,40.32770879648888 112.19237435006653,40.50605074259511 109.44324090119335,42.770962300288375 106.9865684575343,44.00148058224295 102.28379549394595,43.85881266976503 101.67547660309356,43.537809028683114 101.5,43.98364710570604 104.86915077990852,44.35814936066163 107.71187175041996,44.19764858760027 110.40251299826195,42.55695738022041 112.59012131718919,40.6130557383658 113.08145580589189,40.45254819638649 115.23396880415385,40.541719088854734 117.37478336223285,40.20286922109517 121.176776429842,40.34554300719901 122.67417677646154,40.77356299023086 123.48136915077339,41.50475902202743 122.82625649916008,42.93146565185452 122.45190641249064,45.26764826173894 124.66291161178378,46.33763504373928 123.46967071059044,49.083875443619036 125.63388214903534,48.53106764455151 127.4588388215052,48.69156058586668 128.5,49.11954034474911 128.195840554632,49.99332594835869" stroke="#4dd2ff" stroke-linecap="round" stroke-linejoin="round" stroke-width="0.5"><title>2022-06-23 5.0km</title></polyline><polyline fill="none" points="158.13844492437784,50.20045538170234 158.36004319653148,50.12934219159797 158.02181425484014,50.004893971614365 158.3250539956789,49.09819451758085 157.39200863929,48.56483756018133 155.44427645785618,48.58261617718381 153.75313174945768,49.11597302752489 153.43822894166806,48.99152338316344 153.85809935204452,47.622565749996284 155.07105831534136,45.91578373032826 155.50259179263958,44.31564570400951 155.44427645785618,43.444447286223294 156.44730021597934,43.05329418769543 156.50561555076274,42.591020115876745 156.38898488122504,42.27098280606879 154.72116630669916,41.204183418019966 152.27192224620376,40.01290890945529 149.7526997840323,39.799544618304935 145.6123110151093,40.06624990187993 144.04946004319936,40.421855696840794 142.67321814256138,40.24405297788326 138.89438444923144,43.07107391145837 136.9816414686793,43.90671690199815 132.45637149026152,43.746700769690506 131.76825053998618,43.497786211257335 131.54665226783254,43.746700769690506 131.5,43.92449645441957 132.16479481643182,44.12007129518315 134.52073434126214,44.33342517428537 137.7980561555014,44.12007129518315 139.8974082073546,42.96439551514777 143.01144708422362,40.368514918664005 145.50734341252246,40.4751964428724 147.4784017278871,40.17293179035187 150.3941684665042,40.22627268636279 152.0269978401775,40.54631738761236 152.75010799139272,40.77746006344387 153.41490280779544,41.31086393523583 153.4848812094715,41.68424473340565 152.92505399568472,42.55546047195094 152.5518358531117,45.382407601537125 154.25464362849016,45.86244626201369 154.60453563713236,46.253586949940654 153.46155507559888,48.92040922212618 155.66587473000982,48.40482984643313 157.88185745140072,48.689287804285414 158.5,48.95596630977525 158.19676025919034,50.004893971614365" stroke="#4dd2ff" stroke-linecap="round" stroke-linejoin="round" stroke-width="0.5"><title>2022-06-22 5.1km</title></polyline><polyline fill="none" points="188.5,50.14267756758636 187.89404402245418,50.178203477822535 188.2902460077894,49.09465679760615 186.9618040569767,48.6150499313153 185.58675010787556,48.52623355963442 183.3144151920278,48.988077718691784 183.9320241691894,47.26503145796596 184.95748813118553,45.84393712258316 185.3653431161074,44.29847111916024 185.2022011221561,43.641195784832234 186.41411307727685,42.96615116873727 186.5306430729397,42.610862459550845 183.30276219249936,40.461335335610784 180.5293482952111,39.821796522177465 175.27384548983537,40.1415665068198 174.0153215364553,40.47910023662553 172.75679758307524,40.24815624490293 172.0809236081259,40.47910023662553 168.86469572721398,43.10826625287882 166.98856279670144,43.92542355574551 162.269097971468,43.76554554698669 161.81463098834502,43.516845847902005 161.5,43.97871616114571 165.42706085453392,44.3339993764821 167.687742770795,44.13859378458437 169.2842037116934,43.250381108693546 172.75679758307524,40.35474585444899 181.47324126024614,40.35474585444899 182.53366422094405,40.71004362544045 183.33772119120113,41.45616429932852 182.94151920586592,41.98910378475557 182.7084592145111,42.98391556672141 182.4404402244254,45.382076548099576 184.79434613723424,46.0571027282931 183.33772119120113,48.97031452639931 185.43526111351093,48.45518039806484 187.29974104443681,48.6683397115703 188.2902460077894,48.988077718691784 188.09214501513634,49.98281079506705" stroke="#4dd2ff" stroke-linecap="round" stroke-linejoin="round" stroke-width="0.5"><title>2022-06-21 5.1km</title></polyline><polyline fill="none" points="38.3113537117606,79.79893777090183 38.09912663756404,79.58326894967468 38.488209606992314,78.52288968661742 37.58034934499301,78.18140894467797 35.44628820961225,78.18140894467797 33.78384279477177,78.79247882578056 33.500873362412676,78.52288968661742 34.679912663734285,75.88087315103621 35.210480349342106,75.39559632996679 35.68209606988239,73.65217271119764 35.52882096069516,73.13093637515703 36.6724890829646,72.51982783963467 36.589956331881694,71.99858490897168 33.5716157204879,69.96750590867305 31.920960698655108,69.41029918789718 30.282096069859108,69.26650334195438 25.719213973759906,69.57206923842023 24.127510916994652,69.91358282925648 22.712663755432004,69.73383899652254 19.246288209600607,72.37603698949533 16.982532751047984,73.45446273417474 12.407860261999303,73.31067338567664 11.771179039293202,72.9871465068718 11.5,73.2208049255205 11.547161572030745,73.50838368033874 12.089519650646253,73.67014632379141 15.850655021815328,73.84988225153211 17.7017467248952,73.65217271119764 19.493886462878436,72.66361845866777 22.97205240171752,69.8057365729619 25.058951965067536,70.03940329744364 30.741921397391707,69.75181339603296 32.88777292575105,70.23712081856502 33.80742358075804,70.79432239174639 34.52663755454705,70.20117221080727 35.858951965055894,71.49531299209048 36.51921397380647,71.81884526354406 36.707860262016766,72.55577551601164 35.63493449779344,72.96917275711894 35.7646288209653,73.84988225153211 35.32838427947718,75.5753287927073 34.738864628830925,76.07857776826859 33.6659388646367,78.52288968661742 33.713100436667446,78.66667066189257 35.929694323131116,78.05559992192138 38.5,78.46897176136554 38.37030567685724,79.61921378927218 37.768995633145096,80.73349665803835" stroke="#4dd2ff" stroke-linecap="round" stroke-linejoin="round" stroke-width="0.5"><title>2022-06-20 5.3km</title></polyline><polyline fill="none" points="57.16916167664749,72.73133937710372 57.910179640719434,72.71080205171893 59.15643712574092,72.28978506393833 60.56437125749653,72.92644355681477 61.1976047904318,72.92644355681477 61.291916167669115,73.13181557344797 61.66916167666204,73.01886106636084 62.34281437128084,72.52596575220014 62.659431137741194,72.74160803668565 63.05014970060438,73.47067759782658 62.89520958084904,74.69261594816635 63.25224550899293,75.55514308815327 63.8315868263453,76.51006688257257 65.05763473054685,77.68059430743597 67.26721556887787,80.5143918719441 68.1631736526906,83.21456738188135 68.47979041915096,83.1632345759499 68.38547904191364,82.67043701768125 68.17664670658996,81.8696308587314 67.44910179641738,80.25771377675483 67.2065868263453,79.02564098838775 67.9139221556834,78.55333854999844 67.13922155689215,75.20602671243614 66.64745508981287,73.93275855806496 66.24326347305032,73.20369558442326 64.76796407185611,71.42720284913594 63.218562874244526,70.09222550025152 62.160928143697674,69.42472375696161 61.049401197597035,68.95233264291892 59.095808383252006,68.56209321382266 57.667664670647355,68.47993716503697 56.01047904191364,68.67505756532773 55.7881736526906,68.21292909502154 54.12425149702176,67.16542243376898 52.60179640719434,66.76489951016993 47.758233532949816,67.13461308949263 46.14146706587053,68.4183200418629 44.59206586825894,69.17825937233283 42.00523952097865,69.07556552816095 41.63473053892085,68.90098551975461 41.5,69.13718185940161 41.85029940120876,69.29122236273179 43.15044910181314,69.38364644203466 45.0097305389354,69.31176106148632 46.90943113772664,68.1205028998047 47.892964071870665,67.17569221109079 48.71482035929512,67.26812011401125 50.64820359283476,67.03191514114587 52.53443113772664,67.0524547473251 53.76047904191364,67.31946887679442 54.25898203594261,67.62756037060899 54.777694610791514,67.39135705805165 55.87574850299279,68.23346822683015 55.88248502992792,68.66478808915053 55.30988023952523,68.88044665605412 55.43787425151095,69.15772061999087 56.03068862276268,69.56849409942151 56.724550898215966,69.80468735601244 59.47979041918006,69.53768620292612 59.924401197597035,69.75334108867173 60.60479041918006,70.46191502445072 62.86152694612974,69.78414885524398 64.07410179640283,70.64675878432536 65.2597305389354,71.80715156997394 66.37125748503604,73.2447698310607 66.74850299402897,73.96356380695215 66.91691616766911,74.54886001055274 66.01422155689215,74.88771264573006 65.09131736526615,75.02119943102298 64.7073353293381,73.8403427000012 64.08083832336706,72.99832385646732 63.09730538922304,73.52202013291753 62.91541916168353,74.74395725650174 63.750748503007344,76.38685191097466 65.10479041916551,77.7011296371711 67.29416167666204,80.52465896897047 68.196856287439,83.23510048983371 68.5,83.14270143914109 68.47305389221583,82.85523665841174 67.62425149699266,80.76080163145889 67.19985029941017,78.9845713843024 67.9139221556834,78.54307105726184 66.74850299402897,73.9841006292263 66.41167664671957,73.31664968327459 64.57934131738148,71.09859627355763 62.8413173652807,69.77387960178385 61.352544910187135,69.02421852872067 59.80314371257555,68.67505756532773 58.05164670657541,68.52101520591532 56.03742514969781,68.71613544947104 55.8555389221583,68.2745464657055 55.41766467067646,68.03834614160587 54.77095808382728,67.41189651981767 53.53143712574092,66.93948681129041 52.520958083856385,66.8059789287945 47.677395209582755,67.12434330394899 46.07410179641738,68.46966764967146 44.666167664690875,69.17825937233283 41.96482035929512,69.08583492185426 41.62125748505059,68.90098551975461 41.54041916168353,69.2398755798531 43.81062874253257,69.43499308052196 44.86152694610064,69.35283843415164 46.09431137725187,68.74694384090981 47.771706586834625,67.25785035527952 48.06811377246049,67.18596198633895 48.37799401198572,67.23731083158054 48.37799401198572,67.44270569704167 47.45508982035972,68.29508557276131 49.28742514969781,68.04861574358802 49.4423652694677,68.6853270394713 51.247754491021624,68.76748275826321 53.403443113784306,68.58263220536537 53.491017964086495,67.68917844663156 53.76047904191364,67.50432399580313 54.13772455090657,67.69944811873938 54.13098802395689,67.89457149709415 53.69985029941017,69.04475733470827 53.565119760489324,69.85603357177752 53.672904191640555,70.04087952167174 55.04715568861866,70.37976202780919 55.37050898204325,69.2809530102677 55.869011976057664,69.5274168999822 57.14895209582755,69.79441810668868 59.46631736526615,69.5274168999822 60.64520958083449,70.4721841397295 61.52769461077696,70.09222550025152 63.333083832330885,71.70446300488402 64.76796407185611,73.79926893172524 64.98353293414402,74.83637148169146 65.24625748503604,74.98012661113171 66.80913173651788,74.57966488833335 66.89670658682007,74.41537199236336 66.69461077844608,73.93275855806496 66.29041916166898,73.20369558442326 65.13173652694968,71.72500073439733 62.92215568861866,69.82522584848266 60.92140718564042,68.92152437521509 58.900449101798586,68.55182371493356 57.997754491021624,68.53128471098898 55.94311377246049,68.69559651153031 55.37050898204325,68.88044665605412 55.660179640733986,69.38364644203466 56.650449101784034,69.77387960178385" stroke="#ff0000" stroke-linecap="round" stroke-linejoin="round" stroke-width="0.5"><title>2022-06-17 21.4km</title></polyline><polyline fill="none" points="98.42900964064756,78.94106604759145 98.19237510953099,78.76071204438631 98.5,77.58840219647391 96.96187554774224,77.22768839574564 95.50657318139565,77.24572412022098 93.66082383872708,77.76875855357503 93.6963190184033,77.04733095217671 95.5184049079835,73.87298066476797 95.79053461877629,72.84489998657955 95.54206836107187,72.14146958414494 96.7370727432135,71.61840238019067 96.85539000874269,71.3117753615079 95.05696757227997,69.85077342540899 92.38299737073248,68.57012255225709 90.06397896580165,68.31759768953634 84.90534618753009,68.73245958914777 84.19544259420945,68.9849832854452 82.89395267306827,68.82264670502627 82.01840490795439,69.11124486733752 79.3444347064069,71.41999678175489 76.8834355828294,72.59238714262028 72.25723049955559,72.37594699709007 71.57099035932333,72.14146958414494 71.5,72.68257038265438 76.95442594218184,72.89900978932565 78.13759859770653,72.53827715515217 79.59290096405311,71.6905497618136 82.88212094653863,68.87675893109554 85.95836985102505,69.02105804125313 87.86327782648732,68.8406841173346 87.99342681857524,69.88684783344797 87.59114811569452,73.20563138926082 88.28921998242731,73.34992354462156 87.72129710778245,73.74672577673482 87.7686240139883,74.82890477248293 90.06397896580165,74.93712195489206 93.9684487291961,75.87499874103378 94.0631025416078,76.235717974203 93.49517966696294,77.93107896534639 94.05127081507817,79.44605532987771 93.9684487291961,80.85279621733935 96.76073619630188,81.68240231046366 97.97940403156099,79.15749037330534" stroke="#4dd2ff" stroke-linecap="round" stroke-linejoin="round" stroke-width="0.5"><title>2022-06-16 5.2km</title></polyline><polyline fill="none" points="128.24285714287544,80.18498765448749 128.21948051950312,78.93780388160667 127.14415584417293,78.65273084356159 125.67142857142608,78.63491374826117 123.46233766237856,79.026889018176 124.56103896105196,76.4433837438919 125.06363636365859,75.87322072328243 125.53116883119219,74.48343301101704 125.42597402600222,73.46780514673446 126.57142857144936,72.95107773618656 126.4662337662885,72.4165289723096 124.97012987014023,71.31178465465928 122.78441558446502,70.1713889951352 120.99610389611917,69.81501234550524 114.74285714287544,70.18920779001928 114.10000000003492,70.47430802181043 112.6740259740327,70.26048293385975 109.63506493507884,72.6303488643025 106.97012987014023,73.96671151526971 102.34155844157794,73.80634905989427 101.90909090911737,73.46780514673446 101.5,73.9488934789697 104.51558441558154,74.30525352480618 107.58961038963753,74.19834566133068 110.09090909094084,72.75507689669757 112.91948051951476,70.31393925414886 120.30649350650492,70.22484536910633 121.93116883118637,70.45648928418814 122.93636363637052,70.81286335721234 123.49740259742248,71.4721516187492 122.79610389613663,73.14707814272697 122.50389610390994,75.28523627097456 124.68961038961424,76.15830269154685 123.5324675324955,79.00907199802168 125.65974025975447,78.51019398110657 127.99740259745158,78.72399918895826 128.5,78.93780388160667 128.25454545454704,79.86428493003768 128.45324675325537,80.13153728092584" stroke="#4dd2ff" stroke-linecap="round" stroke-linejoin="round" stroke-width="0.5"><title>2022-06-15 5.0km</title></polyline><polyline fill="none" points="158.3236830648384,80.22329433849518 158.17087505437667,79.91869414057874 158.39420983890886,79.1123944801584 157.18350021765218,78.73611881193938 155.93752720940392,78.6286111867812 153.83347845013486,79.23781935029547 153.4925990422489,79.13031232957292 154.58576404003543,76.46051310001349 155.114714845462,75.90504147672618 155.63191118850955,74.20276819210267 155.42033086629817,73.59352565166046 156.54875925116357,73.10971243557287 156.6075315629132,72.5542199523843 153.64540705265244,70.52933097699861 151.89399216367747,69.95590274099959 150.11906835000264,69.77670566150482 144.1478014801687,70.45765264902002 142.3376142794732,70.40389386527386 139.25794514582958,72.87676439592178 136.71898127993336,74.02357964145631 132.24053112755064,73.79063398764265 131.61754462341196,73.53976875719673 131.5,74.0056607666047 132.01719634304754,74.22068702740216 136.9188071397657,74.34611877358111 139.36373530692072,73.30682184032776 142.81954723552917,70.36805465810176 145.91097083152272,70.47557223644253 147.76817588155973,70.11717980486719 152.05855463646003,70.49349182020524 153.05768393559265,70.88772175310442 153.55137135391124,71.6044989867878 152.9401393121516,72.89468349750678 152.5875054418866,75.3495663955182 154.91488898562966,76.08422624912782 153.6218981279817,78.98696943373943 155.93752720940392,78.53902140018909 157.60666086198762,78.75403673691471 158.48824553762097,79.00488730827783 158.5,80.1516237972246" stroke="#4dd2ff" stroke-linecap="round" stroke-linejoin="round" stroke-width="0.5"><title>2022-06-14 5.0km</title></polyline><polyline fill="none" points="177.02095808384183,72.80321488481059 177.88323353293526,72.75187158683912 179.1497005988058,72.3513920935402 180.60479041915096,72.93670721830858 181.1639221556834,72.90590132613215 181.39296407184156,73.22422798385742 182.45733532932354,72.58757268690533 183.05014970060438,73.51174713294677 182.91541916168353,74.66180756498943 183.05014970060438,75.23682808276499 183.87200598801428,76.5716722174111 184.91616766466177,77.51631009168705 187.22679640719434,80.4835916702541 188.11601796407194,83.21457067636584 188.5,83.21457067636584 187.2200598802301,79.35419682884822 187.2402694610646,79.00510610497076 187.86676646706474,78.75868768883447 187.94086826346756,78.58414059238203 186.8428143712663,74.22026956482296 186.20958083833102,73.20369083992409 184.8690119760431,71.58123040694772 183.74401197602856,70.53379189926636 182.2687125748489,69.54794782296085 181.21107784430205,69.05501865778206 179.41242514968326,68.65451021236004 177.5666167664749,68.57235424610917 176.02395209579845,68.7366660466505 175.8218562874099,68.28480732477692 174.15119760477683,67.24757106576362 172.54116766466177,66.83677861234173 169.17964071854658,67.042175251554 168.71482035928057,67.20649196888917 167.9670658682735,67.08325448038158 166.101047904187,68.51073718479165 164.63248502994247,69.21932890745302 161.97155688623025,69.12690445697444 161.59431137723732,68.96259391033527 161.51347305389936,69.23986765154405 162.17365269460424,69.35283059660651 162.23428143713681,69.55821713006299 162.2881736526906,69.30148383431515 163.20434131736693,69.4657932920818 164.62574850300734,69.45552396642597 165.99999999998545,68.83936065388843 167.8997005988058,67.27838036670073 172.02245508981287,67.10379408242443 173.55164670658996,67.2989198903997 174.33982035928057,67.68916927262399 174.7776946107624,67.4221568591638 175.36377245507902,68.02806763579065 175.90269461077696,68.31561600082568 175.91616766467632,68.70585762427072 175.35029940120876,68.95232448364914 175.44461077844608,69.1782513945218 176.42140718562587,69.74306430491197 177.22305389223038,69.87656462677478 179.43937125748198,69.58902503893114 179.86377245507902,69.75333357280033 180.6115269461152,70.49271544221847 181.58832335329498,70.20517931885479 183.20508982034517,71.57096150609505 184.11452095808636,72.87509541537656 184.08083832333796,73.02912478352664 183.0232035927911,73.62470064211811 182.85479041915096,74.53858804142874 182.95583832333796,74.99039150965473 184.0336826347193,76.77702976125147 184.94985029939562,77.56764860666226 187.2402694610646,80.50412589108237 188.11601796407194,83.04003878584263 188.4326347305323,82.91683944576653 188.4326347305323,82.6807065477442 187.46257485028764,80.40145470454081 187.17964071854658,79.14884963277291 187.22679640719434,78.99483869468168 187.89371257483435,78.72788530332036 187.89371257483435,78.34798769020563 187.0920658682735,75.13414632162676 186.69461077843152,74.07651218401952 186.27694610776962,73.27557080760016 184.76122754489188,71.45800346072065 183.53517964070488,70.37975501513574 182.1676646706328,69.47606261564215 181.3458083832229,69.06528806384085 179.3854790418991,68.6442407238028 177.8697604790359,68.55181523392457 176.0374251496978,68.72639657459149 175.84880239520862,68.30534644418367 174.09056886227336,67.18595240811919 173.154191616748,66.87785800615893 172.06961077843152,66.78542932363052 168.72829341316537,67.18595240811919 167.83907185628777,67.08325448038158 166.03368263473385,68.51073718479165 164.6055389221583,69.20905953232068 161.96482035928057,69.11663506328114 161.64146706585598,68.96259391033527 161.5,69.23986765154405 162.05239520958276,69.3733692870519 164.61227544909343,69.41444664324445 164.65269461077696,69.12690445697444 166.03368263473385,68.47992862630053 167.16541916166898,67.51458439083581" stroke="#4dd2ff" stroke-linecap="round" stroke-linejoin="round" stroke-width="0.5"><title>2022-06-11 15.5km</title></polyline><polyline fill="none" points="26.901551163377007,102.75597611462581 27.88103577683796,102.7250853309888 29.191518638981506,102.3338004611287 30.664123092326918,102.9722110789553 31.150487865888863,102.9619141965486 31.413935451593716,103.19874196840465 32.20427820866462,102.64270981704249 32.481235926941736,102.60152201042729 33.04866149611189,103.42527185719155 32.92031523642072,104.753540614558 33.27833375030605,105.62873765984114 33.94708531399374,106.63776983395292 35.14948711534089,107.7600374012145 37.324618463841034,110.59133726657456 38.16224668500945,113.18570027383248 38.5,113.20628993153878 38.43920440328657,112.67095614485152 37.69614711031318,110.88990159653986 37.25031273455534,109.34558458257743 37.25031273455534,109.02641993465659 37.92581936453644,108.73814048093845 37.96634976231144,108.55281711924545 36.932824618474115,104.39316101925942 36.48699024267262,103.44586543380501 35.01438578934176,101.54092459674575 32.94733550163801,99.87275612564918 31.25856892669981,99.02835386705192 29.81973980483599,98.67823177939135 27.69189392043336,98.51346761679815 26.043657743313815,98.7297204716233 25.901801351006725,98.33840511398739 24.152239179384196,97.18503721435263 22.51751313485147,96.79371006846122 19.126469852388254,97.04086440280662 18.8224918689084,97.1747391698409 17.910557918425184,97.07175861082942 15.992119089336484,98.54436093762342 14.99912434325961,99.06954454373772 14.073680260204128,99.24460455046574 11.939079309493536,99.10043752952333 11.58106079560821,98.90478163851003 11.5,99.19311637523424 13.209031773847528,99.41966395960844 15.05316487365053,99.31668790893673 16.05291468600626,98.77091138818287 17.586314736050554,97.3806996673884 17.978108581432025,97.1747391698409 18.795471603720216,97.27771952200783 21.9771078308695,97.07175861082942 23.355141356019885,97.21593133553324 23.72667000249203,97.3292096205405 24.172504378278973,97.76172440698065 23.79422066549887,98.58555200308547 23.611833875402226,99.65650809122599 23.692894671010436,100.05811085787718 25.030397798356717,100.36703392273557 25.39517137853545,99.29609267401975 26.253064798598643,99.6359129927987 27.32712034024007,99.81097106600646 29.64410808106186,99.58442521044708 30.650612959710998,100.47000786411081 31.64360770577332,100.19197774779605 33.210783087299205,101.56151893012793 34.11596197147446,102.82805453738183 34.170002501879935,102.92072664634179 33.60933199900319,103.37378787940906 33.0959469602094,103.57972348033582 32.467725794325816,102.59122505359846 31.393670252684387,103.22963246670042 30.204778583953157,102.7662730383563 29.319864898658125,102.7662730383563 28.732174130578642,102.98250795929198 27.48248686514853,103.85773522977979 26.503002251687576,103.2914134074963 26.75293970477651,102.7044914649232 26.928571428579744,102.73538226094752" stroke="#4dd2ff" stroke-linecap="round" stroke-linejoin="round" stroke-width="0.5"><title>2022-06-10 10.5km</title></polyline><polyline fill="none" points="68.5,110.24752671007445 68.09019947960041,109.96196342596522 68.33607979185763,109.08742016135511 68.09019947960041,108.85539703463292 65.81873373803683,108.64122130317264 63.465307892416604,109.10526806911366 64.05073720726068,107.24906646905583 65.24501300955308,105.5356152008826 65.54943625326268,104.19695841388602 65.36209887251607,103.4829998834175 66.53295750217512,103.05462201230694 66.49783174326876,102.69763887588488 66.39245446660789,102.35850356823357 64.78837814394501,101.2161435375092 61.7207285342447,99.93097095213307 60.10494362533791,99.75247328993282 54.63703382477979,100.23441615512274 54.00477016475634,100.53786032211792 52.716825672163395,100.32366454706062 52.09627059844206,100.55570994670416 49.33304423242225,102.82258313673083 47.70555073721334,103.7150370348827 45.59800520379213,104.03631824452168 44.63790112751303,103.73288602146204 42.33130962704308,103.8042819318216 41.69904596704873,103.46515084665589 41.5,103.982771456911 46.94449262789567,104.28620282688644 46.97961838680203,103.76858398378681 49.50867302689585,102.50129753968213 51.674761491740355,100.55570994670416 52.89245446660789,100.09161854157719 53.45446660881862,100.16301737703179 53.45446660881862,101.05549798056018 52.01431049435632,102.2514079390603 52.01431049435632,102.50129753968213 54.882914137037005,102.05506561710354 55.26929748483235,103.1617166736687 57.45880312225199,103.10816935914772 57.493928881158354,104.60748197192879 58.20815264523844,104.73242354802642 57.657849089300726,105.10724722260784 57.73980919341557,106.3031026655517 59.578057241946226,106.3031026655517 62.58716392019414,106.89210017876758 63.85169124021195,107.37400433201401 63.51214223765419,109.06957225005317 65.51431049435632,108.4091970117006 68.17215958365705,108.81970111527335 68.42974848221638,109.05172433517873 68.40633130961214,110.15828828232043" stroke="#4dd2ff" stroke-linecap="round" stroke-linejoin="round" stroke-width="0.5"><title>2022-06-09 5.2km</title></polyline><polyline fill="none" points="83.8505121638882,102.0761975475616 84.94814340589801,102.04984874804359 86.47791293213959,101.56239404837834 88.35339308579569,102.37920798149935 89.16581306018634,102.36603364388793 89.27816901411279,102.61634560579114 90.66101152368356,101.83905797098123 90.98079385401797,102.1157207270262 91.51664532651193,103.05109569108026 91.29193341868813,104.39485046973277 91.50800256084767,105.19845537348374 92.51056338028866,106.924196575932 93.97983354673488,108.30739148796056 96.90973111396306,112.02211351729056 98.10243277848349,115.55222184174272 98.5,115.46001993511891 98.33578745197156,114.7355718752151 97.11715749040013,111.77183743438945 96.83194622278097,110.28333364097853 96.93565941101406,110.05939651993685 97.7740076824557,109.63786574820551 96.46895006403793,104.31580683278298 95.70838668374927,102.74808836009834 93.24519846352632,99.98143496717239 91.28329065302387,98.41361292361762 89.2003841229307,97.34641850557455 87.2730473751435,96.85892885973954 84.98271446861327,96.66129689028458 82.48495518567506,96.91163061767656 82.1997439180559,96.30555784511671 81.11075544176856,95.60724966538692 79.95262483996339,94.9221098879716 78.80313700385159,94.57953731607267 77.5499359795358,94.44777815825728 72.80505761844688,94.9221098879716 72.76184379000915,95.43596539180726 73.38412291934947,95.33055946271998 72.58898847628734,95.50184401147999 71.5,96.39778667168503 73.88540332906996,96.21332888886172 74.1014724712004,96.9379814807944 75.7003841229307,97.00385859223752 75.69174135726644,98.04470817440597 76.19302176698693,98.12375936669196 75.78681177977705,98.33456208054122 75.84731113957241,99.26999095188876 78.95870678615756,99.53348963483222 80.45390524968388,100.06048382600784 80.05633802816737,101.43064891326867 80.43661971829715,102.52412552040187 80.35883482717327,103.55171343297116 81.79353393084602,103.89423916082524 83.176376440475,104.6978501958547 84.14436619717162,103.44632054155954 86.15813060180517,102.19476701448366 86.92733674775809,101.99715111725891 85.85563380279928,100.98271347516857 85.01728553138673,101.36477624651525 83.8245838668372,101.40429985452647 83.70358514724649,102.04984874804359" stroke="#4dd2ff" stroke-linecap="round" stroke-linejoin="round" stroke-width="0.5"><title>2022-06-07 8.0km</title></polyline><polyline fill="none" points="127.1455309396697,99.98598847537869 126.2104660046025,101.66283448982358 124.59472880062822,101.15978634186467 124.20970206265338,101.67331460802961 122.88961038962589,102.7632354115267 122.16080977846286,103.16147002818616 121.84453781515185,103.55970160658762 120.93009931246343,105.2993091932185 120.60007639421383,106.65113288949942 120.04316271966673,107.7828653402903 119.47249809016648,110.31869526758601 119.16310160428111,110.61208912672737 117.98051948053762,111.68086709793351 117.04545454545587,112.24668187136558 112.93391902216536,113.2106484725191 110.75439266616013,111.06265505699048 109.59931245225016,110.43395733750003 107.79106187931029,110.04625663621118 107.66042780748103,109.79477356065036 107.83919022155169,108.94600923612597 107.74980901452363,108.53734000979603 106.82849503438047,108.07627345197398 105.03399541635008,106.26340409205659 101.90565317035362,106.14813281311581 101.5,105.88615168702381 101.5,105.3936236103691 103.90641711228818,103.60162054337343 103.8926661573787,103.39202552280767 103.71390374332259,103.3605861971555 103.06760886173288,103.89505215823738 102.88884644766222,103.82169440915095 102.9576012223115,103.6330597238557 106.82161955692573,100.59385138021025 106.87662337662186,99.27331260612118 107.06913674560201,99.2104289740164 108.73300229184679,99.60869069794717 110.93315508021624,99.30475439378642 113.50458365165105,97.91081694750756 116.06913674561656,97.1876317256465 117.23796791445056,96.96752988654771 117.58174178763875,97.15618866261866 120.352559205523,96.78935152747727 120.88197097022203,96.88368132277174 121.01948051949148,97.72216089914582 123.79717341483047,97.99466386124186 124.6084797555668,98.2986077943533 124.28533231477195,99.40956021582315 124.6084797555668,100.28992081268007 124.59472880062822,101.13882589712375 125.79793735676503,101.47419200247896 126.8567608861922,102.0610775019959 127.3792971734365,101.28554883336983 128.5,100.4366461351965 128.321237585973,100.0069493830415 127.60618792974856,99.96502755929032" stroke="#4dd2ff" stroke-linecap="round" stroke-linejoin="round" stroke-width="0.5"><title>2022-06-05 8.1km</title></polyline><polyline fill="none" points="136.8842028278741,100.38558569579618 137.002681618731,100.60631914320402 137.1343247196637,100.30531886676181 138.55607020965545,100.38558569579618 141.17576791811734,99.48258015227475 142.34739151631948,100.20498523984133 145.09873232565587,100.7668522532258 145.44100438809255,101.22838350827806 147.65260848365142,100.02438445750886 148.2450024378486,100.62638579602935 148.82423208191176,101.91064319833094 148.53461725986563,104.29851543538825 149.2323256947857,105.98403795851482 150.81204290589085,108.25142222626164 152.47074597759638,109.65597074927064 154.97196489517228,112.72584380240005 157.1177474402648,115.71536811264377 157.97342759626918,117.80196296622307 158.5,117.54114099172875 157.43369088249165,114.83256486865139 157.05192588979844,112.74590802202147 157.20989761091187,112.38475145293341 158.35519258899149,111.92327171543002 158.3683568990673,111.52198325515201 156.82813261821866,104.80016201465332 155.43271574843675,101.50931453298108 152.91833252072684,98.43909691765293 148.53461725986563,94.76675196500582 145.46733300830238,93.14124471880496 140.66235982449143,92.1980370337842 136.2391516333737,92.31844702121452 134.6331058020296,92.4990617302974 133.7379327157396,92.94056297822681 133.8695758166723,93.78342358050577 133.39566065333202,95.79020592570305 133.02705997074372,95.89054398510052 131.5,99.14144260122703 133.80375426617684,98.57956644924707 136.41028766459203,98.88057192351698 137.002681618731,99.10130869513523 136.81838127743686,100.10465151218523 137.29229644077714,100.36551899460028 136.96318868844537,100.52605249150656" stroke="#4dd2ff" stroke-linecap="round" stroke-linejoin="round" stroke-width="0.5"><title>2022-06-04 5.1km</title></polyline><polyline fill="none" points="188.2889709074807,110.15606908709015 188.37103777678567,109.03019182950811 187.50347372988472,108.77999494919641 185.82696482850588,108.61915372621297 183.54081632650923,109.1552900059396 184.1270082500996,107.45751404031034 185.15870603561052,105.97416747660463 185.6511072514113,104.25845868801116 185.47524967434583,103.59718709497247 186.50694745982764,103.15037918301095 186.53039513679687,102.50697184886667 183.43530178029323,100.50523039462132 181.92292661743704,100.02266098713153 180.41055145463906,99.84393091290985 174.79483282673755,100.23713660243811 174.16174554929603,100.46948460237036 172.7079895788047,100.32650128956448 169.0267042987398,103.13250681984937 166.9164133738377,104.06186494381836 163.08271819364745,103.90101519382006 161.6993052540347,103.52569797978504 161.5,104.02612058007799 162.2034303082619,104.22271440314944 167.02192792008282,104.36569145633985 169.30807642205036,103.38271957715187 172.76660877114045,100.43373879570572 174.87689969604253,100.57672193620965 180.0471124620235,100.29075542547798 182.15740338686737,100.61246768539422 183.57598784193397,101.55972480835771 183.08358662613318,102.32824676384189 182.602909248817,105.36652439666796 184.7249240121746,106.11714171602944 183.62288319584331,109.01232064711803 185.69800260526245,108.42256961441308 187.15175857575377,108.58341119267425 188.5,109.03019182950811 188.34759009987465,110.0667142695238" stroke="#4dd2ff" stroke-linecap="round" stroke-linejoin="round" stroke-width="0.5"><title>2022-06-03 5.0km</title></polyline><polyline fill="none" points="38.31233709814842,140.17618970167678 38.101216333627235,139.94376606724836 38.359252823662246,139.19285479421524 37.033883579511894,138.67436474309216 35.57949609035859,138.56709056247928 33.76151172895334,139.19285479421524 33.45655951346271,139.06770229969698 33.64422241531429,138.1379925474539 35.35664639441529,135.3666847280474 35.6146828844503,134.24025753958995 35.43874891396263,133.54293832890107 36.49435273674317,133.11381610007084 36.44743701128755,132.59529064747767 33.33927019982366,130.50327797952195 31.556472632510122,129.94897578709788 30.371850564697525,129.82381029831595 25.211120764550287,130.2171869563099 23.756733275396982,130.5748005916903 22.642484795855125,130.34235189207538 18.93614248483209,133.16745649181394 16.895308427483542,134.0435783152061 12.367940920928959,133.86477864324843 11.746307558671106,133.5071782221712 11.5,133.98993845129735 12.14509122504387,134.2223776280589 15.710686359670945,134.41905645752558 17.716333622927777,134.18661779421382 19.6985230234568,132.9886550604133 22.79496090358589,130.41387463352294 24.167245873162756,130.62844251309434 27.59209383148118,130.2350676722126 32.2367506516166,130.5748005916903 33.46828844482661,131.2721430492893 33.52693310167524,131.6297524473266 32.88184187663137,132.97077489754156 32.56516072980594,135.420323762497 34.95786272807163,136.09974873541796 33.59730668980046,139.03194441180676 35.83753258033539,138.47769531318772 37.49131190270418,138.745880791721 38.5,139.15709695658734 38.30060816681362,140.0152810963191" stroke="#4dd2ff" stroke-linecap="round" stroke-linejoin="round" stroke-width="0.5"><title>2022-06-02 5.0km</title></polyline><polyline fill="none" points="50.7124904798402,130.3226141482519 52.16222391472547,130.27559575018677 53.704493526311126,129.7897373114247 54.21858339681057,129.93079329874308 54.20830159939942,129.5546434327407 56.449733434885275,130.55770571388712 57.385376999242,130.60472394202225 57.508758568175836,130.8868327162054 58.25932977916091,130.62039667846693 59.13328255902161,129.93079329874308 59.71934501142823,130.41665085948625 60.19230769231217,131.4353746359775 59.98667174411821,133.50412662093004 60.4699162224133,134.52281010321167 61.68316831684206,136.37207845212106 63.17402894134284,137.6414661133531 66.66984006093116,142.2016885382618 67.92421934500453,146.1975407475402 68.5,146.13486229185946 66.54645849199733,140.2898751419125 66.54645849199733,139.74139544236095 67.61576542269904,139.14589883371082 66.4642041127372,134.00563399666862 65.25095201830845,131.12192258243158 62.43373952782713,127.68954023641709 59.95582635188475,125.80871877186291 57.79664889565902,124.69587806388154 55.53465346537996,124.11594070181309 52.12109672508086,123.80245925245981 49.262757044954924,124.0845926135371 48.347677075420506,124.41374691246165 46.83625285606831,124.36672495475796 42.48705255144159,124.86829104325443 42.04493526276201,125.00935592489986 41.99352627573535,125.58928664869745 41.53084539223346,125.6363078698705 41.5,126.82750269113603 44.50228484388208,127.04693133322144 46.56892612337833,127.59550023957127 47.052170601673424,127.94031300741335 46.64089870528551,129.30387584839627 48.56359482102562,128.81801136093418 50.979817212501075,129.22551081301208" stroke="#4dd2ff" stroke-linecap="round" stroke-linejoin="round" stroke-width="0.5"><title>2022-05-30 6.1km</title></polyline><polyline fill="none" points="85.41118701963569,132.5112490670872 85.5187873612449,132.40580896207757 86.27967549103778,132.46438682171356 87.79376601197873,131.94889963846072 89.5307429547538,132.64012004778488 90.20708795901737,132.65183557736236 90.4684030742792,132.89786115523384 91.57514944492141,132.19492818041545 91.84415029891534,132.39409338307087 92.32835183606949,133.23760905736344 92.12852263025707,134.6317262861994 92.34372331341729,135.2643399238841 93.4888983774872,137.03327869202258 94.4496157130634,137.82986936641828 97.15499573014677,141.30896881353328 98.14645602050587,144.3661880067666 98.4538855678984,144.34276164876428 98.5,143.9796518965777 97.57771135782241,141.68380890069966 97.07813834332046,139.71587157992326 97.16268146882067,139.48158890654668 97.86208368916414,139.21216266927877 97.90051238259184,139.00130648539562 96.67079419299262,134.1279734840282 96.05593509820756,132.97986945066805 94.57258753204951,131.17566032409377 92.15926558498177,129.11363871805588 91.78266438940773,129.05505749417352 90.26857386849588,128.1880485036636 88.21648163962527,127.73110614845427 86.12596071735607,127.62565740439459 84.37361229720409,127.84827119608599 84.09692570453626,127.34445982180478 82.15243381727487,126.12592130227131 80.14645602050587,125.63381199323703 76.93381725021754,125.86815027712146 76.06532877881546,126.10248761974799 75.25832621692098,125.9970359320796 74.77412467976683,126.11420446219199 72.83731853117933,127.6725235363665 72.03800170795876,128.14118278578098 71.5307429547247,128.24663059810337 71.5,128.5746892397874 73.30614859095658,127.64909047507899 75.17378309139167,125.98531906610515 77.5409906063287,126.07905392787143 78.34799316825229,125.87986716658634 79.15499573014677,126.02046965689442 80.33091374894138,125.93845157874603 81.27625960719888,126.0907707749866 82.28309137490578,126.60630971913633 82.87489325364004,126.26652319955974 83.62040990608511,127.02811092137563 84.15072587531176,127.29759342626858 84.11229718191316,127.81312170650199 83.88941076004994,127.93028658945332 83.88172502137604,128.15289921878866 84.27369769429788,128.4458092791101 85.21135781382327,128.7387178688914 88.4624252775684,128.45752565092698 88.89282664388884,128.6449872801677 89.85354397952324,129.5940025350501 92.13620836893097,128.99647621149052 94.34970111015718,130.87104808357253 96.04056362085976,132.9095766330829 96.82450896670343,134.47942938607594 94.75704526048503,135.05346947340877 94.4573014517664,134.72544725789703 94.16524338175077,133.65936232153763 93.5196413322119,132.7924217488835 92.40520922289579,133.31961687526564 91.66737830915372,132.32379985977968 90.4299743808806,132.94472305246381 90.15328778821277,132.73384421857918 89.5384286934277,132.69869767217824 89.00042698546895,132.45267125450482 88.22416737829917,132.40580896207757 87.65542271564482,132.55811127482593 87.12510674638906,132.99158491204435" stroke="#4dd2ff" stroke-linecap="round" stroke-linejoin="round" stroke-width="0.5"><title>2022-05-28 10.0km</title></polyline><polyline fill="none" points="115.54491188176326,132.3802546791594 116.64241046048119,132.33345895274397 117.80898237638758,131.795305397638 118.47669130191207,132.27496424189667 119.05230244458653,132.34515788788121 119.56651506538037,132.63763050252237 120.15747583855409,132.61423274740446 120.44911881751614,132.918402831383 121.30102330871159,132.31006107544817 121.67708925527404,132.2164694722851 122.31409891985822,133.1991738072029 122.19897669131751,134.70829462165784 122.59039226832101,135.67925866669611 123.27345082434476,136.79058319723117 124.58584422970307,137.99546900291898 127.17993177945027,141.36433786784255 128.15463331440696,144.38211750718256 128.5,144.2417591289195 128.45395110858954,143.65692891381332 127.494599204103,141.29415508639067 127.08783399660024,139.5512555655041 127.91671404207591,139.13014450591072 126.80386583285872,134.3807368359776 126.02870949404314,132.83651104190358 123.95650938036852,130.5785920799317 122.16060261515668,129.11616264123222 121.1628766344802,128.71837548348776 120.4644684480154,128.2269875976781 118.33086981240194,127.72389570647283 116.21262080725865,127.58349719402759 114.32461625925498,127.7940948358264 114.20181921546464,127.3260990424933 112.17566799320048,126.06249162197491 110.26463899941882,125.61788249281744 104.83854462762247,126.06249162197491 102.91984081864939,127.60689696962436 101.5,128.28548637280983 101.51534963047015,128.51948088610152 101.82234223990235,128.51948088610152 102.62819783965824,128.09829008552697 104.91529277997324,126.13269275325365 105.25298465034575,126.01569082079004 107.50170551449992,126.03909122608457 108.18476407049457,125.81678699634722 108.890847072209,125.98059019524953 110.39511085842969,125.92208910563568 111.30841387153487,126.09759219817352 112.3214894826524,126.61239821959316 112.90477544060559,126.23799429151404 113.55713473563083,126.99849975033067 114.17879476974485,127.3377989831315 114.27089255259489,127.665396367418 113.9101762365026,128.05149091970816 114.09437180217355,128.3322853506579 114.53183627061662,128.53118058714244 115.82120523025515,128.76517411360692 118.46901648663334,128.42588319358038 118.80670835703495,128.56627967598615 119.89653212053236,129.6075430275887 121.1628766344802,129.1746605236185 122.13757816943689,129.05766470013987 124.16372939173016,130.64878776971454 125.83683911315165,132.62593162614576 126.46617396248621,133.6554237571654 126.76549175669788,134.53281746548964 124.71631608871394,135.04754895842052 124.47839681638288,134.75508844072465 124.20977828311152,133.71391708210285 123.47299602048588,132.7546191373258 122.42154633314931,133.2927638318106 121.6387151790841,132.25156634109953 120.42609437179635,132.9418004643776 120.14980102333357,132.69612484930258 119.55884025015985,132.67272711764235 119.02160318364622,132.36855575106165 117.62478681068751,132.54403942558565" stroke="#4dd2ff" stroke-linecap="round" stroke-linejoin="round" stroke-width="0.5"><title>2022-05-26 10.0km</title></polyline><polyline fill="none" points="136.86458092782414,129.2557059394967 138.5687895101728,129.17985859893815 140.8327746342693,128.4403438356385 143.53214151295833,129.69182696571806 144.4651024157356,129.63494172866922 144.8880446916446,130.2417158235694 147.00275607127696,128.9333543212997 148.08499071848928,130.6399092046122 147.74912479351042,132.59292861770518 148.48305403697304,134.52694687450276 149.3413780675619,135.98691481383867 151.7297579786391,138.24318450874853 155.90942282305332,143.62767755735695 157.4519181823125,148.36729415820446 158.13608951104106,148.5 158.01169472400215,147.60897148519143 156.15821239713114,143.11578473315603 155.85966490823193,140.78379342413973 156.99165747026564,140.34772361824434 157.11605225730455,140.02540985892847 155.02621983509744,131.8344792737189 154.1181378897163,130.14690762824466 151.38145257494762,126.98025922156376 147.77400375087745,123.98417075153702 145.783687158284,122.86535384506715 142.63649904628983,121.84134031206486 138.41951576576685,121.5 134.73743006947916,121.86030362654128 133.85422708149417,122.12578962960106 134.0532587407506,122.84639073239669 133.5681190713367,124.93231029542221 132.6849160833517,125.95629031024873 131.86391048895894,128.04214117977244 133.96618238984956,127.47327732998383" stroke="#4dd2ff" stroke-linecap="round" stroke-linejoin="round" stroke-width="0.5"><title>2022-05-24 5.1km</title></polyline><polyline fill="none" points="188.45302305350197,140.22770138727356 188.19464984774822,139.94126833195332 188.4295345802384,139.02825682659022 186.66789908657665,138.67021054673387 185.4112657677615,138.74181991774094 183.79056111350656,139.24308390432998 183.50869943454745,139.04615910282155 184.01370160939405,137.70347840870818 185.2703349282383,135.64466206981888 185.68138321008882,134.31983337207203 185.52870813399204,133.58579818532598 186.6326663767104,133.1203093256263 186.6326663767104,132.78014285262907 186.43301435408648,132.2967461582448 184.8357981731242,131.22252189751453 182.16985645933892,130.0587643412291 180.2438016528904,129.77229861272644 175.31122227056767,130.18409280799824 173.86668116573128,130.50636519915133 172.8566768160381,130.29151706781704 172.11678990867222,130.5421731707538 168.9693344932748,133.10240585937572 167.00804697696003,133.99757476602827 162.721400608978,133.85434834497573 161.66441931272857,133.5499914362881 161.5,133.89015497185756 161.96976946498035,134.1408009569932 164.31861678994028,134.39144623745233 167.7479338843259,134.23031720943254 169.6857329273771,133.10240585937572 172.2694649847981,130.77492463527597 172.97411918226862,130.45265321487386 179.79752066117362,130.34522914922854 182.22857764246874,130.57798112794262 183.55567638101638,131.49107917622314 182.897999130073,132.76223931811546 182.6043932144239,135.3403112730375 184.9884732492501,136.07433201411186 183.60265332757263,139.04615910282155 185.90452370597632,138.50908925168187 187.11418007832253,138.63440583971533 188.5,139.01035454677185 188.4295345802384,139.74434507260594" stroke="#4dd2ff" stroke-linecap="round" stroke-linejoin="round" stroke-width="0.5"><title>2022-05-22 5.0km</title></polyline><polyline fill="none" points="16.92748316246434,158.86269554679893 17.001599613926373,159.25811808067374 17.965113482816378,159.29577728267031 19.299209609016543,159.10748112149304 20.954477024817606,158.44844158003252 21.4979976688046,158.91918458227883 22.795035569230095,159.12631075464742 23.733843954338226,159.67236847070308 24.709710565104615,159.59705035408115 25.00617637092364,160.0489581464135 26.8837931411108,158.86269554679893 27.501430236559827,159.35226605726348 28.10671459007426,160.538522463954 27.785543300473364,162.85450362960546 28.588471524533816,164.6620589452432 29.93492039258126,166.58254829498037 31.60254055034602,167.99464772655483 35.975411186082056,173.64283284229168 37.556562150479294,178.5 38.13714102018275,178.38704548114765 38.05067182678613,177.84109672201885 36.061880379449576,173.02154913020786 35.75306183175417,171.0070554529375 35.87658925083815,170.6681644141281 36.95127779690665,170.2351351936304 37.025394248368684,169.7079664873454 35.135424736276036,162.13900335886865 34.24602731887717,160.3313994107666 30.82431781006744,156.3018235327254 27.797896042378852,153.94801919203746 24.462655726936646,152.3285674967192 20.546836541820085,151.57532462038216 17.92805525707081,151.5 14.90163348938222,151.8389603153555 13.999883330077864,152.19675043015013 14.098705265321769,152.931157441315 13.616948330862215,155.02136129964492 12.974605751602212,155.64276427288132 11.862858979788143,158.14716481844516 13.999883330077864,157.46928856580053 15.815736390650272,157.63875808839657 17.038657839642838,158.12833498873806 16.76689751763479,158.84386586070468" stroke="#4dd2ff" stroke-linecap="round" stroke-linejoin="round" stroke-width="0.5"><title>2022-05-16 5.4km</title></polyline><polyline fill="none" points="57.24438342486974,162.67369229413816 57.8577134298539,162.72506128719033 59.19221168247168,162.29356014257064 59.50898652021715,162.57095415328513 60.216674987532315,162.7045136961533 60.573889166276786,162.92026299049394 61.17373939092795,162.89971547784444 61.38267598602397,163.17710620233265 62.467798302546726,162.550406500377 63.08112830755999,163.47504271284924 62.94633050427365,164.81059885478317 63.48552171741903,165.95093074027682 64.19321018474875,166.91659732903645 64.99525711433671,167.58433484430861 67.3339990015229,170.56336529452528 68.19670494260208,173.19298599254398 68.5,173.1724426045439 68.4865202196961,172.87456255188954 67.5227159261267,170.31683142592738 67.25986020971322,169.21768680939203 67.3070394408569,169.00196406636314 67.94058911634784,168.69378714160484 67.96080878684006,168.49860746261766 66.97678482277843,164.481849808064 66.37019470795349,163.29011680710028 64.77284073889314,161.39972476659023 62.616075886180624,159.6736536421231 61.38267598602397,159.05718555669955 60.16949575638864,158.73867413559128 57.98577134299558,158.53318184385716 56.02446330504608,158.70785034445726 55.88292561160051,158.3174140492556 54.95282076887088,157.63928077067249 54.03619570644514,157.12553745434343 52.71517723417492,156.80701400745238 49.614827758356114,157.00223829080278 48.86669995007105,157.1974618291897 47.84223664503952,157.13581237124163 45.80004992513568,158.70785034445726 44.68796804793237,159.201028774336 41.99875187219004,159.1085581808511 41.6347978033009,158.92361649247687 41.580878681998,159.01608742022654 41.5,159.2113032744237 41.89091362958425,159.31404816163922 44.58686969547125,159.44761620658755 45.74613080380368,158.99553833960817 48.12531203197432,157.14608728605162 49.45307039441832,157.23856142656223 50.43709435847995,157.0844377661706 52.560159760381794,157.1049876143843 53.36894658015808,157.20773673163785 54.299051422887715,157.63928077067249 54.59560659012641,157.3618600205773 53.19370943585818,156.89948876083508 52.357963055430446,156.80701400745238 49.520469296054216,156.98168840129438 48.52970544183336,157.23856142656223 49.97878182728891,157.1974618291897 50.82126809786132,157.00223829080278 52.566899650526466,157.0741628389842 53.49026460311143,157.26938610291472 54.37993010484206,157.6495555843976 54.784323514730204,157.35158514909926 55.45157264106092,158.0399969762475 55.916625062411185,158.26604063071136 55.94358462309174,158.66675192736875 55.37743384925125,158.89279281276686 55.43809286071337,159.201028774336 56.75911133302725,159.8277695028919 57.98577134299558,159.73530004211352 58.0329505741538,161.15314674247566 57.72965551674133,161.33808037196286 57.71617573640833,161.65657561141052" stroke="#4dd2ff" stroke-linecap="round" stroke-linejoin="round" stroke-width="0.5"><title>2022-05-14 9.9km</title></polyline><polyline fill="none" points="83.12118126271525,161.85063988598267 83.99185336049413,161.9065215106748 85.81568228104152,161.26388011698873 86.65885947045172,161.78078779202042 87.1812627291074,161.82269905683643 87.79531568224775,162.1859289608692 88.36354378817487,162.1300475605858 88.91344195519923,162.49327586010259 90.26985743379919,161.5852015558121 91.13136456211214,162.91238308015818 90.93890020364779,164.60275657587408 91.4338085539639,165.77621485251075 92.04786150713335,166.83789814523698 93.6517311608768,168.33260900665118 96.91446028510109,172.5232159167208 98.18839103868231,176.16883864521878 98.4633401221945,176.07106581552216 98.5,175.54029662862376 97.43686354375677,172.95623091082598 96.85947046839283,170.52572476842033 96.94195519346977,170.30222568841054 97.8309572301223,169.8552253748021 96.80448065171367,165.38506429260087 95.65885947045172,162.63297854728444 93.21181262729806,159.74107572561843 90.98472505089012,157.96675700737615 88.62016293275519,156.8211098569118 86.2647657841153,156.33210837727165 84.3309572301514,156.1784214880572 81.5906313645246,156.4299089481392 81.36150712828385,155.92693311888434 80.12423625253723,155.0187731058686 78.8136456211796,154.27826462882513 77.78716904277098,153.95690944101443 76.52240325862658,153.83116135477758 72.18737270872225,154.16648907967829 71.5,154.41798381266926 76.78818737270194,154.18046103313463 78.51120162929874,154.59961833220586 79.07026476575993,155.06068844436595 78.52036659873556,156.1784214880572 78.30040733196074,158.13441110557324 80.06008146639215,158.83296549932493 79.0977596740995,161.02638070840112 80.5733197555819,160.57932079879174 82.36965376781882,160.76093923351436 82.8920570264745,160.95652778690055 82.80040733196074,161.78078779202042" stroke="#4dd2ff" stroke-linecap="round" stroke-linejoin="round" stroke-width="0.5"><title>2022-05-12 7.0km</title></polyline><polyline fill="none" points="111.27977099234704,160.35114322208392 112.43396946566645,160.35114322208392 114.340458015271,159.69137454557494 114.79389312976855,160.09980342997733 116.39122137404047,160.64960817641258 117.34961832061526,160.68102547380113 117.79274809159688,161.1051577535327 119.42099236641661,160.11551219062676 120.23511450379738,161.43503682586015 120.11145038169343,163.7441513863232 120.80190839694114,165.1421536104317 121.8324427480984,166.60296070558252 123.15152671755641,167.71818217102555 125.16106870229123,170.16847209278785 125.36717557252268,170.7653259638828 126.35648854961619,171.78624966227653 126.99541984731331,172.9013972488101 127.9229007633403,176.07398373333126 128.5,175.9169280229762 126.78931297708186,170.74961934140447 126.69656488546752,169.9956977540569 127.7580152671726,169.3360104056701 126.6347328244301,164.40388588576752 125.88244274808676,162.3775407967114 125.30534351142705,161.27795172680635 122.9866412213596,158.48178418714087 121.12137404578971,156.8008938056082 119.01908396944054,155.40274251588562 117.62786259542918,154.7429321048985 116.1232824427425,154.3501851705514 112.65038167938474,153.92601626667602 109.33206106870784,154.24021567554882 108.45610687020235,154.57012369672884 107.04427480918821,154.49157429404295 102.09770992366248,155.10425754309108 102.01526717559318,155.74835527204414 101.71641221374739,155.7169359936961 101.54122137403465,155.95258027392265 101.5,156.84802206541644 101.70610687023145,157.09937230492505 103.26221374046872,157.03653482079972 105.95190839696443,157.47639615002845 107.09580152670969,157.9948009702057 106.77633587786113,159.45574152696645 108.53854961832985,158.8430923569831 109.77519083971856,158.95305538179673 111.03244274808094,159.33007029347937 110.82633587784949,160.11551219062676" stroke="#4dd2ff" stroke-linecap="round" stroke-linejoin="round" stroke-width="0.5"><title>2022-05-10 6.0km</title></polyline><polyline fill="none" points="147.14504864056653,162.76269890852564 147.81853330008744,162.7524328082509 149.1385632327292,162.28018996819083 150.58655525067297,162.92695623224427 151.18595659766288,162.92695623224427 151.3677974557213,163.16307521058116 152.36455475180992,162.5368442267427 152.5329259167047,162.61897331737782 153.04477425791265,163.39919309847755 152.87640309304697,164.66189199093787 153.27375904214568,165.63712588965427 153.89336492891016,166.5815451992712 154.99114492394438,167.59780301461433 156.84322773761232,169.97925735507306 157.41568969818763,170.87227413846995 158.08917435770854,173.16119996267662 158.5,173.1406719352708 158.27101521576697,172.13478849732928 157.7254926415626,170.9030675424874 157.2742579196929,169.322315511763 157.2607882264856,168.98357657579618 157.95447742579563,168.59351077874817 156.90384135695058,164.31285639132693 156.39199301572808,163.26573529581947 155.11237216263544,161.66421449100744 153.6711149912735,160.35010866883385 152.85619855325785,159.80597683831365 151.40147168868862,159.05650275978041 150.0545023696759,158.72796271365587 148.0744574706914,158.54315800988843 146.0540034921578,158.6971619760916 145.80481416813564,158.28648370197334 144.15477675230068,157.19817032062565 142.3700424045819,156.78748000484848 139.24507358443225,157.0133600868321 138.7534297829843,157.1776358832176 137.770142180103,157.14683421160953 136.05275629834796,158.49182325140282 134.6519082065206,159.17970473278547 132.04552257420437,159.10783695128703 131.6346969319129,158.9230336206674 131.5,159.16943791302765 133.69555999002478,159.43637455627686 134.941506610121,159.3439735682914 136.27500623595552,158.63556044526922 137.94524819156504,157.1776358832176 140.08692940881883,157.187903102953 140.6324519830232,156.9825583162201 141.3126714891696,157.1262997535232 143.15128460963024,157.1776358832176 144.3635569967737,157.66019298235187 144.7407084060833,157.34191115172507 145.3872536792187,157.98873989034837 145.8788974806812,158.19408063565788 145.87216263408482,158.676628140729 145.60276877027354,158.85116547835787 146.2493140433944,159.3542403529682 147.69730606135272,159.5082418759339 149.52244948864973,159.26183921649135 150.19593414817064,159.55957561386094 151.15228236466646,160.391174987024 151.63045647295075,160.20637629528574 153.26702419556386,161.53075215943318 154.28398603142705,163.16307521058116 154.1425542529323,163.00908469620117 153.06497879770177,163.56344837736833 152.8427288600651,164.54896896944774 152.95048640559253,164.94933128390403 153.89336492891016,166.5815451992712 154.86991768520966,167.45409101439873 157.13956098779454,170.30772511163377 158.2238712896069,173.2125199951479 158.41918184085807,173.13040791848834 158.43938638063264,172.81222237608745 157.39548515839851,170.26666675747038 157.1732352207473,169.1683435463383 157.23384884011466,168.99384142499548 157.9275380394247,168.6243055551131 157.05874282863806,164.94933128390403 156.52668994762644,163.57371431479623 154.54664504864195,161.19196159924832 153.11212272386183,160.04211023078096 151.31391868297942,159.05650275978041 148.78161636317964,158.5739588402248 146.00685956596863,158.66636121997362 145.8519580942957,158.27621670286317 144.7339735594869,157.42404858805457 143.4206784734415,156.9517565270835 142.51820902968757,156.80801459902068 139.67610376652738,156.99282557514016 138.5311798453331,157.2187047498337 140.92878523323452,157.06469632989683 140.89511100025265,158.46102237157174 140.69980044898693,159.53904212484485 141.0971563981002,159.67250965580024 140.81429284109618,159.75464334781282 140.86143676728534,160.5143737437793 143.48129209280887,160.8018363549745 144.3366176103882,161.12009664635116" stroke="#4dd2ff" stroke-linecap="round" stroke-linejoin="round" stroke-width="0.5"><title>2022-05-08 15.0km</title></polyline><polyline fill="none" points="171.2191780821595,160.24003738549072 171.9691780821886,160.27135915114195 174.2191780821595,159.55095535900182 176.41780821915017,160.50627199248265 177.2089041095751,160.47495032121515 177.671232876688,160.9134525748159 178.85273972601863,160.13041110665654 179.39726027398137,160.06776744962553 180.2191780821595,161.4145949888043 179.96232876711292,163.09026655183698 180.49657534246217,164.53100210345292 181.86301369860303,166.53545947129896 183.11643835616997,167.52200941651972 186.6712328767171,172.23535360490496 188.04794520547148,176.18119018500875 188.5,176.07158630846243 188.4589041095751,175.5392224317693 187.30821917805588,172.72076490332984 186.5993150684808,169.808251801398 187.66780821917928,169.21320886429748 186.50684931504657,163.98289932346233 185.900684931461,162.21328405575332 185.1404109588766,160.9134525748159 183.05479452054715,158.43901470526907 180.52739726024447,156.21508583823015 177.3219178081781,154.4766184077307 172.29794520544237,153.81880981498398 162.12671232875437,154.93081634088594 162.04452054793364,155.5259682494434 161.5205479451688,155.74523359727755 161.5,156.35604095851886" stroke="#4dd2ff" stroke-linecap="round" stroke-linejoin="round" stroke-width="0.5"><title>2022-05-05 5.1km</title></polyline><polyline fill="none" points="23.018181818188168,191.98001451849996 24.22727272726479,192.0631595356972 25.790909090894274,191.49499992156052 27.82727272727061,192.2848790919379 28.57272727272357,192.2848790919379 28.81818181820563,192.58974231862157 30.236363636358874,191.75829398283167 30.354545454552863,191.84143926718752 31.0545454545354,193.04703463360056 30.863636363646947,194.39117935014656 31.309090909082443,195.8461518572949 32.14545454547624,197.13481617753132 33.70909090907662,198.61744320949583 35.272727272706106,200.5018577704068 36.96363636365277,203.06513322207684 37.890909090900095,206.05781005547033 38.5,206.05781005547033 37.009090909094084,201.0006647776063 36.97272727271775,200.30787629404585 37.663636363635305,200.11389427252652 37.772727272706106,199.8921998660844 36.68181818182347,195.02859965248717 35.518181818159064,192.67288660127815 33.64545454544714,190.35866666075162 30.89999999999418,188.0720857113156 28.57272727272357,186.89412050238388 25.354545454552863,186.31205968264112 21.68181818179437,186.49222188955537 21.372727272711927,185.9378751346012 19.427272727247328,184.55198876480063 17.93636363634141,184.05306285810366 16.3909090909292,183.94218994452604 12.536363636347232,184.2470900282533 11.518181818188168,184.55198876480063 11.5,184.6905786542302 14.763636363612022,184.4549756765373 14.472727272746852,187.6424771997772 14.936363636370515,187.79491923579917 14.67272727272939,187.80877758599308 14.627272727288073,188.97286906888985 18.18181818179437,189.36089519962843 19.39999999999418,189.77663506157114 19.527272727282252,189.98450405331823 19.118181818164885,190.89912017900133 19.18181818179437,191.12084347494238 20.79999999998836,190.677396170664 21.927272727247328,190.7466849998018 23.29999999998836,191.20398952728647 24.136363636382157,191.19013185883523 24.92727272727643,190.9129779058494" stroke="#4dd2ff" stroke-linecap="round" stroke-linejoin="round" stroke-width="0.5"><title>2022-05-04 7.1km</title></polyline><polyline fill="none" points="50.958729554957245,190.15573620855866 52.59166983643081,190.12442631281738 54.24515024723951,189.5451909743424 56.30943324457621,190.42186981435225 57.39806009887252,190.5471088438935 57.53157093952177,190.93847951469797 59.24667173830676,189.92091168430488 60.18124762264779,191.3298482208411 59.934766070742626,193.19273633101693 60.46880943325232,194.52334344464907 61.7422974515066,196.38615525496425 63.06713579306961,197.544519988689 66.32274629137828,201.6925768686342 66.81570939521771,202.52216176470392 67.88379612020799,206.1064931672372 68.5,206.0908414231817 68.34594903007383,205.13607909638085 67.05192088248441,202.24041694065818 66.6103081019537,200.37774499098305 66.57949790795101,199.7829328102016 67.51407379232114,199.3916065325102 67.64758463294129,199.14115668401791 65.97356409282656,192.55090595768706 65.06979840243002,190.76627666159766 64.06333206541603,189.46691559854662 60.253138075291645,186.0696885679572 57.5521110688569,184.61368880828377 54.40947128186235,183.92481923090236 51.05116013693623,183.89350683275552 48.42202358311624,184.3945036939258 46.8712438189541,184.37884759075678 42.08539368581842,184.9581213144411 42.05458349181572,185.55304660445836 41.869722327857744,185.78788428507687 41.571890452643856,185.6782934554576 41.5,186.17927884734672 41.571890452643856,186.97771766165533 41.99296310383943,187.49435018424265 43.67725370862172,188.52760495893745 46.41936097375583,189.29470949513052 46.99448459487758,190.62538313525147 47.01502472424181,191.98734322463133 49.46957017877139,192.66048712716292" stroke="#4dd2ff" stroke-linecap="round" stroke-linejoin="round" stroke-width="0.5"><title>2022-05-01 6.0km</title></polyline><polyline fill="none" points="77.64363885088824,189.2677146348069 77.5697674418625,189.06127354929777 79.23187414504355,189.23017992589303 80.36456908346736,188.81729713305685 80.4384404924931,189.3427840074146 80.42612859094515,188.81729713305685 81.41108071134659,188.44194755683566 82.17441860467079,188.9862039505606 83.3071135430946,189.1175757087185 84.11969904240686,189.58675905194832 85.2277701778512,189.53045717514033 85.48632010945585,190.0371728456521 87.22229822160443,188.948669128622 87.55471956223482,189.02373875751073 88.56429548567394,190.58141995038022 88.3426812585385,193.11494234540442 88.97058823533007,194.4848925153783 89.88166894667665,195.9861847113134 91.93775649793679,197.9002972901435 96.07455540358205,203.0982287976658 97.97058823533007,208.42721590174187 98.5,208.29587127963168 98.4384404924931,207.5453270414655 96.24692202464212,201.4844615070033 96.37004103968502,200.60250714418362 97.51504787965678,199.94572721289296 95.96374829002889,193.34014101260254 94.62175102601759,190.1685431266087 92.06087551297969,187.05314101800468 88.56429548567394,184.1440874641703 84.89534883722081,182.36107440133492 82.53146374828066,181.77924172508938 79.1580027359887,181.5727840982654 75.42749658002867,181.9481612622767 75.0088919288537,182.2109243800005 75.68604651166243,182.86782894234784 77.28659370724927,183.33704366003803 81.5957592339546,182.83029166316555 82.70383036936983,183.07428370835987 84.72298221616074,184.81974668493785 85.94186046512914,184.4068444082004 86.68057455541566,185.30771975111566 89.06908344733529,187.2032832603145 90.58344733246486,189.66182816831133 88.62585499315173,190.78785767835507 88.30574555401108,192.42057637233665 88.49042407661909,193.5278061542558 90.23871409028652,196.38026991715742 92.23324213409796,198.20054668723606 96.24692202464212,203.49228402024892 97.9213406292547,208.40845239561895 98.47537619702052,208.3146348083974 98.42612859100336,207.5453270414655 97.04719562243554,204.1678033943026 96.25923392613186,200.99657288788876 96.40697674421244,200.64003728656098 97.50273597810883,199.94572721289296 96.12380300959921,193.9406681393957 94.58481532151927,190.0371728456521 91.85157318742131,186.80915935976373 88.44117647060193,184.01270871513407 85.38782489742152,182.49245547210012 80.6231190150429,181.68539740577398 79.02257181939785,181.5915529922495 74.45485636117519,182.2672306662571 71.72161422710633,182.37984313703055 71.5,184.10655069756467 73.58071135432692,185.1388062857659" stroke="#4dd2ff" stroke-linecap="round" stroke-linejoin="round" stroke-width="0.5"><title>2022-04-30 10.1km</title></polyline><polyline fill="none" points="110.9011428571539,190.86965967351716 112.40285714287893,190.96373249154567 114.21314285715926,190.30522038508934 116.52742857142584,191.32434391084098 117.44285714285797,191.2302715272599 117.71028571430361,191.60656038170418 119.3765714285837,190.71287139152992 120.26114285716903,192.170990263352 119.98342857146054,193.8956118452188 120.69314285714063,195.62019533774583 121.86571428569732,197.28203066841525 123.11028571426868,198.3010631428624 126.64857142858091,202.83167730643618 127.89314285712317,206.67230352715706 128.05771428570733,206.97014011793362 128.5,206.8604109798107 128.35599999997066,205.63770443864632 126.64857142858091,200.9975156955552 126.71028571430361,200.5115340323464 127.59485714283073,200.16664198494254 127.70800000001327,199.9314874428892 126.45314285712084,194.4757032710986 125.31142857141094,191.95149023860722 122.38000000000466,188.53348166994692 119.97314285713946,186.5892265505463 117.66914285713574,185.4289222024454 114.17200000002049,184.67628313532623 111.826857142878,184.6135628855409 109.37885714287404,184.8487635623096 108.37085714287241,185.1780433194799 107.26000000000931,185.11532347282628 102.44628571430803,185.67980027927842 102.15828571427846,185.75819951297308 101.98342857143143,186.32267167180544 101.5,186.2599527446 101.60285714286147,185.00556361989584 105.59371428572922,184.69196318987088 105.64514285718906,183.547310931237 105.99485714288312,183.02985988207365 106.66342857145355,183.42186856758053 106.07714285716065,184.55084258540592 105.84057142859092,186.79306202028238 108.02114285717835,187.49864222958422 106.66342857145355,190.39929388318706 107.03371428573155,191.59088171561598 106.97200000000885,192.7197376256736 108.81314285716508,193.2057677833509 110.2840000000142,194.1778190231489 111.49771428570966,192.6413453814166 110.36628571432084,192.0455617533371 110.58228571430664,191.089162739343 110.86000000001513,190.9950900723852" stroke="#4dd2ff" stroke-linecap="round" stroke-linejoin="round" stroke-width="0.5"><title>2022-04-28 7.1km</title></polyline><polyline fill="none" points="147.018943170493,192.67204999581736 147.11316051847825,192.77463434618403 147.26794616151892,192.6515331010196 148.09571286142454,192.67204999581736 149.13883349951357,192.29248610834475 149.7108673978364,192.67204999581736 150.1348454636318,192.692566882346 150.57901296112686,192.9387688783463 151.21161515454878,192.9387688783463 151.44042871386046,193.21574470565974 152.48354935196403,192.55920697248803 153.02193419744435,193.55426867761707 152.8738783649169,194.6621496305379 153.2372881356132,195.64691253192723 153.72856430709362,196.4572760998053 154.8995513459813,197.55483664153144 157.2078763708996,200.49864428456567 158.0221834496624,203.01151662489428 158.2173479561461,203.23715625780824 158.5,203.13459291183972 158.41924227320123,202.65254242809897 157.6520438684238,200.91917438844393 157.1944167497859,199.30883304640884 157.22806580261386,198.898546884775 157.9010468594497,198.6113446113195 156.89830508474552,194.42621403352678 156.31954137589491,193.31832796435629 154.81879361915344,191.50257384222277 153.62088733799465,190.43565996433244 152.38260219343647,189.61494181916714 151.29237288137665,189.06094961744748 149.56954137590947,188.64032189644786 147.79287138587097,188.54798851854503 145.98928215356136,188.69161814543259 145.84795613163442,188.32228400323584 144.11166500500985,187.19374646862707 142.5772681954404,186.7936226289239 139.1854436690046,187.03985305501556 138.8018444666086,187.19374646862707 138.00772681956005,187.0603722036176 137.56355932205042,187.25530370427805 135.64556331008498,188.74291434288534 134.6226321037102,189.18405951479508 132.00473579265235,189.0814679542782 131.72208374876936,188.94809861761314 131.5,189.24561435221767 134.51495513461123,189.43027841944786 135.1273678963189,189.2763917431039 136.09646061815147,188.7531735761877 138.0279162512743,187.0603722036176 138.52592223332613,187.12192959996173 139.7440179461846,186.84492073220827 142.90029910270823,186.76284374219176 144.77118644070288,187.3886774603816 145.9085244267335,188.41461778913072 145.87487537390552,188.7121366305728 145.30957128616865,188.9583578097263 145.38359920241055,189.46105569908468 145.15478564309888,190.4254010689001 144.6836989033036,191.0101548210987 144.02417746762512,192.51817308401223 144.38758723830688,193.09264452335265 144.37412761716405,193.92356499796733 145.25573280161188,194.1184703130566 146.5613160518551,194.83653611067348 147.30832502493286,193.75943362957696 148.6677467597474,192.97980242900303 149.55608175475209,192.66179154943893 148.63409770689032,191.90266080211586 147.96111665006902,192.1899007898428 147.03240279163583,192.22067640702517 146.62861415754014,193.27729468559482 146.80358923232416,193.5132355883834 147.3554336989182,193.77995007948994 148.1899302093807,193.22600304080697 148.02168494518264,192.86696008541549 147.07278165506432,192.83618485755142" stroke="#4dd2ff" stroke-linecap="round" stroke-linejoin="round" stroke-width="0.5"><title>2022-04-27 10.1km</title></polyline><polyline fill="none" points="166.90490757118096,189.2986982525763 168.29228377935942,189.1854046026201 170.99271247020806,188.3734627833619 171.61207684886176,188.86440518641757 172.86319289371022,189.10987542679504 173.64359201077605,189.63857838358672 174.7212860296131,189.67634276676836 175.05574279406574,190.05398576437437 176.86428677965887,188.90216988050088 177.48365115831257,189.26093371774186 178.15256468721782,190.60156541712786 177.96675537366536,193.05619364386075 178.6108943274303,194.60446465029236 180.28317814978072,196.8890618954465 181.5962306324509,197.96525789671432 185.8202956947789,203.4404503509504 187.43064307922032,208.5 188.13671847086516,208.34897260829894 188.09955660815467,207.78261772939732 186.50159651125432,203.70476192139176 185.9565558580507,201.5524889592998 185.88223213260062,200.75953387295158 187.14573546504835,200.06097266229335 185.60971180602792,193.30165294269682 184.1727864475688,190.24280669446307 181.4599704691791,186.97615114587825 179.23025870605488,184.99344359507813 177.89243164821528,183.99263247854833 174.1762453764386,182.1798154107164 169.1965557721851,181.5 164.87339240926667,181.83990831972915 164.0062822792097,182.1798154107164 164.13015515494044,183.12399532782 163.68421280229813,184.80461212427326 162.91620097277337,185.729882708285 162.37116031956975,187.29715700777888 161.86328152910573,187.97693050980888 162.65606793377083,187.9958130369123" stroke="#4dd2ff" stroke-linecap="round" stroke-linejoin="round" stroke-width="0.5"><title>2022-04-25 5.0km</title></polyline><polyline fill="none" points="27.00575287643005,222.76169568800105 28.18759379691619,222.6690465540196 29.146573286649073,222.24697615825426 29.558529264642857,222.55580849621765 30.186593296661158,222.6587521954716 30.55802901450079,222.874933291052 31.152326163108228,222.864638973846 31.429214607313043,223.13229054963813 32.50300150075054,222.48374778376092 33.05677838920383,223.37935230249786 32.914957478729775,224.59405527055787 33.26613306654326,225.55138563603032 33.97523761881166,226.63222101671636 34.974737368684146,227.51745968870455 37.27088544273283,230.47157581272768 38.209604802395916,233.2608463137367 38.5,233.15792389909257 38.4797398699302,232.75652450806592 38.061030515265884,231.43908904107593 37.64232116058702,230.69801671535606 37.277638819417916,229.38052835579583 37.24387193597795,228.96880630079613 37.96648324164562,228.618839954539 37.0615307653934,224.78964034658202 36.35242621311045,223.24552733415476 35.51500750375271,222.17491501171025 34.502001000524615,221.08369098385447 32.95547773886938,219.82772514417593 31.415707853928325,219.04530464013442 29.112806403194554,218.54084298362068 27.613556778393104,218.48936702528226 26.060280140096438,218.70556570298868 25.86443221611262,218.2319864582314 24.101800900461967,217.14067849873754 22.440470235131215,216.73915368625967 19.60405202601396,216.91417770912813 18.827413706865627,217.14067849873754 17.78739369685354,217.08920113443673 16.24762381191249,218.33493884010386 15.045522761385655,219.01441937523123 14.22161080542719,219.1791405729673 12.006503251643153,219.0555997242882 11.628314157089335,218.90117324481616 11.5,219.15855045218996 13.843421710873372,219.39533634175677 14.917208604310872,219.30268112393605 15.970735367693123,218.76733658630837 17.794147073538625,217.2127467219252 18.098049024527427,217.08920113443673 18.92871435720008,217.17156489252375 20.73861930964631,216.97595075100617 22.52826413208095,217.01713273756468 23.453476738373865,217.16126942999472 24.297648824431235,217.562790936252 24.5745372686506,217.28481484379517 23.18334167082503,216.8318135375266 21.31940970485448,216.80092693903862 19.151575787895126,216.99654174842726 18.476238119081245,217.18186035297185 19.90120060031768,217.12008755921852 20.806153076540795,216.9244732212901 21.33966983492428,217.05831469105397 22.609304652331048,216.99654174842726 23.791145572788082,217.34658743905675 24.162581290656817,217.7172214474449 23.777638819432468,218.5820237130938 23.615557778903167,219.89978959002474 24.97298649327422,220.33217413781313 24.27063531767635,222.04108689939676 24.945972986490233,221.81460775963205 26.141320660331985,221.84549133759356 27.012506253144238,222.0719703409195 26.870685342670185,222.55580849621765" stroke="#4dd2ff" stroke-linecap="round" stroke-linejoin="round" stroke-width="0.5"><title>2022-04-22 10.1km</title></polyline><polyline fill="none" points="55.52986348126433,222.47824975055846 56.604948805470485,222.46654417956597 56.681740614323644,222.24413788385573 57.81825938564725,221.92808537247038 58.317406143352855,222.27925472378047 59.03156996588223,222.38460511670928 59.52303754267632,222.6772440980276 60.09897610923508,222.6304219597514 60.3754266211763,222.95817613810868 61.65017064847052,222.23243226585328 62.318259385676356,223.29763388028005 62.180034129705746,224.64373994928974 62.571672354941256,225.73230734373647 63.41638225255883,226.93790127435204 64.46075085326447,227.87426770837556 67.11006825938239,231.2801737732152 68.1313993174117,234.32308306639607 68.5,234.32308306639607 68.32337883961736,233.25808287830296 67.66296928329393,231.80684251559796 67.1177474402939,229.93422092765468 67.10238907849998,229.54798524307625 67.77815699658822,229.24367653793524 67.90102389079402,229.04470460270386 67.0025597269705,225.18217367409306 66.51877133108792,223.8594906274193 66.08105802049977,223.05181985062882 64.41467576794093,221.02674102119272 62.1262798634998,219.0952419100904 60.3677474402939,218.2172666119659 58.501706484647,217.79583377188828 56.328498293529265,217.64364894196115 54.32423208194086,217.85436629298056 54.063139931764454,217.32757148723613 52.1279863481177,216.09836509297747 50.26194539249991,215.67691693360393 44.78668941979413,216.09836509297747 42.95904436861747,217.63194240013763 41.52303754264722,218.29921153264877 41.5,218.6386964053745 42.88993174061761,217.95972468285618 45.17064846417634,216.00471020975965 47.29778156997054,216.08665824078707 48.21160409555887,215.85252070362912 48.9948805460881,216.00471020975965 50.69965870308806,215.96958958977484 51.59812286691158,216.25055395721938 52.16638225258794,216.66029123228145 51.73634812288219,217.71388814360762 51.59812286691158,219.31766021969452 53.1262798634998,219.7742004069696 52.30460750852944,221.6822655678734 53.579351535852766,221.2959752091847 56.029010238911724,221.79932274694147 57.32679180888226,221.37791580219346" stroke="#4dd2ff" stroke-linecap="round" stroke-linejoin="round" stroke-width="0.5"><title>2022-04-21 8.1km</title></polyline><polyline fill="none" points="85.2457337884116,222.46655371949964 86.505119453941,222.38461472246127 86.81996587029425,222.25585320873506 86.95051194538246,221.99832932798017 86.8660409556469,222.39632030053326 87.80290102388244,221.92809534491607 89.45392491470557,222.61872583703735 90.16040955632343,222.60702030364337 90.3754266211472,222.91136340814774 91.58873720135307,222.16220829281883 92.27218430035282,223.15717783267974 92.14931740614702,224.69056822432685 92.6254266211763,225.80254366093868 93.19368600685266,226.69210873970587 94.56058020479395,228.00302201050727 97.17918088738224,231.36210273074175 98.16979522185284,234.36989579635338 98.5,234.27627033643512 98.38481228670571,233.7028111139516 97.57081911264686,231.73662238702673 97.08703071673517,229.67673450511938 97.17150170647074,229.46606005127614 97.84726962458808,229.1968638079743 97.58617747438257,227.59336477981924 96.8796928327647,224.7725039803263 96.06569965870585,223.06353436459176 94.30716723549995,220.92139895540095 92.1186006825883,219.11866663274486 90.45221843002946,218.2641052105173 88.92406143344124,217.83096655500412 86.42832764505874,217.6202492885932 84.18600682594115,217.84267304746027 84.17064846417634,217.7139015010289 84.06313993173535,217.33929174855803 82.01279863479431,216.03984551082613 80.13907849832322,215.630104203643 76.61433447099989,215.86424244614682 75.78498293514713,216.08667290541416 75.20904436861747,215.9227768598139 74.86348122867639,216.00472494021597 72.96672354949987,217.51489036978455 71.51535836179391,218.21727956509858 71.5,218.56847098903745 72.8822525597352,217.87779251073516 75.14761092152912,216.00472494021597 76.1228668942058,216.13350026237094 78.18856655291165,215.91106998176474 80.18515358361765,215.91106998176474 81.36006825938239,216.12179342667878 82.18941979520605,216.70713233221977 81.71331058020587,217.7021949827249" stroke="#4dd2ff" stroke-linecap="round" stroke-linejoin="round" stroke-width="0.5"><title>2022-04-19 7.2km</title></polyline><polyline fill="none" points="105.0375152604247,218.30025505603408 105.07653282466345,218.08217834392417 106.98839347314788,217.96322720709577 108.91325997633976,217.24951737641095 111.87859485967783,218.55798145832523 113.06212764204247,218.47868109847332 113.32224473706447,218.99413229891798 115.2861288045533,217.72532450340805 115.7283278660907,218.08217834392417 116.53469086068799,219.54923058227723 116.26156791092944,221.98766107604024 116.92486650325009,223.63307201512362 117.88729975483147,225.15951306728675 120.12430677207885,227.28063223356003 124.67635593510931,233.16798593242856 126.35411119801574,238.40089455773705 126.5491990193259,238.40089455773705 126.90035709759104,238.24232564333943 126.84833367861575,237.19180015384336 125.0925432871154,232.9499420549182 124.53329153280356,230.43249150842894 125.8989062817418,229.42152873846499 124.44225054956041,223.05817251437838 122.95958310787682,219.2518568900341 120.0332657888066,215.78243096662482 116.13150936341844,212.4516673786202 114.7919063240115,211.81722347876348 113.99854918417986,211.5 113.86849063666887,213.06628101872047 114.47976580998511,213.85932522335497 117.04191919602454,215.98068716075068 118.62863347568782,218.20112933750352 119.85118382232031,220.22327430228324 120.4234414313687,222.44362107059715 124.15612174503622,221.90836347072036 124.8844496110978,224.02955247912905 125.96393555548275,229.48099742325576 124.75439106358681,230.35320068483998 125.7168243152264,234.05997859954368 127.18648590211524,238.16304109067278 126.48416974552674,238.5 126.0029531197215,237.8459022432653 124.66335008031456,233.94104670947127 123.85698708574637,232.375096797281 120.33240044809645,227.7563910239478 117.74423535258393,225.2388080615492 116.0924917991506,222.36432383152714 116.00145081590745,221.59117241269269 116.39162645844044,219.80695372440096 118.47256321864552,218.53815637429943 119.825172112789,220.2034495525877 120.5014765598753,222.48326966632158 123.85698708574637,221.67047027274384 122.64744259385043,218.97430730253836 119.17487937520491,215.0092280054887 116.0924917991506,212.51114628523646 114.01155503891641,211.5198264972496 113.93351991038071,213.3041949489707 115.1040468380379,214.4541041965931 114.01155503891641,215.3660916630397 112.65894614477293,215.0092280054887 112.19073537370423,215.32644020922453 111.46240750764264,216.21859406828298 111.64448947415804,217.9434020036715 108.38001993155922,218.47868109847332 107.66469792017597,219.19238204408612 105.6357845790044,220.3620474380732 104.1271054278186,222.28502652872703 102.81351409791387,221.57134793775185 104.73838060113485,216.9323113511491 106.42914171880693,216.9521367576017 108.13290869124467,216.2978962433408 108.88724826680846,217.24951737641095 107.24851056816988,218.2407796368425 104.68635718213045,218.32008018775377" stroke="#4dd2ff" stroke-linecap="round" stroke-linejoin="round" stroke-width="0.5"><title>2022-04-10 10.4km</title></polyline><polyline fill="none" points="133.8302248607797,218.35084018868656 133.97477489203447,218.13049885035434 135.59110705921194,218.23065406445676 137.9564712063293,217.32925351746235 138.75806683397968,217.93018812041555 140.9000354783202,218.65130486576527 142.09585846381378,218.53111910351436 142.27983123081503,219.09198475509038 144.38237713937997,217.89012592618383 145.57820012484444,219.51263192448823 145.3548046220676,222.0565079605076 145.98556839462253,223.67894619907747 147.41792779485695,225.88221514147153 149.4547691437474,227.74494092480745 153.85697463981342,233.4330495669783 155.47330680701998,238.47997303446755 156.1697751392494,238.5 153.77812916820403,231.0697198622438 153.76498825629824,230.44883582370676 155.15792492075707,229.74783307160396 153.4890291058109,222.21674994853674 152.14865608909167,219.47257036571682 149.29707820064505,215.96712168193335 145.21025459087105,212.50161418764037 143.08142685843632,211.5 143.01572229882004,213.44312235416874 146.169541161682,215.96712168193335 147.73330968111986,218.71139769255387 145.69646833222941,219.77303166424826 144.46122261096025,217.97025029864017 142.4375221739756,219.1520773164375 140.01959437911864,218.2106230296995 138.96832142482162,218.13049885035434 137.6279484081606,218.51108812908933 135.97219350514933,219.69290873980935" stroke="#4dd2ff" stroke-linecap="round" stroke-linejoin="round" stroke-width="0.5"><title>2022-04-09 5.2km</title></polyline><polyline fill="none" points="163.81535157805774,218.33587961900776 165.28822709037922,218.21560425768257 165.32767911304836,218.015145000114 168.04986867605476,217.23335004969704 168.79945710644824,217.93496118443727 170.00931913449313,218.09532875144214 170.91671565544675,218.5764299069342 172.04767363818246,218.5764299069342 172.3764404935937,219.05752874397876 174.38849364887574,217.77459335976164 174.98027398862178,218.31583373555623 175.6509583737643,219.57871653450275 175.41424623780767,222.04429881557007 176.0586292744847,223.7681657039575 177.68931287745363,226.07329003035557 179.51725659365184,227.71691139406175 183.87012975962716,233.4292874016537 185.57971740790526,238.5 186.18464842191315,238.39979078290344 186.06629235393484,237.2373565141097 184.73807425799896,234.13078473016503 183.791225714318,230.54307510985382 184.00163650180912,230.18229270686425 185.14574515871936,229.64111665801465 184.44875942519866,225.8928909157039 182.97588391284808,220.78144720534328 182.10793941447628,219.07757447852782 180.56931053104927,217.23335004969704 176.84766972754733,213.64503314968897 175.34849286676035,212.5023576757958 173.13917959821993,211.5 172.96822083339794,212.84315699284343 173.20493296929635,213.58489266136166 176.01917725181556,215.87020574878989 177.80766894543194,218.5764299069342 175.80876646432444,219.67894464386336 174.3490416262066,217.91491522046272 172.54739925841568,219.01743726277346 169.86466171804932,218.11537467924063 167.45808833630872,218.47620069074037" stroke="#4dd2ff" stroke-linecap="round" stroke-linejoin="round" stroke-width="0.5"><title>2022-04-07 5.0km</title></polyline><polyline fill="none" points="13.810504506865982,247.6497524219012 13.692236204515211,247.89012592524523 14.020759266568348,248.0904367355397 15.558247196895536,248.0904367355397 18.225854460702976,247.30922230073338 19.027450732071884,247.93018811945512 20.43352943760692,248.1505299001874 20.946025414421456,248.4910571495493 22.154990282695508,248.5511500728826 22.404667809867533,249.0318921564467 24.480933561979327,247.78997036921646 25.111697841086425,248.310778162333 25.821307655074634,249.7329702089046 25.597911972901784,252.2968708447297 26.741172228794312,254.60031912942213 27.884432484715944,256.1025393581367 29.448202260042308,257.34435766900424 34.086947896081256,263.4130215835103 35.70328136134776,268.5 36.30776379551389,268.43991909125907 36.26834102804423,267.41853810810426 34.21835712090251,262.7120396582395 33.82412944643875,260.3887500653509 35.13822169462219,259.80791921357013 35.230208151973784,259.2471138033143 33.74528391152853,253.0780462229377 32.77285564789781,250.2337372299662 31.68215908194543,248.69136675326445 30.946267422958044,249.11201561183407 31.366776942362776,248.41093319544598 29.29051119025098,245.76680660721468 25.53220736052026,242.62180721408367 23.219405003706925,241.5 23.08799577888567,242.86219283301762 23.337673306057695,243.603378177977 26.1235488721577,245.74677507773595 28.055264476977754,248.33080917699408 26.820017763704527,249.31232396867563 25.84758950007381,249.69290873863065 24.691188321681693,247.9902813806184 24.204974189866334,248.07040567258082 23.81074651540257,247.62972127051762 23.179982236324577,245.50639640979352 24.402088027069112,244.36458982706245 26.149830717156874,245.82690117162565 28.04212355450727,248.41093319544598 26.084126104717143,249.6328165031082 25.86073042251519,249.6728779974219 24.520356329419883,247.87009482205758 22.562358879629755,249.0318921564467 22.102426592784468,248.65130486464477 20.906602646951796,248.5311191024157 18.081304313411238,247.46947191431536 16.648943762877025,248.1705609470664 14.756650925526628,248.2907471436847" stroke="#4dd2ff" stroke-linecap="round" stroke-linejoin="round" stroke-width="0.5"><title>2022-04-03 6.2km</title></polyline><polyline fill="none" points="66.5983606557129,259.3734271231733 67.17213114758488,256.99934175964154 66.9918032787391,256.02470412857656 68.5,255.27497767958994 68.5,254.55023781881027 63.97540983610088,251.65123616644996 61.401639344287105,250.9514670284334 55.87704918032978,251.0264424814959 50.893442622967996,251.80118618406414 48.713114754122216,251.62624447930284 44.81147540983511,254.77515753759508 41.64754098356934,256.3495841870754 41.5,257.02433236772777 44.254098360659555,255.84976836116402 48.79508196719689,251.85116948313953 49.713114754122216,251.55126938764442 53.66393442626577,251.6012527870771 56.02459016395733,251.0764260916767 61.68032786890399,251.57626108982367 64.5,252.77585689423722 65.106557377032,252.35100136935944 64.56557377049467,251.80118618406414 60.106557377032004,250.87649153036182 52.38524590164889,251.426310801231 50.87704918032978,251.8761611250884 48.87704918032978,251.62624447930284 43.926229508186225,255.4998960886005 41.5,256.474537829934 41.729508196760435,257.02433236772777 44.696721311484,255.54987790199084 48.696721311484,251.97612764290534 49.909836065606214,251.5262776804302 50.64754098362755,251.65123616644996 53.31967213115422,251.0014506688094 60.713114754122216,250.6265728768194 65.12295081972843,251.92614439397585" stroke="#4dd2ff" stroke-linecap="round" stroke-linejoin="round" stroke-width="0.5"><title>2022-03-24 5.1km</title></polyline><polyline fill="none" points="87.5247747815738,267.86339030943054 86.77927041694056,267.69665831222665 85.71568419007235,268.5 85.23856139671989,268.25748265611765 85.0,267.6511858854137 84.69185819593258,264.9076320847671 84.33401610091096,264.0587775482127 83.9065935985418,263.75561289883626 81.43151910792221,263.69497982279427 80.16913171712076,262.4823080667411 92.38546323904302,246.15481635997276 86.53076896205312,241.5 77.61453676098608,259.6930890433068 83.11138894292526,265.30173987273884 83.44935092155356,265.0288962388513" stroke="#4dd2ff" stroke-linecap="round" stroke-linejoin="round" stroke-width="0.5"><title>2021-10-26 5.0km</title></polyline></svg>