<?xml version="1.0" encoding="utf-8" ?>
<svg baseProfile="full" height="300mm" version="1.1" viewBox="0,0,200,300" width="200mm" xmlns="http://www.w3.org/2000/svg" xmlns:ev="http://www.w3.org/2001/xml-events" xmlns:xlink="http://www.w3.org/1999/xlink"><defs /><rect fill="#222222" height="300" width="200" x="0" y="0" /><text fill="#FFFFFF" style="font-size:12px; font-family:Arial; font-weight:bold;" x="10" y="20">Over 5km Runs</text><text fill="#FFFFFF" style="font-size:4px; font-family:Arial" x="10" y="280">ATHLETE</text><text fill="#FFFFFF" style="font-size:9px; font-family:Arial" x="10" y="290">Wenz</text><text fill="#FFFFFF" style="font-size:4px; font-family:Arial" x="120" y="280">STATISTICS</text><text fill="#FFFFFF" style="font-size:3px; font-family:Arial" x="120" y="285">Number: 4</text><text fill="#FFFFFF" style="font-size:3px; font-family:Arial" x="120" y="290">Weekly: 1.0</text><text fill="#FFFFFF" style="font-size:3px; font-family:Arial" x="141" y="285">Total: 21.3 km</text><text fill="#FFFFFF" style="font-size:3px; font-family:Arial" x="141" y="290">Avg: 5.3 km</text><text fill="#FFFFFF" style="font-size:3px; font-family:Arial" x="167" y="285">Min: 5.0 km</text><text fill="#FFFFFF" style="font-size:3px; font-family:Arial" x="167" y="290">Max: 6.2 km</text><polyline fill="none" points="21.44605473417323,55.00763885703054 25.86468127113767,54.646812773047714 25.98303733917419,54.045435000327416 34.14960602822248,51.70005014911294 36.39837131940294,53.80488355332636 40.02795740345027,54.285986254311865 42.750146966427565,55.729289720824454 46.143020914518274,55.729289720824454 47.12932148075197,57.17258623195812 53.16548094665632,53.323780079284916 54.94082196592353,54.94750120668323 56.95287512126379,58.73614960350096 56.242738713510334,66.13289644671022 58.175887823454104,71.30449711187975 63.06793863233179,78.2198700910667 68.5517697809264,83.15073418218526 81.61038927885238,100.28786220497568 86.73915222368669,115.5 88.55394526582677,115.19937234872486 88.19887706183363,111.71206954232184 84.21422277402598,102.3923541904951 81.37367714301217,91.62922532955417 82.00490950548556,90.54687812060001 85.4372354762163,88.92334997403668 83.34627827559598,77.67867274710443 78.92765173863154,62.34434161602985 76.32381824345794,57.23272343559074 71.70793159317691,51.70005014911294 60.543009182671085,40.93509944906691 56.04547860031016,37.50707302740193 49.41753879468888,34.5 48.904662500252016,38.529470978537574 49.61479890788905,40.75467798410682 58.057531755534,47.610617246391485 63.42300683632493,55.729289720824454 57.42629939306062,59.03683393160463 53.0471248786198,53.74474566138815 47.64219777530525,57.05231178831309 39.59398515417706,54.34612403772189 32.37426500895526,55.42860207220656" stroke="#4dd2ff" stroke-linecap="round" stroke-linejoin="round" stroke-width="0.5"><title>2022-04-07 5.0km</title></polyline><polyline fill="none" points="111.43151352065615,52.94925726571819 111.07670861354563,53.67037777576479 112.06227779970504,54.271310206648195 116.67474159074482,54.271310206648195 124.67756338207982,51.92766690222197 127.08235219621565,53.790564358379925 131.30058831279166,54.451589700591285 132.83807624329347,55.473171448655194 136.46497084817383,55.653450218669605 137.2140034296317,57.09567646938376 143.44280068587977,53.369911107671214 145.33509352325927,54.932334487035405 147.4639229652239,59.19891062672832 146.79373591870535,66.89061253421823 150.22351668647025,73.80095738827367 153.65329745411873,78.30761807443923 158.34460678021424,82.03307300704182 172.26084368827287,100.23906475055264 177.10984408401418,115.5 178.92329138657078,115.31975727379904 178.8050230841618,112.25561432432733 172.65507136273663,98.13611897474038 171.47238833934534,91.16625019608182 175.41466508386657,89.42375764073222 175.69062445592135,87.74134140997194 171.2358517346438,69.23413866883493 168.31856694375165,60.70121168991318 165.0464772458654,56.07410025980789 162.83880226896144,57.33604683552403 164.10033082705922,55.23279958634521 157.87153357081115,47.300419821665855 146.59662208158989,37.8654216422874 139.65821501112077,34.5 139.263987336657,38.586578499060124 140.0130199182313,40.81013453396736 148.3706466165604,47.24032523322967 154.16579343099147,54.99242753098952 150.4600532911718,57.93697190604871 147.54276850016322,59.07872621589922 144.07356496504508,53.97084414187702 142.614922569599,54.21121701775701 141.43223954632413,52.88916381157469 139.53994670894463,46.519189229409676 143.20626408117823,43.09376948120189 148.44949215149973,47.480703514884226 154.1263706635218,55.23279958634521 148.25237831415143,58.89844950934639 147.58219126763288,59.01863399229478 143.56106898828875,53.61028446620912 137.68707663891837,57.09567646938376 136.3072797784116,55.953914593934314 132.7198079408845,55.59335730728344 124.24391294026282,52.408415742975194 119.94683128863107,54.51168284122832 114.26995277660899,54.87224143106141" stroke="#4dd2ff" stroke-linecap="round" stroke-linejoin="round" stroke-width="0.5"><title>2022-04-03 6.2km</title></polyline><polyline fill="none" points="89.79508196702227,238.12028136951267 91.51639344263822,230.99802527891006 90.97540983604267,228.07411238574423 95.5,225.82493303876254 95.5,223.65071345641627 81.92622950824443,214.9537084993499 74.2049180327449,212.85440108529292 57.63114754087292,213.07932744448772 42.68032786878757,215.40355855217786 36.139344262192026,214.8787334379158 24.434426229447126,224.32547261277796 14.94262295064982,229.0487525612116 14.5,231.0729971031833 22.76229508186225,227.54930508349207 36.385245901416056,215.55350844940403 39.139344262192026,214.653808162926 50.991803278564475,214.8037583612313 58.07377049175557,213.22927827504463 75.04098360647913,214.72878326947102 83.49999999988358,218.32757068271167 85.31967213109601,217.0530041080783 83.69672131130937,215.40355855217786 70.3196721309796,212.62947459108545 47.155737704830244,214.27893240368576 42.63114754087292,215.62848337527248 36.63114754087292,214.8787334379158 21.778688524500467,226.49968826581608 14.5,229.4236134898092 15.188524590106681,231.0729971031833 24.090163934393786,226.64963370599435 36.090163934393786,215.92838292871602 39.72950819670223,214.57883304127608 41.94262295064982,214.9537084993499 49.959016393404454,213.00435200642096 72.13934426219203,211.87971863045823 85.36885245901067,215.77843318192754" stroke="#4dd2ff" stroke-linecap="round" stroke-linejoin="round" stroke-width="0.5"><title>2022-03-24 5.1km</title></polyline><polyline fill="none" points="152.5743243447505,263.5901709282916 150.3378112508217,263.0899749366945 147.14705257012974,265.5 145.71568419004325,264.7724479683675 144.99999999988358,262.95355765624845 144.07557458779775,254.72289625431586 143.00204830267467,252.17633264463802 141.7197807956254,251.26683869652334 134.29455732367933,251.08493946839008 130.50739515130408,247.4469242002233 167.15638971712906,198.4644490799401 149.59230688610114,184.5 122.84361028287094,239.07926712992776 139.33416682877578,255.90521961823106 140.34805276466068,255.08668871657574" stroke="#4dd2ff" stroke-linecap="round" stroke-linejoin="round" stroke-width="0.5"><title>2021-10-26 5.0km</title></polyline></svg>