<?xml version="1.0" encoding="utf-8" ?>
<svg baseProfile="full" height="300mm" version="1.1" viewBox="0,0,200,300" width="200mm" xmlns="http://www.w3.org/2000/svg" xmlns:ev="http://www.w3.org/2001/xml-events" xmlns:xlink="http://www.w3.org/1999/xlink"><defs /><rect fill="#222222" height="300" width="200" x="0" y="0" /><text fill="#FFFFFF" style="font-size:12px; font-family:Arial; font-weight:bold;" x="10" y="20">Over 5km Runs</text><text fill="#FFFFFF" style="font-size:4px; font-family:Arial" x="10" y="280">ATHLETE</text><text fill="#FFFFFF" style="font-size:9px; font-family:Arial" x="10" y="290">Wenz</text><text fill="#FFFFFF" style="font-size:4px; font-family:Arial" x="120" y="280">STATISTICS</text><text fill="#FFFFFF" style="font-size:3px; font-family:Arial" x="120" y="285">Number: 11</text><text fill="#FFFFFF" style="font-size:3px; font-family:Arial" x="120" y="290">Weekly: 1.8</text><text fill="#FFFFFF" style="font-size:3px; font-family:Arial" x="141" y="285">Total: 77.4 km</text><text fill="#FFFFFF" style="font-size:3px; font-family:Arial" x="141" y="290">Avg: 7.0 km</text><text fill="#FFFFFF" style="font-size:3px; font-family:Arial" x="167" y="285">Min: 5.0 km</text><text fill="#FFFFFF" style="font-size:3px; font-family:Arial" x="167" y="290">Max: 10.4 km</text><polyline fill="none" points="44.037886340986006,55.34409999163472 44.226321036956506,55.54926869236806 44.53589232303784,55.30306620203919 46.19142572284909,55.34409999163472 48.27766699902713,54.58497221668949 49.42173479567282,55.34409999163472 50.26969092726358,55.385133764692 51.15802592225373,55.87753775669262 52.42323030909756,55.87753775669262 52.88085742772091,56.43148941131949 54.96709870392806,55.118413944976055 56.043868394888705,57.10853735523415 55.74775672983378,59.324299261075794 56.4745762712264,61.293825063854456 57.45712861418724,62.914552199610625 59.79910269196262,65.10967328306288 64.41575274179922,70.99728856913134 66.04436689932481,76.02303324978857 66.43469591229223,76.47431251561648 67.0,76.26918582367944 66.83848454640247,75.30508485619794 65.30408773684758,71.83834877688787 64.38883349957177,68.61766609281767 64.45613160522771,67.79709376954997 65.80209371889941,67.22268922263902 63.79661016949103,58.85242806705355 62.63908275178983,56.63665592871257 59.63758723830688,53.00514768444555 57.24177467598929,50.87131992866489 54.76520438687294,49.229883638334286 52.5847457627533,48.121899234894954 49.13908275181893,47.28064379289572 45.585742771741934,47.09597703709005 41.978564307122724,47.38323629086517 41.69591226326884,46.64456800647167 38.22333001001971,44.38749293725414 35.15453639088082,43.587245257847826 28.370887338009197,44.07970611003111 27.6036889332172,44.38749293725414 26.015453639120096,44.12074440723518 25.127118644100847,44.5106074085561 21.291126620169962,47.485828685770684 19.245264207420405,48.36811902959016 14.00947158530471,48.16293590855639 13.444167497538729,47.89619723522628 13.0,48.49122870443534 19.029910269222455,48.86055683889572 20.254735792637803,48.55278348620777 22.192921236302936,47.50634715237538 26.055832502548583,44.12074440723518 27.051844466652256,44.24385919992346 29.488035892369226,43.68984146441653 35.80059820541646,43.525687484383525 39.542372881405754,44.77735492076317 41.817048853466986,46.82923557826143 41.74975074781105,47.42427326114557 40.619142572337296,47.91671561945259 40.7671984048211,48.92211139816936 40.30957128619775,50.8508021378002 39.36739780660719,52.02030964219739 38.048354935250245,55.036346168024465 38.775174476613756,56.18528904670529 38.7482552343281,57.847129995934665 40.51146560322377,58.23694062611321 43.1226321037102,59.673072221346956 44.61665004986571,57.51886725915392 47.335493519494776,55.95960485800606 49.11216350950417,55.32358309887786 47.26819541378063,53.80532160423172 45.92223330013803,54.37980157968559 44.064805583271664,54.44135281405033 43.25722831508028,56.55458937118965 43.607178464648314,57.02647117676679 44.71086739783641,57.55990015897987 46.37986041876138,56.452006081613945 46.043369890365284,55.73392017083097 44.14556331012864,55.67236971510283" stroke="#4dd2ff" stroke-linecap="round" stroke-linejoin="round" stroke-width="0.5"><title>2022-04-27 10.1km</title></polyline><polyline fill="none" points="83.80981514236191,48.597396505152574 86.58456755871885,48.37080920524022 91.98542494041612,46.7469255667238 93.22415369772352,47.72881037283514 95.72638578742044,48.219750853590085 97.2871840215521,49.27715676717344 99.44257205922622,49.352685533536715 100.11148558813147,50.10797152874875 103.72857355931774,47.804339761001756 104.96730231662514,48.52186743548373 106.30512937443564,51.20313083425572 105.93351074733073,56.1123872877215 107.22178865486057,59.208929300584714 110.56635629956145,63.778123790893005 113.1924612649018,65.93051579342864 121.64059138955781,76.88090070190083 124.86128615844063,87.0 126.27343694173032,86.69794521659787 126.19911321630934,85.56523545879463 123.00319302250864,77.40952384278353 121.91311171610141,73.10497791859962 121.76446426520124,71.51906774590316 124.2914709300967,70.1219453245867 121.21942361205583,56.60330588539364 118.3455728951376,50.48561338892614 112.9199409383582,43.952302291756496 108.46051741210977,39.98688719015627 105.78486329643056,37.98526495709666 98.3524907528772,34.3596308214328 88.39311154437019,33.0 79.74678481853334,33.679816639458295 78.0125645584194,34.3596308214328 78.26031030988088,36.247990655640024 77.36842560459627,39.609224248546525 75.83240194554674,41.45976541657001 74.7423206391395,44.59431401555776 73.72656305821147,45.95386101961776 75.31213586754166,45.99162607382459" stroke="#4dd2ff" stroke-linecap="round" stroke-linejoin="round" stroke-width="0.5"><title>2022-04-25 5.0km</title></polyline><polyline fill="none" points="164.0115057528601,55.52339137600211 166.37518759383238,55.338093108039175 168.29314657329815,54.49395231650851 169.1170585292857,55.1116169924353 170.37318659332232,55.31750439094321 171.11605802900158,55.749866582104005 172.30465232621646,55.729277947692026 172.85842921462609,56.264581099276256 175.00600300150109,54.96749556752184 176.11355677840766,56.75870460499573 175.82991495745955,59.18811054111575 176.53226613308652,61.102771272060636 177.95047523762332,63.264442033432715 179.9494747373683,65.0349193774091 184.54177088546567,70.94315162545536 186.41920960479183,76.52169262747339 187.0,76.31584779818513 186.9594797398604,75.51304901613184 186.12206103053177,72.87817808215186 185.28464232117403,71.39603343071212 184.55527763883583,68.76105671159166 184.4877438719559,67.93761260159226 185.93296648329124,67.237679909078 184.1230615307868,59.57928069316404 182.7048524262209,56.491054668309516 181.03001500750543,54.34983002342051 179.00400200104923,52.167381967708934 175.91095547773875,49.65545028835186 172.83141570785665,48.090609280268836 168.2256128063891,47.081685967241356 165.2271135567862,46.978734050564526 162.12056028019288,47.41113140597736 161.72886443222524,46.46397291646281 158.20360180092393,44.281356997475086 154.88094047026243,43.47830737251934 149.20810405202792,43.82835541825625 147.65482741373125,44.281356997475086 145.57478739370708,44.17840226887347 142.49524762382498,46.66987768020772 140.0910455227713,48.028838750462455 138.44322161085438,48.3582811459346 134.0130065032863,48.11119944857637 133.25662831417867,47.80234648963233 133.0,48.31710090437991 137.68684342174674,48.79067268351355 139.83441720862174,48.60536224787211 141.94147073538625,47.53467317261675 145.58829414707725,44.42549344385043 146.19609804905485,44.17840226887347 147.85742871440016,44.343129785047495 151.47723861929262,43.95190150201233 155.0565282641619,44.03426547512936 156.90695347674773,44.322538859989436 158.59529764886247,45.12558187250397 159.1490745373012,44.56962968759035 156.36668334165006,43.66362707505323 152.63881940970896,43.601853878077236 148.30315157579025,43.993083496854524 146.9524762381625,44.363720705943706 149.80240120063536,44.24017511843704 151.6123061530816,43.8489464425802 152.67933966984856,44.11662938210793 155.2186093046621,43.993083496854524 157.58229114557616,44.693174878113496 158.32516258131363,45.4344428948898 157.55527763886494,47.16404742618761 157.23111555780633,49.79957918004948 159.94597298654844,50.66434827562625 158.5412706353527,54.08217379879352 159.89194597298047,53.62921551926411 162.28264132066397,53.690982675187115 164.02501250628848,54.14394068183901 163.74137068534037,55.1116169924353" stroke="#4dd2ff" stroke-linecap="round" stroke-linejoin="round" stroke-width="0.5"><title>2022-04-22 10.1km</title></polyline><polyline fill="none" points="41.05972696252866,114.95649950111692 43.20989761094097,114.93308835913194 43.36348122864729,114.48827576771146 45.636518771294504,113.85617074494075 46.63481228670571,114.55850944756094 48.063139931764454,114.76921023341856 49.04607508535264,115.35448819605517 50.197952218470164,115.2608439195028 50.750853242352605,115.91635227621737 53.30034129694104,114.46486453170655 54.63651877135271,116.59526776056009 54.36006825941149,119.28747989857948 55.14334470988251,121.46461468747293 56.832764505117666,123.87580254870409 58.92150170652894,125.74853541675111 64.22013651876478,132.56034754643042 66.26279863482341,138.64616613279213 67.0,138.64616613279213 66.64675767923472,136.51616575660591 65.32593856658787,133.61368503119593 64.2354948805878,129.86844185530936 64.20477815699996,129.0959704861525 65.55631399317645,128.4873530758705 65.80204778158804,128.08940920540772 64.005119453941,120.36434734818613 63.03754266217584,117.71898125483858 62.162116040999535,116.10363970125763 58.82935153588187,112.05348204238544 54.25255972699961,108.19048382018082 50.735494880587794,106.4345332239318 47.003412969294004,105.59166754377657 42.65699658705853,105.28729788392229 38.64846416388173,105.70873258596112 38.12627986352891,104.65514297447226 34.2559726962354,102.19673018595495 30.52389078499982,101.35383386720787 19.57337883958826,102.19673018595495 15.918088737234939,105.26388480027526 13.046075085294433,106.59842306529754 13.0,107.277392810749 15.779863481235225,105.91944936571235 20.341296928352676,102.0094204195193 24.595563139941078,102.17331648157415 26.423208191117737,101.70504140725825 27.989761092176195,102.0094204195193 31.399317406176124,101.93917917954968 33.19624573382316,102.50110791443876 34.332764505175874,103.3205824645629 33.47269624576438,105.42777628721524 33.19624573382316,108.63532043938903 36.25255972699961,109.54840081393922 34.60921501705889,113.3645311357468 37.15870307170553,112.59195041836938 42.05802047782345,113.59864549388294 44.653583617764525,112.75583160438691" stroke="#4dd2ff" stroke-linecap="round" stroke-linejoin="round" stroke-width="0.5"><title>2022-04-21 8.1km</title></polyline><polyline fill="none" points="100.4914675768232,114.93310743899929 103.01023890788201,114.76922944492253 103.63993174058851,114.51170641747012 103.90102389076492,113.99665865596035 103.73208191129379,114.79264060106652 105.60580204776488,113.85619068983215 108.90784982941113,115.23745167407469 110.32081911264686,115.21404060728673 110.7508532422944,115.82272681629547 113.17747440270614,114.32441658563766 114.54436860070564,116.31435566535947 114.29863481229404,119.3811364486537 115.2508532423526,121.60508732187736 116.38737201370532,123.38421747941175 119.1211604095879,126.00604402101453 124.35836177476449,132.7242054614835 126.33959044370567,138.73979159270675 127.0,138.55254067287024 126.76962457341142,137.40562222790322 125.14163822529372,133.47324477405346 124.17406143347034,129.35346901023877 124.34300341294147,128.9321201025523 125.69453924917616,128.3937276159486 125.17235494876513,125.18672955963848 123.75938566552941,119.54500796065258 122.1313993174117,116.12706872918352 118.61433447099989,111.84279791080189 114.23720136517659,108.23733326548972 110.90443686005892,106.5282104210346 107.84812286688248,105.66193311000825 102.85665529011749,105.24049857718637 98.3720136518823,105.68534609492053 98.34129692835268,105.42780300205777 98.1262798634707,104.67858349711605 94.02559726958862,102.07969102165225 90.27815699664643,101.26020840728597 83.22866894199979,101.72848489229364 81.56996587029425,102.17334581082832 80.41808873723494,101.84555371962779 79.72696245735278,102.00944988043193 75.93344709899975,105.0297807395691 73.03071672358783,106.43455913019716 73.0,107.1369419780749 75.76450511947041,105.75558502147032 80.29522184305824,102.00944988043193 82.2457337884116,102.26700052474189 86.3771331058233,101.82213996352948 90.3703071672353,101.82213996352948 92.72013651876478,102.24358685335756 94.3788395904121,103.41426466443954 93.42662116041174,105.40438996544981" stroke="#4dd2ff" stroke-linecap="round" stroke-linejoin="round" stroke-width="0.5"><title>2022-04-19 7.2km</title></polyline><polyline fill="none" points="140.0750305208494,106.60051011206815 140.1530656493269,106.16435668784834 143.97678694629576,105.92645441419154 147.82651995267952,104.4990347528219 153.75718971935567,107.11596291665046 156.12425528408494,106.95736219694663 156.64448947412893,107.98826459783595 160.5722576091066,105.45064900681609 161.4566557321814,106.16435668784834 163.06938172137598,109.09846116455446 162.5231358218589,113.97532215208048 163.84973300650017,117.26614403024723 165.77459950966295,120.3190261345735 170.2486135441577,124.56126446712005 179.35271187021863,136.33597186485713 182.7082223960315,146.8017891154741 183.0983980386518,146.8017891154741 183.80071419518208,146.48465128667885 183.6966673572315,144.38360030768672 180.1850865742308,135.89988410983642 179.06658306560712,130.86498301685788 181.7978125634836,128.84305747692997 178.88450109912083,116.11634502875677 175.91916621575365,108.50371378006821 170.0665315776132,101.56486193324963 162.2630187268369,94.90333475724037 159.583812648023,93.63444695752696 157.99709836835973,93.0 157.73698127333773,96.13256203744095 158.95953161997022,97.71865044670994 164.08383839204907,101.96137432150135 167.25726695137564,106.40225867500703 169.70236764464062,110.44654860456649 170.8468828627374,114.88724214119429 178.31224349007243,113.81672694144072 179.7688992221956,118.0591049582581 181.9278711109655,128.96199484651152 179.50878212717362,130.70640136967995 181.4336486304528,138.11995719908737 184.37297180423047,146.32608218134556 182.96833949105348,147.0 182.005906239443,145.6918044865306 179.32670016062912,137.88209341894253 177.71397417149274,134.750193594562 170.6648008961929,125.5127820478956 165.48847070516786,120.47761612309841 162.1849835983012,114.72864766305429 162.0029016318149,113.18234482538537 162.78325291688088,109.61390744880191 166.94512643729104,107.07631274859887 169.650344225578,110.4068991051754 171.0029531197506,114.96653933264315 177.71397417149274,113.34094054548768 175.29488518770086,107.94861460507673 168.34975875040982,100.01845601097739 162.1849835983012,95.02229257047293 158.02311007783283,93.03965299449919 157.86703982076142,96.60838989794138 160.2080936760758,98.90820839318621 158.02311007783283,100.7321833260794 155.31789228954585,100.01845601097739 154.38147074740846,100.65288041844906 152.92481501528528,102.43718813656596 153.28897894831607,105.88680400734302 146.76003986311844,106.95736219694663 145.32939584035194,108.38476408817223 141.2715691580088,110.72409487614641 138.2542108556372,114.57005305745406 135.62702819582773,113.1426958755037 139.4767612022697,103.86462270229822 142.85828343761386,103.90427351520339 146.26581738248933,102.5957924866816 147.7744965336169,104.4990347528219 144.49702113633975,106.48155927368498 139.3727143642609,106.64016037550755" stroke="#4dd2ff" stroke-linecap="round" stroke-linejoin="round" stroke-width="0.5"><title>2022-04-10 10.4km</title></polyline><polyline fill="none" points="17.660449721559417,166.70168037737312 17.94954978406895,166.26099770070869 21.18221411842387,166.46130812891352 25.912942412658595,164.6585070349247 27.516133667959366,165.8603762408311 31.80007095664041,167.30260973153054 34.19171692762757,167.0622382070287 34.55966246163007,168.18396951018076 38.76475427875994,165.78025185236766 41.156400249688886,169.02526384897646 40.70960924413521,174.11301592101518 41.971136789245065,177.35789239815495 44.8358555897139,181.76443028294307 48.9095382874948,185.4898818496149 57.71394927962683,196.8660991339566 60.94661361403996,206.9599460689351 62.33955027849879,207.0 57.556258336408064,192.1394397244876 57.52997651259648,190.89767164741352 60.31584984151414,189.49566614320793 56.97805821162183,174.4334998970735 54.29731217818335,168.94514073143364 48.59415640129009,161.9342433638667 40.42050918174209,155.00322837528074 36.16285371687263,153.0 36.031444597640075,156.88624470833747 42.33908232336398,161.9342433638667 45.466619362239726,167.42279538510775 41.39293666445883,169.54606332849653 38.9224452219205,165.94050059728033 34.87504434795119,168.304154632875 30.039188758237287,166.42124605939898 27.93664284964325,166.26099770070869 25.255896816321183,167.02217625817866 21.94438701029867,169.3858174796187" stroke="#4dd2ff" stroke-linecap="round" stroke-linejoin="round" stroke-width="0.5"><title>2022-04-09 5.2km</title></polyline><polyline fill="none" points="77.63070315611549,166.6717592380155 80.57645418075845,166.43120851536514 80.65535822609672,166.03029000022798 86.09973735210951,164.46670009939407 87.59891421289649,165.86992236887454 90.01863826898625,166.19065750288428 91.8334313108935,167.15285981386842 94.09534727636492,167.15285981386842 94.75288098718738,168.11505748795753 98.77698729775148,165.54918671952328 99.96054797724355,166.63166747111245 101.3019167475286,169.1574330690055 100.82849247561535,174.08859763114015 102.1172585489694,177.536331407915 105.37862575490726,182.14658006071113 109.03451318730367,185.4338227881235 117.74025951925432,196.85857480330742 121.15943481581053,207.0 122.3692968438263,206.79958156580688 122.13258470786968,204.4747130282194 119.47614851599792,198.26156946033007 117.58245142863598,191.08615021970763 118.00327300361823,190.3645854137285 120.29149031743873,189.2822333160293 118.89751885039732,181.7857818314078 115.95176782569615,171.56289441068657 114.21587882895255,168.15514895705564 111.13862106209854,164.46670009939407 103.69533945509465,157.29006629937794 100.6969857335207,155.00471535159159 96.27835919643985,153.0 95.93644166679587,155.68631398568687 96.4098659385927,157.16978532272333 102.03835450363113,161.74041149757977 105.61533789086388,167.15285981386842 101.61753292864887,169.35788928772672 98.6980832524132,165.82983044092543 95.09479851683136,168.0348745255469 89.72932343609864,166.23074935848126 84.91617667261744,166.95240138148074" stroke="#4dd2ff" stroke-linecap="round" stroke-linejoin="round" stroke-width="0.5"><title>2022-04-07 5.0km</title></polyline><polyline fill="none" points="137.62100901373196,165.29950484380242 137.38447240903042,165.78025185049046 138.0415185331367,166.1808734710794 141.11649439379107,166.1808734710794 146.45170892140595,164.61844460146676 148.05490146414377,165.86037623891025 150.86705887521384,166.3010598003748 151.8920508288429,166.9821142990986 154.30998056539102,167.10230014576518 154.80933561973507,168.0637843128934 158.96186712395865,165.57994073843292 160.22339568217285,166.62155632466602 161.64261531014927,169.46594041780918 161.19582394580357,174.59374168945942 163.48234445758862,179.20063825884426 165.7688649694319,182.20507871627342 168.89640452008462,184.68871533800848 178.1738957921625,196.82604316702054 181.40656272269553,207.0 182.61552759102779,206.87983818251814 182.53668205608847,204.83707621620852 178.43671424180502,195.42407931647904 177.6482588928775,190.7775001307018 180.27644338924438,189.61583842714026 180.46041630394757,188.49422760662856 177.49056782305706,176.1560924458754 175.54571129579563,170.46747445993242 173.36431816389086,167.3827335065289 171.8925348459161,168.22403122366813 172.73355388472555,166.82186639089196 168.58102238050196,161.53361321442935 161.06441472104052,155.24361442816735 156.43881000741385,153.0 156.17599155777134,155.72438566603523 156.6753466121154,157.20675635595398 162.2470977443154,161.4935501554719 166.1105289539555,166.66161835398816 163.64003552740905,168.62464793735126 161.69517900014762,169.3858174772613 159.3823766433634,165.9805627612368 158.40994837973267,166.14081134516164 157.62149303080514,165.25944254103524 156.35996447264915,161.01279281958705 158.80417605413822,158.7291796541249 162.29966143431375,161.6538023432513 166.08424710901454,166.82186639089196 162.16825220943429,169.26563300621638 161.72146084503038,169.34575599484378 159.04071265883977,165.74018964411516 155.1247177592595,168.0637843128934 154.20485318556894,167.30260972928954 151.8132052939036,167.06223820483137 146.16260862682248,164.93894382863073 143.29788752575405,166.3411218941328 139.51330185105326,166.58149428736942" stroke="#4dd2ff" stroke-linecap="round" stroke-linejoin="round" stroke-width="0.5"><title>2022-04-03 6.2km</title></polyline><polyline fill="none" points="63.19672131142579,248.74685424634663 64.34426229516976,243.99868351928308 63.9836065574782,242.04940825715312 67.0,240.54995535917988 67.0,239.10047563762055 57.95081967220176,233.30247233289992 52.80327868857421,231.9029340568668 41.754098360659555,232.0528849629918 31.78688524593599,233.60237236812827 27.426229508244433,233.25248895860568 19.622950819670223,239.55031507519016 13.295081967138685,242.69916837415076 13.0,244.04866473545553 18.50819672131911,241.69953672232805 27.590163934393786,233.70233896627906 29.426229508244433,233.10253877528885 37.32786885253154,233.2025055741542 42.049180327914655,232.1528521833534 53.360655737807974,233.15252217964735 59.0,235.55171378847444 60.21311475406401,234.70200273871887 59.13114754098933,233.60237236812827 50.21311475406401,231.75298306072364 34.77049180329777,232.85262160246202 31.754098360659555,233.7523222501768 27.754098360659555,233.25248895860568 17.85245901637245,240.99979217720102 13.0,242.94907565986796 13.45901639352087,244.04866473545553 19.393442622967996,241.09975580398168 27.393442622967996,233.95225528581068 29.819672131212428,233.05255536086042 31.2950819672551,233.30247233289992 36.63934426230844,232.00290133761882 51.42622950824443,231.25314575363882 60.24590163945686,233.8522887879517" stroke="#4dd2ff" stroke-linecap="round" stroke-linejoin="round" stroke-width="0.5"><title>2022-03-24 5.1km</title></polyline><polyline fill="none" points="105.0495495631476,265.7267806188611 103.55854083388112,265.3933166244533 101.4313683801447,267.0 100.47712279343978,266.5149653122353 100.0,265.30237177082745 99.38371639186516,259.8152641695342 98.66803220182192,258.11755509642535 97.81318719708361,257.5112257976725 92.86303821584443,257.38995964558853 90.33826343424153,254.9646161334822 114.77092647808604,222.3096327199455 103.06153792410623,213.0 85.22907352197217,249.38617808661365 96.22277788585052,260.60347974547767 96.89870184310712,260.0577924777026" stroke="#4dd2ff" stroke-linecap="round" stroke-linejoin="round" stroke-width="0.5"><title>2021-10-26 5.0km</title></polyline></svg>