<?xml version="1.0" encoding="utf-8" ?>
<svg baseProfile="full" height="300mm" version="1.1" viewBox="0,0,200,300" width="200mm" xmlns="http://www.w3.org/2000/svg" xmlns:ev="http://www.w3.org/2001/xml-events" xmlns:xlink="http://www.w3.org/1999/xlink"><defs /><rect fill="#222222" height="300" width="200" x="0" y="0" /><text fill="#FFFFFF" style="font-size:12px; font-family:Arial; font-weight:bold;" x="10" y="20">Over 5km Runs</text><text fill="#FFFFFF" style="font-size:4px; font-family:Arial" x="10" y="280">ATHLETE</text><text fill="#FFFFFF" style="font-size:9px; font-family:Arial" x="10" y="290">Wenz</text><text fill="#FFFFFF" style="font-size:4px; font-family:Arial" x="120" y="280">STATISTICS</text><text fill="#FFFFFF" style="font-size:3px; font-family:Arial" x="120" y="285">Number: 43</text><text fill="#FFFFFF" style="font-size:3px; font-family:Arial" x="120" y="290">Weekly: 3.1</text><text fill="#FFFFFF" style="font-size:3px; font-family:Arial" x="141" y="285">Total: 321.7 km</text><text fill="#FFFFFF" style="font-size:3px; font-family:Arial" x="141" y="290">Avg: 7.5 km</text><text fill="#FFFFFF" style="font-size:3px; font-family:Arial" x="167" y="285">Min: 5.0 km</text><text fill="#FFFFFF" style="font-size:3px; font-family:Arial" x="167" y="290">Max: 21.4 km</text><polyline fill="none" points="35.88374609281891,41.50773277580083 35.968141380144516,40.983249603476 35.02031738398364,40.706161900572624 34.26075979802408,40.725953931047115 33.24152440491889,41.0228334338608 33.46874248617678,40.26083911420574 34.15039672997955,39.241529590141 34.3970906468021,38.31126754658544 34.32567924981413,37.91540603167596 34.96838182256033,37.64819771148541 34.8580187545158,37.27212428780331 33.975114210144966,36.6684214747911 33.09870161097206,36.163680659548845 31.845756191381952,35.86677188271278 28.430993027155637,36.09440210496177 28.060952151950914,36.25275294380481 27.288410675653722,36.12409292602024 26.91187785526563,36.26264985432499 26.158812214474892,37.004912479580526 24.944818465970457,37.84612993964038 24.19824477037764,38.113337186612625 24.289132002886618,38.707125881672255 23.873647511427407,38.75660794995201 24.217720605927752,38.776400763388665 24.178768934842083,38.95453572634506 23.99050252464076,39.01391390426579 24.334575619141106,39.08318835472892 24.399495070931152,39.291011121888005 24.23719644146331,39.52852178262037 22.91283962491434,39.94416268461282 20.46537629236991,41.13168880347803 18.29057465736696,41.339502932351024 16.687064198136795,40.88428988841406 16.706540033672354,42.18064640720695 16.485813897568733,42.51709977748396 14.62262563117838,43.94205329365286 14.252584755959106,44.397238095622015 13.090526568877976,45.089902554420405 13.019115171919111,45.27790979924612 13.142462130330387,45.406545921952784 13.609882183212903,44.901894592450844 13.902019716289942,44.901894592450844 13.869559990387643,45.15916846488835 13.402139937490574,45.683607199742255 12.655566241883207,45.98045684054887 11.908992546290392,46.70278349813816 11.5,46.79183673661828 11.740201971624629,47.28657402035242 12.14919451791502,47.52404615260821 13.655325799467391,47.53394079997088 14.233108920423547,47.385520881169214 15.090045684060897,47.543835445325385 16.62214474634675,49.136847445202875 17.647872084649862,49.73050334481741 17.777710988229956,50.205422916485986 17.71279153643991,51.18493008153018 18.913801394563052,51.29376300943113 20.530295744159957,52.11494917305026 22.5363068045408,54.13322811728722 26.366554460226325,53.22303411807661 27.145587881692336,52.73825001970545 28.521880259693717,51.46195887993599 28.65821110844263,50.729807961128245 29.09317143545195,49.72060913842506 29.106155325789587,49.12695311963398 29.76184178890253,47.66257103474345 30.028011541246087,46.534571386455355 30.664222168794367,45.3471754454913 31.423779754753923,44.30818053037001 31.845756191381952,42.89313317910273 32.87797547488299,42.992088860562944 33.31293580187776,42.784281700001884 33.384347198851174,42.22022927587386 33.22854051455215,41.0624172324533 34.56588122143876,40.725953931047115 36.81209425344423,41.032729386475694 37.58463572974142,40.706161900572624 38.5,41.48794105933848 36.51346477519837,42.61605621398121 35.740923298857524,43.55613245105269 35.54616494348738,43.59571421498549 34.663260399145656,43.0712532626676 35.318946862229495,41.34939882138133 35.62406828564417,40.92387379828142 36.00060110603226,40.9436657412989 36.00060110603226,41.05252128577922 35.559148833854124,42.101480574496236" stroke="#4dd2ff" stroke-linecap="round" stroke-linejoin="round" stroke-width="0.5"><title>2022-06-25 10.0km</title></polyline><polyline fill="none" points="68.28942807627027,50.15381624711881 67.97357019066112,49.957661398133496 68.31282495669439,49.01254559838708 66.92071057192516,48.602397876507894 65.43500866551767,48.54890020793391 63.45797227037838,49.083875443619036 63.83232235701871,47.728598587273154 64.65121317157173,46.26630299266981 65.06065857887734,45.998807290969125 65.51689774697297,44.233315451128874 65.42331022533472,43.5199754590285 66.45277296361746,43.12763602094492 66.48786828425364,42.62829241091822 63.43457538995426,40.50605074259511 61.761698440182954,39.98885811206128 60.33448873483576,39.84618375288119 55.678509532037424,40.14936649215815 54.13431542459875,40.50605074259511 52.70710571925156,40.32770879648888 52.19237435006653,40.50605074259511 49.44324090119335,42.770962300288375 46.986568457534304,44.00148058224295 42.283795493945945,43.85881266976503 41.67547660309356,43.537809028683114 41.5,43.98364710570604 44.86915077990852,44.35814936066163 47.71187175041996,44.19764858760027 50.402512998261955,42.55695738022041 52.59012131718919,40.6130557383658 53.08145580589189,40.45254819638649 55.23396880415385,40.541719088854734 57.37478336223285,40.20286922109517 61.17677642984199,40.34554300719901 62.674176776461536,40.77356299023086 63.48136915077339,41.50475902202743 62.82625649916008,42.93146565185452 62.451906412490644,45.26764826173894 64.66291161178378,46.33763504373928 63.469670710590435,49.083875443619036 65.63388214903534,48.53106764455151 67.4588388215052,48.69156058586668 68.5,49.11954034474911 68.19584055463201,49.99332594835869" stroke="#4dd2ff" stroke-linecap="round" stroke-linejoin="round" stroke-width="0.5"><title>2022-06-23 5.0km</title></polyline><polyline fill="none" points="98.13844492437784,50.20045538170234 98.36004319653148,50.12934219159797 98.02181425484014,50.004893971614365 98.3250539956789,49.09819451758085 97.39200863929,48.56483756018133 95.44427645785618,48.58261617718381 93.75313174945768,49.11597302752489 93.43822894166806,48.99152338316344 93.85809935204452,47.622565749996284 95.07105831534136,45.91578373032826 95.50259179263958,44.31564570400951 95.44427645785618,43.444447286223294 96.44730021597934,43.05329418769543 96.50561555076274,42.591020115876745 96.38898488122504,42.27098280606879 94.72116630669916,41.204183418019966 92.27192224620376,40.01290890945529 89.7526997840323,39.799544618304935 85.6123110151093,40.06624990187993 84.04946004319936,40.421855696840794 82.67321814256138,40.24405297788326 78.89438444923144,43.07107391145837 76.9816414686793,43.90671690199815 72.45637149026152,43.746700769690506 71.76825053998618,43.497786211257335 71.54665226783254,43.746700769690506 71.5,43.92449645441957 72.16479481643182,44.12007129518315 74.52073434126214,44.33342517428537 77.7980561555014,44.12007129518315 79.8974082073546,42.96439551514777 83.01144708422362,40.368514918664005 85.50734341252246,40.4751964428724 87.4784017278871,40.17293179035187 90.3941684665042,40.22627268636279 92.0269978401775,40.54631738761236 92.75010799139272,40.77746006344387 93.41490280779544,41.31086393523583 93.4848812094715,41.68424473340565 92.92505399568472,42.55546047195094 92.5518358531117,45.382407601537125 94.25464362849016,45.86244626201369 94.60453563713236,46.253586949940654 93.46155507559888,48.92040922212618 95.66587473000982,48.40482984643313 97.88185745140072,48.689287804285414 98.5,48.95596630977525 98.19676025919034,50.004893971614365" stroke="#4dd2ff" stroke-linecap="round" stroke-linejoin="round" stroke-width="0.5"><title>2022-06-22 5.1km</title></polyline><polyline fill="none" points="128.5,50.14267756758636 127.89404402245418,50.178203477822535 128.2902460077894,49.09465679760615 126.96180405697669,48.6150499313153 125.58675010787556,48.52623355963442 123.31441519202781,48.988077718691784 123.93202416918939,47.26503145796596 124.95748813118553,45.84393712258316 125.3653431161074,44.29847111916024 125.20220112215611,43.641195784832234 126.41411307727685,42.96615116873727 126.53064307293971,42.610862459550845 123.30276219249936,40.461335335610784 120.5293482952111,39.821796522177465 115.27384548983537,40.1415665068198 114.0153215364553,40.47910023662553 112.75679758307524,40.24815624490293 112.08092360812589,40.47910023662553 108.86469572721398,43.10826625287882 106.98856279670144,43.92542355574551 102.269097971468,43.76554554698669 101.81463098834502,43.516845847902005 101.5,43.97871616114571 105.42706085453392,44.3339993764821 107.68774277079501,44.13859378458437 109.28420371169341,43.250381108693546 112.75679758307524,40.35474585444899 121.47324126024614,40.35474585444899 122.53366422094405,40.71004362544045 123.33772119120113,41.45616429932852 122.94151920586592,41.98910378475557 122.7084592145111,42.98391556672141 122.4404402244254,45.382076548099576 124.79434613723424,46.0571027282931 123.33772119120113,48.97031452639931 125.43526111351093,48.45518039806484 127.29974104443681,48.6683397115703 128.2902460077894,48.988077718691784 128.09214501513634,49.98281079506705" stroke="#4dd2ff" stroke-linecap="round" stroke-linejoin="round" stroke-width="0.5"><title>2022-06-21 5.1km</title></polyline><polyline fill="none" points="158.3113537117606,49.79893777090183 158.09912663756404,49.583268949674675 158.4882096069923,48.52288968661742 157.580349344993,48.18140894467797 155.44628820961225,48.18140894467797 153.78384279477177,48.79247882578056 153.50087336241268,48.52288968661742 154.67991266373429,45.88087315103621 155.2104803493421,45.39559632996679 155.6820960698824,43.652172711197636 155.52882096069516,43.130936375157034 156.6724890829646,42.51982783963467 156.5899563318817,41.99858490897168 153.5716157204879,39.96750590867305 151.9209606986551,39.41029918789718 150.2820960698591,39.266503341954376 145.7192139737599,39.57206923842023 144.12751091699465,39.913582829256484 142.712663755432,39.733838996522536 139.2462882096006,42.37603698949533 136.98253275104798,43.45446273417474 132.4078602619993,43.31067338567664 131.7711790392932,42.987146506871795 131.5,43.2208049255205 131.54716157203075,43.50838368033874 132.08951965064625,43.670146323791414 135.85065502181533,43.84988225153211 137.7017467248952,43.652172711197636 139.49388646287844,42.66361845866777 142.97205240171752,39.805736572961905 145.05895196506754,40.03940329744364 150.7419213973917,39.75181339603296 152.88777292575105,40.23712081856502 153.80742358075804,40.79432239174639 154.52663755454705,40.20117221080727 155.8589519650559,41.495312992090476 156.51921397380647,41.81884526354406 156.70786026201677,42.555775516011636 155.63493449779344,42.96917275711894 155.7646288209653,43.84988225153211 155.32838427947718,45.575328792707296 154.73886462883092,46.07857776826859 153.6659388646367,48.52288968661742 153.71310043666745,48.66667066189257 155.92969432313112,48.055599921921385 158.5,48.46897176136554 158.37030567685724,49.61921378927218 157.7689956331451,50.73349665803835" stroke="#4dd2ff" stroke-linecap="round" stroke-linejoin="round" stroke-width="0.5"><title>2022-06-20 5.3km</title></polyline><polyline fill="none" points="177.1691616766475,42.73133937710372 177.91017964071943,42.71080205171893 179.15643712574092,42.289785063938325 180.56437125749653,42.926443556814775 181.1976047904318,42.926443556814775 181.29191616766911,43.131815573447966 181.66916167666204,43.01886106636084 182.34281437128084,42.525965752200136 182.6594311377412,42.74160803668565 183.05014970060438,43.47067759782658 182.89520958084904,44.69261594816635 183.25224550899293,45.55514308815327 183.8315868263453,46.51006688257257 185.05763473054685,47.68059430743597 187.26721556887787,50.5143918719441 188.1631736526906,53.21456738188135 188.47979041915096,53.1632345759499 188.38547904191364,52.67043701768125 188.17664670658996,51.8696308587314 187.44910179641738,50.25771377675483 187.2065868263453,49.02564098838775 187.9139221556834,48.55333854999844 187.13922155689215,45.20602671243614 186.64745508981287,43.93275855806496 186.24326347305032,43.20369558442326 184.7679640718561,41.42720284913594 183.21856287424453,40.092225500251516 182.16092814369767,39.42472375696161 181.04940119759704,38.95233264291892 179.095808383252,38.56209321382266 177.66766467064735,38.47993716503697 176.01047904191364,38.675057565327734 175.7881736526906,38.212929095021536 174.12425149702176,37.16542243376898 172.60179640719434,36.764899510169926 167.75823353294982,37.13461308949263 166.14146706587053,38.4183200418629 164.59206586825894,39.17825937233283 162.00523952097865,39.07556552816095 161.63473053892085,38.90098551975461 161.5,39.13718185940161 161.85029940120876,39.29122236273179 163.15044910181314,39.38364644203466 165.0097305389354,39.31176106148632 166.90943113772664,38.120502899804706 167.89296407187067,37.17569221109079 168.71482035929512,37.26812011401125 170.64820359283476,37.03191514114587 172.53443113772664,37.0524547473251 173.76047904191364,37.31946887679442 174.2589820359426,37.62756037060899 174.7776946107915,37.39135705805165 175.8757485029928,38.233468226830155 175.88248502992792,38.664788089150534 175.30988023952523,38.88044665605412 175.43787425151095,39.15772061999087 176.03068862276268,39.568494099421514 176.72455089821597,39.80468735601244 179.47979041918006,39.537686202926125 179.92440119759704,39.75334108867173 180.60479041918006,40.46191502445072 182.86152694612974,39.784148855243984 184.07410179640283,40.64675878432536 185.2597305389354,41.80715156997394 186.37125748503604,43.244769831060694 186.74850299402897,43.96356380695215 186.91691616766911,44.548860010552744 186.01422155689215,44.88771264573006 185.09131736526615,45.02119943102298 184.7073353293381,43.8403427000012 184.08083832336706,42.99832385646732 183.09730538922304,43.52202013291753 182.91541916168353,44.743957256501744 183.75074850300734,46.386851910974656 185.1047904191655,47.70112963717111 187.29416167666204,50.52465896897047 188.196856287439,53.23510048983371 188.5,53.14270143914109 188.47305389221583,52.85523665841174 187.62425149699266,50.76080163145889 187.19985029941017,48.9845713843024 187.9139221556834,48.54307105726184 186.74850299402897,43.984100629226305 186.41167664671957,43.31664968327459 184.57934131738148,41.09859627355763 182.8413173652807,39.77387960178385 181.35254491018713,39.02421852872067 179.80314371257555,38.675057565327734 178.0516467065754,38.52101520591532 176.0374251496978,38.71613544947104 175.8555389221583,38.2745464657055 175.41766467067646,38.03834614160587 174.77095808382728,37.411896519817674 173.53143712574092,36.93948681129041 172.52095808385639,36.8059789287945 167.67739520958276,37.12434330394899 166.07410179641738,38.469667649671464 164.66616766469087,39.17825937233283 161.96482035929512,39.08583492185426 161.6212574850506,38.90098551975461 161.54041916168353,39.239875579853106 163.81062874253257,39.43499308052196 164.86152694610064,39.352838434151636 166.09431137725187,38.74694384090981 167.77170658683463,37.257850355279515 168.0681137724605,37.18596198633895 168.37799401198572,37.237310831580544 168.37799401198572,37.442705697041674 167.45508982035972,38.29508557276131 169.2874251496978,38.048615743588016 169.4423652694677,38.685327039471304 171.24775449102162,38.76748275826321 173.4034431137843,38.58263220536537 173.4910179640865,37.68917844663156 173.76047904191364,37.504323995803134 174.13772455090657,37.69944811873938 174.1309880239569,37.89457149709415 173.69985029941017,39.044757334708265 173.56511976048932,39.856033571777516 173.67290419164055,40.04087952167174 175.04715568861866,40.37976202780919 175.37050898204325,39.280953010267694 175.86901197605766,39.5274168999822 177.14895209582755,39.79441810668868 179.46631736526615,39.5274168999822 180.6452095808345,40.47218413972951 181.52769461077696,40.092225500251516 183.33308383233089,41.70446300488402 184.7679640718561,43.79926893172524 184.98353293414402,44.83637148169146 185.24625748503604,44.98012661113171 186.80913173651788,44.579664888333355 186.89670658682007,44.41537199236336 186.69461077844608,43.93275855806496 186.29041916166898,43.20369558442326 185.13173652694968,41.72500073439733 182.92215568861866,39.82522584848266 180.92140718564042,38.921524375215085 178.90044910179859,38.55182371493356 177.99775449102162,38.531284710988984 175.9431137724605,38.69559651153031 175.37050898204325,38.88044665605412 175.660179640734,39.38364644203466 176.65044910178403,39.77387960178385" stroke="#ff0000" stroke-linecap="round" stroke-linejoin="round" stroke-width="0.5"><title>2022-06-17 21.4km</title></polyline><polyline fill="none" points="38.429009640647564,78.94106604759145 38.192375109530985,78.76071204438631 38.5,77.58840219647391 36.96187554774224,77.22768839574564 35.50657318139565,77.24572412022098 33.66082383872708,77.76875855357503 33.6963190184033,77.04733095217671 35.518404907983495,73.87298066476797 35.79053461877629,72.84489998657955 35.54206836107187,72.14146958414494 36.7370727432135,71.61840238019067 36.85539000874269,71.3117753615079 35.05696757227997,69.85077342540899 32.38299737073248,68.57012255225709 30.063978965801653,68.31759768953634 24.905346187530085,68.73245958914777 24.195442594209453,68.9849832854452 22.89395267306827,68.82264670502627 22.01840490795439,69.11124486733752 19.3444347064069,71.41999678175489 16.883435582829406,72.59238714262028 12.25723049955559,72.37594699709007 11.570990359323332,72.14146958414494 11.5,72.68257038265438 16.954425942181842,72.89900978932565 18.13759859770653,72.53827715515217 19.592900964053115,71.6905497618136 22.882120946538635,68.87675893109554 25.958369851025054,69.02105804125313 27.86327782648732,68.8406841173346 27.993426818575244,69.88684783344797 27.591148115694523,73.20563138926082 28.289219982427312,73.34992354462156 27.721297107782448,73.74672577673482 27.7686240139883,74.82890477248293 30.063978965801653,74.93712195489206 33.9684487291961,75.87499874103378 34.063102541607805,76.235717974203 33.49517966696294,77.93107896534639 34.05127081507817,79.44605532987771 33.9684487291961,80.85279621733935 36.76073619630188,81.68240231046366 37.97940403156099,79.15749037330534" stroke="#4dd2ff" stroke-linecap="round" stroke-linejoin="round" stroke-width="0.5"><title>2022-06-16 5.2km</title></polyline><polyline fill="none" points="68.24285714287544,80.18498765448749 68.21948051950312,78.93780388160667 67.14415584417293,78.65273084356159 65.67142857142608,78.63491374826117 63.46233766237856,79.026889018176 64.56103896105196,76.4433837438919 65.06363636365859,75.87322072328243 65.53116883119219,74.48343301101704 65.42597402600222,73.46780514673446 66.57142857144936,72.95107773618656 66.4662337662885,72.4165289723096 64.97012987014023,71.31178465465928 62.78441558446502,70.1713889951352 60.996103896119166,69.81501234550524 54.74285714287544,70.18920779001928 54.100000000034925,70.47430802181043 52.6740259740327,70.26048293385975 49.635064935078844,72.6303488643025 46.97012987014023,73.96671151526971 42.341558441577945,73.80634905989427 41.90909090911737,73.46780514673446 41.5,73.9488934789697 44.51558441558154,74.30525352480618 47.58961038963753,74.19834566133068 50.09090909094084,72.75507689669757 52.919480519514764,70.31393925414886 60.30649350650492,70.22484536910633 61.93116883118637,70.45648928418814 62.936363636370515,70.81286335721234 63.49740259742248,71.4721516187492 62.79610389613663,73.14707814272697 62.50389610390994,75.28523627097456 64.68961038961424,76.15830269154685 63.5324675324955,79.00907199802168 65.65974025975447,78.51019398110657 67.99740259745158,78.72399918895826 68.5,78.93780388160667 68.25454545454704,79.86428493003768 68.45324675325537,80.13153728092584" stroke="#4dd2ff" stroke-linecap="round" stroke-linejoin="round" stroke-width="0.5"><title>2022-06-15 5.0km</title></polyline><polyline fill="none" points="98.3236830648384,80.22329433849518 98.17087505437667,79.91869414057874 98.39420983890886,79.1123944801584 97.18350021765218,78.73611881193938 95.93752720940392,78.6286111867812 93.83347845013486,79.23781935029547 93.49259904224891,79.13031232957292 94.58576404003543,76.46051310001349 95.114714845462,75.90504147672618 95.63191118850955,74.20276819210267 95.42033086629817,73.59352565166046 96.54875925116357,73.10971243557287 96.60753156291321,72.5542199523843 93.64540705265244,70.52933097699861 91.89399216367747,69.95590274099959 90.11906835000264,69.77670566150482 84.14780148016871,70.45765264902002 82.3376142794732,70.40389386527386 79.25794514582958,72.87676439592178 76.71898127993336,74.02357964145631 72.24053112755064,73.79063398764265 71.61754462341196,73.53976875719673 71.5,74.0056607666047 72.01719634304754,74.22068702740216 76.9188071397657,74.34611877358111 79.36373530692072,73.30682184032776 82.81954723552917,70.36805465810176 85.91097083152272,70.47557223644253 87.76817588155973,70.11717980486719 92.05855463646003,70.49349182020524 93.05768393559265,70.88772175310442 93.55137135391124,71.6044989867878 92.94013931215159,72.89468349750678 92.5875054418866,75.3495663955182 94.91488898562966,76.08422624912782 93.6218981279817,78.98696943373943 95.93752720940392,78.53902140018909 97.60666086198762,78.75403673691471 98.48824553762097,79.00488730827783 98.5,80.1516237972246" stroke="#4dd2ff" stroke-linecap="round" stroke-linejoin="round" stroke-width="0.5"><title>2022-06-14 5.0km</title></polyline><polyline fill="none" points="117.02095808384183,72.80321488481059 117.88323353293526,72.75187158683912 119.1497005988058,72.3513920935402 120.60479041915096,72.93670721830858 121.1639221556834,72.90590132613215 121.39296407184156,73.22422798385742 122.45733532932354,72.58757268690533 123.05014970060438,73.51174713294677 122.91541916168353,74.66180756498943 123.05014970060438,75.23682808276499 123.87200598801428,76.5716722174111 124.91616766466177,77.51631009168705 127.22679640719434,80.4835916702541 128.11601796407194,83.21457067636584 128.5,83.21457067636584 127.22005988023011,79.35419682884822 127.2402694610646,79.00510610497076 127.86676646706474,78.75868768883447 127.94086826346756,78.58414059238203 126.84281437126629,74.22026956482296 126.20958083833102,73.20369083992409 124.86901197604311,71.58123040694772 123.74401197602856,70.53379189926636 122.2687125748489,69.54794782296085 121.21107784430205,69.05501865778206 119.41242514968326,68.65451021236004 117.56661676647491,68.57235424610917 116.02395209579845,68.7366660466505 115.8218562874099,68.28480732477692 114.15119760477683,67.24757106576362 112.54116766466177,66.83677861234173 109.17964071854658,67.042175251554 108.71482035928057,67.20649196888917 107.9670658682735,67.08325448038158 106.101047904187,68.51073718479165 104.63248502994247,69.21932890745302 101.97155688623025,69.12690445697444 101.59431137723732,68.96259391033527 101.51347305389936,69.23986765154405 102.17365269460424,69.35283059660651 102.23428143713681,69.55821713006299 102.2881736526906,69.30148383431515 103.20434131736693,69.4657932920818 104.62574850300734,69.45552396642597 105.99999999998545,68.83936065388843 107.8997005988058,67.27838036670073 112.02245508981287,67.10379408242443 113.55164670658996,67.2989198903997 114.33982035928057,67.68916927262399 114.77769461076241,67.4221568591638 115.36377245507902,68.02806763579065 115.90269461077696,68.31561600082568 115.91616766467632,68.70585762427072 115.35029940120876,68.95232448364914 115.44461077844608,69.1782513945218 116.42140718562587,69.74306430491197 117.22305389223038,69.87656462677478 119.43937125748198,69.58902503893114 119.86377245507902,69.75333357280033 120.61152694611519,70.49271544221847 121.58832335329498,70.20517931885479 123.20508982034517,71.57096150609505 124.11452095808636,72.87509541537656 124.08083832333796,73.02912478352664 123.0232035927911,73.62470064211811 122.85479041915096,74.53858804142874 122.95583832333796,74.99039150965473 124.0336826347193,76.77702976125147 124.94985029939562,77.56764860666226 127.2402694610646,80.50412589108237 128.11601796407194,83.04003878584263 128.4326347305323,82.91683944576653 128.4326347305323,82.6807065477442 127.46257485028764,80.40145470454081 127.17964071854658,79.14884963277291 127.22679640719434,78.99483869468168 127.89371257483435,78.72788530332036 127.89371257483435,78.34798769020563 127.0920658682735,75.13414632162676 126.69461077843152,74.07651218401952 126.27694610776962,73.27557080760016 124.76122754489188,71.45800346072065 123.53517964070488,70.37975501513574 122.1676646706328,69.47606261564215 121.3458083832229,69.06528806384085 119.38547904189909,68.6442407238028 117.8697604790359,68.55181523392457 116.03742514969781,68.72639657459149 115.84880239520862,68.30534644418367 114.09056886227336,67.18595240811919 113.154191616748,66.87785800615893 112.06961077843152,66.78542932363052 108.72829341316537,67.18595240811919 107.83907185628777,67.08325448038158 106.03368263473385,68.51073718479165 104.6055389221583,69.20905953232068 101.96482035928057,69.11663506328114 101.64146706585598,68.96259391033527 101.5,69.23986765154405 102.05239520958276,69.3733692870519 104.61227544909343,69.41444664324445 104.65269461077696,69.12690445697444 106.03368263473385,68.47992862630053 107.16541916166898,67.51458439083581" stroke="#4dd2ff" stroke-linecap="round" stroke-linejoin="round" stroke-width="0.5"><title>2022-06-11 15.5km</title></polyline><polyline fill="none" points="146.901551163377,72.75597611462581 147.88103577683796,72.7250853309888 149.1915186389815,72.3338004611287 150.66412309232692,72.9722110789553 151.15048786588886,72.9619141965486 151.41393545159372,73.19874196840465 152.20427820866462,72.64270981704249 152.48123592694174,72.60152201042729 153.0486614961119,73.42527185719155 152.92031523642072,74.753540614558 153.27833375030605,75.62873765984114 153.94708531399374,76.63776983395292 155.1494871153409,77.7600374012145 157.32461846384103,80.59133726657456 158.16224668500945,83.18570027383248 158.5,83.20628993153878 158.43920440328657,82.67095614485152 157.69614711031318,80.88990159653986 157.25031273455534,79.34558458257743 157.25031273455534,79.02641993465659 157.92581936453644,78.73814048093845 157.96634976231144,78.55281711924545 156.93282461847411,74.39316101925942 156.48699024267262,73.44586543380501 155.01438578934176,71.54092459674575 152.947335501638,69.87275612564918 151.2585689266998,69.02835386705192 149.819739804836,68.67823177939135 147.69189392043336,68.51346761679815 146.04365774331382,68.7297204716233 145.90180135100672,68.33840511398739 144.1522391793842,67.18503721435263 142.51751313485147,66.79371006846122 139.12646985238825,67.04086440280662 138.8224918689084,67.1747391698409 137.91055791842518,67.07175861082942 135.99211908933648,68.54436093762342 134.9991243432596,69.06954454373772 134.07368026020413,69.24460455046574 131.93907930949354,69.10043752952333 131.5810607956082,68.90478163851003 131.5,69.19311637523424 133.20903177384753,69.41966395960844 135.05316487365053,69.31668790893673 136.05291468600626,68.77091138818287 137.58631473605055,67.3806996673884 137.97810858143202,67.1747391698409 138.79547160372022,67.27771952200783 141.9771078308695,67.07175861082942 143.35514135601989,67.21593133553324 143.72667000249203,67.3292096205405 144.17250437827897,67.76172440698065 143.79422066549887,68.58555200308547 143.61183387540223,69.65650809122599 143.69289467101044,70.05811085787718 145.03039779835672,70.36703392273557 145.39517137853545,69.29609267401975 146.25306479859864,69.6359129927987 147.32712034024007,69.81097106600646 149.64410808106186,69.58442521044708 150.650612959711,70.47000786411081 151.64360770577332,70.19197774779605 153.2107830872992,71.56151893012793 154.11596197147446,72.82805453738183 154.17000250187994,72.92072664634179 153.6093319990032,73.37378787940906 153.0959469602094,73.57972348033582 152.46772579432582,72.59122505359846 151.3936702526844,73.22963246670042 150.20477858395316,72.7662730383563 149.31986489865812,72.7662730383563 148.73217413057864,72.98250795929198 147.48248686514853,73.85773522977979 146.50300225168758,73.2914134074963 146.7529397047765,72.7044914649232 146.92857142857974,72.73538226094752" stroke="#4dd2ff" stroke-linecap="round" stroke-linejoin="round" stroke-width="0.5"><title>2022-06-10 10.5km</title></polyline><polyline fill="none" points="188.5,80.24752671007445 188.09019947960041,79.96196342596522 188.33607979185763,79.08742016135511 188.09019947960041,78.85539703463292 185.81873373803683,78.64122130317264 183.4653078924166,79.10526806911366 184.05073720726068,77.24906646905583 185.24501300955308,75.5356152008826 185.54943625326268,74.19695841388602 185.36209887251607,73.4829998834175 186.53295750217512,73.05462201230694 186.49783174326876,72.69763887588488 186.3924544666079,72.35850356823357 184.788378143945,71.2161435375092 181.7207285342447,69.93097095213307 180.1049436253379,69.75247328993282 174.6370338247798,70.23441615512274 174.00477016475634,70.53786032211792 172.7168256721634,70.32366454706062 172.09627059844206,70.55570994670416 169.33304423242225,72.82258313673083 167.70555073721334,73.7150370348827 165.59800520379213,74.03631824452168 164.63790112751303,73.73288602146204 162.33130962704308,73.8042819318216 161.69904596704873,73.46515084665589 161.5,73.982771456911 166.94449262789567,74.28620282688644 166.97961838680203,73.76858398378681 169.50867302689585,72.50129753968213 171.67476149174036,70.55570994670416 172.8924544666079,70.09161854157719 173.45446660881862,70.16301737703179 173.45446660881862,71.05549798056018 172.01431049435632,72.2514079390603 172.01431049435632,72.50129753968213 174.882914137037,72.05506561710354 175.26929748483235,73.1617166736687 177.458803122252,73.10816935914772 177.49392888115835,74.60748197192879 178.20815264523844,74.73242354802642 177.65784908930073,75.10724722260784 177.73980919341557,76.3031026655517 179.57805724194623,76.3031026655517 182.58716392019414,76.89210017876758 183.85169124021195,77.37400433201401 183.5121422376542,79.06957225005317 185.51431049435632,78.4091970117006 188.17215958365705,78.81970111527335 188.42974848221638,79.05172433517873 188.40633130961214,80.15828828232043" stroke="#4dd2ff" stroke-linecap="round" stroke-linejoin="round" stroke-width="0.5"><title>2022-06-09 5.2km</title></polyline><polyline fill="none" points="23.850512163888197,102.0761975475616 24.94814340589801,102.04984874804359 26.47791293213959,101.56239404837834 28.353393085795688,102.37920798149935 29.165813060186338,102.36603364388793 29.27816901411279,102.61634560579114 30.661011523683555,101.83905797098123 30.980793854017975,102.1157207270262 31.516645326511934,103.05109569108026 31.29193341868813,104.39485046973277 31.50800256084767,105.19845537348374 32.51056338028866,106.924196575932 33.97983354673488,108.30739148796056 36.90973111396306,112.02211351729056 38.10243277848349,115.55222184174272 38.5,115.46001993511891 38.335787451971555,114.7355718752151 37.11715749040013,111.77183743438945 36.83194622278097,110.28333364097853 36.93565941101406,110.05939651993685 37.774007682455704,109.63786574820551 36.46895006403793,104.31580683278298 35.70838668374927,102.74808836009834 33.24519846352632,99.98143496717239 31.28329065302387,98.41361292361762 29.2003841229307,97.34641850557455 27.273047375143506,96.85892885973954 24.982714468613267,96.66129689028458 22.484955185675062,96.91163061767656 22.1997439180559,96.30555784511671 21.11075544176856,95.60724966538692 19.95262483996339,94.9221098879716 18.80313700385159,94.57953731607267 17.549935979535803,94.44777815825728 12.805057618446881,94.9221098879716 12.761843790009152,95.43596539180726 13.384122919349466,95.33055946271998 12.58898847628734,95.50184401147999 11.5,96.39778667168503 13.885403329069959,96.21332888886172 14.101472471200395,96.9379814807944 15.7003841229307,97.00385859223752 15.691741357266437,98.04470817440597 16.19302176698693,98.12375936669196 15.786811779777054,98.33456208054122 15.847311139572412,99.26999095188876 18.958706786157563,99.53348963483222 20.453905249683885,100.06048382600784 20.056338028167374,101.43064891326867 20.436619718297152,102.52412552040187 20.35883482717327,103.55171343297116 21.793533930846024,103.89423916082524 23.176376440474996,104.6978501958547 24.14436619717162,103.44632054155954 26.15813060180517,102.19476701448366 26.92733674775809,101.99715111725891 25.855633802799275,100.98271347516857 25.017285531386733,101.36477624651525 23.8245838668372,101.40429985452647 23.703585147246486,102.04984874804359" stroke="#4dd2ff" stroke-linecap="round" stroke-linejoin="round" stroke-width="0.5"><title>2022-06-07 8.0km</title></polyline><polyline fill="none" points="67.1455309396697,99.98598847537869 66.2104660046025,101.66283448982358 64.59472880062822,101.15978634186467 64.20970206265338,101.67331460802961 62.88961038962589,102.7632354115267 62.16080977846286,103.16147002818616 61.84453781515185,103.55970160658762 60.930099312463426,105.2993091932185 60.60007639421383,106.65113288949942 60.043162719666725,107.7828653402903 59.47249809016648,110.31869526758601 59.16310160428111,110.61208912672737 57.98051948053762,111.68086709793351 57.04545454545587,112.24668187136558 52.933919022165355,113.2106484725191 50.75439266616013,111.06265505699048 49.59931245225016,110.43395733750003 47.79106187931029,110.04625663621118 47.66042780748103,109.79477356065036 47.83919022155169,108.94600923612597 47.749809014523635,108.53734000979603 46.82849503438047,108.07627345197398 45.03399541635008,106.26340409205659 41.90565317035362,106.14813281311581 41.5,105.88615168702381 41.5,105.3936236103691 43.90641711228818,103.60162054337343 43.8926661573787,103.39202552280767 43.71390374332259,103.3605861971555 43.06760886173288,103.89505215823738 42.88884644766222,103.82169440915095 42.957601222311496,103.6330597238557 46.821619556925725,100.59385138021025 46.876623376621865,99.27331260612118 47.06913674560201,99.2104289740164 48.73300229184679,99.60869069794717 50.93315508021624,99.30475439378642 53.504583651651046,97.91081694750756 56.06913674561656,97.1876317256465 57.237967914450564,96.96752988654771 57.58174178763875,97.15618866261866 60.352559205522994,96.78935152747727 60.88197097022203,96.88368132277174 61.01948051949148,97.72216089914582 63.79717341483047,97.99466386124186 64.6084797555668,98.2986077943533 64.28533231477195,99.40956021582315 64.6084797555668,100.28992081268007 64.59472880062822,101.13882589712375 65.79793735676503,101.47419200247896 66.8567608861922,102.0610775019959 67.3792971734365,101.28554883336983 68.5,100.4366461351965 68.321237585973,100.0069493830415 67.60618792974856,99.96502755929032" stroke="#4dd2ff" stroke-linecap="round" stroke-linejoin="round" stroke-width="0.5"><title>2022-06-05 8.1km</title></polyline><polyline fill="none" points="76.8842028278741,100.38558569579618 77.002681618731,100.60631914320402 77.13432471966371,100.30531886676181 78.55607020965545,100.38558569579618 81.17576791811734,99.48258015227475 82.34739151631948,100.20498523984133 85.09873232565587,100.7668522532258 85.44100438809255,101.22838350827806 87.65260848365142,100.02438445750886 88.2450024378486,100.62638579602935 88.82423208191176,101.91064319833094 88.53461725986563,104.29851543538825 89.23232569478569,105.98403795851482 90.81204290589085,108.25142222626164 92.47074597759638,109.65597074927064 94.97196489517228,112.72584380240005 97.1177474402648,115.71536811264377 97.97342759626918,117.80196296622307 98.5,117.54114099172875 97.43369088249165,114.83256486865139 97.05192588979844,112.74590802202147 97.20989761091187,112.38475145293341 98.35519258899149,111.92327171543002 98.3683568990673,111.52198325515201 96.82813261821866,104.80016201465332 95.43271574843675,101.50931453298108 92.91833252072684,98.43909691765293 88.53461725986563,94.76675196500582 85.46733300830238,93.14124471880496 80.66235982449143,92.1980370337842 76.2391516333737,92.31844702121452 74.6331058020296,92.4990617302974 73.73793271573959,92.94056297822681 73.8695758166723,93.78342358050577 73.39566065333202,95.79020592570305 73.02705997074372,95.89054398510052 71.5,99.14144260122703 73.80375426617684,98.57956644924707 76.41028766459203,98.88057192351698 77.002681618731,99.10130869513523 76.81838127743686,100.10465151218523 77.29229644077714,100.36551899460028 76.96318868844537,100.52605249150656" stroke="#4dd2ff" stroke-linecap="round" stroke-linejoin="round" stroke-width="0.5"><title>2022-06-04 5.1km</title></polyline><polyline fill="none" points="128.2889709074807,110.15606908709015 128.37103777678567,109.03019182950811 127.50347372988472,108.77999494919641 125.82696482850588,108.61915372621297 123.54081632650923,109.1552900059396 124.1270082500996,107.45751404031034 125.15870603561052,105.97416747660463 125.6511072514113,104.25845868801116 125.47524967434583,103.59718709497247 126.50694745982764,103.15037918301095 126.53039513679687,102.50697184886667 123.43530178029323,100.50523039462132 121.92292661743704,100.02266098713153 120.41055145463906,99.84393091290985 114.79483282673755,100.23713660243811 114.16174554929603,100.46948460237036 112.7079895788047,100.32650128956448 109.02670429873979,103.13250681984937 106.91641337383771,104.06186494381836 103.08271819364745,103.90101519382006 101.6993052540347,103.52569797978504 101.5,104.02612058007799 102.20343030826189,104.22271440314944 107.02192792008282,104.36569145633985 109.30807642205036,103.38271957715187 112.76660877114045,100.43373879570572 114.87689969604253,100.57672193620965 120.0471124620235,100.29075542547798 122.15740338686737,100.61246768539422 123.57598784193397,101.55972480835771 123.08358662613318,102.32824676384189 122.60290924881701,105.36652439666796 124.7249240121746,106.11714171602944 123.62288319584331,109.01232064711803 125.69800260526245,108.42256961441308 127.15175857575377,108.58341119267425 128.5,109.03019182950811 128.34759009987465,110.0667142695238" stroke="#4dd2ff" stroke-linecap="round" stroke-linejoin="round" stroke-width="0.5"><title>2022-06-03 5.0km</title></polyline><polyline fill="none" points="158.31233709814842,110.17618970167678 158.10121633362724,109.94376606724836 158.35925282366225,109.19285479421524 157.0338835795119,108.67436474309216 155.5794960903586,108.56709056247928 153.76151172895334,109.19285479421524 153.4565595134627,109.06770229969698 153.6442224153143,108.1379925474539 155.3566463944153,105.3666847280474 155.6146828844503,104.24025753958995 155.43874891396263,103.54293832890107 156.49435273674317,103.11381610007084 156.44743701128755,102.59529064747767 153.33927019982366,100.50327797952195 151.55647263251012,99.94897578709788 150.37185056469752,99.82381029831595 145.2111207645503,100.21718695630989 143.75673327539698,100.57480059169029 142.64248479585513,100.34235189207538 138.9361424848321,103.16745649181394 136.89530842748354,104.0435783152061 132.36794092092896,103.86477864324843 131.7463075586711,103.5071782221712 131.5,103.98993845129735 132.14509122504387,104.2223776280589 135.71068635967094,104.41905645752558 137.71633362292778,104.18661779421382 139.6985230234568,102.9886550604133 142.7949609035859,100.41387463352294 144.16724587316276,100.62844251309434 147.59209383148118,100.23506767221261 152.2367506516166,100.57480059169029 153.4682884448266,101.2721430492893 153.52693310167524,101.62975244732661 152.88184187663137,102.97077489754156 152.56516072980594,105.42032376249699 154.95786272807163,106.09974873541796 153.59730668980046,109.03194441180676 155.8375325803354,108.47769531318772 157.49131190270418,108.74588079172099 158.5,109.15709695658734 158.30060816681362,110.01528109631909" stroke="#4dd2ff" stroke-linecap="round" stroke-linejoin="round" stroke-width="0.5"><title>2022-06-02 5.0km</title></polyline><polyline fill="none" points="170.7124904798402,100.32261414825189 172.16222391472547,100.27559575018677 173.70449352631113,99.78973731142469 174.21858339681057,99.93079329874308 174.20830159939942,99.5546434327407 176.44973343488527,100.55770571388712 177.385376999242,100.60472394202225 177.50875856817584,100.88683271620539 178.2593297791609,100.62039667846693 179.1332825590216,99.93079329874308 179.71934501142823,100.41665085948625 180.19230769231217,101.4353746359775 179.9866717441182,103.50412662093004 180.4699162224133,104.52281010321167 181.68316831684206,106.37207845212106 183.17402894134284,107.64146611335309 186.66984006093116,112.2016885382618 187.92421934500453,116.19754074754019 188.5,116.13486229185946 186.54645849199733,110.28987514191249 186.54645849199733,109.74139544236095 187.61576542269904,109.14589883371082 186.4642041127372,104.00563399666862 185.25095201830845,101.12192258243158 182.43373952782713,97.68954023641709 179.95582635188475,95.80871877186291 177.79664889565902,94.69587806388154 175.53465346537996,94.11594070181309 172.12109672508086,93.80245925245981 169.26275704495492,94.0845926135371 168.3476770754205,94.41374691246165 166.8362528560683,94.36672495475796 162.4870525514416,94.86829104325443 162.044935262762,95.00935592489986 161.99352627573535,95.58928664869745 161.53084539223346,95.6363078698705 161.5,96.82750269113603 164.50228484388208,97.04693133322144 166.56892612337833,97.59550023957127 167.05217060167342,97.94031300741335 166.6408987052855,99.30387584839627 168.56359482102562,98.81801136093418 170.97981721250108,99.22551081301208" stroke="#4dd2ff" stroke-linecap="round" stroke-linejoin="round" stroke-width="0.5"><title>2022-05-30 6.1km</title></polyline><polyline fill="none" points="25.41118701963569,132.5112490670872 25.518787361244904,132.40580896207757 26.27967549103778,132.46438682171356 27.793766011978732,131.94889963846072 29.530742954753805,132.64012004778488 30.20708795901737,132.65183557736236 30.468403074279195,132.89786115523384 31.575149444921408,132.19492818041545 31.844150298915338,132.39409338307087 32.32835183606949,133.23760905736344 32.128522630257066,134.6317262861994 32.343723313417286,135.2643399238841 33.4888983774872,137.03327869202258 34.449615713063395,137.82986936641828 37.154995730146766,141.30896881353328 38.146456020505866,144.3661880067666 38.453885567898396,144.34276164876428 38.5,143.9796518965777 37.57771135782241,141.68380890069966 37.07813834332046,139.71587157992326 37.162681468820665,139.48158890654668 37.86208368916414,139.21216266927877 37.90051238259184,139.00130648539562 36.670794192992616,134.1279734840282 36.055935098207556,132.97986945066805 34.57258753204951,131.17566032409377 32.15926558498177,129.11363871805588 31.782664389407728,129.05505749417352 30.268573868495878,128.1880485036636 28.216481639625272,127.73110614845427 26.125960717356065,127.62565740439459 24.37361229720409,127.84827119608599 24.09692570453626,127.34445982180478 22.15243381727487,126.12592130227131 20.146456020505866,125.63381199323703 16.933817250217544,125.86815027712146 16.065328778815456,126.10248761974799 15.258326216920977,125.9970359320796 14.774124679766828,126.11420446219199 12.837318531179335,127.6725235363665 12.038001707958756,128.14118278578098 11.530742954724701,128.24663059810337 11.5,128.5746892397874 13.306148590956582,127.64909047507899 15.17378309139167,125.98531906610515 17.540990606328705,126.07905392787143 18.347993168252287,125.87986716658634 19.154995730146766,126.02046965689442 20.330913748941384,125.93845157874603 21.27625960719888,126.0907707749866 22.28309137490578,126.60630971913633 22.87489325364004,126.26652319955974 23.620409906085115,127.02811092137563 24.150725875311764,127.29759342626858 24.112297181913164,127.81312170650199 23.88941076004994,127.93028658945332 23.88172502137604,128.15289921878866 24.27369769429788,128.4458092791101 25.21135781382327,128.7387178688914 28.4624252775684,128.45752565092698 28.89282664388884,128.6449872801677 29.853543979523238,129.5940025350501 32.136208368930966,128.99647621149052 34.349701110157184,130.87104808357253 36.04056362085976,132.9095766330829 36.82450896670343,134.47942938607594 34.75704526048503,135.05346947340877 34.4573014517664,134.72544725789703 34.16524338175077,133.65936232153763 33.519641332211904,132.7924217488835 32.40520922289579,133.31961687526564 31.66737830915372,132.32379985977968 30.429974380880594,132.94472305246381 30.153287788212765,132.73384421857918 29.538428693427704,132.69869767217824 29.00042698546895,132.45267125450482 28.22416737829917,132.40580896207757 27.655422715644818,132.55811127482593 27.125106746389065,132.99158491204435" stroke="#4dd2ff" stroke-linecap="round" stroke-linejoin="round" stroke-width="0.5"><title>2022-05-28 10.0km</title></polyline><polyline fill="none" points="55.544911881763255,132.3802546791594 56.64241046048119,132.33345895274397 57.808982376387576,131.795305397638 58.47669130191207,132.27496424189667 59.05230244458653,132.34515788788121 59.56651506538037,132.63763050252237 60.15747583855409,132.61423274740446 60.44911881751614,132.918402831383 61.30102330871159,132.31006107544817 61.67708925527404,132.2164694722851 62.314098919858225,133.1991738072029 62.19897669131751,134.70829462165784 62.59039226832101,135.67925866669611 63.27345082434476,136.79058319723117 64.58584422970307,137.99546900291898 67.17993177945027,141.36433786784255 68.15463331440696,144.38211750718256 68.5,144.2417591289195 68.45395110858954,143.65692891381332 67.494599204103,141.29415508639067 67.08783399660024,139.5512555655041 67.91671404207591,139.13014450591072 66.80386583285872,134.3807368359776 66.02870949404314,132.83651104190358 63.956509380368516,130.5785920799317 62.16060261515668,129.11616264123222 61.1628766344802,128.71837548348776 60.464468448015396,128.2269875976781 58.33086981240194,127.72389570647283 56.212620807258645,127.58349719402759 54.32461625925498,127.7940948358264 54.20181921546464,127.3260990424933 52.17566799320048,126.06249162197491 50.26463899941882,125.61788249281744 44.83854462762247,126.06249162197491 42.91984081864939,127.60689696962436 41.5,128.28548637280983 41.515349630470155,128.51948088610152 41.822342239902355,128.51948088610152 42.62819783965824,128.09829008552697 44.91529277997324,126.13269275325365 45.25298465034575,126.01569082079004 47.50170551449992,126.03909122608457 48.184764070494566,125.81678699634722 48.890847072209,125.98059019524953 50.39511085842969,125.92208910563568 51.30841387153487,126.09759219817352 52.321489482652396,126.61239821959316 52.90477544060559,126.23799429151404 53.557134735630825,126.99849975033067 54.178794769744854,127.3377989831315 54.27089255259489,127.665396367418 53.91017623650259,128.05149091970816 54.094371802173555,128.3322853506579 54.53183627061662,128.53118058714244 55.821205230255146,128.76517411360692 58.469016486633336,128.42588319358038 58.80670835703495,128.56627967598615 59.896532120532356,129.6075430275887 61.1628766344802,129.1746605236185 62.13757816943689,129.05766470013987 64.16372939173016,130.64878776971454 65.83683911315165,132.62593162614576 66.46617396248621,133.6554237571654 66.76549175669788,134.53281746548964 64.71631608871394,135.04754895842052 64.47839681638288,134.75508844072465 64.20977828311152,133.71391708210285 63.47299602048588,132.7546191373258 62.42154633314931,133.2927638318106 61.6387151790841,132.25156634109953 60.42609437179635,132.9418004643776 60.149801023333566,132.69612484930258 59.55884025015985,132.67272711764235 59.02160318364622,132.36855575106165 57.62478681068751,132.54403942558565" stroke="#4dd2ff" stroke-linecap="round" stroke-linejoin="round" stroke-width="0.5"><title>2022-05-26 10.0km</title></polyline><polyline fill="none" points="76.86458092782414,129.2557059394967 78.56878951017279,129.17985859893815 80.8327746342693,128.4403438356385 83.53214151295833,129.69182696571806 84.4651024157356,129.63494172866922 84.88804469164461,130.2417158235694 87.00275607127696,128.9333543212997 88.08499071848928,130.6399092046122 87.74912479351042,132.59292861770518 88.48305403697304,134.52694687450276 89.34137806756189,135.98691481383867 91.7297579786391,138.24318450874853 95.90942282305332,143.62767755735695 97.45191818231251,148.36729415820446 98.13608951104106,148.5 98.01169472400215,147.60897148519143 96.15821239713114,143.11578473315603 95.85966490823193,140.78379342413973 96.99165747026564,140.34772361824434 97.11605225730455,140.02540985892847 95.02621983509744,131.8344792737189 94.11813788971631,130.14690762824466 91.38145257494762,126.98025922156376 87.77400375087745,123.98417075153702 85.78368715828401,122.86535384506715 82.63649904628983,121.84134031206486 78.41951576576685,121.5 74.73743006947916,121.86030362654128 73.85422708149417,122.12578962960106 74.0532587407506,122.84639073239669 73.5681190713367,124.93231029542221 72.68491608335171,125.95629031024873 71.86391048895894,128.04214117977244 73.96618238984956,127.47327732998383" stroke="#4dd2ff" stroke-linecap="round" stroke-linejoin="round" stroke-width="0.5"><title>2022-05-24 5.1km</title></polyline><polyline fill="none" points="128.45302305350197,140.22770138727356 128.19464984774822,139.94126833195332 128.4295345802384,139.02825682659022 126.66789908657665,138.67021054673387 125.4112657677615,138.74181991774094 123.79056111350656,139.24308390432998 123.50869943454745,139.04615910282155 124.01370160939405,137.70347840870818 125.2703349282383,135.64466206981888 125.68138321008882,134.31983337207203 125.52870813399204,133.58579818532598 126.6326663767104,133.1203093256263 126.6326663767104,132.78014285262907 126.43301435408648,132.2967461582448 124.8357981731242,131.22252189751453 122.16985645933892,130.0587643412291 120.2438016528904,129.77229861272644 115.31122227056767,130.18409280799824 113.86668116573128,130.50636519915133 112.85667681603809,130.29151706781704 112.11678990867222,130.5421731707538 108.9693344932748,133.10240585937572 107.00804697696003,133.99757476602827 102.721400608978,133.85434834497573 101.66441931272857,133.5499914362881 101.5,133.89015497185756 101.96976946498035,134.1408009569932 104.31861678994028,134.39144623745233 107.7479338843259,134.23031720943254 109.6857329273771,133.10240585937572 112.2694649847981,130.77492463527597 112.97411918226862,130.45265321487386 119.79752066117362,130.34522914922854 122.22857764246874,130.57798112794262 123.55567638101638,131.49107917622314 122.897999130073,132.76223931811546 122.60439321442391,135.3403112730375 124.98847324925009,136.07433201411186 123.60265332757263,139.04615910282155 125.90452370597632,138.50908925168187 127.11418007832253,138.63440583971533 128.5,139.01035454677185 128.4295345802384,139.74434507260594" stroke="#4dd2ff" stroke-linecap="round" stroke-linejoin="round" stroke-width="0.5"><title>2022-05-22 5.0km</title></polyline><polyline fill="none" points="136.92748316246434,128.86269554679893 137.00159961392637,129.25811808067374 137.96511348281638,129.29577728267031 139.29920960901654,129.10748112149304 140.9544770248176,128.44844158003252 141.4979976688046,128.91918458227883 142.7950355692301,129.12631075464742 143.73384395433823,129.67236847070308 144.70971056510461,129.59705035408115 145.00617637092364,130.0489581464135 146.8837931411108,128.86269554679893 147.50143023655983,129.35226605726348 148.10671459007426,130.538522463954 147.78554330047336,132.85450362960546 148.58847152453382,134.6620589452432 149.93492039258126,136.58254829498037 151.60254055034602,137.99464772655483 155.97541118608206,143.64283284229168 157.5565621504793,148.5 158.13714102018275,148.38704548114765 158.05067182678613,147.84109672201885 156.06188037944958,143.02154913020786 155.75306183175417,141.0070554529375 155.87658925083815,140.6681644141281 156.95127779690665,140.2351351936304 157.02539424836868,139.7079664873454 155.13542473627604,132.13900335886865 154.24602731887717,130.3313994107666 150.82431781006744,126.3018235327254 147.79789604237885,123.94801919203746 144.46265572693665,122.32856749671919 140.54683654182008,121.57532462038216 137.9280552570708,121.5 134.90163348938222,121.83896031535551 133.99988333007786,122.19675043015013 134.09870526532177,122.93115744131501 133.61694833086221,125.02136129964492 132.9746057516022,125.64276427288132 131.86285897978814,128.14716481844516 133.99988333007786,127.46928856580053 135.81573639065027,127.63875808839657 137.03865783964284,128.12833498873806 136.7668975176348,128.84386586070468" stroke="#4dd2ff" stroke-linecap="round" stroke-linejoin="round" stroke-width="0.5"><title>2022-05-16 5.4km</title></polyline><polyline fill="none" points="177.24438342486974,132.67369229413816 177.8577134298539,132.72506128719033 179.19221168247168,132.29356014257064 179.50898652021715,132.57095415328513 180.21667498753231,132.7045136961533 180.57388916627679,132.92026299049394 181.17373939092795,132.89971547784444 181.38267598602397,133.17710620233265 182.46779830254673,132.550406500377 183.08112830756,133.47504271284924 182.94633050427365,134.81059885478317 183.48552171741903,135.95093074027682 184.19321018474875,136.91659732903645 184.9952571143367,137.58433484430861 187.3339990015229,140.56336529452528 188.19670494260208,143.19298599254398 188.5,143.1724426045439 188.4865202196961,142.87456255188954 187.5227159261267,140.31683142592738 187.25986020971322,139.21768680939203 187.3070394408569,139.00196406636314 187.94058911634784,138.69378714160484 187.96080878684006,138.49860746261766 186.97678482277843,134.481849808064 186.3701947079535,133.29011680710028 184.77284073889314,131.39972476659023 182.61607588618062,129.6736536421231 181.38267598602397,129.05718555669955 180.16949575638864,128.73867413559128 177.98577134299558,128.53318184385716 176.02446330504608,128.70785034445726 175.8829256116005,128.3174140492556 174.95282076887088,127.63928077067249 174.03619570644514,127.12553745434343 172.71517723417492,126.80701400745238 169.6148277583561,127.00223829080278 168.86669995007105,127.1974618291897 167.84223664503952,127.13581237124163 165.80004992513568,128.70785034445726 164.68796804793237,129.201028774336 161.99875187219004,129.1085581808511 161.6347978033009,128.92361649247687 161.580878681998,129.01608742022654 161.5,129.2113032744237 161.89091362958425,129.31404816163922 164.58686969547125,129.44761620658755 165.74613080380368,128.99553833960817 168.12531203197432,127.14608728605162 169.45307039441832,127.23856142656223 170.43709435847995,127.0844377661706 172.5601597603818,127.1049876143843 173.36894658015808,127.20773673163785 174.29905142288771,127.63928077067249 174.5956065901264,127.3618600205773 173.19370943585818,126.89948876083508 172.35796305543045,126.80701400745238 169.52046929605422,126.98168840129438 168.52970544183336,127.23856142656223 169.9787818272889,127.1974618291897 170.82126809786132,127.00223829080278 172.56689965052647,127.0741628389842 173.49026460311143,127.26938610291472 174.37993010484206,127.6495555843976 174.7843235147302,127.35158514909926 175.45157264106092,128.0399969762475 175.91662506241119,128.26604063071136 175.94358462309174,128.66675192736875 175.37743384925125,128.89279281276686 175.43809286071337,129.201028774336 176.75911133302725,129.8277695028919 177.98577134299558,129.73530004211352 178.0329505741538,131.15314674247566 177.72965551674133,131.33808037196286 177.71617573640833,131.65657561141052" stroke="#4dd2ff" stroke-linecap="round" stroke-linejoin="round" stroke-width="0.5"><title>2022-05-14 9.9km</title></polyline><polyline fill="none" points="23.121181262715254,161.85063988598267 23.991853360494133,161.9065215106748 25.815682281041518,161.26388011698873 26.658859470451716,161.78078779202042 27.181262729107402,161.82269905683643 27.795315682247747,162.1859289608692 28.363543788174866,162.1300475605858 28.913441955199232,162.49327586010259 30.26985743379919,161.5852015558121 31.13136456211214,162.91238308015818 30.93890020364779,164.60275657587408 31.4338085539639,165.77621485251075 32.04786150713335,166.83789814523698 33.65173116087681,168.33260900665118 36.914460285101086,172.5232159167208 38.18839103868231,176.16883864521878 38.463340122194495,176.07106581552216 38.5,175.54029662862376 37.43686354375677,172.95623091082598 36.85947046839283,170.52572476842033 36.94195519346977,170.30222568841054 37.830957230122294,169.8552253748021 36.804480651713675,165.38506429260087 35.658859470451716,162.63297854728444 33.21181262729806,159.74107572561843 30.98472505089012,157.96675700737615 28.620162932755193,156.8211098569118 26.264765784115298,156.33210837727165 24.330957230151398,156.1784214880572 21.590631364524597,156.4299089481392 21.361507128283847,155.92693311888434 20.12423625253723,155.0187731058686 18.813645621179603,154.27826462882513 17.787169042770984,153.95690944101443 16.522403258626582,153.83116135477758 12.18737270872225,154.16648907967829 11.5,154.41798381266926 16.78818737270194,154.18046103313463 18.51120162929874,154.59961833220586 19.07026476575993,155.06068844436595 18.520366598735563,156.1784214880572 18.30040733196074,158.13441110557324 20.06008146639215,158.83296549932493 19.097759674099507,161.02638070840112 20.573319755581906,160.57932079879174 22.369653767818818,160.76093923351436 22.892057026474504,160.95652778690055 22.80040733196074,161.78078779202042" stroke="#4dd2ff" stroke-linecap="round" stroke-linejoin="round" stroke-width="0.5"><title>2022-05-12 7.0km</title></polyline><polyline fill="none" points="51.27977099234704,160.35114322208392 52.43396946566645,160.35114322208392 54.340458015271,159.69137454557494 54.79389312976855,160.09980342997733 56.39122137404047,160.64960817641258 57.349618320615264,160.68102547380113 57.79274809159688,161.1051577535327 59.42099236641661,160.11551219062676 60.23511450379738,161.43503682586015 60.11145038169343,163.7441513863232 60.801908396941144,165.1421536104317 61.8324427480984,166.60296070558252 63.15152671755641,167.71818217102555 65.16106870229123,170.16847209278785 65.36717557252268,170.7653259638828 66.35648854961619,171.78624966227653 66.99541984731331,172.9013972488101 67.9229007633403,176.07398373333126 68.5,175.9169280229762 66.78931297708186,170.74961934140447 66.69656488546752,169.9956977540569 67.7580152671726,169.3360104056701 66.6347328244301,164.40388588576752 65.88244274808676,162.3775407967114 65.30534351142705,161.27795172680635 62.986641221359605,158.48178418714087 61.12137404578971,156.8008938056082 59.019083969440544,155.40274251588562 57.62786259542918,154.7429321048985 56.12328244274249,154.3501851705514 52.650381679384736,153.92601626667602 49.332061068707844,154.24021567554882 48.45610687020235,154.57012369672884 47.04427480918821,154.49157429404295 42.09770992366248,155.10425754309108 42.01526717559318,155.74835527204414 41.71641221374739,155.7169359936961 41.54122137403465,155.95258027392265 41.5,156.84802206541644 41.70610687023145,157.09937230492505 43.262213740468724,157.03653482079972 45.95190839696443,157.47639615002845 47.09580152670969,157.9948009702057 46.77633587786113,159.45574152696645 48.53854961832985,158.8430923569831 49.77519083971856,158.95305538179673 51.03244274808094,159.33007029347937 50.82633587784949,160.11551219062676" stroke="#4dd2ff" stroke-linecap="round" stroke-linejoin="round" stroke-width="0.5"><title>2022-05-10 6.0km</title></polyline><polyline fill="none" points="87.14504864056653,162.76269890852564 87.81853330008744,162.7524328082509 89.13856323272921,162.28018996819083 90.58655525067297,162.92695623224427 91.18595659766288,162.92695623224427 91.3677974557213,163.16307521058116 92.36455475180992,162.5368442267427 92.5329259167047,162.61897331737782 93.04477425791265,163.39919309847755 92.87640309304697,164.66189199093787 93.27375904214568,165.63712588965427 93.89336492891016,166.5815451992712 94.99114492394438,167.59780301461433 96.84322773761232,169.97925735507306 97.41568969818763,170.87227413846995 98.08917435770854,173.16119996267662 98.5,173.1406719352708 98.27101521576697,172.13478849732928 97.7254926415626,170.9030675424874 97.2742579196929,169.322315511763 97.2607882264856,168.98357657579618 97.95447742579563,168.59351077874817 96.90384135695058,164.31285639132693 96.39199301572808,163.26573529581947 95.11237216263544,161.66421449100744 93.6711149912735,160.35010866883385 92.85619855325785,159.80597683831365 91.40147168868862,159.05650275978041 90.0545023696759,158.72796271365587 88.07445747069141,158.54315800988843 86.05400349215779,158.6971619760916 85.80481416813564,158.28648370197334 84.15477675230068,157.19817032062565 82.37004240458191,156.78748000484848 79.24507358443225,157.0133600868321 78.75342978298431,157.1776358832176 77.770142180103,157.14683421160953 76.05275629834796,158.49182325140282 74.6519082065206,159.17970473278547 72.04552257420437,159.10783695128703 71.63469693191291,158.9230336206674 71.5,159.16943791302765 73.69555999002478,159.43637455627686 74.941506610121,159.3439735682914 76.27500623595552,158.63556044526922 77.94524819156504,157.1776358832176 80.08692940881883,157.187903102953 80.6324519830232,156.9825583162201 81.31267148916959,157.1262997535232 83.15128460963024,157.1776358832176 84.3635569967737,157.66019298235187 84.74070840608329,157.34191115172507 85.3872536792187,157.98873989034837 85.87889748068119,158.19408063565788 85.87216263408482,158.676628140729 85.60276877027354,158.85116547835787 86.2493140433944,159.3542403529682 87.69730606135272,159.5082418759339 89.52244948864973,159.26183921649135 90.19593414817064,159.55957561386094 91.15228236466646,160.391174987024 91.63045647295075,160.20637629528574 93.26702419556386,161.53075215943318 94.28398603142705,163.16307521058116 94.14255425293231,163.00908469620117 93.06497879770177,163.56344837736833 92.84272886006511,164.54896896944774 92.95048640559253,164.94933128390403 93.89336492891016,166.5815451992712 94.86991768520966,167.45409101439873 97.13956098779454,170.30772511163377 98.2238712896069,173.2125199951479 98.41918184085807,173.13040791848834 98.43938638063264,172.81222237608745 97.39548515839851,170.26666675747038 97.1732352207473,169.1683435463383 97.23384884011466,168.99384142499548 97.92753803942469,168.6243055551131 97.05874282863806,164.94933128390403 96.52668994762644,163.57371431479623 94.54664504864195,161.19196159924832 93.11212272386183,160.04211023078096 91.31391868297942,159.05650275978041 88.78161636317964,158.5739588402248 86.00685956596863,158.66636121997362 85.8519580942957,158.27621670286317 84.73397355948691,157.42404858805457 83.42067847344151,156.9517565270835 82.51820902968757,156.80801459902068 79.67610376652738,156.99282557514016 78.5311798453331,157.2187047498337 80.92878523323452,157.06469632989683 80.89511100025265,158.46102237157174 80.69980044898693,159.53904212484485 81.0971563981002,159.67250965580024 80.81429284109618,159.75464334781282 80.86143676728534,160.5143737437793 83.48129209280887,160.8018363549745 84.3366176103882,161.12009664635116" stroke="#4dd2ff" stroke-linecap="round" stroke-linejoin="round" stroke-width="0.5"><title>2022-05-08 15.0km</title></polyline><polyline fill="none" points="111.21917808215949,160.24003738549072 111.96917808218859,160.27135915114195 114.21917808215949,159.55095535900182 116.41780821915017,160.50627199248265 117.20890410957509,160.47495032121515 117.67123287668801,160.9134525748159 118.85273972601863,160.13041110665654 119.39726027398137,160.06776744962553 120.21917808215949,161.4145949888043 119.96232876711292,163.09026655183698 120.49657534246217,164.53100210345292 121.86301369860303,166.53545947129896 123.11643835616997,167.52200941651972 126.67123287671711,172.23535360490496 128.04794520547148,176.18119018500875 128.5,176.07158630846243 128.4589041095751,175.5392224317693 127.30821917805588,172.72076490332984 126.59931506848079,169.808251801398 127.66780821917928,169.21320886429748 126.50684931504657,163.98289932346233 125.900684931461,162.21328405575332 125.1404109588766,160.9134525748159 123.05479452054715,158.43901470526907 120.52739726024447,156.21508583823015 117.32191780817811,154.4766184077307 112.29794520544237,153.81880981498398 102.12671232875437,154.93081634088594 102.04452054793364,155.5259682494434 101.5205479451688,155.74523359727755 101.5,156.35604095851886" stroke="#4dd2ff" stroke-linecap="round" stroke-linejoin="round" stroke-width="0.5"><title>2022-05-05 5.1km</title></polyline><polyline fill="none" points="143.01818181818817,161.98001451849996 144.2272727272648,162.0631595356972 145.79090909089427,161.49499992156052 147.8272727272706,162.2848790919379 148.57272727272357,162.2848790919379 148.81818181820563,162.58974231862157 150.23636363635887,161.75829398283167 150.35454545455286,161.84143926718752 151.0545454545354,163.04703463360056 150.86363636364695,164.39117935014656 151.30909090908244,165.8461518572949 152.14545454547624,167.13481617753132 153.70909090907662,168.61744320949583 155.2727272727061,170.5018577704068 156.96363636365277,173.06513322207684 157.8909090909001,176.05781005547033 158.5,176.05781005547033 157.00909090909408,171.0006647776063 156.97272727271775,170.30787629404585 157.6636363636353,170.11389427252652 157.7727272727061,169.8921998660844 156.68181818182347,165.02859965248717 155.51818181815906,162.67288660127815 153.64545454544714,160.35866666075162 150.89999999999418,158.0720857113156 148.57272727272357,156.89412050238388 145.35454545455286,156.31205968264112 141.68181818179437,156.49222188955537 141.37272727271193,155.9378751346012 139.42727272724733,154.55198876480063 137.9363636363414,154.05306285810366 136.3909090909292,153.94218994452604 132.53636363634723,154.2470900282533 131.51818181818817,154.55198876480063 131.5,154.6905786542302 134.76363636361202,154.4549756765373 134.47272727274685,157.6424771997772 134.93636363637052,157.79491923579917 134.6727272727294,157.80877758599308 134.62727272728807,158.97286906888985 138.18181818179437,159.36089519962843 139.39999999999418,159.77663506157114 139.52727272728225,159.98450405331823 139.11818181816489,160.89912017900133 139.18181818179437,161.12084347494238 140.79999999998836,160.677396170664 141.92727272724733,160.7466849998018 143.29999999998836,161.20398952728647 144.13636363638216,161.19013185883523 144.92727272727643,160.9129779058494" stroke="#4dd2ff" stroke-linecap="round" stroke-linejoin="round" stroke-width="0.5"><title>2022-05-04 7.1km</title></polyline><polyline fill="none" points="170.95872955495724,160.15573620855866 172.5916698364308,160.12442631281738 174.2451502472395,159.5451909743424 176.3094332445762,160.42186981435225 177.39806009887252,160.5471088438935 177.53157093952177,160.93847951469797 179.24667173830676,159.92091168430488 180.1812476226478,161.3298482208411 179.93476607074263,163.19273633101693 180.46880943325232,164.52334344464907 181.7422974515066,166.38615525496425 183.0671357930696,167.544519988689 186.32274629137828,171.6925768686342 186.8157093952177,172.52216176470392 187.883796120208,176.1064931672372 188.5,176.0908414231817 188.34594903007383,175.13607909638085 187.0519208824844,172.24041694065818 186.6103081019537,170.37774499098305 186.579497907951,169.7829328102016 187.51407379232114,169.3916065325102 187.6475846329413,169.14115668401791 185.97356409282656,162.55090595768706 185.06979840243002,160.76627666159766 184.06333206541603,159.46691559854662 180.25313807529164,156.0696885679572 177.5521110688569,154.61368880828377 174.40947128186235,153.92481923090236 171.05116013693623,153.89350683275552 168.42202358311624,154.3945036939258 166.8712438189541,154.37884759075678 162.08539368581842,154.9581213144411 162.05458349181572,155.55304660445836 161.86972232785774,155.78788428507687 161.57189045264386,155.6782934554576 161.5,156.17927884734672 161.57189045264386,156.97771766165533 161.99296310383943,157.49435018424265 163.67725370862172,158.52760495893745 166.41936097375583,159.29470949513052 166.99448459487758,160.62538313525147 167.0150247242418,161.98734322463133 169.4695701787714,162.66048712716292" stroke="#4dd2ff" stroke-linecap="round" stroke-linejoin="round" stroke-width="0.5"><title>2022-05-01 6.0km</title></polyline><polyline fill="none" points="17.643638850888237,189.2677146348069 17.569767441862496,189.06127354929777 19.231874145043548,189.23017992589303 20.36456908346736,188.81729713305685 20.4384404924931,189.3427840074146 20.426128590945154,188.81729713305685 21.411080711346585,188.44194755683566 22.17441860467079,188.9862039505606 23.3071135430946,189.1175757087185 24.119699042406864,189.58675905194832 25.2277701778512,189.53045717514033 25.486320109455846,190.0371728456521 27.222298221604433,188.948669128622 27.554719562234823,189.02373875751073 28.564295485673938,190.58141995038022 28.342681258538505,193.11494234540442 28.97058823533007,194.4848925153783 29.881668946676655,195.9861847113134 31.93775649793679,197.9002972901435 36.07455540358205,203.0982287976658 37.97058823533007,208.42721590174187 38.5,208.29587127963168 38.4384404924931,207.5453270414655 36.24692202464212,201.4844615070033 36.37004103968502,200.60250714418362 37.51504787965678,199.94572721289296 35.96374829002889,193.34014101260254 34.62175102601759,190.1685431266087 32.06087551297969,187.05314101800468 28.564295485673938,184.1440874641703 24.89534883722081,182.36107440133492 22.531463748280657,181.77924172508938 19.158002735988703,181.5727840982654 15.427496580028674,181.9481612622767 15.0088919288537,182.2109243800005 15.686046511662425,182.86782894234784 17.286593707249267,183.33704366003803 21.595759233954595,182.83029166316555 22.703830369369825,183.07428370835987 24.722982216160744,184.81974668493785 25.94186046512914,184.4068444082004 26.68057455541566,185.30771975111566 29.069083447335288,187.2032832603145 30.583447332464857,189.66182816831133 28.625854993151734,190.78785767835507 28.305745554011082,192.42057637233665 28.490424076619092,193.5278061542558 30.23871409028652,196.38026991715742 32.233242134097964,198.20054668723606 36.24692202464212,203.49228402024892 37.9213406292547,208.40845239561895 38.47537619702052,208.3146348083974 38.42612859100336,207.5453270414655 37.04719562243554,204.1678033943026 36.259233926131856,200.99657288788876 36.40697674421244,200.64003728656098 37.50273597810883,199.94572721289296 36.123803009599214,193.9406681393957 34.58481532151927,190.0371728456521 31.85157318742131,186.80915935976373 28.44117647060193,184.01270871513407 25.387824897421524,182.49245547210012 20.623119015042903,181.68539740577398 19.022571819397854,181.5915529922495 14.454856361175189,182.2672306662571 11.721614227106329,182.37984313703055 11.5,184.10655069756467 13.580711354326922,185.1388062857659" stroke="#4dd2ff" stroke-linecap="round" stroke-linejoin="round" stroke-width="0.5"><title>2022-04-30 10.1km</title></polyline><polyline fill="none" points="50.9011428571539,190.86965967351716 52.40285714287893,190.96373249154567 54.213142857159255,190.30522038508934 56.527428571425844,191.32434391084098 57.442857142857974,191.2302715272599 57.71028571430361,191.60656038170418 59.3765714285837,190.71287139152992 60.261142857169034,192.170990263352 59.983428571460536,193.8956118452188 60.69314285714063,195.62019533774583 61.86571428569732,197.28203066841525 63.110285714268684,198.3010631428624 66.64857142858091,202.83167730643618 67.89314285712317,206.67230352715706 68.05771428570733,206.97014011793362 68.5,206.8604109798107 68.35599999997066,205.63770443864632 66.64857142858091,200.9975156955552 66.71028571430361,200.5115340323464 67.59485714283073,200.16664198494254 67.70800000001327,199.9314874428892 66.45314285712084,194.4757032710986 65.31142857141094,191.95149023860722 62.38000000000466,188.53348166994692 59.973142857139464,186.5892265505463 57.66914285713574,185.4289222024454 54.17200000002049,184.67628313532623 51.826857142878,184.6135628855409 49.37885714287404,184.8487635623096 48.37085714287241,185.1780433194799 47.26000000000931,185.11532347282628 42.44628571430803,185.67980027927842 42.15828571427846,185.75819951297308 41.98342857143143,186.32267167180544 41.5,186.2599527446 41.60285714286147,185.00556361989584 45.59371428572922,184.69196318987088 45.64514285718906,183.547310931237 45.99485714288312,183.02985988207365 46.66342857145355,183.42186856758053 46.07714285716065,184.55084258540592 45.84057142859092,186.79306202028238 48.02114285717835,187.49864222958422 46.66342857145355,190.39929388318706 47.03371428573155,191.59088171561598 46.97200000000885,192.7197376256736 48.813142857165076,193.2057677833509 50.2840000000142,194.1778190231489 51.49771428570966,192.6413453814166 50.36628571432084,192.0455617533371 50.582285714306636,191.089162739343 50.860000000015134,190.9950900723852" stroke="#4dd2ff" stroke-linecap="round" stroke-linejoin="round" stroke-width="0.5"><title>2022-04-28 7.1km</title></polyline><polyline fill="none" points="87.018943170493,192.67204999581736 87.11316051847825,192.77463434618403 87.26794616151892,192.6515331010196 88.09571286142454,192.67204999581736 89.13883349951357,192.29248610834475 89.71086739783641,192.67204999581736 90.13484546363179,192.692566882346 90.57901296112686,192.9387688783463 91.21161515454878,192.9387688783463 91.44042871386046,193.21574470565974 92.48354935196403,192.55920697248803 93.02193419744435,193.55426867761707 92.87387836491689,194.6621496305379 93.2372881356132,195.64691253192723 93.72856430709362,196.4572760998053 94.89955134598131,197.55483664153144 97.20787637089961,200.49864428456567 98.0221834496624,203.01151662489428 98.21734795614611,203.23715625780824 98.5,203.13459291183972 98.41924227320123,202.65254242809897 97.65204386842379,200.91917438844393 97.19441674978589,199.30883304640884 97.22806580261386,198.898546884775 97.9010468594497,198.6113446113195 96.89830508474552,194.42621403352678 96.31954137589491,193.31832796435629 94.81879361915344,191.50257384222277 93.62088733799465,190.43565996433244 92.38260219343647,189.61494181916714 91.29237288137665,189.06094961744748 89.56954137590947,188.64032189644786 87.79287138587097,188.54798851854503 85.98928215356136,188.69161814543259 85.84795613163442,188.32228400323584 84.11166500500985,187.19374646862707 82.57726819544041,186.7936226289239 79.1854436690046,187.03985305501556 78.8018444666086,187.19374646862707 78.00772681956005,187.0603722036176 77.56355932205042,187.25530370427805 75.64556331008498,188.74291434288534 74.6226321037102,189.18405951479508 72.00473579265235,189.0814679542782 71.72208374876936,188.94809861761314 71.5,189.24561435221767 74.51495513461123,189.43027841944786 75.1273678963189,189.2763917431039 76.09646061815147,188.7531735761877 78.02791625127429,187.0603722036176 78.52592223332613,187.12192959996173 79.74401794618461,186.84492073220827 82.90029910270823,186.76284374219176 84.77118644070288,187.3886774603816 85.90852442673349,188.41461778913072 85.87487537390552,188.7121366305728 85.30957128616865,188.9583578097263 85.38359920241055,189.46105569908468 85.15478564309888,190.4254010689001 84.6836989033036,191.0101548210987 84.02417746762512,192.51817308401223 84.38758723830688,193.09264452335265 84.37412761716405,193.92356499796733 85.25573280161188,194.1184703130566 86.5613160518551,194.83653611067348 87.30832502493286,193.75943362957696 88.66774675974739,192.97980242900303 89.55608175475209,192.66179154943893 88.63409770689032,191.90266080211586 87.96111665006902,192.1899007898428 87.03240279163583,192.22067640702517 86.62861415754014,193.27729468559482 86.80358923232416,193.5132355883834 87.3554336989182,193.77995007948994 88.18993020938069,193.22600304080697 88.02168494518264,192.86696008541549 87.07278165506432,192.83618485755142" stroke="#4dd2ff" stroke-linecap="round" stroke-linejoin="round" stroke-width="0.5"><title>2022-04-27 10.1km</title></polyline><polyline fill="none" points="106.90490757118096,189.2986982525763 108.29228377935942,189.1854046026201 110.99271247020806,188.3734627833619 111.61207684886176,188.86440518641757 112.86319289371022,189.10987542679504 113.64359201077605,189.63857838358672 114.72128602961311,189.67634276676836 115.05574279406574,190.05398576437437 116.86428677965887,188.90216988050088 117.48365115831257,189.26093371774186 118.15256468721782,190.60156541712786 117.96675537366536,193.05619364386075 118.61089432743029,194.60446465029236 120.28317814978072,196.8890618954465 121.5962306324509,197.96525789671432 125.8202956947789,203.4404503509504 127.43064307922032,208.5 128.13671847086516,208.34897260829894 128.09955660815467,207.78261772939732 126.50159651125432,203.70476192139176 125.9565558580507,201.5524889592998 125.88223213260062,200.75953387295158 127.14573546504835,200.06097266229335 125.60971180602792,193.30165294269682 124.1727864475688,190.24280669446307 121.4599704691791,186.97615114587825 119.23025870605488,184.99344359507813 117.89243164821528,183.99263247854833 114.1762453764386,182.1798154107164 109.19655577218509,181.5 104.87339240926667,181.83990831972915 104.0062822792097,182.1798154107164 104.13015515494044,183.12399532782 103.68421280229813,184.80461212427326 102.91620097277337,185.729882708285 102.37116031956975,187.29715700777888 101.86328152910573,187.97693050980888 102.65606793377083,187.9958130369123" stroke="#4dd2ff" stroke-linecap="round" stroke-linejoin="round" stroke-width="0.5"><title>2022-04-25 5.0km</title></polyline><polyline fill="none" points="147.00575287643005,192.76169568800105 148.1875937969162,192.6690465540196 149.14657328664907,192.24697615825426 149.55852926464286,192.55580849621765 150.18659329666116,192.6587521954716 150.5580290145008,192.874933291052 151.15232616310823,192.864638973846 151.42921460731304,193.13229054963813 152.50300150075054,192.48374778376092 153.05677838920383,193.37935230249786 152.91495747872978,194.59405527055787 153.26613306654326,195.55138563603032 153.97523761881166,196.63222101671636 154.97473736868415,197.51745968870455 157.27088544273283,200.47157581272768 158.20960480239592,203.2608463137367 158.5,203.15792389909257 158.4797398699302,202.75652450806592 158.06103051526588,201.43908904107593 157.64232116058702,200.69801671535606 157.27763881941792,199.38052835579583 157.24387193597795,198.96880630079613 157.96648324164562,198.618839954539 157.0615307653934,194.78964034658202 156.35242621311045,193.24552733415476 155.5150075037527,192.17491501171025 154.50200100052461,191.08369098385447 152.95547773886938,189.82772514417593 151.41570785392832,189.04530464013442 149.11280640319455,188.54084298362068 147.6135567783931,188.48936702528226 146.06028014009644,188.70556570298868 145.86443221611262,188.2319864582314 144.10180090046197,187.14067849873754 142.44047023513122,186.73915368625967 139.60405202601396,186.91417770912813 138.82741370686563,187.14067849873754 137.78739369685354,187.08920113443673 136.2476238119125,188.33493884010386 135.04552276138566,189.01441937523123 134.2216108054272,189.1791405729673 132.00650325164315,189.0555997242882 131.62831415708933,188.90117324481616 131.5,189.15855045218996 133.84342171087337,189.39533634175677 134.91720860431087,189.30268112393605 135.97073536769312,188.76733658630837 137.79414707353862,187.2127467219252 138.09804902452743,187.08920113443673 138.92871435720008,187.17156489252375 140.7386193096463,186.97595075100617 142.52826413208095,187.01713273756468 143.45347673837387,187.16126942999472 144.29764882443123,187.562790936252 144.5745372686506,187.28481484379517 143.18334167082503,186.8318135375266 141.31940970485448,186.80092693903862 139.15157578789513,186.99654174842726 138.47623811908124,187.18186035297185 139.90120060031768,187.12008755921852 140.8061530765408,186.9244732212901 141.33966983492428,187.05831469105397 142.60930465233105,186.99654174842726 143.79114557278808,187.34658743905675 144.16258129065682,187.7172214474449 143.77763881943247,188.5820237130938 143.61555777890317,189.89978959002474 144.97298649327422,190.33217413781313 144.27063531767635,192.04108689939676 144.94597298649023,191.81460775963205 146.14132066033198,191.84549133759356 147.01250625314424,192.0719703409195 146.87068534267019,192.55580849621765" stroke="#4dd2ff" stroke-linecap="round" stroke-linejoin="round" stroke-width="0.5"><title>2022-04-22 10.1km</title></polyline><polyline fill="none" points="175.52986348126433,192.47824975055846 176.60494880547049,192.46654417956597 176.68174061432364,192.24413788385573 177.81825938564725,191.92808537247038 178.31740614335285,192.27925472378047 179.03156996588223,192.38460511670928 179.52303754267632,192.6772440980276 180.09897610923508,192.6304219597514 180.3754266211763,192.95817613810868 181.65017064847052,192.23243226585328 182.31825938567636,193.29763388028005 182.18003412970575,194.64373994928974 182.57167235494126,195.73230734373647 183.41638225255883,196.93790127435204 184.46075085326447,197.87426770837556 187.1100682593824,201.2801737732152 188.1313993174117,204.32308306639607 188.5,204.32308306639607 188.32337883961736,203.25808287830296 187.66296928329393,201.80684251559796 187.1177474402939,199.93422092765468 187.10238907849998,199.54798524307625 187.77815699658822,199.24367653793524 187.90102389079402,199.04470460270386 187.0025597269705,195.18217367409306 186.51877133108792,193.8594906274193 186.08105802049977,193.05181985062882 184.41467576794093,191.02674102119272 182.1262798634998,189.0952419100904 180.3677474402939,188.2172666119659 178.501706484647,187.79583377188828 176.32849829352926,187.64364894196115 174.32423208194086,187.85436629298056 174.06313993176445,187.32757148723613 172.1279863481177,186.09836509297747 170.2619453924999,185.67691693360393 164.78668941979413,186.09836509297747 162.95904436861747,187.63194240013763 161.52303754264722,188.29921153264877 161.5,188.6386964053745 162.8899317406176,187.95972468285618 165.17064846417634,186.00471020975965 167.29778156997054,186.08665824078707 168.21160409555887,185.85252070362912 168.9948805460881,186.00471020975965 170.69965870308806,185.96958958977484 171.59812286691158,186.25055395721938 172.16638225258794,186.66029123228145 171.7363481228822,187.71388814360762 171.59812286691158,189.31766021969452 173.1262798634998,189.7742004069696 172.30460750852944,191.6822655678734 173.57935153585277,191.2959752091847 176.02901023891172,191.79932274694147 177.32679180888226,191.37791580219346" stroke="#4dd2ff" stroke-linecap="round" stroke-linejoin="round" stroke-width="0.5"><title>2022-04-21 8.1km</title></polyline><polyline fill="none" points="25.2457337884116,222.46655371949964 26.505119453941006,222.38461472246127 26.819965870294254,222.25585320873506 26.95051194538246,221.99832932798017 26.866040955646895,222.39632030053326 27.80290102388244,221.92809534491607 29.453924914705567,222.61872583703735 30.16040955632343,222.60702030364337 30.3754266211472,222.91136340814774 31.58873720135307,222.16220829281883 32.27218430035282,223.15717783267974 32.14931740614702,224.69056822432685 32.6254266211763,225.80254366093868 33.19368600685266,226.69210873970587 34.56058020479395,228.00302201050727 37.179180887382245,231.36210273074175 38.16979522185284,234.36989579635338 38.5,234.27627033643512 38.38481228670571,233.7028111139516 37.57081911264686,231.73662238702673 37.08703071673517,229.67673450511938 37.171501706470735,229.46606005127614 37.84726962458808,229.1968638079743 37.586177474382566,227.59336477981924 36.879692832764704,224.7725039803263 36.06569965870585,223.06353436459176 34.307167235499946,220.92139895540095 32.118600682588294,219.11866663274486 30.45221843002946,218.2641052105173 28.92406143344124,217.83096655500412 26.428327645058744,217.6202492885932 24.18600682594115,217.84267304746027 24.170648464176338,217.7139015010289 24.06313993173535,217.33929174855803 22.012798634794308,216.03984551082613 20.139078498323215,215.630104203643 16.614334470999893,215.86424244614682 15.784982935147127,216.08667290541416 15.20904436861747,215.9227768598139 14.863481228676392,216.00472494021597 12.966723549499875,217.51489036978455 11.515358361793915,218.21727956509858 11.5,218.56847098903745 12.882252559735207,217.87779251073516 15.147610921529122,216.00472494021597 16.1228668942058,216.13350026237094 18.188566552911652,215.91106998176474 20.185153583617648,215.91106998176474 21.360068259382388,216.12179342667878 22.18941979520605,216.70713233221977 21.71331058020587,217.7021949827249" stroke="#4dd2ff" stroke-linecap="round" stroke-linejoin="round" stroke-width="0.5"><title>2022-04-19 7.2km</title></polyline><polyline fill="none" points="45.0375152604247,218.30025505603408 45.076532824663445,218.08217834392417 46.98839347314788,217.96322720709577 48.91325997633976,217.24951737641095 51.87859485967783,218.55798145832523 53.06212764204247,218.47868109847332 53.322244737064466,218.99413229891798 55.2861288045533,217.72532450340805 55.728327866090694,218.08217834392417 56.53469086068799,219.54923058227723 56.26156791092944,221.98766107604024 56.92486650325009,223.63307201512362 57.887299754831474,225.15951306728675 60.12430677207885,227.28063223356003 64.67635593510931,233.16798593242856 66.35411119801574,238.40089455773705 66.5491990193259,238.40089455773705 66.90035709759104,238.24232564333943 66.84833367861575,237.19180015384336 65.0925432871154,232.9499420549182 64.53329153280356,230.43249150842894 65.8989062817418,229.42152873846499 64.44225054956041,223.05817251437838 62.959583107876824,219.2518568900341 60.0332657888066,215.78243096662482 56.131509363418445,212.4516673786202 54.79190632401151,211.81722347876348 53.998549184179865,211.5 53.86849063666887,213.06628101872047 54.47976580998511,213.85932522335497 57.04191919602454,215.98068716075068 58.62863347568782,218.20112933750352 59.85118382232031,220.22327430228324 60.4234414313687,222.44362107059715 64.15612174503622,221.90836347072036 64.8844496110978,224.02955247912905 65.96393555548275,229.48099742325576 64.75439106358681,230.35320068483998 65.7168243152264,234.05997859954368 67.18648590211524,238.16304109067278 66.48416974552674,238.5 66.0029531197215,237.8459022432653 64.66335008031456,233.94104670947127 63.85698708574637,232.375096797281 60.33240044809645,227.7563910239478 57.74423535258393,225.2388080615492 56.092491799150594,222.36432383152714 56.00145081590745,221.59117241269269 56.39162645844044,219.80695372440096 58.47256321864552,218.53815637429943 59.825172112789005,220.2034495525877 60.5014765598753,222.48326966632158 63.85698708574637,221.67047027274384 62.64744259385043,218.97430730253836 59.17487937520491,215.0092280054887 56.092491799150594,212.51114628523646 54.01155503891641,211.5198264972496 53.93351991038071,213.3041949489707 55.1040468380379,214.4541041965931 54.01155503891641,215.3660916630397 52.658946144772926,215.0092280054887 52.19073537370423,215.32644020922453 51.46240750764264,216.21859406828298 51.644489474158036,217.9434020036715 48.38001993155922,218.47868109847332 47.66469792017597,219.19238204408612 45.635784579004394,220.3620474380732 44.127105427818606,222.28502652872703 42.81351409791387,221.57134793775185 44.73838060113485,216.9323113511491 46.42914171880693,216.9521367576017 48.132908691244666,216.2978962433408 48.887248266808456,217.24951737641095 47.24851056816988,218.2407796368425 44.68635718213045,218.32008018775377" stroke="#4dd2ff" stroke-linecap="round" stroke-linejoin="round" stroke-width="0.5"><title>2022-04-10 10.4km</title></polyline><polyline fill="none" points="73.83022486077971,218.35084018868656 73.97477489203447,218.13049885035434 75.59110705921194,218.23065406445676 77.9564712063293,217.32925351746235 78.75806683397968,217.93018812041555 80.9000354783202,218.65130486576527 82.09585846381378,218.53111910351436 82.27983123081503,219.09198475509038 84.38237713937997,217.89012592618383 85.57820012484444,219.51263192448823 85.3548046220676,222.0565079605076 85.98556839462253,223.67894619907747 87.41792779485695,225.88221514147153 89.4547691437474,227.74494092480745 93.85697463981342,233.4330495669783 95.47330680701998,238.47997303446755 96.1697751392494,238.5 93.77812916820403,231.0697198622438 93.76498825629824,230.44883582370676 95.15792492075707,229.74783307160396 93.48902910581091,222.21674994853674 92.14865608909167,219.47257036571682 89.29707820064505,215.96712168193335 85.21025459087105,212.50161418764037 83.08142685843632,211.5 83.01572229882004,213.44312235416874 86.16954116168199,215.96712168193335 87.73330968111986,218.71139769255387 85.69646833222941,219.77303166424826 84.46122261096025,217.97025029864017 82.4375221739756,219.1520773164375 80.01959437911864,218.2106230296995 78.96832142482162,218.13049885035434 77.62794840816059,218.51108812908933 75.97219350514933,219.69290873980935" stroke="#4dd2ff" stroke-linecap="round" stroke-linejoin="round" stroke-width="0.5"><title>2022-04-09 5.2km</title></polyline><polyline fill="none" points="103.81535157805774,218.33587961900776 105.28822709037922,218.21560425768257 105.32767911304836,218.015145000114 108.04986867605476,217.23335004969704 108.79945710644824,217.93496118443727 110.00931913449313,218.09532875144214 110.91671565544675,218.5764299069342 112.04767363818246,218.5764299069342 112.37644049359369,219.05752874397876 114.38849364887574,217.77459335976164 114.98027398862178,218.31583373555623 115.6509583737643,219.57871653450275 115.41424623780767,222.04429881557007 116.0586292744847,223.7681657039575 117.68931287745363,226.07329003035557 119.51725659365184,227.71691139406175 123.87012975962716,233.4292874016537 125.57971740790526,238.5 126.18464842191315,238.39979078290344 126.06629235393484,237.2373565141097 124.73807425799896,234.13078473016503 123.79122571431799,230.54307510985382 124.00163650180912,230.18229270686425 125.14574515871936,229.64111665801465 124.44875942519866,225.8928909157039 122.97588391284808,220.78144720534328 122.10793941447628,219.07757447852782 120.56931053104927,217.23335004969704 116.84766972754733,213.64503314968897 115.34849286676035,212.5023576757958 113.13917959821993,211.5 112.96822083339794,212.84315699284343 113.20493296929635,213.58489266136166 116.01917725181556,215.87020574878989 117.80766894543194,218.5764299069342 115.80876646432444,219.67894464386336 114.3490416262066,217.91491522046272 112.54739925841568,219.01743726277346 109.86466171804932,218.11537467924063 107.45808833630872,218.47620069074037" stroke="#4dd2ff" stroke-linecap="round" stroke-linejoin="round" stroke-width="0.5"><title>2022-04-07 5.0km</title></polyline><polyline fill="none" points="133.81050450686598,217.6497524219012 133.6922362045152,217.89012592524523 134.02075926656835,218.0904367355397 135.55824719689554,218.0904367355397 138.22585446070298,217.30922230073338 139.02745073207188,217.93018811945512 140.43352943760692,218.1505299001874 140.94602541442146,218.4910571495493 142.1549902826955,218.5511500728826 142.40466780986753,219.0318921564467 144.48093356197933,217.78997036921646 145.11169784108642,218.310778162333 145.82130765507463,219.7329702089046 145.59791197290178,222.2968708447297 146.7411722287943,224.60031912942213 147.88443248471594,226.1025393581367 149.4482022600423,227.34435766900424 154.08694789608126,233.41302158351027 155.70328136134776,238.5 156.3077637955139,238.43991909125907 156.26834102804423,237.41853810810426 154.2183571209025,232.71203965823952 153.82412944643875,230.3887500653509 155.1382216946222,229.80791921357013 155.23020815197378,229.24711380331428 153.74528391152853,223.0780462229377 152.7728556478978,220.2337372299662 151.68215908194543,218.69136675326445 150.94626742295804,219.11201561183407 151.36677694236278,218.41093319544598 149.29051119025098,215.76680660721468 145.53220736052026,212.62180721408367 143.21940500370692,211.5 143.08799577888567,212.86219283301762 143.3376733060577,213.603378177977 146.1235488721577,215.74677507773595 148.05526447697775,218.33080917699408 146.82001776370453,219.31232396867563 145.8475895000738,219.69290873863065 144.6911883216817,217.9902813806184 144.20497418986633,218.07040567258082 143.81074651540257,217.62972127051762 143.17998223632458,215.50639640979352 144.4020880270691,214.36458982706245 146.14983071715687,215.82690117162565 148.04212355450727,218.41093319544598 146.08412610471714,219.6328165031082 145.8607304225152,219.6728779974219 144.52035632941988,217.87009482205758 142.56235887962976,219.0318921564467 142.10242659278447,218.65130486464477 140.9066026469518,218.5311191024157 138.08130431341124,217.46947191431536 136.64894376287702,218.1705609470664 134.75665092552663,218.2907471436847" stroke="#4dd2ff" stroke-linecap="round" stroke-linejoin="round" stroke-width="0.5"><title>2022-04-03 6.2km</title></polyline><polyline fill="none" points="186.5983606557129,229.37342712317331 187.17213114758488,226.99934175964154 186.9918032787391,226.02470412857656 188.5,225.27497767958994 188.5,224.55023781881027 183.97540983610088,221.65123616644996 181.4016393442871,220.9514670284334 175.87704918032978,221.0264424814959 170.893442622968,221.80118618406414 168.71311475412222,221.62624447930284 164.8114754098351,224.77515753759508 161.64754098356934,226.34958418707538 161.5,227.02433236772777 164.25409836065955,225.84976836116402 168.7950819671969,221.85116948313953 169.71311475412222,221.55126938764442 173.66393442626577,221.6012527870771 176.02459016395733,221.0764260916767 181.680327868904,221.57626108982367 184.5,222.77585689423722 185.106557377032,222.35100136935944 184.56557377049467,221.80118618406414 180.106557377032,220.87649153036182 172.3852459016489,221.426310801231 170.87704918032978,221.8761611250884 168.87704918032978,221.62624447930284 163.92622950818622,225.4998960886005 161.5,226.47453782993398 161.72950819676043,227.02433236772777 164.696721311484,225.54987790199084 168.696721311484,221.97612764290534 169.9098360656062,221.5262776804302 170.64754098362755,221.65123616644996 173.31967213115422,221.0014506688094 180.71311475412222,220.6265728768194 185.12295081972843,221.92614439397585" stroke="#4dd2ff" stroke-linecap="round" stroke-linejoin="round" stroke-width="0.5"><title>2022-03-24 5.1km</title></polyline><polyline fill="none" points="27.524774781573797,267.86339030943054 26.779270416940562,267.69665831222665 25.715684190072352,268.5 25.238561396719888,268.25748265611765 25.0,267.6511858854137 24.691858195932582,264.9076320847671 24.334016100910958,264.0587775482127 23.906593598541804,263.75561289883626 21.431519107922213,263.69497982279427 20.169131717120763,262.4823080667411 32.38546323904302,246.15481635997276 26.530768962053116,241.5 17.614536760986084,259.6930890433068 23.11138894292526,265.30173987273884 23.44935092155356,265.0288962388513" stroke="#4dd2ff" stroke-linecap="round" stroke-linejoin="round" stroke-width="0.5"><title>2021-10-26 5.0km</title></polyline></svg>