<?xml version="1.0" encoding="utf-8" ?>
<svg baseProfile="full" height="300mm" version="1.1" viewBox="0,0,200,300" width="200mm" xmlns="http://www.w3.org/2000/svg" xmlns:ev="http://www.w3.org/2001/xml-events" xmlns:xlink="http://www.w3.org/1999/xlink"><defs /><rect fill="#222222" height="300" width="200" x="0" y="0" /><text fill="#FFFFFF" style="font-size:12px; font-family:Arial; font-weight:bold;" x="10" y="20">Over 5km Runs</text><text fill="#FFFFFF" style="font-size:4px; font-family:Arial" x="10" y="280">ATHLETE</text><text fill="#FFFFFF" style="font-size:9px; font-family:Arial" x="10" y="290">Wenz</text><text fill="#FFFFFF" style="font-size:4px; font-family:Arial" x="120" y="280">STATISTICS</text><text fill="#FFFFFF" style="font-size:3px; font-family:Arial" x="120" y="285">Number: 28</text><text fill="#FFFFFF" style="font-size:3px; font-family:Arial" x="120" y="290">Weekly: 2.5</text><text fill="#FFFFFF" style="font-size:3px; font-family:Arial" x="141" y="285">Total: 202.3 km</text><text fill="#FFFFFF" style="font-size:3px; font-family:Arial" x="141" y="290">Avg: 7.2 km</text><text fill="#FFFFFF" style="font-size:3px; font-family:Arial" x="167" y="285">Min: 5.0 km</text><text fill="#FFFFFF" style="font-size:3px; font-family:Arial" x="167" y="290">Max: 15.0 km</text><polyline fill="none" points="43.94676508900011,54.18728290450963 44.04524533211952,52.83623019541119 43.00416847586166,52.535993939040054 40.992357794195414,52.342984471455566 38.24897959182272,52.986348007121705 38.952409900084604,50.949016848368046 40.19044724275591,49.169000971924106 40.781328701647,47.11015042561485 40.570299609215,46.31662451395823 41.80833695176989,45.780455019616056 41.83647416415624,45.00836621863709 38.12236213631695,42.60627647354704 36.307511940889526,42.02719318455638 34.49266174552031,41.81271709549037 27.753799392085057,42.284563922919915 26.994094659166876,42.563381522842974 25.249587494588923,42.39180154747737 20.832045158487745,45.75900818381342 18.299696048605256,46.87423793257767 13.699261832400225,46.68121823258116 12.039166304806713,46.230837575742044 11.799999999988358,46.831344696096494 12.64411636989098,47.06725728377933 18.42631350411102,47.23882974760636 21.16969170642551,46.059263492577884 25.319930525380187,42.520486554843956 27.852279635262676,42.69206632345595 34.056534954404924,42.34890651056776 36.588884064229205,42.73496122247161 38.291185410285834,43.87166977002926 37.70030395133654,44.79389611660736 37.123491098580416,48.43982927600155 39.669908814597875,49.34057005922659 38.347459835000336,52.81478477653582 40.83760312630329,52.10708353729569 42.582110290881246,52.30009343120764 44.20000000001164,52.83623019541119 44.01710811984958,54.080057123421284" stroke="#4dd2ff" stroke-linecap="round" stroke-linejoin="round" stroke-width="0.5"><title>2022-06-03 5.0km</title></polyline><polyline fill="none" points="79.97480451775482,54.21142764201795 79.72145960031776,53.93251928070822 80.03110338834813,53.031425753069925 78.4406602953677,52.40923769171786 76.6953953084303,52.2805086749795 74.513814074744,53.031425753069925 74.14787141617853,52.88124275964219 74.37306689837715,51.76559105695924 76.42797567328671,48.440021673668525 76.73761946131708,47.08830904751812 76.5264986967668,46.25152599469584 77.79322328406852,45.73657932009519 77.73692441353342,45.114348776987754 74.00712423975347,42.603933575432166 71.86776715901215,41.93877094452182 70.44622067763703,41.788572357989324 64.25334491743706,42.260624347574776 62.50807993049966,42.68976071003999 61.17098175501451,42.41082227050356 56.72337098175194,45.80094779018691 54.27437011298025,46.85229397826333 48.84152910509147,46.637734371906845 48.0955690703704,46.20861386661272 47.79999999998836,46.78792614156555 48.57410947000608,47.0668531536794 52.85282363160513,47.3028677490438 55.25960034749005,47.02394135306531 57.63822762813652,45.58638607250032 61.35395308426814,42.496649560242076 63.000695047783665,42.75413101572485 67.11051259771921,42.28208120666386 72.68410078191664,42.68976071003999 74.16194613376865,43.526571659160254 74.23231972201029,43.95570293680794 73.45821025193436,45.5649298770586 73.07819287572056,48.504388515000755 75.94943527365103,49.31969848251174 74.31676802778384,52.83833329418121 77.00503909640247,52.173234375834 78.98957428324502,52.49505695007247 80.19999999995343,52.98851634791208 79.9607298001647,54.018337315588724" stroke="#4dd2ff" stroke-linecap="round" stroke-linejoin="round" stroke-width="0.5"><title>2022-06-02 5.0km</title></polyline><polyline fill="none" points="94.8549885757966,42.387136977908085 96.5946686976531,42.33071490022121 98.44539223154425,41.747684773712535 99.06230007612612,41.916951958490245 99.04996191925602,41.4655721192903 101.73968012185651,42.66924685666163 102.86245239907294,42.72566873042524 103.01051028180518,43.06419925944647 103.91119573498145,42.74447601415886 104.95993907083175,41.916951958490245 105.66321401370806,42.499981031389325 106.23076923078042,43.722449563181726 105.98400609291275,46.2049519451175 106.56389946688432,47.42737212385691 108.01980198017554,49.64649414255109 109.80883472959977,51.16975933602953 114.0038080731174,56.64202624592144 115.50906321400544,61.437048897045315 116.19999999998254,61.361834750234266 113.85575019038515,54.34785017029935 113.85575019038515,53.68967453084042 115.13891850720393,52.9750786004588 113.75704493524972,46.8067607960038 112.3011424219585,43.34630709891644 108.92048743335181,39.22744828370196 105.94699162224424,36.97046252623841 103.35597867477918,35.635053676654934 100.64158415843849,34.93912884218298 96.54531607008539,34.562951102954685 93.11530845394009,34.90151113625325 92.01721249049297,35.29649629495543 90.20350342727033,35.24006994571391 84.98446306170081,35.84194925190968 84.45392231529695,36.0112271098842 84.39223153085914,36.70714397844131 83.83701447068597,36.76356944384315 83.79999999998836,38.19300322936033 87.40274181263521,38.456317599862814 89.88271134803654,39.11460028748843 90.462604721979,39.52837560889748 89.96907844633097,41.16465101807262 92.27631378520164,40.58161363311956 95.17578065497219,41.07061297562177" stroke="#4dd2ff" stroke-linecap="round" stroke-linejoin="round" stroke-width="0.5"><title>2022-05-30 6.1km</title></polyline><polyline fill="none" points="136.49342442356283,45.0134988805039 136.62254483345896,44.8869707544909 137.53561058922787,44.95726418605409 139.35251921435702,44.33867956614995 141.4368915456871,45.168144057337486 142.24850555078592,45.182202692834835 142.56208368914668,45.47743338628061 143.89017933388823,44.633913816498534 144.21298035865766,44.872912059683586 144.79402220324846,45.885130868835404 144.55422715627356,47.55807154344075 144.81246797606582,48.31720790866166 146.18667805296718,50.43993443042564 147.3395388556819,51.39584323969757 150.58599487616448,55.57076257623703 151.77574722457211,59.23942560811702 152.14466268144315,59.211313978517865 152.19999999998254,58.77558227589179 151.09325362936943,56.02057068084105 150.49376601196127,53.659045895903546 150.59521776257316,53.377906687852374 151.43450042695622,53.05459520313525 151.48061485908693,52.801567782473285 150.00495303157368,46.95356818083019 149.2671221178316,45.57584334080093 147.4871050384245,43.41079238890961 144.59111870196648,40.93636646166851 144.1391972672718,40.8660689930075 142.32228864220087,39.82565820439413 139.85977796753286,39.27732737814222 137.35115286079235,39.15078888527569 135.2483347566158,39.417925435300276 134.9163108454086,38.813351786164276 132.58292058069492,37.351105562724115 130.1757472245954,36.76057439188298 126.32058070023777,37.04178033254357 125.27839453457273,37.32298514369904 124.30999146029353,37.19644311849697 123.72894961570273,37.33704535463039 121.40478223739774,39.2070282436398 120.44560204952722,39.76941934293791 119.83689154568128,39.89595671772622 119.79999999998836,40.28962708774634 121.96737830911297,39.17890857009115 124.20853970965254,37.18238287932763 127.04918872760027,37.29486471344717 128.01759180187946,37.055840599903604 128.98599487615866,37.22456358827185 130.39709649872384,37.12614189449596 131.5315115286212,37.308924929981 132.7397096498753,37.9275716629636 133.44987190436223,37.51982783947096 134.34449188728468,38.43373310564857 134.98087105038576,38.757112111521565 134.93475661828415,39.37574604780457 134.667292912025,39.51634390734398 134.65807002561633,39.783479062545666 135.12843723312835,40.13497113493213 136.25362937658792,40.48646144266604 140.15491033304716,40.14903078111092 140.67139197266079,40.3739847361976 141.8242527754046,41.51280304206011 144.56345004268223,40.795771453784255 147.21964133219444,43.04525770028704 149.24867634501425,45.49149195969949 150.1894107600383,47.37531526329258 147.70845431255293,48.064163368089794 147.34876174209057,47.67053670947644 146.998292058066,46.39123478584588 146.223569598631,45.350906098658015 144.88625106748077,45.983540250315855 144.000853970967,44.78855983173344 142.51596925704507,45.53366766295221 142.18394534583786,45.280613062292105 141.44611443209578,45.23843720661171 140.80051238255692,44.94320550540215 139.86900085394154,44.8869707544909 139.18650725873886,45.06973352978821 138.55012809563777,45.58990189445103" stroke="#4dd2ff" stroke-linecap="round" stroke-linejoin="round" stroke-width="0.5"><title>2022-05-28 10.0km</title></polyline><polyline fill="none" points="172.65389425811009,44.8563056149942 173.97089255257742,44.80015074330004 175.37077885161852,44.15436647716706 176.17202956226538,44.72995709027964 176.86276293348055,44.81418946546182 177.47981807845645,45.16515660303048 178.18897100625327,45.13707929688826 178.53894258098444,45.50208339766323 179.56122797040734,44.77207329054363 180.01250710629392,44.65976336674794 180.7769187038066,45.8390085686442 180.6387720295461,47.64995354599523 181.1084707219852,48.815110400038975 181.9281409891846,50.14869983668177 183.5030130756204,51.59456280350423 186.61591813529958,55.63720544141688 187.78555997725925,59.25854100862125 188.19999999998254,59.09011095470487 188.1447413302958,58.3883146965818 186.99351904491778,55.5529861036739 186.505400795897,53.46150667861002 187.500056850462,52.956173407095775 186.164638999413,47.25688420317965 185.23445139284013,45.40381325029011 182.74781125641312,42.694310495920945 180.59272313813563,40.93939516948012 179.39545196134713,40.46205058018677 178.5573621375661,39.87238511721807 175.9970437748707,39.26867484777176 173.45514496869873,39.10019663283674 171.18953951107687,39.35291380299532 171.0421830585401,38.791318850995594 168.61080159182893,37.27498994637426 166.31756679929094,36.74145899138239 159.80625355313532,37.27498994637426 157.50380898235017,39.128276363553596 155.79999999998836,39.942583647374704 155.8184195565409,40.22337706332837 156.18681068785372,40.22337706332837 157.1538374075899,39.717948102636 159.89835133595625,37.35923130390802 160.30358158040326,37.21882898495096 163.00204661738826,37.246909471305116 163.82171688455855,36.98014439562394 164.66901648661587,37.17670823430308 166.47413303010399,37.106506926767906 167.57009664582438,37.31711063781404 168.7857873791654,37.93487786351761 169.48573052868596,37.485593149824126 170.26856168275117,38.398199700401165 171.01455372368218,38.80535877976217 171.12507106308476,39.19847564090742 170.69221148377983,39.66178910365488 170.91324616258498,39.99874242079386 171.43820352471084,40.23741670457457 172.9854462762596,40.518208936333394 176.16281978396,40.11105983229936 176.56805002840701,40.279535611185565 177.8758385446272,41.52905163311152 179.39545196134713,41.00959262834658 180.5650938033068,40.86919764017148 182.99647527004709,42.77854532366109 185.0042069357587,45.151117951376364 185.759408754966,46.38650850860358 186.11859010803164,47.43938095858903 183.65957930640434,48.05705875010972 183.37407617963618,47.706106128873216 183.05173393973382,46.456700498525606 182.16759522457141,45.305542964797496 180.9058555997617,45.95131659817707 179.96645821488346,44.70187960932526 178.51131324615562,45.53016055725675 178.179761227977,45.23534981916964 177.47060830018017,45.20727254117446 176.82592382034636,44.84226690127616 175.14974417281337,45.052847310707875" stroke="#4dd2ff" stroke-linecap="round" stroke-linejoin="round" stroke-width="0.5"><title>2022-05-26 10.0km</title></polyline><polyline fill="none" points="18.237497113412246,81.90684712739312 20.28254741220735,81.81583031872287 22.9993295611348,80.92841260276327 26.238569815584924,82.43019235885731 27.358122898906004,82.36193007440306 27.865653629996814,83.09005898828036 30.40330728556728,81.52002518555673 31.701988862187136,83.56789104553172 31.298949752235785,85.91151434124185 32.17966484441422,88.23233624939894 33.20965368108591,89.98429777660931 36.0757095743902,92.6918214105026 41.091307387687266,99.15321306882106 42.94230181880994,104.84075298983953 43.76330741326092,105.0 43.61403366882587,103.93076578222099 41.389854876557365,98.53894167978433 41.031597889901605,95.74055210896768 42.38998896436533,95.2172683418903 42.53926270880038,94.83049183071125 40.03146380215185,85.00137512845686 38.941765467694495,82.97628915389214 35.65774308994878,79.17631106587214 31.328804501099512,75.58100490184734 28.940424589964096,74.23842461407912 25.163798855559435,73.00960837447928 20.103418918908574,72.59999999999854 15.684916083409917,73.03236435184954 14.62507249781629,73.35094755551836 14.863910488958936,74.21566887887457 14.281742885650601,76.71877235449938 13.221899300056975,77.94754837229266 12.236692586739082,80.45056941572693 14.759418867819477,79.76793279597769" stroke="#4dd2ff" stroke-linecap="round" stroke-linejoin="round" stroke-width="0.5"><title>2022-05-24 5.1km</title></polyline><polyline fill="none" points="80.14362766419072,95.07324166472972 79.83357981726294,94.72952199834253 80.11544149625115,93.63390819191409 78.0014789038687,93.20425265608355 76.4935189212556,93.29018390129204 74.5486733361613,93.89170068519888 74.21043932141038,93.65539092339168 74.81644193123793,92.04417409044981 76.32440191385103,89.57359448378702 76.81765985203674,87.98380004648789 76.6344497607788,87.10295782238973 77.95919965201756,86.54437119075737 77.95919965201756,86.13617142315343 77.7196172248805,85.55609538988938 75.80295780772576,84.26702627701889 72.60382775112521,82.87051720947784 70.29256198339863,82.5267583352761 64.37346672464628,83.02091136959643 62.640017398807686,83.40763823898305 61.42801217921078,83.14982048138336 60.54014789033681,83.45060780490167 56.76320139190648,86.52288703125669 54.40965637227055,87.59708971923101 49.26568073069211,87.42521801397379 47.997303175216075,87.05998972354428 47.79999999998836,87.46818596623052 48.36372335796477,87.76896114838746 51.182340147846844,88.06973548493988 55.29752066114452,87.87638065132342 57.622879512782674,86.52288703125669 60.72335798171116,83.72990956233116 61.56894301867578,83.34318385784718 69.75702479336178,83.2142749790728 72.67429317091592,83.49357735352532 74.2668116571731,84.58929501146486 73.4775989560294,86.11468718174001 73.12527185725048,89.20837352764647 75.9861678990419,90.08919841693569 74.32318399305223,93.65539092339168 77.08542844711337,93.01090710201242 78.53701609390555,93.16128700765694 80.19999999995343,93.61242545612913 80.11544149625115,94.49321408712422" stroke="#4dd2ff" stroke-linecap="round" stroke-linejoin="round" stroke-width="0.5"><title>2022-05-22 5.0km</title></polyline><polyline fill="none" points="90.31297979492228,81.43523465616454 90.4019195367,81.90974169681431 91.55813617934473,81.95493273920874 93.15905153076164,81.72897734579601 95.1453724297462,80.93812989604339 95.7975972025306,81.5030214987346 97.35404268302955,81.75157290558127 98.4806127451593,82.40684216484806 99.65165267809061,82.3164604249032 100.00741164508509,82.85874977570347 102.2605517692864,81.43523465616454 103.00171628384851,82.02271926872345 103.72805750806583,83.44622695675207 103.3426519605564,86.22540435552946 104.3061658294173,88.39447073429619 105.92190447106259,90.6990579539779 107.92304866039194,92.39357727186871 113.17049342324026,99.17139941075584 115.0678745805053,105.0 115.76456922420766,104.86445457737864 115.66080619208515,104.20931606642989 113.27425645530457,98.42585895625234 112.90367419808172,96.00846654353518 113.05190710094757,95.60179729696392 114.34153335628798,95.0821622323565 114.4304730980075,94.44955978481448 112.1625096835196,85.36680403065111 111.0952327825944,83.19767929291993 106.989181372046,78.36218823927629 103.35747525078477,75.53762303045369 99.35518687230069,73.59428099606157 94.65620385011425,72.69038954446296 91.51366630848497,72.60000000000582 87.88196018722374,73.00675237843097 86.79985999607015,73.43610051618452 86.91844631836284,74.31738892957947 86.34033799701137,76.82563355957973 85.56952690187609,77.57131712746195 84.23543077573413,80.57659778213565 86.79985999607015,79.763146278965 88.97888366872212,79.96650970608607 90.44638940755976,80.55400198649295 90.12027702113846,81.4126390328529" stroke="#4dd2ff" stroke-linecap="round" stroke-linejoin="round" stroke-width="0.5"><title>2022-05-16 5.4km</title></polyline><polyline fill="none" points="138.69326010983787,86.00843075296507 139.42925611583632,86.07007354462985 141.03065401897766,85.55227217108404 141.41078382424894,85.88514498394215 142.26000998503878,86.04541643538687 142.68866699951468,86.30431558859345 143.4084872691019,86.27965857341769 143.65921118322876,86.61252744280137 144.9613579630386,85.8604878004553 145.69735396906617,86.9700512554191 145.53559660512838,88.57271862574271 146.18262606090866,89.94111688833436 147.0318522216985,91.09991679484665 147.9943085371924,91.90120181317252 150.80079880182166,95.47603835343398 151.8360459311225,98.63158319105423 152.19999999998254,98.60693112545414 152.1838242636295,98.24947506227181 151.0272591113462,95.18019771111722 150.7118322516617,93.86122417127262 150.76844732902828,93.60235687963723 151.52870693959994,93.232544569928 151.55297054420225,92.99832895514555 150.37214178731665,88.17821976967753 149.64423364953836,86.74814016852179 147.7274088866543,84.479669719909 145.13929106341675,82.40838437054845 143.65921118322876,81.6686226680431 142.2033949076722,81.286408962711 139.58292561158305,81.03981821263005 137.22935596606112,81.24942041335089 137.05951073390315,80.7808968591089 135.9433849226334,79.96713692480989 134.8434348477167,79.3506449452143 133.25821268098662,78.96841680894431 129.53779331003898,79.20268594896697 128.64003994007362,79.43695419503274 127.4106839740416,79.36297484549141 124.96005991013953,81.24942041335089 123.6255616575072,81.8412345292054 120.39850224662223,81.7302698170206 119.96175736395526,81.50833979097297 119.8970544183685,81.61930490427403 119.79999999998836,81.85356392931135 120.26909635547781,81.97685779396852 123.50424363455386,82.13713944790652 124.89535696455278,81.59464600753199 127.75037443835754,79.37530474326559 129.3436844732787,79.48627371187467 130.5245132301643,79.30132531940762 133.0721917124465,79.32598513726407 134.0427358961606,79.4492840779676 135.15886170745944,79.96713692480989 135.5147279081575,79.63423202469494 133.83245132301818,79.07938651300356 132.82955566651071,78.96841680894431 129.4245631552767,79.17802608155398 128.23564653020003,79.48627371187467 129.97453819273505,79.43695419503274 130.98552171743358,79.20268594896697 133.08027958063758,79.28899540678322 134.18831752371625,79.52326332349912 135.25591612581047,79.9794667012793 135.74118821768207,79.62190217891839 136.54188716926728,80.44799637150209 137.0999500748876,80.71924875685727 137.13230154771009,81.20010231284323 136.45292061910732,81.4713513753195 136.52571143285604,81.8412345292054 138.11093359961524,82.59332340347464 139.58292561158305,82.48236005054059 139.63954068897874,84.18377609096933 139.2755866200896,84.4056964463598 139.25941088367836,84.78789073369262" stroke="#4dd2ff" stroke-linecap="round" stroke-linejoin="round" stroke-width="0.5"><title>2022-05-14 9.9km</title></polyline><polyline fill="none" points="169.74541751525248,85.02076786318503 170.79022403259296,85.08782581281412 172.97881873726146,84.3166561403923 173.99063136451878,84.93694535043323 174.6175152749056,84.98723886821244 175.35437881870894,85.42311475305178 176.03625254580402,85.35605707271316 176.6961303462158,85.79193103213038 178.32382892054738,84.70224186698033 179.3576374745171,86.29485969619418 179.12668024440063,88.32330789105617 179.7205702647625,89.73145782302163 180.45743380853673,91.00547777429165 182.3820773930347,92.79913080798724 186.29735234210966,97.82785910007078 187.8260692464246,102.2026063742669 188.15600814661593,102.0852789786295 188.19999999998254,101.44835595435143 186.92423625249648,98.347477092997 186.23136456205975,95.43086972211313 186.33034623213462,95.16267082610284 187.3971486761293,94.62627044977125 186.16537678206805,89.26207715112832 184.79063136450714,85.95957425674715 181.85417515275185,82.48929087074794 179.18167006107979,80.36010840885865 176.34419551931205,78.98533182830579 173.51771894094418,78.39853005273471 171.19714867617586,78.21410578567156 167.90875763742952,78.51589073777723 167.63380855394644,77.91231974266702 166.14908350305632,76.82252772704669 164.57637474540388,75.93391755459743 163.34460285131354,75.54829132922168 161.82688391034026,75.39739362573891 156.6248472504667,75.79978689562267 155.79999999998836,76.10158057521039 162.14582484721905,75.81655323976884 164.2134419551585,76.31954199865868 164.88431771891192,76.87282613325078 164.22443991850014,78.21410578567156 163.9604887983296,80.56129332669661 166.07209775966476,81.39955859919428 164.91731160893687,84.03165685008571 166.68798370668082,83.49518495855591 168.84358452138258,83.71312708022015 169.4704684317694,83.94783334428939 169.3604887983529,84.93694535043323" stroke="#4dd2ff" stroke-linecap="round" stroke-linejoin="round" stroke-width="0.5"><title>2022-05-12 7.0km</title></polyline><polyline fill="none" points="23.535725190798985,124.02137186649634 24.920763358764816,124.02137186649634 27.208549618313555,123.22964945468993 27.752671755704796,123.7197641159728 29.66946564882528,124.37952981168928 30.819541984703392,124.41723056855699 31.351297709916253,124.92618930424214 33.30519083965919,123.73861462874629 34.28213740451611,125.322044191038 34.13374045799719,128.09298166359076 34.96229007630609,129.7705843325166 36.1989312976948,131.52355284670193 37.781832061038585,132.86181860523357 40.193282442720374,135.80216651134833 40.440610686986474,136.51839115665643 41.62778625951614,137.74349959472602 42.394503816758515,139.08167669857357 43.50748091598507,142.88878047999606 44.19999999998254,142.70031362757436 42.14717557246331,136.49954320969118 42.035877862537745,135.5948373048741 43.30961832054891,134.8032124868114 41.96167938929284,128.88466306292685 41.05893129768083,126.45304895605659 40.36641221368336,125.13354207216616 37.58396946560242,121.77814102456614 35.345648854912724,119.76107256673276 32.82290076330537,118.08329101905838 31.15343511448009,117.29151852588257 29.347938931256067,116.82022220466024 25.1804580152384,116.31121952000831 21.19847328242031,116.68825881066005 20.147328244231176,117.08414843607898 18.453129770990927,116.98988915285008 12.517251908342587,117.72510905171657 12.418320610653609,118.49802632645151 12.059694656461943,118.46032319243386 11.849465648818295,118.74309632871154 11.799999999988358,119.81762647849973 12.047328244254459,120.11924676591298 13.914656488515902,120.04384178496548 17.14229007632821,120.57167538003705 18.514961832028348,121.19376116424246 18.131603053421713,122.9468898323612 20.24625954197836,122.21171082837827 21.73022900763317,122.34366645816044 23.238931297673844,122.7960843521796 22.991603053407744,123.73861462874629" stroke="#4dd2ff" stroke-linecap="round" stroke-linejoin="round" stroke-width="0.5"><title>2022-05-10 6.0km</title></polyline><polyline fill="none" points="66.57405836865655,126.91523869022785 67.38223996007582,126.90291936989888 68.96627587924013,126.33622796182681 70.70386630078428,127.11234747869094 71.42314791717217,127.11234747869094 71.64135694684228,127.3956902526952 72.83746570214862,126.64421307208613 73.03951110001071,126.74276798085339 73.6537291094719,127.67903171817306 73.4516837116389,129.1942703891218 73.92851085055736,130.36455106758513 74.67203791465727,131.4978542391218 75.98937390869833,132.71736361753574 78.21187328509404,135.57510882608403 78.8988276377786,136.6467289661632 79.70700922922697,139.39343995520903 80.19999999998254,139.3688063223235 79.92521825889708,138.1617461967944 79.27059116985765,136.6836810509849 78.72910950359073,134.78677861411416 78.71294587175362,134.38029189095323 79.54537291094312,133.91221293449416 78.28460962828831,128.77542766958868 77.67039161885623,127.51888235497972 76.13484659514506,125.5970573892082 74.40533798950491,124.02013040259772 73.42743826386868,123.36717220597347 71.68176602639141,122.46780331173068 70.06540284358198,122.07355525638559 67.68934896480641,121.85178961186466 65.2648041905486,122.03659437130773 64.96577700172202,121.54378044236364 62.98573210273753,120.23780438474569 60.84405088546919,119.7449760058189 57.094088301295415,120.01603210419489 56.50411573954625,120.21316305985965 55.32417061610613,120.1762010539278 53.26330755799427,121.79018790168266 51.58228984780726,122.61564567934329 48.45462708902778,122.52940434154152 47.96163631827221,122.3076403447958 47.79999999998836,122.60332549562736 50.434671987983165,122.92364946752787 51.92980793211609,122.81276828194314 53.530007483117515,121.9626725343187 55.534297829843126,120.21316305985965 58.104315290547675,120.22548372353776 58.7589423796162,119.9790699794612 59.57520578696858,120.15155970422711 61.78154153152718,120.21316305985965 63.23626839608187,120.79223157882006 63.6888500872592,120.41029338206863 64.46470441503334,121.18648786841368 65.0546769767825,121.432896762788 65.0465951608785,122.01195376887335 64.72332252431079,122.22139857402726 65.49917685205583,122.82508842356037 67.23676727359998,123.0098902511163 69.42693938635057,122.71420705978744 70.23512097776984,123.07149073663095 71.38273883756483,124.06940998442587 71.95654776750598,123.84765155433706 73.92042903465335,125.43690259131836 75.14078323767171,127.3956902526952 74.97106510348385,127.21090163543704 73.67797455721302,127.87613805284127 73.41127463203156,129.0587627633322 73.54058368667029,129.53919754068193 74.67203791465727,131.4978542391218 75.84390122222248,132.54490921727847 78.56747318530688,135.96927013395907 79.86864554751082,139.4550239941782 80.10301820898894,139.35648950218092 80.12726365673007,138.97466685129984 78.87458219003747,135.92000010895936 78.60788226488512,134.60201225560377 78.68061860810849,134.39260970999385 79.51304564726888,133.94916666613426 78.47049139434239,129.53919754068193 77.83202793714008,127.88845717775257 75.45597405833541,125.03035391909725 73.73454726859927,123.65053227693352 71.57670241955202,122.46780331173068 68.53793963577482,121.88875060826831 65.20823147913325,121.99963346396544 65.02234971313737,121.5314600434358 63.68076827135519,120.50885830566403 62.10481416809489,119.94210783249582 61.02185083559016,119.76961751882118 57.611324519792106,119.99139069016383 56.237415814364795,120.26244569979826 59.11454227985814,120.07763559587329 59.0741332002799,121.75322684588173 58.839760538743576,123.04685054981019 59.31658767769113,123.20701158695374 58.97715140928631,123.30557201737611 59.03372412070166,124.21724849253224 62.17755051134736,124.5622036259665 63.20394113243674,124.94411597562066" stroke="#4dd2ff" stroke-linecap="round" stroke-linejoin="round" stroke-width="0.5"><title>2022-05-08 15.0km</title></polyline><polyline fill="none" points="95.46301369860885,123.88804486259323 96.36301369863213,123.92563098137907 99.06301369861467,123.06114643080218 101.70136986300349,124.20752639098646 102.6506849314901,124.16994038546545 103.20547945200815,124.69614308978635 104.62328767121653,123.75649332799367 105.27671232877765,123.68132093955501 106.2630136985972,125.29751398656663 105.95479452054133,127.30831986220437 106.59589041097206,129.03720252415224 108.23561643832363,131.44255136556603 109.7397260274156,132.62641129982512 114.00547945205471,138.2824243258874 115.65753424656577,143.01742822201777 116.19999999998254,142.88590357015346 116.15068493151921,142.24706691812753 114.76986301367288,138.864917884006 113.91917808220023,135.3699021616776 115.20136986300349,134.6558506371657 113.80821917805588,128.37947918815917 113.08082191777066,126.25594086690398 112.1684931506461,124.69614308978635 109.6657534246624,121.7268176463258 106.632876712305,119.058103005882 102.78630136983702,116.97194208928704 96.75753424654249,116.1825717779866 84.55205479450524,117.51697960906313 84.45342465752037,118.23116189933353 83.82465753422002,118.49428031673597 83.79999999998836,119.22724915022263" stroke="#4dd2ff" stroke-linecap="round" stroke-linejoin="round" stroke-width="0.5"><title>2022-05-05 5.1km</title></polyline><polyline fill="none" points="133.6218181817967,125.97601742220286 135.07272727272357,126.07579144283955 136.9490909090964,125.39399990587117 139.39272727273055,126.34185491032986 140.28727272726246,126.34185491032986 140.58181818184676,126.70769078235026 142.28363636363065,125.70995277939801 142.42545454544597,125.80972712062794 143.26545454547158,127.25644156031922 143.03636363637634,128.86941522017878 143.5709090908931,130.6153822287597 144.57454545455403,132.1617794130434 146.45090909089777,133.94093185140082 148.3272727272706,136.20222932449542 150.35636363638332,139.27815986649512 151.46909090908593,142.86937206656876 152.19999999998254,142.86937206656876 150.41090909088962,136.800797733129 150.36727272727876,135.96945155285357 151.19636363637983,135.73667312703765 151.3272727272706,135.47063983930275 150.01818181818817,129.63431958299043 148.6218181817967,126.80746392154106 146.37454545454239,124.03039999290922 143.0800000000163,121.28650285358162 140.28727272726246,119.87294460286648 136.42545454544597,119.17447161917516 132.01818181815906,119.3906662674708 131.6472727272776,118.72545016152435 129.31272727271426,117.0623865177622 127.52363636362134,116.46367542972439 125.66909090909758,116.33062793343561 121.04363636363996,116.69650803390687 119.82181818183744,117.0623865177622 119.79999999998836,117.22869438507769 123.71636363634025,116.94597081185202 123.36727272727876,120.77097263973701 123.92363636364462,120.95390308296192 123.60727272726945,120.97053310319461 123.55272727273405,122.36744288267073 127.81818181814742,122.83307423955557 129.27999999996973,123.33196207389119 129.4327272727387,123.5814048639877 128.94181818180368,124.67894421480742 129.01818181815906,124.94501216993376 130.95999999999185,124.4128754047997 132.31272727271426,124.49602199976653 133.95999999999185,125.04478743274376 134.96363636365277,125.02815823060519 135.91272727272008,124.69557348702074" stroke="#4dd2ff" stroke-linecap="round" stroke-linejoin="round" stroke-width="0.5"><title>2022-05-04 7.1km</title></polyline><polyline fill="none" points="167.1504754659254,123.78688345028058 169.11000380371115,123.74931157538958 171.09418029666995,123.05422916921816 173.57131989349728,124.10624377723434 174.87767211862956,124.25653061268531 175.03788512738538,124.72617541764339 177.09600608595065,123.50509402117314 178.21749714718317,125.19581786502386 177.9217192848737,127.4312835972305 178.56257131989696,129.02801213358907 180.09075694181956,131.2633863059673 181.68056295168935,132.65342398643406 185.58729554965976,137.6310922423727 186.1788512742496,138.62659411765344 187.46055534423795,142.92779180069192 188.19999999998254,142.90900970782968 188.01513883608277,141.76329491566867 186.462305058958,138.2885003288029 185.93236972231534,136.05329398918548 185.8953974895121,135.33951937225356 187.01688855074462,134.8699278390268 187.17710155950044,134.5693880208346 185.1682769113977,126.6610871492303 184.0837580829102,124.51953199393029 182.87599847849924,122.96029871826613 178.3037656903325,118.88362628156028 175.06253328261664,117.13642656994489 171.291365538229,116.30978307708574 167.26139216430602,116.27220819931244 164.1064282997395,116.87340443272114 162.24549258273328,116.85461710891832 156.50247242295882,117.54974557734386 156.46550019018468,118.26365592535876 156.24366679342347,118.54546114210098 155.8862685431668,118.41395214656222 155.79999999998836,119.01513461682043 155.8862685431668,119.97326119399077 156.3915557245782,120.593220221097 158.41270445034024,121.83312595073221 161.70323316851864,122.75365139415953 162.3933815138589,124.35045976231049 162.41802966906107,125.98481186956633 165.36348421449657,126.79258455260424" stroke="#4dd2ff" stroke-linecap="round" stroke-linejoin="round" stroke-width="0.5"><title>2022-05-01 6.0km</title></polyline><polyline fill="none" points="19.17236662103096,163.52125756176974 19.08372093021171,163.27352825915295 21.078248974052258,163.476215911076 22.43748290016083,162.98075655966386 22.52612859098008,163.61134080890042 22.51135430915747,162.98075655966386 23.693296853627544,162.53033706819406 24.609302325581666,163.1834447406727 25.96853625169024,163.3410908504593 26.943638850876596,163.90411086233507 28.273324213398155,163.83654861016112 28.583584131323732,164.44460741477815 30.66675786592532,163.13840295434056 31.065663474670146,163.22848650901142 32.27715458278544,165.09770394045336 32.01121751026949,168.1379308144824 32.764705882407725,169.78187101845833 33.858002736000344,171.58342165357317 36.32530779752415,173.88035674817365 41.28946648427518,180.11787455719605 43.56470588239608,186.51265908208734 44.199999999953434,186.35504553555802 44.126128590956796,185.4543924497557 41.4963064295589,178.18135380839522 41.64404924761038,177.12300857302034 43.018057455599774,176.33487265546864 41.15649794804631,168.40816921512305 39.54610123124439,164.60225175193045 36.47305061557563,160.86376922160707 32.27715458278544,157.3729049570029 27.87441860465333,155.23328928159754 25.037756497913506,154.5350900701087 20.9896032831748,154.28734091791557 16.512995895987842,154.73779351473058 16.010670314601157,155.05310925600497 16.823255813971628,155.8413947308145 18.74391244869912,156.40445239204564 23.914911080733873,155.79634999579866 25.244596443255432,156.08914045002894 27.66757865936961,158.18369602192251 29.130232558120042,157.68821328984632 30.01668946648715,158.7692637013315 32.88290013681399,161.04393991237157 34.70013679895783,163.9941938019765 32.35102599178208,165.34542921402317 31.966894664801657,167.30469164680107 32.188508891966194,168.63336738510407 34.286456908332184,172.05632390059327 36.679890560917556,174.2406560246818 41.4963064295589,180.59074082430016 43.50560875510564,186.49014287473983 44.17045143642463,186.37756177007395 44.11135430919239,185.4543924497557 42.456634746922646,181.4013640731646 41.5110807113233,177.59588746546797 41.68837209302001,177.16804474387754 43.003283173718955,176.33487265546864 41.348563611507416,169.12880176727776 39.50177838577656,164.44460741477815 36.22188782488229,160.57099123171793 32.12941176473396,157.2152504581536 28.46538987691747,155.39094656652014 22.7477428180282,154.4224768869317 20.827086183300707,154.30986359069357 15.345827633398585,155.1206767995027 12.065937072504312,155.25581176443666 11.799999999988358,157.3278608370747 14.29685362521559,158.56656754291907" stroke="#4dd2ff" stroke-linecap="round" stroke-linejoin="round" stroke-width="0.5"><title>2022-04-30 10.1km</title></polyline><polyline fill="none" points="59.0813714285614,165.44359160821477 60.883428571454715,165.55647898984898 63.05577142856782,164.7662644621014 65.83291428568191,165.989212692999 66.93142857143539,165.8763258327017 67.25234285715851,166.32787245803775 69.25188571427134,165.25544566982717 70.31337142857956,167.00518831601948 69.98011428571772,169.07473421424947 70.83177142855129,171.1442344052848 72.23885714283097,173.13843680209538 73.73234285711078,174.36127577142906 77.97828571428545,179.79801276772196 79.47177142853616,184.40676423258265 79.66925714284298,184.7641681415189 80.20000000001164,184.63249317576992 80.02719999995315,183.16524532637413 77.97828571428545,177.59701883466187 78.05234285714687,177.0138408388084 79.11382857139688,176.59997038191796 79.2496000000101,176.31778493146703 77.74377142853336,169.77084392531106 76.37371428569895,166.74178828632284 72.85599999997066,162.6401780039305 69.9677714285499,160.3070718606541 67.20297142854542,158.91470664292865 63.006400000012945,158.0115397623813 60.192228571424494,157.9362754626418 57.25462857144885,158.2185162747628 56.04502857144689,158.61365198337444 54.711999999999534,158.53838816738426 48.935542857158,159.21576033512974 48.589942857128335,159.30983941556042 48.3801142857119,159.9872060061607 47.79999999998836,159.91194329351129 47.92342857143376,158.40667634386773 52.7124571428576,158.03035582783923 52.77417142860941,156.65677311748004 53.19382857144228,156.03583185847674 53.99611428572098,156.5062422810879 53.29257142858114,157.86101110248273 53.00868571427418,160.55167442432867 55.62537142861402,161.39837067549524 53.99611428572098,164.87915265982156 54.440457142860396,166.30905805873044 54.366399999998976,167.66368515080103 56.57577142861555,168.24692134001089 58.3408000000054,169.41338282776996 59.79725714283995,167.56961445769412 58.439542857173365,166.85467410399724 58.69874285714468,165.70699528720434 59.03200000000652,165.5941080868506" stroke="#4dd2ff" stroke-linecap="round" stroke-linejoin="round" stroke-width="0.5"><title>2022-04-28 7.1km</title></polyline><polyline fill="none" points="102.42273180457414,167.6064599949823 102.53579262216226,167.72956121542302 102.7215353938227,167.58183972122788 103.71485543370363,167.6064599949823 104.96660019940464,167.15098333001515 105.65304087739787,167.6064599949823 106.16181455636979,167.63108025881593 106.69481555334642,167.92652265401557 107.45393818544107,167.92652265401557 107.72851445662673,168.2588936467946 108.98025922235684,167.47104836698418 109.62632103692158,168.66512241314194 109.44865403790027,169.99457955664548 109.88474576271256,171.1762950383163 110.47427716851234,172.14873131976856 111.87946161517175,173.46580396984064 114.64945164506207,176.99837314147953 115.62662013957743,180.01381994987605 115.8608175473637,180.28458750936989 116.20000000001164,180.16151149420693 116.1030907278473,179.5830509137195 115.1824526420969,177.50300926613636 114.6333000997256,175.57059965568988 114.67367896312498,175.07825626173144 115.48125623131637,174.73361353358268 114.27796610168298,169.71145684023577 113.58344965107972,168.38199355722827 111.7825523429783,166.20308861066587 110.34506480558775,164.9227919572004 108.85912263210048,163.9379301830013 107.55084745763452,163.27313954093916 105.4834496510739,162.76838627574034 103.35144566302188,162.6575862222562 101.18713858426781,162.829941774522 101.01754735794384,162.38674080388228 98.93399800601765,161.03249576235248 97.09272183451685,160.55234715471306 93.0225324027997,160.8478236660194 92.5622133599245,161.03249576235248 91.60927218347206,160.87244664434184 91.07627118643722,161.10636444513148 88.77467597209034,162.89149721146168 87.54715852445224,163.42087141775846 84.40568295118283,163.29776154513456 84.06650049850577,163.13771834113504 83.79999999998836,163.4947372226634 87.41794616152765,163.71633410333743 88.1528414755885,163.53167009172466 89.3157527417934,162.90380829142305 91.63349950150587,160.87244664434184 92.23110667997389,160.94631551995553 93.69282153539825,160.61390487864992 97.48035892326152,160.5154124906294 99.72542372884345,161.26641295245645 101.09022931207437,162.49754134695468 101.04985044867499,162.85456395668734 100.3714855434082,163.15002937167446 100.4603190428752,163.75326683889944 100.18574277171865,164.91048128268085 99.62043868395267,165.6121857853177 98.82901296115597,167.4218077008154 99.26510468596825,168.11117342802754 99.24895314060268,169.10827799756225 100.3068793619168,169.3421643756701 101.87357926223194,170.2038433328089 102.76999002991943,168.91132035549163 104.40129611169687,167.975762914808 105.46729810570832,167.59414985933108 104.36091724826838,166.68319296253685 103.553339980077,167.02788094781135 102.43888334996882,167.06481168842947 101.95433698903071,168.33275362271525 102.16430707878317,168.6158827060608 102.82652043868438,168.9359400953872 103.82791625126265,168.27120364896837 103.62602193420753,167.8403521024993 102.48733798606554,167.80342182905952" stroke="#4dd2ff" stroke-linecap="round" stroke-linejoin="round" stroke-width="0.5"><title>2022-04-27 10.1km</title></polyline><polyline fill="none" points="126.28588908544043,163.55843790309154 127.95074053521967,163.42248552314413 131.19125496427296,162.44815534003283 131.9344922185992,163.03728622369817 133.43583147245226,163.33185051215696 134.37231041293126,163.96629406030843 135.66554323554737,164.01161132012203 136.06689135287888,164.46478291725361 138.237144135579,163.08260385660105 138.98038138996344,163.5131204612917 139.78307762468467,165.12187850055489 139.5601064483635,168.06743237263436 140.33307319291634,169.92535758035228 142.3398137796903,172.6668742745387 143.91547675890615,173.9583094760601 148.98435483372305,180.52854042113904 150.91677169507602,186.59999999999854 151.76406216504984,186.41876712995872 151.71946792979725,185.73914127528406 149.80191581347026,180.84571430567303 149.1478670296492,178.26298675115686 149.05867855908582,177.31144064754335 150.5748825580231,176.47316719475202 148.7316541672335,168.36198353123473 147.00734373705927,164.69136803335277 143.75196456298,160.77138137505244 141.07631044724258,158.39213231409667 139.47091797785833,157.19115897425945 135.0114944516681,155.01577849286696 129.03586692659883,154.1999999999971 123.84807089110836,154.60788998367207 122.80753873504,155.01577849286696 122.95618618594017,156.14879439338256 122.42105536273448,158.16553454913083 121.49944116733968,159.27585924994492 120.84539238346042,161.1565884093361 120.23593783495016,161.9723166117692 121.18728152051335,161.99497564430203" stroke="#4dd2ff" stroke-linecap="round" stroke-linejoin="round" stroke-width="0.5"><title>2022-04-25 5.0km</title></polyline><polyline fill="none" points="174.40690345168696,167.7140348255998 175.82511255628197,167.60285586482132 176.97588794396142,167.09637138990365 177.4702351175365,167.466970195459 178.22391195595264,167.59050263456447 178.66963481737184,167.84991994925804 179.3827913957066,167.83756676861594 179.71505752875237,168.15874865956357 181.0036018008832,167.3804973405131 181.66813406703295,168.45522276299744 181.49794897445827,169.91286632466654 181.91935967982863,171.06166276323347 182.77028514255653,172.35866522006108 183.96968484239187,173.42095162644546 186.72506253124448,176.9658909752725 187.851525762846,180.31301557648476 188.19999999998254,180.18950867890817 188.1756878439046,179.7078294096791 187.67323661828414,178.12690684928748 187.17078539266367,177.23762005842218 186.73316658326075,175.65663402695282 186.69264632315026,175.1625675609539 187.55977988993982,174.74260794544534 186.4738369184488,170.14756841589406 185.6229114556918,168.2946328009857 184.61800900447997,167.00989801405012 183.40240120058297,165.70042918062245 181.54657328661415,164.19327017301111 179.6988494246907,163.25436556816203 176.93536768382182,162.64901158034263 175.13626813405426,162.58724043033726 173.27233616806916,162.84667884358714 173.03731865930604,162.2783837498755 170.92216108052526,160.96881419848432 168.92856428213418,160.48698442351088 165.52486243119347,160.6970132509523 164.59289644821547,160.96881419848432 163.34487243619515,160.90704136132263 161.4971485742717,162.40192660812318 160.05462731362786,163.21730325027602 159.0659329664777,163.41496868755712 156.40780390193686,163.26671966914364 155.95397698847228,163.0814078937765 155.79999999998836,163.3902605426265 158.61210605301312,163.6744036101045 159.90065032514394,163.56321734872108 161.16488244119682,162.92080390356932 163.35297648821143,161.05529606630807 163.71765882940963,160.90704136132263 164.71445722860517,161.00587787102995 166.8863431715581,160.7711409012045 169.0339169584622,160.82055928507543 170.14417208600207,160.9935233159922 171.15717858928838,161.47534912350238 171.48944472233416,161.1417778125542 169.82001000497257,160.5981762450283 167.5832916458021,160.56111232684634 164.9818909454334,160.79585009810762 164.1714857428742,161.01823242356477 165.8814407203463,160.9441050710593 166.9673836918082,160.7093678655474 167.60760380188003,160.8699776292633 169.13116558277397,160.79585009810762 170.54937468731077,161.21590492686664 170.99509754875908,161.66066573693388 170.53316658327822,162.6984284557111 170.3386693346547,164.2797475080297 171.96758379190578,164.7986089653714 171.12476238119416,166.84930427927247 171.93516758375335,166.57752931155483 173.36958479238092,166.61458960510936 174.41500750373234,166.8863644091034 174.24482241118676,167.466970195459" stroke="#4dd2ff" stroke-linecap="round" stroke-linejoin="round" stroke-width="0.5"><title>2022-04-22 10.1km</title></polyline><polyline fill="none" points="28.635836177505553,208.17389970067234 29.925938566564582,208.15985301548426 30.018088737211656,207.89296546062906 31.381911262811627,207.5137024469659 31.98088737204671,207.9351056685373 32.837883959087776,208.0615261400526 33.427645051211584,208.41269291763456 34.118771331064636,208.35650635170168 34.45051194541156,208.74981136573115 35.980204778170446,207.87891871902684 36.78191126280581,209.1571606563375 36.616040955646895,210.77248793914987 37.08600682596443,212.07876881248376 38.09965870308224,213.52548152922463 39.35290102392901,214.6491212500514 42.532081911253044,218.7362085278619 43.75767918091151,222.38769967967528 44.20000000001164,222.38769967967528 43.98805460752919,221.10969945396573 43.1955631399469,219.36821101871828 42.54129692836432,217.1210651131878 42.52286689419998,216.65758229168932 43.33378839591751,216.29241184552302 43.481228668941185,216.05364552324681 42.403071672364604,211.4186084089124 41.82252559729386,209.83138875290751 41.29726962459972,208.86218382075822 39.2976109215233,206.43208922543272 36.55153583621723,204.11429029211286 34.4412969283585,203.06071993436126 32.20204778158222,202.55500052626667 29.59419795224676,202.37237873035338 27.189078498311574,202.6252395515803 26.875767918128986,201.9930857846848 24.553583617758704,200.5180381115715 22.314334471011534,200.01230032032618 15.744027303764597,200.5180381115715 13.550853242340963,202.35833088016443 11.827645051205764,203.15905383917925 11.799999999988358,203.56643568645086 13.467918088746956,202.75166961942887 16.204778156999964,200.40565225171304 18.75733788398793,200.5039898889445 19.853924914699746,200.22302484435568 20.79385665533482,200.40565225171304 22.839590443705674,200.36350750772908 23.91774744031136,200.7006647486669 24.59965870308224,201.19234947873701 24.083617747441167,202.45666577232987 23.91774744031136,204.38119226363415 25.751535836199764,204.929040488365 24.765529010241153,207.21871868144808 26.29522184302914,206.75517025102454 29.23481228671153,207.3591872963334 30.792150170658715,206.85349896263506" stroke="#4dd2ff" stroke-linecap="round" stroke-linejoin="round" stroke-width="0.5"><title>2022-04-21 8.1km</title></polyline><polyline fill="none" points="64.29488054607646,208.15986446339957 65.8061433447001,208.0615376669557 66.18395904434146,207.9070238504828 66.34061433444731,207.59799519357693 66.23924914674717,208.0755843606421 67.36348122864729,207.51371441390074 69.34470989761758,208.34247100444554 70.19249146757647,208.32842436437204 70.45051194538246,208.693636089778 71.9064846416004,207.79464995138187 72.7266211604001,208.9886133992186 72.57918088734732,210.82868186919586 73.1505119453941,212.16305239312715 73.83242320819409,213.23053048764632 75.47269624573528,214.80362641260945 78.61501706484705,218.83452327689156 79.80375426620594,222.44387495562478 80.19999999998254,222.33152440372214 80.06177474404103,221.64337333674484 79.08498293513549,219.28394686443062 78.50443686006474,216.81208140614763 78.60580204776488,216.55927206153137 79.41672354948241,216.23623656956988 79.10341296927072,214.31203773578454 78.25563139931182,210.927004776393 77.27883959040628,208.87624123751084 75.16860068257665,206.30567874648114 72.54232081910595,204.1423999592953 70.54266211602953,203.11692625262003 68.70887372014113,202.59715986600713 65.71399317405303,202.34429914631255 63.02320819112356,202.6112076569516 63.00477815698832,202.45668180123903 62.87576791807078,202.00715009827036 60.41535836175899,200.44781461299135 58.166894197958754,199.95612504437304 53.93720136518823,200.23709093537764 52.94197952214745,200.50400748649554 52.2508532423235,200.30733223177594 51.83617747441167,200.40566992825916 49.560068259364925,202.21786844374583 47.818430034123594,203.06073547812048 47.79999999998836,203.48216518684785 49.458703071664786,202.65335101288292 52.17713310581166,200.40566992825916 53.34744027303532,200.56020031484877 55.82627986348234,200.2932839781206 58.22218430030625,200.2932839781206 59.632081911258865,200.546152112016 60.62730375424144,201.248558798663 60.055972696252866,202.44263397926989" stroke="#4dd2ff" stroke-linecap="round" stroke-linejoin="round" stroke-width="0.5"><title>2022-04-19 7.2km</title></polyline><polyline fill="none" points="88.04501831246307,203.16030606724235 88.09183938958449,202.898614012709 90.38607216771925,202.75587264851492 92.69591197156115,201.89942085169605 96.25431383156683,203.46957774998737 97.67455317039276,203.37441731816944 97.98669368441915,203.99295875870303 100.34335456538247,202.47038940409402 100.87399343925063,202.898614012709 101.8416290328023,204.6590766987356 101.51388149306877,207.5851932912483 102.3098398038419,209.55968641814252 103.46475970576284,211.3914156807441 106.1491681264597,213.9367586802764 111.61162712209625,221.00158311891573 113.62493343756068,227.281073469283 113.85903882310959,227.281073469283 114.28042851708597,227.09079077201022 114.2180004142574,225.83016018461058 112.11105194449192,220.73993046590476 111.4399498393177,217.71898981011327 113.0786875380436,216.5058344861609 111.33070065942593,208.86980701725406 109.55149972939398,204.30222826803947 106.03991894650972,200.13891715995123 101.35781123605557,196.14200085435004 99.75028758874396,195.3806681745191 98.79825902095763,195.0 98.64218876394443,196.8795372224631 99.37571897194721,197.83119026802888 102.45030303520616,200.376824592895 104.35436017077882,203.0413552050013 105.82142058672616,205.4679291627399 106.50812971760752,208.13234528471367 110.98734609398525,207.4900361648688 111.86133953323588,210.03546297495632 113.15672266652109,216.5771969079069 111.70526927622268,217.62384082181234 112.86018917820184,222.0719743194495 114.62378308246844,226.99564930881024 113.78100369457388,227.40000000000146 113.20354374364251,226.61508269191836 111.5960200963309,221.92925605136406 110.62838450283743,220.0501161567372 106.39888053765753,214.50766922874027 103.2930824230425,211.48656967385614 101.31099015893415,208.03718859783112 101.20174097904237,207.10940689522977 101.66995175008196,204.96834446927824 104.16707586229313,203.44578764916514 105.79020653531188,205.4441394631067 106.60177187179215,208.1799235995859 110.62838450283743,207.20456432729407 109.17693111259723,203.9691687630475 105.00985525018768,199.2110736065879 101.31099015893415,196.21337554228376 98.81386604666477,195.02379179670243 98.72022389242193,197.16503393877065 100.12485620559892,198.54492503590882 98.81386604666477,199.6393099956549 97.19073537364602,199.2110736065879 96.62888244836358,199.5917282510709 95.75488900911296,200.66231288194103 95.97338736895472,202.73208240440727 92.05602391780121,203.37441731816944 91.19763750419952,204.23085845290188 88.7629414947587,205.63445692569076 86.95252651331248,207.94203183447098 85.37621691747336,207.0856175252993 87.68605672131525,201.51877362137748 89.71497006254504,201.54256410912058 91.75949042948196,200.75747549200605 92.66469792014686,201.89942085169605 90.69821268174564,203.0889355642139 87.62362861848669,203.18409622530453" stroke="#4dd2ff" stroke-linecap="round" stroke-linejoin="round" stroke-width="0.5"><title>2022-04-10 10.4km</title></polyline><polyline fill="none" points="122.59626983292401,203.22100822642824 122.76972987042973,202.9565986204252 124.70932847104268,203.07678487735393 127.54776544764172,201.99510422095773 128.50968020077562,202.71622574450157 131.0800425740308,203.58156583891832 132.51503015658818,203.43734292421868 132.73579747695476,204.11038170610846 135.25885256723268,202.66815111142205 136.69384014984826,204.6151583093888 136.4257655465044,207.66780955261493 137.18268207355868,209.61473543889588 138.90151335386327,212.25865816976875 141.3457229725318,214.49392910977622 146.62836956779938,221.31965948038123 148.56796816841234,227.37596764136833 149.403730167076,227.40000000000146 146.53375500184484,218.48366383469693 146.5179859075579,217.73860298845102 148.1895099048852,216.89739968592767 146.18683492700802,207.860099938247 144.57838730694493,204.56708443885873 141.15649384079734,200.3605460183171 136.2523055090569,196.20193702516553 133.69771223014686,195.0 133.6188667585957,197.33174682500248 137.40344939404167,200.3605460183171 139.2799716173904,203.65367723107192 136.83576199866366,204.92763799709792 135.35346713312902,202.76430035837257 132.92502660874743,204.1824927797279 130.02351325494237,203.05274763563648 128.76198570983252,202.9565986204252 127.15353808976943,203.4133057549043 125.1666322061792,204.83149048777705" stroke="#4dd2ff" stroke-linecap="round" stroke-linejoin="round" stroke-width="0.5"><title>2022-04-09 5.2km</title></polyline><polyline fill="none" points="158.57842189370422,203.20305554281367 160.34587250847835,203.058725109222 160.39321493566968,202.81817400013824 163.659842411289,201.88002005964518 164.55934852780774,202.7219534213291 166.0111829614034,202.91439450172766 167.10005878657103,203.49171588832542 168.45720836584223,203.49171588832542 168.851728592359,204.06903449277888 171.2661923787091,202.52951203171688 171.97632878640434,203.17900048266893 172.78115004854044,204.69445984140475 172.4970954853925,207.653158578687 173.27035512943985,209.7217988447519 175.22717545297928,212.48794803642522 177.42070791241713,214.46029367287701 182.64415571157588,221.31514488198445 184.69566088955617,227.40000000000146 185.421578106354,227.2797489394943 185.27955082478002,225.88482781693165 183.6856891096104,222.1569416761995 182.54947085719323,217.85169013182895 182.80196380219422,217.41875124823855 184.1748941905098,216.76933998961613 183.33851131028496,212.27146909884323 181.57106069545262,206.13773664641485 180.5295272974181,204.09308937424066 178.6831726373057,201.88002005964518 174.21720367309172,197.57403977963259 172.41819144017063,196.20282921096077 169.76701551792212,195.0 169.56186500011245,196.6117883914194 169.8459195632022,197.50187119364273 173.22301270224852,200.24424689855368 175.36920273455326,203.49171588832542 172.97051975724753,204.81473357263894 171.21884995151777,202.69789826455963 169.05687911016867,204.0209247153325 165.83759406168247,202.93844961508876 162.94970600359375,203.371440828887" stroke="#4dd2ff" stroke-linecap="round" stroke-linejoin="round" stroke-width="0.5"><title>2022-04-07 5.0km</title></polyline><polyline fill="none" points="14.572605408262461,243.17970290628 14.430683445418254,243.46815111029719 14.824911119940225,243.7085240826491 16.669896636274643,243.7085240826491 19.871025352855213,242.77106676087715 20.832940878521185,243.51622574334033 22.52023532515159,243.78063588022633 23.13523049734067,244.18926857945917 24.585988339269534,244.2613800874533 24.885601371875964,244.8382705877375 27.377120274410117,243.3479644430554 28.134037409326993,243.97293379480107 28.985569186101202,245.67956425068405 28.717494367505424,248.75624501367565 30.089406674611382,251.52038295530656 31.461318981659133,253.3230472297655 33.33784271212062,254.81322920280945 38.90433747530915,262.0956259002123 40.843937633617315,268.1999999999971 41.569316554639954,268.1279029095167 41.52200923371129,266.9022457297251 39.06202854507137,261.25444758989033 38.5889553357847,258.46650007842254 40.16586603358155,257.76950305629 40.27624978241511,257.0965365639786 38.49434069386916,249.6936554675267 37.3274267775123,246.2804846759609 36.01859089836944,244.42964010391734 35.13552090758458,244.93441873419943 35.6401323308819,244.09311983453517 33.148613428347744,240.92016792865616 28.638648832624312,237.14616865690186 25.86328600445995,235.79999999999563 25.70559493469773,237.43463139962114 26.00520796730416,238.3240538135724 29.34825864661252,240.89613009328605 31.66631737240823,243.99697101239144 30.184021316468716,245.17478876240784 29.017107400111854,245.63149048635387 27.629425986029673,243.58833765674353 27.045969027851243,243.68448680709116 26.572895818506368,243.15566552461678 25.815978683589492,240.60767569175368 27.282505632494576,239.23750779247348 29.379796860623173,240.9922814059537 31.650548265432008,244.09311983453517 29.300951325683855,245.55937980372983 29.032876507088076,245.60745359690918 27.424427595338784,243.44411378647055 25.07483065559063,244.8382705877375 24.522911911364645,244.3815658375679 23.087923176412005,244.23734292290465 19.69756517611677,242.96336629717553 17.978732515475713,243.80467313648114 15.707981110666879,243.9488965724231" stroke="#4dd2ff" stroke-linecap="round" stroke-linejoin="round" stroke-width="0.5"><title>2022-04-03 6.2km</title></polyline><polyline fill="none" points="77.91803278680891,257.248112547808 78.606557377032,254.39921011157276 78.39016393444035,253.22964495429187 80.19999999995343,252.3299732154992 80.19999999995343,251.4602853825636 74.77049180329777,247.98148339973704 71.6819672131096,247.1417604341259 65.05245901632588,247.23173097778636 59.07213114754995,248.16142342088278 56.45573770487681,247.9514933751634 51.77377049176721,251.73018904510536 47.97704918024829,253.61950102448463 47.79999999998836,254.42919884127332 51.10491803276818,253.01972203339392 56.554098360589705,248.22140337976452 57.655737704830244,247.86152326516458 62.39672131143743,247.92150334449252 65.22950819670223,247.29171131001203 72.01639344258001,247.8915133077826 75.39999999996508,249.33102827308176 76.12786885240348,248.82120164323715 75.47868852451211,248.16142342088278 70.12786885240348,247.05178983643418 60.86229508195538,247.7115729614743 59.052459016325884,248.25139335010317 56.65245901636081,247.9514933751634 50.71147540980019,252.5998753063177 47.79999999998836,253.76944539591204 48.07540983601939,254.42919884127332 51.63606557372259,252.6598534823861 56.436065573769156,248.37135317148932 57.891803278645966,247.83153321652208 58.77704918029485,247.98148339973704 61.98360655736178,247.2017408025713 70.85573770484189,246.75188745217747 76.14754098362755,248.3113732727652" stroke="#4dd2ff" stroke-linecap="round" stroke-linejoin="round" stroke-width="0.5"><title>2022-03-24 5.1km</title></polyline><polyline fill="none" points="103.0297297379002,267.43606837131665 102.13512450034614,267.23598997467343 100.85882102808682,268.1999999999971 100.28627367605804,267.90897918734845 100.0,267.181423062495 99.63022983513656,263.88915850172634 99.20081932109315,262.8705330578523 98.68791231827345,262.5067354786079 95.71782292949501,262.4339757873531 94.20295806054492,260.97876968008495 108.86255588685162,241.38577963197167 101.83692275447538,235.8000000000029 91.13744411317748,257.6317068519711 97.73366673151031,264.3620878472866 98.13922110587009,264.03467548662593" stroke="#4dd2ff" stroke-linecap="round" stroke-linejoin="round" stroke-width="0.5"><title>2021-10-26 5.0km</title></polyline></svg>