<?xml version="1.0" encoding="utf-8" ?>
<svg baseProfile="full" height="300mm" version="1.1" viewBox="0,0,200,300" width="200mm" xmlns="http://www.w3.org/2000/svg" xmlns:ev="http://www.w3.org/2001/xml-events" xmlns:xlink="http://www.w3.org/1999/xlink"><defs /><rect fill="#222222" height="300" width="200" x="0" y="0" /><text fill="#FFFFFF" style="font-size:12px; font-family:Arial; font-weight:bold;" x="10" y="20">Over 5km Runs</text><text fill="#FFFFFF" style="font-size:4px; font-family:Arial" x="10" y="280">ATHLETE</text><text fill="#FFFFFF" style="font-size:9px; font-family:Arial" x="10" y="290">Wenz</text><text fill="#FFFFFF" style="font-size:4px; font-family:Arial" x="120" y="280">STATISTICS</text><text fill="#FFFFFF" style="font-size:3px; font-family:Arial" x="120" y="285">Number: 23</text><text fill="#FFFFFF" style="font-size:3px; font-family:Arial" x="120" y="290">Weekly: 2.3</text><text fill="#FFFFFF" style="font-size:3px; font-family:Arial" x="141" y="285">Total: 166.1 km</text><text fill="#FFFFFF" style="font-size:3px; font-family:Arial" x="141" y="290">Avg: 7.2 km</text><text fill="#FFFFFF" style="font-size:3px; font-family:Arial" x="167" y="285">Min: 5.0 km</text><text fill="#FFFFFF" style="font-size:3px; font-family:Arial" x="167" y="290">Max: 15.0 km</text><polyline fill="none" points="19.152774570393376,42.34094125265983 21.425052680191584,42.2398114652533 24.443699512339663,41.253791780851316 28.042855350591708,42.92243595429318 29.286803220922593,42.84658897155896 29.850726255506743,43.655621098092524 32.670341428369284,41.911139095063845 34.11332095798571,44.18654560614959 33.66549972462235,46.7905714902663 34.64407204929739,49.36926249933458 35.788504090043716,51.315886418451555 38.97301063814666,54.32424601166713 44.54589709738502,61.50357007647108 46.602557576377876,67.82305887760594 47.51478601468261,68.0 47.34892629866954,66.81196198025282 44.87761652946938,60.821046310877136 44.47955321095651,57.71172456552449 45.988876627001446,57.130298157659126 46.15473634307273,56.70054647856887 43.36829311342444,45.779305698291864 42.157517186307814,43.52921017099288 38.50860343326349,39.307012295415916 33.69867166783661,35.31222766872088 31.044916211045347,33.82047179342044 26.848665394994896,32.4551204160889 21.226021020964254,32.0 16.31657342595281,32.4804048353908 15.13896944199223,32.834386172798986 15.404344987648074,33.79518764319073 14.757492095115595,36.57641372722719 13.579888111096807,37.94172041366255 12.485213985259179,40.72285490636568 15.28824318642728,39.96436977331177" stroke="#4dd2ff" stroke-linecap="round" stroke-linejoin="round" stroke-width="0.5"><title>2022-05-24 5.1km</title></polyline><polyline fill="none" points="94.60403073800262,56.97026851636474 94.25953313033096,56.588357775937766 94.57271277369,55.3710091021203 92.22386544878827,54.893614062311826 90.54835435701534,54.98909322365944 88.38741481804755,55.65744520577573 88.01159924606327,55.394878803766915 88.68493547919206,53.60463787827757 90.360446570965,50.859549426422745 90.9085109467851,49.09311116275785 90.70494417869486,48.114397580429795 92.17688850226114,47.49374576750415 92.17688850226114,47.040190470164816 91.91068580548745,46.39566154432396 89.78106423083227,44.96336253001937 86.22647527907975,43.411685788305476 83.65840220387327,43.02973148363526 77.08162969409022,43.578790410661895 75.1555748876417,44.00848693220178 73.80890242138412,43.72202275708696 72.82238654489629,44.05623089433357 68.6257793243858,47.46987447916763 66.01072930259397,48.66343302137102 60.29520081193186,48.47246445997007 58.88589241699083,48.06665524838172 58.66666666668607,48.520206629138556 59.29302595334593,48.854401275988494 62.42482238658704,49.18859498326492 66.9972451790818,48.97375627924339 69.5809772365028,47.46987447916763 73.02595331304474,44.366566180367954 73.96549224306364,43.936870953162725 83.06336088158423,43.79363886563806 86.30477018997772,44.10397483724955 88.07423517468851,45.321438901628426 87.19733217341127,47.016319090820616 86.80585761927068,50.45374836404517 89.98463099898072,51.432442685480055 88.13687110343017,55.394878803766915 91.20603160792962,54.67878566890431 92.81890677107731,54.84587445294892 94.66666666668607,55.347139395693375 94.57271277369,56.3257934301364" stroke="#4dd2ff" stroke-linecap="round" stroke-linejoin="round" stroke-width="0.5"><title>2022-05-22 5.0km</title></polyline><polyline fill="none" points="112.56997754989425,41.816927395739185 112.66879948519636,42.34415744090802 113.95348464371637,42.39436971022951 115.73227947863052,42.14330816199072 117.9393026996986,41.26458877338155 118.66399689170066,41.89224610970268 120.39338075893465,42.16841433953232 121.64512527239276,42.89649129427562 122.94628075341461,42.796067138784565 123.34156849450665,43.39861086189194 125.84505752142286,41.816927395739185 126.66857364872703,42.46968807635858 127.47561945341295,44.051363285281695 127.04739106725901,47.13933817281213 128.11796203267295,49.54941192699334 129.91322719008895,52.110064393309585 132.1367207337753,53.99286363541614 137.96721491473727,61.52377712306043 140.07541620061966,68.0 140.84952136024367,67.84939397486596 140.7342291023233,67.1214622960324 138.08250717254123,60.695398840281996 137.67074910894735,58.0094072705906 137.83545233443147,57.557552552178095 139.26837039587554,56.98018025817146 139.36719233111944,56.277288649791444 136.84723298170138,46.18533781183214 135.66136975842528,43.77519921435305 131.09909041336505,38.40243137697689 127.06386138981907,35.26402558938571 122.61687430256279,33.104756662294676 117.39578205574071,32.100432827181066 113.9040736760362,32.0 109.86884465249022,32.45194708714553 108.66651110671228,32.92900057353836 108.79827368707629,33.90820992175577 108.15593110775808,36.69514839952899 107.29947433545021,37.52368569718237 105.81714530638419,40.8628864245984 108.66651110671228,39.95905142107222 111.08764852082822,40.18501078453846 112.71821045281831,40.83777998499136 112.35586335678818,41.79182114761352" stroke="#4dd2ff" stroke-linecap="round" stroke-linejoin="round" stroke-width="0.5"><title>2022-05-16 5.4km</title></polyline><polyline fill="none" points="172.99251123316935,46.89825639218907 173.81028457314824,46.96674838292529 175.5896155766386,46.39141352342995 176.0119820269756,46.76127220438502 176.9555666500528,46.939351594875916 177.43185222172178,47.227017320663435 178.23165252123727,47.199620637133194 178.51023464804166,47.56947493644839 179.95706440339563,46.73387533384084 180.77483774343273,47.96672361713718 180.59510733903153,49.74746513971695 181.3140289565781,51.26790765370606 182.2576135796553,52.55546310538921 183.32700948580168,53.445779792415124 186.44533200204023,57.417820392707654 187.5956065901555,60.9239813233944 188.0,60.89659013939672 187.9820269595948,60.499416735859995 186.69695456817863,57.08910856791044 186.34648027963703,55.623582412528776 186.40938592117163,55.33595208848783 187.25411882181652,54.925049522145855 187.28107838248252,54.66480995016536 185.96904643037124,49.3091330774223 185.16025961059495,47.72015574280522 183.03045431853388,45.19963302212636 180.15476784826024,42.89820485616656 178.51023464804166,42.0762474089388 176.8926610085182,41.65156551412656 173.98102845734684,41.377575791815616 171.36595107341418,41.61046712594543 171.17723414881038,41.08988539901475 169.9370943584945,40.185707694236044 168.71492760861292,39.500716605798516 166.95356964555685,39.07601867660924 162.81977034450392,39.33631772107765 161.82226660012384,39.59661577226143 160.45631552673876,39.51441649499611 157.7333999002003,41.61046712594543 156.25062406391953,42.268038365789835 152.6650024962728,42.14474424113723 152.1797304044012,41.898155323309766 152.107838242664,42.02144989364024 152.0,42.28173769923524 152.5212181727693,42.418730882189266 156.11582626064774,42.59682160878947 157.6615077384049,41.99405111948363 160.83374937597546,39.52811638140702 162.60409385923413,39.651415235421155 163.9161258113163,39.445917021566856 166.74687968051876,39.47331681918513 167.82526210686774,39.61031564218865 169.06540189718362,40.185707694236044 169.4608087868546,39.81581336077579 167.59161258116364,39.199318347786175 166.47728407391696,39.07601867660924 162.69395906143473,39.30891786839493 161.37294058912084,39.651415235421155 163.30504243637552,39.59661577226143 164.4283574638248,39.33631772107765 166.75586620072136,39.43221711865044 167.98701947080554,39.692514803889935 169.1732401397894,40.19940744587075 169.712431352993,39.80211353213599 170.6020968547382,40.71999596833848 171.22216674988158,41.02138750762242 171.25811283077928,41.555669236495305 170.503245132335,41.85705708369278 170.5841238143039,42.268038365789835 172.34548177735996,43.10369267053102 173.98102845734684,42.98040005615985 174.04393409888144,44.8708623233033 173.63954068900784,45.117440495956544 173.62156764854444,45.54210081521887" stroke="#4dd2ff" stroke-linecap="round" stroke-linejoin="round" stroke-width="0.5"><title>2022-05-14 9.9km</title></polyline><polyline fill="none" points="27.494908350287005,85.8008531813175 28.655804480658844,85.87536201423791 31.087576374731725,85.01850682265649 32.21181262723985,85.70771705603693 32.908350305457134,85.76359874245827 33.72708757634973,86.24790528116864 34.48472505089012,86.17339674745745 35.21792260691291,86.65770114681072 37.026476578379516,85.44693540775916 38.17515274946345,87.21651077354909 37.91853360488312,89.47034210117272 38.5784114052949,91.03495313668827 39.397148676158395,92.45053086032567 41.535641547845444,94.44347867553734 45.88594704680145,100.03095455563016 47.58452138490975,104.89178486029414 47.951120162935695,104.7614210873653 48.0,104.05372883816744 46.58248472501873,100.60830788110616 45.81262729119044,97.3676330245653 45.92260692460695,97.06963425122376 47.10794297349639,96.47363383307675 45.739307535637636,90.51341905681329 44.21181262723985,86.84397139638895 40.949083503044676,82.98810096749366 37.979633401177125,80.62234267650638 34.82688391036936,79.0948131425539 31.686354378820397,78.44281116970524 29.107942973525496,78.23789531741204 25.454175152699463,78.57321193085954 25.14867617105483,77.9025774918482 23.498981670069043,76.69169747449632 21.751527494896436,75.70435283843835 20.38289205703768,75.27587925469561 18.696537678159075,75.10821513971314 12.916496944963,75.55531877290923 12.0,75.89064508357114 19.05091649692622,75.57394804418436 21.348268839064986,76.132824442946 22.093686354346573,76.74758459250006 21.360488798323786,78.23789531741204 21.067209775937954,80.8458814741025 23.413441955199232,81.77728733243566 22.13034623215208,84.70184094453725 24.097759674099507,84.10576106506778 26.49287169042509,84.34791897802643 27.18940936861327,84.60870371587225 27.067209775967058,85.70771705603693" stroke="#4dd2ff" stroke-linecap="round" stroke-linejoin="round" stroke-width="0.5"><title>2022-05-12 7.0km</title></polyline><polyline fill="none" points="71.70636132312939,83.8015242961119 73.2452926208789,83.8015242961119 75.78727735369466,82.92183272743569 76.39185750635806,83.46640457330068 78.52162849871092,84.19947756855254 79.79949109413428,84.24136729840393 80.39033078879584,84.80687700471753 82.56132315521245,83.48734958749992 83.6468193383771,85.24671576781839 83.4819338422385,88.32553518177156 84.40254452926456,90.18953814724227 85.77659033078817,92.13728094078397 87.53536895674188,93.624242894708 90.21475826969254,96.89129612372199 90.48956743002054,97.68710128517705 91.80865139947855,99.0483328830378 92.66055979640805,100.53519633175165 93.89720101779676,104.76531164444168 94.66666666665697,104.5559040306398 92.38575063610915,97.6661591218799 92.262086513947,96.66093033875222 93.67735368953436,95.78134720756498 92.1796437659068,89.20518118103064 91.17659033078235,86.50338772896066 90.40712468189304,85.03726896907756 87.31552162847947,81.30904558285692 84.82849872770021,79.06785840748489 82.02544529258739,77.20365668784507 80.17048346056254,76.32390947320528 78.16437659028452,75.80024689406855 73.53384223917965,75.2346883555656 69.10941475827713,75.65362090073177 67.94147582695587,76.09349826231482 66.05903307889821,75.98876572539302 59.46361323152087,76.80567672412872 59.35368956741877,77.66447369605885 58.955216284957714,77.62258132493298 58.721628498722566,77.93677369857323 58.666666666656965,79.13069608722435 58.941475826955866,79.46582973990735 61.01628498727223,79.3820464277378 64.6025445292471,79.96852820004278 66.12773536893656,80.65973462694092 65.70178117050091,82.60765536929102 68.05139949108707,81.79078980931081 69.70025445293868,81.93740717573382 71.37659033076488,82.44009372464643 71.10178117046598,83.48734958749992" stroke="#4dd2ff" stroke-linecap="round" stroke-linejoin="round" stroke-width="0.5"><title>2022-05-10 6.0km</title></polyline><polyline fill="none" points="126.19339818740264,87.0169318780354 127.09137773344992,87.00324374433694 128.85141764362925,86.37358662425686 130.78207366756396,87.23594164299357 131.5812754635408,87.23594164299357 131.82372994095203,87.55076694744639 133.1527396690799,86.71579230232601 133.37723455557716,86.82529775650619 134.0596990105405,87.86559079797371 133.83520412404323,89.54918932125292 134.36501205619425,90.84950118621055 135.19115323855658,92.1087269323616 136.6548598985828,93.46373735282032 139.12430365014006,96.63900980676408 139.88758626423078,97.82969885129569 140.78556581027806,100.8815999502367 141.33333333334303,100.85422924703016 141.0280202876893,99.51305132977723 140.3006568554265,97.87075672332139 139.69901055959053,95.76308734901977 139.68105096864747,95.31143543439975 140.60596990105114,94.79134770499877 139.20512180923834,89.08380852176924 138.5226573543041,87.68764706109505 136.81649621683755,85.55228598801477 134.89481998834526,83.80014489178211 133.80826473765774,83.07463578442184 131.8686289182515,82.07533701304055 130.07266982621513,81.63728361821268 127.43260996090248,81.39087734651912 124.73867132287705,81.59621596812576 124.40641889083781,81.04864493596324 122.20636900304817,79.59756042750087 119.82672320608981,79.04997333980282 115.66009811256663,79.35114678244645 115.00457304395968,79.57018117762709 113.69352290680399,79.52911228214725 111.40367506444454,81.32243100187407 109.53587760869414,82.23960631038426 106.06069676560583,82.14378260171725 105.51292924254085,81.8973781608911 105.33333333334303,82.22591721736899 108.26074665333726,82.58183274170369 109.92200881347526,82.45863142438975 111.70000831459765,81.5140805936935 113.92699758874369,79.57018117762709 116.78257254508208,79.58387080393732 117.50993597737397,79.31007775496255 118.41689531886368,79.50173300470124 120.86837947950698,79.57018117762709 122.48474266234552,80.21359064313947 122.98761120808194,79.78921486896797 123.8496715723013,80.65165318713116 124.50519664087915,80.92544084754627 124.49621684543672,81.56883752097565 124.13702502704109,81.80155397114868 124.99908539120224,82.47232047062789 126.92974141513696,82.67765583458095 129.3632659848663,82.34911895532423 130.26124553088448,82.74610081848368 131.53637648621225,83.85489998269986 132.17394196393434,83.60850172704886 134.3560322607227,85.37433621258242 135.71198137523606,87.55076694744639 135.52340567056672,87.34544626160277 134.086638396926,88.08459783649596 133.79030514674378,89.39862529259699 133.93398187411367,89.93244171187325 135.19115323855658,92.1087269323616 136.49322358026984,93.27212135253649 139.51941465036361,97.07696681551533 140.96516171947587,100.95002666020082 141.22557578780106,100.8405438913178 141.25251517418656,100.41629650145114 139.86064687784528,97.02222234329383 139.56431362766307,95.55779139512015 139.64513178681955,95.32512189999761 140.57005071922322,94.83240740681867 139.41165710485075,89.93244171187325 138.70225326350192,88.09828575306528 136.06219339818927,84.92261546566806 134.1494969651394,83.38948030770916 131.7518915772962,82.07533701304055 128.3754884842201,81.43194512030459 124.67581275460543,81.55514829330059 124.46927745905123,81.03495560381998 122.97863141263952,79.89873145073943 121.22757129790261,79.26900870278041 120.02427870623069,79.07735279869303 116.2348050220171,79.32376743352143 114.70823979377747,79.62493966644979 117.90504697765573,79.41959510653396 117.86014800032717,81.28136316209566 117.59973393197288,82.71872283312769 118.1295418641239,82.89667954106699 117.7523904547852,83.00619113042194 117.81524902302772,84.01916499170693 121.30838945705909,84.40244847330177 122.4488234805176,84.82679552847185" stroke="#4dd2ff" stroke-linecap="round" stroke-linejoin="round" stroke-width="0.5"><title>2022-05-08 15.0km</title></polyline><polyline fill="none" points="164.9589041095751,83.65338318065915 165.9589041096042,83.69514553486079 168.9589041095751,82.73460714533576 171.8904109589057,84.00836265664839 172.94520547945285,83.96660042829171 173.5616438355937,84.55127009976422 175.13698630136787,83.50721480888024 175.86301369866123,83.4236899328389 176.9589041095751,85.21945998507726 176.61643835616997,87.45368873578263 177.328767123312,89.37466947127541 179.1506849314901,92.04727929507499 180.82191780823632,93.36267922202387 185.56164383562282,99.64713813987328 187.39726027398137,104.90825358001894 188.0,104.76211507795233 187.94520547945285,104.05229657569726 186.4109589041036,100.29435320444463 185.46575342467986,96.41100240186643 186.8904109589057,95.61761181907059 185.34246575343423,88.6438657646213 184.53424657532014,86.28437874100928 183.5205479451688,84.55127009976422 180.7397260274156,81.25201960702543 177.3698630136787,78.28678111764748 173.09589041094296,75.96882454364822 166.39726027395227,75.09174641998106 152.83561643835856,76.5744217878455 152.72602739726426,77.36795766592695 152.02739726024447,77.66031146304158 152.0,78.47472127802757" stroke="#4dd2ff" stroke-linecap="round" stroke-linejoin="round" stroke-width="0.5"><title>2022-05-05 5.1km</title></polyline><polyline fill="none" points="27.357575757574523,125.97335269133328 28.969696969696088,126.0842127142605 31.0545454545354,125.32666656207584 33.769696969684446,126.37983878925297 34.76363636361202,126.37983878925297 35.09090909094084,126.78632309149543 36.98181818181183,125.67772531043738 37.13939393940382,125.78858568958094 38.07272727272357,127.39604617813166 37.81818181820563,129.18823913353117 38.41212121210992,131.1282024763932 39.52727272728225,132.84642157004419 41.612121212121565,134.8232576126611 43.69696969696088,137.33581036054238 45.95151515153702,140.75351096277154 47.187878787866794,144.7437467406271 48.0,144.7437467406271 46.012121212115744,138.00088637014414 45.963636363623664,137.07716839206114 46.884848484856775,136.81852569670446 47.03030303027481,136.52293315478164 45.57575757577433,130.03813286998775 44.02424242423149,126.89718213504239 41.52727272728225,123.81155554766883 37.86666666666861,120.76278094841837 34.76363636361202,119.19216066984518 30.47272727274685,118.41607957685483 25.57575757574523,118.65629585274291 25.163636363635305,117.91716684613493 22.569696969672805,116.0693183530675 20.58181818178855,115.40408381080488 18.521212121238932,115.25625325936562 13.381818181806011,115.6627867043353 12.024242424260592,116.0693183530675 12.0,116.25410487230693 16.3515151515021,115.93996756871638 15.963636363652768,120.18996959969809 16.581818181817653,120.39322564772738 16.23030303028645,120.4117034479932 16.16969696970773,121.96382542519132 20.90909090905916,122.48119359950215 22.53333333329647,123.03551341543061 22.7030303030333,123.3126720710934 22.15757575756288,124.53216023866844 22.242424242402194,124.8277912999256 24.39999999999418,124.23652822755685 25.90303030301584,124.32891333306907 27.73333333330811,124.93865270305105 28.84848484848044,124.92017581178516 29.903030303044943,124.55063720780163" stroke="#4dd2ff" stroke-linecap="round" stroke-linejoin="round" stroke-width="0.5"><title>2022-05-04 7.1km</title></polyline><polyline fill="none" points="71.27830607324722,123.54098161141155 73.45555978189805,123.49923508376378 75.66020032964298,122.72692129913048 78.41257765941555,123.89582641914603 79.86408013181062,124.06281179186772 80.04209458598052,124.58463935293548 82.32889565103687,123.2278822457447 83.57499683019705,125.10646429446206 83.24635476098047,127.59031510802743 83.95841257766006,129.3644579262036 85.6563966020185,131.84820700663113 87.42284772408311,133.392693318252 91.7636617218377,138.92343582485046 92.42094586027088,140.02954901961493 93.84506149357185,144.80865755632112 94.66666666665697,144.7877885642447 94.46126537342207,143.5147721285175 92.73589450994041,139.65388925421576 92.1470774692425,137.1703266546465 92.10599721057224,136.37724374694517 93.35209838973242,135.85547537668754 93.53011284390232,135.52154224536935 91.29808545709238,126.73454127692094 90.09306453654426,124.35503554880415 88.75110942055471,122.62255413139792 83.67085076705553,118.09291809061688 80.06948142510373,116.15158507771412 75.87929504248314,115.23309230786981 71.40154684922891,115.19134244367888 67.89603144413559,115.85933825856773 65.8283250919194,115.83846345434722 59.44719158107182,116.61082841926691 59.40611132240156,117.40406213927781 59.15962977046729,117.71717904677644 58.76252060351544,117.57105794062227 58.666666666656965,118.23903846312896 58.76252060351544,119.3036235488762 59.323950805090135,119.9924669123211 61.56967161150533,121.3701399452475 65.22581463167444,122.39294599350978 65.99264612648403,124.16717751367105 66.02003296563635,125.98312429951329 69.29276023834245,126.8806495028839" stroke="#4dd2ff" stroke-linecap="round" stroke-linejoin="round" stroke-width="0.5"><title>2022-05-01 6.0km</title></polyline><polyline fill="none" points="113.52485180116491,122.35695284640678 113.42635658913059,122.08169806571823 115.64249886001926,122.30690656785737 117.15275877789827,121.75639617740671 117.2512539899908,122.45704534321703 117.23483812127961,121.75639617740671 118.54810761508998,121.25593007577118 119.56589147285558,121.98160526741412 121.0761513907346,122.15676761162467 122.15959872322856,122.78234540259291 123.6370269038016,122.70727623350831 123.98176014592173,123.38289712752885 126.29639762878651,121.93155883815052 126.73962608299917,122.03165167667612 128.0857273141737,124.10855993383302 127.79024167801253,127.48658979386528 128.6274509804207,129.3131900205044 129.84222526219673,131.31491294841544 132.58367533056298,133.86706305351981 138.09940720477607,140.7976383968853 140.6274509804207,147.9029545356534 141.33333333331393,147.7278283728374 141.2512539899908,146.72710272194672 138.32922936615068,138.64594867599226 138.49338805291336,137.47000952557573 140.02006383950356,136.59430295051425 137.95166438666638,127.78685468347248 136.1623347013374,123.55805750214495 132.74783401732566,119.40418802400382 128.0857273141737,115.52544995221979 123.19379844964715,113.14809920177504 120.041951664316,112.37232230011432 115.54400364798494,112.09704546434659 110.56999544001883,112.59754834969499 110.01185590511886,112.94789917333401 110.91472868219716,113.8237719231256 113.04879160964629,114.4493915467101 118.79434564523399,113.77372221754922 120.27177382580703,114.09904494447255 122.96397628821433,116.4263289132432 124.58914728678064,115.87579254426964 125.57409940718208,117.07695966814208 128.75877792976098,119.60437768041447 130.777929776581,122.88243755774602 128.16780665755505,124.38381023779948 127.74099407199537,126.5607684964416 127.98723210213939,128.03707487233623 130.31828545371536,131.84035988953838 132.97765617875848,134.2673955829814 138.32922936615068,141.3230453603319 140.56178750569234,147.87793652748223 141.30050159600796,147.75284641118924 141.23483812133782,146.72710272194672 139.39626082987525,142.2237378590653 138.34564523480367,137.99543051717774 138.54263565893052,137.52004971541464 140.00364797079237,136.59430295051425 138.16507067944622,128.5875575191967 136.11308709532022,123.38289712752885 132.46876424987568,119.07887914634921 127.92156862746924,115.35027828683815 123.85043319652323,113.32327396280016 117.4974920200184,112.24719654102955 115.36342909251107,112.12207065632538 109.27314181486145,113.02297422166885 105.6288189694751,113.17312418270012 105.33333333331393,115.4754009300741 108.10761513910256,116.8517417143521" stroke="#4dd2ff" stroke-linecap="round" stroke-linejoin="round" stroke-width="0.5"><title>2022-04-30 10.1km</title></polyline><polyline fill="none" points="164.53485714286217,124.49287956467742 166.5371428571525,124.61830998872028 168.9508571428305,123.74029384677851 172.0365714285581,125.09912521444494 173.25714285712456,124.97369536967017 173.61371428571874,125.4754138422577 175.83542857141583,124.28382852202776 177.01485714287264,126.22798701779539 176.64457142856554,128.52748246028204 177.59085714284447,130.82692711698473 179.1542857142631,133.04270755788457 180.81371428567218,134.4014175238117 185.5314285714121,140.44223640857672 187.1908571428212,145.56307136953546 187.41028571425704,145.9601868239115 188.0,145.81388130640698 187.80799999996088,144.18360591818782 185.5314285714121,137.99668759406632 185.61371428571874,137.3487120431164 186.79314285708824,136.88885597990884 186.9439999999886,136.57531659051892 185.27085714280838,129.30093769478844 183.74857142852852,125.93532031813083 179.8399999999674,121.3779755599171 176.63085714282352,118.78563540072355 173.55885714280885,117.238562936589 168.89600000000792,116.23504418042285 165.76914285714156,116.1514171807139 162.50514285714598,116.46501808307221 161.1611428571632,116.90405775930412 159.6799999999639,116.820431297092 153.26171428573434,117.57306703903305 152.87771428571432,117.6775993506235 152.64457142856554,118.43022889572603 152.0,118.34660365945456 152.13714285712922,116.67408482652536 157.45828571429593,116.25595091981813 157.52685714288964,114.72974790830631 157.9931428571581,114.0398131760885 158.88457142855623,114.56249142342858 158.10285714286147,116.0677901138697 157.78742857140605,119.05741602703347 160.69485714289476,119.99818963943835 158.88457142855623,123.86572517758032 159.37828571430873,125.45450895414251 159.2960000000021,126.95965016755508 161.75085714287707,127.60769037779392 163.71199999999953,128.9037586975246 165.33028571426985,126.85512717521488 163.821714285732,126.06074900444219 164.10971428573248,124.78555031911674 164.48000000001048,124.66012009650149" stroke="#4dd2ff" stroke-linecap="round" stroke-linejoin="round" stroke-width="0.5"><title>2022-04-28 7.1km</title></polyline><polyline fill="none" points="32.6919242273143,166.8960666610874 32.8175473579613,167.03284579491083 33.02392821534886,166.86871080136189 34.12761714856606,166.8960666610874 35.518444665998686,166.3899814777942 36.28115653042914,166.8960666610874 36.84646061816602,166.9234225097971 37.43868394815945,167.25169183779508 38.28215353938867,167.25169183779508 38.58723828513757,167.62099294087966 39.97806580262841,166.7456092966495 40.695912263239734,168.07235823681913 40.49850448654615,169.54953284071598 40.98305084745516,170.86255004256964 41.638085742801195,171.94303479974042 43.199401794641744,173.40644885537768 46.277168494532816,177.33152571275423 47.36291126621654,180.6820221665257 47.62313060820452,180.98287501040977 48.0,180.84612388245296 47.89232303091558,180.20338990413074 46.86939182455535,177.89223251792646 46.25922233302845,175.74511072854148 46.30408773678937,175.19806251303453 47.20139581258991,174.8151261484236 45.86440677967039,169.23495204470237 45.09272183451685,167.75777061914414 43.09172482552822,165.33676512296006 41.494516450649826,163.9142132857778 39.84346959122922,162.81992242555498 38.3898305085022,162.08126615659785 36.09272183451685,161.52042919526502 33.72382851448492,161.3973180247267 31.31904287141515,161.5888241939101 31.130608175502857,161.0963786709799 28.81555334001314,159.59166195816942 26.769690927263582,159.0581635052331 22.247258225339465,159.38647074002074 21.7357926221448,159.59166195816942 20.67696909274673,159.41382960482224 20.084745762724197,159.67373827236952 17.527417746779975,161.6572191238447 16.163509471603902,162.24541268639587 12.672981056850404,162.10862393903517 12.296111664996715,161.9307981568163 12.0,162.3274858029581 16.019940179481637,162.5737045592614 16.8364905284252,162.3685223241373 18.12861415752559,161.67089810157995 20.703888335003285,159.41382960482224 21.3678963110724,159.4959061332811 22.99202392823645,159.12656097627405 27.200398803601274,159.0171249895866 29.6949152542511,159.85156994717545 31.211365902301623,161.2194903855052 31.1665004985407,161.6161821740934 30.41276171489153,161.94447707963627 30.511465603194665,162.61474093210927 30.206380857445765,163.90053475853347 29.578265204414492,164.68020642812917 28.698903290147427,166.69089744535086 29.183449651056435,167.45685936447262 29.165503489552066,168.5647533306219 30.340977068786742,168.82462708407547 32.0817547357874,169.782048147561 33.07776669989107,168.3459115061014 34.89032901299652,167.30640323867192 36.07477567301248,166.88238873258524 34.845463609177386,165.8702144028175 33.94815553340595,166.2532010531213 32.709870388847776,166.29423520936325 32.17148554336745,167.7030595807919 32.404785643098876,168.01764745117543 33.14057826521457,168.37326677265082 34.25324027915485,167.63467072107596 34.02891326023382,167.15594678055277 32.76370887338999,167.11491314339946" stroke="#4dd2ff" stroke-linecap="round" stroke-linejoin="round" stroke-width="0.5"><title>2022-04-27 10.1km</title></polyline><polyline fill="none" points="65.87321009492734,162.3982643367708 67.7230450391653,162.2472061368244 71.32361662696349,161.1646170444801 72.14943579846295,161.819206915221 73.81759052490816,162.14650056906248 74.85812268103473,162.85143784478714 76.29504803946475,162.90179035568872 76.74099039210705,163.40531435250887 79.15238237287849,161.86955984067026 79.97820154443616,162.34791162365582 80.87008624966256,164.1354205561729 80.62234049820108,167.4082581918192 81.48119243653491,169.472619533728 83.71090419968823,172.51874919392867 85.46164084324846,173.95367719562637 91.09372759301914,181.2539338012648 93.24085743899923,188.0 94.18229129450629,187.79863014439616 94.13274214422563,187.04349030587036 92.00212868163362,181.60634922852478 91.27540781075368,178.7366519457355 91.17630951013416,177.67937849726877 92.86098062008386,176.74796354972932 90.81294907472329,167.7355372569291 88.8970485967584,163.657075592615 85.27996062557213,159.30153486117342 82.30701160809258,156.65792479344236 80.52324219763977,155.3235099714002 75.5683271685848,152.90642054763157 68.92874102958012,152.0 63.16452321235556,152.4532110929722 62.0083763722796,152.90642054763157 62.17354020656785,154.1653271037576 61.57895040308358,156.4061494990383 60.55493463034509,157.63984361105395 59.82821375946514,159.72954267704336 59.151042038807645,160.63590734641184 60.2080905783223,160.66108404922124" stroke="#4dd2ff" stroke-linecap="round" stroke-linejoin="round" stroke-width="0.5"><title>2022-04-25 5.0km</title></polyline><polyline fill="none" points="126.00767050191644,167.0155942506717 127.58345839587855,166.89206207202733 128.8620977155515,166.32930154434143 129.41137235285714,166.74107799495687 130.24879106221488,166.87833626063002 130.74403868601075,167.16657772140388 131.5364348841249,167.15285196513287 131.9056194764271,167.50972073285084 133.33733533433406,166.64499704501577 134.07570451893844,167.83913640333412 133.8866099716397,169.45874036074383 134.35484408872435,170.73518084804164 135.3003168250725,172.1762946889612 136.63298315822612,173.35661291827637 139.69451392363408,177.29543441697388 140.9461397365376,181.01446175165256 141.33333333334303,180.87723186545918 141.3063198265736,180.34203267742487 140.74804068703088,178.58545205476912 140.18976154742995,177.59735562047354 139.70351842587115,175.84070447439444 139.65849591465667,175.2917417343997 140.6219776555081,174.82511993938897 139.41537435387727,169.71952046210936 138.4699016174709,167.6607031122112 137.35334333832725,166.2332200156161 136.0026680006995,164.77825464514171 133.94063698514947,163.10363352557033 131.88761047189473,162.06040618685074 128.8170752042497,161.38779064483242 126.81807570453384,161.3191560337109 124.74704018677585,161.60742093732188 124.48590962149319,160.97598194430975 122.13573453394929,159.52090466498703 119.92062698019436,158.98553824835108 116.13873603468528,159.21890361217447 115.10321827582084,159.52090466498703 113.71652492912835,159.4522681792514 111.66349841587362,161.11325178680636 110.06069701520028,162.0192258336465 108.96214774055989,162.23885409728973 106.00867100220057,162.07413296571758 105.50441887610941,161.86823099309186 105.33333333334303,162.21140060292237 108.45789561449783,162.52711512234237 109.8896114724048,162.40357483191838 111.29431382360053,161.68978211508147 113.72552943139453,159.61699562923604 114.13073203270324,159.4522681792514 115.2382858096098,159.56208652336863 117.65149241287145,159.30126766801186 120.03768550945097,159.3561769834232 121.27130231782212,159.54835923999417 122.39686509923195,160.0837212483384 122.76604969153414,159.713086458396 120.91112222778611,159.10908471670336 118.42587960648234,159.06790258538967 115.53543438386987,159.32872233123635 114.63498415876529,159.57581380396368 116.5349341337569,159.4934500789568 117.74153743538773,159.23263096172377 118.45289311322267,159.41108625473862 120.1457395364414,159.32872233123635 121.72152743037441,159.79544991874718 122.21677505422849,160.28962859659805 121.70351842590026,161.44269828412507 121.48741037189029,163.19971945336874 123.29731532436563,163.77623218375084 122.36084709025454,166.05478253253023 123.26129731533001,165.75281034617728 124.85509421376628,165.79398845012474 126.01667500418262,166.0959604545642 125.82758045688388,166.74107799495687" stroke="#4dd2ff" stroke-linecap="round" stroke-linejoin="round" stroke-width="0.5"><title>2022-04-22 10.1km</title></polyline><polyline fill="none" points="170.70648464167607,166.63766633407795 172.1399317406176,166.6220589060904 172.2423208191176,166.32551717847673 173.7576791808824,165.90411382995808 174.42320819114684,166.3723396317073 175.3754266212054,166.5128068222839 176.03071672358783,166.90299213070102 176.79863481229404,166.84056261299702 177.16723549491144,167.2775681841449 178.8668941979413,166.3099096878068 179.7576791808824,167.73017850703764 179.57337883961736,169.5249865990554 180.09556313994108,170.97640979164862 181.22184300344088,172.58386836580758 182.614334471029,173.83235694449831 186.14675767917652,178.3735650309536 187.5085324232059,182.43077742186142 188.0,182.43077742186142 187.76450511949952,181.01077717107546 186.8839590443822,179.07579002079729 186.15699658705853,176.57896123687533 186.1365187713527,176.06398032409925 187.03754266211763,175.65823538391123 187.20136518770596,175.3929394702718 186.003412969294,170.24289823212166 185.3583617747936,168.47932083655905 184.77474402735243,167.40242646750994 182.55290102391155,164.7023213615903 179.5017064846761,162.12698921345873 177.15699658705853,160.95635548262362 174.66894197952934,160.39444502918195 171.77133105805842,160.1915319226173 169.09897610923508,160.4724883906456 168.7508532423526,159.77009531631484 166.17064846417634,158.1311534573033 163.68259385667625,157.56922257813858 156.3822525597352,158.1311534573033 153.94539249147056,160.17592320018593 152.03071672355873,161.06561537686503 152.0,161.51826187383267 153.85324232082348,160.61296624381066 156.89419795223512,158.00628027968196 159.7303754266468,158.11554432105186 160.94880546076456,157.8033609381746 161.9931740614702,158.00628027968196 164.26621160411742,157.95945278636646 165.46416382255848,158.3340719429616 166.22184300344088,158.88038830970618 165.64846416382352,160.2851841914744 165.46416382255848,162.42354695958784 167.501706484647,163.03226720929524 166.40614334470592,165.57635409049544 168.105802047794,165.06130027891777 171.3720136518823,165.7324303292553 173.10238907849998,165.1705544029246" stroke="#4dd2ff" stroke-linecap="round" stroke-linejoin="round" stroke-width="0.5"><title>2022-04-21 8.1km</title></polyline><polyline fill="none" points="30.327645051205764,206.62207162599952 32.006825938558904,206.51281962994835 32.42662116041174,206.3411376116419 32.60068259385298,205.99777243730205 32.48805460750009,206.5284270673801 33.73720136517659,205.90412712655234 35.93856655291165,206.8249677827116 36.880546075088205,206.8093604048554 37.167235494882334,207.21515121086122 38.78498293514713,206.2162777237536 39.69624573379406,207.54290377690631 39.532423208176624,209.5874242991049 40.167235494882334,211.07005821458006 40.92491467576474,212.25614498626965 42.7474402730295,214.00402934734302 46.238907849852694,218.482803640989 47.559726962441346,222.49319439513783 48.0,222.36836044857773 47.84641638226458,221.6037481519379 46.76109215017641,218.98216318269988 46.11604095561779,216.23564600682585 46.22866894197068,215.95474673502758 47.12969283279381,215.59581841062754 46.78156996585312,213.45781970642565 45.83959044367657,209.6966719737684 44.7542662115884,207.41804581945325 42.40955631399993,204.56186527386308 39.49146757679409,202.15822217699315 37.26962457335321,201.01880694735155 35.232081911264686,200.44128874000307 31.904436860058922,200.1603323847885 28.91467576791183,200.45689739660884 28.894197952206014,200.28520200137427 28.7508532423235,199.78572233140585 26.017064846411813,198.05312734776817 23.51877133108792,197.5068056048549 18.819112627999857,197.81898992819333 17.713310580176767,198.11556387388555 16.945392491470557,197.89703581308277 16.48464163823519,198.00629992028553 13.955631399323465,200.0198538263794 12.020477815705817,200.95637275346235 12.0,201.42462798538327 13.843003412970575,200.50372334764688 16.86348122867639,198.00629992028553 18.163822525617434,198.17800034982793 20.918088737205835,197.88142664235056 23.580204778147163,197.88142664235056 25.146757679176517,198.1623912355717 26.2525597269414,198.94284310962394 25.617747440293897,200.26959331029502" stroke="#4dd2ff" stroke-linecap="round" stroke-linejoin="round" stroke-width="0.5"><title>2022-04-19 7.2km</title></polyline><polyline fill="none" points="63.38335368048865,201.06700674138847 63.43537709949305,200.77623779190617 65.98452463076683,200.61763627613254 68.55101330170874,199.66602316856006 72.5047931461595,201.41064194443607 74.08283685601782,201.30490813130746 74.42965964938048,201.99217639856943 77.04817173932679,200.300432671218 77.63777048804332,200.77623779190617 78.71292114752578,202.732307443046 78.34875721449498,205.98354810139426 79.23315533756977,208.17742935349816 80.51639967306983,210.21268408972537 83.49907569604693,213.0408429780873 89.56847458006814,220.89064790991688 91.80548159731552,227.8678594103185 92.06559869233752,227.8678594103185 92.53380946343532,227.65643419112894 92.46444490476279,226.25573353846266 90.1233910494484,220.59992273990065 89.37772204366047,217.24332201124344 91.19854170893086,215.8953716512915 89.25633406598354,207.41089668584755 87.27944414381636,202.33580918671942 83.37768771837,197.70990795551188 78.17534581781365,193.26888983816752 76.38920843193773,192.422964638361 75.33139891218161,192.0 75.15798751550028,194.08837469162972 75.97302107990254,195.14576696448057 79.38922559464118,197.97424954766757 81.50484463415341,200.93483911667136 83.13491176301613,203.63103240304918 83.89792190841399,206.5914947607962 88.87482899334282,205.87781796096533 89.84593281475827,208.7060699721842 91.28524740721332,215.97466323101253 89.67252141801873,217.13760091312724 90.955765753577,222.07997146606067 92.91531453607604,227.55072145423765 91.97889299399685,228.0 91.33727082627593,227.12786965769192 89.5511334403418,221.9213956126332 88.47598278097576,219.83346239638195 83.77653393073706,213.67518803193525 80.32564713672036,210.31841074873955 78.12332239880925,206.4857651087077 78.00193442113232,205.45489655026176 78.52216861117631,203.0759382992037 81.29675095813582,201.3842084990756 83.10022948367987,203.60459940345754 84.001968746481,206.6443595551027 88.47598278097576,205.5606270303324 86.86325679178117,201.96574307006085 82.233172500215,196.67897067398735 78.12332239880925,193.34819504699408 75.34874005184975,192.0264353296734 75.24469321378274,194.40559326530638 76.80539578397293,195.93880559546233 75.34874005184975,197.15478888406506 73.5452615263057,196.67897067398735 72.9209804981947,197.10192027897574 71.94987667683745,198.29145875771792 72.1926526321331,200.59120267156686 67.84002657531528,201.30490813130746 66.88626389350975,202.25650939211482 64.18104610528098,203.81606325077155 62.16947390366113,206.38003537164332 60.418018797179684,205.42846391700732 62.98450746812159,199.24308180153457 65.2388556250371,199.26951567680953 67.51054492162075,198.39719499112834 68.51633102237247,199.66602316856006 66.3313474241877,200.98770618245908 62.91514290944906,201.0934402503408" stroke="#4dd2ff" stroke-linecap="round" stroke-linejoin="round" stroke-width="0.5"><title>2022-04-10 10.4km</title></polyline><polyline fill="none" points="108.44029981439235,201.13445358492027 108.6330331893987,200.84066513380094 110.78814274561591,200.97420541927568 113.94196160847787,199.77233802328556 115.01075577863958,200.5735841605565 117.86671397113241,201.53507315435127 119.46114461845718,201.37482547135005 119.70644164108671,202.12264634012536 122.50983618583996,200.52016790158086 124.10426683316473,202.68350923265098 123.80640616279561,206.0753439473483 124.64742452616338,208.2385949321033 126.55723705980927,211.17628685529053 129.27302552503534,213.65992123308388 135.14263285306515,221.24406608931167 137.29774240939878,227.9732973792925 138.22636685235193,228.0 135.03750555764418,218.0929598163275 135.0199843417504,217.26511443161144 136.8772332276567,216.33044409547438 134.6520388078061,206.28899993138475 132.86487478547497,202.63009382095333 129.0627709341934,197.95616224257537 123.61367278784746,193.3354855835205 120.77523581124842,192.0 120.68762973177945,194.59082980555831 124.89272154890932,197.95616224257537 126.97774624155136,201.61519692341244 124.26195777632529,203.03070888566435 122.61496348131914,200.62700039818446 119.91669623198686,202.20276975525485 116.69279250549152,200.94749737293023 115.2910952331149,200.84066513380094 113.50393121090019,201.3481175054476 111.29625800688518,202.92387831975066" stroke="#4dd2ff" stroke-linecap="round" stroke-linejoin="round" stroke-width="0.5"><title>2022-04-09 5.2km</title></polyline><polyline fill="none" points="155.08713543741032,201.11450615867943 157.05096945387777,200.95413901024585 157.10357215075055,200.6868600001544 160.73315823479788,199.64446673293423 161.73260947532253,200.57994824591879 163.34575884602964,200.79377166858467 164.5556208739872,201.4352398759147 166.06356485094875,201.4352398759147 166.50192065816373,202.0767049919741 169.18465819850098,200.36612447968218 169.9736986515345,201.08777831407497 170.8679444983718,202.7716220460061 170.5523283171351,206.0590650874292 171.41150569933234,208.35755427194817 173.5857505032909,211.43105337380257 176.02300879155518,213.6225485254181 181.8268396795611,221.2390498688692 184.10628987726523,228.0 184.91286456258968,227.86638771054277 184.75505647197133,226.31647535214142 182.98409901070409,222.1743796402152 181.72163428575732,217.390766813136 182.00218200241216,216.90972360914748 183.52766021166462,216.18815554401954 182.59834590030368,211.19052122093854 180.63451188383624,204.3752629404553 179.47725255269324,202.10343263803952 177.42574737477116,199.64446673293423 172.46355963672977,194.86004419958772 170.46465715568047,193.3364769010659 167.5189061310375,192.0 167.29096111125546,193.79087599046034 167.60657729243394,194.77985688181798 171.35890300245956,197.82694099839136 173.74355859390926,201.4352398759147 171.07835528580472,202.905259525156 169.1320555016282,200.5532202939503 166.72986567794578,202.02324968369794 163.15288229077123,200.82049957232084 159.94411778176436,201.3016009209823" stroke="#4dd2ff" stroke-linecap="round" stroke-linejoin="round" stroke-width="0.5"><title>2022-04-07 5.0km</title></polyline><polyline fill="none" points="15.080672675801907,240.19966989586828 14.922981605981477,240.5201679003294 15.361012355424464,240.78724898072687 17.41099626250798,240.78724898072687 20.967805947584566,239.74562973431603 22.036600976076443,240.57358415927592 23.911372583475895,240.86737320024986 24.594700552523136,241.32140953273483 26.20665371022187,241.4015334305077 26.539557079784572,242.04252287527197 29.30791141593363,240.3866271589577 30.148930454743095,241.0810375497822 31.095076873432845,242.9772936118752 30.79721596383024,246.3958277929778 32.321562971686944,249.46709217256284 33.845909979601856,251.47005247752531 35.930936346703675,253.1258102253487 42.11593052808894,261.2173621113543 44.27104181511095,268.0 45.077018393960316,267.91989212168846 45.02445470407838,266.5580508108105 42.29114282783121,260.2827195443242 41.76550592854619,257.18500008713454 43.517628926143516,256.41055895143654 43.64027753594564,255.6628184044239 41.6603785486659,247.43739496391936 40.36380753049161,243.64498297329555 38.90954544261331,241.58848900435987 37.928356563905254,242.14935414911452 38.48903592309216,241.21457759393525 35.72068158700131,237.68907547628623 30.70960981398821,233.4957429521237 27.625873338256497,232.0 27.450661038514227,233.81625711068773 27.783564408076927,234.80450423730508 31.49806516285753,237.6623667703243 34.07368596928427,241.1077455693303 32.42669035156723,242.41643195823417 31.13011933339294,242.92387831817177 29.58825109555619,240.65370850749605 28.939965586469043,240.76054089677928 28.414328687184025,240.17296169402107 27.57330964837456,237.34186187972955 29.202784036053345,235.81945310275478 31.533107622817624,237.76920156217238 34.05616473930422,241.21457759393525 31.445501472917385,242.84375533747516 31.14764056337299,242.89717066323647 29.360475105873775,240.49345976275072 26.749811839486938,242.04252287527197 26.13656879035989,241.5350731528597 24.542136862582993,241.37482546989486 20.775072417862248,239.95929588575382 18.8652583505027,240.89408126276248 16.342201234016102,241.05432952491537" stroke="#4dd2ff" stroke-linecap="round" stroke-linejoin="round" stroke-width="0.5"><title>2022-04-03 6.2km</title></polyline><polyline fill="none" points="92.13114754093112,255.8312361642311 92.8961748633883,252.66578901286994 92.65573770494666,251.36627217144996 94.66666666668607,250.36663690612477 94.66666666668607,249.40031709175673 88.63387978146784,245.53498155527632 85.2021857923828,244.6019560379209 77.83606557373423,244.70192330867576 71.1912568306434,245.73491491210007 68.28415300545748,245.50165930575167 63.081967213132884,249.70021005012677 58.86338797811186,251.79944558277202 58.66666666668607,252.69910982364672 62.33879781421274,251.13302448156173 68.39344262290979,245.80155931085756 69.61748633877141,245.40169251686893 74.88524590164889,245.46833704944584 78.03278688521823,244.76856812225014 85.57377049181378,245.43501478644612 89.33333333331393,247.03447585899266 90.14207650272874,246.46800182582228 89.42076502728742,245.73491491210007 83.47540983604267,244.50198870715394 73.18032786884578,245.23508106831287 71.16939890704816,245.83488150013727 68.5027322404203,245.50165930575167 61.901639344287105,250.66652811814856 58.66666666668607,251.96605043992167 58.97267759562237,252.69910982364672 62.928961748606525,250.7331705359975 68.26229508197866,245.96817019055015 69.87978142080829,245.36837024058332 70.86338797811186,245.53498155527632 74.42622950818622,244.66860089176043 84.28415300545748,244.1687638357689 90.16393442626577,245.90152585864416" stroke="#4dd2ff" stroke-linecap="round" stroke-linejoin="round" stroke-width="0.5"><title>2022-03-24 5.1km</title></polyline><polyline fill="none" points="126.69969970875536,267.1511870792456 125.70569388926378,266.9288777496404 124.28757892007707,268.0 123.65141519560711,267.67664354149747 123.33333333331393,266.8682478472183 122.92247759457678,263.2101761130325 122.44535480119521,262.078370064286 121.87545813139877,261.6741505317841 118.57535881054355,261.5933064303972 116.89217562280828,259.9764107556548 133.18061765204766,238.20642181330186 125.37435861607082,232.0 113.48604901463841,256.2574520577473 120.81518525723368,263.7356531636615 121.26580122872838,263.371861651809" stroke="#4dd2ff" stroke-linecap="round" stroke-linejoin="round" stroke-width="0.5"><title>2021-10-26 5.0km</title></polyline></svg>