<?xml version="1.0" encoding="utf-8" ?>
<svg baseProfile="full" height="300mm" version="1.1" viewBox="0,0,200,300" width="200mm" xmlns="http://www.w3.org/2000/svg" xmlns:ev="http://www.w3.org/2001/xml-events" xmlns:xlink="http://www.w3.org/1999/xlink"><defs /><rect fill="#222222" height="300" width="200" x="0" y="0" /><text fill="#FFFFFF" style="font-size:12px; font-family:Arial; font-weight:bold;" x="10" y="20">Over 5km Runs</text><text fill="#FFFFFF" style="font-size:4px; font-family:Arial" x="10" y="280">ATHLETE</text><text fill="#FFFFFF" style="font-size:9px; font-family:Arial" x="10" y="290">Wenz</text><text fill="#FFFFFF" style="font-size:4px; font-family:Arial" x="120" y="280">STATISTICS</text><text fill="#FFFFFF" style="font-size:3px; font-family:Arial" x="120" y="285">Number: 29</text><text fill="#FFFFFF" style="font-size:3px; font-family:Arial" x="120" y="290">Weekly: 2.6</text><text fill="#FFFFFF" style="font-size:3px; font-family:Arial" x="141" y="285">Total: 207.3 km</text><text fill="#FFFFFF" style="font-size:3px; font-family:Arial" x="141" y="290">Avg: 7.1 km</text><text fill="#FFFFFF" style="font-size:3px; font-family:Arial" x="167" y="285">Min: 5.0 km</text><text fill="#FFFFFF" style="font-size:3px; font-family:Arial" x="167" y="290">Max: 15.0 km</text><polyline fill="none" points="18.261043393460568,42.462702834949596 18.40321794251213,42.727582971834636 18.56118966359645,42.366382640109805 20.267284251574893,42.462702834949596 23.410921501752455,41.379096182725334 24.816869819595013,42.24598228780815 28.11847879079869,42.92022270386951 28.529205265745986,43.47406020993367 31.183130180404987,42.029261349009175 31.89400292542996,42.75166295522649 32.58907849830575,44.29277183799422 32.24154071183875,47.158218522468815 33.07879083376611,49.18084555021778 34.974451487127226,51.9017066715096 36.96489517315058,53.58716489912331 39.966357874218374,57.271012562872784 42.54129692836432,60.85844173517398 43.568113115557935,63.36235555946769 44.20000000001164,63.04936919007014 42.92042905901326,59.7990778423773 42.46231106779305,57.29508962642285 42.65187713311752,56.86170174351719 44.02623110677814,56.30792605851457 44.04202827886911,55.826379906175134 42.19375914189732,47.76019441758399 40.51925889815902,43.811177439580206 37.501999024883844,40.12691630117479 32.24154071183875,35.72010235800553 28.560799609986134,33.769493662563036 22.79483178938972,32.63764444053231 17.486981960071716,32.782136425455974 15.55972696247045,32.99887407635106 14.485519258945715,33.528675573870714 14.643490980030037,34.54010829660547 14.074792783998419,36.94824711083493 13.63247196492739,37.06865278211626 11.799999999988358,40.96973112146952 14.564505119458772,40.295479739092116 17.692345197545364,40.65668630821165 18.40321794251213,40.921570434155 18.18205753294751,42.12558181461645 18.75075572897913,42.438622793517425 18.355826426122803,42.63126298980933" stroke="#4dd2ff" stroke-linecap="round" stroke-linejoin="round" stroke-width="0.5"><title>2022-06-04 5.1km</title></polyline><polyline fill="none" points="79.94676508900011,54.18728290450963 80.04524533211952,52.83623019541119 79.00416847586166,52.535993939040054 76.99235779419541,52.342984471455566 74.24897959182272,52.986348007121705 74.9524099000846,50.949016848368046 76.19044724275591,49.169000971924106 76.781328701647,47.11015042561485 76.570299609215,46.31662451395823 77.80833695176989,45.780455019616056 77.83647416415624,45.00836621863709 74.12236213631695,42.60627647354704 72.30751194088953,42.02719318455638 70.49266174552031,41.81271709549037 63.75379939208506,42.284563922919915 62.994094659166876,42.563381522842974 61.24958749458892,42.39180154747737 56.832045158487745,45.75900818381342 54.299696048605256,46.87423793257767 49.699261832400225,46.68121823258116 48.03916630480671,46.230837575742044 47.79999999998836,46.831344696096494 48.64411636989098,47.06725728377933 54.42631350411102,47.23882974760636 57.16969170642551,46.059263492577884 61.31993052538019,42.520486554843956 63.852279635262676,42.69206632345595 70.05653495440492,42.34890651056776 72.5888840642292,42.73496122247161 74.29118541028583,43.87166977002926 73.70030395133654,44.79389611660736 73.12349109858042,48.43982927600155 75.66990881459787,49.34057005922659 74.34745983500034,52.81478477653582 76.83760312630329,52.10708353729569 78.58211029088125,52.30009343120764 80.20000000001164,52.83623019541119 80.01710811984958,54.080057123421284" stroke="#4dd2ff" stroke-linecap="round" stroke-linejoin="round" stroke-width="0.5"><title>2022-06-03 5.0km</title></polyline><polyline fill="none" points="115.97480451775482,54.21142764201795 115.72145960031776,53.93251928070822 116.03110338834813,53.031425753069925 114.4406602953677,52.40923769171786 112.6953953084303,52.2805086749795 110.513814074744,53.031425753069925 110.14787141617853,52.88124275964219 110.37306689837715,51.76559105695924 112.42797567328671,48.440021673668525 112.73761946131708,47.08830904751812 112.5264986967668,46.25152599469584 113.79322328406852,45.73657932009519 113.73692441353342,45.114348776987754 110.00712423975347,42.603933575432166 107.86776715901215,41.93877094452182 106.44622067763703,41.788572357989324 100.25334491743706,42.260624347574776 98.50807993049966,42.68976071003999 97.17098175501451,42.41082227050356 92.72337098175194,45.80094779018691 90.27437011298025,46.85229397826333 84.84152910509147,46.637734371906845 84.0955690703704,46.20861386661272 83.79999999998836,46.78792614156555 84.57410947000608,47.0668531536794 88.85282363160513,47.3028677490438 91.25960034749005,47.02394135306531 93.63822762813652,45.58638607250032 97.35395308426814,42.496649560242076 99.00069504778367,42.75413101572485 103.11051259771921,42.28208120666386 108.68410078191664,42.68976071003999 110.16194613376865,43.526571659160254 110.23231972201029,43.95570293680794 109.45821025193436,45.5649298770586 109.07819287572056,48.504388515000755 111.94943527365103,49.31969848251174 110.31676802778384,52.83833329418121 113.00503909640247,52.173234375834 114.98957428324502,52.49505695007247 116.19999999995343,52.98851634791208 115.9607298001647,54.018337315588724" stroke="#4dd2ff" stroke-linecap="round" stroke-linejoin="round" stroke-width="0.5"><title>2022-06-02 5.0km</title></polyline><polyline fill="none" points="130.8549885757966,42.387136977908085 132.5946686976531,42.33071490022121 134.44539223154425,41.747684773712535 135.06230007612612,41.916951958490245 135.04996191925602,41.4655721192903 137.7396801218565,42.66924685666163 138.86245239907294,42.72566873042524 139.01051028180518,43.06419925944647 139.91119573498145,42.74447601415886 140.95993907083175,41.916951958490245 141.66321401370806,42.499981031389325 142.23076923078042,43.722449563181726 141.98400609291275,46.2049519451175 142.56389946688432,47.42737212385691 144.01980198017554,49.64649414255109 145.80883472959977,51.16975933602953 150.0038080731174,56.64202624592144 151.50906321400544,61.437048897045315 152.19999999998254,61.361834750234266 149.85575019038515,54.34785017029935 149.85575019038515,53.68967453084042 151.13891850720393,52.9750786004588 149.75704493524972,46.8067607960038 148.3011424219585,43.34630709891644 144.9204874333518,39.22744828370196 141.94699162224424,36.97046252623841 139.35597867477918,35.635053676654934 136.6415841584385,34.93912884218298 132.5453160700854,34.562951102954685 129.1153084539401,34.90151113625325 128.01721249049297,35.29649629495543 126.20350342727033,35.24006994571391 120.98446306170081,35.84194925190968 120.45392231529695,36.0112271098842 120.39223153085914,36.70714397844131 119.83701447068597,36.76356944384315 119.79999999998836,38.19300322936033 123.40274181263521,38.456317599862814 125.88271134803654,39.11460028748843 126.462604721979,39.52837560889748 125.96907844633097,41.16465101807262 128.27631378520164,40.58161363311956 131.1757806549722,41.07061297562177" stroke="#4dd2ff" stroke-linecap="round" stroke-linejoin="round" stroke-width="0.5"><title>2022-05-30 6.1km</title></polyline><polyline fill="none" points="172.49342442356283,45.0134988805039 172.62254483345896,44.8869707544909 173.53561058922787,44.95726418605409 175.35251921435702,44.33867956614995 177.4368915456871,45.168144057337486 178.24850555078592,45.182202692834835 178.56208368914668,45.47743338628061 179.89017933388823,44.633913816498534 180.21298035865766,44.872912059683586 180.79402220324846,45.885130868835404 180.55422715627356,47.55807154344075 180.81246797606582,48.31720790866166 182.18667805296718,50.43993443042564 183.3395388556819,51.39584323969757 186.58599487616448,55.57076257623703 187.77574722457211,59.23942560811702 188.14466268144315,59.211313978517865 188.19999999998254,58.77558227589179 187.09325362936943,56.02057068084105 186.49376601196127,53.659045895903546 186.59521776257316,53.377906687852374 187.43450042695622,53.05459520313525 187.48061485908693,52.801567782473285 186.00495303157368,46.95356818083019 185.2671221178316,45.57584334080093 183.4871050384245,43.41079238890961 180.59111870196648,40.93636646166851 180.1391972672718,40.8660689930075 178.32228864220087,39.82565820439413 175.85977796753286,39.27732737814222 173.35115286079235,39.15078888527569 171.2483347566158,39.417925435300276 170.9163108454086,38.813351786164276 168.58292058069492,37.351105562724115 166.1757472245954,36.76057439188298 162.32058070023777,37.04178033254357 161.27839453457273,37.32298514369904 160.30999146029353,37.19644311849697 159.72894961570273,37.33704535463039 157.40478223739774,39.2070282436398 156.44560204952722,39.76941934293791 155.83689154568128,39.89595671772622 155.79999999998836,40.28962708774634 157.96737830911297,39.17890857009115 160.20853970965254,37.18238287932763 163.04918872760027,37.29486471344717 164.01759180187946,37.055840599903604 164.98599487615866,37.22456358827185 166.39709649872384,37.12614189449596 167.5315115286212,37.308924929981 168.7397096498753,37.9275716629636 169.44987190436223,37.51982783947096 170.34449188728468,38.43373310564857 170.98087105038576,38.757112111521565 170.93475661828415,39.37574604780457 170.667292912025,39.51634390734398 170.65807002561633,39.783479062545666 171.12843723312835,40.13497113493213 172.25362937658792,40.48646144266604 176.15491033304716,40.14903078111092 176.67139197266079,40.3739847361976 177.8242527754046,41.51280304206011 180.56345004268223,40.795771453784255 183.21964133219444,43.04525770028704 185.24867634501425,45.49149195969949 186.1894107600383,47.37531526329258 183.70845431255293,48.064163368089794 183.34876174209057,47.67053670947644 182.998292058066,46.39123478584588 182.223569598631,45.350906098658015 180.88625106748077,45.983540250315855 180.000853970967,44.78855983173344 178.51596925704507,45.53366766295221 178.18394534583786,45.280613062292105 177.44611443209578,45.23843720661171 176.80051238255692,44.94320550540215 175.86900085394154,44.8869707544909 175.18650725873886,45.06973352978821 174.55012809563777,45.58990189445103" stroke="#4dd2ff" stroke-linecap="round" stroke-linejoin="round" stroke-width="0.5"><title>2022-05-28 10.0km</title></polyline><polyline fill="none" points="28.653894258110086,85.65630561499347 29.970892552577425,85.60015074329931 31.370778851618525,84.95436647716633 32.17202956226538,85.52995709027891 32.86276293348055,85.6141894654611 33.47981807845645,85.96515660302975 34.18897100625327,85.93707929688753 34.53894258098444,86.3020833976625 35.561227970407344,85.5720732905429 36.012507106293924,85.45976336674721 36.77691870380659,86.63900856864348 36.63877202954609,88.4499535459945 37.10847072198521,89.61511040003825 37.92814098918461,90.94869983668104 39.5030130756204,92.3945628035035 42.61591813529958,96.43720544141615 43.785559977259254,100.05854100862052 44.19999999998254,99.89011095470414 44.1447413302958,99.18831469658107 42.993519044917775,96.35298610367317 42.505400795897,94.2615066786093 43.50005685046199,93.75617340709505 42.164638999413,88.05688420317892 41.23445139284013,86.20381325028939 38.747811256413115,83.49431049592022 36.592723138135625,81.7393951694794 35.395451961347135,81.26205058018604 34.55736213756609,80.67238511721735 31.99704377487069,80.06867484777104 29.455144968698733,79.90019663283601 27.189539511076873,80.15291380299459 27.042183058540104,79.59131885099487 24.61080159182893,78.07498994637353 22.317566799290944,77.54145899138166 15.80625355313532,78.07498994637353 13.503808982350165,79.92827636355287 11.799999999988358,80.74258364737398 11.818419556540903,81.02337706332764 12.186810687853722,81.02337706332764 13.15383740758989,80.51794810263527 15.89835133595625,78.15923130390729 16.30358158040326,78.01882898495023 19.00204661738826,78.04690947130439 19.821716884558555,77.78014439562321 20.669016486615874,77.97670823430235 22.474133030103985,77.90650692676718 23.57009664582438,78.11711063781331 24.785787379165413,78.73487786351689 25.485730528685963,78.2855931498234 26.26856168275117,79.19819970040044 27.014553723682184,79.60535877976145 27.12507106308476,79.99847564090669 26.69221148377983,80.46178910365416 26.913246162584983,80.79874242079313 27.438203524710843,81.03741670457384 28.98544627625961,81.31820893633267 32.16281978396,80.91105983229863 32.568050028407015,81.07953561118484 33.875838544627186,82.3290516331108 35.395451961347135,81.80959262834585 36.56509380330681,81.66919764017075 38.996475270047085,83.57854532366036 41.0042069357587,85.95111795137564 41.75940875496599,87.18650850860286 42.11859010803164,88.2393809585883 39.65957930640434,88.85705875010899 39.37407617963618,88.50610612887249 39.05173393973382,87.25670049852488 38.167595224571414,86.10554296479677 36.90585559976171,86.75131659817634 35.96645821488346,85.50187960932453 34.51131324615562,86.33016055725602 34.179761227977,86.03534981916891 33.470608300180174,86.00727254117373 32.82592382034636,85.64226690127543 31.14974417281337,85.85284731070715" stroke="#4dd2ff" stroke-linecap="round" stroke-linejoin="round" stroke-width="0.5"><title>2022-05-26 10.0km</title></polyline><polyline fill="none" points="54.237497113412246,81.90684712739312 56.28254741220735,81.81583031872287 58.9993295611348,80.92841260276327 62.238569815584924,82.43019235885731 63.358122898906004,82.36193007440306 63.865653629996814,83.09005898828036 66.40330728556728,81.52002518555673 67.70198886218714,83.56789104553172 67.29894975223579,85.91151434124185 68.17966484441422,88.23233624939894 69.20965368108591,89.98429777660931 72.0757095743902,92.6918214105026 77.09130738768727,99.15321306882106 78.94230181880994,104.84075298983953 79.76330741326092,105.0 79.61403366882587,103.93076578222099 77.38985487655737,98.53894167978433 77.0315978899016,95.74055210896768 78.38998896436533,95.2172683418903 78.53926270880038,94.83049183071125 76.03146380215185,85.00137512845686 74.9417654676945,82.97628915389214 71.65774308994878,79.17631106587214 67.32880450109951,75.58100490184734 64.9404245899641,74.23842461407912 61.163798855559435,73.00960837447928 56.103418918908574,72.59999999999854 51.68491608340992,73.03236435184954 50.62507249781629,73.35094755551836 50.863910488958936,74.21566887887457 50.2817428856506,76.71877235449938 49.221899300056975,77.94754837229266 48.23669258673908,80.45056941572693 50.75941886781948,79.76793279597769" stroke="#4dd2ff" stroke-linecap="round" stroke-linejoin="round" stroke-width="0.5"><title>2022-05-24 5.1km</title></polyline><polyline fill="none" points="116.14362766419072,95.07324166472972 115.83357981726294,94.72952199834253 116.11544149625115,93.63390819191409 114.0014789038687,93.20425265608355 112.4935189212556,93.29018390129204 110.5486733361613,93.89170068519888 110.21043932141038,93.65539092339168 110.81644193123793,92.04417409044981 112.32440191385103,89.57359448378702 112.81765985203674,87.98380004648789 112.6344497607788,87.10295782238973 113.95919965201756,86.54437119075737 113.95919965201756,86.13617142315343 113.7196172248805,85.55609538988938 111.80295780772576,84.26702627701889 108.60382775112521,82.87051720947784 106.29256198339863,82.5267583352761 100.37346672464628,83.02091136959643 98.64001739880769,83.40763823898305 97.42801217921078,83.14982048138336 96.54014789033681,83.45060780490167 92.76320139190648,86.52288703125669 90.40965637227055,87.59708971923101 85.26568073069211,87.42521801397379 83.99730317521608,87.05998972354428 83.79999999998836,87.46818596623052 84.36372335796477,87.76896114838746 87.18234014784684,88.06973548493988 91.29752066114452,87.87638065132342 93.62287951278267,86.52288703125669 96.72335798171116,83.72990956233116 97.56894301867578,83.34318385784718 105.75702479336178,83.2142749790728 108.67429317091592,83.49357735352532 110.2668116571731,84.58929501146486 109.4775989560294,86.11468718174001 109.12527185725048,89.20837352764647 111.9861678990419,90.08919841693569 110.32318399305223,93.65539092339168 113.08542844711337,93.01090710201242 114.53701609390555,93.16128700765694 116.19999999995343,93.61242545612913 116.11544149625115,94.49321408712422" stroke="#4dd2ff" stroke-linecap="round" stroke-linejoin="round" stroke-width="0.5"><title>2022-05-22 5.0km</title></polyline><polyline fill="none" points="126.31297979492228,81.43523465616454 126.4019195367,81.90974169681431 127.55813617934473,81.95493273920874 129.15905153076164,81.72897734579601 131.1453724297462,80.93812989604339 131.7975972025306,81.5030214987346 133.35404268302955,81.75157290558127 134.4806127451593,82.40684216484806 135.6516526780906,82.3164604249032 136.00741164508509,82.85874977570347 138.2605517692864,81.43523465616454 139.0017162838485,82.02271926872345 139.72805750806583,83.44622695675207 139.3426519605564,86.22540435552946 140.3061658294173,88.39447073429619 141.9219044710626,90.6990579539779 143.92304866039194,92.39357727186871 149.17049342324026,99.17139941075584 151.0678745805053,105.0 151.76456922420766,104.86445457737864 151.66080619208515,104.20931606642989 149.27425645530457,98.42585895625234 148.90367419808172,96.00846654353518 149.05190710094757,95.60179729696392 150.34153335628798,95.0821622323565 150.4304730980075,94.44955978481448 148.1625096835196,85.36680403065111 147.0952327825944,83.19767929291993 142.989181372046,78.36218823927629 139.35747525078477,75.53762303045369 135.3551868723007,73.59428099606157 130.65620385011425,72.69038954446296 127.51366630848497,72.60000000000582 123.88196018722374,73.00675237843097 122.79985999607015,73.43610051618452 122.91844631836284,74.31738892957947 122.34033799701137,76.82563355957973 121.56952690187609,77.57131712746195 120.23543077573413,80.57659778213565 122.79985999607015,79.763146278965 124.97888366872212,79.96650970608607 126.44638940755976,80.55400198649295 126.12027702113846,81.4126390328529" stroke="#4dd2ff" stroke-linecap="round" stroke-linejoin="round" stroke-width="0.5"><title>2022-05-16 5.4km</title></polyline><polyline fill="none" points="174.69326010983787,86.00843075296507 175.42925611583632,86.07007354462985 177.03065401897766,85.55227217108404 177.41078382424894,85.88514498394215 178.26000998503878,86.04541643538687 178.68866699951468,86.30431558859345 179.4084872691019,86.27965857341769 179.65921118322876,86.61252744280137 180.9613579630386,85.8604878004553 181.69735396906617,86.9700512554191 181.53559660512838,88.57271862574271 182.18262606090866,89.94111688833436 183.0318522216985,91.09991679484665 183.9943085371924,91.90120181317252 186.80079880182166,95.47603835343398 187.8360459311225,98.63158319105423 188.19999999998254,98.60693112545414 188.1838242636295,98.24947506227181 187.0272591113462,95.18019771111722 186.7118322516617,93.86122417127262 186.76844732902828,93.60235687963723 187.52870693959994,93.232544569928 187.55297054420225,92.99832895514555 186.37214178731665,88.17821976967753 185.64423364953836,86.74814016852179 183.7274088866543,84.479669719909 181.13929106341675,82.40838437054845 179.65921118322876,81.6686226680431 178.2033949076722,81.286408962711 175.58292561158305,81.03981821263005 173.22935596606112,81.24942041335089 173.05951073390315,80.7808968591089 171.9433849226334,79.96713692480989 170.8434348477167,79.3506449452143 169.25821268098662,78.96841680894431 165.53779331003898,79.20268594896697 164.64003994007362,79.43695419503274 163.4106839740416,79.36297484549141 160.96005991013953,81.24942041335089 159.6255616575072,81.8412345292054 156.39850224662223,81.7302698170206 155.96175736395526,81.50833979097297 155.8970544183685,81.61930490427403 155.79999999998836,81.85356392931135 156.2690963554778,81.97685779396852 159.50424363455386,82.13713944790652 160.89535696455278,81.59464600753199 163.75037443835754,79.37530474326559 165.3436844732787,79.48627371187467 166.5245132301643,79.30132531940762 169.0721917124465,79.32598513726407 170.0427358961606,79.4492840779676 171.15886170745944,79.96713692480989 171.5147279081575,79.63423202469494 169.83245132301818,79.07938651300356 168.82955566651071,78.96841680894431 165.4245631552767,79.17802608155398 164.23564653020003,79.48627371187467 165.97453819273505,79.43695419503274 166.98552171743358,79.20268594896697 169.08027958063758,79.28899540678322 170.18831752371625,79.52326332349912 171.25591612581047,79.9794667012793 171.74118821768207,79.62190217891839 172.54188716926728,80.44799637150209 173.0999500748876,80.71924875685727 173.13230154771009,81.20010231284323 172.45292061910732,81.4713513753195 172.52571143285604,81.8412345292054 174.11093359961524,82.59332340347464 175.58292561158305,82.48236005054059 175.63954068897874,84.18377609096933 175.2755866200896,84.4056964463598 175.25941088367836,84.78789073369262" stroke="#4dd2ff" stroke-linecap="round" stroke-linejoin="round" stroke-width="0.5"><title>2022-05-14 9.9km</title></polyline><polyline fill="none" points="25.745417515252484,125.82076786318066 26.79022403259296,125.88782581280975 28.978818737261463,125.11665614038793 29.990631364518777,125.73694535042887 30.6175152749056,125.78723886820808 31.354378818708938,126.22311475304741 32.03625254580402,126.15605707270879 32.696130346215796,126.59193103212601 34.323828920547385,125.50224186697596 35.357637474517105,127.09485969618981 35.12668024440063,129.1233078910518 35.7205702647625,130.53145782301726 36.457433808536734,131.80547777428728 38.382077393034706,133.59913080798287 42.29735234210966,138.62785910006642 43.826069246424595,143.00260637426254 44.15600814661593,142.88527897862514 44.19999999998254,142.24835595434706 42.924236252496485,139.14747709299263 42.23136456205975,136.23086972210876 42.330346232134616,135.96267082609847 43.39714867612929,135.4262704497669 42.16537678206805,130.06207715112396 40.790631364507135,126.75957425674278 37.85417515275185,123.28929087074357 35.181670061079785,121.16010840885428 32.34419551931205,119.78533182830142 29.517718940944178,119.19853005273035 27.197148676175857,119.0141057856672 23.908757637429517,119.31589073777286 23.633808553946437,118.71231974266266 22.149083503056318,117.62252772704232 20.576374745403882,116.73391755459306 19.34460285131354,116.34829132921732 17.826883910340257,116.19739362573455 12.6248472504667,116.59978689561831 11.799999999988358,116.90158057520603 18.145824847219046,116.61655323976447 20.213441955158487,117.11954199865431 20.884317718911916,117.67282613324642 20.22443991850014,119.0141057856672 19.960488798329607,121.36129332669225 22.072097759664757,122.19955859918991 20.91731160893687,124.83165685008134 22.687983706680825,124.29518495855154 24.84358452138258,124.51312708021578 25.470468431769405,124.74783334428503 25.36048879835289,125.73694535042887" stroke="#4dd2ff" stroke-linecap="round" stroke-linejoin="round" stroke-width="0.5"><title>2022-05-12 7.0km</title></polyline><polyline fill="none" points="59.535725190798985,124.02137186649634 60.920763358764816,124.02137186649634 63.208549618313555,123.22964945468993 63.752671755704796,123.7197641159728 65.66946564882528,124.37952981168928 66.81954198470339,124.41723056855699 67.35129770991625,124.92618930424214 69.30519083965919,123.73861462874629 70.2821374045161,125.322044191038 70.13374045799719,128.09298166359076 70.96229007630609,129.7705843325166 72.1989312976948,131.52355284670193 73.78183206103859,132.86181860523357 76.19328244272037,135.80216651134833 76.44061068698647,136.51839115665643 77.62778625951614,137.74349959472602 78.39450381675852,139.08167669857357 79.50748091598507,142.88878047999606 80.19999999998254,142.70031362757436 78.14717557246331,136.49954320969118 78.03587786253775,135.5948373048741 79.3096183205489,134.8032124868114 77.96167938929284,128.88466306292685 77.05893129768083,126.45304895605659 76.36641221368336,125.13354207216616 73.58396946560242,121.77814102456614 71.34564885491272,119.76107256673276 68.82290076330537,118.08329101905838 67.15343511448009,117.29151852588257 65.34793893125607,116.82022220466024 61.1804580152384,116.31121952000831 57.19847328242031,116.68825881066005 56.147328244231176,117.08414843607898 54.45312977099093,116.98988915285008 48.51725190834259,117.72510905171657 48.41832061065361,118.49802632645151 48.05969465646194,118.46032319243386 47.849465648818295,118.74309632871154 47.79999999998836,119.81762647849973 48.04732824425446,120.11924676591298 49.9146564885159,120.04384178496548 53.14229007632821,120.57167538003705 54.51496183202835,121.19376116424246 54.13160305342171,122.9468898323612 56.24625954197836,122.21171082837827 57.73022900763317,122.34366645816044 59.238931297673844,122.7960843521796 58.991603053407744,123.73861462874629" stroke="#4dd2ff" stroke-linecap="round" stroke-linejoin="round" stroke-width="0.5"><title>2022-05-10 6.0km</title></polyline><polyline fill="none" points="102.57405836865655,126.91523869022785 103.38223996007582,126.90291936989888 104.96627587924013,126.33622796182681 106.70386630078428,127.11234747869094 107.42314791717217,127.11234747869094 107.64135694684228,127.3956902526952 108.83746570214862,126.64421307208613 109.03951110001071,126.74276798085339 109.6537291094719,127.67903171817306 109.4516837116389,129.1942703891218 109.92851085055736,130.36455106758513 110.67203791465727,131.4978542391218 111.98937390869833,132.71736361753574 114.21187328509404,135.57510882608403 114.8988276377786,136.6467289661632 115.70700922922697,139.39343995520903 116.19999999998254,139.3688063223235 115.92521825889708,138.1617461967944 115.27059116985765,136.6836810509849 114.72910950359073,134.78677861411416 114.71294587175362,134.38029189095323 115.54537291094312,133.91221293449416 114.28460962828831,128.77542766958868 113.67039161885623,127.51888235497972 112.13484659514506,125.5970573892082 110.40533798950491,124.02013040259772 109.42743826386868,123.36717220597347 107.68176602639141,122.46780331173068 106.06540284358198,122.07355525638559 103.68934896480641,121.85178961186466 101.2648041905486,122.03659437130773 100.96577700172202,121.54378044236364 98.98573210273753,120.23780438474569 96.84405088546919,119.7449760058189 93.09408830129541,120.01603210419489 92.50411573954625,120.21316305985965 91.32417061610613,120.1762010539278 89.26330755799427,121.79018790168266 87.58228984780726,122.61564567934329 84.45462708902778,122.52940434154152 83.96163631827221,122.3076403447958 83.79999999998836,122.60332549562736 86.43467198798317,122.92364946752787 87.92980793211609,122.81276828194314 89.53000748311752,121.9626725343187 91.53429782984313,120.21316305985965 94.10431529054767,120.22548372353776 94.7589423796162,119.9790699794612 95.57520578696858,120.15155970422711 97.78154153152718,120.21316305985965 99.23626839608187,120.79223157882006 99.6888500872592,120.41029338206863 100.46470441503334,121.18648786841368 101.0546769767825,121.432896762788 101.0465951608785,122.01195376887335 100.72332252431079,122.22139857402726 101.49917685205583,122.82508842356037 103.23676727359998,123.0098902511163 105.42693938635057,122.71420705978744 106.23512097776984,123.07149073663095 107.38273883756483,124.06940998442587 107.95654776750598,123.84765155433706 109.92042903465335,125.43690259131836 111.14078323767171,127.3956902526952 110.97106510348385,127.21090163543704 109.67797455721302,127.87613805284127 109.41127463203156,129.0587627633322 109.54058368667029,129.53919754068193 110.67203791465727,131.4978542391218 111.84390122222248,132.54490921727847 114.56747318530688,135.96927013395907 115.86864554751082,139.4550239941782 116.10301820898894,139.35648950218092 116.12726365673007,138.97466685129984 114.87458219003747,135.92000010895936 114.60788226488512,134.60201225560377 114.68061860810849,134.39260970999385 115.51304564726888,133.94916666613426 114.47049139434239,129.53919754068193 113.83202793714008,127.88845717775257 111.45597405833541,125.03035391909725 109.73454726859927,123.65053227693352 107.57670241955202,122.46780331173068 104.53793963577482,121.88875060826831 101.20823147913325,121.99963346396544 101.02234971313737,121.5314600434358 99.68076827135519,120.50885830566403 98.10481416809489,119.94210783249582 97.02185083559016,119.76961751882118 93.6113245197921,119.99139069016383 92.2374158143648,120.26244569979826 95.11454227985814,120.07763559587329 95.0741332002799,121.75322684588173 94.83976053874358,123.04685054981019 95.31658767769113,123.20701158695374 94.97715140928631,123.30557201737611 95.03372412070166,124.21724849253224 98.17755051134736,124.5622036259665 99.20394113243674,124.94411597562066" stroke="#4dd2ff" stroke-linecap="round" stroke-linejoin="round" stroke-width="0.5"><title>2022-05-08 15.0km</title></polyline><polyline fill="none" points="131.46301369860885,123.88804486259323 132.36301369863213,123.92563098137907 135.06301369861467,123.06114643080218 137.7013698630035,124.20752639098646 138.6506849314901,124.16994038546545 139.20547945200815,124.69614308978635 140.62328767121653,123.75649332799367 141.27671232877765,123.68132093955501 142.2630136985972,125.29751398656663 141.95479452054133,127.30831986220437 142.59589041097206,129.03720252415224 144.23561643832363,131.44255136556603 145.7397260274156,132.62641129982512 150.00547945205471,138.2824243258874 151.65753424656577,143.01742822201777 152.19999999998254,142.88590357015346 152.1506849315192,142.24706691812753 150.76986301367288,138.864917884006 149.91917808220023,135.3699021616776 151.2013698630035,134.6558506371657 149.80821917805588,128.37947918815917 149.08082191777066,126.25594086690398 148.1684931506461,124.69614308978635 145.6657534246624,121.7268176463258 142.632876712305,119.058103005882 138.78630136983702,116.97194208928704 132.7575342465425,116.1825717779866 120.55205479450524,117.51697960906313 120.45342465752037,118.23116189933353 119.82465753422002,118.49428031673597 119.79999999998836,119.22724915022263" stroke="#4dd2ff" stroke-linecap="round" stroke-linejoin="round" stroke-width="0.5"><title>2022-05-05 5.1km</title></polyline><polyline fill="none" points="169.6218181817967,125.97601742220286 171.07272727272357,126.07579144283955 172.9490909090964,125.39399990587117 175.39272727273055,126.34185491032986 176.28727272726246,126.34185491032986 176.58181818184676,126.70769078235026 178.28363636363065,125.70995277939801 178.42545454544597,125.80972712062794 179.26545454547158,127.25644156031922 179.03636363637634,128.86941522017878 179.5709090908931,130.6153822287597 180.57454545455403,132.1617794130434 182.45090909089777,133.94093185140082 184.3272727272706,136.20222932449542 186.35636363638332,139.27815986649512 187.46909090908593,142.86937206656876 188.19999999998254,142.86937206656876 186.41090909088962,136.800797733129 186.36727272727876,135.96945155285357 187.19636363637983,135.73667312703765 187.3272727272706,135.47063983930275 186.01818181818817,129.63431958299043 184.6218181817967,126.80746392154106 182.37454545454239,124.03039999290922 179.0800000000163,121.28650285358162 176.28727272726246,119.87294460286648 172.42545454544597,119.17447161917516 168.01818181815906,119.3906662674708 167.6472727272776,118.72545016152435 165.31272727271426,117.0623865177622 163.52363636362134,116.46367542972439 161.66909090909758,116.33062793343561 157.04363636363996,116.69650803390687 155.82181818183744,117.0623865177622 155.79999999998836,117.22869438507769 159.71636363634025,116.94597081185202 159.36727272727876,120.77097263973701 159.92363636364462,120.95390308296192 159.60727272726945,120.97053310319461 159.55272727273405,122.36744288267073 163.81818181814742,122.83307423955557 165.27999999996973,123.33196207389119 165.4327272727387,123.5814048639877 164.94181818180368,124.67894421480742 165.01818181815906,124.94501216993376 166.95999999999185,124.4128754047997 168.31272727271426,124.49602199976653 169.95999999999185,125.04478743274376 170.96363636365277,125.02815823060519 171.91272727272008,124.69557348702074" stroke="#4dd2ff" stroke-linecap="round" stroke-linejoin="round" stroke-width="0.5"><title>2022-05-04 7.1km</title></polyline><polyline fill="none" points="23.15047546592541,164.58688345027622 25.11000380371115,164.54931157538522 27.094180296669947,163.8542291692138 29.571319893497275,164.90624377722997 30.87767211862956,165.05653061268094 31.03788512738538,165.52617541763902 33.09600608595065,164.30509402116877 34.21749714718317,165.9958178650195 33.92171928487369,168.23128359722614 34.56257131989696,169.8280121335847 36.09075694181956,172.06338630596292 37.68056295168935,173.4534239864297 41.58729554965976,178.43109224236832 42.17885127424961,179.42659411764907 43.460555344237946,183.72779180068756 44.19999999998254,183.70900970782532 44.01513883608277,182.5632949156643 42.46230505895801,179.08850032879855 41.93236972231534,176.8532939891811 41.895397489512106,176.1395193722492 43.016888550744625,175.66992783902242 43.17710155950044,175.36938802083023 41.1682769113977,167.46108714922593 40.08375808291021,165.31953199392592 38.87599847849924,163.76029871826177 34.30376569033251,159.68362628155592 31.06253328261664,157.93642656994052 27.291365538229,157.10978307708137 23.261392164306017,157.07220819930808 20.10642829973949,157.67340443271678 18.245492582733277,157.65461710891395 12.502472422958817,158.3497455773395 12.465500190184684,159.0636559253544 12.243666793423472,159.3454611420966 11.886268543166807,159.21395214655786 11.799999999988358,159.81513461681607 11.886268543166807,160.7732611939864 12.391555724578211,161.39322022109263 14.412704450340243,162.63312595072784 17.703233168518636,163.55365139415517 18.393381513858913,165.15045976230613 18.41802966906107,166.78481186956196 21.363484214496566,167.59258455259987" stroke="#4dd2ff" stroke-linecap="round" stroke-linejoin="round" stroke-width="0.5"><title>2022-05-01 6.0km</title></polyline><polyline fill="none" points="55.17236662103096,163.52125756176974 55.08372093021171,163.27352825915295 57.07824897405226,163.476215911076 58.43748290016083,162.98075655966386 58.52612859098008,163.61134080890042 58.51135430915747,162.98075655966386 59.693296853627544,162.53033706819406 60.609302325581666,163.1834447406727 61.96853625169024,163.3410908504593 62.943638850876596,163.90411086233507 64.27332421339815,163.83654861016112 64.58358413132373,164.44460741477815 66.66675786592532,163.13840295434056 67.06566347467015,163.22848650901142 68.27715458278544,165.09770394045336 68.01121751026949,168.1379308144824 68.76470588240772,169.78187101845833 69.85800273600034,171.58342165357317 72.32530779752415,173.88035674817365 77.28946648427518,180.11787455719605 79.56470588239608,186.51265908208734 80.19999999995343,186.35504553555802 80.1261285909568,185.4543924497557 77.4963064295589,178.18135380839522 77.64404924761038,177.12300857302034 79.01805745559977,176.33487265546864 77.15649794804631,168.40816921512305 75.54610123124439,164.60225175193045 72.47305061557563,160.86376922160707 68.27715458278544,157.3729049570029 63.87441860465333,155.23328928159754 61.037756497913506,154.5350900701087 56.9896032831748,154.28734091791557 52.51299589598784,154.73779351473058 52.01067031460116,155.05310925600497 52.82325581397163,155.8413947308145 54.74391244869912,156.40445239204564 59.91491108073387,155.79634999579866 61.24459644325543,156.08914045002894 63.66757865936961,158.18369602192251 65.13023255812004,157.68821328984632 66.01668946648715,158.7692637013315 68.88290013681399,161.04393991237157 70.70013679895783,163.9941938019765 68.35102599178208,165.34542921402317 67.96689466480166,167.30469164680107 68.1885088919662,168.63336738510407 70.28645690833218,172.05632390059327 72.67989056091756,174.2406560246818 77.4963064295589,180.59074082430016 79.50560875510564,186.49014287473983 80.17045143642463,186.37756177007395 80.1113543091924,185.4543924497557 78.45663474692265,181.4013640731646 77.5110807113233,177.59588746546797 77.68837209302,177.16804474387754 79.00328317371896,176.33487265546864 77.34856361150742,169.12880176727776 75.50177838577656,164.44460741477815 72.22188782488229,160.57099123171793 68.12941176473396,157.2152504581536 64.46538987691747,155.39094656652014 58.7477428180282,154.4224768869317 56.82708618330071,154.30986359069357 51.345827633398585,155.1206767995027 48.06593707250431,155.25581176443666 47.79999999998836,157.3278608370747 50.29685362521559,158.56656754291907" stroke="#4dd2ff" stroke-linecap="round" stroke-linejoin="round" stroke-width="0.5"><title>2022-04-30 10.1km</title></polyline><polyline fill="none" points="95.0813714285614,165.44359160821477 96.88342857145471,165.55647898984898 99.05577142856782,164.7662644621014 101.83291428568191,165.989212692999 102.93142857143539,165.8763258327017 103.25234285715851,166.32787245803775 105.25188571427134,165.25544566982717 106.31337142857956,167.00518831601948 105.98011428571772,169.07473421424947 106.83177142855129,171.1442344052848 108.23885714283097,173.13843680209538 109.73234285711078,174.36127577142906 113.97828571428545,179.79801276772196 115.47177142853616,184.40676423258265 115.66925714284298,184.7641681415189 116.20000000001164,184.63249317576992 116.02719999995315,183.16524532637413 113.97828571428545,177.59701883466187 114.05234285714687,177.0138408388084 115.11382857139688,176.59997038191796 115.2496000000101,176.31778493146703 113.74377142853336,169.77084392531106 112.37371428569895,166.74178828632284 108.85599999997066,162.6401780039305 105.9677714285499,160.3070718606541 103.20297142854542,158.91470664292865 99.00640000001295,158.0115397623813 96.1922285714245,157.9362754626418 93.25462857144885,158.2185162747628 92.04502857144689,158.61365198337444 90.71199999999953,158.53838816738426 84.935542857158,159.21576033512974 84.58994285712834,159.30983941556042 84.3801142857119,159.9872060061607 83.79999999998836,159.91194329351129 83.92342857143376,158.40667634386773 88.7124571428576,158.03035582783923 88.7741714286094,156.65677311748004 89.19382857144228,156.03583185847674 89.99611428572098,156.5062422810879 89.29257142858114,157.86101110248273 89.00868571427418,160.55167442432867 91.62537142861402,161.39837067549524 89.99611428572098,164.87915265982156 90.4404571428604,166.30905805873044 90.36639999999898,167.66368515080103 92.57577142861555,168.24692134001089 94.3408000000054,169.41338282776996 95.79725714283995,167.56961445769412 94.43954285717336,166.85467410399724 94.69874285714468,165.70699528720434 95.03200000000652,165.5941080868506" stroke="#4dd2ff" stroke-linecap="round" stroke-linejoin="round" stroke-width="0.5"><title>2022-04-28 7.1km</title></polyline><polyline fill="none" points="138.42273180457414,167.6064599949823 138.53579262216226,167.72956121542302 138.7215353938227,167.58183972122788 139.71485543370363,167.6064599949823 140.96660019940464,167.15098333001515 141.65304087739787,167.6064599949823 142.1618145563698,167.63108025881593 142.69481555334642,167.92652265401557 143.45393818544107,167.92652265401557 143.72851445662673,168.2588936467946 144.98025922235684,167.47104836698418 145.62632103692158,168.66512241314194 145.44865403790027,169.99457955664548 145.88474576271256,171.1762950383163 146.47427716851234,172.14873131976856 147.87946161517175,173.46580396984064 150.64945164506207,176.99837314147953 151.62662013957743,180.01381994987605 151.8608175473637,180.28458750936989 152.20000000001164,180.16151149420693 152.1030907278473,179.5830509137195 151.1824526420969,177.50300926613636 150.6333000997256,175.57059965568988 150.67367896312498,175.07825626173144 151.48125623131637,174.73361353358268 150.27796610168298,169.71145684023577 149.58344965107972,168.38199355722827 147.7825523429783,166.20308861066587 146.34506480558775,164.9227919572004 144.85912263210048,163.9379301830013 143.55084745763452,163.27313954093916 141.4834496510739,162.76838627574034 139.35144566302188,162.6575862222562 137.1871385842678,162.829941774522 137.01754735794384,162.38674080388228 134.93399800601765,161.03249576235248 133.09272183451685,160.55234715471306 129.0225324027997,160.8478236660194 128.5622133599245,161.03249576235248 127.60927218347206,160.87244664434184 127.07627118643722,161.10636444513148 124.77467597209034,162.89149721146168 123.54715852445224,163.42087141775846 120.40568295118283,163.29776154513456 120.06650049850577,163.13771834113504 119.79999999998836,163.4947372226634 123.41794616152765,163.71633410333743 124.1528414755885,163.53167009172466 125.3157527417934,162.90380829142305 127.63349950150587,160.87244664434184 128.2311066799739,160.94631551995553 129.69282153539825,160.61390487864992 133.48035892326152,160.5154124906294 135.72542372884345,161.26641295245645 137.09022931207437,162.49754134695468 137.049850448675,162.85456395668734 136.3714855434082,163.15002937167446 136.4603190428752,163.75326683889944 136.18574277171865,164.91048128268085 135.62043868395267,165.6121857853177 134.82901296115597,167.4218077008154 135.26510468596825,168.11117342802754 135.24895314060268,169.10827799756225 136.3068793619168,169.3421643756701 137.87357926223194,170.2038433328089 138.76999002991943,168.91132035549163 140.40129611169687,167.975762914808 141.46729810570832,167.59414985933108 140.36091724826838,166.68319296253685 139.553339980077,167.02788094781135 138.43888334996882,167.06481168842947 137.9543369890307,168.33275362271525 138.16430707878317,168.6158827060608 138.82652043868438,168.9359400953872 139.82791625126265,168.27120364896837 139.62602193420753,167.8403521024993 138.48733798606554,167.80342182905952" stroke="#4dd2ff" stroke-linecap="round" stroke-linejoin="round" stroke-width="0.5"><title>2022-04-27 10.1km</title></polyline><polyline fill="none" points="162.28588908544043,163.55843790309154 163.95074053521967,163.42248552314413 167.19125496427296,162.44815534003283 167.9344922185992,163.03728622369817 169.43583147245226,163.33185051215696 170.37231041293126,163.96629406030843 171.66554323554737,164.01161132012203 172.06689135287888,164.46478291725361 174.237144135579,163.08260385660105 174.98038138996344,163.5131204612917 175.78307762468467,165.12187850055489 175.5601064483635,168.06743237263436 176.33307319291634,169.92535758035228 178.3398137796903,172.6668742745387 179.91547675890615,173.9583094760601 184.98435483372305,180.52854042113904 186.91677169507602,186.59999999999854 187.76406216504984,186.41876712995872 187.71946792979725,185.73914127528406 185.80191581347026,180.84571430567303 185.1478670296492,178.26298675115686 185.05867855908582,177.31144064754335 186.5748825580231,176.47316719475202 184.7316541672335,168.36198353123473 183.00734373705927,164.69136803335277 179.75196456298,160.77138137505244 177.07631044724258,158.39213231409667 175.47091797785833,157.19115897425945 171.0114944516681,155.01577849286696 165.03586692659883,154.1999999999971 159.84807089110836,154.60788998367207 158.80753873504,155.01577849286696 158.95618618594017,156.14879439338256 158.42105536273448,158.16553454913083 157.49944116733968,159.27585924994492 156.84539238346042,161.1565884093361 156.23593783495016,161.9723166117692 157.18728152051335,161.99497564430203" stroke="#4dd2ff" stroke-linecap="round" stroke-linejoin="round" stroke-width="0.5"><title>2022-04-25 5.0km</title></polyline><polyline fill="none" points="30.406903451686958,208.51403482560272 31.825112556281965,208.40285586482423 32.975887943961425,207.89637138990656 33.470235117536504,208.2669701954619 34.223911955952644,208.39050263456738 34.66963481737184,208.64991994926095 35.38279139570659,208.63756676861885 35.71505752875237,208.95874865956648 37.00360180088319,208.180497340516 37.66813406703295,209.25522276300035 37.49794897445827,210.71286632466945 37.91935967982863,211.86166276323638 38.77028514255653,213.158665220064 39.96968484239187,214.22095162644837 42.725062531244475,217.7658909752754 43.851525762845995,221.11301557648767 44.19999999998254,220.98950867891108 44.1756878439046,220.50782940968202 43.673236618284136,218.9269068492904 43.170785392663674,218.0376200584251 42.733166583260754,216.45663402695573 42.69264632315026,215.9625675609568 43.55977988993982,215.54260794544825 42.4738369184488,210.94756841589697 41.62291145569179,209.09463280098862 40.61800900447997,207.80989801405303 39.40240120058297,206.50042918062536 37.54657328661415,204.99327017301403 35.69884942469071,204.05436556816494 32.93536768382182,203.44901158034554 31.136268134054262,203.38724043034017 29.27233616806916,203.64667884359005 29.037318659306038,203.0783837498784 26.922161080525257,201.76881419848723 24.928564282134175,201.2869844235138 21.52486243119347,201.4970132509552 20.59289644821547,201.76881419848723 19.344872436195146,201.70704136132554 17.497148574271705,203.2019266081261 16.05462731362786,204.01730325027893 15.065932966477703,204.21496868756003 12.407803901936859,204.06671966914655 11.953976988472277,203.8814078937794 11.799999999988358,204.1902605426294 14.612106053013122,204.4744036101074 15.900650325143943,204.363217348724 17.164882441196823,203.72080390357223 19.352976488211425,201.85529606631098 19.71765882940963,201.70704136132554 20.71445722860517,201.80587787103286 22.88634317155811,201.5711409012074 25.033916958462214,201.62055928507834 26.144172086002072,201.79352331599512 27.157178589288378,202.2753491235053 27.489444722334156,201.94177781255712 25.820010004972573,201.3981762450312 23.583291645802092,201.36111232684925 20.981890945433406,201.59585009811053 20.17148574287421,201.81823242356768 21.88144072034629,201.74410507106222 22.96738369180821,201.5093678655503 23.607603801880032,201.6699776292662 25.131165582773974,201.59585009811053 26.549374687310774,202.01590492686955 26.995097548759077,202.4606657369368 26.533166583278216,203.49842845571402 26.338669334654696,205.0797475080326 27.96758379190578,205.5986089653743 27.12476238119416,207.64930427927538 27.935167583753355,207.37752931155774 29.36958479238092,207.41458960511227 30.41500750373234,207.68636440910632 30.24482241118676,208.2669701954619" stroke="#4dd2ff" stroke-linecap="round" stroke-linejoin="round" stroke-width="0.5"><title>2022-04-22 10.1km</title></polyline><polyline fill="none" points="64.63583617750555,208.17389970067234 65.92593856656458,208.15985301548426 66.01808873721166,207.89296546062906 67.38191126281163,207.5137024469659 67.98088737204671,207.9351056685373 68.83788395908778,208.0615261400526 69.42764505121158,208.41269291763456 70.11877133106464,208.35650635170168 70.45051194541156,208.74981136573115 71.98020477817045,207.87891871902684 72.7819112628058,209.1571606563375 72.6160409556469,210.77248793914987 73.08600682596443,212.07876881248376 74.09965870308224,213.52548152922463 75.35290102392901,214.6491212500514 78.53208191125304,218.7362085278619 79.75767918091151,222.38769967967528 80.20000000001164,222.38769967967528 79.9880546075292,221.10969945396573 79.1955631399469,219.36821101871828 78.54129692836432,217.1210651131878 78.52286689419998,216.65758229168932 79.33378839591751,216.29241184552302 79.48122866894118,216.05364552324681 78.4030716723646,211.4186084089124 77.82252559729386,209.83138875290751 77.29726962459972,208.86218382075822 75.2976109215233,206.43208922543272 72.55153583621723,204.11429029211286 70.4412969283585,203.06071993436126 68.20204778158222,202.55500052626667 65.59419795224676,202.37237873035338 63.189078498311574,202.6252395515803 62.875767918128986,201.9930857846848 60.553583617758704,200.5180381115715 58.314334471011534,200.01230032032618 51.7440273037646,200.5180381115715 49.55085324234096,202.35833088016443 47.827645051205764,203.15905383917925 47.79999999998836,203.56643568645086 49.467918088746956,202.75166961942887 52.204778156999964,200.40565225171304 54.75733788398793,200.5039898889445 55.853924914699746,200.22302484435568 56.79385665533482,200.40565225171304 58.839590443705674,200.36350750772908 59.91774744031136,200.7006647486669 60.59965870308224,201.19234947873701 60.08361774744117,202.45666577232987 59.91774744031136,204.38119226363415 61.751535836199764,204.929040488365 60.76552901024115,207.21871868144808 62.29522184302914,206.75517025102454 65.23481228671153,207.3591872963334 66.79215017065872,206.85349896263506" stroke="#4dd2ff" stroke-linecap="round" stroke-linejoin="round" stroke-width="0.5"><title>2022-04-21 8.1km</title></polyline><polyline fill="none" points="100.29488054607646,208.15986446339957 101.8061433447001,208.0615376669557 102.18395904434146,207.9070238504828 102.34061433444731,207.59799519357693 102.23924914674717,208.0755843606421 103.36348122864729,207.51371441390074 105.34470989761758,208.34247100444554 106.19249146757647,208.32842436437204 106.45051194538246,208.693636089778 107.9064846416004,207.79464995138187 108.7266211604001,208.9886133992186 108.57918088734732,210.82868186919586 109.1505119453941,212.16305239312715 109.83242320819409,213.23053048764632 111.47269624573528,214.80362641260945 114.61501706484705,218.83452327689156 115.80375426620594,222.44387495562478 116.19999999998254,222.33152440372214 116.06177474404103,221.64337333674484 115.08498293513549,219.28394686443062 114.50443686006474,216.81208140614763 114.60580204776488,216.55927206153137 115.41672354948241,216.23623656956988 115.10341296927072,214.31203773578454 114.25563139931182,210.927004776393 113.27883959040628,208.87624123751084 111.16860068257665,206.30567874648114 108.54232081910595,204.1423999592953 106.54266211602953,203.11692625262003 104.70887372014113,202.59715986600713 101.71399317405303,202.34429914631255 99.02320819112356,202.6112076569516 99.00477815698832,202.45668180123903 98.87576791807078,202.00715009827036 96.41535836175899,200.44781461299135 94.16689419795875,199.95612504437304 89.93720136518823,200.23709093537764 88.94197952214745,200.50400748649554 88.2508532423235,200.30733223177594 87.83617747441167,200.40566992825916 85.56006825936493,202.21786844374583 83.8184300341236,203.06073547812048 83.79999999998836,203.48216518684785 85.45870307166479,202.65335101288292 88.17713310581166,200.40566992825916 89.34744027303532,200.56020031484877 91.82627986348234,200.2932839781206 94.22218430030625,200.2932839781206 95.63208191125887,200.546152112016 96.62730375424144,201.248558798663 96.05597269625287,202.44263397926989" stroke="#4dd2ff" stroke-linecap="round" stroke-linejoin="round" stroke-width="0.5"><title>2022-04-19 7.2km</title></polyline><polyline fill="none" points="124.04501831246307,203.16030606724235 124.09183938958449,202.898614012709 126.38607216771925,202.75587264851492 128.69591197156115,201.89942085169605 132.25431383156683,203.46957774998737 133.67455317039276,203.37441731816944 133.98669368441915,203.99295875870303 136.34335456538247,202.47038940409402 136.87399343925063,202.898614012709 137.8416290328023,204.6590766987356 137.51388149306877,207.5851932912483 138.3098398038419,209.55968641814252 139.46475970576284,211.3914156807441 142.1491681264597,213.9367586802764 147.61162712209625,221.00158311891573 149.62493343756068,227.281073469283 149.8590388231096,227.281073469283 150.28042851708597,227.09079077201022 150.2180004142574,225.83016018461058 148.11105194449192,220.73993046590476 147.4399498393177,217.71898981011327 149.0786875380436,216.5058344861609 147.33070065942593,208.86980701725406 145.55149972939398,204.30222826803947 142.03991894650972,200.13891715995123 137.35781123605557,196.14200085435004 135.75028758874396,195.3806681745191 134.79825902095763,195.0 134.64218876394443,196.8795372224631 135.3757189719472,197.83119026802888 138.45030303520616,200.376824592895 140.35436017077882,203.0413552050013 141.82142058672616,205.4679291627399 142.50812971760752,208.13234528471367 146.98734609398525,207.4900361648688 147.86133953323588,210.03546297495632 149.1567226665211,216.5771969079069 147.70526927622268,217.62384082181234 148.86018917820184,222.0719743194495 150.62378308246844,226.99564930881024 149.78100369457388,227.40000000000146 149.2035437436425,226.61508269191836 147.5960200963309,221.92925605136406 146.62838450283743,220.0501161567372 142.39888053765753,214.50766922874027 139.2930824230425,211.48656967385614 137.31099015893415,208.03718859783112 137.20174097904237,207.10940689522977 137.66995175008196,204.96834446927824 140.16707586229313,203.44578764916514 141.79020653531188,205.4441394631067 142.60177187179215,208.1799235995859 146.62838450283743,207.20456432729407 145.17693111259723,203.9691687630475 141.00985525018768,199.2110736065879 137.31099015893415,196.21337554228376 134.81386604666477,195.02379179670243 134.72022389242193,197.16503393877065 136.12485620559892,198.54492503590882 134.81386604666477,199.6393099956549 133.19073537364602,199.2110736065879 132.62888244836358,199.5917282510709 131.75488900911296,200.66231288194103 131.97338736895472,202.73208240440727 128.0560239178012,203.37441731816944 127.19763750419952,204.23085845290188 124.7629414947587,205.63445692569076 122.95252651331248,207.94203183447098 121.37621691747336,207.0856175252993 123.68605672131525,201.51877362137748 125.71497006254504,201.54256410912058 127.75949042948196,200.75747549200605 128.66469792014686,201.89942085169605 126.69821268174564,203.0889355642139 123.62362861848669,203.18409622530453" stroke="#4dd2ff" stroke-linecap="round" stroke-linejoin="round" stroke-width="0.5"><title>2022-04-10 10.4km</title></polyline><polyline fill="none" points="158.596269832924,203.22100822642824 158.76972987042973,202.9565986204252 160.70932847104268,203.07678487735393 163.54776544764172,201.99510422095773 164.50968020077562,202.71622574450157 167.0800425740308,203.58156583891832 168.51503015658818,203.43734292421868 168.73579747695476,204.11038170610846 171.25885256723268,202.66815111142205 172.69384014984826,204.6151583093888 172.4257655465044,207.66780955261493 173.18268207355868,209.61473543889588 174.90151335386327,212.25865816976875 177.3457229725318,214.49392910977622 182.62836956779938,221.31965948038123 184.56796816841234,227.37596764136833 185.403730167076,227.40000000000146 182.53375500184484,218.48366383469693 182.5179859075579,217.73860298845102 184.1895099048852,216.89739968592767 182.18683492700802,207.860099938247 180.57838730694493,204.56708443885873 177.15649384079734,200.3605460183171 172.2523055090569,196.20193702516553 169.69771223014686,195.0 169.6188667585957,197.33174682500248 173.40344939404167,200.3605460183171 175.2799716173904,203.65367723107192 172.83576199866366,204.92763799709792 171.35346713312902,202.76430035837257 168.92502660874743,204.1824927797279 166.02351325494237,203.05274763563648 164.76198570983252,202.9565986204252 163.15353808976943,203.4133057549043 161.1666322061792,204.83149048777705" stroke="#4dd2ff" stroke-linecap="round" stroke-linejoin="round" stroke-width="0.5"><title>2022-04-09 5.2km</title></polyline><polyline fill="none" points="14.578421893704217,244.0030555428093 16.34587250847835,243.85872510921763 16.393214935669675,243.61817400013388 19.65984241128899,242.6800200596408 20.559348527807742,243.52195342132472 22.011182961403392,243.7143945017233 23.100058786571026,244.29171588832105 24.457208365842234,244.29171588832105 24.851728592358995,244.86903449277452 27.266192378709093,243.3295120317125 27.976328786404338,243.97900048266456 28.78115004854044,245.49445984140038 28.497095485392492,248.45315857868263 29.27035512943985,250.52179884474754 31.22717545297928,253.28794803642086 33.42070791241713,255.26029367287265 38.64415571157588,262.1151448819801 40.695660889556166,268.1999999999971 41.42157810635399,268.07974893948995 41.27955082478002,266.6848278169273 39.685689109610394,262.95694167619513 38.54947085719323,258.6516901318246 38.80196380219422,258.2187512482342 40.174894190509804,257.56933998961176 39.33851131028496,253.07146909883886 37.571060695452616,246.93773664641049 36.5295272974181,244.8930893742363 34.68317263730569,242.6800200596408 30.217203673091717,238.37403977962822 28.41819144017063,237.0028292109564 25.76701551792212,235.79999999999563 25.561865000112448,237.41178839141503 25.845919563202187,238.30187119363836 29.223012702248525,241.04424689854932 31.369202734553255,244.29171588832105 28.97051975724753,245.61473357263458 27.218849951517768,243.49789826455526 25.056879110168666,244.82092471532815 21.837594061682466,243.7384496150844 18.949706003593747,244.17144082888262" stroke="#4dd2ff" stroke-linecap="round" stroke-linejoin="round" stroke-width="0.5"><title>2022-04-07 5.0km</title></polyline><polyline fill="none" points="50.57260540826246,243.17970290628 50.43068344541825,243.46815111029719 50.824911119940225,243.7085240826491 52.66989663627464,243.7085240826491 55.87102535285521,242.77106676087715 56.832940878521185,243.51622574334033 58.52023532515159,243.78063588022633 59.13523049734067,244.18926857945917 60.585988339269534,244.2613800874533 60.885601371875964,244.8382705877375 63.37712027441012,243.3479644430554 64.134037409327,243.97293379480107 64.9855691861012,245.67956425068405 64.71749436750542,248.75624501367565 66.08940667461138,251.52038295530656 67.46131898165913,253.3230472297655 69.33784271212062,254.81322920280945 74.90433747530915,262.0956259002123 76.84393763361732,268.1999999999971 77.56931655463995,268.1279029095167 77.52200923371129,266.9022457297251 75.06202854507137,261.25444758989033 74.5889553357847,258.46650007842254 76.16586603358155,257.76950305629 76.2762497824151,257.0965365639786 74.49434069386916,249.6936554675267 73.3274267775123,246.2804846759609 72.01859089836944,244.42964010391734 71.13552090758458,244.93441873419943 71.6401323308819,244.09311983453517 69.14861342834774,240.92016792865616 64.63864883262431,237.14616865690186 61.86328600445995,235.79999999999563 61.70559493469773,237.43463139962114 62.00520796730416,238.3240538135724 65.34825864661252,240.89613009328605 67.66631737240823,243.99697101239144 66.18402131646872,245.17478876240784 65.01710740011185,245.63149048635387 63.62942598602967,243.58833765674353 63.04596902785124,243.68448680709116 62.57289581850637,243.15566552461678 61.81597868358949,240.60767569175368 63.282505632494576,239.23750779247348 65.37979686062317,240.9922814059537 67.65054826543201,244.09311983453517 65.30095132568385,245.55937980372983 65.03287650708808,245.60745359690918 63.424427595338784,243.44411378647055 61.07483065559063,244.8382705877375 60.522911911364645,244.3815658375679 59.087923176412005,244.23734292290465 55.69756517611677,242.96336629717553 53.97873251547571,243.80467313648114 51.70798111066688,243.9488965724231" stroke="#4dd2ff" stroke-linecap="round" stroke-linejoin="round" stroke-width="0.5"><title>2022-04-03 6.2km</title></polyline><polyline fill="none" points="113.91803278680891,257.248112547808 114.606557377032,254.39921011157276 114.39016393444035,253.22964495429187 116.19999999995343,252.3299732154992 116.19999999995343,251.4602853825636 110.77049180329777,247.98148339973704 107.6819672131096,247.1417604341259 101.05245901632588,247.23173097778636 95.07213114754995,248.16142342088278 92.45573770487681,247.9514933751634 87.77377049176721,251.73018904510536 83.97704918024829,253.61950102448463 83.79999999998836,254.42919884127332 87.10491803276818,253.01972203339392 92.5540983605897,248.22140337976452 93.65573770483024,247.86152326516458 98.39672131143743,247.92150334449252 101.22950819670223,247.29171131001203 108.01639344258001,247.8915133077826 111.39999999996508,249.33102827308176 112.12786885240348,248.82120164323715 111.47868852451211,248.16142342088278 106.12786885240348,247.05178983643418 96.86229508195538,247.7115729614743 95.05245901632588,248.25139335010317 92.65245901636081,247.9514933751634 86.71147540980019,252.5998753063177 83.79999999998836,253.76944539591204 84.07540983601939,254.42919884127332 87.63606557372259,252.6598534823861 92.43606557376916,248.37135317148932 93.89180327864597,247.83153321652208 94.77704918029485,247.98148339973704 97.98360655736178,247.2017408025713 106.85573770484189,246.75188745217747 112.14754098362755,248.3113732727652" stroke="#4dd2ff" stroke-linecap="round" stroke-linejoin="round" stroke-width="0.5"><title>2022-03-24 5.1km</title></polyline><polyline fill="none" points="139.0297297379002,267.43606837131665 138.13512450034614,267.23598997467343 136.85882102808682,268.1999999999971 136.28627367605804,267.90897918734845 136.0,267.181423062495 135.63022983513656,263.88915850172634 135.20081932109315,262.8705330578523 134.68791231827345,262.5067354786079 131.71782292949501,262.4339757873531 130.20295806054492,260.97876968008495 144.86255588685162,241.38577963197167 137.83692275447538,235.8000000000029 127.13744411317748,257.6317068519711 133.7336667315103,264.3620878472866 134.1392211058701,264.03467548662593" stroke="#4dd2ff" stroke-linecap="round" stroke-linejoin="round" stroke-width="0.5"><title>2021-10-26 5.0km</title></polyline></svg>