<?xml version="1.0" encoding="utf-8" ?>
<svg baseProfile="full" height="300mm" version="1.1" viewBox="0,0,200,300" width="200mm" xmlns="http://www.w3.org/2000/svg" xmlns:ev="http://www.w3.org/2001/xml-events" xmlns:xlink="http://www.w3.org/1999/xlink"><defs /><rect fill="#222222" height="300" width="200" x="0" y="0" /><text fill="#FFFFFF" style="font-size:12px; font-family:Arial; font-weight:bold;" x="10" y="20">Over 5km Runs</text><text fill="#FFFFFF" style="font-size:4px; font-family:Arial" x="10" y="280">ATHLETE</text><text fill="#FFFFFF" style="font-size:9px; font-family:Arial" x="10" y="290">Wenz</text><text fill="#FFFFFF" style="font-size:4px; font-family:Arial" x="120" y="280">STATISTICS</text><text fill="#FFFFFF" style="font-size:3px; font-family:Arial" x="120" y="285">Number: 21</text><text fill="#FFFFFF" style="font-size:3px; font-family:Arial" x="120" y="290">Weekly: 2.3</text><text fill="#FFFFFF" style="font-size:3px; font-family:Arial" x="141" y="285">Total: 156.0 km</text><text fill="#FFFFFF" style="font-size:3px; font-family:Arial" x="141" y="290">Avg: 7.4 km</text><text fill="#FFFFFF" style="font-size:3px; font-family:Arial" x="167" y="285">Min: 5.0 km</text><text fill="#FFFFFF" style="font-size:3px; font-family:Arial" x="167" y="290">Max: 15.0 km</text><polyline fill="none" points="19.236644216580316,41.816927395739185 19.33546615188243,42.34415744090802 20.620151310402434,42.39436971022951 22.398946145316586,42.14330816199072 24.60596936638467,41.26458877338155 25.330663558386732,41.89224610970268 27.060047425620724,42.16841433953232 28.31179193907883,42.89649129427562 29.61294742010068,42.796067138784565 30.008235161192715,43.39861086189194 32.51172418810893,41.816927395739185 33.3352403154131,42.46968807635858 34.142286120099016,44.051363285281695 33.71405773394508,47.13933817281213 34.78462869935902,49.54941192699334 36.579893856775016,52.110064393309585 38.80338740046136,53.99286363541614 44.63388158142334,61.52377712306043 46.742082867305726,68.0 47.51618802692974,67.84939397486596 47.40089576900937,67.1214622960324 44.749173839227296,60.695398840281996 44.33741577563342,58.0094072705906 44.502119001117535,57.557552552178095 45.935037062561605,56.98018025817146 46.03385899780551,56.277288649791444 43.51389964838745,46.18533781183214 42.32803642511135,43.77519921435305 37.76575708005112,38.40243137697689 33.730528056505136,35.26402558938571 29.28354096924886,33.104756662294676 24.06244872242678,32.100432827181066 20.570740342722274,32.0 16.535511319176294,32.45194708714553 15.333177773398347,32.92900057353836 15.464940353762358,33.90820992175577 14.822597774444148,36.69514839952899 13.966141002136283,37.52368569718237 12.48381197307026,40.8628864245984 15.333177773398347,39.95905142107222 17.754315187514294,40.18501078453846 19.38487711950438,40.83777998499136 19.022530023474246,41.79182114761352" stroke="#4dd2ff" stroke-linecap="round" stroke-linejoin="round" stroke-width="0.5"><title>2022-05-16 5.4km</title></polyline><polyline fill="none" points="79.65917789982632,46.89825639218907 80.4769512398052,46.96674838292529 82.25628224329557,46.39141352342995 82.67864869363257,46.76127220438502 83.62223331670975,46.939351594875916 84.09851888837875,47.227017320663435 84.89831918789423,47.199620637133194 85.17690131469863,47.56947493644839 86.6237310700526,46.73387533384084 87.44150441008969,47.96672361713718 87.2617740056885,49.74746513971695 87.98069562323508,51.26790765370606 88.92428024631226,52.55546310538921 89.99367615245865,53.445779792415124 93.1119986686972,57.417820392707654 94.26227325681248,60.9239813233944 94.66666666665697,60.89659013939672 94.64869362625177,60.499416735859995 93.36362123483559,57.08910856791044 93.013146946294,55.623582412528776 93.0760525878286,55.33595208848783 93.92078548847348,54.925049522145855 93.94774504913948,54.66480995016536 92.6357130970282,49.3091330774223 91.82692627725191,47.72015574280522 89.69712098519085,45.19963302212636 86.8214345149172,42.89820485616656 85.17690131469863,42.0762474089388 83.55932767517515,41.65156551412656 80.6476951240038,41.377575791815616 78.03261774007115,41.61046712594543 77.84390081546735,41.08988539901475 76.60376102515147,40.185707694236044 75.38159427526989,39.500716605798516 73.62023631221382,39.07601867660924 69.48643701116089,39.33631772107765 68.4889332667808,39.59661577226143 67.12298219339573,39.51441649499611 64.40006656685728,41.61046712594543 62.9172907305765,42.268038365789835 59.33166916292976,42.14474424113723 58.84639707105816,41.898155323309766 58.77450490932097,42.02144989364024 58.666666666656965,42.28173769923524 59.18788483942626,42.418730882189266 62.7824929273047,42.59682160878947 64.32817440506187,41.99405111948363 67.50041604263242,39.52811638140702 69.27076052589109,39.651415235421155 70.58279247797327,39.445917021566856 73.41354634717572,39.47331681918513 74.4919287735247,39.61031564218865 75.73206856384058,40.185707694236044 76.12747545351158,39.81581336077579 74.25827924782061,39.199318347786175 73.14395074057393,39.07601867660924 69.36062572809169,39.30891786839493 68.03960725577781,39.651415235421155 69.97170910303248,39.59661577226143 71.09502413048176,39.33631772107765 73.42253286737832,39.43221711865044 74.6536861374625,39.692514803889935 75.83990680644638,40.19940744587075 76.37909801964997,39.80211353213599 77.26876352139516,40.71999596833848 77.88883341653855,41.02138750762242 77.92477949743625,41.555669236495305 77.16991179899196,41.85705708369278 77.25079048096086,42.268038365789835 79.01214844401693,43.10369267053102 80.6476951240038,42.98040005615985 80.7106007655384,44.8708623233033 80.30620735566481,45.117440495956544 80.28823431520141,45.54210081521887" stroke="#4dd2ff" stroke-linecap="round" stroke-linejoin="round" stroke-width="0.5"><title>2022-05-14 9.9km</title></polyline><polyline fill="none" points="120.82824168363004,45.80085318131751 121.98913781400188,45.87536201423791 124.42090970807476,45.01850682265649 125.54514596058289,45.70771705603693 126.24168363880017,45.76359874245827 127.06042090969277,46.24790528116864 127.81805838423315,46.173396747457446 128.55125594025594,46.65770114681072 130.35980991172255,45.446935407759156 131.50848608280648,47.21651077354909 131.25186693822616,49.47034210117272 131.91174473863794,51.03495313668827 132.73048200950143,52.45053086032567 134.86897488118848,54.443478675537335 139.21928038014448,60.03095455563016 140.91785471825278,64.89178486029414 141.28445349627873,64.7614210873653 141.33333333334303,64.05372883816744 139.91581805836176,60.60830788110616 139.14596062453347,57.36763302456529 139.25594025795,57.06963425122376 140.44127630683943,56.47363383307675 139.07264086898067,50.51341905681329 137.5451459605829,46.84397139638895 134.2824168363877,42.988100967493665 131.31296673452016,40.62234267650638 128.1602172437124,39.0948131425539 125.01968771216343,38.44281116970524 122.44127630686853,38.23789531741204 118.7875084860425,38.57321193085954 118.48200950439787,37.902577491848206 116.83231500341208,36.69169747449632 115.08486082823947,35.70435283843835 113.71622539038071,35.27587925469561 112.02987101150211,35.10821513971314 106.24983027830604,35.55531877290923 105.33333333334303,35.890645083571144 112.38424983026925,35.57394804418436 114.68160217240802,36.132824442946 115.42701968768961,36.74758459250006 114.69382213166682,38.23789531741204 114.40054310928099,40.8458814741025 116.74677528854227,41.77728733243566 115.46367956549511,44.70184094453725 117.43109300744254,44.10576106506778 119.82620502376813,44.34791897802643 120.5227427019563,44.60870371587225 120.40054310931009,45.70771705603693" stroke="#4dd2ff" stroke-linecap="round" stroke-linejoin="round" stroke-width="0.5"><title>2022-05-12 7.0km</title></polyline><polyline fill="none" points="165.03969465647242,43.80152429611189 166.57862595422193,43.80152429611189 169.1206106870377,42.921832727435685 169.7251908397011,43.46640457330068 171.85496183205396,44.19947756855254 173.13282442747732,44.24136729840393 173.72366412213887,44.806877004717535 175.89465648855548,43.48734958749992 176.98015267172013,45.24671576781839 176.81526717558154,48.325535181771556 177.7358778626076,50.189538147242274 179.1099236641312,52.13728094078397 180.8687022900849,53.624242894708004 183.54809160303557,56.891296123721986 183.82290076336358,57.68710128517705 185.14198473282158,59.0483328830378 185.9938931297511,60.53519633175165 187.2305343511398,64.76531164444168 188.0,64.5559040306398 185.71908396945219,57.6661591218799 185.59541984729003,56.66093033875222 187.0106870228774,55.78134720756498 185.51297709924984,49.20518118103064 184.50992366412538,46.50338772896066 183.74045801523607,45.03726896907756 180.6488549618225,41.309045582856925 178.16183206104324,39.06785840748489 175.35877862593043,37.20365668784507 173.50381679390557,36.323909473205276 171.49770992362755,35.80024689406855 166.86717557252268,35.234688355565595 162.44274809162016,35.65362090073177 161.2748091602989,36.093498262314824 159.39236641224124,35.98876572539302 152.7969465648639,36.805676724128716 152.6870229007618,37.66447369605885 152.28854961830075,37.62258132493298 152.0549618320656,37.936773698573234 152.0,39.13069608722435 152.2748091602989,39.46582973990735 154.34961832061526,39.382046427737805 157.93587786259013,39.96852820004278 159.4610687022796,40.65973462694092 159.03511450384394,42.607655369291024 161.3847328244301,41.79078980931081 163.03358778628171,41.937407175733824 164.70992366410792,42.44009372464643 164.43511450380902,43.48734958749992" stroke="#4dd2ff" stroke-linecap="round" stroke-linejoin="round" stroke-width="0.5"><title>2022-05-10 6.0km</title></polyline><polyline fill="none" points="32.8600648540596,87.0169318780354 33.75804440010688,87.00324374433694 35.51808431028621,86.37358662425686 37.44874033422093,87.23594164299357 38.24794213019777,87.23594164299357 38.490396607609,87.55076694744639 39.81940633573686,86.71579230232601 40.043901222234126,86.82529775650619 40.726365677197464,87.86559079797371 40.501870790700195,89.54918932125292 41.03167872285121,90.84950118621055 41.857819905213546,92.1087269323616 43.321526565239765,93.46373735282032 45.79097031679703,96.63900980676408 46.55425293088774,97.82969885129569 47.45223247693502,100.8815999502367 48.0,100.85422924703016 47.69468695434625,99.51305132977723 46.96732352208346,97.87075672332139 46.3656772262475,95.76308734901977 46.347717635304434,95.31143543439975 47.272636567708105,94.79134770499877 45.8717884758953,89.08380852176924 45.18932402096107,87.68764706109505 43.483162883494515,85.55228598801477 41.56148665500223,83.80014489178211 40.4749314043147,83.07463578442184 38.535295584908454,82.07533701304055 36.7393364928721,81.63728361821268 34.09927662755945,81.39087734651912 31.40533798953402,81.59621596812576 31.073085557494778,81.04864493596324 28.873035669705132,79.59756042750087 26.493389872746775,79.04997333980282 22.326764779223595,79.35114678244645 21.671239710616646,79.57018117762709 20.360189573460957,79.52911228214725 18.070341731101507,81.32243100187407 16.2025442753511,82.23960631038426 12.727363432262791,82.14378260171725 12.179595909197815,81.8973781608911 12.0,82.22591721736899 14.92741331999423,82.58183274170369 16.588675480132224,82.45863142438975 18.36667498125462,81.5140805936935 20.593664255400654,79.57018117762709 23.44923921173904,79.58387080393732 24.176602644030936,79.31007775496255 25.083561985520646,79.50173300470124 27.53504614616395,79.57018117762709 29.15140932900249,80.21359064313947 29.65427787473891,79.78921486896797 30.51633823895827,80.65165318713116 31.171863307536114,80.92544084754627 31.162883512093686,81.56883752097565 30.803691693698056,81.80155397114868 31.66575205785921,82.47232047062789 33.596408081793925,82.67765583458095 36.02993265152327,82.34911895532423 36.927912197541445,82.74610081848368 38.20304315286921,83.85489998269986 38.840608630591305,83.60850172704886 41.02269892737968,85.37433621258242 42.37864804189303,87.55076694744639 42.19007233722368,87.34544626160277 40.75330506358296,88.08459783649596 40.45697181340074,89.39862529259699 40.600648540770635,89.93244171187325 41.857819905213546,92.1087269323616 43.15989024692681,93.27212135253649 46.18608131702058,97.07696681551533 47.63182838613284,100.95002666020082 47.89224245445803,100.8405438913178 47.91918184084352,100.41629650145114 46.52731354450225,97.02222234329383 46.230980294320034,95.55779139512015 46.31179845347651,95.32512189999761 47.23671738588018,94.83240740681867 46.07832377150771,89.93244171187325 45.36891993015888,88.09828575306528 42.72886006484623,84.92261546566806 40.81616363179637,83.38948030770916 38.41855824395316,82.07533701304055 35.04215515087708,81.43194512030459 31.342479421262396,81.55514829330059 31.135944125708193,81.03495560381998 29.64529807929648,79.89873145073943 27.89423796455958,79.26900870278041 26.690945372887654,79.07735279869303 22.901471688674064,79.32376743352143 21.37490646043443,79.62493966644979 24.571713644312695,79.41959510653396 24.526814666984137,81.28136316209566 24.266400598629843,82.71872283312769 24.79620853078086,82.89667954106699 24.419057121442165,83.00619113042194 24.481915689684683,84.01916499170693 27.975056123716058,84.40244847330177 29.11549014717457,84.82679552847185" stroke="#4dd2ff" stroke-linecap="round" stroke-linejoin="round" stroke-width="0.5"><title>2022-05-08 15.0km</title></polyline><polyline fill="none" points="71.62557077623205,83.65338318065915 72.62557077626116,83.69514553486079 75.62557077623205,82.73460714533576 78.55707762556267,84.00836265664839 79.61187214610982,83.96660042829171 80.22831050225068,84.55127009976422 81.80365296802483,83.50721480888024 82.5296803653182,83.4236899328389 83.62557077623205,85.21945998507726 83.28310502282693,87.45368873578263 83.99543378996896,89.37466947127541 85.81735159814707,92.04727929507499 87.48858447489329,93.36267922202387 92.22831050227978,99.64713813987328 94.06392694063834,104.90825358001894 94.66666666665697,104.76211507795233 94.61187214610982,104.05229657569726 93.07762557076057,100.29435320444463 92.13242009133683,96.41100240186643 93.55707762556267,95.61761181907059 92.00913242009119,88.6438657646213 91.2009132419771,86.28437874100928 90.18721461182577,84.55127009976422 87.40639269407257,81.25201960702543 84.03652968033566,78.28678111764748 79.76255707759992,75.96882454364822 73.06392694060924,75.09174641998106 59.50228310501552,76.5744217878455 59.392694063921226,77.36795766592695 58.694063926901435,77.66031146304158 58.666666666656965,78.47472127802757" stroke="#4dd2ff" stroke-linecap="round" stroke-linejoin="round" stroke-width="0.5"><title>2022-05-05 5.1km</title></polyline><polyline fill="none" points="120.69090909091756,85.97335269133328 122.30303030303912,86.0842127142605 124.38787878787844,85.32666656207584 127.10303030302748,86.37983878925297 128.09696969695506,86.37983878925297 128.42424242428388,86.78632309149543 130.31515151515487,85.67772531043738 130.47272727274685,85.78858568958094 131.4060606060666,87.39604617813166 131.15151515154867,89.18823913353117 131.74545454545296,91.1282024763932 132.8606060606253,92.84642157004419 134.9454545454646,94.82325761266111 137.0303030303039,97.33581036054238 139.28484848488006,100.75351096277154 140.52121212120983,104.7437467406271 141.33333333334303,104.7437467406271 139.34545454545878,98.00088637014414 139.2969696969667,97.07716839206114 140.2181818181998,96.81852569670446 140.36363636361784,96.52293315478164 138.90909090911737,90.03813286998775 137.35757575757452,86.89718213504239 134.8606060606253,83.81155554766883 131.20000000001164,80.76278094841837 128.09696969695506,79.19216066984518 123.80606060608989,78.41607957685483 118.90909090908826,78.65629585274291 118.49696969697834,77.91716684613493 115.90303030301584,76.0693183530675 113.91515151513158,75.40408381080488 111.85454545458197,75.25625325936562 106.71515151514905,75.6627867043353 105.35757575760363,76.0693183530675 105.33333333334303,76.25410487230693 109.68484848484513,75.93996756871638 109.2969696969958,80.18996959969809 109.91515151516069,80.39322564772738 109.56363636362948,80.4117034479932 109.50303030305076,81.96382542519132 114.2424242424022,82.48119359950215 115.8666666666395,83.03551341543061 116.03636363637634,83.3126720710934 115.49090909090592,84.53216023866844 115.57575757574523,84.8277912999256 117.73333333333721,84.23652822755685 119.23636363635887,84.32891333306907 121.06666666665114,84.93865270305105 122.18181818182347,84.92017581178516 123.23636363638798,84.55063720780163" stroke="#4dd2ff" stroke-linecap="round" stroke-linejoin="round" stroke-width="0.5"><title>2022-05-04 7.1km</title></polyline><polyline fill="none" points="164.61163940659026,83.54098161141155 166.78889311524108,83.49923508376378 168.993533662986,82.72692129913048 171.74591099275858,83.89582641914603 173.19741346515366,84.06281179186772 173.37542791932356,84.58463935293548 175.6622289843799,83.2278822457447 176.90833016354009,85.10646429446206 176.5796880943235,87.59031510802743 177.2917459110031,89.36445792620361 178.98972993536154,91.84820700663113 180.75618105742615,93.39269331825199 185.09699505518074,98.92343582485046 185.7542791936139,100.02954901961493 187.17839482691488,104.80865755632112 188.0,104.78778856424469 187.7945987067651,103.5147721285175 186.06922784328344,99.65388925421576 185.48041080258554,97.17032665464649 185.43933054391528,96.37724374694517 186.68543172307545,95.85547537668754 186.86344617724535,95.52154224536935 184.63141879043542,86.73454127692094 183.4263978698873,84.35503554880415 182.08444275389775,82.62255413139792 177.00418410039856,78.09291809061688 173.40281475844677,76.15158507771412 169.21262837582617,75.23309230786981 164.73488018257194,75.19134244367888 161.22936477747862,75.85933825856773 159.16165842526243,75.83846345434722 152.78052491441485,76.61082841926691 152.7394446557446,77.40406213927781 152.49296310381033,77.71717904677644 152.09585393685848,77.57105794062227 152.0,78.23903846312896 152.09585393685848,79.3036235488762 152.65728413843317,79.9924669123211 154.90300494484836,81.3701399452475 158.55914796501747,82.39294599350978 159.32597945982707,84.16717751367105 159.35336629897938,85.98312429951329 162.6260935716855,86.8806495028839" stroke="#4dd2ff" stroke-linecap="round" stroke-linejoin="round" stroke-width="0.5"><title>2022-05-01 6.0km</title></polyline><polyline fill="none" points="20.191518467850983,122.35695284640678 20.09302325581666,122.08169806571823 22.30916552670533,122.30690656785737 23.81942544458434,121.75639617740671 23.91792065667687,122.45704534321703 23.901504787965678,121.75639617740671 25.214774281776045,121.25593007577118 26.232558139541652,121.98160526741412 27.742818057420664,122.15676761162467 28.826265389914624,122.78234540259291 30.303693570487667,122.70727623350831 30.648426812607795,123.38289712752885 32.96306429547258,121.93155883815052 33.406292749685235,122.03165167667612 34.75239398085978,124.10855993383302 34.456908344698604,127.48658979386528 35.29411764710676,129.3131900205044 36.508891928882804,131.31491294841544 39.25034199724905,133.86706305351981 44.76607387146214,140.7976383968853 47.29411764710676,147.9029545356534 48.0,147.7278283728374 47.91792065667687,146.72710272194672 44.995896032836754,138.64594867599226 45.16005471959943,137.47000952557573 46.68673050618963,136.59430295051425 44.61833105335245,127.78685468347248 42.829001368023455,123.55805750214495 39.41450068401173,119.40418802400382 34.75239398085978,115.52544995221979 29.860465116333216,113.14809920177504 26.70861833100207,112.37232230011432 22.210670314671006,112.09704546434659 17.236662106704898,112.59754834969499 16.678522571804933,112.94789917333401 17.581395348883234,113.8237719231256 19.715458276332356,114.4493915467101 25.461012311920058,113.77372221754922 26.9384404924931,114.09904494447255 29.630642954900395,116.4263289132432 31.255813953466713,115.87579254426964 32.240766073868144,117.07695966814208 35.42544459644705,119.60437768041447 37.44459644326707,122.88243755774602 34.83447332424112,124.38381023779948 34.40766073868144,126.5607684964416 34.65389876882546,128.03707487233623 36.98495212040143,131.84035988953838 39.64432284544455,134.2673955829814 44.995896032836754,141.3230453603319 47.228454172378406,147.87793652748223 47.96716826269403,147.75284641118924 47.901504788023885,146.72710272194672 46.062927496561315,142.2237378590653 45.01231190148974,137.99543051717774 45.20930232561659,137.52004971541464 46.67031463747844,136.59430295051425 44.831737346132286,128.5875575191967 42.779753762006294,123.38289712752885 39.135430916561745,119.07887914634921 34.58823529415531,115.35027828683815 30.517099863209296,113.32327396280016 24.164158686704468,112.24719654102955 22.03009575919714,112.12207065632538 15.939808481547516,113.02297422166885 12.295485636161175,113.17312418270012 12.0,115.4754009300741 14.774281805788632,116.8517417143521" stroke="#4dd2ff" stroke-linecap="round" stroke-linejoin="round" stroke-width="0.5"><title>2022-04-30 10.1km</title></polyline><polyline fill="none" points="71.20152380951913,124.49287956467742 73.20380952380947,124.61830998872028 75.61752380948747,123.74029384677851 78.70323809521506,125.09912521444494 79.92380952378153,124.97369536967017 80.28038095237571,125.4754138422577 82.5020952380728,124.28382852202776 83.68152380952961,126.22798701779539 83.3112380952225,128.52748246028204 84.25752380950144,130.82692711698473 85.82095238092006,133.04270755788457 87.48038095232914,134.4014175238117 92.19809523806907,140.44223640857672 93.85752380947815,145.56307136953546 94.07695238091401,145.9601868239115 94.66666666665697,145.81388130640698 94.47466666661785,144.18360591818782 92.19809523806907,137.99668759406632 92.28038095237571,137.3487120431164 93.45980952374521,136.88885597990884 93.61066666664556,136.57531659051892 91.93752380946535,129.30093769478844 90.41523809518549,125.93532031813083 86.50666666662437,121.3779755599171 83.29752380948048,118.78563540072355 80.22552380946581,117.238562936589 75.56266666666488,116.23504418042285 72.43580952379853,116.1514171807139 69.17180952380295,116.46501808307221 67.82780952382018,116.90405775930412 66.34666666662088,116.820431297092 59.92838095239131,117.57306703903305 59.544380952371284,117.6775993506235 59.31123809522251,118.43022889572603 58.666666666656965,118.34660365945456 58.803809523786185,116.67408482652536 64.12495238095289,116.25595091981813 64.1935238095466,114.72974790830631 64.65980952381506,114.0398131760885 65.5512380952132,114.56249142342858 64.76952380951843,116.0677901138697 64.45409523806302,119.05741602703347 67.36152380955173,119.99818963943835 65.5512380952132,123.86572517758032 66.0449523809657,125.45450895414251 65.96266666665906,126.95965016755508 68.41752380953403,127.60769037779392 70.3786666666565,128.9037586975246 71.99695238092681,126.85512717521488 70.48838095238898,126.06074900444219 70.77638095238945,124.78555031911674 71.14666666666744,124.66012009650149" stroke="#4dd2ff" stroke-linecap="round" stroke-linejoin="round" stroke-width="0.5"><title>2022-04-28 7.1km</title></polyline><polyline fill="none" points="126.02525756065734,126.89606666108739 126.15088069130434,127.03284579491083 126.3572615486919,126.86871080136189 127.4609504819091,126.89606666108739 128.85177799934172,126.38998147779421 129.61448986377218,126.89606666108739 130.17979395150905,126.92342250979709 130.77201728150249,127.25169183779508 131.6154868727317,127.25169183779508 131.9205716184806,127.62099294087966 133.31139913597144,126.74560929664949 134.02924559658277,128.07235823681913 133.8318378198892,129.54953284071598 134.3163841807982,130.86255004256964 134.97141907614423,131.94303479974042 136.53273512798478,133.40644885537768 139.61050182787585,137.33152571275423 140.69624459955958,140.6820221665257 140.95646394154755,140.98287501040977 141.33333333334303,140.84612388245296 141.2256563642586,140.20338990413074 140.20272515789839,137.89223251792646 139.59255566637148,135.74511072854148 139.6374210701324,135.19806251303453 140.53472914593294,134.8151261484236 139.19774011301342,129.23495204470237 138.4260551678599,127.75777061914414 136.42505815887125,125.33676512296006 134.82784978399286,123.9142132857778 133.17680292457226,122.81992242555498 131.72316384184523,122.08126615659785 129.4260551678599,121.52042919526502 127.05716184782796,121.3973180247267 124.65237620475818,121.58882419391011 124.46394150884589,121.0963786709799 122.14888667335617,119.59166195816942 120.10302426060662,119.0581635052331 115.5805915586825,119.38647074002074 115.06912595548783,119.59166195816942 114.01030242608977,119.41382960482224 113.41807909606723,119.67373827236952 110.86075108012301,121.6572191238447 109.49684280494694,122.24541268639587 106.00631439019344,122.10862393903517 105.62944499833975,121.93079815681631 105.33333333334303,122.32748580295811 109.35327351282467,122.57370455926139 110.16982386176824,122.3685223241373 111.46194749086862,121.67089810157995 114.03722166834632,119.41382960482224 114.70122964441543,119.4959061332811 116.32535726157948,119.12656097627405 120.53373213694431,119.01712498958659 123.02824858759413,119.85156994717545 124.54469923564466,121.2194903855052 124.49983383188373,121.61618217409341 123.74609504823457,121.94447707963627 123.8447989365377,122.61474093210927 123.5397141907888,123.90053475853347 122.91159853775753,124.68020642812917 122.03223662349046,126.69089744535086 122.51678298439947,127.45685936447262 122.4988368228951,128.5647533306219 123.67431040212978,128.82462708407547 125.41508806913043,129.782048147561 126.4111000332341,128.3459115061014 128.22366234633955,127.30640323867192 129.40810900635552,126.88238873258524 128.17879694252042,125.87021440281751 127.28148886674899,126.2532010531213 126.04320372219081,126.29423520936325 125.50481887671049,127.70305958079189 125.73811897644191,128.01764745117543 126.4739115985576,128.37326677265082 127.58657361249789,127.63467072107596 127.36224659357686,127.15594678055277 126.09704220673302,127.11491314339946" stroke="#4dd2ff" stroke-linecap="round" stroke-linejoin="round" stroke-width="0.5"><title>2022-04-27 10.1km</title></polyline><polyline fill="none" points="159.20654342829948,122.39826433677081 161.05637837253744,122.24720613682439 164.65694996033562,121.16461704448011 165.48276913183508,121.819206915221 167.1509238582803,122.14650056906248 168.19145601440687,122.85143784478714 169.62838137283688,122.90179035568872 170.0743237254792,123.40531435250887 172.48571570625063,121.86955984067026 173.3115348778083,122.34791162365582 174.2034195830347,124.1354205561729 173.95567383157322,127.40825819181919 174.81452576990705,129.472619533728 177.04423753306037,132.51874919392867 178.7949741766206,133.95367719562637 184.42706092639128,141.2539338012648 186.57419077237137,148.0 187.51562462787842,147.79863014439616 187.46607547759777,147.04349030587036 185.33546201500576,141.60634922852478 184.60874114412582,138.7366519457355 184.5096428435063,137.67937849726877 186.194313953456,136.74796354972932 184.14628240809543,127.73553725692909 182.23038193013053,123.657075592615 178.61329395894427,119.30153486117342 175.64034494146472,116.65792479344236 173.8565755310119,115.3235099714002 168.90166050195694,112.90642054763157 162.26207436295226,112.0 156.4978565457277,112.4532110929722 155.34170970565174,112.90642054763157 155.50687353994,114.16532710375759 154.91228373645572,116.40614949903829 153.88826796371723,117.63984361105395 153.16154709283728,119.72954267704336 152.48437537217978,120.63590734641184 153.54142391169444,120.66108404922124" stroke="#4dd2ff" stroke-linecap="round" stroke-linejoin="round" stroke-width="0.5"><title>2022-04-25 5.0km</title></polyline><polyline fill="none" points="32.6743371685734,167.0155942506717 34.25012506253552,166.89206207202733 35.528764382208465,166.32930154434143 36.07803901951411,166.74107799495687 36.91545772887184,166.87833626063002 37.41070535266772,167.16657772140388 38.20310155078187,167.15285196513287 38.57228614308406,167.50972073285084 40.00400200099102,166.64499704501577 40.7423711855954,167.83913640333412 40.553276638296666,169.45874036074383 41.021510755381314,170.73518084804164 41.96698349172948,172.1762946889612 43.29964982488309,173.35661291827637 46.36118059029104,177.29543441697388 47.612806403194554,181.01446175165256 48.0,180.87723186545918 47.972986493230565,180.34203267742487 47.414707353687845,178.58545205476912 46.85642821408692,177.59735562047354 46.37018509252812,175.84070447439444 46.325162581313634,175.2917417343997 47.288644322165055,174.82511993938897 46.082041020534234,169.71952046210936 45.13656828412786,167.6607031122112 44.020010004984215,166.2332200156161 42.66933466735645,164.77825464514171 40.60730365180643,163.10363352557033 38.5542771385517,162.06040618685074 35.48374187090667,161.38779064483242 33.484742371190805,161.3191560337109 31.413706853432814,161.60742093732188 31.152576288150158,160.97598194430975 28.802401200606255,159.52090466498703 26.58729364685132,158.98553824835108 22.805402701342246,159.21890361217447 21.769884942477802,159.52090466498703 20.38319159578532,159.4522681792514 18.330165082530584,161.11325178680636 16.72736368185724,162.0192258336465 15.62881440721685,162.23885409728973 12.675337668857537,162.07413296571758 12.171085542766377,161.86823099309186 12.0,162.21140060292237 15.124562281154795,162.52711512234237 16.55627813906176,162.40357483191838 17.960980490257498,161.68978211508147 20.3921960980515,159.61699562923604 20.7973986993602,159.4522681792514 21.90495247626677,159.56208652336863 24.318159079528414,159.30126766801186 26.704352176107932,159.3561769834232 27.937968984479085,159.54835923999417 29.06353176588891,160.0837212483384 29.4327163581911,159.713086458396 27.577788894443074,159.10908471670336 25.092546273139305,159.06790258538967 22.202101050526835,159.32872233123635 21.301650825422257,159.57581380396368 23.20160080041387,159.4934500789568 24.408204102044692,159.23263096172377 25.119559779879637,159.41108625473862 26.812406203098362,159.32872233123635 28.388194097031374,159.79544991874718 28.883441720885457,160.28962859659805 28.37018509255722,161.44269828412507 28.154077038547257,163.19971945336874 29.963981991022592,163.77623218375084 29.027513756911503,166.05478253253023 29.927963981986977,165.75281034617728 31.521760880423244,165.79398845012474 32.68334167083958,166.0959604545642 32.494247123540845,166.74107799495687" stroke="#4dd2ff" stroke-linecap="round" stroke-linejoin="round" stroke-width="0.5"><title>2022-04-22 10.1km</title></polyline><polyline fill="none" points="77.37315130833304,166.63766633407795 78.80659840727458,166.6220589060904 78.90898748577456,166.32551717847673 80.42434584753937,165.90411382995808 81.0898748578038,166.3723396317073 82.04209328786237,166.5128068222839 82.6973833902448,166.90299213070102 83.465301478951,166.84056261299702 83.8339021615684,167.2775681841449 85.53356086459826,166.3099096878068 86.42434584753937,167.73017850703764 86.24004550627433,169.5249865990554 86.76222980659804,170.97640979164862 87.88850967009785,172.58386836580758 89.28100113768596,173.83235694449831 92.81342434583348,178.3735650309536 94.17519908986287,182.43077742186142 94.66666666665697,182.43077742186142 94.43117178615648,181.01077717107546 93.55062571103917,179.07579002079729 92.8236632537155,176.57896123687533 92.80318543800968,176.06398032409925 93.7042093287746,175.65823538391123 93.86803185436293,175.3929394702718 92.67007963595097,170.24289823212166 92.02502844145056,168.47932083655905 91.44141069400939,167.40242646750994 89.21956769056851,164.7023213615903 86.16837315133307,162.12698921345873 83.8236632537155,160.95635548262362 81.3356086461863,160.39444502918195 78.43799772471539,160.1915319226173 75.76564277589205,160.4724883906456 75.41751990900957,159.77009531631484 72.8373151308333,158.1311534573033 70.34926052333321,157.56922257813858 63.04891922639217,158.1311534573033 60.61205915812752,160.17592320018593 58.69738339021569,161.06561537686503 58.666666666656965,161.51826187383267 60.51990898748045,160.61296624381066 63.56086461889208,158.00628027968196 66.39704209330375,158.11554432105186 67.61547212742153,157.8033609381746 68.65984072812716,158.00628027968196 70.93287827077438,157.95945278636646 72.13083048921544,158.3340719429616 72.88850967009785,158.88038830970618 72.31513083048048,160.2851841914744 72.13083048921544,162.42354695958784 74.16837315130397,163.03226720929524 73.07281001136289,165.57635409049544 74.77246871445095,165.06130027891777 78.03868031853926,165.7324303292553 79.76905574515695,165.1705544029246" stroke="#4dd2ff" stroke-linecap="round" stroke-linejoin="round" stroke-width="0.5"><title>2022-04-21 8.1km</title></polyline><polyline fill="none" points="123.6609783845488,166.62207162599952 125.34015927190194,166.51281962994835 125.75995449375478,166.3411376116419 125.93401592719601,165.99777243730205 125.82138794084312,166.5284270673801 127.07053469851962,165.90412712655234 129.2718998862547,166.8249677827116 130.21387940843124,166.8093604048554 130.50056882822537,167.21515121086122 132.11831626849016,166.2162777237536 133.0295790671371,167.54290377690631 132.86575654151966,169.5874242991049 133.50056882822537,171.07005821458006 134.25824800910777,172.25614498626965 136.08077360637253,174.00402934734302 139.57224118319573,178.482803640989 140.89306029578438,182.49319439513783 141.33333333334303,182.36836044857773 141.1797497156076,181.6037481519379 140.09442548351944,178.98216318269988 139.44937428896083,176.23564600682585 139.56200227531372,175.95474673502758 140.46302616613684,175.59581841062754 140.11490329919616,173.45781970642565 139.1729237770196,169.6966719737684 138.08759954493144,167.41804581945325 135.74288964734296,164.56186527386308 132.82480091013713,162.15822217699315 130.60295790669625,161.01880694735155 128.56541524460772,160.44128874000307 125.23777019340196,160.1603323847885 122.24800910125487,160.45689739660884 122.22753128554905,160.28520200137427 122.08418657566654,159.78572233140585 119.35039817975485,158.05312734776817 116.85210466443095,157.5068056048549 112.15244596134289,157.81898992819333 111.0466439135198,158.11556387388555 110.27872582481359,157.89703581308277 109.81797497157822,158.00629992028553 107.2889647326665,160.0198538263794 105.35381114904885,160.95637275346235 105.33333333334303,161.42462798538327 107.17633674631361,160.50372334764688 110.19681456201943,158.00629992028553 111.49715585896047,158.17800034982793 114.25142207054887,157.88142664235056 116.9135381114902,157.88142664235056 118.48009101251955,158.1623912355717 119.58589306028443,158.94284310962394 118.95108077363693,160.26959331029502" stroke="#4dd2ff" stroke-linecap="round" stroke-linejoin="round" stroke-width="0.5"><title>2022-04-19 7.2km</title></polyline><polyline fill="none" points="156.7166870138608,161.06700674138847 156.7687104328652,160.77623779190617 159.31785796413897,160.61763627613254 161.88434663508087,159.66602316856006 165.83812647953164,161.41064194443607 167.41617018938996,161.30490813130746 167.76299298275262,161.99217639856943 170.38150507269893,160.300432671218 170.97110382141545,160.77623779190617 172.04625448089791,162.732307443046 171.68209054786712,165.98354810139426 172.5664886709419,168.17742935349816 173.84973300644197,170.21268408972537 176.83240902941907,173.0408429780873 182.90180791344028,180.89064790991688 185.13881493068766,187.8678594103185 185.39893202570966,187.8678594103185 185.86714279680746,187.65643419112894 185.79777823813492,186.25573353846266 183.45672438282054,180.59992273990065 182.7110553770326,177.24332201124344 184.531875042303,175.8953716512915 182.58966739935568,167.41089668584755 180.6127774771885,162.33580918671942 176.71102105174214,157.70990795551188 171.5086791511858,153.26888983816752 169.72254176530987,152.422964638361 168.66473224555375,152.0 168.49132084887242,154.08837469162972 169.30635441327468,155.14576696448057 172.7225589280133,157.97424954766757 174.83817796752555,160.93483911667136 176.46824509638827,163.63103240304918 177.23125524178613,166.5914947607962 182.20816232671496,165.87781796096533 183.1792661481304,168.7060699721842 184.61858074058546,175.97466323101253 183.00585475139087,177.13760091312724 184.28909908694914,182.07997146606067 186.24864786944818,187.55072145423765 185.312226327369,188.0 184.67060415964806,187.12786965769192 182.88446677371394,181.9213956126332 181.8093161143479,179.83346239638195 177.1098672641092,173.67518803193525 173.6589804700925,170.31841074873955 171.4566557321814,166.4857651087077 171.33526775450446,165.45489655026176 171.85550194454845,163.0759382992037 174.63008429150796,161.3842084990756 176.433562817052,163.60459940345754 177.33530207985314,166.6443595551027 181.8093161143479,165.5606270303324 180.1965901251533,161.96574307006085 175.56650583358714,156.67897067398735 171.4566557321814,153.34819504699408 168.68207338522188,152.0264353296734 168.57802654715488,154.40559326530638 170.13872911734506,155.93880559546233 168.68207338522188,157.15478888406506 166.87859485967783,156.67897067398735 166.25431383156683,157.10192027897574 165.2832100102096,158.29145875771792 165.52598596550524,160.59120267156686 161.17335990868742,161.30490813130746 160.2195972268819,162.25650939211482 157.51437943865312,163.81606325077155 155.50280723703327,166.38003537164332 153.75135213055182,165.42846391700732 156.31784080149373,159.24308180153457 158.57218895840924,159.26951567680953 160.8438782549929,158.39719499112834 161.8496643557446,159.66602316856006 159.66468075755984,160.98770618245908 156.2484762428212,161.0934402503408" stroke="#4dd2ff" stroke-linecap="round" stroke-linejoin="round" stroke-width="0.5"><title>2022-04-10 10.4km</title></polyline><polyline fill="none" points="15.106966481020208,201.13445358492027 15.299699856026564,200.84066513380094 17.454809412243776,200.97420541927568 20.60862827510573,199.77233802328556 21.67742244526744,200.5735841605565 24.533380637760274,201.53507315435127 26.127811285085045,201.37482547135005 26.373108307714574,202.12264634012536 29.17650285246782,200.52016790158086 30.77093349979259,202.68350923265098 30.473072829423472,206.0753439473483 31.31409119279124,208.2385949321033 33.22390372643713,211.17628685529053 35.9396921916632,213.65992123308388 41.80929951969301,221.24406608931167 43.96440907602664,227.9732973792925 44.89303351897979,228.0 41.70417222427204,218.0929598163275 41.68665100837825,217.26511443161144 43.54389989428455,216.33044409547438 41.318705474433955,206.28899993138475 39.53154145210283,202.63009382095333 35.72943760082126,197.95616224257537 30.280339454475325,193.3354855835205 27.441902477876283,192.0 27.354296398407314,194.59082980555831 31.559388215537183,197.95616224257537 33.64441290817922,201.61519692341244 30.92862444295315,203.03070888566435 29.281630147947,200.62700039818446 26.583362898614723,202.20276975525485 23.359459172119386,200.94749737293023 21.957761899742763,200.84066513380094 20.170597877528053,201.3481175054476 17.962924673513044,202.92387831975066" stroke="#4dd2ff" stroke-linecap="round" stroke-linejoin="round" stroke-width="0.5"><title>2022-04-09 5.2km</title></polyline><polyline fill="none" points="61.753802104096394,201.11450615867943 63.71763612056384,200.95413901024585 63.77023881743662,200.6868600001544 67.39982490148395,199.64446673293423 68.3992761420086,200.57994824591879 70.01242551271571,200.79377166858467 71.22228754067328,201.4352398759147 72.73023151763482,201.4352398759147 73.1685873248498,202.0767049919741 75.85132486518705,200.36612447968218 76.64036531822057,201.08777831407497 77.53461116505787,202.7716220460061 77.21899498382118,206.0590650874292 78.0781723660184,208.35755427194817 80.25241716997698,211.43105337380257 82.68967545824125,213.6225485254181 88.49350634624716,221.2390498688692 90.7729565439513,228.0 91.57953122927574,227.86638771054277 91.4217231386574,226.31647535214142 89.65076567739015,222.1743796402152 88.38830095244339,217.390766813136 88.66884866909822,216.90972360914748 90.1943268783507,216.18815554401954 89.26501256698975,211.19052122093854 87.30117855052231,204.3752629404553 86.14391921937931,202.10343263803952 84.09241404145723,199.64446673293423 79.13022630341584,194.86004419958772 77.13132382236654,193.3364769010659 74.18557279772358,192.0 73.95762777794152,193.79087599046034 74.27324395912001,194.77985688181798 78.02556966914563,197.82694099839136 80.41022526059533,201.4352398759147 77.74502195249079,202.905259525156 75.79872216831427,200.5532202939503 73.39653234463185,202.02324968369794 69.8195489574573,200.82049957232084 66.61078444845043,201.3016009209823" stroke="#4dd2ff" stroke-linecap="round" stroke-linejoin="round" stroke-width="0.5"><title>2022-04-07 5.0km</title></polyline><polyline fill="none" points="108.41400600917405,200.19966989586828 108.25631493935362,200.5201679003294 108.6943456887966,200.78724898072687 110.74432959588012,200.78724898072687 114.3011392809567,199.74562973431603 115.36993430944858,200.57358415927592 117.24470591684803,200.86737320024986 117.92803388589527,201.32140953273483 119.53998704359401,201.4015334305077 119.87289041315671,202.04252287527197 122.64124474930577,200.3866271589577 123.48226378811523,201.0810375497822 124.42841020680498,202.9772936118752 124.13054929720238,206.3958277929778 125.65489630505908,209.46709217256284 127.179243312974,211.47005247752531 129.2642696800758,213.1258102253487 135.44926386146108,221.2173621113543 137.6043751484831,228.0 138.41035172733245,227.91989212168846 138.35778803745052,226.55805081081053 135.62447616120335,220.2827195443242 135.09883926191833,217.18500008713454 136.85096225951565,216.41055895143654 136.97361086931778,215.6628184044239 134.99371188203804,207.43739496391936 133.69714086386375,203.64498297329555 132.24287877598545,201.58848900435987 131.2616898972774,202.14935414911452 131.8223692564643,201.21457759393525 129.05401492037345,197.68907547628623 124.04294314736035,193.4957429521237 120.95920667162864,192.0 120.78399437188637,193.81625711068773 121.11689774144907,194.80450423730508 124.83139849622967,197.6623667703243 127.40701930265641,201.1077455693303 125.76002368493937,202.41643195823417 124.46345266676508,202.92387831817177 122.92158442892833,200.65370850749605 122.27329891984118,200.76054089677928 121.74766202055616,200.17296169402107 120.9066429817467,197.34186187972955 122.53611736942548,195.81945310275478 124.86644095618976,197.76920156217238 127.38949807267636,201.21457759393525 124.77883480628952,202.84375533747516 124.48097389674513,202.89717066323647 122.69380843924591,200.49345976275072 120.08314517285908,202.04252287527197 119.46990212373203,201.5350731528597 117.87547019595513,201.37482546989486 114.10840575123439,199.95929588575382 112.19859168387484,200.89408126276248 109.67553456738824,201.05432952491537" stroke="#4dd2ff" stroke-linecap="round" stroke-linejoin="round" stroke-width="0.5"><title>2022-04-03 6.2km</title></polyline><polyline fill="none" points="185.46448087424506,215.8312361642311 186.22950819670223,212.66578901286994 185.9890710382606,211.36627217144996 188.0,210.36663690612477 188.0,209.40031709175673 181.96721311478177,205.53498155527632 178.53551912569674,204.6019560379209 171.16939890704816,204.70192330867576 164.52459016395733,205.73491491210007 161.6174863387714,205.50165930575167 156.41530054644682,209.70021005012677 152.1967213114258,211.79944558277202 152.0,212.69910982364672 155.67213114752667,211.13302448156173 161.72677595622372,205.80155931085756 162.95081967208534,205.40169251686893 168.21857923496282,205.46833704944584 171.36612021853216,204.76856812225014 178.9071038251277,205.43501478644612 182.66666666662786,207.03447585899266 183.47540983604267,206.46800182582228 182.75409836060135,205.73491491210007 176.8087431693566,204.50198870715394 166.5136612021597,205.23508106831287 164.5027322403621,205.83488150013727 161.83606557373423,205.50165930575167 155.23497267760104,210.66652811814856 152.0,211.96605043992167 152.3060109289363,212.69910982364672 156.26229508192046,210.7331705359975 161.5956284152926,205.96817019055015 163.21311475412222,205.36837024058332 164.1967213114258,205.53498155527632 167.75956284150016,204.66860089176043 177.6174863387714,204.1687638357689 183.4972677595797,205.90152585864416" stroke="#4dd2ff" stroke-linecap="round" stroke-linejoin="round" stroke-width="0.5"><title>2022-03-24 5.1km</title></polyline><polyline fill="none" points="33.366366375412326,267.1511870792456 32.37236055592075,266.9288777496404 30.954245586734032,268.0 30.31808186226408,267.67664354149747 29.999999999970896,266.8682478472183 29.58914426123374,263.2101761130325 29.112021467852173,262.078370064286 28.542124798055738,261.6741505317841 25.242025477200514,261.5933064303972 23.558842289465247,259.9764107556548 39.847284318704624,238.20642181330186 32.04102528272779,232.0 20.152715681295376,256.2574520577473 27.481851923890645,263.7356531636615 27.932467895385344,263.371861651809" stroke="#4dd2ff" stroke-linecap="round" stroke-linejoin="round" stroke-width="0.5"><title>2021-10-26 5.0km</title></polyline></svg>