<?xml version="1.0" encoding="utf-8" ?>
<svg baseProfile="full" height="300mm" version="1.1" viewBox="0,0,200,300" width="200mm" xmlns="http://www.w3.org/2000/svg" xmlns:ev="http://www.w3.org/2001/xml-events" xmlns:xlink="http://www.w3.org/1999/xlink"><defs /><rect fill="#222222" height="300" width="200" x="0" y="0" /><text fill="#FFFFFF" style="font-size:12px; font-family:Arial; font-weight:bold;" x="10" y="20">Over 5km Runs</text><text fill="#FFFFFF" style="font-size:4px; font-family:Arial" x="10" y="280">ATHLETE</text><text fill="#FFFFFF" style="font-size:9px; font-family:Arial" x="10" y="290">Wenz</text><text fill="#FFFFFF" style="font-size:4px; font-family:Arial" x="120" y="280">STATISTICS</text><text fill="#FFFFFF" style="font-size:3px; font-family:Arial" x="120" y="285">Number: 25</text><text fill="#FFFFFF" style="font-size:3px; font-family:Arial" x="120" y="290">Weekly: 2.5</text><text fill="#FFFFFF" style="font-size:3px; font-family:Arial" x="141" y="285">Total: 186.2 km</text><text fill="#FFFFFF" style="font-size:3px; font-family:Arial" x="141" y="290">Avg: 7.4 km</text><text fill="#FFFFFF" style="font-size:3px; font-family:Arial" x="167" y="285">Min: 5.0 km</text><text fill="#FFFFFF" style="font-size:3px; font-family:Arial" x="167" y="290">Max: 15.0 km</text><polyline fill="none" points="28.49342442356283,45.0134988805039 28.62254483345896,44.8869707544909 29.535610589227872,44.95726418605409 31.352519214357017,44.33867956614995 33.436891545687104,45.168144057337486 34.24850555078592,45.182202692834835 34.562083689146675,45.47743338628061 35.89017933388823,44.633913816498534 36.21298035865766,44.872912059683586 36.79402220324846,45.885130868835404 36.554227156273555,47.55807154344075 36.81246797606582,48.31720790866166 38.18667805296718,50.43993443042564 39.339538855681894,51.39584323969757 42.58599487616448,55.57076257623703 43.775747224572115,59.23942560811702 44.14466268144315,59.211313978517865 44.19999999998254,58.77558227589179 43.09325362936943,56.02057068084105 42.49376601196127,53.659045895903546 42.59521776257316,53.377906687852374 43.43450042695622,53.05459520313525 43.48061485908693,52.801567782473285 42.00495303157368,46.95356818083019 41.267122117831605,45.57584334080093 39.48710503842449,43.41079238890961 36.59111870196648,40.93636646166851 36.13919726727181,40.8660689930075 34.322288642200874,39.82565820439413 31.859777967532864,39.27732737814222 29.351152860792354,39.15078888527569 27.248334756615805,39.417925435300276 26.91631084540859,38.813351786164276 24.582920580694918,37.351105562724115 22.175747224595398,36.76057439188298 18.32058070023777,37.04178033254357 17.278394534572726,37.32298514369904 16.30999146029353,37.19644311849697 15.728949615702732,37.33704535463039 13.40478223739774,39.2070282436398 12.445602049527224,39.76941934293791 11.836891545681283,39.89595671772622 11.799999999988358,40.28962708774634 13.967378309112974,39.17890857009115 16.20853970965254,37.18238287932763 19.049188727600267,37.29486471344717 20.017591801879462,37.055840599903604 20.985994876158657,37.22456358827185 22.39709649872384,37.12614189449596 23.531511528621195,37.308924929981 24.739709649875294,37.9275716629636 25.449871904362226,37.51982783947096 26.344491887284676,38.43373310564857 26.98087105038576,38.757112111521565 26.934756618284155,39.37574604780457 26.667292912025005,39.51634390734398 26.658070025616325,39.783479062545666 27.128437233128352,40.13497113493213 28.253629376587924,40.48646144266604 32.154910333047155,40.14903078111092 32.671391972660786,40.3739847361976 33.8242527754046,41.51280304206011 36.563450042682234,40.795771453784255 39.21964133219444,43.04525770028704 41.248676345014246,45.49149195969949 42.1894107600383,47.37531526329258 39.70845431255293,48.064163368089794 39.34876174209057,47.67053670947644 38.998292058066,46.39123478584588 38.223569598631,45.350906098658015 36.88625106748077,45.983540250315855 36.000853970967,44.78855983173344 34.51596925704507,45.53366766295221 34.183945345837856,45.280613062292105 33.44611443209578,45.23843720661171 32.80051238255692,44.94320550540215 31.869000853941543,44.8869707544909 31.186507258738857,45.06973352978821 30.550128095637774,45.58990189445103" stroke="#4dd2ff" stroke-linecap="round" stroke-linejoin="round" stroke-width="0.5"><title>2022-05-28 10.0km</title></polyline><polyline fill="none" points="64.65389425811009,44.8563056149942 65.97089255257742,44.80015074330004 67.37077885161852,44.15436647716706 68.17202956226538,44.72995709027964 68.86276293348055,44.81418946546182 69.47981807845645,45.16515660303048 70.18897100625327,45.13707929688826 70.53894258098444,45.50208339766323 71.56122797040734,44.77207329054363 72.01250710629392,44.65976336674794 72.77691870380659,45.8390085686442 72.63877202954609,47.64995354599523 73.10847072198521,48.815110400038975 73.92814098918461,50.14869983668177 75.5030130756204,51.59456280350423 78.61591813529958,55.63720544141688 79.78555997725925,59.25854100862125 80.19999999998254,59.09011095470487 80.1447413302958,58.3883146965818 78.99351904491778,55.5529861036739 78.505400795897,53.46150667861002 79.50005685046199,52.956173407095775 78.164638999413,47.25688420317965 77.23445139284013,45.40381325029011 74.74781125641312,42.694310495920945 72.59272313813563,40.93939516948012 71.39545196134713,40.46205058018677 70.55736213756609,39.87238511721807 67.99704377487069,39.26867484777176 65.45514496869873,39.10019663283674 63.18953951107687,39.35291380299532 63.042183058540104,38.791318850995594 60.61080159182893,37.27498994637426 58.317566799290944,36.74145899138239 51.80625355313532,37.27498994637426 49.503808982350165,39.128276363553596 47.79999999998836,39.942583647374704 47.8184195565409,40.22337706332837 48.18681068785372,40.22337706332837 49.15383740758989,39.717948102636 51.89835133595625,37.35923130390802 52.30358158040326,37.21882898495096 55.00204661738826,37.246909471305116 55.821716884558555,36.98014439562394 56.669016486615874,37.17670823430308 58.474133030103985,37.106506926767906 59.57009664582438,37.31711063781404 60.78578737916541,37.93487786351761 61.48573052868596,37.485593149824126 62.26856168275117,38.398199700401165 63.014553723682184,38.80535877976217 63.12507106308476,39.19847564090742 62.69221148377983,39.66178910365488 62.91324616258498,39.99874242079386 63.43820352471084,40.23741670457457 64.98544627625961,40.518208936333394 68.16281978396,40.11105983229936 68.56805002840701,40.279535611185565 69.87583854462719,41.52905163311152 71.39545196134713,41.00959262834658 72.56509380330681,40.86919764017148 74.99647527004709,42.77854532366109 77.0042069357587,45.151117951376364 77.75940875496599,46.38650850860358 78.11859010803164,47.43938095858903 75.65957930640434,48.05705875010972 75.37407617963618,47.706106128873216 75.05173393973382,46.456700498525606 74.16759522457141,45.305542964797496 72.90585559976171,45.95131659817707 71.96645821488346,44.70187960932526 70.51131324615562,45.53016055725675 70.179761227977,45.23534981916964 69.47060830018017,45.20727254117446 68.82592382034636,44.84226690127616 67.14974417281337,45.052847310707875" stroke="#4dd2ff" stroke-linecap="round" stroke-linejoin="round" stroke-width="0.5"><title>2022-05-26 10.0km</title></polyline><polyline fill="none" points="90.23749711341225,41.10684712739021 92.28254741220735,41.01583031871996 94.9993295611348,40.12841260276036 98.23856981558492,41.6301923588544 99.358122898906,41.56193007440015 99.86565362999681,42.29005898827745 102.40330728556728,40.72002518555382 103.70198886218714,42.76789104552881 103.29894975223579,45.111514341238944 104.17966484441422,47.43233624939603 105.20965368108591,49.1842977766064 108.0757095743902,51.89182141049969 113.09130738768727,58.35321306881815 114.94230181880994,64.04075298983662 115.76330741326092,64.19999999999709 115.61403366882587,63.13076578221808 113.38985487655737,57.73894167978142 113.0315978899016,54.940552108964766 114.38998896436533,54.41726834188739 114.53926270880038,54.03049183070834 112.03146380215185,44.20137512845395 110.9417654676945,42.17628915388923 107.65774308994878,38.37631106586923 103.32880450109951,34.781004901844426 100.9404245899641,33.43842461407621 97.16379885555943,32.209608374476375 92.10341891890857,31.799999999995634 87.68491608340992,32.23236435184663 86.62507249781629,32.55094755551545 86.86391048895894,33.41566887887166 86.2817428856506,35.91877235449647 85.22189930005698,37.14754837228975 84.23669258673908,39.65056941572402 86.75941886781948,38.967932795974775" stroke="#4dd2ff" stroke-linecap="round" stroke-linejoin="round" stroke-width="0.5"><title>2022-05-24 5.1km</title></polyline><polyline fill="none" points="152.14362766419072,54.27324166472681 151.83357981726294,53.929521998339624 152.11544149625115,52.83390819191118 150.0014789038687,52.404252656080644 148.4935189212556,52.49018390128913 146.5486733361613,53.091700685195974 146.21043932141038,52.85539092338877 146.81644193123793,51.244174090446904 148.32440191385103,48.77359448378411 148.81765985203674,47.183800046484976 148.6344497607788,46.302957822386816 149.95919965201756,45.744371190754464 149.95919965201756,45.33617142315052 149.7196172248805,44.75609538988647 147.80295780772576,43.467026277015975 144.6038277511252,42.07051720947493 142.29256198339863,41.72675833527319 136.37346672464628,42.22091136959352 134.6400173988077,42.607638238980144 133.42801217921078,42.34982048138045 132.5401478903368,42.650607804898755 128.76320139190648,45.72288703125378 126.40965637227055,46.7970897192281 121.26568073069211,46.62521801397088 119.99730317521608,46.259989723541366 119.79999999998836,46.66818596622761 120.36372335796477,46.96896114838455 123.18234014784684,47.26973548493697 127.29752066114452,47.076380651320505 129.62287951278267,45.72288703125378 132.72335798171116,42.92990956232825 133.56894301867578,42.54318385784427 141.75702479336178,42.41427497906989 144.67429317091592,42.693577353522414 146.2668116571731,43.789295011461945 145.4775989560294,45.3146871817371 145.12527185725048,48.40837352764356 147.9861678990419,49.28919841693278 146.32318399305223,52.85539092338877 149.08542844711337,52.210907102009514 150.53701609390555,52.36128700765403 152.19999999995343,52.81242545612622 152.11544149625115,53.693214087121305" stroke="#4dd2ff" stroke-linecap="round" stroke-linejoin="round" stroke-width="0.5"><title>2022-05-22 5.0km</title></polyline><polyline fill="none" points="162.31297979492228,40.63523465616163 162.4019195367,41.1097416968114 163.55813617934473,41.15493273920583 165.15905153076164,40.9289773457931 167.1453724297462,40.13812989604048 167.7975972025306,40.70302149873169 169.35404268302955,40.95157290557836 170.4806127451593,41.60684216484515 171.6516526780906,41.51646042490029 172.00741164508509,42.05874977570056 174.2605517692864,40.63523465616163 175.0017162838485,41.22271926872054 175.72805750806583,42.64622695674916 175.3426519605564,45.42540435552655 176.3061658294173,47.59447073429328 177.9219044710626,49.89905795397499 179.92304866039194,51.5935772718658 185.17049342324026,58.37139941075293 187.0678745805053,64.19999999999709 187.76456922420766,64.06445457737573 187.66080619208515,63.40931606642698 185.27425645530457,57.62585895624943 184.90367419808172,55.20846654353227 185.05190710094757,54.80179729696101 186.34153335628798,54.282162232353585 186.4304730980075,53.64955978481157 184.1625096835196,44.5668040306482 183.0952327825944,42.39767929291702 178.989181372046,37.56218823927338 175.35747525078477,34.73762303045078 171.3551868723007,32.79428099605866 166.65620385011425,31.89038954446005 163.51366630848497,31.80000000000291 159.88196018722374,32.206752378428064 158.79985999607015,32.636100516181614 158.91844631836284,33.517388929576555 158.34033799701137,36.02563355957682 157.5695269018761,36.77131712745904 156.23543077573413,39.77659778213274 158.79985999607015,38.963146278962085 160.97888366872212,39.16650970608316 162.44638940755976,39.75400198649004 162.12027702113846,40.612639032849984" stroke="#4dd2ff" stroke-linecap="round" stroke-linejoin="round" stroke-width="0.5"><title>2022-05-16 5.4km</title></polyline><polyline fill="none" points="30.693260109837865,96.2084307529658 31.429256115836324,96.27007354463058 33.03065401897766,95.75227217108477 33.41078382424894,96.08514498394288 34.26000998503878,96.2454164353876 34.68866699951468,96.50431558859418 35.4084872691019,96.47965857341842 35.65921118322876,96.8125274428021 36.96135796303861,96.06048780045603 37.69735396906617,97.17005125541982 37.535596605128376,98.77271862574344 38.18262606090866,100.14111688833509 39.0318522216985,101.29991679484738 39.99430853719241,102.10120181317325 42.80079880182166,105.6760383534347 43.8360459311225,108.83158319105496 44.19999999998254,108.80693112545487 44.1838242636295,108.44947506227254 43.02725911134621,105.38019771111794 42.71183225166169,104.06122417127335 42.76844732902828,103.80235687963795 43.52870693959994,103.43254456992872 43.55297054420225,103.19832895514628 42.37214178731665,98.37821976967825 41.644233649538364,96.94814016852251 39.7274088866543,94.67966971990973 37.13929106341675,92.60838437054917 35.65921118322876,91.86862266804383 34.20339490767219,91.48640896271172 31.58292561158305,91.23981821263078 29.22935596606112,91.44942041335162 29.059510733903153,90.98089685910963 27.943384922633413,90.16713692481062 26.843434847716708,89.55064494521503 25.258212680986617,89.16841680894504 21.53779331003898,89.4026859489677 20.64003994007362,89.63695419503347 19.410683974041604,89.56297484549214 16.960059910139535,91.44942041335162 15.625561657507205,92.04123452920612 12.398502246622229,91.93026981702133 11.961757363955257,91.7083397909737 11.897054418368498,91.81930490427476 11.799999999988358,92.05356392931208 12.269096355477814,92.17685779396925 15.504243634553859,92.33713944790725 16.895356964552775,91.79464600753272 19.75037443835754,89.57530474326632 21.3436844732787,89.6862737118754 22.524513230164303,89.50132531940835 25.07219171244651,89.5259851372648 26.042735896160593,89.64928407796833 27.158861707459437,90.16713692481062 27.51472790815751,89.83423202469567 25.832451323018176,89.27938651300428 24.829555666510714,89.16841680894504 21.4245631552767,89.37802608155471 20.23564653020003,89.6862737118754 21.974538192735054,89.63695419503347 22.985521717433585,89.4026859489677 25.08027958063758,89.48899540678394 26.18831752371625,89.72326332349985 27.255916125810472,90.17946670128003 27.741188217682065,89.82190217891912 28.541887169267284,90.64799637150281 29.0999500748876,90.919248756858 29.132301547710085,91.40010231284396 28.452920619107317,91.67135137532023 28.525711432856042,92.04123452920612 30.110933599615237,92.79332340347537 31.58292561158305,92.68236005054132 31.63954068897874,94.38377609097006 31.275586620089598,94.60569644636053 31.259410883678356,94.98789073369335" stroke="#4dd2ff" stroke-linecap="round" stroke-linejoin="round" stroke-width="0.5"><title>2022-05-14 9.9km</title></polyline><polyline fill="none" points="61.745417515252484,95.22076786318212 62.79022403259296,95.2878258128112 64.97881873726146,94.51665614038939 65.99063136451878,95.13694535043032 66.6175152749056,95.18723886820953 67.35437881870894,95.62311475304887 68.03625254580402,95.55605707271025 68.6961303462158,95.99193103212747 70.32382892054738,94.90224186697742 71.3576374745171,96.49485969619127 71.12668024440063,98.52330789105326 71.7205702647625,99.93145782301872 72.45743380853673,101.20547777428874 74.3820773930347,102.99913080798433 78.29735234210966,108.02785910006787 79.8260692464246,112.402606374264 80.15600814661593,112.2852789786266 80.19999999998254,111.64835595434852 78.92423625249648,108.54747709299409 78.23136456205975,105.63086972211022 78.33034623213462,105.36267082609993 79.39714867612929,104.82627044976834 78.16537678206805,99.46207715112541 76.79063136450714,96.15957425674424 73.85417515275185,92.68929087074503 71.18167006107979,90.56010840885574 68.34419551931205,89.18533182830288 65.51771894094418,88.5985300527318 63.19714867617586,88.41410578566865 59.90875763742952,88.71589073777432 59.63380855394644,88.11231974266411 58.14908350305632,87.02252772704378 56.57637474540388,86.13391755459452 55.34460285131354,85.74829132921877 53.82688391034026,85.597393625736 48.6248472504667,85.99978689561976 47.79999999998836,86.30158057520748 54.145824847219046,86.01655323976593 56.21344195515849,86.51954199865577 56.884317718911916,87.07282613324787 56.22443991850014,88.41410578566865 55.96048879832961,90.7612933266937 58.07209775966476,91.59955859919137 56.91731160893687,94.2316568500828 58.687983706680825,93.695184958553 60.84358452138258,93.91312708021724 61.470468431769405,94.14783334428648 61.36048879835289,95.13694535043032" stroke="#4dd2ff" stroke-linecap="round" stroke-linejoin="round" stroke-width="0.5"><title>2022-05-12 7.0km</title></polyline><polyline fill="none" points="95.53572519079898,93.4213718664978 96.92076335876482,93.4213718664978 99.20854961831355,92.62964945469139 99.7526717557048,93.11976411597425 101.66946564882528,93.77952981169074 102.81954198470339,93.81723056855844 103.35129770991625,94.3261893042436 105.30519083965919,93.13861462874775 106.2821374045161,94.72204419103946 106.13374045799719,97.49298166359222 106.96229007630609,99.17058433251805 108.1989312976948,100.92355284670339 109.78183206103859,102.26181860523502 112.19328244272037,105.20216651134979 112.44061068698647,105.91839115665789 113.62778625951614,107.14349959472747 114.39450381675852,108.48167669857503 115.50748091598507,112.28878047999751 116.19999999998254,112.10031362757582 114.14717557246331,105.89954320969264 114.03587786253775,104.99483730487555 115.3096183205489,104.20321248681284 113.96167938929284,98.2846630629283 113.05893129768083,95.85304895605805 112.36641221368336,94.53354207216762 109.58396946560242,91.1781410245676 107.34564885491272,89.16107256673422 104.82290076330537,87.48329101905983 103.15343511448009,86.69151852588402 101.34793893125607,86.2202222046617 97.1804580152384,85.71121952000976 93.19847328242031,86.0882588106615 92.14732824423118,86.48414843608043 90.45312977099093,86.38988915285154 84.51725190834259,87.12510905171803 84.41832061065361,87.89802632645296 84.05969465646194,87.86032319243532 83.8494656488183,88.143096328713 83.79999999998836,89.21762647850119 84.04732824425446,89.51924676591443 85.9146564885159,89.44384178496693 89.14229007632821,89.9716753800385 90.51496183202835,90.59376116424392 90.13160305342171,92.34688983236265 92.24625954197836,91.61171082837973 93.73022900763317,91.7436664581619 95.23893129767384,92.19608435218106 94.99160305340774,93.13861462874775" stroke="#4dd2ff" stroke-linecap="round" stroke-linejoin="round" stroke-width="0.5"><title>2022-05-10 6.0km</title></polyline><polyline fill="none" points="138.57405836865655,96.31523869022931 139.38223996007582,96.30291936990034 140.96627587924013,95.73622796182826 142.70386630078428,96.51234747869239 143.42314791717217,96.51234747869239 143.64135694684228,96.79569025269666 144.83746570214862,96.04421307208759 145.0395111000107,96.14276798085484 145.6537291094719,97.07903171817452 145.4516837116389,98.59427038912327 145.92851085055736,99.76455106758658 146.67203791465727,100.89785423912326 147.98937390869833,102.1173636175372 150.21187328509404,104.97510882608549 150.8988276377786,106.04672896616466 151.70700922922697,108.79343995521049 152.19999999998254,108.76880632232496 151.92521825889708,107.56174619679587 151.27059116985765,106.08368105098634 150.72910950359073,104.18677861411561 150.71294587175362,103.78029189095469 151.54537291094312,103.31221293449562 150.2846096282883,98.17542766959014 149.67039161885623,96.91888235498118 148.13484659514506,94.99705738920966 146.40533798950491,93.42013040259917 145.42743826386868,92.76717220597493 143.68176602639141,91.86780331173213 142.06540284358198,91.47355525638704 139.6893489648064,91.25178961186612 137.2648041905486,91.43659437130918 136.96577700172202,90.9437804423651 134.98573210273753,89.63780438474714 132.8440508854692,89.14497600582035 129.09408830129541,89.41603210419635 128.50411573954625,89.61316305986111 127.32417061610613,89.57620105392925 125.26330755799427,91.19018790168411 123.58228984780726,92.01564567934474 120.45462708902778,91.92940434154298 119.96163631827221,91.70764034479726 119.79999999998836,92.00332549562881 122.43467198798317,92.32364946752932 123.92980793211609,92.21276828194459 125.53000748311752,91.36267253432015 127.53429782984313,89.61316305986111 130.10431529054767,89.62548372353922 130.7589423796162,89.37906997946266 131.57520578696858,89.55155970422857 133.78154153152718,89.61316305986111 135.23626839608187,90.19223157882152 135.6888500872592,89.81029338207009 136.46470441503334,90.58648786841513 137.0546769767825,90.83289676278946 137.0465951608785,91.41195376887481 136.7233225243108,91.62139857402872 137.49917685205583,92.22508842356183 139.23676727359998,92.40989025111776 141.42693938635057,92.1142070597889 142.23512097776984,92.4714907366324 143.38273883756483,93.46940998442733 143.95654776750598,93.24765155433852 145.92042903465335,94.83690259131981 147.1407832376717,96.79569025269666 146.97106510348385,96.6109016354385 145.67797455721302,97.27613805284273 145.41127463203156,98.45876276333365 145.5405836866703,98.93919754068338 146.67203791465727,100.89785423912326 147.84390122222248,101.94490921727993 150.56747318530688,105.36927013396053 151.86864554751082,108.85502399417965 152.10301820898894,108.75648950218238 152.12726365673007,108.3746668513013 150.87458219003747,105.32000010896081 150.60788226488512,104.00201225560522 150.6806186081085,103.7926097099953 151.51304564726888,103.34916666613572 150.4704913943424,98.93919754068338 149.83202793714008,97.28845717775403 147.4559740583354,94.4303539190987 145.73454726859927,93.05053227693497 143.57670241955202,91.86780331173213 140.53793963577482,91.28875060826977 137.20823147913325,91.3996334639669 137.02234971313737,90.93146004343726 135.6807682713552,89.90885830566549 134.1048141680949,89.34210783249728 133.02185083559016,89.16961751882263 129.6113245197921,89.39139069016528 128.2374158143648,89.66244569979972 131.11454227985814,89.47763559587474 131.0741332002799,91.15322684588318 130.83976053874358,92.44685054981164 131.31658767769113,92.6070115869552 130.9771514092863,92.70557201737756 131.03372412070166,93.61724849253369 134.17755051134736,93.96220362596796 135.20394113243674,94.34411597562212" stroke="#4dd2ff" stroke-linecap="round" stroke-linejoin="round" stroke-width="0.5"><title>2022-05-08 15.0km</title></polyline><polyline fill="none" points="167.46301369860885,93.28804486258741 168.36301369863213,93.32563098137325 171.06301369861467,92.46114643079636 173.7013698630035,93.60752639098064 174.6506849314901,93.56994038545963 175.20547945200815,94.09614308978053 176.62328767121653,93.15649332798785 177.27671232877765,93.08132093954919 178.2630136985972,94.6975139865608 177.95479452054133,96.70831986219855 178.59589041097206,98.43720252414641 180.23561643832363,100.84255136556021 181.7397260274156,102.0264112998193 186.00547945205471,107.68242432588158 187.65753424656577,112.41742822201195 188.19999999998254,112.28590357014764 188.1506849315192,111.64706691812171 186.76986301367288,108.26491788400017 185.91917808220023,104.76990216167178 187.2013698630035,104.05585063715989 185.80821917805588,97.77947918815335 185.08082191777066,95.65594086689816 184.1684931506461,94.09614308978053 181.6657534246624,91.12681764631998 178.632876712305,88.45810300587618 174.78630136983702,86.37194208928122 168.7575342465425,85.58257177798077 156.55205479450524,86.91697960905731 156.45342465752037,87.63116189932771 155.82465753422002,87.89428031673015 155.79999999998836,88.62724915021681" stroke="#4dd2ff" stroke-linecap="round" stroke-linejoin="round" stroke-width="0.5"><title>2022-05-05 5.1km</title></polyline><polyline fill="none" points="25.621818181796698,146.37601742219704 27.07272727272357,146.47579144283372 28.949090909096412,145.79399990586535 31.392727272730554,146.74185491032404 32.28727272726246,146.74185491032404 32.58181818184676,147.10769078234443 34.28363636363065,146.1099527793922 34.42545454544597,146.20972712062212 35.265454545471584,147.6564415603134 35.036363636376336,149.26941522017296 35.57090909089311,151.01538222875388 36.57454545455403,152.56177941303758 38.45090909089777,154.340931851395 40.32727272727061,156.6022293244896 42.35636363638332,159.6781598664893 43.469090909085935,163.26937206656294 44.19999999998254,163.26937206656294 42.41090909088962,157.20079773312318 42.36727272727876,156.36945155284775 43.19636363637983,156.13667312703183 43.32727272727061,155.87063983929693 42.01818181818817,150.0343195829846 40.6218181817967,147.20746392153524 38.374545454542385,144.4303999929034 35.0800000000163,141.6865028535758 32.28727272726246,140.27294460286066 28.425454545445973,139.57447161916934 24.018181818159064,139.79066626746499 23.647272727277596,139.12545016151853 21.312727272714255,137.46238651775639 19.523636363621335,136.86367542971857 17.669090909097577,136.7306279334298 13.043636363639962,137.09650803390105 11.821818181837443,137.46238651775639 11.799999999988358,137.62869438507187 15.716363636340247,137.3459708118462 15.36727272727876,141.1709726397312 15.923636363644619,141.3539030829561 15.607272727269446,141.3705331031888 15.552727272734046,142.7674428826649 19.818181818147423,143.23307423954975 21.279999999969732,143.73196207388537 21.432727272738703,143.98140486398188 20.941818181803683,145.0789442148016 21.018181818159064,145.34501216992794 22.95999999999185,144.81287540479389 24.312727272714255,144.8960219997607 25.95999999999185,145.44478743273794 26.963636363652768,145.42815823059937 27.912727272720076,145.09557348701492" stroke="#4dd2ff" stroke-linecap="round" stroke-linejoin="round" stroke-width="0.5"><title>2022-05-04 7.1km</title></polyline><polyline fill="none" points="59.15047546592541,144.18688345027476 61.11000380371115,144.14931157538376 63.09418029666995,143.45422916921234 65.57131989349728,144.50624377722852 66.87767211862956,144.6565306126795 67.03788512738538,145.12617541763757 69.09600608595065,143.90509402116732 70.21749714718317,145.59581786501803 69.92171928487369,147.83128359722468 70.56257131989696,149.42801213358325 72.09075694181956,151.66338630596147 73.68056295168935,153.05342398642824 77.58729554965976,158.03109224236687 78.17885127424961,159.02659411764762 79.46055534423795,163.3277918006861 80.19999999998254,163.30900970782386 80.01513883608277,162.16329491566285 78.46230505895801,158.6885003287971 77.93236972231534,156.45329398917966 77.8953974895121,155.73951937224774 79.01688855074462,155.26992783902097 79.17710155950044,154.96938802082877 77.1682769113977,147.06108714922448 76.08375808291021,144.91953199392447 74.87599847849924,143.3602987182603 70.30376569033251,139.28362628155446 67.06253328261664,137.53642656993907 63.291365538229,136.70978307707992 59.26139216430602,136.67220819930662 56.10642829973949,137.27340443271532 54.24549258273328,137.2546171089125 48.50247242295882,137.94974557733804 48.465500190184684,138.66365592535294 48.24366679342347,138.94546114209516 47.88626854316681,138.8139521465564 47.79999999998836,139.4151346168146 47.88626854316681,140.37326119398494 48.39155572457821,140.99322022109118 50.41270445034024,142.2331259507264 53.703233168518636,143.1536513941537 54.39338151385891,144.75045976230467 54.41802966906107,146.3848118695605 57.363484214496566,147.19258455259842" stroke="#4dd2ff" stroke-linecap="round" stroke-linejoin="round" stroke-width="0.5"><title>2022-05-01 6.0km</title></polyline><polyline fill="none" points="91.17236662103096,143.1212575617683 91.08372093021171,142.8735282591515 93.07824897405226,143.07621591107454 94.43748290016083,142.5807565596624 94.52612859098008,143.21134080889897 94.51135430915747,142.5807565596624 95.69329685362754,142.1303370681926 96.60930232558167,142.78344474067126 97.96853625169024,142.94109085045784 98.9436388508766,143.50411086233362 100.27332421339815,143.43654861015966 100.58358413132373,144.0446074147767 102.66675786592532,142.7384029543391 103.06566347467015,142.82848650900996 104.27715458278544,144.6977039404519 104.01121751026949,147.73793081448093 104.76470588240772,149.38187101845688 105.85800273600034,151.1834216535717 108.32530779752415,153.4803567481722 113.28946648427518,159.7178745571946 115.56470588239608,166.11265908208588 116.19999999995343,165.95504553555656 116.1261285909568,165.05439244975423 113.4963064295589,157.78135380839376 113.64404924761038,156.7230085730189 115.01805745559977,155.9348726554672 113.15649794804631,148.0081692151216 111.54610123124439,144.202251751929 108.47305061557563,140.46376922160562 104.27715458278544,136.97290495700145 99.87441860465333,134.83328928159608 97.0377564979135,134.13509007010725 92.9896032831748,133.88734091791412 88.51299589598784,134.33779351472913 88.01067031460116,134.65310925600352 88.82325581397163,135.44139473081304 90.74391244869912,136.0044523920442 95.91491108073387,135.3963499957972 97.24459644325543,135.68914045002748 99.66757865936961,137.78369602192106 101.13023255812004,137.28821328984486 102.01668946648715,138.36926370133006 104.88290013681399,140.64393991237012 106.70013679895783,143.59419380197505 104.35102599178208,144.94542921402171 103.96689466480166,146.90469164679962 104.1885088919662,148.2333673851026 106.28645690833218,151.65632390059181 108.67989056091756,153.84065602468036 113.4963064295589,160.1907408242987 115.50560875510564,166.09014287473838 116.17045143642463,165.9775617700725 116.1113543091924,165.05439244975423 114.45663474692265,161.00136407316313 113.5110807113233,157.1958874654665 113.68837209302,156.7680447438761 115.00328317371896,155.9348726554672 113.34856361150742,148.7288017672763 111.50177838577656,144.0446074147767 108.22188782488229,140.17099123171647 104.12941176473396,136.81525045815215 100.46538987691747,134.9909465665187 94.7477428180282,134.02247688693024 92.82708618330071,133.9098635906921 87.34582763339859,134.72067679950123 84.06593707250431,134.8558117644352 83.79999999998836,136.92786083707324 86.29685362521559,138.16656754291762" stroke="#4dd2ff" stroke-linecap="round" stroke-linejoin="round" stroke-width="0.5"><title>2022-04-30 10.1km</title></polyline><polyline fill="none" points="131.0813714285614,145.04359160821332 132.88342857145471,145.15647898984753 135.05577142856782,144.36626446209993 137.8329142856819,145.58921269299753 138.9314285714354,145.47632583270024 139.2523428571585,145.9278724580363 141.25188571427134,144.8554456698257 142.31337142857956,146.60518831601803 141.98011428571772,148.67473421424802 142.8317714285513,150.74423440528335 144.23885714283097,152.73843680209393 145.73234285711078,153.9612757714276 149.97828571428545,159.3980127677205 151.47177142853616,164.0067642325812 151.66925714284298,164.36416814151744 152.20000000001164,164.23249317576847 152.02719999995315,162.76524532637268 149.97828571428545,157.1970188346604 150.05234285714687,156.61384083880694 151.11382857139688,156.1999703819165 151.2496000000101,155.91778493146558 149.74377142853336,149.3708439253096 148.37371428569895,146.3417882863214 144.85599999997066,142.24017800392903 141.9677714285499,139.90707186065265 139.20297142854542,138.5147066429272 135.00640000001295,137.61153976237983 132.1922285714245,137.53627546264033 129.25462857144885,137.81851627476135 128.0450285714469,138.21365198337298 126.71199999999953,138.1383881673828 120.935542857158,138.8157603351283 120.58994285712834,138.90983941555896 120.3801142857119,139.58720600615925 119.79999999998836,139.51194329350983 119.92342857143376,138.00667634386627 124.7124571428576,137.63035582783777 124.7741714286094,136.2567731174786 125.19382857144228,135.63583185847529 125.99611428572098,136.10624228108645 125.29257142858114,137.46101110248128 125.00868571427418,140.1516744243272 127.62537142861402,140.9983706754938 125.99611428572098,144.4791526598201 126.4404571428604,145.909058058729 126.36639999999898,147.26368515079957 128.57577142861555,147.84692134000943 130.3408000000054,149.0133828277685 131.79725714283995,147.16961445769266 130.43954285717336,146.45467410399579 130.69874285714468,145.30699528720288 131.03200000000652,145.19410808684916" stroke="#4dd2ff" stroke-linecap="round" stroke-linejoin="round" stroke-width="0.5"><title>2022-04-28 7.1km</title></polyline><polyline fill="none" points="174.42273180457414,147.20645999498083 174.53579262216226,147.32956121542156 174.7215353938227,147.18183972122642 175.71485543370363,147.20645999498083 176.96660019940464,146.7509833300137 177.65304087739787,147.20645999498083 178.1618145563698,147.23108025881447 178.69481555334642,147.52652265401412 179.45393818544107,147.52652265401412 179.72851445662673,147.85889364679315 180.98025922235684,147.07104836698272 181.62632103692158,148.2651224131405 181.44865403790027,149.59457955664402 181.88474576271256,150.77629503831486 182.47427716851234,151.7487313197671 183.87946161517175,153.06580396983918 186.64945164506207,156.59837314147808 187.62662013957743,159.6138199498746 187.8608175473637,159.88458750936843 188.20000000001164,159.76151149420548 188.1030907278473,159.18305091371803 187.1824526420969,157.1030092661349 186.6333000997256,155.17059965568842 186.67367896312498,154.67825626172998 187.48125623131637,154.33361353358123 186.27796610168298,149.3114568402343 185.58344965107972,147.98199355722682 183.7825523429783,145.80308861066442 182.34506480558775,144.52279195719893 180.85912263210048,143.53793018299984 179.55084745763452,142.8731395409377 177.4834496510739,142.36838627573889 175.35144566302188,142.25758622225476 173.1871385842678,142.42994177452056 173.01754735794384,141.98674080388082 170.93399800601765,140.63249576235103 169.09272183451685,140.1523471547116 165.0225324027997,140.44782366601794 164.5622133599245,140.63249576235103 163.60927218347206,140.47244664434038 163.07627118643722,140.70636444513002 160.77467597209034,142.49149721146023 159.54715852445224,143.020871417757 156.40568295118283,142.8977615451331 156.06650049850577,142.7377183411336 155.79999999998836,143.09473722266193 159.41794616152765,143.31633410333598 160.1528414755885,143.1316700917232 161.3157527417934,142.5038082914216 163.63349950150587,140.47244664434038 164.2311066799739,140.54631551995408 165.69282153539825,140.21390487864846 169.48035892326152,140.11541249062793 171.72542372884345,140.866412952455 173.09022931207437,142.09754134695322 173.049850448675,142.4545639566859 172.3714855434082,142.750029371673 172.4603190428752,143.35326683889798 172.18574277171865,144.5104812826794 171.62043868395267,145.21218578531625 170.82901296115597,147.02180770081395 171.26510468596825,147.7111734280261 171.24895314060268,148.7082779975608 172.3068793619168,148.94216437566865 173.87357926223194,149.80384333280745 174.76999002991943,148.51132035549017 176.40129611169687,147.57576291480655 177.46729810570832,147.19414985932963 176.36091724826838,146.2831929625354 175.553339980077,146.6278809478099 174.43888334996882,146.66481168842802 173.9543369890307,147.9327536227138 174.16430707878317,148.21588270605935 174.82652043868438,148.53594009538574 175.82791625126265,147.8712036489669 175.62602193420753,147.44035210249785 174.48733798606554,147.40342182905806" stroke="#4dd2ff" stroke-linecap="round" stroke-linejoin="round" stroke-width="0.5"><title>2022-04-27 10.1km</title></polyline><polyline fill="none" points="18.28588908544043,194.1584379030901 19.950740535219666,194.02248552314268 23.191254964272957,193.04815534003137 23.93449221859919,193.63728622369672 25.435831472452264,193.9318505121555 26.372310412931256,194.56629406030697 27.665543235547375,194.61161132012057 28.066891352878883,195.06478291725216 30.237144135579,193.6826038565996 30.98038138996344,194.11312046129024 31.783077624684665,195.72187850055343 31.560106448363513,198.6674323726329 32.333073192916345,200.52535758035083 34.3398137796903,203.26687427453726 35.91547675890615,204.55830947605864 40.984354833723046,211.1285404211376 42.91677169507602,217.1999999999971 43.764062165049836,217.01876712995727 43.71946792979725,216.3391412752826 41.80191581347026,211.44571430567157 41.147867029649206,208.8629867511554 41.05867855908582,207.9114406475419 42.57488255802309,207.07316719475057 40.7316541672335,198.96198353123327 39.00734373705927,195.29136803335132 35.75196456297999,191.371381375051 33.07631044724258,188.99213231409522 31.470917977858335,187.791158974258 27.011494451668113,185.6157784928655 21.03586692659883,184.79999999999563 15.848070891108364,185.2078899836706 14.807538735039998,185.6157784928655 14.956186185940169,186.7487943933811 14.421055362734478,188.76553454912937 13.499441167339683,189.87585924994346 12.845392383460421,191.75658840933465 12.235937834950164,192.57231661176775 13.187281520513352,192.59497564430058" stroke="#4dd2ff" stroke-linecap="round" stroke-linejoin="round" stroke-width="0.5"><title>2022-04-25 5.0km</title></polyline><polyline fill="none" points="66.40690345168696,198.314034825602 67.82511255628197,198.2028558648235 68.97588794396142,197.69637138990583 69.4702351175365,198.06697019546118 70.22391195595264,198.19050263456666 70.66963481737184,198.44991994926022 71.38279139570659,198.43756676861813 71.71505752875237,198.75874865956575 73.00360180088319,197.98049734051529 73.66813406703295,199.05522276299962 73.49794897445827,200.51286632466872 73.91935967982863,201.66166276323565 74.77028514255653,202.95866522006327 75.96968484239187,204.02095162644764 78.72506253124448,207.56589097527467 79.851525762846,210.91301557648694 80.19999999998254,210.78950867891035 80.1756878439046,210.3078294096813 79.67323661828414,208.72690684928966 79.17078539266367,207.83762005842436 78.73316658326075,206.256634026955 78.69264632315026,205.7625675609561 79.55977988993982,205.34260794544753 78.4738369184488,200.74756841589624 77.62291145569179,198.8946328009879 76.61800900447997,197.6098980140523 75.40240120058297,196.30042918062463 73.54657328661415,194.7932701730133 71.6988494246907,193.8543655681642 68.93536768382182,193.2490115803448 67.13626813405426,193.18724043033944 65.27233616806916,193.44667884358932 65.03731865930604,192.87838374987768 62.92216108052526,191.5688141984865 60.928564282134175,191.08698442351306 57.52486243119347,191.29701325095448 56.59289644821547,191.5688141984865 55.344872436195146,191.5070413613248 53.497148574271705,193.00192660812536 52.05462731362786,193.8173032502782 51.0659329664777,194.0149686875593 48.40780390193686,193.86671966914582 47.95397698847228,193.68140789377867 47.79999999998836,193.99026054262868 50.61210605301312,194.27440361010667 51.90065032514394,194.16321734872326 53.16488244119682,193.5208039035715 55.352976488211425,191.65529606631026 55.71765882940963,191.5070413613248 56.71445722860517,191.60587787103213 58.88634317155811,191.37114090120667 61.033916958462214,191.42055928507762 62.14417208600207,191.5935233159944 63.15717858928838,192.07534912350457 63.489444722334156,191.7417778125564 61.82001000497257,191.19817624503048 59.58329164580209,191.16111232684852 56.981890945433406,191.3958500981098 56.17148574287421,191.61823242356695 57.88144072034629,191.5441050710615 58.96738369180821,191.30936786554958 59.60760380188003,191.4699776292655 61.131165582773974,191.3958500981098 62.549374687310774,191.81590492686882 62.99509754875908,192.26066573693606 62.533166583278216,193.2984284557133 62.338669334654696,194.87974750803187 63.96758379190578,195.39860896537357 63.12476238119416,197.44930427927466 63.935167583753355,197.177529311557 65.36958479238092,197.21458960511154 66.41500750373234,197.4863644091056 66.24482241118676,198.06697019546118" stroke="#4dd2ff" stroke-linecap="round" stroke-linejoin="round" stroke-width="0.5"><title>2022-04-22 10.1km</title></polyline><polyline fill="none" points="100.63583617750555,197.9738997006716 101.92593856656458,197.95985301548353 102.01808873721166,197.69296546062833 103.38191126281163,197.31370244696518 103.98088737204671,197.73510566853656 104.83788395908778,197.86152614005186 105.42764505121158,198.21269291763383 106.11877133106464,198.15650635170095 106.45051194541156,198.54981136573042 107.98020477817045,197.67891871902611 108.7819112628058,198.95716065633678 108.6160409556469,200.57248793914914 109.08600682596443,201.87876881248303 110.09965870308224,203.3254815292239 111.35290102392901,204.44912125005067 114.53208191125304,208.53620852786116 115.75767918091151,212.18769967967455 116.20000000001164,212.18769967967455 115.9880546075292,210.909699453965 115.1955631399469,209.16821101871756 114.54129692836432,206.92106511318707 114.52286689419998,206.4575822916886 115.33378839591751,206.0924118455223 115.48122866894118,205.8536455232461 114.4030716723646,201.21860840891168 113.82252559729386,199.6313887529068 113.29726962459972,198.6621838207575 111.2976109215233,196.232089225432 108.55153583621723,193.91429029211213 106.4412969283585,192.86071993436053 104.20204778158222,192.35500052626594 101.59419795224676,192.17237873035265 99.18907849831157,192.42523955157958 98.87576791812899,191.79308578468408 96.5535836177587,190.3180381115708 94.31433447101153,189.81230032032545 87.7440273037646,190.3180381115708 85.55085324234096,192.1583308801637 83.82764505120576,192.95905383917852 83.79999999998836,193.36643568645013 85.46791808874696,192.55166961942814 88.20477815699996,190.2056522517123 90.75733788398793,190.30398988894376 91.85392491469975,190.02302484435495 92.79385665533482,190.2056522517123 94.83959044370567,190.16350750772835 95.91774744031136,190.50066474866617 96.59965870308224,190.9923494787363 96.08361774744117,192.25666577232914 95.91774744031136,194.18119226363342 97.75153583619976,194.72904048836426 96.76552901024115,197.01871868144735 98.29522184302914,196.5551702510238 101.23481228671153,197.15918729633268 102.79215017065872,196.65349896263433" stroke="#4dd2ff" stroke-linecap="round" stroke-linejoin="round" stroke-width="0.5"><title>2022-04-21 8.1km</title></polyline><polyline fill="none" points="136.29488054607646,197.95986446339884 137.8061433447001,197.86153766695497 138.18395904434146,197.70702385048207 138.3406143344473,197.3979951935762 138.23924914674717,197.87558436064137 139.3634812286473,197.31371441390002 141.34470989761758,198.14247100444481 142.19249146757647,198.1284243643713 142.45051194538246,198.49363608977728 143.9064846416004,197.59464995138114 144.7266211604001,198.78861339921787 144.57918088734732,200.62868186919513 145.1505119453941,201.96305239312642 145.8324232081941,203.0305304876456 147.47269624573528,204.60362641260872 150.61501706484705,208.63452327689083 151.80375426620594,212.24387495562405 152.19999999998254,212.13152440372141 152.06177474404103,211.44337333674412 151.08498293513549,209.0839468644299 150.50443686006474,206.6120814061469 150.60580204776488,206.35927206153065 151.4167235494824,206.03623656956916 151.10341296927072,204.11203773578382 150.25563139931182,200.72700477639228 149.27883959040628,198.6762412375101 147.16860068257665,196.1056787464804 144.54232081910595,193.94239995929456 142.54266211602953,192.9169262526193 140.70887372014113,192.3971598660064 137.71399317405303,192.14429914631182 135.02320819112356,192.41120765695086 135.00477815698832,192.2566818012383 134.87576791807078,191.80715009826963 132.415358361759,190.24781461299062 130.16689419795875,189.7561250443723 125.93720136518823,190.0370909353769 124.94197952214745,190.3040074864948 124.2508532423235,190.10733223177522 123.83617747441167,190.20566992825843 121.56006825936493,192.0178684437451 119.8184300341236,192.86073547811975 119.79999999998836,193.28216518684712 121.45870307166479,192.4533510128822 124.17713310581166,190.20566992825843 125.34744027303532,190.36020031484804 127.82627986348234,190.09328397811987 130.22218430030625,190.09328397811987 131.63208191125887,190.34615211201526 132.62730375424144,191.04855879866227 132.05597269625287,192.24263397926916" stroke="#4dd2ff" stroke-linecap="round" stroke-linejoin="round" stroke-width="0.5"><title>2022-04-19 7.2km</title></polyline><polyline fill="none" points="160.04501831246307,192.96030606723798 160.0918393895845,192.69861401270464 162.38607216771925,192.55587264851056 164.69591197156115,191.69942085169168 168.25431383156683,193.269577749983 169.67455317039276,193.17441731816507 169.98669368441915,193.79295875869866 172.34335456538247,192.27038940408966 172.87399343925063,192.69861401270464 173.8416290328023,194.45907669873122 173.51388149306877,197.38519329124392 174.3098398038419,199.35968641813815 175.46475970576284,201.19141568073974 178.1491681264597,203.73675868027203 183.61162712209625,210.80158311891137 185.62493343756068,217.08107346927864 185.8590388231096,217.08107346927864 186.28042851708597,216.89079077200586 186.2180004142574,215.6301601846062 184.11105194449192,210.5399304659004 183.4399498393177,207.5189898101089 185.0786875380436,206.30583448615653 183.33070065942593,198.6698070172497 181.55149972939398,194.1022282680351 178.03991894650972,189.93891715994687 173.35781123605557,185.94200085434568 171.75028758874396,185.18066817451472 170.79825902095763,184.79999999999563 170.64218876394443,186.67953722245875 171.3757189719472,187.6311902680245 174.45030303520616,190.17682459289063 176.35436017077882,192.84135520499694 177.82142058672616,195.26792916273553 178.50812971760752,197.9323452847093 182.98734609398525,197.29003616486443 183.86133953323588,199.83546297495195 185.1567226665211,206.37719690790254 183.70526927622268,207.42384082180797 184.86018917820184,211.87197431944514 186.62378308246844,216.79564930880588 185.78100369457388,217.1999999999971 185.2035437436425,216.415082691914 183.5960200963309,211.7292560513597 182.62838450283743,209.85011615673284 178.39888053765753,204.3076692287359 175.2930824230425,201.28656967385177 173.31099015893415,197.83718859782675 173.20174097904237,196.9094068952254 173.66995175008196,194.76834446927387 176.16707586229313,193.24578764916077 177.79020653531188,195.24413946310233 178.60177187179215,197.97992359958153 182.62838450283743,197.0045643272897 181.17693111259723,193.76916876304313 177.00985525018768,189.01107360658352 173.31099015893415,186.0133755422794 170.81386604666477,184.82379179669806 170.72022389242193,186.96503393876628 172.12485620559892,188.34492503590445 170.81386604666477,189.43930999565055 169.19073537364602,189.01107360658352 168.62888244836358,189.39172825106652 167.75488900911296,190.46231288193667 167.97338736895472,192.5320824044029 164.0560239178012,193.17441731816507 163.19763750419952,194.03085845289752 160.7629414947587,195.4344569256864 158.95252651331248,197.74203183446662 157.37621691747336,196.88561752529495 159.68605672131525,191.3187736213731 161.71497006254504,191.3425641091162 163.75949042948196,190.55747549200169 164.66469792014686,191.69942085169168 162.69821268174564,192.88893556420953 159.6236286184867,192.98409622530016" stroke="#4dd2ff" stroke-linecap="round" stroke-linejoin="round" stroke-width="0.5"><title>2022-04-10 10.4km</title></polyline><polyline fill="none" points="14.596269832924008,244.02100822642387 14.769729870429728,243.75659862042085 16.70932847104268,243.87678487734956 19.547765447641723,242.79510422095336 20.50968020077562,243.5162257444972 23.080042574030813,244.38156583891396 24.515030156588182,244.23734292421432 24.735797476954758,244.9103817061041 27.25885256723268,243.46815111141768 28.693840149848256,245.41515830938442 28.425765546504408,248.46780955261056 29.18268207355868,250.4147354388915 30.901513353863265,253.05865816976439 33.3457229725318,255.29392910977185 38.62836956779938,262.11965948037687 40.567968168412335,268.17596764136397 41.40373016707599,268.1999999999971 38.53375500184484,259.28366383469256 38.517985907557886,258.53860298844666 40.1895099048852,257.6973996859233 38.18683492700802,248.66009993824264 36.57838730694493,245.36708443885436 33.15649384079734,241.16054601831274 28.252305509056896,237.00193702516117 25.697712230146863,235.79999999999563 25.618866758595686,238.13174682499812 29.403449394041672,241.16054601831274 31.2799716173904,244.45367723106756 28.835761998663656,245.72763799709355 27.353467133129016,243.5643003583682 24.92502660874743,244.98249277972354 22.023513254942372,243.8527476356321 20.761985709832516,243.75659862042085 19.153538089769427,244.21330575489992 17.1666322061792,245.63149048777268" stroke="#4dd2ff" stroke-linecap="round" stroke-linejoin="round" stroke-width="0.5"><title>2022-04-09 5.2km</title></polyline><polyline fill="none" points="50.57842189370422,244.0030555428093 52.34587250847835,243.85872510921763 52.393214935669675,243.61817400013388 55.65984241128899,242.6800200596408 56.55934852780774,243.52195342132472 58.01118296140339,243.7143945017233 59.100058786571026,244.29171588832105 60.457208365842234,244.29171588832105 60.851728592358995,244.86903449277452 63.26619237870909,243.3295120317125 63.97632878640434,243.97900048266456 64.78115004854044,245.49445984140038 64.49709548539249,248.45315857868263 65.27035512943985,250.52179884474754 67.22717545297928,253.28794803642086 69.42070791241713,255.26029367287265 74.64415571157588,262.1151448819801 76.69566088955617,268.1999999999971 77.42157810635399,268.07974893948995 77.27955082478002,266.6848278169273 75.6856891096104,262.95694167619513 74.54947085719323,258.6516901318246 74.80196380219422,258.2187512482342 76.1748941905098,257.56933998961176 75.33851131028496,253.07146909883886 73.57106069545262,246.93773664641049 72.5295272974181,244.8930893742363 70.68317263730569,242.6800200596408 66.21720367309172,238.37403977962822 64.41819144017063,237.0028292109564 61.76701551792212,235.79999999999563 61.56186500011245,237.41178839141503 61.84591956320219,238.30187119363836 65.22301270224852,241.04424689854932 67.36920273455326,244.29171588832105 64.97051975724753,245.61473357263458 63.21884995151777,243.49789826455526 61.056879110168666,244.82092471532815 57.837594061682466,243.7384496150844 54.94970600359375,244.17144082888262" stroke="#4dd2ff" stroke-linecap="round" stroke-linejoin="round" stroke-width="0.5"><title>2022-04-07 5.0km</title></polyline><polyline fill="none" points="86.57260540826246,243.17970290628 86.43068344541825,243.46815111029719 86.82491111994023,243.7085240826491 88.66989663627464,243.7085240826491 91.87102535285521,242.77106676087715 92.83294087852119,243.51622574334033 94.52023532515159,243.78063588022633 95.13523049734067,244.18926857945917 96.58598833926953,244.2613800874533 96.88560137187596,244.8382705877375 99.37712027441012,243.3479644430554 100.134037409327,243.97293379480107 100.9855691861012,245.67956425068405 100.71749436750542,248.75624501367565 102.08940667461138,251.52038295530656 103.46131898165913,253.3230472297655 105.33784271212062,254.81322920280945 110.90433747530915,262.0956259002123 112.84393763361732,268.1999999999971 113.56931655463995,268.1279029095167 113.52200923371129,266.9022457297251 111.06202854507137,261.25444758989033 110.5889553357847,258.46650007842254 112.16586603358155,257.76950305629 112.2762497824151,257.0965365639786 110.49434069386916,249.6936554675267 109.3274267775123,246.2804846759609 108.01859089836944,244.42964010391734 107.13552090758458,244.93441873419943 107.6401323308819,244.09311983453517 105.14861342834774,240.92016792865616 100.63864883262431,237.14616865690186 97.86328600445995,235.79999999999563 97.70559493469773,237.43463139962114 98.00520796730416,238.3240538135724 101.34825864661252,240.89613009328605 103.66631737240823,243.99697101239144 102.18402131646872,245.17478876240784 101.01710740011185,245.63149048635387 99.62942598602967,243.58833765674353 99.04596902785124,243.68448680709116 98.57289581850637,243.15566552461678 97.81597868358949,240.60767569175368 99.28250563249458,239.23750779247348 101.37979686062317,240.9922814059537 103.65054826543201,244.09311983453517 101.30095132568385,245.55937980372983 101.03287650708808,245.60745359690918 99.42442759533878,243.44411378647055 97.07483065559063,244.8382705877375 96.52291191136464,244.3815658375679 95.087923176412,244.23734292290465 91.69756517611677,242.96336629717553 89.97873251547571,243.80467313648114 87.70798111066688,243.9488965724231" stroke="#4dd2ff" stroke-linecap="round" stroke-linejoin="round" stroke-width="0.5"><title>2022-04-03 6.2km</title></polyline><polyline fill="none" points="149.9180327868089,257.248112547808 150.606557377032,254.39921011157276 150.39016393444035,253.22964495429187 152.19999999995343,252.3299732154992 152.19999999995343,251.4602853825636 146.77049180329777,247.98148339973704 143.6819672131096,247.1417604341259 137.05245901632588,247.23173097778636 131.07213114754995,248.16142342088278 128.4557377048768,247.9514933751634 123.77377049176721,251.73018904510536 119.97704918024829,253.61950102448463 119.79999999998836,254.42919884127332 123.10491803276818,253.01972203339392 128.5540983605897,248.22140337976452 129.65573770483024,247.86152326516458 134.39672131143743,247.92150334449252 137.22950819670223,247.29171131001203 144.01639344258,247.8915133077826 147.39999999996508,249.33102827308176 148.12786885240348,248.82120164323715 147.4786885245121,248.16142342088278 142.12786885240348,247.05178983643418 132.86229508195538,247.7115729614743 131.05245901632588,248.25139335010317 128.6524590163608,247.9514933751634 122.71147540980019,252.5998753063177 119.79999999998836,253.76944539591204 120.07540983601939,254.42919884127332 123.63606557372259,252.6598534823861 128.43606557376916,248.37135317148932 129.89180327864597,247.83153321652208 130.77704918029485,247.98148339973704 133.98360655736178,247.2017408025713 142.85573770484189,246.75188745217747 148.14754098362755,248.3113732727652" stroke="#4dd2ff" stroke-linecap="round" stroke-linejoin="round" stroke-width="0.5"><title>2022-03-24 5.1km</title></polyline><polyline fill="none" points="175.0297297379002,267.43606837131665 174.13512450034614,267.23598997467343 172.85882102808682,268.1999999999971 172.28627367605804,267.90897918734845 172.0,267.181423062495 171.63022983513656,263.88915850172634 171.20081932109315,262.8705330578523 170.68791231827345,262.5067354786079 167.71782292949501,262.4339757873531 166.20295806054492,260.97876968008495 180.86255588685162,241.38577963197167 173.83692275447538,235.8000000000029 163.13744411317748,257.6317068519711 169.7336667315103,264.3620878472866 170.1392211058701,264.03467548662593" stroke="#4dd2ff" stroke-linecap="round" stroke-linejoin="round" stroke-width="0.5"><title>2021-10-26 5.0km</title></polyline></svg>