<?xml version="1.0" encoding="utf-8" ?>
<svg baseProfile="full" height="300mm" version="1.1" viewBox="0,0,200,300" width="200mm" xmlns="http://www.w3.org/2000/svg" xmlns:ev="http://www.w3.org/2001/xml-events" xmlns:xlink="http://www.w3.org/1999/xlink"><defs /><rect fill="#222222" height="300" width="200" x="0" y="0" /><text fill="#FFFFFF" style="font-size:12px; font-family:Arial; font-weight:bold;" x="10" y="20">Over 5km Runs</text><text fill="#FFFFFF" style="font-size:4px; font-family:Arial" x="10" y="280">ATHLETE</text><text fill="#FFFFFF" style="font-size:9px; font-family:Arial" x="10" y="290">Wenz</text><text fill="#FFFFFF" style="font-size:4px; font-family:Arial" x="120" y="280">STATISTICS</text><text fill="#FFFFFF" style="font-size:3px; font-family:Arial" x="120" y="285">Number: 15</text><text fill="#FFFFFF" style="font-size:3px; font-family:Arial" x="120" y="290">Weekly: 2.1</text><text fill="#FFFFFF" style="font-size:3px; font-family:Arial" x="141" y="285">Total: 107.6 km</text><text fill="#FFFFFF" style="font-size:3px; font-family:Arial" x="141" y="290">Avg: 7.2 km</text><text fill="#FFFFFF" style="font-size:3px; font-family:Arial" x="167" y="285">Min: 5.0 km</text><text fill="#FFFFFF" style="font-size:3px; font-family:Arial" x="167" y="290">Max: 10.4 km</text><polyline fill="none" points="30.829090909159277,49.16802322960575 32.76363636372844,49.301055257121334 35.26545454550069,48.39199987449683 38.52363636367954,49.65580654711084 39.71636363636935,49.65580654711084 40.109090909187216,50.14358770979743 42.378181818232406,48.813270372535044 42.567272727319505,48.94630282750586 43.68727272731485,50.8752554137609 43.38181818189332,53.025886960240314 44.09454545460176,55.353842971679114 45.43272727279691,57.41570588405739 47.93454545462737,59.78790913520061 50.43636363639962,62.802972432655224 53.141818181902636,66.90421315532876 54.62545454548672,71.69249608875543 55.600000000034925,71.69249608875543 53.2145454545971,63.601063644178794 53.15636363642989,62.49260207047337 54.26181818189798,62.18223083604971 54.43636363639962,61.82751978573651 52.690909090975765,54.04575944398675 50.82909090910107,50.27661856204941 47.832727272761986,46.57386665720696 43.440000000060536,42.91533713811077 39.71636363636935,41.03059280382149 34.567272727319505,40.09929549223307 28.690909090975765,40.38755502329877 28.196363636408933,39.50060021536774 25.083636363677215,37.28318202368973 22.69818181823939,36.48490057297022 20.225454545521643,36.30750391124457 14.058181818225421,36.795344045211095 12.429090909135994,37.28318202368973 12.400000000023283,37.504925846769765 17.62181818188401,37.127961082464026 17.156363636429887,42.22796351964644 17.898181818251032,42.471870777284494 17.476363636378665,42.494044137594756 17.4036363636842,44.35659051022958 23.09090909094084,44.977432319406944 25.040000000037253,45.6426160985211 25.24363636370981,45.97520648531645 24.589090909110382,47.4385922864094 24.690909090975765,47.79334955991362 27.28000000002794,47.083833873068215 29.083636363677215,47.19469599969307 31.28000000002794,47.92638324366271 32.61818181822309,47.90421097414219 33.88363636372378,47.4607646493605" stroke="#4dd2ff" stroke-linecap="round" stroke-linejoin="round" stroke-width="0.5"><title>2022-05-04 7.1km</title></polyline><polyline fill="none" points="93.53396728791995,46.249177933699684 96.14667173835915,46.199082100516534 98.79224039561814,45.27230555895949 102.0950931913685,46.67499170298106 103.83689615823096,46.87537415024417 104.05051350325812,47.501567223524034 106.79467478132574,45.87345869489218 108.28999619628303,48.12775715335738 107.89562571322313,51.10837812964019 108.75009509321535,53.237349511444336 110.78767592244549,56.2178484079559 112.90741726895794,58.071231981914025 118.11639406625181,64.70812298982491 118.90513503237162,66.03545882354229 120.61407379235607,71.77038906758389 121.60000000003492,71.74534627710091 121.35351844812976,70.21772655422683 119.28307341196341,65.58466710506036 118.57649296312593,62.60439198558015 118.52719665272161,61.65269249634002 120.02251806773711,61.026570452027954 120.23613541270606,60.625850694443216 117.55770254856907,50.08144953230658 116.11167744389968,47.226042658570805 114.50133130472386,45.14706495768041 108.40502092050156,39.71150170874898 104.08337771019433,37.381902093264216 99.0551540509914,36.27971076944959 93.6818562191329,36.22961093241611 89.4752377330442,37.0312059102871 86.99399011034984,37.00615614522394 79.33662989735603,37.93299410311738 79.28733358695172,38.884874567142106 78.99155572458403,39.260614856131724 78.51502472424181,39.08526952874672 78.40000000002328,39.88684615576494 78.51502472424181,41.16434825865872 79.18874096614309,41.990960294795514 81.8836059338646,43.64416793430428 86.27097755804425,44.87153519221465 87.19117535185069,47.00061301641108 87.2240395587869,49.17974915942614 91.15131228603423,50.25677940346941" stroke="#4dd2ff" stroke-linecap="round" stroke-linejoin="round" stroke-width="0.5"><title>2022-05-01 6.0km</title></polyline><polyline fill="none" points="154.22982216143282,44.8283434156765 154.11162790696835,44.498037678858964 156.77099863206968,44.76828788142302 158.58331053354777,44.107675412873505 158.70150478801224,44.94845441184589 158.6818057455239,44.107675412873505 160.25772913818946,43.50711609091377 161.47906976746162,44.37792632088531 163.29138166893972,44.58812113394379 164.59151846787427,45.33881448309694 166.36443228460848,45.24873148021288 166.7781121751177,46.05947655302589 169.5556771546253,44.31787060578063 170.087551299599,44.43798201200843 171.70287277706666,46.930271920587984 171.34829001367325,50.98390775262669 172.35294117656304,53.17582802459947 173.81067031470593,55.57789553809562 177.10041039669886,58.640475664215046 183.71928864577785,66.95716607625945 186.7529411765281,75.48354544278118 187.60000000003492,75.27339404739905 187.5015047880006,74.07252326632442 183.99507523945067,64.37513841118198 184.19206566351932,62.96401143068215 186.02407660748577,61.913163540608366 183.54199726408115,51.34422562015243 181.394801641698,46.269669002562296 177.29740082082571,41.28502562879294 171.70287277706666,36.63053994264919 165.83255813957658,33.777719042118406 162.0503419972374,32.84678676012845 156.6528043776052,32.51645455720427 150.6839945280226,33.11705801963399 150.0142270862125,33.53747900799499 151.09767441864824,34.588526307750726 153.65854993159883,35.339269856049214 160.55321477435064,34.528466661053244 162.32612859102665,34.91885393335542 165.55677154590376,37.711594695880194 167.50697674421826,37.05095105311193 168.68891928868834,38.49235160177341 172.51053351577139,41.525253216488636 174.93351573194377,45.45892506929522 171.80136798910098,47.260572285347735 171.28919288644101,49.872922195718274 171.5846785226022,51.64448984678893 174.38194254448172,56.20843186744605 177.57318741455674,59.12087469956896 183.99507523945067,67.58765443238372 186.67414500686573,75.45352383296995 187.56060191523284,75.30341569341545 187.48180574562866,74.07252326632442 185.27551299589686,68.66848543086962 184.0147742818226,63.594516620607465 184.25116279075155,63.02405965849175 186.0043775649974,61.913163540608366 183.79808481538203,52.30506902303023 181.33570451446576,46.05947655302589 176.96251709986245,40.89465497560741 171.50588235299801,36.420333944202866 166.62051983590936,33.98792875534855 158.9969904241152,32.69663584922091 156.4361149110482,32.54648478758463 149.12777017790359,33.627569065996795 144.7545827634167,33.807749019237235 144.40000000002328,36.5704811160831 147.72913816693472,38.22209005721379" stroke="#4dd2ff" stroke-linecap="round" stroke-linejoin="round" stroke-width="0.5"><title>2022-04-30 10.1km</title></polyline><polyline fill="none" points="27.441828571492806,95.39145547762018 29.844571428664494,95.5419719864658 32.74102857144317,94.48835261613567 36.44388571428135,96.11895025733247 37.908571428619325,95.96843444360275 38.336457142897416,96.57049661071505 41.00251428573392,95.14059422643913 42.41782857145881,97.47358442136465 41.9734857143485,100.23297895234282 43.10902857145993,102.99231254038023 44.985142857185565,105.65124906945857 46.97645714285318,107.28170102857985 52.637714285752736,114.53068369029643 54.62902857142035,120.67568564345129 54.892342857143376,121.15222418869234 55.600000000034925,120.97665756769857 55.369599999976344,119.02032710183266 52.637714285752736,111.5960251128854 52.7364571429207,110.81845445174258 54.15177142858738,110.26662717589352 54.332800000032876,109.89037990862562 52.325028571416624,101.16112523374613 50.498285714304075,97.12238438176428 45.80800000001909,91.6535706719078 41.95702857145807,88.54276248087263 38.27062857145211,86.68627552391263 32.675200000056066,85.48205301651615 28.922971428604797,85.38170061686105 25.006171428598464,85.75802169968665 23.393371428654063,86.2848693111664 21.616000000038184,86.1845175565104 13.914057142916135,87.08768044684257 13.45325714291539,87.21311922074528 13.173485714301933,88.11627467488142 12.400000000023283,88.01592439135129 12.564571428636555,86.00890179182898 18.949942857201677,85.50714110378613 19.032228571537416,83.6756974899763 19.591771428647917,82.84777581130766 20.66148571431404,83.47498970812012 19.723428571480326,85.28134813664656 19.344914285757113,88.86889923244598 22.833828571485355,89.99782756732748 20.66148571431404,94.63887021310074 21.253942857205402,96.54541074497683 21.15520000003744,98.35158020107338 24.101028571487404,99.12922845335561 26.454400000046007,100.6845104370368 28.396342857158743,98.22615261026658 26.586057142936625,97.27289880533499 26.931657142937183,95.74266038294445 27.376000000047497,95.59214411580615" stroke="#4dd2ff" stroke-linecap="round" stroke-linejoin="round" stroke-width="0.5"><title>2022-04-28 7.1km</title></polyline><polyline fill="none" points="103.23030907276552,98.27527999331505 103.38105682953028,98.43941495390027 103.62871385843027,98.24245296164008 104.95314057826181,98.27527999331505 106.62213359918678,97.66797777335887 107.5373878365208,98.27527999331505 108.21575274181669,98.30810701176233 108.92642073778552,98.70203020536428 109.93858424725477,98.70203020536428 110.30468594215927,99.14519152905996 111.97367896314245,98.09473115598666 112.83509471587604,99.6868298841946 112.59820538386703,101.45943940886355 113.17966101696948,103.03506005109375 113.96570289134979,104.33164175969432 115.83928215355263,106.08773862646194 119.5326021934161,110.7978308553138 120.83549351943657,114.81842659983522 121.14775672982796,115.17945001249609 121.60000000000582,115.01534865894791 121.47078763711033,114.24406788496708 120.24327018944314,111.47067902152048 119.51106679963414,108.8941328742585 119.56490528414724,108.23767501564726 120.64167497507879,107.77815137811558 119.037288135587,101.08194245365303 118.11126620142022,99.30932474297879 115.71006979062804,96.40411814756226 113.79341974077397,94.69705594293919 111.81216350948671,93.38390691067616 110.06779661017936,92.49751938792178 107.31126620143186,91.82451503432094 104.4685942173819,91.67678162967786 101.58285144568072,91.90658903270378 101.35672981059179,91.3156544051817 98.57866400800413,89.50999434980622 96.12362911269884,88.86979620628699 90.6967098703899,89.26376488803362 90.0829511465563,89.50999434980622 88.81236291126697,89.29659552579687 88.10169491526904,89.60848592685215 85.03290129610104,91.98866294862091 83.39621136590722,92.69449522368086 79.20757726821466,92.53034872685384 78.7553339980077,92.31695778818539 78.39999999999418,92.7929829635541 83.2239282153605,93.08844547111948 84.2037886340986,92.84222678896913 85.75433698904817,92.00507772190758 88.84466600202722,89.29659552579687 89.64147557329852,89.39508735994605 91.59042871388374,88.95187317153614 96.64047856433899,88.82054998751119 99.6338983050955,89.82188393661636 101.45363908275613,91.46338846260915 101.39980059824302,91.93941860891937 100.4953140578582,92.33337249556644 100.6137587238336,93.13768911853549 100.2476570289291,94.68064171024889 99.49391824527993,95.61624771376228 98.43868394818855,98.0290769344283 99.020139581291,98.94823123737297 98.99860418745084,100.27770399675501 100.40917248255573,100.58955250089639 102.49810568295652,101.73845777707902 103.69332003989257,100.0150938073275 105.86839481559582,98.76768388641358 107.2897308075917,98.25886647911102 105.8145563310245,97.04425728338538 104.73778664009296,97.50384126375138 103.25184446660569,97.55308225124463 102.60578265204094,99.243671496959 102.88574277170119,99.62117694141489 103.76869391824584,100.04792012718826 105.10388833499746,99.16160486530134 104.8346959122864,98.58713613666623 103.31645064806798,98.53789577208954" stroke="#4dd2ff" stroke-linecap="round" stroke-linejoin="round" stroke-width="0.5"><title>2022-04-27 10.1km</title></polyline><polyline fill="none" points="153.04785211395938,92.87791720412497 155.26765404699836,92.69664736419509 159.58833995234454,91.39754045338486 160.57932295819046,92.18304829827684 162.58110862993635,92.57580068288371 163.82974721729988,93.42172541374748 165.5540576474159,93.48214842683228 166.08918847056339,94.08637722300773 168.98285884747747,92.24347180880432 169.9738418533234,92.81749394838698 171.04410349961836,94.96250466741913 170.74680859787622,98.88990983019175 171.77743092388846,101.36714344048232 174.45308503968408,105.0224990327115 176.55396901193308,106.74441263475455 183.31247311166953,115.50472056152648 185.88902892678743,123.60000000000582 187.01874955341918,123.35835617328121 186.9592905730824,122.45218836703862 184.40255441801855,115.92761907423846 183.5304893729044,112.48398233488842 183.41157141217263,111.21525419672253 185.433176744089,110.09755625967227 182.97553888970288,99.28264470832073 180.67645831615664,94.38849071114964 176.3359527506982,89.16184183341102 172.76841392973438,85.98950975213666 170.62789063714445,84.38821196569188 164.68199260230176,81.4877046571637 156.71448923554271,80.40000000000873 149.79742785484996,80.94385331157537 148.4100516467588,81.4877046571637 148.60824824793963,82.99839252451784 147.89474048372358,85.68737939884886 146.6659215564723,87.16781233326765 145.79385651135817,89.6754512124462 144.98125044658082,90.76308881570003 146.2497086940566,90.79330085907714" stroke="#4dd2ff" stroke-linecap="round" stroke-linejoin="round" stroke-width="0.5"><title>2022-04-25 5.0km</title></polyline><polyline fill="none" points="37.20920460228808,146.41871310080023 39.100150075071724,146.27047448642406 40.63451725864434,145.59516185320535 41.29364682341111,146.08929359394097 42.29854927465203,146.25400351275312 42.89284642320126,146.5998932656803 43.84372186096152,146.58342235815508 44.28674337171833,147.01166487941373 46.00480240120669,145.9739964540131 46.89084542274941,147.40696368399222 46.66393196597346,149.35048843288678 47.22581290645758,150.8822170176427 48.36038019010448,152.61155362674617 49.95957978989463,154.0279355019229 53.633416708384175,158.75452130036138 55.135367683833465,163.21735410198016 55.60000000000582,163.05267823854956 55.5675837918825,162.4104392129011 54.897648824437056,160.30254246571712 54.227713856933406,159.11682674456097 53.644222111062845,157.00884536926606 53.59019509758218,156.35009008127236 54.74637318661553,155.79014392726094 53.2984492246469,149.66342455452832 52.163881940970896,147.19284373465052 50.8240120059927,145.47986401872913 49.203201600845205,143.73390557416133 46.728764382191,141.72436023067712 44.26513256630278,140.47248742421652 40.580490245105466,139.66534877379308 38.18169084543479,139.58298724045017 35.69644822413102,139.92890512478334 35.38309154578019,139.17117833317025 32.56288144073915,137.42508559797716 29.904752376227407,136.78264589801256 25.366483241610695,137.06268433460355 24.123861930973362,137.42508559797716 22.459829914965667,137.34272181509732 19.996198099077446,139.33590214416472 18.07283641822869,140.4230710003685 16.754577288695145,140.6866249167433 13.210405202640686,140.48895955885382 12.605302651354577,140.24187719170732 12.39999999999418,140.65368072350248 16.149474737379933,141.03253814680647 17.867533766897395,140.8842897982977 19.55317658832064,140.0277385380905 22.470635317644337,137.54039475507307 22.95687843923224,137.34272181509732 24.285942971531767,137.474503828038 27.181790895439917,137.16152120160405 30.04522261134116,137.2274123801035 31.5255627813749,137.4580310879901 32.876238119089976,138.1004654979988 33.31925962984678,137.65570375006791 31.09334667332587,136.93090166003822 28.11105552778463,136.88148310245742 24.64252126062638,137.19446679748216 23.56198099051835,137.4909765647535 25.84192096051993,137.3921400947438 27.28984492245945,137.07915715406125 28.143471735878848,137.2933035056849 30.174887443718035,137.19446679748216 32.06583291647257,137.75453990248934 32.66013006505091,138.34755431590747 32.04422211108613,139.73123794094863 31.784892446245067,141.83966334403522 33.95677838922711,142.5314786204981 32.83301650828798,145.26573903903045 33.913556778396014,144.90337241540692 35.826113056537,144.95278614014387 37.22001000502496,145.31515254547412 36.99309654827812,146.08929359394097" stroke="#4dd2ff" stroke-linecap="round" stroke-linejoin="round" stroke-width="0.5"><title>2022-04-22 10.1km</title></polyline><polyline fill="none" points="100.847781569988,145.96519960090518 102.56791808872367,145.94647068731865 102.69078498292947,145.5906206141808 104.50921501705307,145.08493659595842 105.30784982937621,145.64680755805603 106.45051194541156,145.81536818674067 107.23686006828211,146.28359055684996 108.15836177475285,146.20867513561097 108.60068259388208,146.73308182098117 110.64027303754119,145.57189162537543 111.70921501706471,147.2762142084539 111.4880546075292,149.42998391887522 112.11467576792347,151.17169174998708 113.46621160409995,153.1006420389749 115.13720136522898,154.59882833340816 119.37610921499436,160.04827803715307 121.01023890785291,164.91693290623516 121.59999999997672,164.91693290623516 121.31740614338196,163.21293260529637 120.26075085325283,160.89094802496402 119.38839590444695,157.89475348425185 119.36382252559997,157.27677638892783 120.44505119451787,156.78988246070367 120.64163822526461,156.47152736433782 119.2040955631237,150.29147787855618 118.43003412973485,148.17518500387814 117.72969283279963,146.88291176101484 115.06348122868803,143.64278563391417 111.40204778159386,140.55238705615193 108.5883959044586,139.14762657915708 105.60273037542356,138.47333403502853 102.12559726965264,138.22983830714657 98.9187713310821,138.56698606877762 98.50102389079984,137.72411437958363 95.4047781569825,135.75738414876832 92.41911262800568,135.08306709377212 83.65870307167643,135.75738414876832 80.73447098975885,138.2111078402304 78.43686006823555,139.2787384522453 78.39999999999418,139.82191424860503 80.62389078497654,138.7355594925757 84.27303754267632,135.60753633562854 87.6764505119645,135.73865318526805 89.13856655289419,135.36403312581388 90.39180887374096,135.60753633562854 93.1194539249409,135.55134334364266 94.55699658705271,136.00088633155974 95.46621160409995,136.65646597165323 94.77815699658822,138.34222102977947 94.55699658705271,140.9082563515185 97.00204778157058,141.6387206511572 95.68737201363547,144.69162490860617 97.72696245735278,144.0735603347057 101.64641638225294,144.87891639511508 103.72286689418252,144.20466528351972" stroke="#4dd2ff" stroke-linecap="round" stroke-linejoin="round" stroke-width="0.5"><title>2022-04-21 8.1km</title></polyline><polyline fill="none" points="166.39317406143527,145.94648595120088 168.4081911262765,145.8153835559351 168.911945392465,145.6093651339761 169.1208191126061,145.19732692476828 168.98566552900593,145.83411248085758 170.48464163820609,145.08495255186426 173.1262798634998,146.18996133925975 174.25665529008256,146.17123248583084 174.60068259382388,146.65818145303638 176.54197952215327,145.45953326850577 177.63549488052377,147.0514845322905 177.43890784980613,149.50490915892442 178.2006825938588,151.2840698575019 179.10989761090605,152.70737398352503 181.29692832764704,154.80483521681163 185.48668941980577,160.17936436919263 187.07167235494126,164.9918332741654 187.59999999997672,164.84203253829037 187.41569965871167,163.9244977823255 186.11331058020005,160.77859581923985 185.339249146753,157.48277520819101 185.47440273035318,157.145696082036 186.5556313993293,156.71498209275887 186.13788395901793,154.14938364770933 185.00750853240606,149.6360063685206 183.70511945389444,146.90165498334682 180.89146757678827,143.47423832864297 177.38976109214127,140.58986661239032 174.72354948802968,139.22256833682331 172.2784982935118,138.52954648801096 168.2853242320707,138.1923988617491 164.69761092148838,138.54827687593206 164.6730375426414,138.34224240164622 164.50102389077074,137.74286679769284 161.22047781565925,135.66375281732326 158.22252559728804,135.00816672582732 152.582935153594,135.38278791383345 151.2559726962063,135.73867664865975 150.33447098973556,135.47644297569786 149.78156996588223,135.60755990433972 146.74675767918234,138.02382459165528 144.42457337884116,139.1476473041621 144.39999999999418,139.70955358246283 146.61160409558215,138.60446801717626 150.23617747440585,135.60755990433972 151.79658703072346,135.81360041979497 155.10170648465282,135.4577119708265 158.29624573377077,135.4577119708265 160.17610921501182,135.7948694826846 161.50307167234132,136.73141173154727 160.74129692831775,138.3235119723613" stroke="#4dd2ff" stroke-linecap="round" stroke-linejoin="round" stroke-width="0.5"><title>2022-04-19 7.2km</title></polyline><polyline fill="none" points="18.060024416656233,187.28040808966034 18.122452519426588,186.9314853502874 21.1814295569784,186.74116353136196 24.261215962120332,185.59922780227498 29.00575177546125,187.69277033332037 30.89940422726795,187.56588975756313 31.315591579303145,188.39061167827458 34.45780608721543,186.36051920546743 35.1653245856869,186.9314853502874 36.45550537708914,189.27876893166103 36.018508657463826,193.18025772167312 37.07978640514193,195.8129152242036 38.619679607742,198.25522090766754 42.1988908352796,201.6490115737106 49.482169496128336,211.06877749189152 52.16657791682519,219.44143129237636 52.478718430909794,219.44143129237636 53.04057135613402,219.187721029346 52.95733388577355,217.50688024614647 50.148069259361364,210.7199072878866 49.25326645246241,206.69198641349794 51.4382500507636,205.0744459815469 49.10760087927338,194.89307602301415 46.73533297260292,188.8029710240662 42.053225262090564,183.25188954660553 35.81041498144623,177.92266780580394 33.667050118383486,176.90755756602448 32.397678694629576,176.40000000000873 32.18958501861198,178.90604962994985 33.16762529592961,180.17492035738542 37.26707071362762,183.5690994572069 39.80581356107723,187.12180694000563 41.761894115654286,190.35723888366192 42.677506290143356,193.90979371295543 48.649794792057946,193.05338155316713 49.81511937774485,196.4472839666123 51.54229688871419,205.16959587721794 49.60702570172725,206.5651210957585 51.14691890432732,212.4959657592699 53.498377443349455,219.06086574507935 52.37467159284279,219.60000000000582 51.60472499154275,218.5534435892332 49.46136012848001,212.30567473516567 48.17117933719419,209.80015487565834 42.53184071695432,202.4102256383194 38.390776564134285,198.38209289847873 35.74798687861767,193.78291813044052 35.60232130542863,192.5458758603054 36.226602333481424,189.69112595904153 39.55610114982119,187.66105019889073 41.72027538041584,190.32551928414614 42.80236249580048,193.97323146612325 48.17117933719419,192.67275243639597 46.235908150149044,188.3588916840672 40.679807000327855,182.01476480878773 35.74798687861767,178.01783405638707 32.418488062219694,176.43172239561682 32.29363185662078,179.28671191836474 34.16647494083736,181.12656671454897 32.418488062219694,182.58574666087225 30.25431383162504,182.01476480878773 29.505176597915124,182.52230433476507 28.33985201222822,183.9497505092586 28.6311831586645,186.70944320588023 23.408031890459824,187.56588975756313 22.26351667230483,188.70781127053488 19.017255326383747,190.57927590092004 16.603368684474844,193.6560424459749 14.501622556650545,192.51415670040296 17.581408961792476,185.09169816183567 20.28662675007945,185.12341881217435 23.01265390595654,184.07663398934528 24.219597226881888,185.59922780227498 21.597616909071803,187.1852474189509 17.498171491373796,187.31212830041477" stroke="#4dd2ff" stroke-linecap="round" stroke-linejoin="round" stroke-width="0.5"><title>2022-04-10 10.4km</title></polyline><polyline fill="none" points="82.12835977721261,187.36134430191305 82.35963982722024,187.00879816057568 84.94577129470417,187.16904650314245 88.73035393015016,185.72680562795722 90.01290693430929,186.68830099268234 93.4400567652774,187.84208778523316 95.35337354207877,187.6497905656288 95.6477299692342,188.54717560815334 99.01180342299631,186.6242014819145 100.92512019973947,189.22021107919863 100.56768739531981,193.29041273682378 101.57690943137277,195.88631391854142 103.86868447175948,199.41154422637192 107.1276306299842,202.3919054797152 114.1711594236549,211.49287930718856 116.75729089119704,219.56795685517136 117.87164022278739,219.60000000000582 114.04500666912645,207.71155177960463 114.02398121007718,206.71813731794828 116.25267987314146,205.5965329145838 113.58244656928582,193.54679991767625 111.43784974253504,189.15611258515855 106.87532512098551,183.5473946911079 100.33640734537039,178.00258270023915 96.93028297345154,176.40000000000873 96.82515567808878,179.50899576669326 101.87126585864462,183.5473946911079 104.37329548981506,187.93823630810948 101.11434933153214,189.63685066280595 99.13795617752476,186.75240047783882 95.90003547834931,188.64332370631746 92.03135100658983,187.13699684753374 90.34931427973788,187.00879816057568 88.2047174530453,187.61774100655748 85.55550960818073,189.5086539837066" stroke="#4dd2ff" stroke-linecap="round" stroke-linejoin="round" stroke-width="0.5"><title>2022-04-09 5.2km</title></polyline><polyline fill="none" points="148.10456252488075,187.3374073904124 150.4611633446184,187.14496681229502 150.5242865808541,186.8242320001882 154.87978988169925,185.57336007952108 156.07913137035212,186.69593789509963 158.01491061522393,186.95252600230742 159.46674504876137,187.72228785109473 161.27627782110358,187.72228785109473 161.8023047897732,188.49204599038057 165.02158983820118,186.43934937562153 165.96843838185305,187.30533397689578 167.04153339803452,189.32594645521021 166.66279398050392,193.27087810491503 167.69380683917552,196.0290651263349 170.30290060391417,199.717264048566 173.2276105498313,202.34705823050172 180.1922076154151,211.48685984265467 182.92754785268335,219.60000000000582 183.89543747511925,219.4396652526484 183.70606776635395,217.5797704225697 181.58091881283326,212.60925556826987 180.0659611429437,206.8689201757661 180.40261840290623,206.2916683309886 182.23319225397427,205.42578665282053 181.11801508034114,199.42862546512333 178.7614142606035,191.25031552855216 177.37270306318533,188.52411916565325 174.9108968497021,185.57336007952108 168.95627156406408,179.832053039514 166.55758858681656,178.0037722812849 163.0226873572101,176.40000000000873 162.74915333348326,178.54905118855822 163.12789275089744,179.73582825818448 167.63068360293983,183.39232919807546 170.49227031267947,187.72228785109473 167.2940263429773,189.4863114301843 164.95846660196548,186.66386435274035 162.0758388135,188.42789962043753 157.78345874889055,186.9845994867792 153.9329413381056,187.56192110518168" stroke="#4dd2ff" stroke-linecap="round" stroke-linejoin="round" stroke-width="0.5"><title>2022-04-07 5.0km</title></polyline><polyline fill="none" points="16.096807210939005,234.2396038750594 15.907577927224338,234.6242014804011 16.433214826509356,234.9446987768897 18.893195515032858,234.9446987768897 23.16136713710148,233.69475568119378 24.443921171303373,234.68830099113984 26.693647100182716,235.04084784031147 27.513640663062688,235.58569143929344 29.44798445230117,235.6818401166238 29.84746849577641,236.45102745034092 33.16949369915528,234.46395259075507 34.178716545691714,235.29724505974445 35.31409224809613,237.5727523342648 34.95665915659629,241.6749933515821 36.7858755660709,245.36051060708996 38.61509197554551,247.76406297304493 41.11712361610262,249.75097227042716 48.539116633706726,259.460834533631 51.12525017809821,267.6000000000058 52.09242207277566,267.503870546032 52.02934564487077,265.86966097298136 48.74937139340909,258.3392634532065 48.118607114301994,254.6220001045731 50.22115471138386,253.69267074172967 50.36833304318134,252.7953820853145 47.99245425843401,242.92487395671196 46.43656903662486,238.37397956795758 44.691454531101044,235.90618680523767 43.51402787672123,236.57922497895197 44.18684310774552,235.45749311272812 40.864817904366646,231.22689057156094 34.85153177683242,226.19489154256007 31.151048005907796,224.40000000000873 30.94079324620543,226.57950853284274 31.34027728968067,227.76540508477774 35.79767819546396,231.1948401244008 38.888423163152765,235.329294683208 36.912028421938885,236.89971834988683 35.35614320007153,237.50865398181486 33.505901314667426,234.78445020900108 32.72795870376285,234.91264907614095 32.097194424655754,234.20755403283692 31.087971578061115,230.81023425568128 33.0433408432873,228.98334372331738 35.83972914743936,231.32304187460977 38.867397687223274,235.45749311272812 35.73460176750086,237.41250640498765 35.37716867605923,237.4766047958983 33.23257012706017,234.59215171531832 30.099774207395967,236.45102745034092 29.36388254846679,235.84208778344328 27.45056423509959,235.64979056388256 22.930086901411414,233.95115506292495 20.63831002061488,235.0728975153179 17.610641480830964,235.26519542990718" stroke="#4dd2ff" stroke-linecap="round" stroke-linejoin="round" stroke-width="0.5"><title>2022-04-03 6.2km</title></polyline><polyline fill="none" points="118.55737704917556,252.9974833970773 119.47540983610088,249.19894681542064 119.18688524595927,247.6395266057225 121.60000000003492,246.4399642873468 121.60000000003492,245.2803805100848 114.36065573774977,240.6419778663112 110.24262295087101,239.52234724549635 101.40327868849272,239.6423079703818 93.42950819677208,240.88189789450553 89.94098360656062,240.60199116688455 83.69836065574782,245.64025206014048 78.63606557372259,248.1593346993177 78.40000000002328,249.23893178836443 82.80655737710185,247.35962937786826 90.07213114749175,240.96187117301452 91.54098360653734,240.48203102021944 97.86229508195538,240.56200445932336 101.63934426230844,239.7222817466827 110.6885245902231,240.52201774371497 115.20000000001164,242.44137103078538 116.17049180326285,241.761602190978 115.30491803277982,240.88189789450553 108.17049180326285,239.4023864485789 95.81639344268478,240.2820972819609 93.40327868849272,241.00185780014726 90.20327868853929,240.60199116688455 82.28196721314453,246.79983374176663 78.40000000002328,248.35926052788273 78.76721311477013,249.23893178836443 83.5147540983744,246.87980464319116 89.91475409839768,241.16180422864272 91.8557377049583,240.44204428869125 93.03606557374587,240.6419778663112 97.31147540989332,239.60232107009506 109.14098360657226,239.00251660290814 116.1967213115422,241.08183103035844" stroke="#4dd2ff" stroke-linecap="round" stroke-linejoin="round" stroke-width="0.5"><title>2022-03-24 5.1km</title></polyline><polyline fill="none" points="170.0396396504948,266.58142449508887 168.84683266712818,266.314653299567 167.14509470405756,267.59999999999854 166.38169823470525,267.2119722497955 165.9999999999418,266.2418974166576 165.50697311351541,261.85221133563755 164.93442576145753,260.4940440771388 164.25054975767853,260.00898063814384 160.29043057264062,259.9119677164708 158.27061074739322,257.9716929067872 177.81674118241062,231.84770617596223 168.4492303392617,224.40000000000146 154.18325881753117,253.50894246929238 162.97822230868042,262.4827837963894 163.51896147447405,262.0462339821679" stroke="#4dd2ff" stroke-linecap="round" stroke-linejoin="round" stroke-width="0.5"><title>2021-10-26 5.0km</title></polyline></svg>