<?xml version="1.0" encoding="utf-8" ?>
<svg baseProfile="full" height="300mm" version="1.1" viewBox="0,0,200,300" width="200mm" xmlns="http://www.w3.org/2000/svg" xmlns:ev="http://www.w3.org/2001/xml-events" xmlns:xlink="http://www.w3.org/1999/xlink"><defs /><rect fill="#222222" height="300" width="200" x="0" y="0" /><text fill="#FFFFFF" style="font-size:12px; font-family:Arial; font-weight:bold;" x="10" y="20">Over 5km Runs</text><text fill="#FFFFFF" style="font-size:4px; font-family:Arial" x="10" y="280">ATHLETE</text><text fill="#FFFFFF" style="font-size:9px; font-family:Arial" x="10" y="290">Wenz</text><text fill="#FFFFFF" style="font-size:4px; font-family:Arial" x="120" y="280">STATISTICS</text><text fill="#FFFFFF" style="font-size:3px; font-family:Arial" x="120" y="285">Number: 24</text><text fill="#FFFFFF" style="font-size:3px; font-family:Arial" x="120" y="290">Weekly: 2.4</text><text fill="#FFFFFF" style="font-size:3px; font-family:Arial" x="141" y="285">Total: 176.1 km</text><text fill="#FFFFFF" style="font-size:3px; font-family:Arial" x="141" y="290">Avg: 7.3 km</text><text fill="#FFFFFF" style="font-size:3px; font-family:Arial" x="167" y="285">Min: 5.0 km</text><text fill="#FFFFFF" style="font-size:3px; font-family:Arial" x="167" y="290">Max: 15.0 km</text><polyline fill="none" points="30.72654917568434,46.507006238876784 32.189880613965215,46.44461193699681 33.74530983515433,45.72707386351976 34.63558840251062,46.36661898919556 35.40306992610567,46.4602105171798 36.0886867538502,46.85017400336801 36.87663445138605,46.81897699653928 37.26549175666878,47.22453710850823 38.40136441157665,46.41341476726666 38.90278567367932,46.28862596305407 39.7521318931249,47.59889840960386 39.598635588394245,49.611059495546215 40.120523024437716,50.905678222261486 41.031267765763914,52.38744426298217 42.78112563956529,53.99395867055864 46.23990903922822,58.48578382379492 47.53951108586625,62.50949000957917 48.0,62.32234550522844 47.93860147809028,61.542571885089274 46.65946560545126,58.39220678185666 46.11711199543788,56.068340754005476 47.22228538940544,55.506859341214295 45.73848777715466,49.17431578130345 44.70494599203812,47.115348055871436 41.942012507119216,44.10478943990893 39.54747015351313,42.15488352164539 38.21716884593479,41.624500644647924 37.28595793063869,40.96931679690897 34.44115974986926,40.29852760863287 31.616827743011527,40.11132959204406 29.099488345644204,40.39212644776853 28.93575895394315,39.76813205666258 26.234223990904866,38.08332216263807 23.686185332539026,37.49050999042083 16.451392836810555,38.08332216263807 13.893121091532521,40.14252929283248 12.0,41.04731516374886 12.020466173940804,41.359307848142635 12.429789653193438,41.359307848142635 13.50426378622069,40.797720114038384 16.55372370663099,38.17692367100972 17.003979533794336,38.02092109438672 20.002274019323522,38.052121634776995 20.913018760620616,37.75571599513205 21.854462762916228,37.97412026033271 23.860147811239585,37.89611880751909 25.077885162027087,38.13012293090287 26.428652643517125,38.8165309594624 27.206367254111683,38.317325722026 28.076179647498066,39.33133300044574 28.905059692973737,39.783731977513526 29.02785673676408,40.220528489895514 28.546901648660423,40.735321226282394 28.792495736212004,41.109713800877216 29.375781694136094,41.37490744952083 31.094940306968056,41.68689881814498 34.625355315511115,41.23451092477626 35.07561114267446,41.42170623465063 36.52870949404314,42.810057370123104 38.21716884593479,42.23288069816044 39.51677089257282,42.07688626685558 42.218305855611106,44.1983836929503 44.44911881751614,46.83457550152525 45.28823194996221,48.207231676220545 45.68732234224444,49.377089953988616 42.955088118236745,50.063398611229786 42.63786242183414,49.67345125430438 42.27970437746262,48.28522277613956 41.2973280272854,47.006158849770145 39.89539511085604,47.723685109085636 38.85162023874,46.335421788135136 37.23479249572847,47.25573395250831 36.86640136441565,46.928166465739196 36.078453666879795,46.896969490189804 35.36213757816586,46.49140766808705 33.499715747573646,46.725385900783294" stroke="#4dd2ff" stroke-linecap="round" stroke-linejoin="round" stroke-width="0.5"><title>2022-05-26 10.0km</title></polyline><polyline fill="none" points="65.81944123707945,42.34094125265983 68.09171934687765,42.2398114652533 71.11036617902573,41.253791780851316 74.70952201727778,42.92243595429318 75.95346988760866,42.84658897155896 76.51739292219281,43.655621098092524 79.33700809505535,41.911139095063845 80.77998762467178,44.18654560614959 80.33216639130842,46.7905714902663 81.31073871598346,49.36926249933458 82.45517075672979,51.315886418451555 85.63967730483273,54.32424601166713 91.21256376407109,61.50357007647108 93.26922424306395,67.82305887760594 94.18145268136868,68.0 94.01559296535561,66.81196198025282 91.54428319615545,60.821046310877136 91.14621987764258,57.71172456552449 92.65554329368751,57.130298157659126 92.8214030097588,56.70054647856887 90.03495978011051,45.779305698291864 88.82418385299388,43.52921017099288 85.17527009994956,39.307012295415916 80.36533833452268,35.31222766872088 77.71158287773142,33.82047179342044 73.51533206168097,32.4551204160889 67.89268768765032,32.0 62.98324009263888,32.4804048353908 61.8056361086783,32.834386172798986 62.07101165433414,33.79518764319073 61.424158761801664,36.57641372722719 60.246554777782876,37.94172041366255 59.15188065194525,40.72285490636568 61.95490985311335,39.96436977331177" stroke="#4dd2ff" stroke-linecap="round" stroke-linejoin="round" stroke-width="0.5"><title>2022-05-24 5.1km</title></polyline><polyline fill="none" points="141.27069740463048,56.97026851636474 140.92619979695883,56.588357775937766 141.23937944031786,55.3710091021203 138.89053211541614,54.893614062311826 137.2150210236432,54.98909322365944 135.0540814846754,55.65744520577573 134.67826591269113,55.394878803766915 135.35160214581992,53.60463787827757 137.02711323759286,50.859549426422745 137.57517761341296,49.09311116275785 137.37161084532272,48.114397580429795 138.843555168889,47.49374576750415 138.843555168889,47.040190470164816 138.5773524721153,46.39566154432396 136.44773089746013,44.96336253001937 132.8931419457076,43.411685788305476 130.32506887050113,43.02973148363526 123.74829636071809,43.578790410661895 121.82224155426957,44.00848693220178 120.47556908801198,43.72202275708696 119.48905321152415,44.05623089433357 115.29244599101366,47.46987447916763 112.67739596922183,48.66343302137102 106.96186747855972,48.47246445997007 105.55255908361869,48.06665524838172 105.33333333331393,48.520206629138556 105.9596926199738,48.854401275988494 109.0914890532149,49.18859498326492 113.66391184570966,48.97375627924339 116.24764390313067,47.46987447916763 119.6926199796726,44.366566180367954 120.6321589096915,43.936870953162725 129.7300275482121,43.79363886563806 132.97143685660558,44.10397483724955 134.74090184131637,45.321438901628426 133.86399884003913,47.016319090820616 133.47252428589854,50.45374836404517 136.65129766560858,51.432442685480055 134.80353777005803,55.394878803766915 137.87269827455748,54.67878566890431 139.48557343770517,54.84587445294892 141.33333333331393,55.347139395693375 141.23937944031786,56.3257934301364" stroke="#4dd2ff" stroke-linecap="round" stroke-linejoin="round" stroke-width="0.5"><title>2022-05-22 5.0km</title></polyline><polyline fill="none" points="159.23664421658032,41.816927395739185 159.33546615188243,42.34415744090802 160.62015131040243,42.39436971022951 162.3989461453166,42.14330816199072 164.60596936638467,41.26458877338155 165.33066355838673,41.89224610970268 167.06004742562072,42.16841433953232 168.31179193907883,42.89649129427562 169.61294742010068,42.796067138784565 170.00823516119272,43.39861086189194 172.51172418810893,41.816927395739185 173.3352403154131,42.46968807635858 174.14228612009902,44.051363285281695 173.71405773394508,47.13933817281213 174.78462869935902,49.54941192699334 176.57989385677502,52.110064393309585 178.80338740046136,53.99286363541614 184.63388158142334,61.52377712306043 186.74208286730573,68.0 187.51618802692974,67.84939397486596 187.40089576900937,67.1214622960324 184.7491738392273,60.695398840281996 184.33741577563342,58.0094072705906 184.50211900111753,57.557552552178095 185.9350370625616,56.98018025817146 186.0338589978055,56.277288649791444 183.51389964838745,46.18533781183214 182.32803642511135,43.77519921435305 177.76575708005112,38.40243137697689 173.73052805650514,35.26402558938571 169.28354096924886,33.104756662294676 164.06244872242678,32.100432827181066 160.57074034272227,32.0 156.5355113191763,32.45194708714553 155.33317777339835,32.92900057353836 155.46494035376236,33.90820992175577 154.82259777444415,36.69514839952899 153.96614100213628,37.52368569718237 152.48381197307026,40.8628864245984 155.33317777339835,39.95905142107222 157.7543151875143,40.18501078453846 159.38487711950438,40.83777998499136 159.02253002347425,41.79182114761352" stroke="#4dd2ff" stroke-linecap="round" stroke-linejoin="round" stroke-width="0.5"><title>2022-05-16 5.4km</title></polyline><polyline fill="none" points="32.99251123316935,86.89825639218907 33.81028457314824,86.96674838292529 35.58961557663861,86.39141352342995 36.0119820269756,86.76127220438502 36.95556665005279,86.93935159487592 37.43185222172178,87.22701732066344 38.231652521237265,87.1996206371332 38.51023464804166,87.56947493644839 39.957064403395634,86.73387533384084 40.77483774343273,87.96672361713718 40.59510733903153,89.74746513971695 41.31402895657811,91.26790765370606 42.2576135796553,92.55546310538921 43.32700948580168,93.44577979241512 46.44533200204023,97.41782039270765 47.59560659015551,100.9239813233944 48.0,100.89659013939672 47.982026959594805,100.49941673586 46.696954568178626,97.08910856791044 46.346480279637035,95.62358241252878 46.40938592117163,95.33595208848783 47.25411882181652,94.92504952214586 47.28107838248252,94.66480995016536 45.969046430371236,89.3091330774223 45.16025961059495,87.72015574280522 43.030454318533884,85.19963302212636 40.154767848260235,82.89820485616656 38.51023464804166,82.0762474089388 36.89266100851819,81.65156551412656 33.98102845734684,81.37757579181562 31.36595107341418,81.61046712594543 31.177234148810385,81.08988539901475 29.937094358494505,80.18570769423604 28.714927608612925,79.50071660579852 26.953569645556854,79.07601867660924 22.819770344503922,79.33631772107765 21.82226660012384,79.59661577226143 20.456315526738763,79.51441649499611 17.73339990020031,81.61046712594543 16.25062406391953,82.26803836578983 12.665002496272791,82.14474424113723 12.179730404401198,81.89815532330977 12.107838242664002,82.02144989364024 12.0,82.28173769923524 12.521218172769295,82.41873088218927 16.115826260647736,82.59682160878947 17.661507738404907,81.99405111948363 20.833749375975458,79.52811638140702 22.604093859234126,79.65141523542115 23.916125811316306,79.44591702156686 26.74687968051876,79.47331681918513 27.82526210686774,79.61031564218865 29.06540189718362,80.18570769423604 29.460808786854614,79.81581336077579 27.591612581163645,79.19931834778617 26.477284073916962,79.07601867660924 22.693959061434725,79.30891786839493 21.372940589120844,79.65141523542115 23.305042436375516,79.59661577226143 24.428357463824796,79.33631772107765 26.755866200721357,79.43221711865044 27.987019470805535,79.69251480388994 29.173240139789414,80.19940744587075 29.712431352993008,79.80211353213599 30.602096854738193,80.71999596833848 31.22216674988158,81.02138750762242 31.258112830779282,81.5556692364953 30.503245132334996,81.85705708369278 30.584123814303894,82.26803836578983 32.345481777359964,83.10369267053102 33.98102845734684,82.98040005615985 34.04393409888144,84.8708623233033 33.639540689007845,85.11744049595654 33.62156764854444,85.54210081521887" stroke="#4dd2ff" stroke-linecap="round" stroke-linejoin="round" stroke-width="0.5"><title>2022-05-14 9.9km</title></polyline><polyline fill="none" points="74.16157501694397,85.8008531813175 75.32247114731581,85.87536201423791 77.75424304138869,85.01850682265649 78.87847929389682,85.70771705603693 79.5750169721141,85.76359874245827 80.3937542430067,86.24790528116864 81.15139171754709,86.17339674745745 81.88458927356987,86.65770114681072 83.69314324503648,85.44693540775916 84.84181941612042,87.21651077354909 84.58520027154009,89.47034210117272 85.24507807195187,91.03495313668827 86.06381534281536,92.45053086032567 88.20230821450241,94.44347867553734 92.55261371345841,100.03095455563016 94.25118805156671,104.89178486029414 94.61778682959266,104.7614210873653 94.66666666665697,104.05372883816744 93.2491513916757,100.60830788110616 92.4792939578474,97.3676330245653 92.58927359126392,97.06963425122376 93.77460964015336,96.47363383307675 92.4059742022946,90.51341905681329 90.87847929389682,86.84397139638895 87.61575016970164,82.98810096749366 84.64630006783409,80.62234267650638 81.49355057702633,79.0948131425539 78.35302104547736,78.44281116970524 75.77460964018246,78.23789531741204 72.12084181935643,78.57321193085954 71.8153428377118,77.9025774918482 70.16564833672601,76.69169747449632 68.4181941615534,75.70435283843835 67.04955872369464,75.27587925469561 65.36320434481604,75.10821513971314 59.583163611619966,75.55531877290923 58.666666666656965,75.89064508357114 65.71758316358319,75.57394804418436 68.01493550572195,76.132824442946 68.76035302100354,76.74758459250006 68.02715546498075,78.23789531741204 67.73387644259492,80.8458814741025 70.0801086218562,81.77728733243566 68.79701289880904,84.70184094453725 70.76442634075647,84.10576106506778 73.15953835708206,84.34791897802643 73.85607603527023,84.60870371587225 73.73387644262402,85.70771705603693" stroke="#4dd2ff" stroke-linecap="round" stroke-linejoin="round" stroke-width="0.5"><title>2022-05-12 7.0km</title></polyline><polyline fill="none" points="118.37302798981545,83.8015242961119 119.91195928756497,83.8015242961119 122.45394402038073,82.92183272743569 123.05852417304413,83.46640457330068 125.188295165397,84.19947756855254 126.46615776082035,84.24136729840393 127.0569974554819,84.80687700471753 129.22798982189852,83.48734958749992 130.31348600506317,85.24671576781839 130.14860050892457,88.32553518177156 131.06921119595063,90.18953814724227 132.44325699747424,92.13728094078397 134.20203562342795,93.624242894708 136.8814249363786,96.89129612372199 137.1562340967066,97.68710128517705 138.47531806616462,99.0483328830378 139.32722646309412,100.53519633175165 140.56386768448283,104.76531164444168 141.33333333334303,104.5559040306398 139.05241730279522,97.6661591218799 138.92875318063307,96.66093033875222 140.34402035622043,95.78134720756498 138.84631043259287,89.20518118103064 137.84325699746842,86.50338772896066 137.0737913485791,85.03726896907756 133.98218829516554,81.30904558285692 131.49516539438628,79.06785840748489 128.69211195927346,77.20365668784507 126.8371501272486,76.32390947320528 124.83104325697059,75.80024689406855 120.20050890586572,75.2346883555656 115.7760814249632,75.65362090073177 114.60814249364194,76.09349826231482 112.72569974558428,75.98876572539302 106.13027989820694,76.80567672412872 106.02035623410484,77.66447369605885 105.62188295164378,77.62258132493298 105.38829516540864,77.93677369857323 105.33333333334303,79.13069608722435 105.60814249364194,79.46582973990735 107.6829516539583,79.3820464277378 111.26921119593317,79.96852820004278 112.79440203562262,80.65973462694092 112.36844783718698,82.60765536929102 114.71806615777314,81.79078980931081 116.36692111962475,81.93740717573382 118.04325699745095,82.44009372464643 117.76844783715205,83.48734958749992" stroke="#4dd2ff" stroke-linecap="round" stroke-linejoin="round" stroke-width="0.5"><title>2022-05-10 6.0km</title></polyline><polyline fill="none" points="172.8600648540596,87.0169318780354 173.75804440010688,87.00324374433694 175.5180843102862,86.37358662425686 177.44874033422093,87.23594164299357 178.24794213019777,87.23594164299357 178.490396607609,87.55076694744639 179.81940633573686,86.71579230232601 180.04390122223413,86.82529775650619 180.72636567719746,87.86559079797371 180.5018707907002,89.54918932125292 181.0316787228512,90.84950118621055 181.85781990521355,92.1087269323616 183.32152656523976,93.46373735282032 185.79097031679703,96.63900980676408 186.55425293088774,97.82969885129569 187.45223247693502,100.8815999502367 188.0,100.85422924703016 187.69468695434625,99.51305132977723 186.96732352208346,97.87075672332139 186.3656772262475,95.76308734901977 186.34771763530443,95.31143543439975 187.2726365677081,94.79134770499877 185.8717884758953,89.08380852176924 185.18932402096107,87.68764706109505 183.48316288349451,85.55228598801477 181.56148665500223,83.80014489178211 180.4749314043147,83.07463578442184 178.53529558490845,82.07533701304055 176.7393364928721,81.63728361821268 174.09927662755945,81.39087734651912 171.40533798953402,81.59621596812576 171.07308555749478,81.04864493596324 168.87303566970513,79.59756042750087 166.49338987274677,79.04997333980282 162.3267647792236,79.35114678244645 161.67123971061665,79.57018117762709 160.36018957346096,79.52911228214725 158.0703417311015,81.32243100187407 156.2025442753511,82.23960631038426 152.7273634322628,82.14378260171725 152.17959590919781,81.8973781608911 152.0,82.22591721736899 154.92741331999423,82.58183274170369 156.58867548013222,82.45863142438975 158.36667498125462,81.5140805936935 160.59366425540065,79.57018117762709 163.44923921173904,79.58387080393732 164.17660264403094,79.31007775496255 165.08356198552065,79.50173300470124 167.53504614616395,79.57018117762709 169.1514093290025,80.21359064313947 169.6542778747389,79.78921486896797 170.51633823895827,80.65165318713116 171.1718633075361,80.92544084754627 171.16288351209369,81.56883752097565 170.80369169369806,81.80155397114868 171.6657520578592,82.47232047062789 173.59640808179392,82.67765583458095 176.02993265152327,82.34911895532423 176.92791219754145,82.74610081848368 178.2030431528692,83.85489998269986 178.8406086305913,83.60850172704886 181.02269892737968,85.37433621258242 182.37864804189303,87.55076694744639 182.19007233722368,87.34544626160277 180.75330506358296,88.08459783649596 180.45697181340074,89.39862529259699 180.60064854077064,89.93244171187325 181.85781990521355,92.1087269323616 183.1598902469268,93.27212135253649 186.18608131702058,97.07696681551533 187.63182838613284,100.95002666020082 187.89224245445803,100.8405438913178 187.91918184084352,100.41629650145114 186.52731354450225,97.02222234329383 186.23098029432003,95.55779139512015 186.3117984534765,95.32512189999761 187.23671738588018,94.83240740681867 186.0783237715077,89.93244171187325 185.36891993015888,88.09828575306528 182.72886006484623,84.92261546566806 180.81616363179637,83.38948030770916 178.41855824395316,82.07533701304055 175.04215515087708,81.43194512030459 171.3424794212624,81.55514829330059 171.1359441257082,81.03495560381998 169.64529807929648,79.89873145073943 167.89423796455958,79.26900870278041 166.69094537288765,79.07735279869303 162.90147168867406,79.32376743352143 161.37490646043443,79.62493966644979 164.5717136443127,79.41959510653396 164.52681466698414,81.28136316209566 164.26640059862984,82.71872283312769 164.79620853078086,82.89667954106699 164.41905712144217,83.00619113042194 164.48191568968468,84.01916499170693 167.97505612371606,84.40244847330177 169.11549014717457,84.82679552847185" stroke="#4dd2ff" stroke-linecap="round" stroke-linejoin="round" stroke-width="0.5"><title>2022-05-08 15.0km</title></polyline><polyline fill="none" points="24.958904109575087,123.65338318065915 25.95890410960419,123.69514553486079 28.958904109575087,122.73460714533576 31.890410958905704,124.00836265664839 32.94520547945285,123.96660042829171 33.56164383559371,124.55127009976422 35.13698630136787,123.50721480888024 35.863013698661234,123.4236899328389 36.95890410957509,125.21945998507726 36.616438356169965,127.45368873578263 37.32876712331199,129.3746694712754 39.150684931490105,132.047279295075 40.82191780823632,133.36267922202387 45.56164383562282,139.64713813987328 47.397260273981374,144.90825358001894 48.0,144.76211507795233 47.94520547945285,144.05229657569726 46.41095890410361,140.29435320444463 45.46575342467986,136.41100240186643 46.890410958905704,135.6176118190706 45.342465753434226,128.6438657646213 44.53424657532014,126.28437874100928 43.5205479451688,124.55127009976422 40.7397260274156,121.25201960702543 37.369863013678696,118.28678111764748 33.09589041094296,115.96882454364822 26.39726027395227,115.09174641998106 12.835616438358556,116.5744217878455 12.72602739726426,117.36795766592695 12.02739726024447,117.66031146304158 12.0,118.47472127802757" stroke="#4dd2ff" stroke-linecap="round" stroke-linejoin="round" stroke-width="0.5"><title>2022-05-05 5.1km</title></polyline><polyline fill="none" points="74.02424242423149,125.97335269133328 75.63636363635305,126.0842127142605 77.72121212119237,125.32666656207584 80.43636363634141,126.37983878925297 81.43030303026899,126.37983878925297 81.7575757575978,126.78632309149543 83.6484848484688,125.67772531043738 83.80606060606078,125.78858568958094 84.73939393938053,127.39604617813166 84.4848484848626,129.18823913353117 85.07878787876689,131.1282024763932 86.19393939393922,132.84642157004419 88.27878787877853,134.8232576126611 90.36363636361784,137.33581036054238 92.61818181819399,140.75351096277154 93.85454545452376,144.7437467406271 94.66666666665697,144.7437467406271 92.67878787877271,138.00088637014414 92.63030303028063,137.07716839206114 93.55151515151374,136.81852569670446 93.69696969693177,136.52293315478164 92.2424242424313,130.03813286998775 90.69090909088845,126.89718213504239 88.19393939393922,123.81155554766883 84.53333333332557,120.76278094841837 81.43030303026899,119.19216066984518 77.13939393940382,118.41607957685483 72.2424242424022,118.65629585274291 71.83030303029227,117.91716684613493 69.23636363632977,116.0693183530675 67.24848484844551,115.40408381080488 65.1878787878959,115.25625325936562 60.04848484846298,115.6627867043353 58.69090909091756,116.0693183530675 58.666666666656965,116.25410487230693 63.018181818159064,115.93996756871638 62.63030303030973,120.18996959969809 63.24848484847462,120.39322564772738 62.896969696943415,120.4117034479932 62.836363636364695,121.96382542519132 67.57575757571612,122.48119359950215 69.19999999995343,123.03551341543061 69.36969696969027,123.3126720710934 68.82424242421985,124.53216023866844 68.90909090905916,124.8277912999256 71.06666666665114,124.23652822755685 72.5696969696728,124.32891333306907 74.39999999996508,124.93865270305105 75.5151515151374,124.92017581178516 76.56969696970191,124.55063720780163" stroke="#4dd2ff" stroke-linecap="round" stroke-linejoin="round" stroke-width="0.5"><title>2022-05-04 7.1km</title></polyline><polyline fill="none" points="117.94497273993329,123.54098161141155 120.12222644858412,123.49923508376378 122.32686699632904,122.72692129913048 125.07924432610162,123.89582641914603 126.5307467984967,124.06281179186772 126.70876125266659,124.58463935293548 128.99556231772294,123.2278822457447 130.24166349688312,125.10646429446206 129.91302142766654,127.59031510802743 130.62507924434613,129.3644579262036 132.32306326870457,131.84820700663113 134.08951439076918,133.392693318252 138.43032838852378,138.92343582485046 139.08761252695695,140.02954901961493 140.51172816025792,144.80865755632112 141.33333333334303,144.7877885642447 141.12793204010813,143.5147721285175 139.40256117662648,139.65388925421576 138.81374413592857,137.1703266546465 138.7726638772583,136.37724374694517 140.0187650564185,135.85547537668754 140.19677951058839,135.52154224536935 137.96475212377845,126.73454127692094 136.75973120323033,124.35503554880415 135.41777608724078,122.62255413139792 130.3375174337416,118.09291809061688 126.7361480917898,116.15158507771412 122.5459617091692,115.23309230786981 118.06821351591498,115.19134244367888 114.56269811082166,115.85933825856773 112.49499175860547,115.83846345434722 106.11385824775789,116.61082841926691 106.07277798908763,117.40406213927781 105.82629643715336,117.71717904677644 105.42918727020151,117.57105794062227 105.33333333334303,118.23903846312896 105.42918727020151,119.3036235488762 105.9906174717762,119.9924669123211 108.2363382781914,121.3701399452475 111.89248129836051,122.39294599350978 112.6593127931701,124.16717751367105 112.68669963232242,125.98312429951329 115.95942690502852,126.8806495028839" stroke="#4dd2ff" stroke-linecap="round" stroke-linejoin="round" stroke-width="0.5"><title>2022-05-01 6.0km</title></polyline><polyline fill="none" points="160.19151846785098,122.35695284640678 160.09302325581666,122.08169806571823 162.30916552670533,122.30690656785737 163.81942544458434,121.75639617740671 163.91792065667687,122.45704534321703 163.90150478796568,121.75639617740671 165.21477428177604,121.25593007577118 166.23255813954165,121.98160526741412 167.74281805742066,122.15676761162467 168.82626538991462,122.78234540259291 170.30369357048767,122.70727623350831 170.6484268126078,123.38289712752885 172.96306429547258,121.93155883815052 173.40629274968524,122.03165167667612 174.75239398085978,124.10855993383302 174.4569083446986,127.48658979386528 175.29411764710676,129.3131900205044 176.5088919288828,131.31491294841544 179.25034199724905,133.86706305351981 184.76607387146214,140.7976383968853 187.29411764710676,147.9029545356534 188.0,147.7278283728374 187.91792065667687,146.72710272194672 184.99589603283675,138.64594867599226 185.16005471959943,137.47000952557573 186.68673050618963,136.59430295051425 184.61833105335245,127.78685468347248 182.82900136802346,123.55805750214495 179.41450068401173,119.40418802400382 174.75239398085978,115.52544995221979 169.86046511633322,113.14809920177504 166.70861833100207,112.37232230011432 162.210670314671,112.09704546434659 157.2366621067049,112.59754834969499 156.67852257180493,112.94789917333401 157.58139534888323,113.8237719231256 159.71545827633236,114.4493915467101 165.46101231192006,113.77372221754922 166.9384404924931,114.09904494447255 169.6306429549004,116.4263289132432 171.2558139534667,115.87579254426964 172.24076607386814,117.07695966814208 175.42544459644705,119.60437768041447 177.44459644326707,122.88243755774602 174.83447332424112,124.38381023779948 174.40766073868144,126.5607684964416 174.65389876882546,128.03707487233623 176.98495212040143,131.84035988953838 179.64432284544455,134.2673955829814 184.99589603283675,141.3230453603319 187.2284541723784,147.87793652748223 187.96716826269403,147.75284641118924 187.90150478802389,146.72710272194672 186.06292749656131,142.2237378590653 185.01231190148974,137.99543051717774 185.2093023256166,137.52004971541464 186.67031463747844,136.59430295051425 184.8317373461323,128.5875575191967 182.7797537620063,123.38289712752885 179.13543091656175,119.07887914634921 174.5882352941553,115.35027828683815 170.5170998632093,113.32327396280016 164.16415868670447,112.24719654102955 162.03009575919714,112.12207065632538 155.93980848154752,113.02297422166885 152.29548563616117,113.17312418270012 152.0,115.4754009300741 154.77428180578863,116.8517417143521" stroke="#4dd2ff" stroke-linecap="round" stroke-linejoin="round" stroke-width="0.5"><title>2022-04-30 10.1km</title></polyline><polyline fill="none" points="24.534857142862165,164.49287956467742 26.537142857152503,164.61830998872028 28.9508571428305,163.7402938467785 32.03657142855809,165.09912521444494 33.25714285712456,164.97369536967017 33.61371428571874,165.4754138422577 35.83542857141583,164.28382852202776 37.01485714287264,166.22798701779539 36.64457142856554,168.52748246028204 37.59085714284447,170.82692711698473 39.1542857142631,173.04270755788457 40.81371428567218,174.4014175238117 45.53142857141211,180.44223640857672 47.19085714282119,185.56307136953546 47.41028571425704,185.9601868239115 48.0,185.81388130640698 47.807999999960884,184.18360591818782 45.53142857141211,177.99668759406632 45.61371428571874,177.3487120431164 46.79314285708824,176.88885597990884 46.94399999998859,176.57531659051892 45.27085714280838,169.30093769478844 43.74857142852852,165.93532031813083 39.839999999967404,161.3779755599171 36.630857142823515,158.78563540072355 33.55885714280885,157.238562936589 28.896000000007916,156.23504418042285 25.76914285714156,156.1514171807139 22.505142857145984,156.4650180830722 21.161142857163213,156.90405775930412 19.67999999996391,156.820431297092 13.261714285734342,157.57306703903305 12.877714285714319,157.6775993506235 12.644571428565541,158.43022889572603 12.0,158.34660365945456 12.13714285712922,156.67408482652536 17.458285714295926,156.25595091981813 17.52685714288964,154.7297479083063 17.99314285715809,154.0398131760885 18.884571428556228,154.56249142342858 18.102857142861467,156.0677901138697 17.787428571406053,159.05741602703347 20.69485714289476,159.99818963943835 18.884571428556228,163.86572517758032 19.37828571430873,165.4545089541425 19.296000000002095,166.95965016755508 21.750857142877067,167.60769037779392 23.711999999999534,168.9037586975246 25.33028571426985,166.85512717521488 23.821714285732014,166.0607490044422 24.10971428573248,164.78555031911674 24.480000000010477,164.6601200965015" stroke="#4dd2ff" stroke-linecap="round" stroke-linejoin="round" stroke-width="0.5"><title>2022-04-28 7.1km</title></polyline><polyline fill="none" points="79.35859089397127,166.8960666610874 79.48421402461827,167.03284579491083 79.69059488200583,166.86871080136189 80.79428381522303,166.8960666610874 82.18511133265565,166.3899814777942 82.94782319708611,166.8960666610874 83.51312728482299,166.9234225097971 84.10535061481642,167.25169183779508 84.94882020604564,167.25169183779508 85.25390495179454,167.62099294087966 86.64473246928537,166.7456092966495 87.3625789298967,168.07235823681913 87.16517115320312,169.54953284071598 87.64971751411213,170.86255004256964 88.30475240945816,171.94303479974042 89.86606846129871,173.40644885537768 92.94383516118978,177.33152571275423 94.02957793287351,180.6820221665257 94.28979727486148,180.98287501040977 94.66666666665697,180.84612388245296 94.55898969757254,180.20338990413074 93.53605849121232,177.89223251792646 92.92588899968541,175.74511072854148 92.97075440344634,175.19806251303453 93.86806247924687,174.8151261484236 92.53107344632735,169.23495204470237 91.75938850117382,167.75777061914414 89.75839149218518,165.33676512296006 88.16118311730679,163.9142132857778 86.51013625788619,162.81992242555498 85.05649717515917,162.08126615659785 82.75938850117382,161.52042919526502 80.39049518114189,161.3973180247267 77.98570953807211,161.5888241939101 77.79727484215982,161.0963786709799 75.4822200066701,159.59166195816942 73.43635759392055,159.0581635052331 68.91392489199643,159.38647074002074 68.40245928880177,159.59166195816942 67.3436357594037,159.41382960482224 66.75141242938116,159.67373827236952 64.19408441343694,161.6572191238447 62.83017613826087,162.24541268639587 59.33964772350737,162.10862393903517 58.96277833165368,161.9307981568163 58.666666666656965,162.3274858029581 62.6866068461386,162.5737045592614 63.50315719508217,162.3685223241373 64.79528082418256,161.67089810157995 67.37055500166025,159.41382960482224 68.03456297772937,159.4959061332811 69.65869059489341,159.12656097627405 73.86706547025824,159.0171249895866 76.36158192090807,159.85156994717545 77.87803256895859,161.2194903855052 77.83316716519766,161.6161821740934 77.0794283815485,161.94447707963627 77.17813226985163,162.61474093210927 76.87304752410273,163.90053475853347 76.24493187107146,164.68020642812917 75.36556995680439,166.69089744535086 75.8501163177134,167.45685936447262 75.83217015620903,168.5647533306219 77.00764373544371,168.82462708407547 78.74842140244436,169.782048147561 79.74443336654804,168.3459115061014 81.55699567965348,167.30640323867192 82.74144233966945,166.88238873258524 81.51213027583435,165.8702144028175 80.61482220006292,166.2532010531213 79.37653705550474,166.29423520936325 78.83815221002442,167.7030595807919 79.07145230975584,168.01764745117543 79.80724493187154,168.37326677265082 80.91990694581182,167.63467072107596 80.69557992689079,167.15594678055277 79.43037554004695,167.11491314339946" stroke="#4dd2ff" stroke-linecap="round" stroke-linejoin="round" stroke-width="0.5"><title>2022-04-27 10.1km</title></polyline><polyline fill="none" points="112.53987676161341,162.3982643367708 114.38971170585137,162.2472061368244 117.99028329364955,161.1646170444801 118.81610246514902,161.819206915221 120.48425719159422,162.14650056906248 121.5247893477208,162.85143784478714 122.96171470615081,162.90179035568872 123.40765705879312,163.40531435250887 125.81904903956456,161.86955984067026 126.64486821112223,162.34791162365582 127.53675291634863,164.1354205561729 127.28900716488715,167.4082581918192 128.14785910322098,169.472619533728 130.3775708663743,172.51874919392867 132.12830750993453,173.95367719562637 137.7603942597052,181.2539338012648 139.9075241056853,188.0 140.84895796119235,187.79863014439616 140.7994088109117,187.04349030587036 138.6687953483197,181.60634922852478 137.94207447743975,178.7366519457355 137.84297617682023,177.67937849726877 139.52764728676993,176.74796354972932 137.47961574140936,167.7355372569291 135.56371526344446,163.657075592615 131.9466272922582,159.30153486117342 128.97367827477865,156.65792479344236 127.18990886432584,155.3235099714002 122.23499383527087,152.90642054763157 115.5954076962662,152.0 109.83118987904163,152.4532110929722 108.67504303896567,152.90642054763157 108.84020687325392,154.1653271037576 108.24561706976965,156.4061494990383 107.22160129703116,157.63984361105395 106.49488042615121,159.72954267704336 105.81770870549371,160.63590734641184 106.87475724500837,160.66108404922124" stroke="#4dd2ff" stroke-linecap="round" stroke-linejoin="round" stroke-width="0.5"><title>2022-04-25 5.0km</title></polyline><polyline fill="none" points="172.6743371685734,167.0155942506717 174.25012506253552,166.89206207202733 175.52876438220846,166.32930154434143 176.0780390195141,166.74107799495687 176.91545772887184,166.87833626063002 177.41070535266772,167.16657772140388 178.20310155078187,167.15285196513287 178.57228614308406,167.50972073285084 180.00400200099102,166.64499704501577 180.7423711855954,167.83913640333412 180.55327663829667,169.45874036074383 181.0215107553813,170.73518084804164 181.96698349172948,172.1762946889612 183.2996498248831,173.35661291827637 186.36118059029104,177.29543441697388 187.61280640319455,181.01446175165256 188.0,180.87723186545918 187.97298649323056,180.34203267742487 187.41470735368785,178.58545205476912 186.85642821408692,177.59735562047354 186.37018509252812,175.84070447439444 186.32516258131363,175.2917417343997 187.28864432216506,174.82511993938897 186.08204102053423,169.71952046210936 185.13656828412786,167.6607031122112 184.02001000498421,166.2332200156161 182.66933466735645,164.77825464514171 180.60730365180643,163.10363352557033 178.5542771385517,162.06040618685074 175.48374187090667,161.38779064483242 173.4847423711908,161.3191560337109 171.4137068534328,161.60742093732188 171.15257628815016,160.97598194430975 168.80240120060625,159.52090466498703 166.58729364685132,158.98553824835108 162.80540270134225,159.21890361217447 161.7698849424778,159.52090466498703 160.38319159578532,159.4522681792514 158.33016508253058,161.11325178680636 156.72736368185724,162.0192258336465 155.62881440721685,162.23885409728973 152.67533766885754,162.07413296571758 152.17108554276638,161.86823099309186 152.0,162.21140060292237 155.1245622811548,162.52711512234237 156.55627813906176,162.40357483191838 157.9609804902575,161.68978211508147 160.3921960980515,159.61699562923604 160.7973986993602,159.4522681792514 161.90495247626677,159.56208652336863 164.3181590795284,159.30126766801186 166.70435217610793,159.3561769834232 167.93796898447908,159.54835923999417 169.0635317658889,160.0837212483384 169.4327163581911,159.713086458396 167.57778889444307,159.10908471670336 165.0925462731393,159.06790258538967 162.20210105052684,159.32872233123635 161.30165082542226,159.57581380396368 163.20160080041387,159.4934500789568 164.4082041020447,159.23263096172377 165.11955977987964,159.41108625473862 166.81240620309836,159.32872233123635 168.38819409703137,159.79544991874718 168.88344172088546,160.28962859659805 168.37018509255722,161.44269828412507 168.15407703854726,163.19971945336874 169.9639819910226,163.77623218375084 169.0275137569115,166.05478253253023 169.92796398198698,165.75281034617728 171.52176088042324,165.79398845012474 172.68334167083958,166.0959604545642 172.49424712354084,166.74107799495687" stroke="#4dd2ff" stroke-linecap="round" stroke-linejoin="round" stroke-width="0.5"><title>2022-04-22 10.1km</title></polyline><polyline fill="none" points="30.70648464167607,206.63766633407795 32.13993174061761,206.6220589060904 32.242320819117595,206.32551717847673 33.757679180882405,205.90411382995808 34.42320819114684,206.3723396317073 35.375426621205406,206.5128068222839 36.03071672358783,206.90299213070102 36.79863481229404,206.84056261299702 37.16723549491144,207.2775681841449 38.86689419794129,206.3099096878068 39.757679180882405,207.73017850703764 39.57337883961736,209.5249865990554 40.09556313994108,210.97640979164862 41.22184300344088,212.58386836580758 42.614334471029,213.83235694449831 46.14675767917652,218.3735650309536 47.50853242320591,222.43077742186142 48.0,222.43077742186142 47.76450511949952,221.01077717107546 46.88395904438221,219.07579002079729 46.15699658705853,216.57896123687533 46.13651877135271,216.06398032409925 47.03754266211763,215.65823538391123 47.20136518770596,215.3929394702718 46.003412969294004,210.24289823212166 45.35836177479359,208.47932083655905 44.774744027352426,207.40242646750994 42.552901023911545,204.7023213615903 39.501706484676106,202.12698921345873 37.15699658705853,200.95635548262362 34.668941979529336,200.39444502918195 31.771331058058422,200.1915319226173 29.098976109235082,200.4724883906456 28.750853242352605,199.77009531631484 26.170648464176338,198.1311534573033 23.68259385667625,197.56922257813858 16.382252559735207,198.1311534573033 13.945392491470557,200.17592320018593 12.030716723558726,201.06561537686503 12.0,201.51826187383267 13.853242320823483,200.61296624381066 16.894197952235118,198.00628027968196 19.730375426646788,198.11554432105186 20.94880546076456,197.8033609381746 21.9931740614702,198.00628027968196 24.266211604117416,197.95945278636646 25.464163822558476,198.3340719429616 26.22184300344088,198.88038830970618 25.64846416382352,200.2851841914744 25.464163822558476,202.42354695958784 27.501706484647002,203.03226720929524 26.406143344705924,205.57635409049544 28.105802047793986,205.06130027891777 31.3720136518823,205.7324303292553 33.10238907849998,205.1705544029246" stroke="#4dd2ff" stroke-linecap="round" stroke-linejoin="round" stroke-width="0.5"><title>2022-04-21 8.1km</title></polyline><polyline fill="none" points="76.99431171786273,206.62207162599952 78.67349260521587,206.51281962994835 79.0932878270687,206.3411376116419 79.26734926050995,205.99777243730205 79.15472127415705,206.5284270673801 80.40386803183355,205.90412712655234 82.60523321956862,206.8249677827116 83.54721274174517,206.8093604048554 83.8339021615393,207.21515121086122 85.45164960180409,206.2162777237536 86.36291240045102,207.54290377690631 86.19908987483359,209.5874242991049 86.8339021615393,211.07005821458006 87.5915813424217,212.25614498626965 89.41410693968646,214.00402934734302 92.90557451650966,218.482803640989 94.22639362909831,222.49319439513783 94.66666666665697,222.36836044857773 94.51308304892154,221.6037481519379 93.42775881683338,218.98216318269988 92.78270762227476,216.23564600682585 92.89533560862765,215.95474673502758 93.79635949945077,215.59581841062754 93.44823663251009,213.45781970642565 92.50625711033354,209.6966719737684 91.42093287824537,207.41804581945325 89.0762229806569,204.56186527386308 86.15813424345106,202.15822217699315 83.93629124001018,201.01880694735155 81.89874857792165,200.44128874000307 78.57110352671589,200.1603323847885 75.5813424345688,200.45689739660884 75.56086461886298,200.28520200137427 75.41751990898047,199.78572233140585 72.68373151306878,198.05312734776817 70.18543799774488,197.5068056048549 65.48577929465682,197.81898992819333 64.37997724683373,198.11556387388555 63.61205915812752,197.89703581308277 63.151308304892154,198.00629992028553 60.62229806598043,200.0198538263794 58.68714448236278,200.95637275346235 58.666666666656965,201.42462798538327 60.50967007962754,200.50372334764688 63.53014789533336,198.00629992028553 64.8304891922744,198.17800034982793 67.5847554038628,197.88142664235056 70.24687144480413,197.88142664235056 71.81342434583348,198.1623912355717 72.91922639359836,198.94284310962394 72.28441410695086,200.26959331029502" stroke="#4dd2ff" stroke-linecap="round" stroke-linejoin="round" stroke-width="0.5"><title>2022-04-19 7.2km</title></polyline><polyline fill="none" points="110.05002034717472,201.06700674138847 110.10204376617912,200.77623779190617 112.6511912974529,200.61763627613254 115.2176799683948,199.66602316856006 119.17145981284557,201.41064194443607 120.74950352270389,201.30490813130746 121.09632631606655,201.99217639856943 123.71483840601286,200.300432671218 124.30443715472938,200.77623779190617 125.37958781421185,202.732307443046 125.01542388118105,205.98354810139426 125.89982200425584,208.17742935349816 127.1830663397559,210.21268408972537 130.165742362733,213.0408429780873 136.2351412467542,220.89064790991688 138.4721482640016,227.8678594103185 138.7322653590236,227.8678594103185 139.2004761301214,227.65643419112894 139.13111157144886,226.25573353846266 136.79005771613447,220.59992273990065 136.04438871034654,217.24332201124344 137.86520837561693,215.8953716512915 135.9230007326696,207.41089668584755 133.94611081050243,202.33580918671942 130.04435438505607,197.70990795551188 124.84201248449972,193.26888983816752 123.0558750986238,192.422964638361 121.99806557886768,192.0 121.82465418218635,194.08837469162972 122.6396877465886,195.14576696448057 126.05589226132724,197.97424954766757 128.17151130083948,200.93483911667136 129.8015784297022,203.63103240304918 130.56458857510006,206.5914947607962 135.5414956600289,205.87781796096533 136.51259948144434,208.7060699721842 137.9519140738994,215.97466323101253 136.3391880847048,217.13760091312724 137.62243242026307,222.07997146606067 139.5819812027621,227.55072145423765 138.64555966068292,228.0 138.003937492962,227.12786965769192 136.21780010702787,221.9213956126332 135.14264944766182,219.83346239638195 130.44320059742313,213.67518803193525 126.99231380340643,210.31841074873955 124.78998906549532,206.4857651087077 124.66860108781839,205.45489655026176 125.18883527786238,203.0759382992037 127.96341762482189,201.3842084990756 129.76689615036594,203.60459940345754 130.66863541316707,206.6443595551027 135.14264944766182,205.5606270303324 133.52992345846724,201.96574307006085 128.89983916690107,196.67897067398735 124.78998906549532,193.34819504699408 122.01540671853581,192.0264353296734 121.91135988046881,194.40559326530638 123.472062450659,195.93880559546233 122.01540671853581,197.15478888406506 120.21192819299176,196.67897067398735 119.58764716488076,197.10192027897574 118.61654334352352,198.29145875771792 118.85931929881917,200.59120267156686 114.50669324200135,201.30490813130746 113.55293056019582,202.25650939211482 110.84771277196705,203.81606325077155 108.8361405703472,206.38003537164332 107.08468546386575,205.42846391700732 109.65117413480766,199.24308180153457 111.90552229172317,199.26951567680953 114.17721158830682,198.39719499112834 115.18299768905854,199.66602316856006 112.99801409087377,200.98770618245908 109.58180957613513,201.0934402503408" stroke="#4dd2ff" stroke-linecap="round" stroke-linejoin="round" stroke-width="0.5"><title>2022-04-10 10.4km</title></polyline><polyline fill="none" points="155.1069664810202,201.13445358492027 155.29969985602656,200.84066513380094 157.45480941224378,200.97420541927568 160.60862827510573,199.77233802328556 161.67742244526744,200.5735841605565 164.53338063776027,201.53507315435127 166.12781128508504,201.37482547135005 166.37310830771457,202.12264634012536 169.17650285246782,200.52016790158086 170.7709334997926,202.68350923265098 170.47307282942347,206.0753439473483 171.31409119279124,208.2385949321033 173.22390372643713,211.17628685529053 175.9396921916632,213.65992123308388 181.809299519693,221.24406608931167 183.96440907602664,227.9732973792925 184.8930335189798,228.0 181.70417222427204,218.0929598163275 181.68665100837825,217.26511443161144 183.54389989428455,216.33044409547438 181.31870547443395,206.28899993138475 179.53154145210283,202.63009382095333 175.72943760082126,197.95616224257537 170.28033945447532,193.3354855835205 167.44190247787628,192.0 167.3542963984073,194.59082980555831 171.55938821553718,197.95616224257537 173.64441290817922,201.61519692341244 170.92862444295315,203.03070888566435 169.281630147947,200.62700039818446 166.58336289861472,202.20276975525485 163.3594591721194,200.94749737293023 161.95776189974276,200.84066513380094 160.17059787752805,201.3481175054476 157.96292467351304,202.92387831975066" stroke="#4dd2ff" stroke-linecap="round" stroke-linejoin="round" stroke-width="0.5"><title>2022-04-09 5.2km</title></polyline><polyline fill="none" points="15.087135437410325,241.11450615867943 17.05096945387777,240.95413901024585 17.10357215075055,240.6868600001544 20.733158234797884,239.64446673293423 21.732609475322533,240.57994824591879 23.34575884602964,240.79377166858467 24.55562087398721,241.4352398759147 26.06356485094875,241.4352398759147 26.501920658163726,242.0767049919741 29.184658198500983,240.36612447968218 29.973698651534505,241.08777831407497 30.8679444983718,242.7716220460061 30.552328317135107,246.0590650874292 31.411505699332338,248.35755427194817 33.58575050329091,251.43105337380257 36.023008791555185,253.6225485254181 41.82683967956109,261.2390498688692 44.106289877265226,268.0 44.912864562589675,267.86638771054277 44.75505647197133,266.3164753521414 42.984099010704085,262.1743796402152 41.72163428575732,257.390766813136 42.002182002412155,256.9097236091475 43.527660211664625,256.18815554401954 42.598345900303684,251.19052122093854 40.63451188383624,244.3752629404553 39.477252552693244,242.10343263803952 37.42574737477116,239.64446673293423 32.46355963672977,234.86004419958772 30.46465715568047,233.3364769010659 27.51890613103751,232.0 27.290961111255456,233.79087599046034 27.60657729243394,234.77985688181798 31.358903002459556,237.82694099839136 33.743558593909256,241.4352398759147 31.07835528580472,242.905259525156 29.1320555016282,240.5532202939503 26.72986567794578,242.02324968369794 23.15288229077123,240.82049957232084 19.944117781764362,241.3016009209823" stroke="#4dd2ff" stroke-linecap="round" stroke-linejoin="round" stroke-width="0.5"><title>2022-04-07 5.0km</title></polyline><polyline fill="none" points="61.747339342487976,240.19966989586828 61.589648272667546,240.5201679003294 62.02767902211053,240.78724898072687 64.07766292919405,240.78724898072687 67.63447261427063,239.74562973431603 68.70326764276251,240.57358415927592 70.57803925016196,240.86737320024986 71.2613672192092,241.32140953273483 72.87332037690794,241.4015334305077 73.20622374647064,242.04252287527197 75.9745780826197,240.3866271589577 76.81559712142916,241.0810375497822 77.76174354011891,242.9772936118752 77.46388263051631,246.3958277929778 78.98822963837301,249.46709217256284 80.51257664628793,251.47005247752531 82.59760301338974,253.1258102253487 88.78259719477501,261.2173621113543 90.93770848179702,268.0 91.74368506064638,267.91989212168846 91.69112137076445,266.5580508108105 88.95780949451728,260.2827195443242 88.43217259523226,257.18500008713454 90.18429559282959,256.41055895143654 90.30694420263171,255.6628184044239 88.32704521535197,247.43739496391936 87.03047419717768,243.64498297329555 85.57621210929938,241.58848900435987 84.59502323059132,242.14935414911452 85.15570258977823,241.21457759393525 82.38734825368738,237.68907547628623 77.37627648067428,233.4957429521237 74.29254000494257,232.0 74.1173277052003,233.81625711068773 74.450231074763,234.80450423730508 78.1647318295436,237.6623667703243 80.74035263597034,241.1077455693303 79.0933570182533,242.41643195823417 77.79678600007901,242.92387831817177 76.25491776224226,240.65370850749605 75.60663225315511,240.76054089677928 75.0809953538701,240.17296169402107 74.23997631506063,237.34186187972955 75.86945070273941,235.81945310275478 78.1997742895037,237.76920156217238 80.72283140599029,241.21457759393525 78.11216813960345,242.84375533747516 77.81430723005906,242.89717066323647 76.02714177255984,240.49345976275072 73.41647850617301,242.04252287527197 72.80323545704596,241.5350731528597 71.20880352926906,241.37482546989486 67.44173908454832,239.95929588575382 65.53192501718877,240.89408126276248 63.00886790070217,241.05432952491537" stroke="#4dd2ff" stroke-linecap="round" stroke-linejoin="round" stroke-width="0.5"><title>2022-04-03 6.2km</title></polyline><polyline fill="none" points="138.797814207559,255.8312361642311 139.56284153001616,252.66578901286994 139.32240437157452,251.36627217144996 141.33333333331393,250.36663690612477 141.33333333331393,249.40031709175673 135.3005464480957,245.53498155527632 131.86885245901067,244.6019560379209 124.50273224036209,244.70192330867576 117.85792349727126,245.73491491210007 114.95081967208534,245.50165930575167 109.74863387976075,249.70021005012677 105.53005464473972,251.79944558277202 105.33333333331393,252.69910982364672 109.0054644808406,251.13302448156173 115.06010928953765,245.80155931085756 116.28415300539928,245.40169251686893 121.55191256827675,245.46833704944584 124.69945355184609,244.76856812225014 132.24043715844164,245.43501478644612 135.9999999999418,247.03447585899266 136.8087431693566,246.46800182582228 136.08743169391528,245.73491491210007 130.14207650267053,244.50198870715394 119.84699453547364,245.23508106831287 117.83606557367602,245.83488150013727 115.16939890704816,245.50165930575167 108.56830601091497,250.66652811814856 105.33333333331393,251.96605043992167 105.63934426225023,252.69910982364672 109.59562841523439,250.7331705359975 114.92896174860653,245.96817019055015 116.54644808743615,245.36837024058332 117.53005464473972,245.53498155527632 121.09289617481409,244.66860089176043 130.95081967208534,244.1687638357689 136.83060109289363,245.90152585864416" stroke="#4dd2ff" stroke-linecap="round" stroke-linejoin="round" stroke-width="0.5"><title>2022-03-24 5.1km</title></polyline><polyline fill="none" points="173.36636637541233,267.1511870792456 172.37236055592075,266.9288777496404 170.95424558673403,268.0 170.31808186226408,267.67664354149747 169.9999999999709,266.8682478472183 169.58914426123374,263.2101761130325 169.11202146785217,262.078370064286 168.54212479805574,261.6741505317841 165.2420254772005,261.5933064303972 163.55884228946525,259.9764107556548 179.84728431870462,238.20642181330186 172.0410252827278,232.0 160.15271568129538,256.2574520577473 167.48185192389064,263.7356531636615 167.93246789538534,263.371861651809" stroke="#4dd2ff" stroke-linecap="round" stroke-linejoin="round" stroke-width="0.5"><title>2021-10-26 5.0km</title></polyline></svg>