<?xml version="1.0" encoding="utf-8" ?>
<svg baseProfile="full" height="300mm" version="1.1" viewBox="0,0,200,300" width="200mm" xmlns="http://www.w3.org/2000/svg" xmlns:ev="http://www.w3.org/2001/xml-events" xmlns:xlink="http://www.w3.org/1999/xlink"><defs /><rect fill="#222222" height="300" width="200" x="0" y="0" /><text fill="#FFFFFF" style="font-size:12px; font-family:Arial; font-weight:bold;" x="10" y="20">Over 5km Runs</text><text fill="#FFFFFF" style="font-size:4px; font-family:Arial" x="10" y="280">ATHLETE</text><text fill="#FFFFFF" style="font-size:9px; font-family:Arial" x="10" y="290">Wenz</text><text fill="#FFFFFF" style="font-size:4px; font-family:Arial" x="120" y="280">STATISTICS</text><text fill="#FFFFFF" style="font-size:3px; font-family:Arial" x="120" y="285">Number: 12</text><text fill="#FFFFFF" style="font-size:3px; font-family:Arial" x="120" y="290">Weekly: 2.0</text><text fill="#FFFFFF" style="font-size:3px; font-family:Arial" x="141" y="285">Total: 84.4 km</text><text fill="#FFFFFF" style="font-size:3px; font-family:Arial" x="141" y="290">Avg: 7.0 km</text><text fill="#FFFFFF" style="font-size:3px; font-family:Arial" x="167" y="285">Min: 5.0 km</text><text fill="#FFFFFF" style="font-size:3px; font-family:Arial" x="167" y="290">Max: 10.4 km</text><polyline fill="none" points="31.8022857143078,51.739319347034325 34.80571428575786,51.92746498309134 38.42628571431851,50.610440770178684 43.05485714285169,52.64868782168196 44.88571428571595,52.4605430545198 45.42057142860722,53.21312076340837 48.753142857167404,51.42574278305983 50.52228571433807,54.34198052670399 49.96685714292107,57.79122369043762 51.38628571428126,61.24039067549165 53.731428571394645,64.56406133683049 56.22057142853737,66.60212628572481 63.297142857161816,75.66335461287235 65.78628571424633,83.34460705431411 66.11542857141467,83.94028023586725 67.0,83.72082195962139 66.71199999994133,81.27540887729265 63.297142857161816,71.99503139111039 63.42057142860722,71.02306806469278 65.18971428566147,70.33328396988509 65.41600000002654,69.86297488577839 62.906285714241676,58.95140654219722 60.622857142821886,53.90298047721444 54.76000000000931,47.066963339893846 49.94628571427893,43.1784531010926 45.33828571427148,40.857844404890784 38.34400000004098,39.35256627065246 33.653714285755996,39.227125771081774 28.75771428574808,39.69752712461923 26.74171428574482,40.35608663895982 24.520000000018626,40.23064694565255 14.892571428616066,41.35960055855685 14.316571428556927,41.51639902594616 13.966857142862864,42.645343343610875 13.0,42.51990548920003 13.205714285722934,40.011127239791676 21.18742857145844,39.38392637974175 21.290285714378115,37.094621862474014 21.98971428576624,36.0597197641473 23.3268571429071,36.843737135161064 22.154285714321304,39.101685170811834 21.68114285718184,43.586124040564755 26.042285714356694,44.99728445916844 23.3268571429071,50.79858776637411 24.067428571463097,53.18176343123196 23.944000000017695,55.439475251347176 27.62628571433015,56.41153556670179 30.568000000028405,58.35563804629783 32.995428571419325,55.28269076283323 30.732571428641677,54.091123506674194 31.16457142861327,52.17832547868602 31.720000000030268,51.99018014477042" stroke="#4dd2ff" stroke-linecap="round" stroke-linejoin="round" stroke-width="0.5"><title>2022-04-28 7.1km</title></polyline><polyline fill="none" points="104.037886340986,55.34409999163472 104.2263210369565,55.54926869236806 104.53589232303784,55.30306620203919 106.19142572284909,55.34409999163472 108.27766699902713,54.58497221668949 109.42173479567282,55.34409999163472 110.26969092726358,55.385133764692 111.15802592225373,55.87753775669262 112.42323030909756,55.87753775669262 112.88085742772091,56.43148941131949 114.96709870392806,55.118413944976055 116.0438683948887,57.10853735523415 115.74775672983378,59.324299261075794 116.4745762712264,61.293825063854456 117.45712861418724,62.914552199610625 119.79910269196262,65.10967328306288 124.41575274179922,70.99728856913134 126.04436689932481,76.02303324978857 126.43469591229223,76.47431251561648 127.0,76.26918582367944 126.83848454640247,75.30508485619794 125.30408773684758,71.83834877688787 124.38883349957177,68.61766609281767 124.45613160522771,67.79709376954997 125.80209371889941,67.22268922263902 123.79661016949103,58.85242806705355 122.63908275178983,56.63665592871257 119.63758723830688,53.00514768444555 117.24177467598929,50.87131992866489 114.76520438687294,49.229883638334286 112.5847457627533,48.121899234894954 109.13908275181893,47.28064379289572 105.58574277174193,47.09597703709005 101.97856430712272,47.38323629086517 101.69591226326884,46.64456800647167 98.22333001001971,44.38749293725414 95.15453639088082,43.587245257847826 88.3708873380092,44.07970611003111 87.6036889332172,44.38749293725414 86.0154536391201,44.12074440723518 85.12711864410085,44.5106074085561 81.29112662016996,47.485828685770684 79.2452642074204,48.36811902959016 74.00947158530471,48.16293590855639 73.44416749753873,47.89619723522628 73.0,48.49122870443534 79.02991026922246,48.86055683889572 80.2547357926378,48.55278348620777 82.19292123630294,47.50634715237538 86.05583250254858,44.12074440723518 87.05184446665226,44.24385919992346 89.48803589236923,43.68984146441653 95.80059820541646,43.525687484383525 99.54237288140575,44.77735492076317 101.81704885346699,46.82923557826143 101.74975074781105,47.42427326114557 100.6191425723373,47.91671561945259 100.7671984048211,48.92211139816936 100.30957128619775,50.8508021378002 99.36739780660719,52.02030964219739 98.04835493525025,55.036346168024465 98.77517447661376,56.18528904670529 98.7482552343281,57.847129995934665 100.51146560322377,58.23694062611321 103.1226321037102,59.673072221346956 104.61665004986571,57.51886725915392 107.33549351949478,55.95960485800606 109.11216350950417,55.32358309887786 107.26819541378063,53.80532160423172 105.92223330013803,54.37980157968559 104.06480558327166,54.44135281405033 103.25722831508028,56.55458937118965 103.60717846464831,57.02647117676679 104.71086739783641,57.55990015897987 106.37986041876138,56.452006081613945 106.04336989036528,55.73392017083097 104.14556331012864,55.67236971510283" stroke="#4dd2ff" stroke-linecap="round" stroke-linejoin="round" stroke-width="0.5"><title>2022-04-27 10.1km</title></polyline><polyline fill="none" points="143.8098151423619,48.597396505152574 146.58456755871885,48.37080920524022 151.98542494041612,46.7469255667238 153.22415369772352,47.72881037283514 155.72638578742044,48.219750853590085 157.2871840215521,49.27715676717344 159.44257205922622,49.352685533536715 160.11148558813147,50.10797152874875 163.72857355931774,47.804339761001756 164.96730231662514,48.52186743548373 166.30512937443564,51.20313083425572 165.93351074733073,56.1123872877215 167.22178865486057,59.208929300584714 170.56635629956145,63.778123790893005 173.1924612649018,65.93051579342864 181.6405913895578,76.88090070190083 184.86128615844063,87.0 186.27343694173032,86.69794521659787 186.19911321630934,85.56523545879463 183.00319302250864,77.40952384278353 181.9131117161014,73.10497791859962 181.76446426520124,71.51906774590316 184.2914709300967,70.1219453245867 181.21942361205583,56.60330588539364 178.3455728951376,50.48561338892614 172.9199409383582,43.952302291756496 168.46051741210977,39.98688719015627 165.78486329643056,37.98526495709666 158.3524907528772,34.3596308214328 148.39311154437019,33.0 139.74678481853334,33.679816639458295 138.0125645584194,34.3596308214328 138.26031030988088,36.247990655640024 137.36842560459627,39.609224248546525 135.83240194554674,41.45976541657001 134.7423206391395,44.59431401555776 133.72656305821147,45.95386101961776 135.31213586754166,45.99162607382459" stroke="#4dd2ff" stroke-linecap="round" stroke-linejoin="round" stroke-width="0.5"><title>2022-04-25 5.0km</title></polyline><polyline fill="none" points="44.0115057528601,115.52339137600211 46.37518759383238,115.33809310803917 48.293146573298145,114.49395231650851 49.117058529285714,115.1116169924353 50.373186593322316,115.31750439094321 51.11605802900158,115.749866582104 52.304652326216456,115.72927794769203 52.858429214626085,116.26458109927626 55.006003001501085,114.96749556752184 56.113556778407656,116.75870460499573 55.82991495745955,119.18811054111575 56.53226613308652,121.10277127206064 57.95047523762332,123.26444203343272 59.94947473736829,125.0349193774091 64.54177088546567,130.94315162545536 66.41920960479183,136.52169262747339 67.0,136.31584779818513 66.9594797398604,135.51304901613184 66.12206103053177,132.87817808215186 65.28464232117403,131.39603343071212 64.55527763883583,128.76105671159166 64.4877438719559,127.93761260159226 65.93296648329124,127.237679909078 64.1230615307868,119.57928069316404 62.704852426220896,116.49105466830952 61.030015007505426,114.34983002342051 59.00400200104923,112.16738196770893 55.91095547773875,109.65545028835186 52.83141570785665,108.09060928026884 48.22561280638911,107.08168596724136 45.22711355678621,106.97873405056453 42.120560280192876,107.41113140597736 41.72886443222524,106.46397291646281 38.203601800923934,104.28135699747509 34.88094047026243,103.47830737251934 29.20810405202792,103.82835541825625 27.654827413731255,104.28135699747509 25.574787393707084,104.17840226887347 22.49524762382498,106.66987768020772 20.09104552277131,108.02883875046246 18.44322161085438,108.3582811459346 14.013006503286306,108.11119944857637 13.25662831417867,107.80234648963233 13.0,108.31710090437991 17.686843421746744,108.79067268351355 19.834417208621744,108.60536224787211 21.941470735386247,107.53467317261675 25.58829414707725,104.42549344385043 26.196098049054854,104.17840226887347 27.857428714400157,104.3431297850475 31.47723861929262,103.95190150201233 35.0565282641619,104.03426547512936 36.90695347674773,104.32253885998944 38.59529764886247,105.12558187250397 39.1490745373012,104.56962968759035 36.36668334165006,103.66362707505323 32.63881940970896,103.60185387807724 28.303151575790253,103.99308349685452 26.95247623816249,104.3637207059437 29.80240120063536,104.24017511843704 31.61230615308159,103.8489464425802 32.67933966984856,104.11662938210793 35.218609304662095,103.99308349685452 37.582291145576164,104.6931748781135 38.325162581313634,105.4344428948898 37.555277638864936,107.16404742618761 37.23111555780633,109.79957918004948 39.94597298654844,110.66434827562625 38.5412706353527,114.08217379879352 39.891945972980466,113.62921551926411 42.28264132066397,113.69098267518712 44.025012506288476,114.14394068183901 43.74137068534037,115.1116169924353" stroke="#4dd2ff" stroke-linecap="round" stroke-linejoin="round" stroke-width="0.5"><title>2022-04-22 10.1km</title></polyline><polyline fill="none" points="101.05972696252866,114.95649950111692 103.20989761094097,114.93308835913194 103.36348122864729,114.48827576771146 105.6365187712945,113.85617074494075 106.63481228670571,114.55850944756094 108.06313993176445,114.76921023341856 109.04607508535264,115.35448819605517 110.19795221847016,115.2608439195028 110.7508532423526,115.91635227621737 113.30034129694104,114.46486453170655 114.63651877135271,116.59526776056009 114.36006825941149,119.28747989857948 115.14334470988251,121.46461468747293 116.83276450511767,123.87580254870409 118.92150170652894,125.74853541675111 124.22013651876478,132.56034754643042 126.26279863482341,138.64616613279213 127.0,138.64616613279213 126.64675767923472,136.51616575660591 125.32593856658787,133.61368503119593 124.2354948805878,129.86844185530936 124.20477815699996,129.0959704861525 125.55631399317645,128.4873530758705 125.80204778158804,128.08940920540772 124.005119453941,120.36434734818613 123.03754266217584,117.71898125483858 122.16211604099954,116.10363970125763 118.82935153588187,112.05348204238544 114.2525597269996,108.19048382018082 110.7354948805878,106.4345332239318 107.003412969294,105.59166754377657 102.65699658705853,105.28729788392229 98.64846416388173,105.70873258596112 98.12627986352891,104.65514297447226 94.2559726962354,102.19673018595495 90.52389078499982,101.35383386720787 79.57337883958826,102.19673018595495 75.91808873723494,105.26388480027526 73.04607508529443,106.59842306529754 73.0,107.277392810749 75.77986348123522,105.91944936571235 80.34129692835268,102.0094204195193 84.59556313994108,102.17331648157415 86.42320819111774,101.70504140725825 87.9897610921762,102.0094204195193 91.39931740617612,101.93917917954968 93.19624573382316,102.50110791443876 94.33276450517587,103.3205824645629 93.47269624576438,105.42777628721524 93.19624573382316,108.63532043938903 96.2525597269996,109.54840081393922 94.60921501705889,113.3645311357468 97.15870307170553,112.59195041836938 102.05802047782345,113.59864549388294 104.65358361776453,112.75583160438691" stroke="#4dd2ff" stroke-linecap="round" stroke-linejoin="round" stroke-width="0.5"><title>2022-04-21 8.1km</title></polyline><polyline fill="none" points="160.4914675768232,114.93310743899929 163.010238907882,114.76922944492253 163.6399317405885,114.51170641747012 163.90102389076492,113.99665865596035 163.7320819112938,114.79264060106652 165.60580204776488,113.85619068983215 168.90784982941113,115.23745167407469 170.32081911264686,115.21404060728673 170.7508532422944,115.82272681629547 173.17747440270614,114.32441658563766 174.54436860070564,116.31435566535947 174.29863481229404,119.3811364486537 175.2508532423526,121.60508732187736 176.38737201370532,123.38421747941175 179.1211604095879,126.00604402101453 184.3583617747645,132.7242054614835 186.33959044370567,138.73979159270675 187.0,138.55254067287024 186.76962457341142,137.40562222790322 185.14163822529372,133.47324477405346 184.17406143347034,129.35346901023877 184.34300341294147,128.9321201025523 185.69453924917616,128.3937276159486 185.17235494876513,125.18672955963848 183.7593856655294,119.54500796065258 182.1313993174117,116.12706872918352 178.6143344709999,111.84279791080189 174.2372013651766,108.23733326548972 170.90443686005892,106.5282104210346 167.84812286688248,105.66193311000825 162.8566552901175,105.24049857718637 158.3720136518823,105.68534609492053 158.34129692835268,105.42780300205777 158.1262798634707,104.67858349711605 154.02559726958862,102.07969102165225 150.27815699664643,101.26020840728597 143.22866894199979,101.72848489229364 141.56996587029425,102.17334581082832 140.41808873723494,101.84555371962779 139.72696245735278,102.00944988043193 135.93344709899975,105.0297807395691 133.03071672358783,106.43455913019716 133.0,107.1369419780749 135.7645051194704,105.75558502147032 140.29522184305824,102.00944988043193 142.2457337884116,102.26700052474189 146.3771331058233,101.82213996352948 150.3703071672353,101.82213996352948 152.72013651876478,102.24358685335756 154.3788395904121,103.41426466443954 153.42662116041174,105.40438996544981" stroke="#4dd2ff" stroke-linecap="round" stroke-linejoin="round" stroke-width="0.5"><title>2022-04-19 7.2km</title></polyline><polyline fill="none" points="20.075030520849396,166.60051011206815 20.15306564932689,166.16435668784834 23.97678694629576,165.92645441419154 27.82651995267952,164.4990347528219 33.757189719355665,167.11596291665046 36.12425528408494,166.95736219694663 36.64448947412893,167.98826459783595 40.5722576091066,165.4506490068161 41.45665573218139,166.16435668784834 43.069381721375976,169.09846116455446 42.52313582185889,173.97532215208048 43.84973300650017,177.26614403024723 45.77459950966295,180.3190261345735 50.248613544157706,184.56126446712005 59.35271187021863,196.33597186485713 62.70822239603149,206.8017891154741 63.098398038651794,206.8017891154741 63.80071419518208,206.48465128667885 63.69666735723149,204.38360030768672 60.18508657423081,195.89988410983642 59.06658306560712,190.86498301685788 61.7978125634836,188.84305747692997 58.884501099120826,176.11634502875677 55.91916621575365,168.5037137800682 50.066531577613205,161.56486193324963 42.26301872683689,154.90333475724037 39.58381264802301,153.63444695752696 37.99709836835973,153.0 37.73698127333773,156.13256203744095 38.95953161997022,157.71865044670994 44.083838392049074,161.96137432150135 47.25726695137564,166.40225867500703 49.70236764464062,170.4465486045665 50.8468828627374,174.8872421411943 58.31224349007243,173.81672694144072 59.768899222195614,178.0591049582581 61.9278711109655,188.96199484651152 59.50878212717362,190.70640136967995 61.43364863045281,198.11995719908737 64.37297180423047,206.32608218134556 62.968339491053484,207.0 62.00590623944299,205.6918044865306 59.326700160629116,197.88209341894253 57.71397417149274,194.750193594562 50.6648008961929,185.5127820478956 45.488470705167856,180.47761612309841 42.18498359830119,174.7286476630543 42.00290163181489,173.18234482538537 42.78325291688088,169.6139074488019 46.94512643729104,167.07631274859887 49.65034422557801,170.4068991051754 51.0029531197506,174.96653933264315 57.71397417149274,173.34094054548768 55.29488518770086,167.94861460507673 48.34975875040982,160.0184560109774 42.18498359830119,155.02229257047293 38.023110077832825,153.0396529944992 37.86703982076142,156.60838989794138 40.208093676075805,158.90820839318621 38.023110077832825,160.7321833260794 35.31789228954585,160.0184560109774 34.38147074740846,160.65288041844906 32.924815015285276,162.43718813656596 33.28897894831607,165.88680400734302 26.760039863118436,166.95736219694663 25.329395840351935,168.38476408817223 21.271569158008788,170.7240948761464 18.25421085563721,174.57005305745406 15.627028195827734,173.1426958755037 19.4767612022697,163.86462270229822 22.858283437613863,163.90427351520339 26.26581738248933,162.5957924866816 27.77449653361691,164.4990347528219 24.497021136339754,166.48155927368498 19.3727143642609,166.64016037550755" stroke="#4dd2ff" stroke-linecap="round" stroke-linejoin="round" stroke-width="0.5"><title>2022-04-10 10.4km</title></polyline><polyline fill="none" points="77.66044972155942,166.70168037737312 77.94954978406895,166.26099770070869 81.18221411842387,166.46130812891352 85.9129424126586,164.6585070349247 87.51613366795937,165.8603762408311 91.80007095664041,167.30260973153054 94.19171692762757,167.0622382070287 94.55966246163007,168.18396951018076 98.76475427875994,165.78025185236766 101.15640024968889,169.02526384897646 100.70960924413521,174.11301592101518 101.97113678924507,177.35789239815495 104.8358555897139,181.76443028294307 108.9095382874948,185.4898818496149 117.71394927962683,196.8660991339566 120.94661361403996,206.9599460689351 122.33955027849879,207.0 117.55625833640806,192.1394397244876 117.52997651259648,190.89767164741352 120.31584984151414,189.49566614320793 116.97805821162183,174.4334998970735 114.29731217818335,168.94514073143364 108.59415640129009,161.9342433638667 100.42050918174209,155.00322837528074 96.16285371687263,153.0 96.03144459764007,156.88624470833747 102.33908232336398,161.9342433638667 105.46661936223973,167.42279538510775 101.39293666445883,169.54606332849653 98.9224452219205,165.94050059728033 94.87504434795119,168.304154632875 90.03918875823729,166.42124605939898 87.93664284964325,166.26099770070869 85.25589681632118,167.02217625817866 81.94438701029867,169.3858174796187" stroke="#4dd2ff" stroke-linecap="round" stroke-linejoin="round" stroke-width="0.5"><title>2022-04-09 5.2km</title></polyline><polyline fill="none" points="137.6307031561155,166.6717592380155 140.57645418075845,166.43120851536514 140.65535822609672,166.03029000022798 146.0997373521095,164.46670009939407 147.5989142128965,165.86992236887454 150.01863826898625,166.19065750288428 151.8334313108935,167.15285981386842 154.09534727636492,167.15285981386842 154.75288098718738,168.11505748795753 158.77698729775148,165.54918671952328 159.96054797724355,166.63166747111245 161.3019167475286,169.1574330690055 160.82849247561535,174.08859763114015 162.1172585489694,177.536331407915 165.37862575490726,182.14658006071113 169.03451318730367,185.4338227881235 177.74025951925432,196.85857480330742 181.15943481581053,207.0 182.3692968438263,206.79958156580688 182.13258470786968,204.4747130282194 179.47614851599792,198.26156946033007 177.58245142863598,191.08615021970763 178.00327300361823,190.3645854137285 180.29149031743873,189.2822333160293 178.89751885039732,181.7857818314078 175.95176782569615,171.56289441068657 174.21587882895255,168.15514895705564 171.13862106209854,164.46670009939407 163.69533945509465,157.29006629937794 160.6969857335207,155.00471535159159 156.27835919643985,153.0 155.93644166679587,155.68631398568687 156.4098659385927,157.16978532272333 162.03835450363113,161.74041149757977 165.61533789086388,167.15285981386842 161.61753292864887,169.35788928772672 158.6980832524132,165.82983044092543 155.09479851683136,168.0348745255469 149.72932343609864,166.23074935848126 144.91617667261744,166.95240138148074" stroke="#4dd2ff" stroke-linecap="round" stroke-linejoin="round" stroke-width="0.5"><title>2022-04-07 5.0km</title></polyline><polyline fill="none" points="17.621009013731964,225.29950484380242 17.384472409030423,225.78025185049046 18.041518533136696,226.1808734710794 21.116494393791072,226.1808734710794 26.451708921405952,224.61844460146676 28.054901464143768,225.86037623891025 30.867058875213843,226.3010598003748 31.892050828842912,226.9821142990986 34.309980565391015,227.10230014576518 34.809335619735066,228.0637843128934 38.961867123958655,225.57994073843292 40.22339568217285,226.62155632466602 41.64261531014927,229.46594041780918 41.19582394580357,234.59374168945942 43.482344457588624,239.20063825884426 45.76886496943189,242.20507871627342 48.896404520084616,244.68871533800848 58.17389579216251,256.82604316702054 61.406562722695526,267.0 62.615527591027785,266.87983818251814 62.536682056088466,264.8370762162085 58.43671424180502,255.42407931647904 57.64825889287749,250.7775001307018 60.27644338924438,249.61583842714026 60.46041630394757,248.49422760662856 57.49056782305706,236.1560924458754 55.54571129579563,230.46747445993242 53.36431816389086,227.3827335065289 51.89253484591609,228.22403122366813 52.73355388472555,226.82186639089196 48.58102238050196,221.53361321442935 41.06441472104052,215.24361442816735 36.43881000741385,213.0 36.17599155777134,215.72438566603523 36.67534661211539,217.20675635595398 42.2470977443154,221.4935501554719 46.11052895395551,226.66161835398816 43.640035527409054,228.62464793735126 41.69517900014762,229.3858174772613 39.382376643363386,225.9805627612368 38.40994837973267,226.14081134516164 37.62149303080514,225.25944254103524 36.35996447264915,221.01279281958705 38.804176054138225,218.7291796541249 42.29966143431375,221.6538023432513 46.08424710901454,226.82186639089196 42.168252209434286,229.26563300621638 41.72146084503038,229.34575599484378 39.040712658839766,225.74018964411516 35.12471775925951,228.0637843128934 34.204853185568936,227.30260972928954 31.813205293903593,227.06223820483137 26.162608626822475,224.93894382863073 23.29788752575405,226.3411218941328 19.513301851053257,226.58149428736942" stroke="#4dd2ff" stroke-linecap="round" stroke-linejoin="round" stroke-width="0.5"><title>2022-04-03 6.2km</title></polyline><polyline fill="none" points="123.19672131142579,248.74685424634663 124.34426229516976,243.99868351928308 123.9836065574782,242.04940825715312 127.0,240.54995535917988 127.0,239.10047563762055 117.95081967220176,233.30247233289992 112.80327868857421,231.9029340568668 101.75409836065955,232.0528849629918 91.78688524593599,233.60237236812827 87.42622950824443,233.25248895860568 79.62295081967022,239.55031507519016 73.29508196713869,242.69916837415076 73.0,244.04866473545553 78.50819672131911,241.69953672232805 87.59016393439379,233.70233896627906 89.42622950824443,233.10253877528885 97.32786885253154,233.2025055741542 102.04918032791466,232.1528521833534 113.36065573780797,233.15252217964735 119.0,235.55171378847444 120.21311475406401,234.70200273871887 119.13114754098933,233.60237236812827 110.21311475406401,231.75298306072364 94.77049180329777,232.85262160246202 91.75409836065955,233.7523222501768 87.75409836065955,233.25248895860568 77.85245901637245,240.99979217720102 73.0,242.94907565986796 73.45901639352087,244.04866473545553 79.393442622968,241.09975580398168 87.393442622968,233.95225528581068 89.81967213121243,233.05255536086042 91.2950819672551,233.30247233289992 96.63934426230844,232.00290133761882 111.42622950824443,231.25314575363882 120.24590163945686,233.8522887879517" stroke="#4dd2ff" stroke-linecap="round" stroke-linejoin="round" stroke-width="0.5"><title>2022-03-24 5.1km</title></polyline><polyline fill="none" points="165.0495495631476,265.7267806188611 163.55854083388112,265.3933166244533 161.4313683801447,267.0 160.47712279343978,266.5149653122353 160.0,265.30237177082745 159.38371639186516,259.8152641695342 158.66803220182192,258.11755509642535 157.8131871970836,257.5112257976725 152.86303821584443,257.38995964558853 150.33826343424153,254.9646161334822 174.77092647808604,222.3096327199455 163.06153792410623,213.0 145.22907352197217,249.38617808661365 156.22277788585052,260.60347974547767 156.89870184310712,260.0577924777026" stroke="#4dd2ff" stroke-linecap="round" stroke-linejoin="round" stroke-width="0.5"><title>2021-10-26 5.0km</title></polyline></svg>