<?xml version="1.0" encoding="utf-8" ?>
<svg baseProfile="full" height="300mm" version="1.1" viewBox="0,0,200,300" width="200mm" xmlns="http://www.w3.org/2000/svg" xmlns:ev="http://www.w3.org/2001/xml-events" xmlns:xlink="http://www.w3.org/1999/xlink"><defs /><rect fill="#222222" height="300" width="200" x="0" y="0" /><text fill="#FFFFFF" style="font-size:12px; font-family:Arial; font-weight:bold;" x="10" y="20">Over 5km Runs</text><text fill="#FFFFFF" style="font-size:4px; font-family:Arial" x="10" y="280">ATHLETE</text><text fill="#FFFFFF" style="font-size:9px; font-family:Arial" x="10" y="290">Wenz</text><text fill="#FFFFFF" style="font-size:4px; font-family:Arial" x="120" y="280">STATISTICS</text><text fill="#FFFFFF" style="font-size:3px; font-family:Arial" x="120" y="285">Number: 18</text><text fill="#FFFFFF" style="font-size:3px; font-family:Arial" x="120" y="290">Weekly: 2.2</text><text fill="#FFFFFF" style="font-size:3px; font-family:Arial" x="141" y="285">Total: 133.7 km</text><text fill="#FFFFFF" style="font-size:3px; font-family:Arial" x="141" y="290">Avg: 7.4 km</text><text fill="#FFFFFF" style="font-size:3px; font-family:Arial" x="167" y="285">Min: 5.0 km</text><text fill="#FFFFFF" style="font-size:3px; font-family:Arial" x="167" y="290">Max: 15.0 km</text><polyline fill="none" points="26.919656488578767,45.526714833118604 28.650954198499676,45.526714833118604 31.5106870229356,44.5370618183515 32.19083969469648,45.14970514495508 34.586832061060704,45.97441226460796 36.02442748093745,46.02153821069078 36.68912213743897,46.6577366302954 39.13148854963947,45.173268285929225 40.35267175571062,47.15255523879023 40.167175572540145,50.61622707948118 41.20286259544082,52.71323041564028 42.74866412219126,54.9044410583665 44.72729007637827,56.57727325653832 47.741603053407744,60.25270813918178 48.05076335876947,61.14798894582054 49.53473282442428,62.679374493403884 50.49312977096997,64.35209587321151 51.88435114506865,69.11097559999325 52.75,68.87539203446067 50.18396946566645,61.124429012103064 50.04484732821584,59.99354663108534 51.63702290074434,59.00401560850878 49.952099236659706,51.60582882865128 48.82366412214469,48.56631119507074 47.95801526715513,46.91692759020225 44.47996183205396,42.722676280704036 41.682061068713665,40.20134070840868 38.52862595417537,38.104113773821155 36.441793893114664,37.11439815734775 34.184923664084636,36.52527775581984 28.97557251912076,35.88902440000675 23.998091603105422,36.3603235133196 22.68416030536173,36.85518554509326 20.566412213782314,36.73736144105351 13.146564885508269,37.65638631463662 13.022900763375219,38.62253290805529 12.574618320621084,38.57540399053687 12.311832061095629,38.928870410883974 12.25,40.272033098124666 12.55916030536173,40.649058457383944 14.893320610688534,40.554802231199574 18.927862595417537,41.214594225042674 20.64370229007909,41.992201455301256 20.164503816806246,44.18361229044967 22.80782442749478,43.264638535467384 24.662786259606946,43.42958307269146 26.548664122179616,43.99510544021177 26.239503816817887,45.173268285929225" stroke="#4dd2ff" stroke-linecap="round" stroke-linejoin="round" stroke-width="0.5"><title>2022-05-10 6.0km</title></polyline><polyline fill="none" points="80.71757296085707,49.14404836278845 81.72779995013843,49.12864921238361 83.70784484909382,48.420284952291695 85.87983287603129,49.3904343483664 86.77893489648704,49.3904343483664 87.0516961835965,49.74461281587719 88.54683212772943,48.80526634011767 88.79938887504977,48.92845997607219 89.5671613868908,50.098789647723606 89.31460463957046,51.99283798640681 89.91063856321853,53.45568883448868 90.84004739337252,54.872317798908625 92.48671738590929,56.39670452192513 95.26484160640393,59.96888603261323 96.12353454728145,61.3084112077122 97.13376153656282,64.74179994401493 97.75,64.71100790290802 97.40652282367228,63.20218274599756 96.588238962373,61.354601313738385 95.91138687953935,58.98347326764633 95.89118233975023,58.475364863697905 96.93171613870072,57.89026616812771 95.35576203541132,51.469284586994036 94.58798952359939,49.8986029437292 92.66855824398226,47.4963217365148 90.5066724869248,45.52516300325078 89.28429782990133,44.7089652574723 87.10220753305475,43.58475413967244 85.08175355452113,43.09194407048926 82.1116862060444,42.81473701483628 79.08100523822941,43.04574296413921 78.70722125220345,42.42972555296001 76.23216512845829,40.797255480938475 73.55506360688014,40.18122000727453 68.86761037667748,40.52004013024998 68.13014467447647,40.766453824828204 66.65521327016177,40.72025131741975 64.07913444752921,42.73773487710423 61.9778623097809,43.76955709918548 58.06828386132838,43.66175542693236 57.45204539786209,43.38455043100112 57.25,43.75415686954511 60.54333998504444,44.15456183441711 62.41225991517422,44.015960352437105 64.41250935394783,42.95334066790383 66.91787228733301,40.766453824828204 70.13039411325008,40.78185465442948 70.94867797454935,40.47383747433196 71.96900723373983,40.6894496302848 74.72692691444536,40.766453824828204 76.54533549514599,41.49028947352781 77.11106260912493,41.01286672758579 78.08088051882805,41.983109835520736 78.81834622102906,42.291120953486825 78.80824395114905,43.01494221109897 78.40415315542486,43.276748217540444 79.37397106509889,44.03136052945774 81.54595909203636,44.262362813904474 84.28367423298187,43.89275882473885 85.29390122226323,44.33936342079687 86.7284235469997,45.58676248053962 87.44568470944068,45.309564442926785 89.90053629333852,47.29612823915522 91.42597904714057,49.74461281587719 91.21383137939847,49.513627044303576 89.59746819655993,50.345172566056135 89.26409329008311,51.823453454169794 89.42572960839607,52.423996925856045 90.84004739337252,54.872317798908625 92.30487652780721,56.18113652160537 95.70934148167726,60.461587667457934 97.33580693442491,64.81877999272547 97.62877276129439,64.6956118777307 97.65907957096351,64.21833356413117 96.09322773761232,60.40000013620738 95.7598528311355,58.75251531950926 95.85077326017199,58.49076213749504 96.89130705915159,57.936458332667826 95.58811424297164,52.423996925856045 94.79003492146148,50.36057147219981 91.81996757298475,46.78794239887793 89.6681840858073,45.06316534616781 86.97087802446913,43.58475413967244 83.1724245447549,42.860938260339026 79.01028934895294,42.99954182996589 78.77793714145082,42.41432505429839 77.10096033924492,41.13607288208004 75.13101771016954,40.42763479062705 73.77731354453135,40.2120218985292 69.51415564978379,40.48923836270842 67.79676976802875,40.82805712475238 71.39317784985178,40.59704449484707 71.34266650039353,42.691533557357616 71.04970067346585,44.30856318726728 71.64573459717212,44.50876448369672 71.22143926165882,44.6319650217265 71.29215515093529,45.77156061567075 75.22193813920603,46.202754532467225 76.50492641559686,46.68014496952674" stroke="#4dd2ff" stroke-linecap="round" stroke-linejoin="round" stroke-width="0.5"><title>2022-05-08 15.0km</title></polyline><polyline fill="none" points="116.82876712328289,45.36005607824336 117.95376712328289,45.4070387267202 121.32876712322468,44.326433038506366 124.62671232875437,45.75940798873489 125.81335616437718,45.71242548182636 126.50684931501746,46.37017886223475 128.27910958905704,45.19561665999208 129.09589041094296,45.10165117444558 130.32876712322468,47.12189248321374 129.94349315064028,49.635399827755464 130.7448630136787,51.796503155186656 132.79452054790454,54.80318920695572 134.67465753422584,56.28301412478322 140.00684931507567,63.35303040736471 142.07191780820722,69.27178527751676 142.75,69.10737946269364 142.68835616437718,68.30883364766487 140.96232876705471,64.08114735500567 139.89897260273574,59.712377702097 141.50171232875437,58.8198132964535 139.7602739725844,50.97434898519714 138.85102739720605,48.31992608363362 137.71061643830035,46.37017886223475 134.58219178079162,42.65852205790725 130.7910958903376,39.322628757348866 125.98287671228172,36.71492761160334 118.44691780814901,35.728214722483244 103.19006849313155,37.39622451132891 103.06678082188591,38.28895237416873 102.2808219177532,38.6178503959236 102.25,39.53406143777829" stroke="#4dd2ff" stroke-linecap="round" stroke-linejoin="round" stroke-width="0.5"><title>2022-05-05 5.1km</title></polyline><polyline fill="none" points="164.52727272725315,47.970021777749935 166.34090909091174,48.09473930354579 168.6863636363414,47.24249988234078 171.74090909090592,48.42731863791414 172.8590909090708,48.42731863791414 173.2272727272939,48.88461347793054 175.35454545455286,47.63744097424933 175.5318181818293,47.762158900783106 176.58181818181765,49.57055195040448 176.29545454547042,51.58676902522711 176.96363636362366,53.769227785945986 178.2181818181998,55.70222426630062 180.56363636362948,57.926164814249205 182.90909090908826,60.752786655612 185.4454545454646,64.59769983311708 186.8363636363647,69.08671508320549 187.75,69.08671508320549 185.51363636361202,61.50099716641125 185.45909090907662,60.4618144410706 186.49545454545296,60.1708414087916 186.65909090905916,59.838299799128436 185.0227272727643,52.54289947873622 183.27727272725315,49.009329901920864 180.4681818181998,45.53799999113107 176.35000000000582,42.10812856697157 172.8590909090708,40.34118075357401 168.0318181818293,39.46808952396532 162.5227272727061,39.73833283433487 162.05909090908244,38.90681270190544 159.1409090909001,36.82798314720276 156.90454545451212,36.07959428715549 154.5863636363938,35.91328491679451 148.8045454545354,36.370635042381764 147.27727272728225,36.82798314720276 147.25,37.03586798135075 152.14545454544714,36.68246351480775 151.70909090910573,41.463715799669444 152.40454545454122,41.692378853702394 152.00909090906498,41.713166378991446 151.94090909091756,43.45930360334023 157.2727272727061,44.041342799442646 159.09999999997672,44.66495259236399 159.29090909092338,44.97675607998099 158.67727272724733,46.34868026850745 158.7727272727061,46.681265212413564 161.19999999998254,46.01609425600327 162.8909090909001,46.12002749970998 164.94999999998254,46.80598429092788 166.20454545455868,46.78519778826012 167.3909090909292,46.36946685877774" stroke="#4dd2ff" stroke-linecap="round" stroke-linejoin="round" stroke-width="0.5"><title>2022-05-04 7.1km</title></polyline><polyline fill="none" points="26.438094332406763,93.98360431284527 28.887504754646216,93.93663946923334 31.36772537085926,93.06778646152088 34.46414986689342,94.38280472154293 36.09709014830878,94.57066326585482 36.29735640925355,95.1577192720506 38.87000760744559,93.63136752646096 40.271871434000786,95.74477233127254 39.90214910614304,98.53910449653631 40.703214149863925,100.53501516697725 42.613446177274454,103.32923288246093 44.60070368961897,105.06677998304076 49.48411943705287,111.28886530295858 50.223564092826564,112.53324264706316 51.825694180326536,117.90973975085944 52.75,117.88626213477983 52.51892354513984,116.45411864458583 50.57788132369751,112.11062541099818 49.91546215291601,109.31661748648185 49.86924686189741,108.42439921531331 51.27111068845261,107.8374097987762 51.47137694939738,107.46173502603779 48.96034613926895,97.57635893653787 47.60469760361593,94.89941499240376 46.094998098153155,92.9503733978272 40.37970711296657,87.85453285194671 36.328166603285354,85.67053321243293 31.614206922822632,84.63722884635354 26.57674020540435,84.59026024914056 22.633035374688916,85.34175554089597 20.306865728402045,85.31827138614608 13.128090528713074,86.18718197167618 13.081875237752683,87.07956990669481 12.80458349181572,87.43182642762258 12.357835678965785,87.26744018319732 12.25,88.01891827102372 12.357835678965785,89.21657649248664 12.989444655773696,89.99152527636761 15.515880562947132,91.5414074384098 19.629041460633744,92.69206424269942 20.49172689236002,94.68807470288448 20.522537086333614,96.73101483695791 24.204355268157087,97.74073069074802" stroke="#4dd2ff" stroke-linecap="round" stroke-linejoin="round" stroke-width="0.5"><title>2022-05-01 6.0km</title></polyline><polyline fill="none" points="66.46545827633236,92.65157195220672 66.35465116275009,92.34191032393574 68.84781121753622,92.5952698888359 70.54685362515738,91.97594569958164 70.65766073873965,92.76417601112189 70.63919288641773,91.97594569958164 72.11662106699077,91.41292133524257 73.26162790699163,92.22930592584453 74.9606703146128,92.42636356307776 76.1795485636103,93.1301385779152 77.84165526676225,93.04568576269958 78.22948016418377,93.80575926847087 80.83344733243575,92.17300369292207 81.33207934338134,92.28560813626973 82.8464432284818,94.62212992556306 82.5140218877932,98.42241351809935 83.45588235300966,100.47733877306746 84.82250342000043,102.72927706696646 87.90663474693429,105.60044593521161 94.11183310538763,113.3973431964987 96.95588235300966,121.39082385261281 97.75,121.19380691944389 97.65766073873965,120.06799056219461 94.37038303696318,110.97669226049766 94.55506155954208,109.65376071627543 96.27257181948517,108.66859081933217 93.94562243501423,98.76021151890745 91.93262653902639,94.00281468991307 88.09131326945499,89.32971152700338 82.8464432284818,84.96613119624817 77.34302325581666,82.29161160199874 73.79719562240643,81.41886258763407 68.73700410401216,81.10917614738719 63.14124487002846,81.67224189341505 62.5133378932951,82.0663865700044 63.52906976744998,83.05174341351812 65.92989056085935,83.75556549005705 72.39363885088824,82.99543749474105 74.0557455540984,83.36142556253617 77.08447332424112,85.9796200273995 78.91279069765005,85.36026661230426 80.02086183312349,86.71157962666621 83.60362517100293,89.55492489046446 85.87517099868273,93.24274225247063 82.93878248974215,94.93178651752532 82.45861833106028,97.38086455849407 82.73563611495774,99.04170923138008 85.35807113541523,103.32040487573249 88.34986320114695,106.05082003085408 94.37038303696318,113.98842603037338 96.8820109438966,121.36267859342479 97.71306429553078,121.2219522125888 97.63919288653415,120.06799056219461 95.57079343363876,115.00170509144664 94.38885088922689,110.24485933182586 94.61046511633322,109.71005592984147 96.25410396716325,108.66859081933217 94.18570451438427,99.6610022090972 91.87722298229346,93.80575926847087 87.77735978108831,88.96373903963831 82.6617647059029,84.76906307269383 78.08173734613229,82.48868320814654 70.9346785225789,81.27809610866098 68.53385772911133,81.13732948836696 61.68228454171913,82.15084599937836 57.5824213406886,82.31976470554218 57.25,84.9098260463361 60.37106703151949,86.45820942865248" stroke="#4dd2ff" stroke-linecap="round" stroke-linejoin="round" stroke-width="0.5"><title>2022-04-30 10.1km</title></polyline><polyline fill="none" points="116.35171428567264,95.05448951026483 118.60428571427474,95.19559873730759 121.31971428566612,94.2078305776231 124.79114285710966,95.73651586625056 126.16428571427241,95.59540729087894 126.56542857142631,96.15984057254536 129.064857142861,94.8193070872876 130.3917142857099,97.00648539502436 129.97514285711804,99.59341776781366 131.0397142856964,102.18029300660419 132.79857142851688,104.67304600261559 134.66542857140303,106.20159471428633 139.9728571427986,112.99751595965063 141.83971428568475,118.7584552907283 142.08657142851735,119.20521017690044 142.75,119.0406164697124 142.5339999999269,117.20655665796221 139.9728571427986,110.24627354332188 140.0654285714263,109.51730104850867 141.392285714217,108.9999629774029 141.56199999997625,108.64723116433015 139.67971428565215,100.463554906637 137.9671428570873,96.67723535789992 133.56999999994878,91.55022250490583 129.9597142856801,88.63383982581581 126.5037142856745,86.89338330366445 121.25799999997253,85.76442470298207 117.74028571427334,85.67034432830405 114.06828571431106,86.0231453434535 112.55628571432317,86.51706497921259 110.88999999995576,86.42298520922486 103.6694285714184,87.26970041891036 103.23742857138859,87.38729926945234 102.97514285711804,88.2340075076936 102.25,88.13992911689274 102.4042857142631,86.25834542983648 108.39057142857928,85.7879447847954 108.46771428571083,84.0709663968446 108.99228571431013,83.29478982309956 109.99514285713667,83.88280285135988 109.11571428569732,85.5762638781016 108.76085714285728,88.93959303041629 112.03171428572387,89.99796334437269 109.99514285713667,94.34894082477695 110.55057142855367,96.13632257340942 110.45799999998417,97.82960643850674 113.21971428574761,98.55865167501906 115.42599999997765,100.01672853471246 117.24657142854994,97.71201807211764 115.54942857142305,96.81834262999473 115.8734285714454,95.38374410900724 116.28999999997905,95.2426351085669" stroke="#4dd2ff" stroke-linecap="round" stroke-linejoin="round" stroke-width="0.5"><title>2022-04-28 7.1km</title></polyline><polyline fill="none" points="170.5284147557104,97.75807499372604 170.66974077769555,97.91195151927968 170.90191924225655,97.72729965153849 172.14356929212227,97.75807499372604 173.70825024924125,97.1887291625244 174.5663010967255,97.75807499372604 175.20226819542586,97.78885032352264 175.8685194416612,98.15815331752674 176.81742273180862,98.15815331752674 177.16064307076158,98.57361705849326 178.72532402793877,97.58881045873568 179.53290129613015,99.08140301642561 179.31081754737534,100.74322444581048 179.85593220338342,102.22036879789812 180.59284646064043,103.4359141497116 182.34932701895013,105.08225496230443 185.81181455633487,109.49796642685396 187.03327517447178,113.26727493734506 187.32602193421917,113.60573438671418 187.75,113.45188936776685 187.62886340977275,112.72881364215573 186.4780658025993,110.12876158267318 185.79162512463517,107.71324956961325 185.84209870389896,107.09782032716612 186.85157028914546,106.66701691698108 185.34745762709645,100.3893210502938 184.4793120638351,98.7274919465417 182.22819042872288,96.00386076333962 180.4313310069847,94.40348994650412 178.57390329011832,93.17241272875981 176.93855932203587,92.34142442618031 174.3543120638351,91.71048284467543 171.68930707877735,91.571982777823 168.98392323032022,91.78742721815797 168.7719341974298,91.23342600485921 166.16749750750023,89.54061970294424 163.86590229315334,88.94043394339678 158.77816550349235,89.30977958253061 158.20276669989107,89.54061970294424 157.01159022931824,89.34055830543366 156.3453389830538,89.63295555642253 153.46834496510564,91.86437151433347 151.93394815555075,92.5260892721999 148.0071036889567,92.37220193142275 147.58312562311767,92.17214792642335 147.25,92.6184215283356 151.772432701895,92.89541762917361 152.69105184444925,92.66458761465765 154.14469092720537,91.87976036428154 157.04187437688233,89.34055830543366 157.78888334994554,89.43289439994987 159.61602691924782,89.01738109831786 164.35044865406235,88.8942656132931 167.15677966101794,89.83301619057602 168.86278664006386,91.37192668369971 168.81231306082918,91.81820494586282 167.96435692923842,92.18753671459854 168.07539880360127,92.94158354862884 167.7321784646192,94.38810160335561 167.0255483549554,95.26523223164986 166.03626620140858,97.52725962602563 166.58138085744577,98.38896678503806 166.56119142571697,99.63534749695827 167.88359920238145,99.92770546959218 169.84197407777538,101.00480416601204 170.96248753738473,99.38915044436726 173.00162013960653,98.21970364351 174.3341226321063,97.74268732416385 172.95114656031365,96.60399120317743 171.94167497506714,97.03485118476965 170.5486041874392,97.0810146105432 169.94292123630294,98.6659420283977 170.20538384845713,99.01985338257509 171.0331505483482,99.41992511924036 172.2848953140492,98.58900456121773 172.0325274177594,98.05044012812868 170.60917248256737,98.00427728633076" stroke="#4dd2ff" stroke-linecap="round" stroke-linejoin="round" stroke-width="0.5"><title>2022-04-27 10.1km</title></polyline><polyline fill="none" points="20.357361356844194,141.4480473788717 22.43842566909734,141.2781069039338 26.48906870535575,140.06019417505013 27.41811527335085,140.79660777963 29.294789340579882,141.16481314020348 30.46538801625138,141.95786757538735 32.08192904444877,142.01451415015617 32.58361419115681,142.5809786465761 35.29643016954651,140.8532548207586 36.225476737483405,141.39140057662007 37.22884703089949,143.4023481257027 36.9501330605126,147.08429046580568 37.91634149115998,149.40669697544945 40.42476722470019,152.83359284317703 42.39434594870545,154.4478868450824 48.73044354218291,162.66067552642926 51.145964618888684,170.25 52.2050777063705,170.02345891245204 52.14933491224656,169.1739265941069 49.75239476689603,163.05714288209856 48.93483378714882,159.82873343895335 48.82334819895914,158.639300809431 50.718603197601624,157.5914589934473 48.41456770908553,147.4524794140525 46.2591796714114,142.86421004169824 42.18995570379775,137.96422671882465 38.845388059155084,134.9901653926281 36.838647472381126,133.48894871782977 31.264368064701557,130.76972311608552 23.794833658321295,129.75 17.310088613943662,130.259862479601 16.009423418843653,130.76972311608552 16.195232732454315,132.18599299173366 15.526319203490857,134.7069181864208 14.37430145923281,136.09482406243478 13.55674047942739,138.4457355116756 12.794922293687705,139.46539576471696 13.98410190071445,139.49371955537936" stroke="#4dd2ff" stroke-linecap="round" stroke-linejoin="round" stroke-width="0.5"><title>2022-04-25 5.0km</title></polyline><polyline fill="none" points="80.50862931465963,146.64254353199794 82.28139069536701,146.50356983102392 83.71985992998816,145.87046423738502 84.33779389696429,146.33371274432284 85.27988994499901,146.48812829320377 85.83704352175118,146.812399936578 86.72848924464779,146.79695846077084 87.14382191098412,147.19843582445174 88.75450225113309,146.2256216756432 89.58516758380574,147.56902845374861 89.37243621810921,149.3910829058368 89.89919959980762,150.82707845404366 90.96285642820294,152.44833152507636 92.46210605301894,153.776189533055 95.90632816409925,158.20736371909152 97.31440720360843,162.39126947060868 97.75,162.23688584863703 97.71960980488802,161.6347867621007 97.09154577291338,159.65863356160844 96.46348174088052,158.54702507302864 95.91645822912687,156.5707925336901 95.86580790398875,155.95320945119602 96.94972486246843,155.42825993181032 95.59229614809738,149.6844605198712 94.52863931964384,147.36829100123578 93.27251125563635,145.76237251756538 91.7530015007651,144.1255364757817 89.43321660830406,142.2415877162639 87.12356178089976,141.0679569601998 83.66920960479183,140.3112644754292 81.42033516758238,140.23405053791794 79.09042021012283,140.55834855448484 78.7966483241762,139.84797968734347 76.15270135068567,138.21101774810813 73.66070535269682,137.60873052939132 69.40607803902822,137.8712665636922 68.24112056029844,138.21101774810813 66.68109054528759,138.13380170165328 64.37143571788329,140.00240826015215 62.568284142093034,141.02162906284502 61.332416208140785,141.2687108594473 58.00975487747928,141.08339958643046 57.44247123564128,140.85175986722606 57.25,141.23782567828312 60.76513256630278,141.5930045126297 62.375812906451756,141.45402168590226 63.95610305154696,140.6510048794662 66.69122061031521,138.31912008288782 67.14707353679114,138.13380170165328 68.39307153580012,138.25734733878926 71.10792896448402,137.96392612651107 73.79239619814325,138.02569910635066 75.18021510753897,138.24190414499026 76.4464732366323,138.84418640437798 76.86180590296863,138.42722226569458 74.77501250625937,137.7477203062881 71.97911455729627,137.70139040856156 68.72736368182814,137.99481262263726 67.71435717862914,138.27279052945232 69.85180090047652,138.18013133882778 71.20922961478936,137.8867098319388 72.00950475237914,138.08747203658277 73.91395697850385,137.99481262263726 75.68671835918212,138.51988115858694 76.2438719359925,139.07583217116917 75.66645822912687,140.3730355696389 75.42333666837658,142.3496843850371 77.4594797398895,142.99826120671787 76.4059529765218,145.56163034908968 77.4189594797499,145.22191163944808 79.21198099051253,145.26823700639216 80.51875937971636,145.6079555113829 80.30602801399073,146.33371274432284" stroke="#4dd2ff" stroke-linecap="round" stroke-linejoin="round" stroke-width="0.5"><title>2022-04-22 10.1km</title></polyline><polyline fill="none" points="123.29479522188194,146.21737462584133 124.90742320820573,146.19981626935623 125.02261092152912,145.86620682579087 126.72738907849998,145.3921280587092 127.47610921505839,145.91888208567252 128.54735494885244,146.07690767506574 129.28455631402903,146.51586614704138 130.14846416385262,146.4456329396271 130.56313993179356,146.9372642071612 132.47525597270578,145.84864839877991 133.4773890785291,147.44645082042553 133.27005119458772,149.46560992393643 133.857508532441,151.09846101560834 135.1245733788819,152.9068519115317 136.69112627991126,154.3114015625688 140.66510238908813,159.42026065982645 142.19709897614666,163.9846245995941 142.75,163.9846245995941 142.4850682594406,162.38712431745807 141.4944539249409,160.21026377339876 140.67662116044085,157.40133139148384 140.65358361776453,156.8219778646162 141.66723549488233,156.36551480690832 141.85153583620558,156.06705690405943 140.5038395904703,150.27326051114505 139.77815699664643,148.2892359411344 139.1215870307642,147.07772977594868 136.6220136519114,144.04011153178726 133.18941979526426,141.14286286514107 130.55162116046995,139.82589991795248 127.7525597269996,139.19375065783242 124.492747440323,138.96547341294354 121.4863481229113,139.28154943947447 121.09470989767578,138.49135723085783 118.19197952220566,136.64754763946985 115.39291808876442,136.0153754004059 107.18003412970575,136.64754763946985 104.43856655291165,138.9479136002119 102.28455631399993,139.94881729897315 102.25,140.4580446080654 104.33489761094097,139.4395870242879 107.75597269626451,136.50706531464675 110.94667235499946,136.62998736118607 112.31740614335285,136.2787810554437 113.4923208191467,136.50706531464675 116.04948805464664,136.45438438466226 117.39718430038192,136.8758309358309 118.2495733788819,137.49043684842036 117.60452218432329,139.0708322154096 117.39718430038192,141.4764903295436 119.68941979523515,142.1613006104526 118.45691126282327,145.02339835181192 120.3690273037937,144.4439628137843 124.04351535838214,145.19898412041948 125.9901877133234,144.56687370329018" stroke="#4dd2ff" stroke-linecap="round" stroke-linejoin="round" stroke-width="0.5"><title>2022-04-21 8.1km</title></polyline><polyline fill="none" points="167.8686006826174,146.19983057925856 169.7576791809115,146.07692208369554 170.22994880547049,145.88377981310623 170.42576791808824,145.49749399197754 170.29906143347034,146.0944804508108 171.70435153582366,145.39214301737957 174.18088737205835,146.42808875555784 175.2406143344706,146.4105304554687 175.56313993173535,146.86704511222342 177.3831058020296,145.7433124392337 178.40827645052923,147.2357667490287 178.22397610920598,149.53585233649937 178.93813993176445,151.20381549141166 179.79052901026444,152.53816310956609 181.84087030717637,154.50453301576636 185.76877133108792,159.54315409612173 187.2546928327647,164.05484369453188 187.75,163.91440550465632 187.57721843005856,163.0542166709347 186.3562286689703,160.10493358054373 185.6305460750882,157.01510175768635 185.7572525597352,156.69909007691604 186.77090443688212,156.29529571197054 186.3792662115884,153.89004716973432 185.31953924914706,149.65875597049308 184.09854948805878,147.09530154689128 181.46075085323537,143.8820984331105 178.17790102391155,141.1779999491264 175.67832764505874,139.89615781578323 173.3860921501764,139.24644983251346 169.64249146758812,138.93037393289706 166.27901023891172,139.26400957119768 166.2559726962354,139.07085225154879 166.09470989761758,138.5089376228425 163.019197952206,136.55976826624828 160.20861774747027,135.94515630546812 154.92150170649984,136.29636366922932 153.67747440270614,136.63000935812306 152.81356655291165,136.38416528972448 152.29522184302914,136.50708741032577 149.45008532423526,138.7723355546841 147.27303754270542,139.82591934765514 147.25,140.35270648356527 149.32337883961736,139.31668876610638 152.72141638226458,136.50708741032577 154.18430034132325,136.7002503935655 157.28284982938203,136.36660497265257 160.27773037541192,136.36660497265257 162.04010238908813,136.68269014002726 163.28412969282363,137.56069849833148 162.56996587032336,139.053292474091" stroke="#4dd2ff" stroke-linecap="round" stroke-linejoin="round" stroke-width="0.5"><title>2022-04-19 7.2km</title></polyline><polyline fill="none" points="17.55627289059339,188.7003825840511 17.61479923693696,188.37326751589717 20.482590209692717,188.19484081065457 23.369889964465983,187.12427606462734 27.817892289487645,189.08697218749148 29.5931914630346,188.9680216477136 29.9833671055967,189.74119844839151 32.92919320677174,187.83798675512662 33.592491799092386,188.37326751589717 34.802036290988326,190.57384587342676 34.39235186635051,194.2314916140749 35.387299754831474,196.6996080226818 36.83094963221811,198.98926960093377 40.186460158089176,202.17094835035095 47.01453390263487,211.00197889865376 49.53116679697996,218.85134183660557 49.82379852893064,218.85134183660557 50.35053564637201,218.61348846500914 50.272500517894514,217.03770023076504 47.63881493062945,210.67491308238823 46.799937299161684,206.8987372626434 48.8483594225836,205.38229310770112 46.66337582428241,195.83725877157121 44.43937466177158,190.12778533506207 40.0498986832099,184.92364644994086 34.19726404506946,179.9275010679412 32.187859485973604,178.9758352181525 30.99782377621159,178.5 30.80273595493054,180.8494215280807 31.71964871493401,182.03898783503973 35.5628787939786,185.22103074112965 37.94295021344442,188.55169400625164 39.77677573339315,191.58491145342123 40.635162146994844,194.91543160589936 46.23418261751067,194.1125452060951 47.326674416603055,197.29432871870813 48.94590333319502,205.47149613489455 47.131586595322005,206.77980102726724 48.575236472825054,212.33996789931552 50.77972885314375,218.49456163602008 49.72625461826101,219.0 49.00442967953859,218.01885336490523 46.99502512044273,212.16157006421417 45.785480628605,209.81264519592514 40.49860067211557,202.8845865359326 36.61635302886134,199.1082120923238 34.13873769866768,194.796485747298 34.00217622378841,193.6367586190463 34.58743968763156,190.9604305866087 37.70884482789552,189.0572345614637 39.7377581691253,191.5551743288961 40.7522148397984,194.97490449948236 45.785480628605,193.75570540913031 43.97116389073199,189.71146095381118 38.76231906277826,183.76384200823668 34.13873769866768,180.01671942786197 31.017332558345515,178.52973974587803 30.90027986554196,181.2062924234633 32.6560702570132,182.93115629488602 31.017332558345515,184.29913749457046 28.988419217115734,183.76384200823668 28.28610306052724,184.2396603138477 27.193611261434853,185.57789110242447 27.466734211193398,188.16510300550726 22.570029897266068,188.9680216477136 21.4970468802494,190.03857306613645 18.453676868462935,191.7930711571098 16.190658141684253,194.67753979309055 14.220271146856248,193.60702190663142 17.107570901629515,186.64846702672367 19.643712578166742,186.67820513641345 22.199363036837894,185.6968443650112 23.330872400198132,187.12427606462734 20.872765852196608,188.61116945526737 17.02953577315202,188.73012028163066" stroke="#4dd2ff" stroke-linecap="round" stroke-linejoin="round" stroke-width="0.5"><title>2022-04-10 10.4km</title></polyline><polyline fill="none" points="60.74533729115501,188.77626028304803 60.96216233802261,188.4457482755388 63.3866605887888,188.59598109668877 66.93470680952305,187.24388027620444 68.13710025092587,188.1452821806306 71.35005321749486,189.22695729865518 73.14378769573523,189.04667865527153 73.41974684619345,189.88797713264648 76.5735657090554,188.08518888927938 78.36730018729577,190.51894788673962 78.03220693313051,194.3347619407723 78.97835259191925,196.76841929861985 81.12689169228543,200.07332271221094 84.18215371563565,202.86741138722573 90.78546195972012,211.39957435047836 93.20996021054452,218.96995955171587 94.25466270884499,219.0 90.66719375230605,207.85457979337662 90.64748238446191,206.92325373557105 92.73688738112105,205.87174960740958 90.23354365874548,194.57512492281967 88.22298413363751,190.4588555485825 83.94561730098212,185.20068252290366 77.81538188632112,180.00242128146056 74.62214028765447,178.5 74.52358344820095,181.41468353125674 79.25431174249388,185.20068252290366 81.5999645217089,189.31709653884172 78.54470249835867,190.9095474963833 76.69183391641127,188.20537544797116 73.65628326096339,189.97811597466352 70.02939156867797,188.56593454456015 68.45248213724699,188.4457482755388 66.44192261225544,189.01663219364127 63.958290257724,190.78936310972495" stroke="#4dd2ff" stroke-linecap="round" stroke-linejoin="round" stroke-width="0.5"><title>2022-04-09 5.2km</title></polyline><polyline fill="none" points="105.72302736708662,188.75381942851527 107.93234063556883,188.57340638652386 107.9915186695871,188.2727175001637 112.07480301411124,187.10002507455647 113.19918565970147,188.15244177666318 115.01397870172514,188.39299312715593 116.37507348321378,189.11464486041223 118.07151045725914,189.11464486041223 118.56466074037598,189.83629311597906 121.58274047332816,187.91189003964246 122.47041098296177,188.7237506033416 123.4764375606319,190.61807480175048 123.12136935675517,194.3164482233551 124.08794391172705,196.90224855593988 126.5339693161659,200.35993504553335 129.2758848904632,202.82536709109263 135.8051946394262,211.39393110248784 138.36957611184334,219.0 139.27697263291338,218.84968617436243 139.0994385309168,217.10603477116092 137.107111387013,212.44617709524755 135.6868385715061,207.0646126647771 136.00245475274278,206.5234390603 137.71861773810815,205.71167498701834 136.673139137798,200.08933637355221 134.46382586931577,192.42217080801493 133.16190912172897,189.86636171779537 130.85396579658845,187.10002507455647 125.27150459133554,181.71754972453346 123.02273930015508,180.00353651370096 119.70876939734444,178.5 119.45233125012601,180.5147354892688 119.80739945394453,181.6273389920534 124.028765877767,185.05530862319574 126.71150341816247,189.11464486041223 123.71314969653031,190.76841696580232 121.5235624393099,188.12237283069408 118.82109888765262,189.77615589415655 114.79699257708853,188.42306201886095 111.18713250447763,188.96430103610328" stroke="#4dd2ff" stroke-linecap="round" stroke-linejoin="round" stroke-width="0.5"><title>2022-04-07 5.0km</title></polyline><polyline fill="none" points="150.71575676032808,187.7246286328591 150.53835430677282,188.0851888878824 151.03113889985252,188.3856551033241 153.3373707953724,188.3856551033241 157.3387816910399,187.213833451111 158.54117609810783,188.14528217918996 160.65029415639583,188.47579485029564 161.41903812164674,188.9865857243276 163.23248542408692,189.0767251093348 163.60700171481585,189.79783823469188 166.7214003429399,187.9349555538356 167.66754676162964,188.7161672435177 168.73196148261195,190.84945531336416 168.39686795935268,194.69530626710912 170.11175834323512,198.15047869413684 171.82664872705936,200.40380903721962 174.17230339010712,202.2665365035209 181.13042184413644,211.36953237527632 183.5549220420071,219.0 184.4616456932854,218.90987863689952 184.4025115420809,217.37780716216366 181.32753568136832,210.3180594873702 180.73619416967267,206.8331250980409 182.70733254193328,205.9618788203661 182.84531222796068,205.12067070498597 180.6179258673219,195.86706933441747 179.15928347187582,191.6006058449566 177.5232386229327,189.28705012990395 176.41940113448072,189.91802341776202 177.0501654135296,188.8663997931726 173.93576678540558,184.90020991083293 168.29831104079494,180.1827108211437 164.8291075055604,178.5 164.6319936683285,180.54328924953006 165.00650995911565,181.65506726698368 169.1853233082802,184.87016261661483 172.08289671549574,188.74621376549476 170.2300266455859,190.21848595302436 168.7713842500816,190.7893631079496 167.03678248252254,188.2354220709385 166.3074612847995,188.3556085088785 165.71611977316206,187.69458190578735 164.7699733544723,184.50959461470484 166.60313204058912,182.79688474060094 169.22474607574986,184.9903517574421 172.0631853317609,188.8663997931726 169.12618915707571,190.6992247546732 168.79109563381644,190.7593169961474 166.78053449414438,188.05514223310456 163.84353831945919,189.79783823469188 163.1536398892058,189.22695729696716 161.35990397044225,189.04667865364172 157.1219564701314,187.4542078714876 154.97341564431554,188.50584142061416 152.1349763883045,188.6861207155307" stroke="#4dd2ff" stroke-linecap="round" stroke-linejoin="round" stroke-width="0.5"><title>2022-04-03 6.2km</title></polyline><polyline fill="none" points="49.897540983511135,254.06014068475633 50.75819672131911,250.49901263945503 50.487704918021336,249.03705619287211 52.75,247.91246651938127 52.75,246.82535672820813 45.963114754122216,242.47685424967494 42.10245901637245,241.42720054264646 33.81557377043646,241.53966372224386 26.340163934393786,242.70177927608893 23.069672131096013,242.4393667189579 17.217213114723563,247.16273630638898 12.47131147532491,249.5243762806058 12.25,250.53649855159165 16.381147540931124,248.77465254174604 23.192622950708028,242.77675422470202 24.569672131096013,242.326904081463 30.495901639282238,242.40187918061565 34.036885245877784,241.61463913752232 42.520491803239565,242.3643916347355 46.74999999994179,244.16378534135583 47.659836065548006,243.52650205403916 46.84836065565469,242.70177927608893 40.1598360654898,241.31473729554273 28.577868852415122,242.13946620184288 26.31557377043646,242.81424168763624 23.31557377043646,242.4393667189579 15.889344262250233,248.24984413290804 12.25,249.7118067449046 12.59426229505334,250.53649855159165 17.045081967196893,248.32481685299717 23.045081967196893,242.964191464358 24.864754098351113,242.28941652063804 25.97131147532491,242.47685424967494 29.979508196702227,241.50217600321048 41.06967213109601,240.9398593152291 47.684426229505334,242.88921659096377" stroke="#4dd2ff" stroke-linecap="round" stroke-linejoin="round" stroke-width="0.5"><title>2022-03-24 5.1km</title></polyline><polyline fill="none" points="81.28716217237525,266.7950854641458 80.16890562541084,266.54498746834724 78.57352628506487,267.75 77.85784209502162,267.38622398418374 77.49999999994179,266.4767788281242 77.03778729389887,262.3614481271579 76.50102415133733,261.088166322319 75.8598903978127,260.63341934826167 72.14727866183966,260.54246973419504 70.25369757565204,258.72346210011165 88.57819485856453,234.23222453997005 79.79615344305057,227.25 66.42180514143547,254.53963356496388 74.66708341438789,262.95260980911553 75.17402638233034,262.54334435828787" stroke="#4dd2ff" stroke-linecap="round" stroke-linejoin="round" stroke-width="0.5"><title>2021-10-26 5.0km</title></polyline></svg>