<?xml version="1.0" encoding="utf-8" ?>
<svg baseProfile="full" height="300mm" version="1.1" viewBox="0,0,200,300" width="200mm" xmlns="http://www.w3.org/2000/svg" xmlns:ev="http://www.w3.org/2001/xml-events" xmlns:xlink="http://www.w3.org/1999/xlink"><defs /><rect fill="#222222" height="300" width="200" x="0" y="0" /><text fill="#FFFFFF" style="font-size:12px; font-family:Arial; font-weight:bold;" x="10" y="20">Over 5km Runs</text><text fill="#FFFFFF" style="font-size:4px; font-family:Arial" x="10" y="280">ATHLETE</text><text fill="#FFFFFF" style="font-size:9px; font-family:Arial" x="10" y="290">Wenz</text><text fill="#FFFFFF" style="font-size:4px; font-family:Arial" x="120" y="280">STATISTICS</text><text fill="#FFFFFF" style="font-size:3px; font-family:Arial" x="120" y="285">Number: 7</text><text fill="#FFFFFF" style="font-size:3px; font-family:Arial" x="120" y="290">Weekly: 1.4</text><text fill="#FFFFFF" style="font-size:3px; font-family:Arial" x="141" y="285">Total: 44.1 km</text><text fill="#FFFFFF" style="font-size:3px; font-family:Arial" x="141" y="290">Avg: 6.3 km</text><text fill="#FFFFFF" style="font-size:3px; font-family:Arial" x="167" y="285">Min: 5.0 km</text><text fill="#FFFFFF" style="font-size:3px; font-family:Arial" x="167" y="290">Max: 10.4 km</text><polyline fill="none" points="40.4914675768232,54.933107438999286 43.01023890788201,54.76922944492253 43.63993174058851,54.51170641747012 43.90102389076492,53.996658655960346 43.73208191129379,54.79264060106652 45.60580204776488,53.85619068983215 48.907849829411134,55.23745167407469 50.32081911264686,55.214040607286734 50.7508532422944,55.82272681629547 53.17747440270614,54.324416585637664 54.54436860070564,56.31435566535947 54.29863481229404,59.381136448653706 55.250853242352605,61.60508732187736 56.38737201370532,63.384217479411745 59.1211604095879,66.00604402101453 64.35836177476449,72.7242054614835 66.33959044370567,78.73979159270675 67.0,78.55254067287024 66.76962457341142,77.40562222790322 65.14163822529372,73.47324477405346 64.17406143347034,69.35346901023877 64.34300341294147,68.93212010255229 65.69453924917616,68.39372761594859 65.17235494876513,65.18672955963848 63.75938566552941,59.54500796065258 62.131399317411706,56.12706872918352 58.61433447099989,51.84279791080189 54.23720136517659,48.237333265489724 50.90443686005892,46.5282104210346 47.84812286688248,45.66193311000825 42.85665529011749,45.24049857718637 38.3720136518823,45.68534609492053 38.341296928352676,45.42780300205777 38.1262798634707,44.67858349711605 34.025597269588616,42.07969102165225 30.27815699664643,41.26020840728597 23.228668941999786,41.728484892293636 21.569965870294254,42.17334581082832 20.41808873723494,41.84555371962779 19.726962457352784,42.00944988043193 15.93344709899975,45.029780739569105 13.03071672358783,46.43455913019716 13.0,47.1369419780749 15.764505119470414,45.755585021470324 20.295221843058243,42.00944988043193 22.2457337884116,42.26700052474189 26.377133105823305,41.82213996352948 30.370307167235296,41.82213996352948 32.720136518764775,42.243586853357556 34.3788395904121,43.41426466443954 33.42662116041174,45.40438996544981" stroke="#4dd2ff" stroke-linecap="round" stroke-linejoin="round" stroke-width="0.5"><title>2022-04-19 7.2km</title></polyline><polyline fill="none" points="140.0750305208494,46.60051011206815 140.1530656493269,46.16435668784834 143.97678694629576,45.92645441419154 147.82651995267952,44.4990347528219 153.75718971935567,47.11596291665046 156.12425528408494,46.95736219694663 156.64448947412893,47.98826459783595 160.5722576091066,45.45064900681609 161.4566557321814,46.16435668784834 163.06938172137598,49.098461164554465 162.5231358218589,53.97532215208048 163.84973300650017,57.26614403024723 165.77459950966295,60.319026134573505 170.2486135441577,64.56126446712005 179.35271187021863,76.33597186485713 182.7082223960315,86.8017891154741 183.0983980386518,86.8017891154741 183.80071419518208,86.48465128667885 183.6966673572315,84.38360030768672 180.1850865742308,75.89988410983642 179.06658306560712,70.86498301685788 181.7978125634836,68.84305747692997 178.88450109912083,56.11634502875677 175.91916621575365,48.50371378006821 170.0665315776132,41.56486193324963 162.2630187268369,34.90333475724037 159.583812648023,33.63444695752696 157.99709836835973,33.0 157.73698127333773,36.13256203744095 158.95953161997022,37.718650446709944 164.08383839204907,41.96137432150135 167.25726695137564,46.40225867500703 169.70236764464062,50.44654860456649 170.8468828627374,54.88724214119429 178.31224349007243,53.81672694144072 179.7688992221956,58.059104958258104 181.9278711109655,68.96199484651152 179.50878212717362,70.70640136967995 181.4336486304528,78.11995719908737 184.37297180423047,86.32608218134556 182.96833949105348,87.0 182.005906239443,85.6918044865306 179.32670016062912,77.88209341894253 177.71397417149274,74.750193594562 170.6648008961929,65.5127820478956 165.48847070516786,60.477616123098414 162.1849835983012,54.72864766305429 162.0029016318149,53.18234482538537 162.78325291688088,49.61390744880191 166.94512643729104,47.076312748598866 169.650344225578,50.4068991051754 171.0029531197506,54.96653933264315 177.71397417149274,53.34094054548768 175.29488518770086,47.94861460507673 168.34975875040982,40.01845601097739 162.1849835983012,35.02229257047293 158.02311007783283,33.03965299449919 157.86703982076142,36.60838989794138 160.2080936760758,38.908208393186214 158.02311007783283,40.732183326079394 155.31789228954585,40.01845601097739 154.38147074740846,40.65288041844906 152.92481501528528,42.437188136565965 153.28897894831607,45.88680400734302 146.76003986311844,46.95736219694663 145.32939584035194,48.38476408817223 141.2715691580088,50.72409487614641 138.2542108556372,54.57005305745406 135.62702819582773,53.142695875503705 139.4767612022697,43.86462270229822 142.85828343761386,43.904273515203386 146.26581738248933,42.5957924866816 147.7744965336169,44.4990347528219 144.49702113633975,46.48155927368498 139.3727143642609,46.64016037550755" stroke="#4dd2ff" stroke-linecap="round" stroke-linejoin="round" stroke-width="0.5"><title>2022-04-10 10.4km</title></polyline><polyline fill="none" points="17.660449721559417,106.70168037737312 17.94954978406895,106.26099770070869 21.18221411842387,106.46130812891352 25.912942412658595,104.6585070349247 27.516133667959366,105.8603762408311 31.80007095664041,107.30260973153054 34.19171692762757,107.06223820702871 34.55966246163007,108.18396951018076 38.76475427875994,105.78025185236766 41.156400249688886,109.02526384897646 40.70960924413521,114.11301592101518 41.971136789245065,117.35789239815495 44.8358555897139,121.76443028294307 48.9095382874948,125.4898818496149 57.71394927962683,136.8660991339566 60.94661361403996,146.9599460689351 62.33955027849879,147.0 57.556258336408064,132.1394397244876 57.52997651259648,130.89767164741352 60.31584984151414,129.49566614320793 56.97805821162183,114.43349989707349 54.29731217818335,108.94514073143364 48.59415640129009,101.9342433638667 40.42050918174209,95.00322837528074 36.16285371687263,93.0 36.031444597640075,96.88624470833747 42.33908232336398,101.9342433638667 45.466619362239726,107.42279538510775 41.39293666445883,109.54606332849653 38.9224452219205,105.94050059728033 34.87504434795119,108.304154632875 30.039188758237287,106.42124605939898 27.93664284964325,106.26099770070869 25.255896816321183,107.02217625817866 21.94438701029867,109.38581747961871" stroke="#4dd2ff" stroke-linecap="round" stroke-linejoin="round" stroke-width="0.5"><title>2022-04-09 5.2km</title></polyline><polyline fill="none" points="137.6307031561155,106.67175923801551 140.57645418075845,106.43120851536514 140.65535822609672,106.03029000022798 146.0997373521095,104.46670009939407 147.5989142128965,105.86992236887454 150.01863826898625,106.19065750288428 151.8334313108935,107.15285981386842 154.09534727636492,107.15285981386842 154.75288098718738,108.11505748795753 158.77698729775148,105.54918671952328 159.96054797724355,106.63166747111245 161.3019167475286,109.15743306900549 160.82849247561535,114.08859763114015 162.1172585489694,117.53633140791499 165.37862575490726,122.14658006071113 169.03451318730367,125.4338227881235 177.74025951925432,136.85857480330742 181.15943481581053,147.0 182.3692968438263,146.79958156580688 182.13258470786968,144.4747130282194 179.47614851599792,138.26156946033007 177.58245142863598,131.08615021970763 178.00327300361823,130.3645854137285 180.29149031743873,129.2822333160293 178.89751885039732,121.7857818314078 175.95176782569615,111.56289441068657 174.21587882895255,108.15514895705564 171.13862106209854,104.46670009939407 163.69533945509465,97.29006629937794 160.6969857335207,95.00471535159159 156.27835919643985,93.0 155.93644166679587,95.68631398568687 156.4098659385927,97.16978532272333 162.03835450363113,101.74041149757977 165.61533789086388,107.15285981386842 161.61753292864887,109.35788928772672 158.6980832524132,105.82983044092543 155.09479851683136,108.03487452554691 149.72932343609864,106.23074935848126 144.91617667261744,106.95240138148074" stroke="#4dd2ff" stroke-linecap="round" stroke-linejoin="round" stroke-width="0.5"><title>2022-04-07 5.0km</title></polyline><polyline fill="none" points="17.621009013731964,165.29950484380242 17.384472409030423,165.78025185049046 18.041518533136696,166.1808734710794 21.116494393791072,166.1808734710794 26.451708921405952,164.61844460146676 28.054901464143768,165.86037623891025 30.867058875213843,166.3010598003748 31.892050828842912,166.9821142990986 34.309980565391015,167.10230014576518 34.809335619735066,168.0637843128934 38.961867123958655,165.57994073843292 40.22339568217285,166.62155632466602 41.64261531014927,169.46594041780918 41.19582394580357,174.59374168945942 43.482344457588624,179.20063825884426 45.76886496943189,182.20507871627342 48.896404520084616,184.68871533800848 58.17389579216251,196.82604316702054 61.406562722695526,207.0 62.615527591027785,206.87983818251814 62.536682056088466,204.83707621620852 58.43671424180502,195.42407931647904 57.64825889287749,190.7775001307018 60.27644338924438,189.61583842714026 60.46041630394757,188.49422760662856 57.49056782305706,176.1560924458754 55.54571129579563,170.46747445993242 53.36431816389086,167.3827335065289 51.89253484591609,168.22403122366813 52.73355388472555,166.82186639089196 48.58102238050196,161.53361321442935 41.06441472104052,155.24361442816735 36.43881000741385,153.0 36.17599155777134,155.72438566603523 36.67534661211539,157.20675635595398 42.2470977443154,161.4935501554719 46.11052895395551,166.66161835398816 43.640035527409054,168.62464793735126 41.69517900014762,169.3858174772613 39.382376643363386,165.9805627612368 38.40994837973267,166.14081134516164 37.62149303080514,165.25944254103524 36.35996447264915,161.01279281958705 38.804176054138225,158.7291796541249 42.29966143431375,161.6538023432513 46.08424710901454,166.82186639089196 42.168252209434286,169.26563300621638 41.72146084503038,169.34575599484378 39.040712658839766,165.74018964411516 35.12471775925951,168.0637843128934 34.204853185568936,167.30260972928954 31.813205293903593,167.06223820483137 26.162608626822475,164.93894382863073 23.29788752575405,166.3411218941328 19.513301851053257,166.58149428736942" stroke="#4dd2ff" stroke-linecap="round" stroke-linejoin="round" stroke-width="0.5"><title>2022-04-03 6.2km</title></polyline><polyline fill="none" points="183.1967213114258,188.74685424634663 184.34426229516976,183.99868351928308 183.9836065574782,182.04940825715312 187.0,180.54995535917988 187.0,179.10047563762055 177.95081967220176,173.30247233289992 172.8032786885742,171.9029340568668 161.75409836065955,172.0528849629918 151.786885245936,173.60237236812827 147.42622950824443,173.25248895860568 139.62295081967022,179.55031507519016 133.29508196713869,182.69916837415076 133.0,184.04866473545553 138.5081967213191,181.69953672232805 147.5901639343938,173.70233896627906 149.42622950824443,173.10253877528885 157.32786885253154,173.2025055741542 162.04918032791466,172.1528521833534 173.36065573780797,173.15252217964735 179.0,175.55171378847444 180.213114754064,174.70200273871887 179.13114754098933,173.60237236812827 170.213114754064,171.75298306072364 154.77049180329777,172.85262160246202 151.75409836065955,173.7523222501768 147.75409836065955,173.25248895860568 137.85245901637245,180.99979217720102 133.0,182.94907565986796 133.45901639352087,184.04866473545553 139.393442622968,181.09975580398168 147.393442622968,173.95225528581068 149.81967213121243,173.05255536086042 151.2950819672551,173.30247233289992 156.63934426230844,172.00290133761882 171.42622950824443,171.25314575363882 180.24590163945686,173.8522887879517" stroke="#4dd2ff" stroke-linecap="round" stroke-linejoin="round" stroke-width="0.5"><title>2022-03-24 5.1km</title></polyline><polyline fill="none" points="45.04954956314759,265.7267806188611 43.558540833881125,265.3933166244533 41.431368380144704,267.0 40.477122793439776,266.5149653122353 40.0,265.30237177082745 39.383716391865164,259.8152641695342 38.668032201821916,258.11755509642535 37.81318719708361,257.5112257976725 32.863038215844426,257.38995964558853 30.338263434241526,254.9646161334822 54.77092647808604,222.3096327199455 43.06153792410623,213.0 25.22907352197217,249.38617808661365 36.22277788585052,260.60347974547767 36.89870184310712,260.0577924777026" stroke="#4dd2ff" stroke-linecap="round" stroke-linejoin="round" stroke-width="0.5"><title>2021-10-26 5.0km</title></polyline></svg>