<?xml version="1.0" encoding="utf-8" ?>
<svg baseProfile="full" height="300mm" version="1.1" viewBox="0,0,200,300" width="200mm" xmlns="http://www.w3.org/2000/svg" xmlns:ev="http://www.w3.org/2001/xml-events" xmlns:xlink="http://www.w3.org/1999/xlink"><defs /><rect fill="#222222" height="300" width="200" x="0" y="0" /><text fill="#FFFFFF" style="font-size:12px; font-family:Arial; font-weight:bold;" x="10" y="20">Over 5km Runs</text><text fill="#FFFFFF" style="font-size:4px; font-family:Arial" x="10" y="280">ATHLETE</text><text fill="#FFFFFF" style="font-size:9px; font-family:Arial" x="10" y="290">Wenz</text><text fill="#FFFFFF" style="font-size:4px; font-family:Arial" x="120" y="280">STATISTICS</text><text fill="#FFFFFF" style="font-size:3px; font-family:Arial" x="120" y="285">Number: 3</text><text fill="#FFFFFF" style="font-size:3px; font-family:Arial" x="120" y="290">Weekly: 1.0</text><text fill="#FFFFFF" style="font-size:3px; font-family:Arial" x="141" y="285">Total: 16.2 km</text><text fill="#FFFFFF" style="font-size:3px; font-family:Arial" x="141" y="290">Avg: 5.4 km</text><text fill="#FFFFFF" style="font-size:3px; font-family:Arial" x="167" y="285">Min: 5.0 km</text><text fill="#FFFFFF" style="font-size:3px; font-family:Arial" x="167" y="290">Max: 6.2 km</text><polyline fill="none" points="21.431513520656154,52.94925726571819 21.076708613545634,53.67037777576479 22.062277799705043,54.271310206648195 26.674741590744816,54.271310206648195 34.677563382079825,51.92766690222197 37.08235219621565,53.790564358379925 41.30058831279166,54.451589700591285 42.83807624329347,55.473171448655194 46.464970848173834,55.653450218669605 47.2140034296317,57.09567646938376 53.442800685879774,53.369911107671214 55.335093523259275,54.932334487035405 57.4639229652239,59.19891062672832 56.79373591870535,66.89061253421823 60.22351668647025,73.80095738827367 63.65329745411873,78.30761807443923 68.34460678021424,82.03307300704182 82.26084368827287,100.23906475055264 87.10984408401418,115.5 88.92329138657078,115.31975727379904 88.8050230841618,112.25561432432733 82.65507136273663,98.13611897474038 81.47238833934534,91.16625019608182 85.41466508386657,89.42375764073222 85.69062445592135,87.74134140997194 81.2358517346438,69.23413866883493 78.31856694375165,60.70121168991318 75.04647724586539,56.07410025980789 72.83880226896144,57.33604683552403 74.10033082705922,55.23279958634521 67.87153357081115,47.300419821665855 56.596622081589885,37.8654216422874 49.658215011120774,34.5 49.26398733665701,38.586578499060124 50.013019918231294,40.81013453396736 58.37064661656041,47.24032523322967 64.16579343099147,54.99242753098952 60.46005329117179,57.93697190604871 57.54276850016322,59.07872621589922 54.07356496504508,53.97084414187702 52.614922569599,54.21121701775701 51.432239546324126,52.88916381157469 49.539946708944626,46.519189229409676 53.20626408117823,43.09376948120189 58.449492151499726,47.480703514884226 64.12637066352181,55.23279958634521 58.25237831415143,58.89844950934639 57.58219126763288,59.01863399229478 53.56106898828875,53.61028446620912 47.68707663891837,57.09567646938376 46.30727977841161,55.953914593934314 42.71980794088449,55.59335730728344 34.24391294026282,52.408415742975194 29.946831288631074,54.51168284122832 24.26995277660899,54.87224143106141" stroke="#4dd2ff" stroke-linecap="round" stroke-linejoin="round" stroke-width="0.5"><title>2022-04-03 6.2km</title></polyline><polyline fill="none" points="179.79508196702227,88.12028136951267 181.51639344263822,80.99802527891006 180.97540983604267,78.07411238574423 185.5,75.82493303876254 185.5,73.65071345641627 171.92622950824443,64.95370849934989 164.2049180327449,62.85440108529292 147.63114754087292,63.07932744448772 132.68032786878757,65.40355855217786 126.13934426219203,64.8787334379158 114.43442622944713,74.32547261277796 104.94262295064982,79.04875256121159 104.5,81.0729971031833 112.76229508186225,77.54930508349207 126.38524590141606,65.55350844940403 129.13934426219203,64.653808162926 140.99180327856448,64.8037583612313 148.07377049175557,63.229278275044635 165.04098360647913,64.72878326947102 173.49999999988358,68.32757068271167 175.319672131096,67.05300410807831 173.69672131130937,65.40355855217786 160.3196721309796,62.629474591085454 137.15573770483024,64.27893240368576 132.63114754087292,65.62848337527248 126.63114754087292,64.8787334379158 111.77868852450047,76.49968826581608 104.5,79.42361348980921 105.18852459010668,81.0729971031833 114.09016393439379,76.64963370599435 126.09016393439379,65.92838292871602 129.72950819670223,64.57883304127608 131.94262295064982,64.95370849934989 139.95901639340445,63.00435200642096 162.13934426219203,61.87971863045823 175.36885245901067,65.77843318192754" stroke="#4dd2ff" stroke-linecap="round" stroke-linejoin="round" stroke-width="0.5"><title>2022-03-24 5.1km</title></polyline><polyline fill="none" points="62.574324344750494,263.5901709282916 60.33781125082169,263.0899749366945 57.147052570129745,265.5 55.71568419004325,264.7724479683675 54.999999999883585,262.95355765624845 54.075574587797746,254.72289625431586 53.002048302674666,252.17633264463802 51.71978079562541,251.26683869652334 44.29455732367933,251.08493946839008 40.50739515130408,247.4469242002233 77.15638971712906,198.4644490799401 59.59230688610114,184.5 32.84361028287094,239.07926712992776 49.33416682877578,255.90521961823106 50.34805276466068,255.08668871657574" stroke="#4dd2ff" stroke-linecap="round" stroke-linejoin="round" stroke-width="0.5"><title>2021-10-26 5.0km</title></polyline></svg>