<?xml version="1.0" encoding="utf-8" ?>
<svg baseProfile="full" height="300mm" version="1.1" viewBox="0,0,200,300" width="200mm" xmlns="http://www.w3.org/2000/svg" xmlns:ev="http://www.w3.org/2001/xml-events" xmlns:xlink="http://www.w3.org/1999/xlink"><defs /><rect fill="#222222" height="300" width="200" x="0" y="0" /><text fill="#FFFFFF" style="font-size:12px; font-family:Arial; font-weight:bold;" x="10" y="20">Over 5km Runs</text><text fill="#FFFFFF" style="font-size:4px; font-family:Arial" x="10" y="280">ATHLETE</text><text fill="#FFFFFF" style="font-size:9px; font-family:Arial" x="10" y="290">Wenz</text><text fill="#FFFFFF" style="font-size:4px; font-family:Arial" x="120" y="280">STATISTICS</text><text fill="#FFFFFF" style="font-size:3px; font-family:Arial" x="120" y="285">Number: 22</text><text fill="#FFFFFF" style="font-size:3px; font-family:Arial" x="120" y="290">Weekly: 2.4</text><text fill="#FFFFFF" style="font-size:3px; font-family:Arial" x="141" y="285">Total: 161.0 km</text><text fill="#FFFFFF" style="font-size:3px; font-family:Arial" x="141" y="290">Avg: 7.3 km</text><text fill="#FFFFFF" style="font-size:3px; font-family:Arial" x="167" y="285">Min: 5.0 km</text><text fill="#FFFFFF" style="font-size:3px; font-family:Arial" x="167" y="290">Max: 15.0 km</text><polyline fill="none" points="47.93736407131655,56.97026851636474 47.592866463644896,56.588357775937766 47.90604610700393,55.3710091021203 45.557198782102205,54.893614062311826 43.88168769032927,54.98909322365944 41.72074815136148,55.65744520577573 41.3449325793772,55.394878803766915 42.018268812505994,53.60463787827757 43.69377990427893,50.859549426422745 44.24184428009903,49.09311116275785 44.03827751200879,48.114397580429795 45.51022183557507,47.49374576750415 45.51022183557507,47.040190470164816 45.24401913880138,46.39566154432396 43.1143975641462,44.96336253001937 39.55980861239368,43.411685788305476 36.991735537187196,43.02973148363526 30.414963027404156,43.578790410661895 28.488908220955636,44.00848693220178 27.14223575469805,43.72202275708696 26.15571987821022,44.05623089433357 21.959112657699734,47.46987447916763 19.344062635907903,48.66343302137102 13.628534145245794,48.47246445997007 12.219225750304759,48.06665524838172 12.0,48.520206629138556 12.626359286659863,48.854401275988494 15.75815571990097,49.18859498326492 20.330578512395732,48.97375627924339 22.914310569816735,47.46987447916763 26.35928664635867,44.366566180367954 27.298825576377567,43.936870953162725 36.39669421489816,43.79363886563806 39.63810352329165,44.10397483724955 41.40756850800244,45.321438901628426 40.5306655067252,47.016319090820616 40.13919095258461,50.45374836404517 43.31796433229465,51.432442685480055 41.4702044367441,55.394878803766915 44.53936494124355,54.67878566890431 46.15224010439124,54.84587445294892 48.0,55.347139395693375 47.90604610700393,56.3257934301364" stroke="#4dd2ff" stroke-linecap="round" stroke-linejoin="round" stroke-width="0.5"><title>2022-05-22 5.0km</title></polyline><polyline fill="none" points="65.90331088326639,41.816927395739185 66.0021328185685,42.34415744090802 67.2868179770885,42.39436971022951 69.06561281200266,42.14330816199072 71.27263603307074,41.26458877338155 71.9973302250728,41.89224610970268 73.72671409230679,42.16841433953232 74.9784586057649,42.89649129427562 76.27961408678675,42.796067138784565 76.67490182787878,43.39861086189194 79.178390854795,41.816927395739185 80.00190698209917,42.46968807635858 80.80895278678508,44.051363285281695 80.38072440063115,47.13933817281213 81.45129536604509,49.54941192699334 83.24656052346108,52.110064393309585 85.47005406714743,53.99286363541614 91.30054824810941,61.52377712306043 93.4087495339918,68.0 94.18285469361581,67.84939397486596 94.06756243569544,67.1214622960324 91.41584050591337,60.695398840281996 91.00408244231949,58.0094072705906 91.1687856678036,57.557552552178095 92.60170372924767,56.98018025817146 92.70052566449158,56.277288649791444 90.18056631507352,46.18533781183214 88.99470309179742,43.77519921435305 84.43242374673719,38.40243137697689 80.3971947231912,35.26402558938571 75.95020763593493,33.104756662294676 70.72911538911285,32.100432827181066 67.23740700940834,32.0 63.20217798586236,32.45194708714553 61.999844440084416,32.92900057353836 62.13160702044843,33.90820992175577 61.48926444113022,36.69514839952899 60.63280766882235,37.52368569718237 59.15047863975633,40.8628864245984 61.999844440084416,39.95905142107222 64.42098185420036,40.18501078453846 66.05154378619045,40.83777998499136 65.68919669016032,41.79182114761352" stroke="#4dd2ff" stroke-linecap="round" stroke-linejoin="round" stroke-width="0.5"><title>2022-05-16 5.4km</title></polyline><polyline fill="none" points="126.32584456651239,46.89825639218907 127.14361790649127,46.96674838292529 128.92294890998164,46.39141352342995 129.34531536031864,46.76127220438502 130.28889998339582,46.939351594875916 130.76518555506482,47.227017320663435 131.5649858545803,47.199620637133194 131.8435679813847,47.56947493644839 133.29039773673867,46.73387533384084 134.10817107677576,47.96672361713718 133.92844067237456,49.74746513971695 134.64736228992115,51.26790765370606 135.59094691299833,52.55546310538921 136.66034281914472,53.445779792415124 139.77866533538327,57.417820392707654 140.92893992349855,60.9239813233944 141.33333333334303,60.89659013939672 141.31536029293784,60.499416735859995 140.03028790152166,57.08910856791044 139.67981361298007,55.623582412528776 139.74271925451467,55.33595208848783 140.58745215515955,54.925049522145855 140.61441171582555,54.66480995016536 139.30237976371427,49.3091330774223 138.49359294393798,47.72015574280522 136.36378765187692,45.19963302212636 133.48810118160327,42.89820485616656 131.8435679813847,42.0762474089388 130.22599434186122,41.65156551412656 127.31436179068987,41.377575791815616 124.69928440675722,41.61046712594543 124.51056748215342,41.08988539901475 123.27042769183754,40.185707694236044 122.04826094195596,39.500716605798516 120.28690297889989,39.07601867660924 116.15310367784696,39.33631772107765 115.15559993346687,39.59661577226143 113.7896488600818,39.51441649499611 111.06673323354335,41.61046712594543 109.58395739726257,42.268038365789835 105.99833582961583,42.14474424113723 105.51306373774423,41.898155323309766 105.44117157600704,42.02144989364024 105.33333333334303,42.28173769923524 105.85455150611233,42.418730882189266 109.44915959399077,42.59682160878947 110.99484107174794,41.99405111948363 114.16708270931849,39.52811638140702 115.93742719257716,39.651415235421155 117.24945914465934,39.445917021566856 120.0802130138618,39.47331681918513 121.15859544021077,39.61031564218865 122.39873523052665,40.185707694236044 122.79414212019765,39.81581336077579 120.92494591450668,39.199318347786175 119.81061740726,39.07601867660924 116.02729239477776,39.30891786839493 114.70627392246388,39.651415235421155 116.63837576971855,39.59661577226143 117.76169079716783,39.33631772107765 120.08919953406439,39.43221711865044 121.32035280414857,39.692514803889935 122.50657347313245,40.19940744587075 123.04576468633604,39.80211353213599 123.93543018808123,40.71999596833848 124.55550008322462,41.02138750762242 124.59144616412232,41.555669236495305 123.83657846567803,41.85705708369278 123.91745714764693,42.268038365789835 125.678815110703,43.10369267053102 127.31436179068987,42.98040005615985 127.37726743222447,44.8708623233033 126.97287402235088,45.117440495956544 126.95490098188748,45.54210081521887" stroke="#4dd2ff" stroke-linecap="round" stroke-linejoin="round" stroke-width="0.5"><title>2022-05-14 9.9km</title></polyline><polyline fill="none" points="167.494908350287,45.80085318131751 168.65580448065884,45.87536201423791 171.08757637473173,45.01850682265649 172.21181262723985,45.70771705603693 172.90835030545713,45.76359874245827 173.72708757634973,46.24790528116864 174.48472505089012,46.173396747457446 175.2179226069129,46.65770114681072 177.02647657837952,45.446935407759156 178.17515274946345,47.21651077354909 177.91853360488312,49.47034210117272 178.5784114052949,51.03495313668827 179.3971486761584,52.45053086032567 181.53564154784544,54.443478675537335 185.88594704680145,60.03095455563016 187.58452138490975,64.89178486029414 187.9511201629357,64.7614210873653 188.0,64.05372883816744 186.58248472501873,60.60830788110616 185.81262729119044,57.36763302456529 185.92260692460695,57.06963425122376 187.1079429734964,56.47363383307675 185.73930753563764,50.51341905681329 184.21181262723985,46.84397139638895 180.94908350304468,42.988100967493665 177.97963340117713,40.62234267650638 174.82688391036936,39.0948131425539 171.6863543788204,38.44281116970524 169.1079429735255,38.23789531741204 165.45417515269946,38.57321193085954 165.14867617105483,37.902577491848206 163.49898167006904,36.69169747449632 161.75152749489644,35.70435283843835 160.38289205703768,35.27587925469561 158.69653767815907,35.10821513971314 152.916496944963,35.55531877290923 152.0,35.890645083571144 159.05091649692622,35.57394804418436 161.34826883906499,36.132824442946 162.09368635434657,36.74758459250006 161.3604887983238,38.23789531741204 161.06720977593795,40.8458814741025 163.41344195519923,41.77728733243566 162.13034623215208,44.70184094453725 164.0977596740995,44.10576106506778 166.4928716904251,44.34791897802643 167.18940936861327,44.60870371587225 167.06720977596706,45.70771705603693" stroke="#4dd2ff" stroke-linecap="round" stroke-linejoin="round" stroke-width="0.5"><title>2022-05-12 7.0km</title></polyline><polyline fill="none" points="25.03969465647242,83.8015242961119 26.578625954221934,83.8015242961119 29.120610687037697,82.92183272743569 29.7251908397011,83.46640457330068 31.85496183205396,84.19947756855254 33.13282442747732,84.24136729840393 33.72366412213887,84.80687700471753 35.89465648855548,83.48734958749992 36.980152671720134,85.24671576781839 36.81526717558154,88.32553518177156 37.735877862607595,90.18953814724227 39.1099236641312,92.13728094078397 40.86870229008491,93.624242894708 43.54809160303557,96.89129612372199 43.82290076336358,97.68710128517705 45.141984732821584,99.0483328830378 45.993893129751086,100.53519633175165 47.230534351139795,104.76531164444168 48.0,104.5559040306398 45.719083969452186,97.6661591218799 45.59541984729003,96.66093033875222 47.01068702287739,95.78134720756498 45.51297709924984,89.20518118103064 44.50992366412538,86.50338772896066 43.74045801523607,85.03726896907756 40.64885496182251,81.30904558285692 38.16183206104324,79.06785840748489 35.35877862593043,77.20365668784507 33.50381679390557,76.32390947320528 31.497709923627554,75.80024689406855 26.867175572522683,75.2346883555656 22.44274809162016,75.65362090073177 21.2748091602989,76.09349826231482 19.392366412241245,75.98876572539302 12.796946564863902,76.80567672412872 12.687022900761804,77.66447369605885 12.288549618300749,77.62258132493298 12.054961832065601,77.93677369857323 12.0,79.13069608722435 12.2748091602989,79.46582973990735 14.349618320615264,79.3820464277378 17.935877862590132,79.96852820004278 19.46106870227959,80.65973462694092 19.035114503843943,82.60765536929102 21.384732824430102,81.79078980931081 23.033587786281714,81.93740717573382 24.70992366410792,82.44009372464643 24.435114503809018,83.48734958749992" stroke="#4dd2ff" stroke-linecap="round" stroke-linejoin="round" stroke-width="0.5"><title>2022-05-10 6.0km</title></polyline><polyline fill="none" points="79.52673152071657,87.0169318780354 80.42471106676385,87.00324374433694 82.18475097694318,86.37358662425686 84.1154070008779,87.23594164299357 84.91460879685474,87.23594164299357 85.15706327426597,87.55076694744639 86.48607300239382,86.71579230232601 86.71056788889109,86.82529775650619 87.39303234385443,87.86559079797371 87.16853745735716,89.54918932125292 87.69834538950818,90.84950118621055 88.52448657187051,92.1087269323616 89.98819323189673,93.46373735282032 92.457636983454,96.63900980676408 93.22091959754471,97.82969885129569 94.11889914359199,100.8815999502367 94.66666666665697,100.85422924703016 94.36135362100322,99.51305132977723 93.63399018874043,97.87075672332139 93.03234389290446,95.76308734901977 93.0143843019614,95.31143543439975 93.93930323436507,94.79134770499877 92.53845514255227,89.08380852176924 91.85599068761803,87.68764706109505 90.14982955015148,85.55228598801477 88.22815332165919,83.80014489178211 87.14159807097167,83.07463578442184 85.20196225156542,82.07533701304055 83.40600315952906,81.63728361821268 80.76594329421641,81.39087734651912 78.07200465619098,81.59621596812576 77.73975222415174,81.04864493596324 75.5397023363621,79.59756042750087 73.16005653940374,79.04997333980282 68.99343144588056,79.35114678244645 68.33790637727361,79.57018117762709 67.02685624011792,79.52911228214725 64.73700839775847,81.32243100187407 62.86921094200807,82.23960631038426 59.39403009891976,82.14378260171725 58.84626257585478,81.8973781608911 58.666666666656965,82.22591721736899 61.594079986651195,82.58183274170369 63.25534214678919,82.45863142438975 65.03334164791158,81.5140805936935 67.26033092205762,79.57018117762709 70.115905878396,79.58387080393732 70.8432693106879,79.31007775496255 71.75022865217761,79.50173300470124 74.20171281282092,79.57018117762709 75.81807599565946,80.21359064313947 76.32094454139587,79.78921486896797 77.18300490561523,80.65165318713116 77.83852997419308,80.92544084754627 77.82955017875065,81.56883752097565 77.47035836035502,81.80155397114868 78.33241872451617,82.47232047062789 80.26307474845089,82.67765583458095 82.69659931818023,82.34911895532423 83.59457886419841,82.74610081848368 84.86970981952618,83.85489998269986 85.50727529724827,83.60850172704886 87.68936559403664,85.37433621258242 89.04531470855,87.55076694744639 88.85673900388065,87.34544626160277 87.41997173023992,88.08459783649596 87.1236384800577,89.39862529259699 87.2673152074276,89.93244171187325 88.52448657187051,92.1087269323616 89.82655691358377,93.27212135253649 92.85274798367755,97.07696681551533 94.2984950527898,100.95002666020082 94.558909121115,100.8405438913178 94.58584850750049,100.41629650145114 93.19398021115921,97.02222234329383 92.897646960977,95.55779139512015 92.97846512013348,95.32512189999761 93.90338405253715,94.83240740681867 92.74499043816468,89.93244171187325 92.03558659681585,88.09828575306528 89.3955267315032,84.92261546566806 87.48283029845334,83.38948030770916 85.08522491061012,82.07533701304055 81.70882181753404,81.43194512030459 78.00914608791936,81.55514829330059 77.80261079236516,81.03495560381998 76.31196474595345,79.89873145073943 74.56090463121654,79.26900870278041 73.35761203954462,79.07735279869303 69.56813835533103,79.32376743352143 68.0415731270914,79.62493966644979 71.23838031096966,79.41959510653396 71.1934813336411,81.28136316209566 70.93306726528681,82.71872283312769 71.46287519743782,82.89667954106699 71.08572378809913,83.00619113042194 71.14858235634165,84.01916499170693 74.64172279037302,84.40244847330177 75.78215681383153,84.82679552847185" stroke="#4dd2ff" stroke-linecap="round" stroke-linejoin="round" stroke-width="0.5"><title>2022-05-08 15.0km</title></polyline><polyline fill="none" points="118.29223744291812,83.65338318065915 119.29223744294723,83.69514553486079 122.29223744291812,82.73460714533576 125.22374429224874,84.00836265664839 126.27853881279589,83.96660042829171 126.89497716893675,84.55127009976422 128.4703196347109,83.50721480888024 129.19634703200427,83.4236899328389 130.29223744291812,85.21945998507726 129.949771689513,87.45368873578263 130.66210045665503,89.37466947127541 132.48401826483314,92.04727929507499 134.15525114157936,93.36267922202387 138.89497716896585,99.64713813987328 140.7305936073244,104.90825358001894 141.33333333334303,104.76211507795233 141.2785388127959,104.05229657569726 139.74429223744664,100.29435320444463 138.7990867580229,96.41100240186643 140.22374429224874,95.61761181907059 138.67579908677726,88.6438657646213 137.86757990866317,86.28437874100928 136.85388127851184,84.55127009976422 134.07305936075863,81.25201960702543 130.70319634702173,78.28678111764748 126.42922374428599,75.96882454364822 119.7305936072953,75.09174641998106 106.16894977170159,76.5744217878455 106.0593607306073,77.36795766592695 105.3607305935875,77.66031146304158 105.33333333334303,78.47472127802757" stroke="#4dd2ff" stroke-linecap="round" stroke-linejoin="round" stroke-width="0.5"><title>2022-05-05 5.1km</title></polyline><polyline fill="none" points="167.35757575757452,85.97335269133328 168.9696969696961,86.0842127142605 171.0545454545354,85.32666656207584 173.76969696968445,86.37983878925297 174.76363636361202,86.37983878925297 175.09090909094084,86.78632309149543 176.98181818181183,85.67772531043738 177.13939393940382,85.78858568958094 178.07272727272357,87.39604617813166 177.81818181820563,89.18823913353117 178.41212121210992,91.1282024763932 179.52727272728225,92.84642157004419 181.61212121212156,94.82325761266111 183.69696969696088,97.33581036054238 185.95151515153702,100.75351096277154 187.1878787878668,104.7437467406271 188.0,104.7437467406271 186.01212121211574,98.00088637014414 185.96363636362366,97.07716839206114 186.88484848485678,96.81852569670446 187.0303030302748,96.52293315478164 185.57575757577433,90.03813286998775 184.0242424242315,86.89718213504239 181.52727272728225,83.81155554766883 177.8666666666686,80.76278094841837 174.76363636361202,79.19216066984518 170.47272727274685,78.41607957685483 165.57575757574523,78.65629585274291 165.1636363636353,77.91716684613493 162.5696969696728,76.0693183530675 160.58181818178855,75.40408381080488 158.52121212123893,75.25625325936562 153.381818181806,75.6627867043353 152.0242424242606,76.0693183530675 152.0,76.25410487230693 156.3515151515021,75.93996756871638 155.96363636365277,80.18996959969809 156.58181818181765,80.39322564772738 156.23030303028645,80.4117034479932 156.16969696970773,81.96382542519132 160.90909090905916,82.48119359950215 162.53333333329647,83.03551341543061 162.7030303030333,83.3126720710934 162.15757575756288,84.53216023866844 162.2424242424022,84.8277912999256 164.39999999999418,84.23652822755685 165.90303030301584,84.32891333306907 167.7333333333081,84.93865270305105 168.84848484848044,84.92017581178516 169.90303030304494,84.55063720780163" stroke="#4dd2ff" stroke-linecap="round" stroke-linejoin="round" stroke-width="0.5"><title>2022-05-04 7.1km</title></polyline><polyline fill="none" points="24.611639406590257,123.54098161141155 26.78889311524108,123.49923508376378 28.99353366298601,122.72692129913048 31.74591099275858,123.89582641914603 33.19741346515366,124.06281179186772 33.375427919323556,124.58463935293548 35.66222898437991,123.2278822457447 36.908330163540086,125.10646429446206 36.5796880943235,127.59031510802743 37.29174591100309,129.3644579262036 38.98972993536154,131.84820700663113 40.75618105742615,133.392693318252 45.09699505518074,138.92343582485046 45.75427919361391,140.02954901961493 47.17839482691488,144.80865755632112 48.0,144.7877885642447 47.7945987067651,143.5147721285175 46.06922784328344,139.65388925421576 45.48041080258554,137.1703266546465 45.439330543915275,136.37724374694517 46.68543172307545,135.85547537668754 46.86344617724535,135.52154224536935 44.63141879043542,126.73454127692094 43.426397869887296,124.35503554880415 42.08444275389775,122.62255413139792 37.00418410039856,118.09291809061688 33.402814758446766,116.15158507771412 29.21262837582617,115.23309230786981 24.734880182571942,115.19134244367888 21.229364777478622,115.85933825856773 19.16165842526243,115.83846345434722 12.780524914414855,116.61082841926691 12.739444655744592,117.40406213927781 12.492963103810325,117.71717904677644 12.095853936858475,117.57105794062227 12.0,118.23903846312896 12.095853936858475,119.3036235488762 12.65728413843317,119.9924669123211 14.903004944848362,121.3701399452475 18.559147965017473,122.39294599350978 19.325979459827067,124.16717751367105 19.35336629897938,125.98312429951329 22.626093571685487,126.8806495028839" stroke="#4dd2ff" stroke-linecap="round" stroke-linejoin="round" stroke-width="0.5"><title>2022-05-01 6.0km</title></polyline><polyline fill="none" points="66.85818513453705,122.35695284640678 66.75968992250273,122.08169806571823 68.9758321933914,122.30690656785737 70.48609211127041,121.75639617740671 70.58458732336294,122.45704534321703 70.56817145465175,121.75639617740671 71.88144094846211,121.25593007577118 72.89922480622772,121.98160526741412 74.40948472410673,122.15676761162467 75.4929320566007,122.78234540259291 76.97036023717374,122.70727623350831 77.31509347929386,123.38289712752885 79.62973096215865,121.93155883815052 80.0729594163713,122.03165167667612 81.41906064754585,124.10855993383302 81.12357501138467,127.48658979386528 81.96078431379283,129.3131900205044 83.17555859556887,131.31491294841544 85.91700866393512,133.86706305351981 91.43274053814821,140.7976383968853 93.96078431379283,147.9029545356534 94.66666666668607,147.7278283728374 94.58458732336294,146.72710272194672 91.66256269952282,138.64594867599226 91.8267213862855,137.47000952557573 93.3533971728757,136.59430295051425 91.28499772003852,127.78685468347248 89.49566803470952,123.55805750214495 86.0811673506978,119.40418802400382 81.41906064754585,115.52544995221979 76.52713178301929,113.14809920177504 73.37528499768814,112.37232230011432 68.87733698135708,112.09704546434659 63.90332877339097,112.59754834969499 63.345189238491,112.94789917333401 64.2480620155693,113.8237719231256 66.38212494301843,114.4493915467101 72.12767897860613,113.77372221754922 73.60510715917917,114.09904494447255 76.29730962158646,116.4263289132432 77.92248062015278,115.87579254426964 78.90743274055421,117.07695966814208 82.09211126313312,119.60437768041447 84.11126310995314,122.88243755774602 81.50113999092719,124.38381023779948 81.07432740536751,126.5607684964416 81.32056543551153,128.03707487233623 83.6516187870875,131.84035988953838 86.31098951213062,134.2673955829814 91.66256269952282,141.3230453603319 93.89512083906448,147.87793652748223 94.6338349293801,147.75284641118924 94.56817145470995,146.72710272194672 92.72959416324738,142.2237378590653 91.67897856817581,137.99543051717774 91.87596899230266,137.52004971541464 93.33698130416451,136.59430295051425 91.49840401281836,128.5875575191967 89.44642042869236,123.38289712752885 85.80209758324781,119.07887914634921 81.25490196084138,115.35027828683815 77.18376652989537,113.32327396280016 70.83082535339054,112.24719654102955 68.69676242588321,112.12207065632538 62.606475148233585,113.02297422166885 58.962152302847244,113.17312418270012 58.66666666668607,115.4754009300741 61.4409484724747,116.8517417143521" stroke="#4dd2ff" stroke-linecap="round" stroke-linejoin="round" stroke-width="0.5"><title>2022-04-30 10.1km</title></polyline><polyline fill="none" points="117.8681904762052,124.49287956467742 119.87047619049554,124.61830998872028 122.28419047617353,123.74029384677851 125.36990476190113,125.09912521444494 126.5904761904676,124.97369536967017 126.94704761906178,125.4754138422577 129.16876190475887,124.28382852202776 130.34819047621568,126.22798701779539 129.97790476190858,128.52748246028204 130.9241904761875,130.82692711698473 132.48761904760613,133.04270755788457 134.1470476190152,134.4014175238117 138.86476190475514,140.44223640857672 140.52419047616422,145.56307136953546 140.74361904760008,145.9601868239115 141.33333333334303,145.81388130640698 141.14133333330392,144.18360591818782 138.86476190475514,137.99668759406632 138.94704761906178,137.3487120431164 140.12647619043128,136.88885597990884 140.27733333333163,136.57531659051892 138.60419047615142,129.30093769478844 137.08190476187156,125.93532031813083 133.17333333331044,121.3779755599171 129.96419047616655,118.78563540072355 126.89219047615188,117.238562936589 122.22933333335095,116.23504418042285 119.1024761904846,116.1514171807139 115.83847619048902,116.46501808307221 114.49447619050625,116.90405775930412 113.01333333330695,116.820431297092 106.59504761907738,117.57306703903305 106.21104761905735,117.6775993506235 105.97790476190858,118.43022889572603 105.33333333334303,118.34660365945456 105.47047619047225,116.67408482652536 110.79161904763896,116.25595091981813 110.86019047623267,114.72974790830631 111.32647619050113,114.0398131760885 112.21790476189926,114.56249142342858 111.4361904762045,116.0677901138697 111.12076190474909,119.05741602703347 114.0281904762378,119.99818963943835 112.21790476189926,123.86572517758032 112.71161904765177,125.45450895414251 112.62933333334513,126.95965016755508 115.0841904762201,127.60769037779392 117.04533333334257,128.9037586975246 118.66361904761288,126.85512717521488 117.15504761907505,126.06074900444219 117.44304761907551,124.78555031911674 117.81333333335351,124.66012009650149" stroke="#4dd2ff" stroke-linecap="round" stroke-linejoin="round" stroke-width="0.5"><title>2022-04-28 7.1km</title></polyline><polyline fill="none" points="172.6919242273143,126.89606666108739 172.8175473579613,127.03284579491083 173.02392821534886,126.86871080136189 174.12761714856606,126.89606666108739 175.5184446659987,126.38998147779421 176.28115653042914,126.89606666108739 176.84646061816602,126.92342250979709 177.43868394815945,127.25169183779508 178.28215353938867,127.25169183779508 178.58723828513757,127.62099294087966 179.9780658026284,126.74560929664949 180.69591226323973,128.07235823681913 180.49850448654615,129.54953284071598 180.98305084745516,130.86255004256964 181.6380857428012,131.94303479974042 183.19940179464174,133.40644885537768 186.27716849453282,137.33152571275423 187.36291126621654,140.6820221665257 187.62313060820452,140.98287501040977 188.0,140.84612388245296 187.89232303091558,140.20338990413074 186.86939182455535,137.89223251792646 186.25922233302845,135.74511072854148 186.30408773678937,135.19806251303453 187.2013958125899,134.8151261484236 185.8644067796704,129.23495204470237 185.09272183451685,127.75777061914414 183.09172482552822,125.33676512296006 181.49451645064983,123.9142132857778 179.84346959122922,122.81992242555498 178.3898305085022,122.08126615659785 176.09272183451685,121.52042919526502 173.72382851448492,121.3973180247267 171.31904287141515,121.58882419391011 171.13060817550286,121.0963786709799 168.81555334001314,119.59166195816942 166.76969092726358,119.0581635052331 162.24725822533946,119.38647074002074 161.7357926221448,119.59166195816942 160.67696909274673,119.41382960482224 160.0847457627242,119.67373827236952 157.52741774677997,121.6572191238447 156.1635094716039,122.24541268639587 152.6729810568504,122.10862393903517 152.29611166499672,121.93079815681631 152.0,122.32748580295811 156.01994017948164,122.57370455926139 156.8364905284252,122.3685223241373 158.1286141575256,121.67089810157995 160.70388833500328,119.41382960482224 161.3678963110724,119.4959061332811 162.99202392823645,119.12656097627405 167.20039880360127,119.01712498958659 169.6949152542511,119.85156994717545 171.21136590230162,121.2194903855052 171.1665004985407,121.61618217409341 170.41276171489153,121.94447707963627 170.51146560319467,122.61474093210927 170.20638085744577,123.90053475853347 169.5782652044145,124.68020642812917 168.69890329014743,126.69089744535086 169.18344965105643,127.45685936447262 169.16550348955207,128.5647533306219 170.34097706878674,128.82462708407547 172.0817547357874,129.782048147561 173.07776669989107,128.3459115061014 174.89032901299652,127.30640323867192 176.07477567301248,126.88238873258524 174.8454636091774,125.87021440281751 173.94815553340595,126.2532010531213 172.70987038884778,126.29423520936325 172.17148554336745,127.70305958079189 172.40478564309888,128.01764745117543 173.14057826521457,128.37326677265082 174.25324027915485,127.63467072107596 174.02891326023382,127.15594678055277 172.76370887339,127.11491314339946" stroke="#4dd2ff" stroke-linecap="round" stroke-linejoin="round" stroke-width="0.5"><title>2022-04-27 10.1km</title></polyline><polyline fill="none" points="19.206543428299483,162.3982643367708 21.056378372537438,162.2472061368244 24.656949960335623,161.1646170444801 25.482769131835084,161.819206915221 27.150923858280294,162.14650056906248 28.191456014406867,162.85143784478714 29.628381372836884,162.90179035568872 30.07432372547919,163.40531435250887 32.48571570625063,161.86955984067026 33.3115348778083,162.34791162365582 34.2034195830347,164.1354205561729 33.95567383157322,167.4082581918192 34.81452576990705,169.472619533728 37.04423753306037,172.51874919392867 38.7949741766206,173.95367719562637 44.42706092639128,181.2539338012648 46.57419077237137,188.0 47.515624627878424,187.79863014439616 47.46607547759777,187.04349030587036 45.33546201500576,181.60634922852478 44.608741144125815,178.7366519457355 44.5096428435063,177.67937849726877 46.194313953456,176.74796354972932 44.14628240809543,167.7355372569291 42.230381930130534,163.657075592615 38.61329395894427,159.30153486117342 35.64034494146472,156.65792479344236 33.85657553101191,155.3235099714002 28.90166050195694,152.90642054763157 22.262074362952262,152.0 16.4978565457277,152.4532110929722 15.341709705651738,152.90642054763157 15.506873539939988,154.1653271037576 14.91228373645572,156.4061494990383 13.888267963717226,157.63984361105395 13.161547092837282,159.72954267704336 12.484375372179784,160.63590734641184 13.541423911694437,160.66108404922124" stroke="#4dd2ff" stroke-linecap="round" stroke-linejoin="round" stroke-width="0.5"><title>2022-04-25 5.0km</title></polyline><polyline fill="none" points="79.34100383523037,167.0155942506717 80.91679172919248,166.89206207202733 82.19543104886543,166.32930154434143 82.74470568617107,166.74107799495687 83.58212439552881,166.87833626063002 84.07737201932468,167.16657772140388 84.86976821743883,167.15285196513287 85.23895280974102,167.50972073285084 86.67066866764799,166.64499704501577 87.40903785225237,167.83913640333412 87.21994330495363,169.45874036074383 87.68817742203828,170.73518084804164 88.63365015838644,172.1762946889612 89.96631649154006,173.35661291827637 93.02784725694801,177.29543441697388 94.27947306985152,181.01446175165256 94.66666666665697,180.87723186545918 94.63965315988753,180.34203267742487 94.08137402034481,178.58545205476912 93.52309488074388,177.59735562047354 93.03685175918508,175.84070447439444 92.9918292479706,175.2917417343997 93.95531098882202,174.82511993938897 92.7487076871912,169.71952046210936 91.80323495078483,167.6607031122112 90.68667667164118,166.2332200156161 89.33600133401342,164.77825464514171 87.2739703184634,163.10363352557033 85.22094380520866,162.06040618685074 82.15040853756364,161.38779064483242 80.15140903784777,161.3191560337109 78.08037352008978,161.60742093732188 77.81924295480712,160.97598194430975 75.46906786726322,159.52090466498703 73.25396031350829,158.98553824835108 69.47206936799921,159.21890361217447 68.43655160913477,159.52090466498703 67.04985826244229,159.4522681792514 64.99683174918755,161.11325178680636 63.39403034851421,162.0192258336465 62.295481073873816,162.23885409728973 59.3420043355145,162.07413296571758 58.83775220942334,161.86823099309186 58.666666666656965,162.21140060292237 61.79122894781176,162.52711512234237 63.222944805718726,162.40357483191838 64.62764715691446,161.68978211508147 67.05886276470846,159.61699562923604 67.46406536601717,159.4522681792514 68.57161914292374,159.56208652336863 70.98482574618538,159.30126766801186 73.3710188427649,159.3561769834232 74.60463565113605,159.54835923999417 75.73019843254588,160.0837212483384 76.09938302484807,159.713086458396 74.24445556110004,159.10908471670336 71.75921293979627,159.06790258538967 68.8687677171838,159.32872233123635 67.96831749207922,159.57581380396368 69.86826746707084,159.4934500789568 71.07487076870166,159.23263096172377 71.7862264465366,159.41108625473862 73.47907286975533,159.32872233123635 75.05486076368834,159.79544991874718 75.55010838754242,160.28962859659805 75.03685175921419,161.44269828412507 74.82074370520422,163.19971945336874 76.63064865767956,163.77623218375084 75.69418042356847,166.05478253253023 76.59463064864394,165.75281034617728 78.18842754708021,165.79398845012474 79.35000833749655,166.0959604545642 79.16091379019781,166.74107799495687" stroke="#4dd2ff" stroke-linecap="round" stroke-linejoin="round" stroke-width="0.5"><title>2022-04-22 10.1km</title></polyline><polyline fill="none" points="124.0398179750191,166.63766633407795 125.47326507396065,166.6220589060904 125.57565415246063,166.32551717847673 127.09101251422544,165.90411382995808 127.75654152448988,166.3723396317073 128.70875995454844,166.5128068222839 129.36405005693086,166.90299213070102 130.13196814563707,166.84056261299702 130.50056882825447,167.2775681841449 132.20022753128433,166.3099096878068 133.09101251422544,167.73017850703764 132.9067121729604,169.5249865990554 133.4288964732841,170.97640979164862 134.55517633678392,172.58386836580758 135.94766780437203,173.83235694449831 139.48009101251955,178.3735650309536 140.84186575654894,182.43077742186142 141.33333333334303,182.43077742186142 141.09783845284255,181.01077717107546 140.21729237772524,179.07579002079729 139.49032992040156,176.57896123687533 139.46985210469575,176.06398032409925 140.37087599546066,175.65823538391123 140.534698521049,175.3929394702718 139.33674630263704,170.24289823212166 138.69169510813663,168.47932083655905 138.10807736069546,167.40242646750994 135.88623435725458,164.7023213615903 132.83503981801914,162.12698921345873 130.49032992040156,160.95635548262362 128.00227531287237,160.39444502918195 125.10466439140146,160.1915319226173 122.43230944257812,160.4724883906456 122.08418657569564,159.77009531631484 119.50398179751937,158.1311534573033 117.01592719001928,157.56922257813858 109.71558589307824,158.1311534573033 107.27872582481359,160.17592320018593 105.36405005690176,161.06561537686503 105.33333333334303,161.51826187383267 107.18657565416652,160.61296624381066 110.22753128557815,158.00628027968196 113.06370875998982,158.11554432105186 114.2821387941076,157.8033609381746 115.32650739481323,158.00628027968196 117.59954493746045,157.95945278636646 118.79749715590151,158.3340719429616 119.55517633678392,158.88038830970618 118.98179749716655,160.2851841914744 118.79749715590151,162.42354695958784 120.83503981799004,163.03226720929524 119.73947667804896,165.57635409049544 121.43913538113702,165.06130027891777 124.70534698522533,165.7324303292553 126.43572241184302,165.1705544029246" stroke="#4dd2ff" stroke-linecap="round" stroke-linejoin="round" stroke-width="0.5"><title>2022-04-21 8.1km</title></polyline><polyline fill="none" points="170.32764505120576,166.62207162599952 172.0068259385589,166.51281962994835 172.42662116041174,166.3411376116419 172.60068259385298,165.99777243730205 172.4880546075001,166.5284270673801 173.7372013651766,165.90412712655234 175.93856655291165,166.8249677827116 176.8805460750882,166.8093604048554 177.16723549488233,167.21515121086122 178.78498293514713,166.2162777237536 179.69624573379406,167.54290377690631 179.53242320817662,169.5874242991049 180.16723549488233,171.07005821458006 180.92491467576474,172.25614498626965 182.7474402730295,174.00402934734302 186.2389078498527,178.482803640989 187.55972696244135,182.49319439513783 188.0,182.36836044857773 187.84641638226458,181.6037481519379 186.7610921501764,178.98216318269988 186.1160409556178,176.23564600682585 186.22866894197068,175.95474673502758 187.1296928327938,175.59581841062754 186.78156996585312,173.45781970642565 185.83959044367657,169.6966719737684 184.7542662115884,167.41804581945325 182.40955631399993,164.56186527386308 179.4914675767941,162.15822217699315 177.2696245733532,161.01880694735155 175.2320819112647,160.44128874000307 171.90443686005892,160.1603323847885 168.91467576791183,160.45689739660884 168.894197952206,160.28520200137427 168.7508532423235,159.78572233140585 166.0170648464118,158.05312734776817 163.51877133108792,157.5068056048549 158.81911262799986,157.81898992819333 157.71331058017677,158.11556387388555 156.94539249147056,157.89703581308277 156.4846416382352,158.00629992028553 153.95563139932347,160.0198538263794 152.02047781570582,160.95637275346235 152.0,161.42462798538327 153.84300341297057,160.50372334764688 156.8634812286764,158.00629992028553 158.16382252561743,158.17800034982793 160.91808873720584,157.88142664235056 163.58020477814716,157.88142664235056 165.14675767917652,158.1623912355717 166.2525597269414,158.94284310962394 165.6177474402939,160.26959331029502" stroke="#4dd2ff" stroke-linecap="round" stroke-linejoin="round" stroke-width="0.5"><title>2022-04-19 7.2km</title></polyline><polyline fill="none" points="16.716687013860792,201.06700674138847 16.76871043286519,200.77623779190617 19.317857964138966,200.61763627613254 21.884346635080874,199.66602316856006 25.83812647953164,201.41064194443607 27.41617018938996,201.30490813130746 27.76299298275262,201.99217639856943 30.38150507269893,200.300432671218 30.971103821415454,200.77623779190617 32.046254480897915,202.732307443046 31.68209054786712,205.98354810139426 32.56648867094191,208.17742935349816 33.849733006441966,210.21268408972537 36.83240902941907,213.0408429780873 42.90180791344028,220.89064790991688 45.13881493068766,227.8678594103185 45.398932025709655,227.8678594103185 45.86714279680746,227.65643419112894 45.797778238134924,226.25573353846266 43.45672438282054,220.59992273990065 42.71105537703261,217.24332201124344 44.531875042303,215.8953716512915 42.589667399355676,207.41089668584755 40.6127774771885,202.33580918671942 36.71102105174214,197.70990795551188 31.508679151185788,193.26888983816752 29.72254176530987,192.422964638361 28.66473224555375,192.0 28.49132084887242,194.08837469162972 29.306354413274676,195.14576696448057 32.722558928013314,197.97424954766757 34.83817796752555,200.93483911667136 36.46824509638827,203.63103240304918 37.23125524178613,206.5914947607962 42.208162326714955,205.87781796096533 43.17926614813041,208.7060699721842 44.61858074058546,215.97466323101253 43.00585475139087,217.13760091312724 44.289099086949136,222.07997146606067 46.24864786944818,227.55072145423765 45.31222632736899,228.0 44.670604159648065,227.12786965769192 42.88446677371394,221.9213956126332 41.809316114347894,219.83346239638195 37.1098672641092,213.67518803193525 33.6589804700925,210.31841074873955 31.45665573218139,206.4857651087077 31.335267754504457,205.45489655026176 31.85550194454845,203.0759382992037 34.630084291507956,201.3842084990756 36.43356281705201,203.60459940345754 37.335302079853136,206.6443595551027 41.809316114347894,205.5606270303324 40.19659012515331,201.96574307006085 35.566505833587144,196.67897067398735 31.45665573218139,193.34819504699408 28.682073385221884,192.0264353296734 28.578026547154877,194.40559326530638 30.138729117345065,195.93880559546233 28.682073385221884,197.15478888406506 26.878594859677833,196.67897067398735 26.254313831566833,197.10192027897574 25.283210010209586,198.29145875771792 25.525985965505242,200.59120267156686 21.173359908687416,201.30490813130746 20.219597226881888,202.25650939211482 17.514379438653123,203.81606325077155 15.502807237033267,206.38003537164332 13.751352130551822,205.42846391700732 16.31784080149373,199.24308180153457 18.572188958409242,199.26951567680953 20.843878254992887,198.39719499112834 21.849664355744608,199.66602316856006 19.664680757559836,200.98770618245908 16.248476242821198,201.0934402503408" stroke="#4dd2ff" stroke-linecap="round" stroke-linejoin="round" stroke-width="0.5"><title>2022-04-10 10.4km</title></polyline><polyline fill="none" points="61.77363314770628,201.13445358492027 61.96636652271263,200.84066513380094 64.12147607892985,200.97420541927568 67.2752949417918,199.77233802328556 68.34408911195351,200.5735841605565 71.20004730444634,201.53507315435127 72.79447795177111,201.37482547135005 73.03977497440064,202.12264634012536 75.84316951915389,200.52016790158086 77.43760016647866,202.68350923265098 77.13973949610954,206.0753439473483 77.98075785947731,208.2385949321033 79.8905703931232,211.17628685529053 82.60635885834927,213.65992123308388 88.47596618637908,221.24406608931167 90.63107574271271,227.9732973792925 91.55970018566586,228.0 88.37083889095811,218.0929598163275 88.35331767506432,217.26511443161144 90.21056656097062,216.33044409547438 87.98537214112002,206.28899993138475 86.1982081187889,202.63009382095333 82.39610426750733,197.95616224257537 76.9470061211614,193.3354855835205 74.10856914456235,192.0 74.02096306509338,194.59082980555831 78.22605488222325,197.95616224257537 80.31107957486529,201.61519692341244 77.59529110963922,203.03070888566435 75.94829681463307,200.62700039818446 73.25002956530079,202.20276975525485 70.02612583880546,200.94749737293023 68.62442856642883,200.84066513380094 66.83726454421412,201.3481175054476 64.62959134019911,202.92387831975066" stroke="#4dd2ff" stroke-linecap="round" stroke-linejoin="round" stroke-width="0.5"><title>2022-04-09 5.2km</title></polyline><polyline fill="none" points="108.42046877078246,201.11450615867943 110.38430278724991,200.95413901024585 110.43690548412269,200.6868600001544 114.06649156817002,199.64446673293423 115.06594280869467,200.57994824591879 116.67909217940178,200.79377166858467 117.88895420735935,201.4352398759147 119.39689818432089,201.4352398759147 119.83525399153586,202.0767049919741 122.51799153187312,200.36612447968218 123.30703198490664,201.08777831407497 124.20127783174394,202.7716220460061 123.88566165050725,206.0590650874292 124.74483903270448,208.35755427194817 126.91908383666305,211.43105337380257 129.35634212492732,213.6225485254181 135.16017301293323,221.2390498688692 137.43962321063736,228.0 138.2461978959618,227.86638771054277 138.08838980534347,226.31647535214142 136.31743234407622,222.1743796402152 135.05496761912946,217.390766813136 135.3355153357843,216.90972360914748 136.86099354503676,216.18815554401954 135.93167923367582,211.19052122093854 133.96784521720838,204.3752629404553 132.81058588606538,202.10343263803952 130.7590807081433,199.64446673293423 125.79689297010191,194.86004419958772 123.79799048905261,193.3364769010659 120.85223946440965,192.0 120.6242944446276,193.79087599046034 120.93991062580608,194.77985688181798 124.6922363358317,197.82694099839136 127.0768919272814,201.4352398759147 124.41168861917686,202.905259525156 122.46538883500034,200.5532202939503 120.06319901131792,202.02324968369794 116.48621562414337,200.82049957232084 113.2774511151365,201.3016009209823" stroke="#4dd2ff" stroke-linecap="round" stroke-linejoin="round" stroke-width="0.5"><title>2022-04-07 5.0km</title></polyline><polyline fill="none" points="155.0806726758019,200.19966989586828 154.92298160598148,200.5201679003294 155.36101235542446,200.78724898072687 157.41099626250798,200.78724898072687 160.96780594758457,199.74562973431603 162.03660097607644,200.57358415927592 163.9113725834759,200.86737320024986 164.59470055252314,201.32140953273483 166.20665371022187,201.4015334305077 166.53955707978457,202.04252287527197 169.30791141593363,200.3866271589577 170.1489304547431,201.0810375497822 171.09507687343284,202.9772936118752 170.79721596383024,206.3958277929778 172.32156297168694,209.46709217256284 173.84590997960186,211.47005247752531 175.93093634670367,213.1258102253487 182.11593052808894,221.2173621113543 184.27104181511095,228.0 185.07701839396032,227.91989212168846 185.02445470407838,226.55805081081053 182.2911428278312,220.2827195443242 181.7655059285462,217.18500008713454 183.51762892614352,216.41055895143654 183.64027753594564,215.6628184044239 181.6603785486659,207.43739496391936 180.3638075304916,203.64498297329555 178.9095454426133,201.58848900435987 177.92835656390525,202.14935414911452 178.48903592309216,201.21457759393525 175.7206815870013,197.68907547628623 170.7096098139882,193.4957429521237 167.6258733382565,192.0 167.45066103851423,193.81625711068773 167.78356440807693,194.80450423730508 171.49806516285753,197.6623667703243 174.07368596928427,201.1077455693303 172.42669035156723,202.41643195823417 171.13011933339294,202.92387831817177 169.5882510955562,200.65370850749605 168.93996558646904,200.76054089677928 168.41432868718402,200.17296169402107 167.57330964837456,197.34186187972955 169.20278403605334,195.81945310275478 171.53310762281762,197.76920156217238 174.05616473930422,201.21457759393525 171.44550147291739,202.84375533747516 171.147640563373,202.89717066323647 169.36047510587377,200.49345976275072 166.74981183948694,202.04252287527197 166.1365687903599,201.5350731528597 164.542136862583,201.37482546989486 160.77507241786225,199.95929588575382 158.8652583505027,200.89408126276248 156.3422012340161,201.05432952491537" stroke="#4dd2ff" stroke-linecap="round" stroke-linejoin="round" stroke-width="0.5"><title>2022-04-03 6.2km</title></polyline><polyline fill="none" points="45.464480874245055,255.8312361642311 46.22950819670223,252.66578901286994 45.98907103826059,251.36627217144996 48.0,250.36663690612477 48.0,249.40031709175673 41.96721311478177,245.53498155527632 38.53551912569674,244.6019560379209 31.169398907048162,244.70192330867576 24.524590163957328,245.73491491210007 21.617486338771414,245.50165930575167 16.415300546446815,249.70021005012677 12.19672131142579,251.79944558277202 12.0,252.69910982364672 15.67213114752667,251.13302448156173 21.72677595622372,245.80155931085756 22.950819672085345,245.40169251686893 28.218579234962817,245.46833704944584 31.36612021853216,244.76856812225014 38.907103825127706,245.43501478644612 42.66666666662786,247.03447585899266 43.47540983604267,246.46800182582228 42.75409836060135,245.73491491210007 36.8087431693566,244.50198870715394 26.51366120215971,245.23508106831287 24.502732240362093,245.83488150013727 21.83606557373423,245.50165930575167 15.234972677601036,250.66652811814856 12.0,251.96605043992167 12.306010928936303,252.69910982364672 16.262295081920456,250.7331705359975 21.595628415292595,245.96817019055015 23.213114754122216,245.36837024058332 24.19672131142579,245.53498155527632 27.759562841500156,244.66860089176043 37.617486338771414,244.1687638357689 43.4972677595797,245.90152585864416" stroke="#4dd2ff" stroke-linecap="round" stroke-linejoin="round" stroke-width="0.5"><title>2022-03-24 5.1km</title></polyline><polyline fill="none" points="80.03303304206929,267.1511870792456 79.03902722257772,266.9288777496404 77.620912253391,268.0 76.98474852892105,267.67664354149747 76.66666666662786,266.8682478472183 76.2558109278907,263.2101761130325 75.77868813450914,262.078370064286 75.2087914647127,261.6741505317841 71.90869214385748,261.5933064303972 70.22550895612221,259.9764107556548 86.51395098536159,238.20642181330186 78.70769194938475,232.0 66.81938234795234,256.2574520577473 74.14851859054761,263.7356531636615 74.59913456204231,263.371861651809" stroke="#4dd2ff" stroke-linecap="round" stroke-linejoin="round" stroke-width="0.5"><title>2021-10-26 5.0km</title></polyline></svg>