<?xml version="1.0" encoding="utf-8" ?>
<svg baseProfile="full" height="300mm" version="1.1" viewBox="0,0,200,300" width="200mm" xmlns="http://www.w3.org/2000/svg" xmlns:ev="http://www.w3.org/2001/xml-events" xmlns:xlink="http://www.w3.org/1999/xlink"><defs /><rect fill="#222222" height="300" width="200" x="0" y="0" /><text fill="#FFFFFF" style="font-size:12px; font-family:Arial; font-weight:bold;" x="10" y="20">Over 5km Runs</text><text fill="#FFFFFF" style="font-size:4px; font-family:Arial" x="10" y="280">ATHLETE</text><text fill="#FFFFFF" style="font-size:9px; font-family:Arial" x="10" y="290">Wenz</text><text fill="#FFFFFF" style="font-size:4px; font-family:Arial" x="120" y="280">STATISTICS</text><text fill="#FFFFFF" style="font-size:3px; font-family:Arial" x="120" y="285">Number: 16</text><text fill="#FFFFFF" style="font-size:3px; font-family:Arial" x="120" y="290">Weekly: 2.3</text><text fill="#FFFFFF" style="font-size:3px; font-family:Arial" x="141" y="285">Total: 112.7 km</text><text fill="#FFFFFF" style="font-size:3px; font-family:Arial" x="141" y="290">Avg: 7.0 km</text><text fill="#FFFFFF" style="font-size:3px; font-family:Arial" x="167" y="285">Min: 5.0 km</text><text fill="#FFFFFF" style="font-size:3px; font-family:Arial" x="167" y="290">Max: 10.4 km</text><polyline fill="none" points="26.828767123282887,45.36005607824336 27.953767123282887,45.4070387267202 31.32876712322468,44.326433038506366 34.626712328754365,45.75940798873489 35.81335616437718,45.71242548182636 36.50684931501746,46.37017886223475 38.27910958905704,45.19561665999208 39.09589041094296,45.10165117444558 40.32876712322468,47.12189248321374 39.94349315064028,49.635399827755464 40.744863013678696,51.796503155186656 42.79452054790454,54.80318920695572 44.674657534225844,56.28301412478322 50.00684931507567,63.35303040736471 52.07191780820722,69.27178527751676 52.75,69.10737946269364 52.68835616437718,68.30883364766487 50.962328767054714,64.08114735500567 49.89897260273574,59.712377702097 51.501712328754365,58.8198132964535 49.7602739725844,50.97434898519714 48.85102739720605,48.31992608363362 47.71061643830035,46.37017886223475 44.58219178079162,42.65852205790725 40.7910958903376,39.322628757348866 35.98287671228172,36.71492761160334 28.44691780814901,35.728214722483244 13.190068493131548,37.39622451132891 13.066780821885914,38.28895237416873 12.280821917753201,38.6178503959236 12.25,39.53406143777829" stroke="#4dd2ff" stroke-linecap="round" stroke-linejoin="round" stroke-width="0.5"><title>2022-05-05 5.1km</title></polyline><polyline fill="none" points="74.52727272725315,47.970021777749935 76.34090909091174,48.09473930354579 78.68636363634141,47.24249988234078 81.74090909090592,48.42731863791414 82.8590909090708,48.42731863791414 83.2272727272939,48.88461347793054 85.35454545455286,47.63744097424933 85.5318181818293,47.762158900783106 86.58181818181765,49.57055195040448 86.29545454547042,51.58676902522711 86.96363636362366,53.769227785945986 88.21818181819981,55.70222426630062 90.56363636362948,57.926164814249205 92.90909090908826,60.752786655612 95.4454545454646,64.59769983311708 96.8363636363647,69.08671508320549 97.75,69.08671508320549 95.51363636361202,61.50099716641125 95.45909090907662,60.4618144410706 96.49545454545296,60.1708414087916 96.65909090905916,59.838299799128436 95.02272727276431,52.54289947873622 93.27727272725315,49.009329901920864 90.46818181819981,45.53799999113107 86.35000000000582,42.10812856697157 82.8590909090708,40.34118075357401 78.0318181818293,39.46808952396532 72.5227272727061,39.73833283433487 72.05909090908244,38.90681270190544 69.1409090909001,36.82798314720276 66.90454545451212,36.07959428715549 64.5863636363938,35.91328491679451 58.8045454545354,36.370635042381764 57.27727272728225,36.82798314720276 57.25,37.03586798135075 62.14545454544714,36.68246351480775 61.709090909105726,41.463715799669444 62.40454545454122,41.692378853702394 62.00909090906498,41.713166378991446 61.94090909091756,43.45930360334023 67.2727272727061,44.041342799442646 69.09999999997672,44.66495259236399 69.29090909092338,44.97675607998099 68.67727272724733,46.34868026850745 68.7727272727061,46.681265212413564 71.19999999998254,46.01609425600327 72.8909090909001,46.12002749970998 74.94999999998254,46.80598429092788 76.20454545455868,46.78519778826012 77.3909090909292,46.36946685877774" stroke="#4dd2ff" stroke-linecap="round" stroke-linejoin="round" stroke-width="0.5"><title>2022-05-04 7.1km</title></polyline><polyline fill="none" points="116.43809433240676,45.23360431284527 118.88750475464622,45.18663946923334 121.36772537085926,44.31778646152088 124.46414986689342,45.632804721542925 126.09709014830878,45.82066326585482 126.29735640925355,46.4077192720506 128.8700076074456,44.88136752646096 130.2718714340008,46.99477233127254 129.90214910614304,49.78910449653631 130.70321414986392,51.785015166977246 132.61344617727445,54.57923288246093 134.60070368961897,56.31677998304076 139.48411943705287,62.538865302958584 140.22356409282656,63.78324264706316 141.82569418032654,69.15973975085944 142.75,69.13626213477983 142.51892354513984,67.70411864458583 140.5778813236975,63.36062541099818 139.915462152916,60.566617486481846 139.8692468618974,59.674399215313315 141.2711106884526,59.08740979877621 141.47137694939738,58.711735026037786 138.96034613926895,48.82635893653787 137.60469760361593,46.14941499240376 136.09499809815316,44.20037339782721 130.37970711296657,39.104532851946715 126.32816660328535,36.92053321243293 121.61420692282263,35.88722884635354 116.57674020540435,35.840260249140556 112.63303537468892,36.591755540895974 110.30686572840204,36.56827138614608 103.12809052871307,37.43718197167618 103.08187523775268,38.329569906694815 102.80458349181572,38.68182642762258 102.35783567896578,38.51744018319732 102.25,39.26891827102372 102.35783567896578,40.46657649248664 102.9894446557737,41.24152527636761 105.51588056294713,42.791407438409806 109.62904146063374,43.942064242699416 110.49172689236002,45.93807470288448 110.52253708633361,47.98101483695791 114.20435526815709,48.99073069074802" stroke="#4dd2ff" stroke-linecap="round" stroke-linejoin="round" stroke-width="0.5"><title>2022-05-01 6.0km</title></polyline><polyline fill="none" points="156.46545827633236,43.90157195220672 156.3546511627501,43.591910323935736 158.84781121753622,43.8452698888359 160.54685362515738,43.225945699581644 160.65766073873965,44.01417601112189 160.63919288641773,43.225945699581644 162.11662106699077,42.66292133524257 163.26162790699163,43.47930592584453 164.9606703146128,43.67636356307776 166.1795485636103,44.380138577915204 167.84165526676225,44.29568576269958 168.22948016418377,45.055759268470865 170.83344733243575,43.423003692922066 171.33207934338134,43.53560813626973 172.8464432284818,45.87212992556306 172.5140218877932,49.67241351809935 173.45588235300966,51.72733877306746 174.82250342000043,53.97927706696646 177.9066347469343,56.85044593521161 184.11183310538763,64.6473431964987 186.95588235300966,72.64082385261281 187.75,72.44380691944389 187.65766073873965,71.31799056219461 184.37038303696318,62.22669226049766 184.55506155954208,60.90376071627543 186.27257181948517,59.91859081933217 183.94562243501423,50.010211518907454 181.9326265390264,45.252814689913066 178.091313269455,40.57971152700338 172.8464432284818,36.21613119624817 167.34302325581666,33.54161160199874 163.79719562240643,32.66886258763407 158.73700410401216,32.35917614738719 153.14124487002846,32.92224189341505 152.5133378932951,33.3163865700044 153.52906976744998,34.301743413518125 155.92989056085935,35.00556549005705 162.39363885088824,34.245437494741054 164.0557455540984,34.61142556253617 167.08447332424112,37.229620027399505 168.91279069765005,36.61026661230426 170.0208618331235,37.96157962666621 173.60362517100293,40.80492489046446 175.87517099868273,44.492742252470634 172.93878248974215,46.181786517525325 172.45861833106028,48.63086455849407 172.73563611495774,50.29170923138008 175.35807113541523,54.57040487573249 178.34986320114695,57.300820030854084 184.37038303696318,65.23842603037338 186.8820109438966,72.61267859342479 187.71306429553078,72.4719522125888 187.63919288653415,71.31799056219461 185.57079343363876,66.25170509144664 184.3888508892269,61.494859331825865 184.61046511633322,60.960055929841474 186.25410396716325,59.91859081933217 184.18570451438427,50.911002209097205 181.87722298229346,45.055759268470865 177.7773597810883,40.21373903963831 172.6617647059029,36.019063072693825 168.0817373461323,33.73868320814654 160.9346785225789,32.528096108660975 158.53385772911133,32.38732948836696 151.68228454171913,33.40084599937836 147.5824213406886,33.569764705542184 147.25,36.15982604633609 150.3710670315195,37.70820942865248" stroke="#4dd2ff" stroke-linecap="round" stroke-linejoin="round" stroke-width="0.5"><title>2022-04-30 10.1km</title></polyline><polyline fill="none" points="26.351714285672642,111.30448951026483 28.604285714274738,111.44559873730759 31.319714285666123,110.4578305776231 34.79114285710966,111.98651586625056 36.16428571427241,111.84540729087894 36.56542857142631,112.40984057254536 39.064857142861,111.0693070872876 40.391714285709895,113.25648539502436 39.975142857118044,115.84341776781366 41.03971428569639,118.43029300660419 42.79857142851688,120.92304600261559 44.66542857140303,122.45159471428633 49.9728571427986,129.24751595965063 51.83971428568475,135.0084552907283 52.086571428517345,135.45521017690044 52.75,135.2906164697124 52.53399999992689,133.4565566579622 49.9728571427986,126.49627354332188 50.06542857142631,125.76730104850867 51.392285714216996,125.2499629774029 51.56199999997625,124.89723116433015 49.67971428565215,116.713554906637 47.96714285708731,112.92723535789992 43.56999999994878,107.80022250490583 39.95971428568009,104.88383982581581 36.503714285674505,103.14338330366445 31.257999999972526,102.01442470298207 27.74028571427334,101.92034432830405 24.06828571431106,102.2731453434535 22.556285714323167,102.76706497921259 20.889999999955762,102.67298520922486 13.669428571418393,103.51970041891036 13.237428571388591,103.63729926945234 12.975142857118044,104.4840075076936 12.25,104.38992911689274 12.404285714263096,102.50834542983648 18.39057142857928,102.0379447847954 18.467714285710827,100.3209663968446 18.99228571431013,99.54478982309956 19.99514285713667,100.13280285135988 19.115714285697322,101.8262638781016 18.760857142857276,105.18959303041629 22.031714285723865,106.24796334437269 19.99514285713667,110.59894082477695 20.550571428553667,112.38632257340942 20.457999999984168,114.07960643850674 23.219714285747614,114.80865167501906 25.42599999997765,116.26672853471246 27.24657142854994,113.96201807211764 25.54942857142305,113.06834262999473 25.8734285714454,111.63374410900724 26.289999999979045,111.4926351085669" stroke="#4dd2ff" stroke-linecap="round" stroke-linejoin="round" stroke-width="0.5"><title>2022-04-28 7.1km</title></polyline><polyline fill="none" points="80.5284147557104,114.00807499372604 80.66974077769555,114.16195151927968 80.90191924225655,113.97729965153849 82.14356929212227,114.00807499372604 83.70825024924125,113.4387291625244 84.56630109672551,114.00807499372604 85.20226819542586,114.03885032352264 85.86851944166119,114.40815331752674 86.81742273180862,114.40815331752674 87.16064307076158,114.82361705849326 88.72532402793877,113.83881045873568 89.53290129613015,115.33140301642561 89.31081754737534,116.99322444581048 89.85593220338342,118.47036879789812 90.59284646064043,119.6859141497116 92.34932701895013,121.33225496230443 95.81181455633487,125.74796642685396 97.03327517447178,129.51727493734506 97.32602193421917,129.85573438671418 97.75,129.70188936776685 97.62886340977275,128.97881364215573 96.4780658025993,126.37876158267318 95.79162512463517,123.96324956961325 95.84209870389896,123.34782032716612 96.85157028914546,122.91701691698108 95.34745762709645,116.6393210502938 94.4793120638351,114.9774919465417 92.22819042872288,112.25386076333962 90.43133100698469,110.65348994650412 88.57390329011832,109.42241272875981 86.93855932203587,108.59142442618031 84.3543120638351,107.96048284467543 81.68930707877735,107.821982777823 78.98392323032022,108.03742721815797 78.7719341974298,107.48342600485921 76.16749750750023,105.79061970294424 73.86590229315334,105.19043394339678 68.77816550349235,105.55977958253061 68.20276669989107,105.79061970294424 67.01159022931824,105.59055830543366 66.34533898305381,105.88295555642253 63.46834496510564,108.11437151433347 61.93394815555075,108.7760892721999 58.007103688956704,108.62220193142275 57.58312562311767,108.42214792642335 57.25,108.8684215283356 61.77243270189501,109.14541762917361 62.69105184444925,108.91458761465765 64.14469092720537,108.12976036428154 67.04187437688233,105.59055830543366 67.78888334994554,105.68289439994987 69.61602691924782,105.26738109831786 74.35044865406235,105.1442656132931 77.15677966101794,106.08301619057602 78.86278664006386,107.62192668369971 78.81231306082918,108.06820494586282 77.96435692923842,108.43753671459854 78.07539880360127,109.19158354862884 77.73217846461921,110.63810160335561 77.02554835495539,111.51523223164986 76.03626620140858,113.77725962602563 76.58138085744577,114.63896678503806 76.56119142571697,115.88534749695827 77.88359920238145,116.17770546959218 79.84197407777538,117.25480416601204 80.96248753738473,115.63915044436726 83.00162013960653,114.46970364351 84.3341226321063,113.99268732416385 82.95114656031365,112.85399120317743 81.94167497506714,113.28485118476965 80.5486041874392,113.3310146105432 79.94292123630294,114.9159420283977 80.20538384845713,115.26985338257509 81.0331505483482,115.66992511924036 82.28489531404921,114.83900456121773 82.03252741775941,114.30044012812868 80.60917248256737,114.25427728633076" stroke="#4dd2ff" stroke-linecap="round" stroke-linejoin="round" stroke-width="0.5"><title>2022-04-27 10.1km</title></polyline><polyline fill="none" points="110.3573613568442,108.9480473788717 112.43842566909734,108.7781069039338 116.48906870535575,107.56019417505013 117.41811527335085,108.29660777963 119.29478934057988,108.66481314020348 120.46538801625138,109.45786757538735 122.08192904444877,109.51451415015617 122.58361419115681,110.08097864657611 125.29643016954651,108.3532548207586 126.2254767374834,108.89140057662007 127.22884703089949,110.9023481257027 126.9501330605126,114.58429046580568 127.91634149115998,116.90669697544945 130.4247672247002,120.33359284317703 132.39434594870545,121.9478868450824 138.7304435421829,130.16067552642926 141.14596461888868,137.75 142.2050777063705,137.52345891245204 142.14933491224656,136.6739265941069 139.75239476689603,130.55714288209856 138.93483378714882,127.32873343895335 138.82334819895914,126.139300809431 140.71860319760162,125.0914589934473 138.41456770908553,114.9524794140525 136.2591796714114,110.36421004169824 132.18995570379775,105.46422671882465 128.84538805915508,102.49016539262811 126.83864747238113,100.98894871782977 121.26436806470156,98.26972311608552 113.7948336583213,97.25 107.31008861394366,97.759862479601 106.00942341884365,98.26972311608552 106.19523273245431,99.68599299173366 105.52631920349086,102.20691818642081 104.37430145923281,103.59482406243478 103.55674047942739,105.9457355116756 102.7949222936877,106.96539576471696 103.98410190071445,106.99371955537936" stroke="#4dd2ff" stroke-linecap="round" stroke-linejoin="round" stroke-width="0.5"><title>2022-04-25 5.0km</title></polyline><polyline fill="none" points="170.50862931465963,114.14254353199794 172.281390695367,114.00356983102392 173.71985992998816,113.37046423738502 174.33779389696429,113.83371274432284 175.279889944999,113.98812829320377 175.83704352175118,114.312399936578 176.7284892446478,114.29695846077084 177.14382191098412,114.69843582445174 178.7545022511331,113.7256216756432 179.58516758380574,115.06902845374861 179.37243621810921,116.89108290583681 179.89919959980762,118.32707845404366 180.96285642820294,119.94833152507636 182.46210605301894,121.276189533055 185.90632816409925,125.70736371909152 187.31440720360843,129.89126947060868 187.75,129.73688584863703 187.71960980488802,129.1347867621007 187.09154577291338,127.15863356160844 186.46348174088052,126.04702507302864 185.91645822912687,124.07079253369011 185.86580790398875,123.45320945119602 186.94972486246843,122.92825993181032 185.59229614809738,117.18446051987121 184.52863931964384,114.86829100123578 183.27251125563635,113.26237251756538 181.7530015007651,111.6255364757817 179.43321660830406,109.7415877162639 177.12356178089976,108.56795696019981 173.66920960479183,107.8112644754292 171.42033516758238,107.73405053791794 169.09042021012283,108.05834855448484 168.7966483241762,107.34797968734347 166.15270135068567,105.71101774810813 163.66070535269682,105.10873052939132 159.40607803902822,105.37126656369219 158.24112056029844,105.71101774810813 156.6810905452876,105.63380170165328 154.3714357178833,107.50240826015215 152.56828414209303,108.52162906284502 151.33241620814078,108.76871085944731 148.00975487747928,108.58339958643046 147.44247123564128,108.35175986722606 147.25,108.73782567828312 150.76513256630278,109.0930045126297 152.37581290645176,108.95402168590226 153.95610305154696,108.1510048794662 156.6912206103152,105.81912008288782 157.14707353679114,105.63380170165328 158.39307153580012,105.75734733878926 161.10792896448402,105.46392612651107 163.79239619814325,105.52569910635066 165.18021510753897,105.74190414499026 166.4464732366323,106.34418640437798 166.86180590296863,105.92722226569458 164.77501250625937,105.2477203062881 161.97911455729627,105.20139040856156 158.72736368182814,105.49481262263726 157.71435717862914,105.77279052945232 159.85180090047652,105.68013133882778 161.20922961478936,105.38670983193879 162.00950475237914,105.58747203658277 163.91395697850385,105.49481262263726 165.68671835918212,106.01988115858694 166.2438719359925,106.57583217116917 165.66645822912687,107.87303556963889 165.42333666837658,109.84968438503711 167.4594797398895,110.49826120671787 166.4059529765218,113.06163034908968 167.4189594797499,112.72191163944808 169.21198099051253,112.76823700639216 170.51875937971636,113.1079555113829 170.30602801399073,113.83371274432284" stroke="#4dd2ff" stroke-linecap="round" stroke-linejoin="round" stroke-width="0.5"><title>2022-04-22 10.1km</title></polyline><polyline fill="none" points="33.29479522188194,178.71737462584133 34.90742320820573,178.69981626935623 35.02261092152912,178.36620682579087 36.72738907849998,177.8921280587092 37.476109215058386,178.41888208567252 38.547354948852444,178.57690767506574 39.28455631402903,179.01586614704138 40.14846416385262,178.9456329396271 40.56313993179356,179.4372642071612 42.47525597270578,178.34864839877991 43.477389078529086,179.94645082042553 43.27005119458772,181.96560992393643 43.85750853244099,183.59846101560834 45.124573378881905,185.4068519115317 46.69112627991126,186.8114015625688 50.66510238908813,191.92026065982645 52.19709897614666,196.4846245995941 52.75,196.4846245995941 52.485068259440595,194.88712431745807 51.4944539249409,192.71026377339876 50.676621160440845,189.90133139148384 50.653583617764525,189.3219778646162 51.667235494882334,188.86551480690832 51.851535836205585,188.56705690405943 50.50383959047031,182.77326051114505 49.77815699664643,180.7892359411344 49.1215870307642,179.57772977594868 46.6220136519114,176.54011153178726 43.18941979526426,173.64286286514107 40.55162116046995,172.32589991795248 37.75255972699961,171.69375065783242 34.492747440323,171.46547341294354 31.486348122911295,171.78154943947447 31.094709897675784,170.99135723085783 28.191979522205656,169.14754763946985 25.392918088764418,168.5153754004059 17.180034129705746,169.14754763946985 14.438566552911652,171.4479136002119 12.284556313999929,172.44881729897315 12.25,172.9580446080654 14.33489761094097,171.9395870242879 17.755972696264507,169.00706531464675 20.946672354999464,169.12998736118607 22.317406143352855,168.7787810554437 23.4923208191467,169.00706531464675 26.049488054646645,168.95438438466226 27.397184300381923,169.3758309358309 28.249573378881905,169.99043684842036 27.604522184323287,171.5708322154096 27.397184300381923,173.9764903295436 29.689419795235153,174.6613006104526 28.45691126282327,177.52339835181192 30.3690273037937,176.9439628137843 34.04351535838214,177.69898412041948 35.990187713323394,177.06687370329018" stroke="#4dd2ff" stroke-linecap="round" stroke-linejoin="round" stroke-width="0.5"><title>2022-04-21 8.1km</title></polyline><polyline fill="none" points="77.8686006826174,178.69983057925856 79.75767918091151,178.57692208369554 80.22994880547049,178.38377981310623 80.42576791808824,177.99749399197754 80.29906143347034,178.5944804508108 81.70435153582366,177.89214301737957 84.18088737205835,178.92808875555784 85.24061433447059,178.9105304554687 85.56313993173535,179.36704511222342 87.3831058020296,178.2433124392337 88.40827645052923,179.7357667490287 88.22397610920598,182.03585233649937 88.93813993176445,183.70381549141166 89.79052901026444,185.03816310956609 91.84087030717637,187.00453301576636 95.76877133108792,192.04315409612173 97.2546928327647,196.55484369453188 97.75,196.41440550465632 97.57721843005856,195.5542166709347 96.35622866897029,192.60493358054373 95.6305460750882,189.51510175768635 95.7572525597352,189.19909007691604 96.77090443688212,188.79529571197054 96.3792662115884,186.39004716973432 95.31953924914706,182.15875597049308 94.09854948805878,179.59530154689128 91.46075085323537,176.3820984331105 88.17790102391155,173.6779999491264 85.67832764505874,172.39615781578323 83.38609215017641,171.74644983251346 79.64249146758812,171.43037393289706 76.27901023891172,171.76400957119768 76.2559726962354,171.57085225154879 76.09470989761758,171.0089376228425 73.01919795220601,169.05976826624828 70.20861774747027,168.44515630546812 64.92150170649984,168.79636366922932 63.67747440270614,169.13000935812306 62.81356655291165,168.88416528972448 62.29522184302914,169.00708741032577 59.45008532423526,171.2723355546841 57.273037542705424,172.32591934765514 57.25,172.85270648356527 59.32337883961736,171.81668876610638 62.72141638226458,169.00708741032577 64.18430034132325,169.2002503935655 67.28284982938203,168.86660497265257 70.27773037541192,168.86660497265257 72.04010238908813,169.18269014002726 73.28412969282363,170.06069849833148 72.56996587032336,171.553292474091" stroke="#4dd2ff" stroke-linecap="round" stroke-linejoin="round" stroke-width="0.5"><title>2022-04-19 7.2km</title></polyline><polyline fill="none" points="107.55627289059339,172.4503825840511 107.61479923693696,172.12326751589717 110.48259020969272,171.94484081065457 113.36988996446598,170.87427606462734 117.81789228948765,172.83697218749148 119.5931914630346,172.7180216477136 119.9833671055967,173.49119844839151 122.92919320677174,171.58798675512662 123.59249179909239,172.12326751589717 124.80203629098833,174.32384587342676 124.39235186635051,177.9814916140749 125.38729975483147,180.4496080226818 126.83094963221811,182.73926960093377 130.18646015808918,185.92094835035095 137.01453390263487,194.75197889865376 139.53116679697996,202.60134183660557 139.82379852893064,202.60134183660557 140.350535646372,202.36348846500914 140.2725005178945,200.78770023076504 137.63881493062945,194.42491308238823 136.79993729916168,190.6487372626434 138.8483594225836,189.13229310770112 136.6633758242824,179.58725877157121 134.43937466177158,173.87778533506207 130.0498986832099,168.67364644994086 124.19726404506946,163.6775010679412 122.1878594859736,162.7258352181525 120.99782377621159,162.25 120.80273595493054,164.5994215280807 121.71964871493401,165.78898783503973 125.5628787939786,168.97103074112965 127.94295021344442,172.30169400625164 129.77677573339315,175.33491145342123 130.63516214699484,178.66543160589936 136.23418261751067,177.8625452060951 137.32667441660305,181.04432871870813 138.94590333319502,189.22149613489455 137.131586595322,190.52980102726724 138.57523647282505,196.08996789931552 140.77972885314375,202.24456163602008 139.726254618261,202.75 139.0044296795386,201.76885336490523 136.99502512044273,195.91157006421417 135.785480628605,193.56264519592514 130.49860067211557,186.6345865359326 126.61635302886134,182.8582120923238 124.13873769866768,178.546485747298 124.00217622378841,177.3867586190463 124.58743968763156,174.7104305866087 127.70884482789552,172.8072345614637 129.7377581691253,175.3051743288961 130.7522148397984,178.72490449948236 135.785480628605,177.50570540913031 133.971163890732,173.46146095381118 128.76231906277826,167.51384200823668 124.13873769866768,163.76671942786197 121.01733255834552,162.27973974587803 120.90027986554196,164.9562924234633 122.6560702570132,166.68115629488602 121.01733255834552,168.04913749457046 118.98841921711573,167.51384200823668 118.28610306052724,167.9896603138477 117.19361126143485,169.32789110242447 117.4667342111934,171.91510300550726 112.57002989726607,172.7180216477136 111.4970468802494,173.78857306613645 108.45367686846294,175.5430711571098 106.19065814168425,178.42753979309055 104.22027114685625,177.35702190663142 107.10757090162951,170.39846702672367 109.64371257816674,170.42820513641345 112.1993630368379,169.4468443650112 113.33087240019813,170.87427606462734 110.87276585219661,172.36116945526737 107.02953577315202,172.48012028163066" stroke="#4dd2ff" stroke-linecap="round" stroke-linejoin="round" stroke-width="0.5"><title>2022-04-10 10.4km</title></polyline><polyline fill="none" points="150.745337291155,172.52626028304803 150.9621623380226,172.1957482755388 153.3866605887888,172.34598109668877 156.93470680952305,170.99388027620444 158.13710025092587,171.8952821806306 161.35005321749486,172.97695729865518 163.14378769573523,172.79667865527153 163.41974684619345,173.63797713264648 166.5735657090554,171.83518888927938 168.36730018729577,174.26894788673962 168.0322069331305,178.0847619407723 168.97835259191925,180.51841929861985 171.12689169228543,183.82332271221094 174.18215371563565,186.61741138722573 180.78546195972012,195.14957435047836 183.20996021054452,202.71995955171587 184.254662708845,202.75 180.66719375230605,191.60457979337662 180.6474823844619,190.67325373557105 182.73688738112105,189.62174960740958 180.23354365874548,178.32512492281967 178.2229841336375,174.2088555485825 173.94561730098212,168.95068252290366 167.81538188632112,163.75242128146056 164.62214028765447,162.25 164.52358344820095,165.16468353125674 169.25431174249388,168.95068252290366 171.5999645217089,173.06709653884172 168.54470249835867,174.6595474963833 166.69183391641127,171.95537544797116 163.6562832609634,173.72811597466352 160.02939156867797,172.31593454456015 158.452482137247,172.1957482755388 156.44192261225544,172.76663219364127 153.958290257724,174.53936310972495" stroke="#4dd2ff" stroke-linecap="round" stroke-linejoin="round" stroke-width="0.5"><title>2022-04-09 5.2km</title></polyline><polyline fill="none" points="15.723027367086615,237.50381942851527 17.932340635568835,237.32340638652386 17.991518669587094,237.0227175001637 22.07480301411124,235.85002507455647 23.19918565970147,236.90244177666318 25.013978701725136,237.14299312715593 26.375073483213782,237.86464486041223 28.071510457259137,237.86464486041223 28.564660740375984,238.58629311597906 31.58274047332816,236.66189003964246 32.470410982961766,237.4737506033416 33.476437560631894,239.36807480175048 33.12136935675517,243.0664482233551 34.08794391172705,245.65224855593988 36.533969316165894,249.10993504553335 39.2758848904632,251.57536709109263 45.80519463942619,260.14393110248784 48.369576111843344,267.75 49.276972632913385,267.59968617436243 49.099438530916814,265.8560347711609 47.10711138701299,261.19617709524755 45.68683857150609,255.8146126647771 46.00245475274278,255.2734390603 47.71861773810815,254.46167498701834 46.67313913779799,248.83933637355221 44.46382586931577,241.17217080801493 43.16190912172897,238.61636171779537 40.853965796588454,235.85002507455647 35.27150459133554,230.46754972453346 33.02273930015508,228.75353651370096 29.70876939734444,227.25 29.452331250126008,229.2647354892688 29.807399453944527,230.3773389920534 34.028765877767,233.80530862319574 36.711503418162465,237.86464486041223 33.71314969653031,239.51841696580232 31.5235624393099,236.87237283069408 28.821098887652624,238.52615589415655 24.79699257708853,237.17306201886095 21.18713250447763,237.71430103610328" stroke="#4dd2ff" stroke-linecap="round" stroke-linejoin="round" stroke-width="0.5"><title>2022-04-07 5.0km</title></polyline><polyline fill="none" points="60.71575676032808,236.4746286328591 60.53835430677282,236.8351888878824 61.03113889985252,237.1356551033241 63.33737079537241,237.1356551033241 67.33878169103991,235.963833451111 68.54117609810783,236.89528217918996 70.65029415639583,237.22579485029564 71.41903812164674,237.7365857243276 73.23248542408692,237.8267251093348 73.60700171481585,238.54783823469188 76.72140034293989,236.6849555538356 77.66754676162964,237.4661672435177 78.73196148261195,239.59945531336416 78.39686795935268,243.44530626710912 80.11175834323512,246.90047869413684 81.82664872705936,249.15380903721962 84.17230339010712,251.0165365035209 91.13042184413644,260.1195323752763 93.55492204200709,267.75 94.46164569328539,267.6598786368995 94.4025115420809,266.12780716216366 91.32753568136832,259.0680594873702 90.73619416967267,255.5831250980409 92.70733254193328,254.7118788203661 92.84531222796068,253.87067070498597 90.6179258673219,244.61706933441747 89.15928347187582,240.3506058449566 87.5232386229327,238.03705012990395 86.41940113448072,238.66802341776202 87.05016541352961,237.6163997931726 83.93576678540558,233.65020991083293 78.29831104079494,228.9327108211437 74.82910750556039,227.25 74.6319936683285,229.29328924953006 75.00650995911565,230.40506726698368 79.1853233082802,233.62016261661483 82.08289671549574,237.49621376549476 80.2300266455859,238.96848595302436 78.77138425008161,239.5393631079496 77.03678248252254,236.9854220709385 76.3074612847995,237.1056085088785 75.71611977316206,236.44458190578735 74.76997335447231,233.25959461470484 76.60313204058912,231.54688474060094 79.22474607574986,233.7403517574421 82.0631853317609,237.6163997931726 79.12618915707571,239.4492247546732 78.79109563381644,239.5093169961474 76.78053449414438,236.80514223310456 73.84353831945919,238.54783823469188 73.1536398892058,237.97695729696716 71.35990397044225,237.79667865364172 67.12195647013141,236.2042078714876 64.97341564431554,237.25584142061416 62.134976388304494,237.4361207155307" stroke="#4dd2ff" stroke-linecap="round" stroke-linejoin="round" stroke-width="0.5"><title>2022-04-03 6.2km</title></polyline><polyline fill="none" points="139.89754098351113,254.06014068475633 140.7581967213191,250.49901263945503 140.48770491802134,249.03705619287211 142.75,247.91246651938127 142.75,246.82535672820813 135.96311475412222,242.47685424967494 132.10245901637245,241.42720054264646 123.81557377043646,241.53966372224386 116.34016393439379,242.70177927608893 113.06967213109601,242.4393667189579 107.21721311472356,247.16273630638898 102.47131147532491,249.5243762806058 102.25,250.53649855159165 106.38114754093112,248.77465254174604 113.19262295070803,242.77675422470202 114.56967213109601,242.326904081463 120.49590163928224,242.40187918061565 124.03688524587778,241.61463913752232 132.52049180323957,242.3643916347355 136.7499999999418,244.16378534135583 137.659836065548,243.52650205403916 136.8483606556547,242.70177927608893 130.1598360654898,241.31473729554273 118.57786885241512,242.13946620184288 116.31557377043646,242.81424168763624 113.31557377043646,242.4393667189579 105.88934426225023,248.24984413290804 102.25,249.7118067449046 102.59426229505334,250.53649855159165 107.0450819671969,248.32481685299717 113.0450819671969,242.964191464358 114.86475409835111,242.28941652063804 115.97131147532491,242.47685424967494 119.97950819670223,241.50217600321048 131.069672131096,240.9398593152291 137.68442622950533,242.88921659096377" stroke="#4dd2ff" stroke-linecap="round" stroke-linejoin="round" stroke-width="0.5"><title>2022-03-24 5.1km</title></polyline><polyline fill="none" points="171.28716217237525,266.7950854641458 170.16890562541084,266.54498746834724 168.57352628506487,267.75 167.85784209502162,267.38622398418374 167.4999999999418,266.4767788281242 167.03778729389887,262.3614481271579 166.50102415133733,261.088166322319 165.8598903978127,260.63341934826167 162.14727866183966,260.54246973419504 160.25369757565204,258.72346210011165 178.57819485856453,234.23222453997005 169.79615344305057,227.25 156.42180514143547,254.53963356496388 164.6670834143879,262.95260980911553 165.17402638233034,262.54334435828787" stroke="#4dd2ff" stroke-linecap="round" stroke-linejoin="round" stroke-width="0.5"><title>2021-10-26 5.0km</title></polyline></svg>