<?xml version="1.0" encoding="utf-8" ?>
<svg baseProfile="full" height="300mm" version="1.1" viewBox="0,0,200,300" width="200mm" xmlns="http://www.w3.org/2000/svg" xmlns:ev="http://www.w3.org/2001/xml-events" xmlns:xlink="http://www.w3.org/1999/xlink"><defs /><rect fill="#222222" height="300" width="200" x="0" y="0" /><text fill="#FFFFFF" style="font-size:12px; font-family:Arial; font-weight:bold;" x="10" y="20">Over 5km Runs</text><text fill="#FFFFFF" style="font-size:4px; font-family:Arial" x="10" y="280">ATHLETE</text><text fill="#FFFFFF" style="font-size:9px; font-family:Arial" x="10" y="290">Wenz</text><text fill="#FFFFFF" style="font-size:4px; font-family:Arial" x="120" y="280">STATISTICS</text><text fill="#FFFFFF" style="font-size:3px; font-family:Arial" x="120" y="285">Number: 34</text><text fill="#FFFFFF" style="font-size:3px; font-family:Arial" x="120" y="290">Weekly: 2.8</text><text fill="#FFFFFF" style="font-size:3px; font-family:Arial" x="141" y="285">Total: 254.6 km</text><text fill="#FFFFFF" style="font-size:3px; font-family:Arial" x="141" y="290">Avg: 7.5 km</text><text fill="#FFFFFF" style="font-size:3px; font-family:Arial" x="167" y="285">Min: 5.0 km</text><text fill="#FFFFFF" style="font-size:3px; font-family:Arial" x="167" y="290">Max: 15.5 km</text><polyline fill="none" points="29.452523524407297,44.63224558264119 30.43798118052655,44.57356752781561 31.885372112941695,44.115876678333734 33.548331907601096,44.784808249496564 34.187339606520254,44.749601515577524 34.44910179640283,45.113403410119645 35.66552609068458,44.38579735646272 36.343028229282936,45.44199672336981 36.18905047050794,46.756351502845064 36.343028229282936,47.41351780887271 37.28229255776387,48.93905396275295 38.475620188197354,50.01864010478312 41.116338751104195,53.40981905171793 42.13259195894352,56.53093791584615 42.57142857144936,56.53093791584615 41.10863986314507,52.11908209011381 41.13173652696423,51.72012126282061 41.84773310524179,51.438500215808745 41.9324208725302,51.239017819865694 40.677502138598356,46.25173664551039 39.95380667239078,45.08993238848416 38.421727972629014,43.235691893652984 37.136013686918886,42.03861931344727 35.44995722841122,40.911940369096556 34.241231822088594,40.3485927517504 32.18562874250347,39.89086881412368 30.07613344740821,39.796976281268144 28.313088109483942,39.98476119617044 28.082121471350547,39.46835122831544 26.172797262610402,38.28293836087323 24.33276304535684,37.813461271245615 20.491017964086495,38.048200287488726 19.95979469633312,38.23599082158762 19.10521813519881,38.095147977575834 16.972626176226186,39.72655678261799 15.29426860564854,40.53637589422942 12.253207869973266,40.430747950827936 11.82207014542655,40.24296446895096 11.729683490179013,40.559848744622286 12.484174508135766,40.688949253260944 12.553464499593247,40.923676720070944 12.615055603091605,40.63026723921939 13.662104362738319,40.81804947666387 15.286569717747625,40.806313104483706 16.857142857130384,40.10212646158834 19.02822925581131,38.3181489905146 23.739948674076004,38.11862180848402 25.48759623611113,38.341622731884854 26.388366124912864,38.787622025854944 26.888793840887956,38.48246498190201 27.55859709152719,39.17493444089996 28.174508126627188,39.50356114379974 28.18990590251633,39.94955157059303 27.543199315667152,40.23122798131226 27.65098374680383,40.489430165165686 28.767322497878922,41.13493063418355 29.683490162569797,41.28750243059767 32.21642429428175,40.95888575877689 32.701454234396806,41.146666940341674 33.55603079556022,41.99167479110474 34.67236954663531,41.66306207868911 36.52010265184799,43.22395600696473 37.55945252353558,44.71439476043088 37.52095808382728,44.890428324029926 36.31223267750465,45.57108644813343 36.119760479050456,46.61552919020687 36.23524379811715,47.131876011033455 37.46706586825894,49.17374829857363 38.514114627905656,50.07731269332726 41.13173652696423,53.433286732662964 42.13259195894352,56.33147289810222 42.49443969206186,56.19067365230512 42.49443969206186,55.9208074831331 41.38579982891679,53.315948233761446 41.06244653550675,51.884399580310856 41.116338751104195,51.70838707963412 41.878528656990966,51.40329748950535 41.878528656990966,50.96912878880539 40.962360992329195,47.296167224718374 40.508126603934215,46.08744249602023 40.03079555174918,45.17208092297005 38.298545765603194,43.094861097964895 36.89734816082637,41.862577160154615 35.33447390931542,40.82978584645025 34.39520958083449,40.36032921581864 32.15483319075429,39.879132255773584 30.422583404637408,39.77350312448107 28.328485885373084,39.97302465667599 28.11291702312883,39.49182450764056 26.103507271182025,38.212517037849466 25.033361847745255,37.86040914989644 23.793840889644343,37.754776369863976 19.975192472193157,38.212517037849466 18.95893926435383,38.095147977575834 16.895637296838686,39.72655678261799 15.263473053928465,40.52463946551143 12.245508982072352,40.41901150088961 11.87596236099489,40.24296446895096 11.714285714289872,40.559848744622286 12.345594525249908,40.71242204234295 15.271171941858483,40.75936759227989 15.3173652694677,40.430747950827936 16.895637296838686,39.691347001484246 18.189050470507937,38.588096446666896" stroke="#4dd2ff" stroke-linecap="round" stroke-linejoin="round" stroke-width="0.5"><title>2022-06-11 15.5km</title></polyline><polyline fill="none" points="65.74462990101893,44.57825841671729 66.86404088782729,44.542954663986166 68.36173558741575,44.09577195557722 70.04471210553311,44.825384090236184 70.60055756103247,44.81361622462646 70.90164051612373,45.084276535322715 71.80488938133931,44.44881121947765 72.12141248793341,44.40173944048729 72.76989885271178,45.34316783678878 72.62321741305641,46.86118927377902 73.03238142892951,47.86141446839247 73.79666893027024,49.01459409594827 75.17084241754492,50.297185601386445 77.65670681581832,53.532956876086246 78.61399621143937,56.497943170092185 79.0,56.52147420747497 78.93051931806258,55.90966416554511 78.08131098322337,53.87417325318893 77.57178598234896,52.109239522946154 77.57178598234896,51.744479925320775 78.34379355947021,51.41501769250317 78.39011401406606,51.2032195648535 77.2089424211299,46.44932687915207 76.69941742022638,45.36670335292001 75.01644090210903,43.189628110569174 72.65409771614941,41.28314985788529 70.72407877337537,40.31811870520323 69.07970263410243,39.91797917644726 66.6478787662054,39.729677276340226 64.7641802780854,39.97682339614403 64.60205868686899,39.5296058445565 62.602559062157525,38.211471102116775 60.73430072556948,37.76424007824244 56.85882268846035,38.046702174637176 56.511419278773246,38.199701908390125 55.46920904965373,38.08200984094583 53.27670753066195,39.764983928711445 52.14185639232164,40.36519376427532 51.084206011670176,40.565262343388895 48.64466206799261,40.40050003374199 48.23549805211951,40.17689330115536 48.142857142869616,40.50641871455082 50.096036312985234,40.765330239551986 52.20361699847854,40.64764332450068 53.34618821259937,40.02389872935237 55.09864541265415,38.43508533415661 55.54640980734257,38.199701908390125 56.48053897568025,38.31739373943492 60.116694663855014,38.08200984094583 61.691590121161425,38.24677866918137 62.116194288566476,38.376239566332515 62.62571928947,38.870542179403856 62.19339504628442,39.81205943209716 61.98495300047216,41.03600924711645 62.077593909722054,41.494983837576 63.60616891240352,41.848038768839615 64.02305300405715,40.624105913164385 65.00350262699067,41.01247199176942 66.23099467458087,41.21253836115284 68.8789806640998,40.95362881193796 70.02927195397206,41.96572327327158 71.16412309231237,41.647974568910286 72.95518067121156,43.21316449157166 73.98967082455056,44.66063375700833 74.05143143073656,44.76654473867529 73.41066514170961,45.28432900504049 72.82393938311725,45.519683977527166 72.10597233640146,44.389971489828895 70.87848028878216,45.11957996194542 69.51974695309764,44.59002632955162 68.50841702704201,44.59002632955162 67.83677043495118,44.83715195347395 66.40855641730013,45.837411691176385 65.28914543052088,45.190186751424335 65.57478823405108,44.51941881705352 65.77551020411192,44.55472258394002" stroke="#4dd2ff" stroke-linecap="round" stroke-linejoin="round" stroke-width="0.5"><title>2022-06-10 10.5km</title></polyline><polyline fill="none" points="115.42857142855064,53.1400305257921 114.96022797666956,52.81367248680908 115.24123404783313,51.81419447011285 114.96022797666956,51.54902518243034 112.3642671291891,51.30425291790016 109.67463759132079,51.83459207897977 110.34369966541999,49.71321882176562 111.70858629659051,47.754988800996216 112.05649857514072,46.2250953301409 111.84239871142199,45.409142723896366 113.1805228596204,44.91956801406195 113.14037913517677,44.51158728671726 113.0199479618168,44.12400407797395 111.1867178787943,42.818449757141934 107.6808326105529,41.34968108814064 105.83422128605889,41.14568375991803 99.58518151400494,41.696475605836895 98.86259447399061,42.043268939552945 97.39065791104804,41.79847376805992 96.68145211247611,42.0636685105128 93.52347912272671,44.65438072768302 91.6634865567903,45.67432803985139 89.25486309002736,46.04150656515412 88.1576012885489,45.694726881658426 85.52149671662482,45.77632220778469 84.79890967661049,45.38874382474023 84.57142857142026,45.980310236460355 90.79370586044388,46.32708894499956 90.8338495848875,45.73552455288882 93.72419774500304,44.28719718819775 96.19972741912352,42.0636685105128 97.59137653323705,41.53327833321964 98.23367612433503,41.61487700231373 98.23367612433503,42.6348548349124 96.58778342211735,44.00160907320242 96.58778342211735,44.28719718819775 99.86618758516852,43.77721784811001 100.30776855407748,45.041961912749684 102.81006071114098,44.98076498186856 102.8502044355846,46.69426511076745 103.66646016598679,46.83705548344733 103.03754181633121,47.265425397257786 103.13121050674818,48.632117332053895 105.23206541934633,48.632117332053895 108.67104448020109,49.30525734715775 110.11621856022975,49.85600495086692 109.72816255729413,51.79379685719323 112.0163548506971,51.039082299073925 115.05389666702831,51.50822984601837 115.34828397966339,51.77339924019179 115.32152149666217,53.03804375121399" stroke="#4dd2ff" stroke-linecap="round" stroke-linejoin="round" stroke-width="0.5"><title>2022-06-09 5.2km</title></polyline><polyline fill="none" points="135.1148710444395,43.80136862579093 136.36930674957694,43.77125571205397 138.11761477959226,43.214164626726415 140.26102066948079,44.14766626458004 141.18950064020464,44.13260987873946 141.31790744466707,44.41868069233897 142.898298884189,43.53035196683777 143.26376440460444,43.84653797374631 143.87616608742974,44.915537932669395 143.61935247850488,46.451257679698756 143.86628864094382,47.369663283985574 145.01207243459066,49.34193894392956 146.69123833911726,50.92273312910402 150.03969270165544,55.16812973405467 151.40278031825437,59.202539247708046 151.85714285713038,59.09716564014525 151.66947137369425,58.269225000251026 150.27675141757936,54.882099925023795 149.95079568316578,53.18095273255312 150.0693250411423,52.92502459422394 151.0274373513821,52.44327514080942 149.53594293032074,46.3609220946164 148.6667276385706,44.56924384011654 145.85165538688307,41.40735424820741 143.60947503201896,39.615557626995724 141.22901042620651,38.39590686352312 139.02633985731518,37.83877583970752 136.4088165355497,37.612910731761076 133.5542344978894,37.899006420208025 133.22827876347583,37.20635182299884 131.9837205048534,36.40828533187596 130.66014267422725,35.62526844340027 129.346442290087,35.2337569326628 127.91421254802844,35.083175038016634 122.49149442106136,35.62526844340027 122.44210718857357,36.21253187635739 123.15328333637444,36.092067957397376 122.24455825862242,36.28782172741194 121.0,37.31175619621354 123.72617523319786,37.10094730156561 123.97311139566591,37.92912169234478 125.80043899762677,38.00440981971042 125.79056155114085,39.193952199326304 126.36345344796428,39.28429641908588 125.89921346260235,39.52521380633698 125.96835558806197,40.59427537359443 129.52423632703722,40.895416725528776 131.23303457105067,41.49769580116117 130.77867203217465,43.063598758024455 131.21327967804973,44.3132863090359 131.12438265958917,45.48767249483353 132.7640387781139,45.879130469518714 134.34443021766492,46.797543080981995 135.450704225339,45.36722347607429 137.7521492591768,43.93687658798444 138.63124199741287,43.71102984830213 137.40643863176228,42.551672543057066 136.44832632158068,42.98831571031042 135.08523870495264,43.03348554803233 134.9469544539752,43.77125571205397" stroke="#4dd2ff" stroke-linecap="round" stroke-linejoin="round" stroke-width="0.5"><title>2022-06-07 8.0km</title></polyline><polyline fill="none" points="186.73774964537006,41.412558257576165 185.6691040052683,43.3289537026576 183.82254720071796,42.75404153356067 183.38251664303243,43.34093098060839 181.87384044530336,44.586554756035184 181.04092546110041,45.04168003221275 180.6794717887533,45.49680183609962 179.6343992142647,47.48492479225388 179.25723016483244,49.02986615942791 178.6207573939173,50.32327467462164 177.96856924591702,53.221366020101414 177.6149732620397,53.5566732876905 176.26345083490014,54.77813382621389 175.1948051948275,55.42477928156586 170.49590745390742,56.52645539716468 168.00502018991392,54.07160577941977 166.68492851688643,53.353094100002636 164.61835643349332,52.91000758424343 164.46906035143184,52.622598355032096 164.67336025321856,51.65258198414449 164.5712103023252,51.185531439768965 163.5182800393086,50.65859823082792 161.46742333297152,48.58674753378 157.89217505184934,48.45500892927885 157.42857142857974,48.15560192802877 157.42857142857974,47.59271269756937 160.1787624140561,45.544709192428854 160.16304703702917,45.30517202607007 159.95874713524245,45.26924136817979 159.22012441343395,45.88005960941882 159.01582451164722,45.79622218188888 159.09440139692742,45.58063968440911 163.51042235078057,42.10725872024341 163.57328385900473,40.598071549855376 163.7932991378475,40.52620454173666 165.6948597621231,40.981360797653906 168.20932009170065,40.63400502147124 171.1480956019077,39.04093365429435 174.07901342358673,38.21443625788743 175.41482047367026,37.962891298913746 175.80770490018767,38.17850132871172 178.9743533777364,37.759258888549084 179.57939539453946,37.86706436888562 179.73654916515807,38.825326741884055 182.91105533123482,39.136758698565245 183.8382625778031,39.48412319354611 183.46895121689886,40.75378310379892 183.8382625778031,41.75990950020787 183.82254720071796,42.7300867395752 185.1976426934707,43.11336228854998 186.4077267270768,43.784088573713234 187.00491105538094,42.897770095281885 188.28571428573923,41.92759558308535 188.0814143839816,41.43651358062198 187.2642147768638,41.38860292490426" stroke="#4dd2ff" stroke-linecap="round" stroke-linejoin="round" stroke-width="0.5"><title>2022-06-05 8.1km</title></polyline><polyline fill="none" points="17.867660374671686,76.15495508089953 18.0030647070962,76.4072218779329 18.153513965313323,76.06322156200622 19.778365953883622,76.15495508089953 22.772306192084216,75.1229487454475 24.111304590071086,75.94855455981451 27.255694086430594,76.59068828939053 27.646862157795113,77.11815258088609 30.17440969555173,75.74215366571298 30.851431357499678,76.4301551954486 31.51340809359681,77.89787794094445 31.18241972551914,80.62687478329462 31.979800793982577,82.55318623829226 33.78519189241342,85.14448254428862 35.68085254577454,86.74968085630098 38.53938845160883,90.25810720273148 40.99171136028599,93.67470641444379 41.969631538551766,96.05938624710689 42.57142857136205,95.76130399053363 41.352789579948876,92.66578842131275 40.916486731148325,90.28103773944167 41.09702584100887,89.86828737477481 42.405934387410525,89.34088196048106 42.420979313203134,88.88226657730411 40.66072299220832,81.20018515959237 39.065960855339654,77.43921660911292 36.19238002365455,73.9303964773062 31.18241972551914,69.7334308171412 27.676952009438537,67.87570825005241 22.18555408512475,66.7977566100235 17.130459009553306,66.93536802423478 15.294978059420828,67.14178483461728 14.271923103719018,67.64635768939479 14.422372361877933,68.60962694913906 13.8807550323545,70.90309248650738 13.459497109404765,71.0177645543954 11.714285714260768,74.73307725853374 14.347147732740268,74.09093308484444 17.32604304520646,74.43493934114667 18.0030647070962,74.68720993728493 17.79243574559223,75.83388744248077 18.33405307517387,76.13202170810837 17.95792992960196,76.31548856171139" stroke="#4dd2ff" stroke-linecap="round" stroke-linejoin="round" stroke-width="0.5"><title>2022-06-04 5.1km</title></polyline><polyline fill="none" points="78.75882389428443,87.32122181381419 78.85261460204492,86.03450494800927 77.86111283415812,85.74856565622031 75.94510266114958,85.56474711566989 73.33236151601886,86.17747429249721 74.00229514294188,84.23715890320454 75.18137832640787,82.54190568753984 75.74412257302902,80.58109564343613 75.54314248496667,79.82535667996126 76.72222566837445,79.31471906629304 76.7490230134863,78.57939639870165 73.21177346320474,76.29169187956722 71.48334470562986,75.74018398529006 69.7549159481423,75.53592104332347 63.336951801989926,75.98529897420667 62.61342348490143,76.25083954555885 60.951988090062514,76.08743004521239 56.74480491282884,79.294293508392 54.33304385581869,80.35641707864124 49.9516779356054,80.17258879293513 48.37063457601471,79.7436548340338 48.142857142869616,80.31556637722679 48.946777495148126,80.54024503216351 54.45363190869102,80.70364737866475 57.06637305376353,79.58025094530603 61.01898145274026,76.20998719508498 63.43074250975042,76.3733964985222 69.33955709944712,76.04657762910938 71.75131815642817,76.41424878330145 73.37255753361387,77.49682835240674 72.80981328702183,78.37513915867021 72.26046771294205,81.84745645333169 74.68562744249357,82.70530481830792 73.42615222383756,86.01408073955827 75.7977172631654,85.34007955932611 77.45915265800431,85.52389850591135 79.0,86.03450494800927 78.82581725699129,87.21910202230356" stroke="#4dd2ff" stroke-linecap="round" stroke-linejoin="round" stroke-width="0.5"><title>2022-06-03 5.0km</title></polyline><polyline fill="none" points="115.21409954075352,87.34421680191736 114.97281866701087,87.07858979114826 115.26771751276101,86.22040547910728 113.75300980516477,85.62784542067675 112.090852674708,85.50524635711918 110.01315626167343,86.22040547910728 109.66463944397401,86.07737405679654 109.87911133180023,85.01484862566576 111.83616730791982,81.84763968920015 112.13106615366996,80.5602943309641 111.92999875883106,79.76335809018201 113.13640312771895,79.27293268580252 113.08278515576967,78.6803321685511 109.53059451410081,76.28946054802509 107.4931115800282,75.65597232810978 106.13925778825069,75.5129260552203 100.24128087377176,75.96249937864195 98.5791237433441,76.37120067622163 97.30569690954871,76.10554501951992 93.06987712552655,79.33423599065281 90.73749534570379,80.3355180745275 85.56336105251103,80.13117559228704 84.85292292421218,79.72248939676501 84.57142857142026,80.27421537291957 85.30867568578105,80.5398601463603 89.38364155392628,80.76463595146197 91.67580985478708,80.49899176481995 93.94116916970233,79.12989149761415 97.47995531838387,76.18728529546206 99.0482809979294,76.43250572925899 102.96239295025589,75.98293448252662 108.27057217329275,76.37120067622163 109.67804393696133,77.16816348490829 109.74506640192703,77.57685993980704 109.00781928756624,79.10945702576282 108.6458979769086,81.90894144285267 111.38041454638005,82.68542712619819 109.82549335979274,86.03650789921812 112.38575152039994,85.40308035792987 114.27578503169934,85.70957804768841 115.42857142857974,86.179539378958 115.2006950477953,87.16032125293714" stroke="#4dd2ff" stroke-linecap="round" stroke-linejoin="round" stroke-width="0.5"><title>2022-06-02 5.0km</title></polyline><polyline fill="none" points="131.52856054838048,76.08298759800527 133.18539875966962,76.02925228592358 134.9479926014901,75.47398549877107 135.53552388204844,75.63519234141859 135.52377325645648,75.20530678027717 138.08540963986889,76.35166367301281 139.1547165705415,76.40539879087737 139.29572407790693,76.7278088185194 140.15351974760415,76.42331048967753 141.1523229246086,75.63519234141859 141.82210858448525,76.19045812512923 142.36263736264664,77.35471386968857 142.12762485040003,79.71900185249251 142.67990425418247,80.88321154652658 144.06647807639092,82.99666108813835 145.7703187901061,84.44738984383002 149.7655314982112,89.65907261516259 151.1991078228748,94.22576085432956 151.8571428571595,94.15412833355367 149.62452399084577,87.4741430193244 149.62452399084577,86.84730907698395 150.84658905450488,86.16674152424093 149.5305189859646,80.29215313905297 148.14394516375614,76.9964829513483 144.92427374605904,73.073760270192 142.09237297356594,70.9242500249893 139.62474159503472,69.65243207300227 137.0396039604384,68.98964651636197 133.13839625724358,68.63138200281537 129.87172233709134,68.95382012976188 128.82591665760265,69.32999647138786 127.09857469264534,69.27625709115091 122.12806005877792,69.84947547800402 121.62278315745061,70.01069248560088 121.56403002940351,70.67347045565839 121.03525187683408,70.72720899413252 121.0,72.08857450415235 124.43118267870159,72.33935009510606 126.79305842673057,72.96628598808456 127.34533783048391,73.360357722755 126.8753128060489,74.91871525530587 129.07267979544122,74.36344155535335 131.83407681426615,74.82915521487303" stroke="#4dd2ff" stroke-linecap="round" stroke-linejoin="round" stroke-width="0.5"><title>2022-05-30 6.1km</title></polyline><polyline fill="none" points="173.32707087960443,78.58428464809913 173.45004269856145,78.46378167094372 174.31962913263123,78.53072779624199 176.0500182994001,77.94159958680757 178.0351348054246,78.73156576889232 178.80810052459128,78.74495494555595 179.1067463706131,79.02612703455088 180.37159936560784,78.22277506333194 180.67902891302947,78.4503924377932 181.23240209836513,79.41441035126991 181.0040258631343,81.00768718422842 181.24996950104833,81.73067419872314 182.55874100283836,83.75231850516502 183.65670367208077,84.66270784733206 186.74856654874748,88.63882150117934 187.8816640234145,92.13278629344495 188.23301207760233,92.10601331287035 188.28571428571013,91.69103073894075 187.23167012320482,89.06721017222662 186.66072953521507,86.81813894847801 186.75735025008908,86.55038732176399 187.55666707330965,86.24247162203028 187.60058558010496,86.00149312616486 186.19519336344092,80.43196969603014 185.49249725509435,79.11985080076192 183.79724289375008,77.05789751324846 181.0391606685589,74.7013013920623 180.60875930218026,74.63435142191156 178.8783701354405,73.64348400418385 176.53312187385745,73.12126416965839 174.14395510553732,73.00075131930862 172.14127119680052,73.25516708123905 171.82505794803728,72.67938265348857 169.60278150544036,71.28676720259318 167.31023545202333,70.72435656369635 163.63864828596707,70.99217174527803 162.64609003294026,71.25998585113848 161.72380139076267,71.1394696366624 161.17042820545612,71.27337652821734 158.9569354642008,73.05431261298872 158.0434305233648,73.58992318375022 157.46370623397524,73.71043496925995 157.42857142857974,74.08535913118249 159.49274124679505,73.02753197151469 161.62718067588867,71.1260789326916 164.33256069297204,71.2332044889954 165.25484933514963,71.00556247609711 166.17713797729812,71.16625103644765 167.52104428451275,71.07251608999286 168.60143955107196,71.24659517141117 169.75210442848038,71.83578253615633 170.42844943274395,71.4474550852101 171.28046846410143,72.31784105299812 171.8865438575158,72.6258210585911 171.84262535074959,73.21499623600175 171.58789801146486,73.34889895937522 171.57911431012326,73.60331339290133 172.0270830791851,73.93806774755285 173.0986946443736,74.2728204215855 176.8142003172252,73.9514578867711 177.30608759302413,74.16569974875893 178.40405026232474,75.25028861148166 181.0128095644759,74.56740138455643 183.54251555449446,76.70976923836497 185.47492985241115,79.03951615209371 186.37086739050574,80.83363358408678 184.0080517262686,81.48967939817885 183.66548737342237,81.11479686616804 183.33170672197593,79.89641408175521 182.59387580823386,78.9056248558627 181.32023911189754,79.50813357172956 180.47700378188165,78.37005698260327 179.062827863876,79.07968348852592 178.74661461511278,78.83867910694244 178.0439185067662,78.79851162534396 177.42905941198114,78.51733857657382 176.54190557519905,78.46378167094372 175.8919116750185,78.6378414569408 175.28583628160413,79.13323989947821" stroke="#4dd2ff" stroke-linecap="round" stroke-linejoin="round" stroke-width="0.5"><title>2022-05-28 10.0km</title></polyline><polyline fill="none" points="27.765613579162164,112.72029106189802 29.0198976691172,112.66681023170895 30.353122715838253,112.05177759730213 31.116218630748335,112.59995913359671 31.774059936666163,112.68018044329438 32.36173150330433,113.01443486002972 33.03711524407845,112.98769456846276 33.370421505736886,113.3353175215816 34.34402663851506,112.64006980051272 34.7738162917376,112.53310796832739 35.5018273369933,113.65619863680331 35.37025907577481,115.3809081390391 35.81759116379544,116.49058133336803 36.598229513532715,117.76066651112342 38.098107691068435,119.13767886047935 41.062779176514596,122.98781470610629 42.1767237878812,126.43670572249539 42.57142857144936,126.27629614733814 42.518801266967785,125.60791875864743 41.42239909039927,122.90760581301947 40.95752456752234,120.91572064629145 41.90481604807428,120.43445086390057 40.63298952326295,115.00655638397802 39.74709656462073,113.24172690503474 37.37886786326999,110.66124809134999 35.326402988721384,108.9899001614067 34.18614472509944,108.5352862668442 33.38796394056408,107.97370011163366 30.949565499904566,107.39873795025414 28.528709494014038,107.23828250746374 26.37099001056049,107.47896552666134 26.230650531942956,106.94411319142091 23.915049135073787,105.49999042511627 21.731015999335796,104.99186570607708 15.529765288694762,105.49999042511627 13.336960935615934,107.26502510814316 11.714285714289872,108.04055585464084 11.73182814908796,108.30797815554615 12.082676845602691,108.30797815554615 13.003654673899291,107.82661724060017 15.61747746283072,105.58022028943378 16.00341102897073,105.44650379518862 18.573377730848733,105.47324711552574 19.354016080556903,105.21918513868513 20.160968082520412,105.40638879457401 21.880126695352374,105.33953040644337 22.92390156746842,105.5401053693422 24.081702265888453,106.12845510810803 24.74831478926353,105.70056490458956 25.493868269317318,106.56971400037946 26.20433687971672,106.95748455215289 26.30959148867987,107.33188156276447 25.89734427028452,107.77313247966958 26.107853488181718,108.09404040075242 26.607812880683923,108.32134924244747 28.081377405993408,108.58877041555388 31.107447413291084,108.2010093640929 31.4933809794602,108.36146248684236 32.738893852045294,109.55147774581928 34.18614472509944,109.05675488413544 35.30008933649515,108.92304537158998 37.61569073339342,110.74147173681558 39.52781612932449,113.00106471559411 40.24705595712294,114.17762715104982 40.589133436238626,115.18036281770401 38.24721838708501,115.7686273810541 37.9753106473072,115.4343867894022 37.66831803784589,114.24447666526248 36.826281166257104,113.14813615694584 35.62462438075454,113.7631586649295 34.72996020465507,112.57321867554492 33.344107853481546,113.36205767357751 33.0283440266503,113.08128554206269 32.35296028590528,113.05454527730762 31.73897506701178,112.70692085835617 30.142613497911952,112.9074736292423" stroke="#4dd2ff" stroke-linecap="round" stroke-linejoin="round" stroke-width="0.5"><title>2022-05-26 10.0km</title></polyline><polyline fill="none" points="54.27380677469773,109.14937821656349 56.22147372592008,109.06269554164464 58.80888529634103,108.21753581215307 61.893876014859416,109.64780224653077 62.96011704654666,109.58279054704326 63.4434796476271,110.27624665550684 65.8602926529129,108.78097636719758 67.0971322497353,110.73132480526692 66.71328547829762,112.96334699165163 67.55206175660715,115.1736535708551 68.53300350578502,116.84218835867068 71.26258054707432,119.42078229571052 76.03934036922874,125.57448863697209 77.80219220835716,130.99119332365808 78.5841022983659,131.14285714285506 78.44193682743935,130.12453884020942 76.32367131102365,124.98946826645988 75.98247418086976,122.32433534187294 77.27617996605113,121.82596984942211 77.41834543697769,121.45761126734578 75.02996552584227,112.09654774138471 73.99215758830542,110.16789443227754 70.86451722856145,106.54886768177676 66.74171857244801,103.1247665731862 64.46707103808876,101.8461186800705 60.87028462433955,100.67581749950477 56.05087516090134,100.28571428571013 51.84277722227853,100.69748985890328 50.83340237889206,101.00090243382874 51.060867132327985,101.8244465513053 50.506421795871574,104.20835462333343 49.4970469524269,105.37861749742297 48.558754844532814,107.76244706259604 50.961351302685216,107.11231694855087" stroke="#4dd2ff" stroke-linecap="round" stroke-linejoin="round" stroke-width="0.5"><title>2022-05-24 5.1km</title></polyline><polyline fill="none" points="115.37488348971237,121.68880158545653 115.0795998259855,121.36144952222821 115.34803952026414,120.3180078018122 113.33474181321799,119.90881205340702 111.89858944882872,119.99065133456315 110.04635555829736,120.5635244620862 109.72422792515135,120.33846754607657 110.30137326786644,118.80397532423376 111.73752563225571,116.45104236550105 112.20729509720695,114.9369524252179 112.03280929598259,114.09805506893463 113.29447585908929,113.56606780071161 113.29447585908929,113.17730611727893 113.06630211893935,112.62485275226936 111.24091219785623,111.3971678828675 108.19412166779512,110.06715924711898 105.99291617469862,109.73976984311594 100.35568259490537,110.21039178055798 98.70477847507573,110.5787030847423 97.55048778973287,110.33316236321116 96.70490275273914,110.61962648085319 93.10781084944028,113.54560669642524 90.86633940221509,114.5686568754536 85.96731498165173,114.40496953711408 84.7593363574124,114.05713307003316 84.57142857142026,114.44589139640448 85.10830795997754,114.73234395084 87.79270490276394,115.01879569993616 91.71192443920881,114.83464823934628 93.92655191695667,113.54560669642524 96.87938855405082,110.8856281545959 97.68470763688674,110.5173179598496 105.48288075558958,110.39454759911314 108.26123159137205,110.66054986049858 109.77791586401872,111.7040904871028 109.02628472007927,113.15684493497974 108.6907351021946,116.10321288346313 111.4153979991388,116.9420937304094 109.8316038029152,120.33846754607657 112.46231280680513,119.72467343048629 113.84477723232703,119.86789238823985 115.42857142855064,120.29754805345146 115.34803952026414,121.13639436868834" stroke="#4dd2ff" stroke-linecap="round" stroke-linejoin="round" stroke-width="0.5"><title>2022-05-22 5.0km</title></polyline><polyline fill="none" points="127.20283790002577,108.70022348206112 127.28754241595743,109.15213494934869 128.38870112324366,109.19517403734062 129.91338241036283,108.97997842456243 131.80511659983313,108.22679037717899 132.42628305009566,108.76478237974516 133.90861207916168,109.00149800530926 134.98153594788164,109.6255639665178 136.0968120744801,109.53948611895612 136.43563013826497,110.05595216733491 138.58147787558846,108.70022348206112 139.28734884184087,109.25973263687774 139.97910238872282,110.61545424452197 139.61204948631348,113.2622898624104 140.52968174236594,115.32806736599741 142.06848044873914,117.5229123371173 143.9743320575799,119.13674025892396 148.97189849842107,125.59180896262114 150.7789281720179,131.14285714285506 151.44244688027538,131.0137662641646 151.34362494491506,130.3898248251644 149.07072043372318,124.88177043452015 148.71778495062608,122.57949194622051 148.85895914386492,122.19218790186278 150.08717462507775,121.69729736414592 150.17187914106762,121.09481884267734 148.01191398437368,112.44457526728365 146.9954597930191,110.37874218373327 143.0849346400937,105.77351260883734 139.62616690562572,103.08345050518983 135.81446368794423,101.23264856767491 131.33924176212167,100.37179956615728 128.34634886524873,100.2857142857174 124.88758113078075,100.6730975032624 123.85700952011393,101.08200049160223 123.96994887467008,101.92132279007637 123.41936952102697,104.31012719959836 122.68526371615008,105.02030202615424 121.41469597694231,107.882474078222 123.85700952011393,107.10775836091489 125.9322701607598,107.3014378153166 127.32989467395237,107.86095427285181 127.019311448792,108.67870384080743" stroke="#4dd2ff" stroke-linecap="round" stroke-linejoin="round" stroke-width="0.5"><title>2022-05-16 5.4km</title></polyline><polyline fill="none" points="175.42215248558205,113.0556483361579 176.12310106269433,113.11435575679207 177.6482419228414,112.62121159150774 178.0102703088487,112.93823331804015 178.819057128625,113.09087279560481 179.22730190432048,113.33744341770944 179.91284501820337,113.31396054611105 180.15162969831727,113.6309785169542 181.39176948863314,112.91475028614514 182.09271806580364,113.97147738611602 181.93866343345144,115.49782726261037 182.55488196277292,116.80106370317299 183.36366878257832,117.90468266175958 184.2802938449604,118.6678112506379 186.95314171601785,122.07241747945955 187.93909136299044,125.07769827719312 188.28571428573923,125.05422011947667 188.27030882250983,124.71378577359064 187.16881820128765,121.79066448677622 186.86841166825616,120.5344992107348 186.92233078955906,120.28795893298593 187.64638756154454,119.93575673326268 187.66949575641775,119.71269424299317 186.54489694032236,115.12211406635834 185.85165109482477,113.76013349382993 184.0261037016171,111.59968544753428 181.56122958421474,109.62703273385341 180.15162969831727,108.92249777908728 178.7651380073221,108.558484726389 176.26945296343183,108.32363639298273 174.02795806291397,108.52325753652258 173.86620069897617,108.07704462772381 172.8032237358566,107.30203516648544 171.7556522359664,106.71489994782314 170.24591683904873,106.35087315137571 166.7026602952683,106.57398661806292 165.8476570858038,106.79709923336122 164.67684188004932,106.72664270999303 162.34291420015506,108.52325753652258 161.07196348335128,109.08689002781466 157.99857356824214,108.98120934954568 157.58262606093194,108.76984741997512 157.52100420801435,108.87552848025734 157.42857142857974,109.0986323136276 157.87532986237784,109.21605504187391 160.9564225091308,109.36870423610162 162.28129234720836,108.85204381669973 165.00035660798312,106.7383854697764 166.5177947364864,106.84407020178696 167.64239355255268,106.6679288756277 170.06875401188154,106.69141441644388 170.99308180590742,106.80884197901469 172.056058769027,107.30203516648544 172.3949789601611,106.98498288066185 170.79281078386703,106.4565585838136 169.83767206335324,106.35087315137571 166.5948220526625,106.55050103005124 165.4625205049815,106.84407020178696 167.11860780260758,106.79709923336122 168.08144925470697,106.57398661806292 170.07645674346713,106.65618610169622 171.13173097500112,106.87929840333163 172.1484915484034,107.31377781074116 172.6106554454309,106.97324017039864 173.37322587548988,107.75999654428597 173.90471435704967,108.01833214938597 173.93552528353757,108.4762879169939 173.28849582772818,108.73462035744888 173.35782041226048,109.08689002781466 174.86755580917816,109.80316514616425 176.26945296343183,109.69748576241909 176.32337208476383,111.31788199139919 175.97674916201504,111.52923471081522 175.96134369875654,111.89322927018293" stroke="#4dd2ff" stroke-linecap="round" stroke-linejoin="round" stroke-width="0.5"><title>2022-05-14 9.9km</title></polyline><polyline fill="none" points="24.995635728817433,146.40073129827215 25.99068955486291,146.46459601220704 28.075065464072395,145.73014870513725 29.03869653766742,146.32090033374698 29.635728833265603,146.3687989221071 30.33750363686704,146.78391881242715 30.986907186510507,146.72005435496249 31.61536223453004,147.13517241155205 33.16555135292583,146.09737320664863 34.15013092814479,147.6141520916135 33.930171661340864,149.54600751529506 34.4957812045468,150.88710268858995 35.19755600814824,152.10045502313733 37.03054989816155,153.80869600760343 40.75938318300177,158.5979610476861 42.21530404422083,162.76438702311134 42.529531568230595,162.65264664631832 42.571428571420256,162.0460532898578 41.356415478599956,159.0928353266645 40.69653767818818,156.3151140210539 40.79080593539402,156.05968650104478 41.80680826300522,155.5488289997811 40.63369217343279,150.44007347726438 39.32441082337755,147.29483262547728 36.52778585976921,143.98980082928028 33.98254291532794,141.96200800843508 31.28018620889634,140.652696979334 28.588303753291257,140.09383814546163 26.378236834454583,139.9181959863563 23.24643584518344,140.20561022645416 22.98457957521896,139.63078070730262 21.570555717218667,138.59288354957243 20.072737852780847,137.7465881472308 18.89962176317931,137.37932507545338 17.454175152728567,137.23561297689594 12.499854524270631,137.61884466249467 11.714285714289872,137.90626721448643 17.757928425940918,137.63481260929984 19.727087576378835,138.11384952253138 20.36601687516668,138.64078679357044 19.737561827147147,139.9181959863563 19.486179807950975,142.15361269209097 21.497235961607657,142.95196057065914 20.397439627558924,145.45872080960544 22.08379400637932,144.9477951986264 24.136747163225664,145.15535912402265 24.73377945885295,145.3788888993222 24.629036950849695,146.32090033374698" stroke="#4dd2ff" stroke-linecap="round" stroke-linejoin="round" stroke-width="0.5"><title>2022-05-12 7.0km</title></polyline><polyline fill="none" points="59.3197382769722,144.6870208252367 60.63882224645931,144.6870208252367 62.817666303162696,143.93299948065396 63.33587786258431,144.39977534853824 65.16139585603378,145.02812363018165 66.2567066521151,145.06402911290934 66.76314067613566,145.548751718321 68.6239912759047,144.41772821785707 69.55441657576011,145.9257563724168 69.41308615048183,148.56474444151536 70.20218102508807,150.1624612690648 71.37993456923869,151.83195509209327 72.88745910578291,153.1064939097414 75.18407851687516,155.90682524890144 75.4196292257111,156.58894395871903 76.5502726281411,157.7557138997363 77.28047982550925,159.0301682843492 78.3404580152419,162.65598140951624 79.0,162.47648916911567 77.0449291166733,156.57099353303056 76.93893129768549,155.70936886178242 78.15201744818478,154.95544046362193 76.86826608507545,149.31872672658938 76.00850599780097,147.00290376767225 75.34896401307196,145.74623054492258 72.69901853869669,142.5506104995875 70.56728462377214,140.62959292069718 68.16466739366297,139.0317057324355 66.57470010904945,138.27763669130945 64.85517993455869,137.82878305205668 60.88615049072541,137.34401859048376 57.09378407851909,137.70310362919554 56.09269356596633,138.08014136768907 54.479171210492495,137.9903706217592 48.82595419845893,138.6905800492459 48.73173391493037,139.4266917394707 48.39018538710661,139.39078399279242 48.18996728461934,139.660091741629 48.142857142869616,140.68345378904633 48.37840785170556,140.9707112056276 50.156815703376196,140.8988969380589 53.23075245364453,141.4015956000294 54.53805888767238,141.9940582516574 54.172955288988305,143.66370460224425 56.18691384952399,142.96353412226017 57.60021810251055,143.0892061506238 59.03707742638653,143.52008033540187 58.80152671755059,144.41772821785707" stroke="#4dd2ff" stroke-linecap="round" stroke-linejoin="round" stroke-width="0.5"><title>2022-05-10 6.0km</title></polyline><polyline fill="none" points="102.4514841606142,147.44308446688592 103.22118091437733,147.43135178085868 104.7297865516739,146.8916456779334 106.38463457219768,147.63080712256487 107.06966468301835,147.63080712256487 107.27748280653032,147.90065738352132 108.41663400206016,147.1849648305615 108.6090581904864,147.27882664843128 109.19402772330795,148.17050639825902 109.00160353488172,149.61359084678406 109.45572461959091,150.72814387389008 110.16384563304018,151.80748022773696 111.41845134162577,152.96891773098469 113.53511741440161,155.6905798343687 114.1893596550508,156.7111704439667 114.95905640878482,159.32708567162626 115.42857142855064,159.30362506887832 115.16687453229679,158.1540439969467 114.54342016178998,156.74636290570197 114.02772333676694,154.9397891562985 114.0123294016812,154.55265894376862 114.80511705804383,154.10686946142596 113.60439012220013,149.21469301865727 113.01942058937857,148.01798319522277 111.55699675728101,146.18767370400747 109.9098457043001,144.6858384786683 108.97851263228222,144.0639735295008 107.31596764418646,143.20743172545917 105.77657413674751,142.8319573870358 103.51366568077356,142.62075201129846 101.20457541960059,142.79675654410312 100.91978762071813,142.32740994510823 99.03403057402465,141.0836232235706 96.99433417664841,140.61426286268397 93.42294123934698,140.87241152780553 92.86106260909582,141.06015529510478 91.73730534868082,141.02495338469453 89.77457862667507,142.56208371588946 88.17360937886406,143.34823398032677 85.19488294192706,143.26609937289686 84.72536792216124,143.05489556647444 84.57142857142026,143.336500472029 87.08063998859143,143.64157092145615 88.50457898297464,143.53596979233043 90.02857855535694,142.72635479459132 91.93742650462082,141.06015529510478 94.38506218150724,141.07188926051458 95.00851655201404,140.8372095042505 95.78591027332004,141.00148543259638 97.88718241098104,141.06015529510478 99.2726365677081,141.61164912268578 99.70366674978868,141.24789845911073 100.44257563338033,141.98713130325268 101.00445426360238,142.2218064407498 100.99675729608862,142.77328930368822 100.68887859457755,142.9727605466942 101.42778747814009,143.54770326053404 103.08263549866388,143.72370500106626 105.16851370129734,143.44210196170025 105.93821045503137,143.7823721301247 107.0311798453331,144.7327714137391 107.57766454049852,144.5215729088959 109.44802765204804,146.03514532506597 110.6102697501774,147.90065738352132 110.44863343192264,147.7246682242294 109.21711862593656,148.35822671699134 108.96311869719648,149.4845359650826 109.08627017779509,149.9420928958898 110.16384563304018,151.80748022773696 111.27990592594142,152.80467544502608 113.87378398602596,156.06597155615236 115.1129957595258,159.3857371373124 115.33620781809441,159.2918947639846 115.35929872072302,158.9282541440989 114.16626875242218,156.0190477228207 113.9122688237112,154.76382119581467 113.98154153153882,154.5643901999938 114.77432918790146,154.14206349155575 113.78142037556972,149.9420928958898 113.17335994014866,148.3699592169105 110.9104514841456,145.6479561134256 109.27099739867845,144.33384026374551 107.21590706624556,143.20743172545917 104.32184727219283,142.6559529602564 101.1506966468005,142.7615556799683 100.97366639346001,142.3156762318431 99.69596978224581,141.34176981491692 98.19506111249211,140.80200745952243 97.16366746247513,140.6377309703057 93.91554716174142,140.84894351444382 92.60706268038484,141.10709114266865 95.3471831236966,140.93108151988054 95.30869828598225,142.5268827103646 95.08548622738454,143.75890528553646 95.53960731209372,143.9114396066252 95.21633467552601,144.00530668321517 95.2702134483261,144.8735699928875 98.26433382031973,145.20209869139944 99.24184869756573,145.56582473868548" stroke="#4dd2ff" stroke-linecap="round" stroke-linejoin="round" stroke-width="0.5"><title>2022-05-08 15.0km</title></polyline><polyline fill="none" points="132.10763209391735,144.56004272627615 132.96477495107683,144.5958390298838 135.53620352246799,143.77252041028987 138.0489236790454,144.86431084855576 138.95303326807334,144.82851465282147 139.48140900192084,145.3296600855101 140.83170254403376,144.4347555504719 141.45401174167637,144.36316279957828 142.39334637959837,145.90239427291817 142.09980430526775,147.81744748781057 142.71037181996508,149.4640024039545 144.2720156555588,151.7548108243427 145.70450097846333,152.88229647601838 149.76712328766007,158.268975548468 151.34050880625728,162.77850306858454 151.85714285713038,162.65324149538355 151.81017612523283,162.04482563630881 150.49510763207218,158.82373131809436 149.68493150683935,155.49514491588343 150.9060665362049,154.8150958449187 149.57925636006985,148.83759922681202 148.8864970645518,146.81518177800172 148.01761252441793,145.3296600855101 145.634050880617,142.50173109173193 142.74559686885914,139.9600981008407 139.08219178079162,137.9732781802668 133.34050880622817,137.22149693141546 121.71624266143772,138.49236153243692 121.62230919764261,139.17253514222102 121.02348336591967,139.42312411117746 121.0,140.12118966687558" stroke="#4dd2ff" stroke-linecap="round" stroke-linejoin="round" stroke-width="0.5"><title>2022-05-05 5.1km</title></polyline><polyline fill="none" points="170.59220779221505,146.54858802114904 171.97402597405016,146.64361089794693 173.7610389610636,145.9942856246489 176.08831168833422,146.89700467650982 176.94025974028045,146.89700467650982 177.22077922083554,147.24541979271453 178.84155844157794,146.29519312324555 178.9766233766568,146.39021630536445 179.77662337664515,147.76803958126402 179.55844155847444,149.30420497160958 180.06753246753942,150.96703069406067 181.02337662340142,152.43978991718905 182.81038961041486,154.13422081086173 184.5974025974283,156.28783745190594 186.52987012991798,159.21729511095327 187.58961038963753,162.63749720625492 188.28571428573923,162.63749720625492 186.58181818181765,156.8579026029911 186.54025974028627,156.06614433605864 187.32987012990634,155.84445059717837 187.45454545455868,155.59108556124556 186.20779220783152,150.03268531713547 184.87792207792518,147.34044183004153 182.7376623376913,144.6956190408673 179.60000000003492,142.08238367008016 176.94025974028045,140.7361377170164 173.26233766236692,140.0709253515961 169.0649350649328,140.27682501664822 168.71168831171235,139.64328586812917 166.4883116883284,138.059415731208 164.78441558443592,137.489214694986 163.01818181821727,137.36250279375236 158.61298701300984,137.71096003229468 157.44935064937454,138.059415731208 157.42857142857974,138.2178041762745 161.15844155845116,137.94854363033664 160.8259740259964,141.59140251403733 161.35584415585618,141.7656219837736 161.0545454545645,141.78146009828197 161.00259740263573,143.11185036445386 165.0649350649328,143.5553087995795 166.4571428571362,144.03044007037533 166.60259740264155,144.26800463237305 166.13506493507884,145.31328020458022 166.2077922078024,145.56667825708428 168.05714285714203,145.05988133791107 169.34545454545878,145.13906857121037 170.9142857143015,145.6617023169092 171.8701298701635,145.6458649815322 172.77402597406763,145.3291176066923" stroke="#4dd2ff" stroke-linecap="round" stroke-linejoin="round" stroke-width="0.5"><title>2022-05-04 7.1km</title></polyline><polyline fill="none" points="22.524262348510092,178.74941280978965 24.39047981306794,178.71363007179752 26.280171711114235,178.05164682782925 28.639352279511513,179.05356550213037 29.88349725585431,179.19669582160714 30.03608107371838,179.64397658823145 31.99619627231732,178.4810419249261 33.0642829973076,180.09125510954618 32.782589795126114,182.2202700925991 33.39292506658239,183.740963936747 34.84833994458313,185.86989171997266 36.36244090634864,187.19373712993547 40.08313861870556,191.9343735641596 40.64652502309764,192.88247058824345 41.867195565922884,196.97884933398745 42.571428571420256,196.96096162650065 42.39537032006774,195.86980468159163 40.91648100852035,192.5604765036187 40.411780687922146,190.43170856112556 40.37656903764582,189.75192321166833 41.4446557626361,189.30469318001997 41.59723958050017,189.01846478174411 39.68407324893633,181.48674966593535 38.65119817419327,179.44717332754954 37.500950931891566,177.962189255486 33.14644351461902,174.07964407767577 30.059555507235928,172.41564435233158 26.46796717925463,171.6283648353201 22.629897299339063,171.59257923744008 19.62516980926739,172.1651470787765 17.85285007877974,172.1472543894488 12.383307069481816,172.8092815022319 12.348095419205492,173.48919611938618 12.13682551754755,173.75758204009617 11.79644623157219,173.6323353776752 11.714285714289872,174.20489011125755 11.79644623157219,175.11739161332662 12.277672118652845,175.7078287819968 14.202575667004567,176.8886913816459 17.33641254142276,177.76538228015124 17.99369667985593,179.2861521545783 18.017171113402583,180.84267797102075 20.822365918575088,181.61198528818932" stroke="#4dd2ff" stroke-linecap="round" stroke-linejoin="round" stroke-width="0.5"><title>2022-05-01 6.0km</title></polyline><polyline fill="none" points="55.164158686762676,177.73453101120685 55.07973421929637,177.49859834204835 56.97928473720094,177.69163420102268 58.273793238273356,177.2197681520629 58.35821770573966,177.82032457990135 58.34414696111344,177.2197681520629 59.46980652725324,176.79079720780283 60.34219269105233,177.4128045149264 61.63670119212475,177.5629436671079 62.565370334195904,178.09915320222353 63.831737346132286,178.03480820015102 64.12722298223525,178.61391182359512 66.11119796760613,177.36990757556487 66.4911080711754,177.45570143715304 67.64490912650945,179.23590851471818 67.39163572405232,182.1313626804549 68.10924369754503,183.69702001757832 69.15047879621852,185.4127825272153 71.50029314053245,187.60033976015984 76.22806331841275,193.54083291161805 78.39495798322605,199.63110388770292 79.0,199.48099574814842 78.92964627715992,198.62323090452992 76.4250537424814,191.69652743657207 76.56576118821977,190.68857959335583 77.8743404339184,189.93797395758884 76.10142661718419,182.38873258583044 74.56771545833908,178.76404928755073 71.64100058627082,175.20358973486145 67.64490912650945,171.8789571019006 63.45182724256301,169.8412278872347 60.75024428375764,169.17627625724708 56.894860269734636,168.9403246837246 52.63142466288991,169.36932715688454 52.15301934728632,169.66962786285876 52.92691029905109,170.42037593411078 54.75610709399916,170.95662132575671 59.68086769594811,170.37747618646972 60.94723470788449,170.6563242381235 63.25483681849437,172.6511390684973 64.6478405316011,172.1792507522332 65.49208520620596,173.2088225726984 68.22180965414736,175.3751808689267 69.95251123711932,178.184946478068 67.71526284934953,179.47183734668943 67.34942349034827,181.33780156837747 67.56048465904314,182.60320703343314 69.55853038892383,185.86316561960848 71.83799101039767,187.94348192826874 76.4250537424814,193.99118173743045 78.33867500489578,199.6096598807053 78.97185851086397,199.50243978101935 78.9155755325919,198.62323090452992 77.33965213992633,194.76320387919986 76.43912448704941,191.13894044329936 76.60797342198202,190.73147118464112 77.86026968929218,189.93797395758884 76.28434629668482,183.07504930216965 74.52550322457682,178.61391182359512 71.40179792849813,174.92475355401257 67.50420168071287,171.7288099601501 64.01465702563291,169.99137768239598 58.56927887437632,169.06902560659364 56.74008207931183,168.96177484827786 51.51983584131813,169.73397790428862 48.39613054529764,169.86267787088582 48.14285714284051,171.8360579400687 50.52081297640689,173.0157786123018" stroke="#4dd2ff" stroke-linecap="round" stroke-linejoin="round" stroke-width="0.5"><title>2022-04-30 10.1km</title></polyline><polyline fill="none" points="95.31559183672653,179.5653253411583 97.0318367347063,179.67283713319193 99.10073469387135,178.92025186866522 101.74563265303732,180.0849644695263 102.79183673468651,179.97745317400404 103.09746938777971,180.40749757907906 105.00179591836059,179.3861387331708 106.01273469388252,181.0525603009737 105.69534693879541,183.02355639452435 106.50644897957682,184.99450895741757 107.84653061223798,186.89374933532963 109.26889795914758,188.05835787755495 113.31265306120622,193.23620263592602 114.73502040814492,197.6254897453182 114.92310204080422,197.9658744204935 115.42857142857974,197.84046969121118 115.26399999996647,196.44309078701917 113.31265306120622,191.14001793777425 113.38318367346074,190.58461032267223 114.39412244895357,190.190447982779 114.52342857143958,189.92169993472635 113.08930612241966,183.68651802410022 111.78448979588575,180.80170312982955 108.43428571426193,176.8954076227892 105.68359183671419,174.67340177205188 103.05044897957123,173.34733965993655 99.05371428572107,172.4871807260788 96.37355102039874,172.41550044061296 93.57583673470072,172.68430121405981 92.42383673472796,173.06062093654327 91.1542857142631,172.98894111179106 85.65289795919671,173.63405746202625 85.32375510202837,173.72365658624767 85.12391836734605,174.3687676249101 84.57142857142026,174.29708885096625 84.68897959182505,172.8635012798768 89.24995918368222,172.50510078841762 89.30873469391372,171.19692677855346 89.70840816327836,170.60555415093404 90.4724897959095,171.05356407722866 89.80244897957891,172.34382009760157 89.53208163264208,174.90635659459804 92.02416326533421,175.71273397666664 90.4724897959095,179.0277644379239 90.89567346940748,180.38957910355384 90.82514285715297,181.67970014362072 92.92930612247437,182.23516318096517 94.61028571426868,183.3460788835946 95.99738775508013,181.5901090073312 94.70432653062744,180.90921343238006 94.95118367348914,179.81618598781643 95.26857142857625,179.708674368434" stroke="#4dd2ff" stroke-linecap="round" stroke-linejoin="round" stroke-width="0.5"><title>2022-04-28 7.1km</title></polyline><polyline fill="none" points="138.7359350519837,181.62519999521828 138.84361202109721,181.7424392527828 139.0205098988663,181.60175211545356 139.9665289844852,181.62519999521828 141.15866685655783,181.19141269525426 141.81241988323745,181.62519999521828 142.29696624414646,181.6486478655388 142.8045862412837,181.93002157525552 143.52756017661886,181.93002157525552 143.78906138727325,182.24656537789633 144.981199259375,181.49623653998424 145.59649622562574,182.63344991727718 145.42728955991333,183.899599577755 145.84261501210858,185.02504289363424 146.40407349381712,185.95117268549075 147.74234439540305,187.20552759032216 150.38043013817514,190.56987918235973 151.3110667995934,193.44173328559555 151.53411194987711,193.69960715177876 151.85714285713038,193.58239189924643 151.7648483122175,193.03147706068557 150.88805013531237,191.05048501536658 150.3650477140327,189.2100949101805 150.40350377440336,188.74119643974336 151.17262498219498,188.41296527007944 150.02663438254967,183.62995889546073 149.3651901438716,182.36380338783783 147.65004985046107,180.28865581968057 146.28101410056115,179.06932567352487 144.8658310782048,178.13136207904972 143.61985472156084,177.49822813422725 141.65090442958171,177.0175107387986 139.6204244409746,176.9119868783382 137.5591796040535,177.07613502335516 137.39766415042686,176.65403886084096 135.4133314343053,175.36428167843042 133.659735080495,174.9069972901998 129.78336419313564,175.1884034914474 129.34496510468307,175.36428167843042 128.43740207949304,175.21185394699205 127.92978208232671,175.43463280488868 125.73778664009296,177.13475924900922 124.56872240421944,177.6389251597684 121.57684090588009,177.52167766203274 121.25380999856861,177.36925556298593 121.0,177.70927354539162 124.44566301096347,177.92031819365366 125.14556331007043,177.74444770640548 126.25309784931596,177.14648408706853 128.46047571572126,175.21185394699205 129.02962540948647,175.28220525709912 130.4217347956146,174.96562369395178 134.02891326023382,174.87182141964513 136.16707021792536,175.58705995471973 137.46688505911152,176.75956318757744 137.42842899874086,177.0995847206541 136.7823671841761,177.38098035397343 136.8669705170323,177.9554922275238 136.60546930637793,179.05760122160063 136.0670844609267,179.72589122411227 135.31334567727754,181.44934066744463 135.7286711294728,182.10587945526277 135.71328870533034,183.05550285481877 136.72083748754812,183.27825178635248 138.2129326306749,184.09889841219774 139.06665717135184,182.86792414808588 140.6202820111357,181.97691706171827 141.63552200541017,181.6134760565037 140.58182595073595,180.74589805955839 139.81270474291523,181.07417233124943 138.75131747615524,181.10934446517058 138.28984475147445,182.3169082121094 138.48981626550085,182.58655495815037 139.12049565589405,182.8913715194176 140.07420595356962,182.25828918949264 139.881925651629,181.84795438333094 138.79746474861167,181.81278269434188" stroke="#4dd2ff" stroke-linecap="round" stroke-linejoin="round" stroke-width="0.5"><title>2022-04-27 10.1km</title></polyline><polyline fill="none" points="163.6056086527533,177.76994086008926 165.19118146214169,177.6404624029965 168.27738568023778,176.71252889527386 168.9852306843968,177.27360592733748 170.4150775927701,177.5541433449107 171.3069622980547,178.15837529553392 172.53861260524718,178.2015345905893 172.92084890749538,178.63312658786163 174.98775631957687,177.31676557771425 175.6956013237941,177.72678139170603 176.4600739282323,179.25893190529314 176.24772042705445,182.0642213072715 176.98387923132395,183.83367388605257 178.89506074256497,186.44464216622873 180.39569215133088,187.674580453393 185.22319507971406,193.93194325822697 187.06359209050424,199.7142857142826 187.8705353952828,199.541682980911 187.82806469500065,198.89442026217148 186.0018245842657,194.23401362445293 185.37892098061275,191.77427309634368 185.29397958010668,190.8680387119457 186.73798338859342,190.0696830426241 184.9825277783093,182.3447462202239 183.34032736864174,178.84892193652922 180.2399662504322,175.11560130957514 177.69172423548298,172.8496498229506 176.16277902649017,171.7058656897716 171.91570900159422,169.63407475510758 166.22463516821153,168.85714285714494 161.2838770391536,169.24560950826708 160.29289403336588,169.63407475510758 160.43446303420933,170.71313751750859 159.92481463117292,172.6338424277492 159.04708682600176,173.69129452375637 158.4241832223488,175.48246515174833 157.84375031897798,176.25934915406833 158.74979192425963,176.2809291850499" stroke="#4dd2ff" stroke-linecap="round" stroke-linejoin="round" stroke-width="0.5"><title>2022-04-25 5.0km</title></polyline><polyline fill="none" points="29.43514614450396,216.0133665005742 30.78582148218993,215.9074817760229 31.881798041897127,215.42511560943603 32.352604873885866,215.7780668528212 33.0703923390538,215.8957167948247 33.49489030230325,216.14278090405787 34.174087043560576,216.13101597011337 34.49053097979049,216.43690348530072 35.71771600085776,215.69571175287274 36.35060387340491,216.71925977428327 36.1885228328465,218.10749173778095 36.589866361784516,219.2015835840357 37.400271564372815,220.436824019107 38.542556992790196,221.4485253585226 41.166726220282726,224.82465807169137 42.23954834562028,228.0123957871292 42.57142857144936,227.89477017039462 42.548274137079716,227.43602800921872 42.0697491603205,225.93038747551327 41.59122418353218,225.08344767469316 41.174444365053205,223.57774669233913 41.1358536411426,223.10720720091194 41.961695133300964,222.70724566233184 40.92746373190312,218.3310175389488 40.117058529285714,216.5663169533218 39.16000857570907,215.34276001338367 38.00228685775073,214.0956468386903 36.23483170158579,212.66025730763067 34.47509469022043,211.76606244586947 31.84320731795742,211.18953483842415 30.129779175302247,211.1307051717522 28.35460587439593,211.37778937484836 28.130779675557278,210.83655595226446 26.116343886242248,209.5893468557042 24.217680268746335,209.1304613557295 20.976059458305826,209.33048881043578 20.088472807838116,209.5893468557042 18.89987851071055,209.53051558221705 17.14014149934519,210.9542158172626 15.76631172731868,211.73076500026582 14.824698063341202,211.91901779767795 12.293146573327249,211.7778282563304 11.860930465249112,211.601340851219 11.714285714289872,211.89548623107476 14.392481955292169,212.1660986762945 15.61966697635944,212.06020699878718 16.82369756308617,211.44838467006775 18.90759665548103,209.67171053934362 19.254913170909276,209.53051558221705 20.204244979657233,209.62464559145883 22.272707782452926,209.40108657257952 24.318016150966287,209.44815170007496 25.375401986704674,209.6128793485659 26.3401700850809,210.07176107000487 26.656614021310816,209.75407410719708 25.066676195245236,209.23635832860236 22.936468234140193,209.20105935890388 20.458943757606903,209.42461914106025 19.68712927895831,209.63641183196887 21.315657828963595,209.56581435339103 22.349889230332337,209.34225511004843 22.959622668480733,209.49521678977544 24.410633888386656,209.42461914106025 25.761309226043522,209.82467135892512 26.185807189322077,210.2482530827947 25.745872936502565,211.23659852924902 25.560637461632723,212.7426166743171 27.111984563729493,213.23677044321448 26.309297505940776,215.18981359931058 27.081111984560266,214.93098029672183 28.447223611816298,214.96627581439316 29.442864289303543,215.2251089610545 29.28078324877424,215.7780668528212" stroke="#4dd2ff" stroke-linecap="round" stroke-linejoin="round" stroke-width="0.5"><title>2022-04-22 10.1km</title></polyline><polyline fill="none" points="64.17698683575145,215.68942828635772 65.40565577769303,215.67605049093618 65.4934178449912,215.42187186726733 66.79229644077714,215.06066899711004 67.3627498781425,215.46200539861093 68.17893710389035,215.5824058476719 68.7406143345288,215.91685039774893 69.39882983913412,215.86333938257303 69.71477328136098,216.23791558641096 71.17162359826034,215.4084940181201 71.93515358364675,216.62586729175018 71.77718186253333,218.16427422776542 72.22476840569288,219.40835124998557 73.19015114582726,220.78617288497844 74.38371526089031,221.85630595243128 77.41150658216793,225.7487700265374 78.57874207707937,229.22638064730927 79.0000000000291,229.22638064730927 78.79814724531025,228.0092375752065 78.04339346665074,226.35067716068806 77.42028278892394,224.2105382030386 77.40273037547013,223.76912599208663 78.17503656755434,223.4213446147878 78.31545587521396,223.19394811737948 77.28863968799124,218.77962705610844 76.7357386641088,217.2679892884844 76.2354948805878,216.34493697215294 74.33105802052887,214.03056116708103 71.71574841544498,211.823133611535 69.70599707466317,210.81973327082233 67.57337883961736,210.33809573930193 65.08971233549528,210.1641702193847 62.799122379365144,210.40499004912635 62.50073135062121,209.80293884256025 60.289127255033236,208.39813153483192 58.15650902004563,207.91647649554943 51.89907362265512,208.39813153483192 49.810336421302054,210.1507913144451 48.16918576307944,210.91338460874613 48.142857142869616,211.30136732042956 49.73135056073079,210.52539963755407 52.337883959087776,208.29109738258558 54.76889322287752,208.38475227518938 55.813261823524954,208.1171665184338 56.70843490984407,208.29109738258558 58.65675280356663,208.25095953117125 59.683568990789354,208.57206166539981 60.33300828866777,209.0403328368957 59.84154071187368,210.24444359269546 59.683568990789354,212.07732596536516 61.43003412973485,212.59908617939436 60.4909800097812,214.77973207757168 61.94783032670966,214.338257381929 64.7474402730877,214.9135117107944 66.23061921016779,214.43190377394058" stroke="#4dd2ff" stroke-linecap="round" stroke-linejoin="round" stroke-width="0.5"><title>2022-04-21 8.1km</title></polyline><polyline fill="none" points="100.28083861531923,215.67606139371492 101.72013651876478,215.58241682567314 102.07996099462616,215.43526080998708 102.22915650901268,215.14094780340747 102.13261823501671,215.59579462918555 103.20331545584486,215.06068039419188 105.09019990250818,215.84997238518554 105.89761092150002,215.8365946327358 106.14334470988251,216.18441532359793 107.52998537296662,215.32823804893633 108.31106777180685,216.46534609449373 108.17064846414723,218.21779225637874 108.71477328133187,219.48862132678914 109.36421257923939,220.5052671310914 110.92637737689074,222.00345372629454 113.91906387128984,225.8424031208524 115.05119453923544,229.27988091011866 115.42857142857974,229.17288038449624 115.29692832764704,228.51749841594938 114.36665041442029,226.27042558517496 113.81374939053785,223.91626800585436 113.91028766453383,223.67549720146053 114.68259385667625,223.36784435197478 114.3842028278741,221.53527403408225 113.57679180888226,218.31143312037602 112.64651389565552,216.35832498810487 110.63676255484461,213.91017023474706 108.1355436372396,211.84990472313802 106.23110677718068,210.87326309773562 104.48464163823519,210.37824749143692 101.6323744514957,210.13742775839637 99.06972208680236,210.3916263399551 99.05216967331944,210.24445885832392 98.92930277911364,209.81633342692658 96.58605558262207,208.33125201237635 94.44466114090756,207.8629762327364 90.41638225255883,208.13056279559896 89.46855192587827,208.38476903476112 88.81033642124385,208.19745926835822 88.41540711847483,208.2911142173907 86.2476840565505,210.01701756547118 84.58898098490317,210.819748074402 84.57142857142026,211.22110970176072 86.15114578255452,210.43176286941525 88.74012676742859,208.2911142173907 89.85470502194948,208.43828601414134 92.21550463189487,208.18407997916074 94.497318381269,208.18407997916074 95.84007801071857,208.4249067733508 96.78790833737003,209.09386552253636 96.2437835202436,210.23107998025807" stroke="#4dd2ff" stroke-linecap="round" stroke-linejoin="round" stroke-width="0.5"><title>2022-04-19 7.2km</title></polyline><polyline fill="none" points="125.04287458327599,210.91457720690232 125.08746608527144,210.66534667877568 127.27244968351442,210.52940252239932 129.4722971157753,209.7137341444759 132.8612512681284,211.20912166665948 134.213860162301,211.11849268397782 134.5111368423095,211.7075797701982 136.75557577656582,210.25751371819206 137.26094613259193,210.66534667877568 138.18250384076964,212.3419778083262 137.87036332674325,215.12875551548495 138.6284188607824,217.00922516014543 139.72834257694194,218.75372921976668 142.28492202516645,221.17786540979432 147.487263925781,227.90626963706745 149.40469851199305,233.88673663741793 149.62765602202853,233.88673663741793 150.02897954004584,233.7055150209635 149.9695242040907,232.50491446154047 147.96290661382955,227.65707663419744 147.32376175170066,224.77999029535567 148.88446432194905,223.62460427253973 147.21971491375007,216.35219715929998 145.5252378375153,212.00212216004002 142.18087518715765,208.03706396186317 137.721724986739,204.23047700414463 136.19075008452637,203.50539826144814 135.28405621042475,203.14285714286234 135.1354178704205,204.93289259282756 135.83401806850452,205.83922882669867 138.76219336682698,208.2636424694283 140.57558111503022,210.8012906714357 141.97278151114006,213.1123134883237 142.62679020722862,215.64985265210998 146.89271056570578,215.03812968083366 147.72508526977617,217.46234569043736 148.95878349192208,223.69256848372606 147.57644692977192,224.68937221125088 148.67637064593146,228.92568982805096 150.35598388809012,233.6149041036333 149.5533368519973,234.0 149.00337499391753,233.25245970659307 147.47240009176312,228.78976766797132 146.55084238370182,227.00011062547128 142.52274336921982,221.72158974166086 139.5648404029198,218.84435207034403 137.67713348468533,215.55922723602998 137.57308664667653,214.67562561450904 138.0190016667475,212.6365185421746 140.3972151069902,211.18646442778117 141.9430538431625,213.08965663153504 142.71597321121953,215.69516533294518 146.55084238370182,214.76625174028595 145.16850582149345,211.68492263148073 141.1998621430248,207.15340343484422 137.67713348468533,204.29845289741934 135.29892004444264,203.165515996865 135.20973704039352,205.20479422740027 136.54748210054822,206.51897622468096 135.29892004444264,207.56124761491083 133.75308130827034,207.15340343484422 133.21798328415025,207.51593166768725 132.38560858013807,208.53553607804497 132.59370225615567,210.50674514706043 128.8628799217404,211.11849268397782 128.04536905157147,211.93415090753115 125.72661094734212,213.2709113578021 124.0024062031298,215.46860174711765 122.50115896901116,214.6529690717216 124.70100640121382,209.351212972746 126.63330482144374,209.37387058012246 128.58046707569156,208.62616713524767 129.44256944773952,209.7137341444759 127.56972636358114,210.84660529925168 124.64155106525868,210.9372345002921" stroke="#4dd2ff" stroke-linecap="round" stroke-linejoin="round" stroke-width="0.5"><title>2022-04-10 10.4km</title></polyline><polyline fill="none" points="160.0916855551768,210.9723887870714 160.25688559090486,210.7205701146886 162.10412235336844,210.83503321652097 164.80739566439297,209.804861162811 165.72350495308638,210.49164356618712 168.17146911809687,211.31577698944602 169.5381239586277,211.17842183258472 169.74837854946963,211.81941114867368 172.15128815924982,210.44585820135399 173.51794299983885,212.30015077083954 173.2626338537666,215.20743766915257 173.98350673669484,217.0616527989405 175.62048890837468,219.57967444739188 177.94830759282922,221.70850391406566 182.9793995883083,228.20919950512325 184.8266363508883,233.97711203939252 185.62260015914217,234.0 182.8892904779641,225.50825127113785 182.87427229288733,224.79866951281292 184.46619990939507,223.9975235104066 182.5588904066244,215.39057136976044 181.02703553036554,212.25436613224883 177.76808937214082,208.2481390650646 173.09743381815497,204.28755907158484 170.66448783822125,203.14285714285506 170.5893969128956,205.3635684047622 174.19376132759498,208.2481390650646 175.9809253498679,211.38445450578 173.65310666541336,212.59775047342555 172.24139726965223,210.5374289127285 169.92859677021625,211.8880883616439 167.16525071900105,210.81214060536877 165.96379591408186,210.7205701146886 164.4319410378812,211.15552929038677 162.5396497201291,212.50618141692394" stroke="#4dd2ff" stroke-linecap="round" stroke-linejoin="round" stroke-width="0.5"><title>2022-04-09 5.2km</title></polyline><polyline fill="none" points="14.360401803511195,245.24100527886912 16.043688103323802,245.1035477230689 16.088776129239704,244.87445142870274 19.199849915516097,243.98097148537636 20.056522407394368,244.7828127822213 21.43922186800046,244.96609000164608 22.476246463425923,245.51591989364533 23.76876987220021,245.51591989364533 24.144503421266563,246.06574713598093 26.443992741580587,244.59953526830213 27.120313129911665,245.2180956977827 27.88680957001634,246.6613903251491 27.61628141469555,249.47919864636788 28.35271917085629,251.44933223309636 30.216357574274298,254.0837600346931 32.305436107038986,255.96218445036357 37.28014829673339,262.4906141733227 39.23396275192499,268.2857142857174 39.92531248222804,268.1711894661785 39.79004840453854,266.84269315898564 38.27208486630116,263.292325405906 37.18997224495979,259.1920858398371 37.43044171639485,258.7797630935602 38.73799446714111,258.1612761805882 37.9414393430925,253.87758961795043 36.25815304327989,248.03593966324843 35.26621647371212,246.08865654688998 33.50778346409788,243.98097148537636 29.254479688650463,239.88003788536298 27.54113470489392,238.57412305805337 25.01620525517501,237.42857142857247 24.82082380965585,238.9636079918273 25.09135196491843,239.81130589870736 28.307631144998595,242.42309228433442 30.351621651963796,245.51591989364533 28.067161673563533,246.77593673584488 26.398904715722892,244.75990310910856 24.339884866785724,246.01992830031668 21.273899106367026,244.98899963341682 18.523529527243227,245.40137221798796" stroke="#4dd2ff" stroke-linecap="round" stroke-linejoin="round" stroke-width="0.5"><title>2022-04-07 5.0km</title></polyline><polyline fill="none" points="50.78343372209929,244.45685991075152 50.6482699480257,244.73157248600182 51.023724876053166,244.96049912634044 52.78085393930087,244.96049912634044 55.829547955072485,244.06768262941478 56.745657979510725,244.77735785081313 58.35260507155908,245.02917702879495 58.938314759288915,245.41835102806363 60.31998889450915,245.48702865473024 60.605334639840294,246.03644817880559 62.97820978512755,244.61710899339232 63.69908324693097,245.2123178998154 64.51006589148892,246.83768023875018 64.2547565404675,249.76785239398305 65.56133969005896,252.40036471934582 66.86792283965042,254.11718783788092 68.65508829720784,255.53640876458667 73.95651188120246,262.47202466687304 75.8037501272047,268.2857142857174 76.49458719487302,268.2170503900197 76.44953260349575,267.04975783784175 74.10669385246001,261.6709024665688 73.65614793880377,259.0157143604083 75.15796765097184,258.35190767265885 75.26309503085213,257.71098720379086 73.56603875604924,250.66062425479322 72.45469216903439,247.40998540568398 71.20818180794595,245.64727628945548 70.36716276907828,246.12801784210023 70.84774507698603,245.32678079479956 68.47486993169878,242.3049218368251 64.17966555483872,238.71063681610394 61.53646286134608,237.42857142857247 61.386280890146736,238.98536323773442 61.67162663547788,239.83243220340955 64.85548442532308,242.28202866028005 67.06315940222703,245.2352104879974 65.65144887281349,246.3569416784885 64.54010228579864,246.7918957012953 63.21850093908142,244.84603586357116 62.662827645544894,244.93760648295574 62.21228173188865,244.43396716631105 61.49140827008523,242.0073101826274 62.888100602373015,240.70238837379293 64.8855208195746,242.37360133900802 67.04814120515948,245.32678079479956 64.81042983394582,246.7232188607013 64.55512048286619,246.76900342563022 63.023264376446605,244.70867979664763 60.78555300529115,246.03644817880559 60.25991610600613,245.60149127388286 58.893260167969856,245.46413611705793 55.664347786747385,244.25082504493912 54.027364300447516,245.05206965380057 51.86474391486263,245.18942530707136" stroke="#4dd2ff" stroke-linecap="round" stroke-linejoin="round" stroke-width="0.5"><title>2022-04-03 6.2km</title></polyline><polyline fill="none" points="113.2552693207981,257.8553452836277 113.91100702574477,255.14210486815864 113.7049180328031,254.02823328980594 115.42857142852154,253.17140306239162 115.42857142852154,252.34312893578317 110.25761124119163,249.02998419022333 107.31615925056394,248.23024803249427 101.00234192033531,248.31593426456675 95.30679156904807,249.20135563892836 92.81498829036718,249.00142226205935 88.35597189690452,252.6001800429658 84.74004683829844,254.399524785229 84.57142857142026,255.17066556312056 87.7189695549896,253.82830669847317 92.90866510529304,249.25847940929816 93.9578454332077,248.91573644302116 98.47306791564915,248.97286032808915 101.17096018732991,248.37305839049077 107.6346604215214,248.94429838837095 110.85714285710128,250.3152650219854 111.550351287995,249.82971585069754 110.93208430905361,249.20135563892836 105.83606557373423,248.14456174898805 97.01170960185118,248.77292662997934 95.28805620601634,249.2870412858174 93.00234192033531,249.00142226205935 87.34426229505334,253.4284526726915 84.57142857142026,254.54232894849702 84.83372365334071,255.17066556312056 88.22482435591519,253.48557474513655 92.79625292739365,249.40128873474896 94.18266978918109,248.88717449192336 95.02576112403767,249.02998419022333 98.07962529273937,248.28737219292816 106.52927400462795,247.8589404306549 111.56908665102674,249.3441650216846" stroke="#4dd2ff" stroke-linecap="round" stroke-linejoin="round" stroke-width="0.5"><title>2022-03-24 5.1km</title></polyline><polyline fill="none" points="139.31402832179447,267.55816035363387 138.46202333364636,267.36760949969175 137.2464962171798,268.2857142857174 136.70121302478947,268.00855160699575 136.42857142855064,267.3156410119045 136.07640936676762,264.1801509540237 135.66744697245304,263.2100314836716 135.17896411259426,262.8635575986773 132.350307551882,262.794262654621 130.90757910526008,261.4083520762797 144.86910084460396,242.74836155425874 138.17802167090122,237.42857142857247 127.98804201252642,258.22067319235066 134.27015879188548,264.63055985456594 134.65640105318744,264.31873855869344" stroke="#4dd2ff" stroke-linecap="round" stroke-linejoin="round" stroke-width="0.5"><title>2021-10-26 5.0km</title></polyline></svg>