<?xml version="1.0" encoding="utf-8" ?>
<svg baseProfile="full" height="300mm" version="1.1" viewBox="0,0,200,300" width="200mm" xmlns="http://www.w3.org/2000/svg" xmlns:ev="http://www.w3.org/2001/xml-events" xmlns:xlink="http://www.w3.org/1999/xlink"><defs /><rect fill="#222222" height="300" width="200" x="0" y="0" /><text fill="#FFFFFF" style="font-size:12px; font-family:Arial; font-weight:bold;" x="10" y="20">Over 5km Runs</text><text fill="#FFFFFF" style="font-size:4px; font-family:Arial" x="10" y="280">ATHLETE</text><text fill="#FFFFFF" style="font-size:9px; font-family:Arial" x="10" y="290">Wenz</text><text fill="#FFFFFF" style="font-size:4px; font-family:Arial" x="120" y="280">STATISTICS</text><text fill="#FFFFFF" style="font-size:3px; font-family:Arial" x="120" y="285">Number: 8</text><text fill="#FFFFFF" style="font-size:3px; font-family:Arial" x="120" y="290">Weekly: 1.6</text><text fill="#FFFFFF" style="font-size:3px; font-family:Arial" x="141" y="285">Total: 52.2 km</text><text fill="#FFFFFF" style="font-size:3px; font-family:Arial" x="141" y="290">Avg: 6.5 km</text><text fill="#FFFFFF" style="font-size:3px; font-family:Arial" x="167" y="285">Min: 5.0 km</text><text fill="#FFFFFF" style="font-size:3px; font-family:Arial" x="167" y="290">Max: 10.4 km</text><polyline fill="none" points="41.05972696252866,54.95649950111692 43.20989761094097,54.93308835913194 43.36348122864729,54.48827576771146 45.636518771294504,53.856170744940755 46.63481228670571,54.55850944756094 48.063139931764454,54.76921023341856 49.04607508535264,55.35448819605517 50.197952218470164,55.260843919502804 50.750853242352605,55.91635227621737 53.30034129694104,54.46486453170655 54.63651877135271,56.59526776056009 54.36006825941149,59.28747989857948 55.14334470988251,61.46461468747293 56.832764505117666,63.87580254870409 58.92150170652894,65.74853541675111 64.22013651876478,72.56034754643042 66.26279863482341,78.64616613279213 67.0,78.64616613279213 66.64675767923472,76.51616575660591 65.32593856658787,73.61368503119593 64.2354948805878,69.86844185530936 64.20477815699996,69.09597048615251 65.55631399317645,68.48735307587049 65.80204778158804,68.08940920540772 64.005119453941,60.36434734818613 63.03754266217584,57.71898125483858 62.162116040999535,56.103639701257634 58.82935153588187,52.05348204238544 54.25255972699961,48.190483820180816 50.735494880587794,46.434533223931794 47.003412969294004,45.591667543776566 42.65699658705853,45.28729788392229 38.64846416388173,45.708732585961116 38.12627986352891,44.655142974472255 34.2559726962354,42.19673018595495 30.52389078499982,41.35383386720787 19.57337883958826,42.19673018595495 15.918088737234939,45.263884800275264 13.046075085294433,46.59842306529754 13.0,47.27739281074901 15.779863481235225,45.91944936571235 20.341296928352676,42.0094204195193 24.595563139941078,42.17331648157415 26.423208191117737,41.70504140725825 27.989761092176195,42.0094204195193 31.399317406176124,41.93917917954968 33.19624573382316,42.50110791443876 34.332764505175874,43.320582464562904 33.47269624576438,45.42777628721524 33.19624573382316,48.635320439389034 36.25255972699961,49.548400813939224 34.60921501705889,53.3645311357468 37.15870307170553,52.59195041836938 42.05802047782345,53.59864549388294 44.653583617764525,52.75583160438691" stroke="#4dd2ff" stroke-linecap="round" stroke-linejoin="round" stroke-width="0.5"><title>2022-04-21 8.1km</title></polyline><polyline fill="none" points="160.4914675768232,54.933107438999286 163.010238907882,54.76922944492253 163.6399317405885,54.51170641747012 163.90102389076492,53.996658655960346 163.7320819112938,54.79264060106652 165.60580204776488,53.85619068983215 168.90784982941113,55.23745167407469 170.32081911264686,55.214040607286734 170.7508532422944,55.82272681629547 173.17747440270614,54.324416585637664 174.54436860070564,56.31435566535947 174.29863481229404,59.381136448653706 175.2508532423526,61.60508732187736 176.38737201370532,63.384217479411745 179.1211604095879,66.00604402101453 184.3583617747645,72.7242054614835 186.33959044370567,78.73979159270675 187.0,78.55254067287024 186.76962457341142,77.40562222790322 185.14163822529372,73.47324477405346 184.17406143347034,69.35346901023877 184.34300341294147,68.93212010255229 185.69453924917616,68.39372761594859 185.17235494876513,65.18672955963848 183.7593856655294,59.54500796065258 182.1313993174117,56.12706872918352 178.6143344709999,51.84279791080189 174.2372013651766,48.237333265489724 170.90443686005892,46.5282104210346 167.84812286688248,45.66193311000825 162.8566552901175,45.24049857718637 158.3720136518823,45.68534609492053 158.34129692835268,45.42780300205777 158.1262798634707,44.67858349711605 154.02559726958862,42.07969102165225 150.27815699664643,41.26020840728597 143.22866894199979,41.728484892293636 141.56996587029425,42.17334581082832 140.41808873723494,41.84555371962779 139.72696245735278,42.00944988043193 135.93344709899975,45.029780739569105 133.03071672358783,46.43455913019716 133.0,47.1369419780749 135.7645051194704,45.755585021470324 140.29522184305824,42.00944988043193 142.2457337884116,42.26700052474189 146.3771331058233,41.82213996352948 150.3703071672353,41.82213996352948 152.72013651876478,42.243586853357556 154.3788395904121,43.41426466443954 153.42662116041174,45.40438996544981" stroke="#4dd2ff" stroke-linecap="round" stroke-linejoin="round" stroke-width="0.5"><title>2022-04-19 7.2km</title></polyline><polyline fill="none" points="20.075030520849396,106.60051011206815 20.15306564932689,106.16435668784834 23.97678694629576,105.92645441419154 27.82651995267952,104.4990347528219 33.757189719355665,107.11596291665046 36.12425528408494,106.95736219694663 36.64448947412893,107.98826459783595 40.5722576091066,105.45064900681609 41.45665573218139,106.16435668784834 43.069381721375976,109.09846116455446 42.52313582185889,113.97532215208048 43.84973300650017,117.26614403024723 45.77459950966295,120.3190261345735 50.248613544157706,124.56126446712005 59.35271187021863,136.33597186485713 62.70822239603149,146.8017891154741 63.098398038651794,146.8017891154741 63.80071419518208,146.48465128667885 63.69666735723149,144.38360030768672 60.18508657423081,135.89988410983642 59.06658306560712,130.86498301685788 61.7978125634836,128.84305747692997 58.884501099120826,116.11634502875677 55.91916621575365,108.50371378006821 50.066531577613205,101.56486193324963 42.26301872683689,94.90333475724037 39.58381264802301,93.63444695752696 37.99709836835973,93.0 37.73698127333773,96.13256203744095 38.95953161997022,97.71865044670994 44.083838392049074,101.96137432150135 47.25726695137564,106.40225867500703 49.70236764464062,110.44654860456649 50.8468828627374,114.88724214119429 58.31224349007243,113.81672694144072 59.768899222195614,118.0591049582581 61.9278711109655,128.96199484651152 59.50878212717362,130.70640136967995 61.43364863045281,138.11995719908737 64.37297180423047,146.32608218134556 62.968339491053484,147.0 62.00590623944299,145.6918044865306 59.326700160629116,137.88209341894253 57.71397417149274,134.750193594562 50.6648008961929,125.5127820478956 45.488470705167856,120.47761612309841 42.18498359830119,114.72864766305429 42.00290163181489,113.18234482538537 42.78325291688088,109.61390744880191 46.94512643729104,107.07631274859887 49.65034422557801,110.4068991051754 51.0029531197506,114.96653933264315 57.71397417149274,113.34094054548768 55.29488518770086,107.94861460507673 48.34975875040982,100.01845601097739 42.18498359830119,95.02229257047293 38.023110077832825,93.03965299449919 37.86703982076142,96.60838989794138 40.208093676075805,98.90820839318621 38.023110077832825,100.7321833260794 35.31789228954585,100.01845601097739 34.38147074740846,100.65288041844906 32.924815015285276,102.43718813656596 33.28897894831607,105.88680400734302 26.760039863118436,106.95736219694663 25.329395840351935,108.38476408817223 21.271569158008788,110.72409487614641 18.25421085563721,114.57005305745406 15.627028195827734,113.1426958755037 19.4767612022697,103.86462270229822 22.858283437613863,103.90427351520339 26.26581738248933,102.5957924866816 27.77449653361691,104.4990347528219 24.497021136339754,106.48155927368498 19.3727143642609,106.64016037550755" stroke="#4dd2ff" stroke-linecap="round" stroke-linejoin="round" stroke-width="0.5"><title>2022-04-10 10.4km</title></polyline><polyline fill="none" points="137.66044972155942,106.70168037737312 137.94954978406895,106.26099770070869 141.18221411842387,106.46130812891352 145.9129424126586,104.6585070349247 147.51613366795937,105.8603762408311 151.8000709566404,107.30260973153054 154.19171692762757,107.06223820702871 154.55966246163007,108.18396951018076 158.76475427875994,105.78025185236766 161.1564002496889,109.02526384897646 160.7096092441352,114.11301592101518 161.97113678924507,117.35789239815495 164.8358555897139,121.76443028294307 168.9095382874948,125.4898818496149 177.71394927962683,136.8660991339566 180.94661361403996,146.9599460689351 182.3395502784988,147.0 177.55625833640806,132.1394397244876 177.52997651259648,130.89767164741352 180.31584984151414,129.49566614320793 176.97805821162183,114.43349989707349 174.29731217818335,108.94514073143364 168.5941564012901,101.9342433638667 160.4205091817421,95.00322837528074 156.16285371687263,93.0 156.03144459764007,96.88624470833747 162.33908232336398,101.9342433638667 165.46661936223973,107.42279538510775 161.39293666445883,109.54606332849653 158.9224452219205,105.94050059728033 154.8750443479512,108.304154632875 150.0391887582373,106.42124605939898 147.93664284964325,106.26099770070869 145.25589681632118,107.02217625817866 141.94438701029867,109.38581747961871" stroke="#4dd2ff" stroke-linecap="round" stroke-linejoin="round" stroke-width="0.5"><title>2022-04-09 5.2km</title></polyline><polyline fill="none" points="17.630703156115487,166.6717592380155 20.576454180758446,166.43120851536514 20.655358226096723,166.03029000022798 26.099737352109514,164.46670009939407 27.59891421289649,165.86992236887454 30.01863826898625,166.19065750288428 31.833431310893502,167.15285981386842 34.09534727636492,167.15285981386842 34.75288098718738,168.11505748795753 38.776987297751475,165.54918671952328 39.96054797724355,166.63166747111245 41.301916747528594,169.1574330690055 40.82849247561535,174.08859763114015 42.1172585489694,177.536331407915 45.37862575490726,182.14658006071113 49.03451318730367,185.4338227881235 57.74025951925432,196.85857480330742 61.15943481581053,207.0 62.369296843826305,206.79958156580688 62.13258470786968,204.4747130282194 59.47614851599792,198.26156946033007 57.58245142863598,191.08615021970763 58.00327300361823,190.3645854137285 60.29149031743873,189.2822333160293 58.89751885039732,181.7857818314078 55.95176782569615,171.56289441068657 54.215878828952555,168.15514895705564 51.13862106209854,164.46670009939407 43.695339455094654,157.29006629937794 40.696985733520705,155.00471535159159 36.27835919643985,153.0 35.93644166679587,155.68631398568687 36.4098659385927,157.16978532272333 42.038354503631126,161.74041149757977 45.615337890863884,167.15285981386842 41.61753292864887,169.35788928772672 38.6980832524132,165.82983044092543 35.09479851683136,168.0348745255469 29.72932343609864,166.23074935848126 24.91617667261744,166.95240138148074" stroke="#4dd2ff" stroke-linecap="round" stroke-linejoin="round" stroke-width="0.5"><title>2022-04-07 5.0km</title></polyline><polyline fill="none" points="137.62100901373196,165.29950484380242 137.38447240903042,165.78025185049046 138.0415185331367,166.1808734710794 141.11649439379107,166.1808734710794 146.45170892140595,164.61844460146676 148.05490146414377,165.86037623891025 150.86705887521384,166.3010598003748 151.8920508288429,166.9821142990986 154.30998056539102,167.10230014576518 154.80933561973507,168.0637843128934 158.96186712395865,165.57994073843292 160.22339568217285,166.62155632466602 161.64261531014927,169.46594041780918 161.19582394580357,174.59374168945942 163.48234445758862,179.20063825884426 165.7688649694319,182.20507871627342 168.89640452008462,184.68871533800848 178.1738957921625,196.82604316702054 181.40656272269553,207.0 182.61552759102779,206.87983818251814 182.53668205608847,204.83707621620852 178.43671424180502,195.42407931647904 177.6482588928775,190.7775001307018 180.27644338924438,189.61583842714026 180.46041630394757,188.49422760662856 177.49056782305706,176.1560924458754 175.54571129579563,170.46747445993242 173.36431816389086,167.3827335065289 171.8925348459161,168.22403122366813 172.73355388472555,166.82186639089196 168.58102238050196,161.53361321442935 161.06441472104052,155.24361442816735 156.43881000741385,153.0 156.17599155777134,155.72438566603523 156.6753466121154,157.20675635595398 162.2470977443154,161.4935501554719 166.1105289539555,166.66161835398816 163.64003552740905,168.62464793735126 161.69517900014762,169.3858174772613 159.3823766433634,165.9805627612368 158.40994837973267,166.14081134516164 157.62149303080514,165.25944254103524 156.35996447264915,161.01279281958705 158.80417605413822,158.7291796541249 162.29966143431375,161.6538023432513 166.08424710901454,166.82186639089196 162.16825220943429,169.26563300621638 161.72146084503038,169.34575599484378 159.04071265883977,165.74018964411516 155.1247177592595,168.0637843128934 154.20485318556894,167.30260972928954 151.8132052939036,167.06223820483137 146.16260862682248,164.93894382863073 143.29788752575405,166.3411218941328 139.51330185105326,166.58149428736942" stroke="#4dd2ff" stroke-linecap="round" stroke-linejoin="round" stroke-width="0.5"><title>2022-04-03 6.2km</title></polyline><polyline fill="none" points="63.19672131142579,248.74685424634663 64.34426229516976,243.99868351928308 63.9836065574782,242.04940825715312 67.0,240.54995535917988 67.0,239.10047563762055 57.95081967220176,233.30247233289992 52.80327868857421,231.9029340568668 41.754098360659555,232.0528849629918 31.78688524593599,233.60237236812827 27.426229508244433,233.25248895860568 19.622950819670223,239.55031507519016 13.295081967138685,242.69916837415076 13.0,244.04866473545553 18.50819672131911,241.69953672232805 27.590163934393786,233.70233896627906 29.426229508244433,233.10253877528885 37.32786885253154,233.2025055741542 42.049180327914655,232.1528521833534 53.360655737807974,233.15252217964735 59.0,235.55171378847444 60.21311475406401,234.70200273871887 59.13114754098933,233.60237236812827 50.21311475406401,231.75298306072364 34.77049180329777,232.85262160246202 31.754098360659555,233.7523222501768 27.754098360659555,233.25248895860568 17.85245901637245,240.99979217720102 13.0,242.94907565986796 13.45901639352087,244.04866473545553 19.393442622967996,241.09975580398168 27.393442622967996,233.95225528581068 29.819672131212428,233.05255536086042 31.2950819672551,233.30247233289992 36.63934426230844,232.00290133761882 51.42622950824443,231.25314575363882 60.24590163945686,233.8522887879517" stroke="#4dd2ff" stroke-linecap="round" stroke-linejoin="round" stroke-width="0.5"><title>2022-03-24 5.1km</title></polyline><polyline fill="none" points="165.0495495631476,265.7267806188611 163.55854083388112,265.3933166244533 161.4313683801447,267.0 160.47712279343978,266.5149653122353 160.0,265.30237177082745 159.38371639186516,259.8152641695342 158.66803220182192,258.11755509642535 157.8131871970836,257.5112257976725 152.86303821584443,257.38995964558853 150.33826343424153,254.9646161334822 174.77092647808604,222.3096327199455 163.06153792410623,213.0 145.22907352197217,249.38617808661365 156.22277788585052,260.60347974547767 156.89870184310712,260.0577924777026" stroke="#4dd2ff" stroke-linecap="round" stroke-linejoin="round" stroke-width="0.5"><title>2021-10-26 5.0km</title></polyline></svg>