<?xml version="1.0" encoding="utf-8" ?>
<svg baseProfile="full" height="300mm" version="1.1" viewBox="0,0,200,300" width="200mm" xmlns="http://www.w3.org/2000/svg" xmlns:ev="http://www.w3.org/2001/xml-events" xmlns:xlink="http://www.w3.org/1999/xlink"><defs /><rect fill="#222222" height="300" width="200" x="0" y="0" /><text fill="#FFFFFF" style="font-size:12px; font-family:Arial; font-weight:bold;" x="10" y="20">Over 5km Runs</text><text fill="#FFFFFF" style="font-size:4px; font-family:Arial" x="10" y="280">ATHLETE</text><text fill="#FFFFFF" style="font-size:9px; font-family:Arial" x="10" y="290">Wenz</text><text fill="#FFFFFF" style="font-size:4px; font-family:Arial" x="120" y="280">STATISTICS</text><text fill="#FFFFFF" style="font-size:3px; font-family:Arial" x="120" y="285">Number: 5</text><text fill="#FFFFFF" style="font-size:3px; font-family:Arial" x="120" y="290">Weekly: 1.2</text><text fill="#FFFFFF" style="font-size:3px; font-family:Arial" x="141" y="285">Total: 26.4 km</text><text fill="#FFFFFF" style="font-size:3px; font-family:Arial" x="141" y="290">Avg: 5.3 km</text><text fill="#FFFFFF" style="font-size:3px; font-family:Arial" x="167" y="285">Min: 5.0 km</text><text fill="#FFFFFF" style="font-size:3px; font-family:Arial" x="167" y="290">Max: 6.2 km</text><polyline fill="none" points="20.213932962040417,52.26890716984053 20.599399712053128,51.68133026760188 24.909618824487552,51.948410838551354 31.21725655021146,49.54467604657111 33.35484489053488,51.147168321112986 39.06676127552055,53.07014630870253 42.25562257017009,52.7496509427001 42.74621661542915,54.245292680250714 48.35300570493564,51.040335803161724 51.54186699958518,55.36701846530195 50.946145658846945,62.1506878946966 52.62818238558248,66.4771898642066 56.44780745287426,72.35257371058105 61.879384383326396,77.31984246616776 73.61859903938603,92.48813217862335 77.92881815205328,105.94659475858498 79.78606703795958,106.0 73.40834444854409,86.18591963265499 73.3733020167565,84.53022886322287 77.0877997885691,82.66088819094875 72.63741094886791,62.5779998627695 69.06308290420566,55.26018764190667 61.45887520164251,45.91232448515075 50.56067890895065,36.67097116704099 44.88380495575257,34.0 44.70859279681463,39.18165961111663 53.118776431074366,45.91232448515075 57.28882581635844,53.23039384682488 51.8572488859063,56.061417771328706 48.563260295894,51.25400079636893 43.16672579722945,54.4055395105097 36.71891834423877,51.89499474586046 33.91552379948553,51.68133026760188 30.341195755056106,52.69623501089518 25.925849347026087,55.84775663950131" stroke="#4dd2ff" stroke-linecap="round" stroke-linejoin="round" stroke-width="0.5"><title>2022-04-09 5.2km</title></polyline><polyline fill="none" points="120.17427087482065,52.229012317358865 124.10193890775554,51.90827802049171 124.2071443015011,51.37372000030882 131.46631646959577,49.28893346586847 133.46521895064507,51.15989649183757 136.69151769205928,51.587543337169336 139.11124174797442,52.87047975182941 142.1271297018975,52.87047975182941 143.00384131632745,54.15340998394822 148.36931639700197,50.73224895936437 149.947397303069,52.175556628149934 151.7358889967436,55.54324409201217 151.1046566342702,62.11813017485838 152.82301139866468,66.71510854389635 157.17150100658182,72.86210674760514 162.04601758311037,77.2450970508362 173.65367935912218,92.47809973773838 178.21257975453045,106.0 179.82572912517935,105.73277542108553 179.51011294394266,102.63295070428285 175.96819802140817,94.34875928043039 173.44326857151464,84.781533626272 174.0043640048243,83.81944721829495 177.05532042332925,82.37631108803907 175.19669180060737,72.38104244187707 171.26902376767248,58.75052588091057 168.9545051053865,54.20686527607904 164.85149474954233,49.28893346586847 154.92711927345954,39.72008839917544 150.92931431136094,36.672953802131815 145.03781226207502,34.0 144.5819222225109,37.58175198092067 145.21315458486788,39.559713763635955 152.7178060049191,45.65388199678273 157.4871171878185,52.87047975182941 152.15671057160944,55.810519050311996 148.2641110032564,51.10644058790058 143.45973135589156,54.04649936739588 136.30576458154246,51.64099914464168 129.88823556352872,52.60320184196462" stroke="#4dd2ff" stroke-linecap="round" stroke-linejoin="round" stroke-width="0.5"><title>2022-04-07 5.0km</title></polyline><polyline fill="none" points="20.161345351603813,130.39933979173657 19.845963211962953,131.0403358006588 20.722024710848927,131.57449796145374 24.821992525015958,131.57449796145374 31.93561189516913,129.49125946863205 34.073201952152885,131.14716831855185 37.82274516695179,131.73474640049972 39.18940110504627,132.64281906546967 42.41330742044374,132.8030668610154 43.079114159569144,134.08504575054394 48.61582283186726,130.77325431791542 50.29786090948619,132.1620750995644 52.19015374686569,135.95458722375042 51.59443192766048,142.7916555859556 54.64312594337389,148.9341843451257 57.69181995920371,152.94010495505063 61.86187269340735,156.25162045069737 74.23186105617788,172.4347242227086 78.5420836302219,186.0 80.15403678792063,185.83978424337693 80.04890940815676,183.11610162162106 74.58228565566242,170.56543908864842 73.53101185709238,164.37000017426908 77.03525785228703,162.82111790287308 77.28055507189129,161.32563680884778 73.3207570973318,144.87478992783872 70.72761506098323,137.2899659465911 67.81909088522661,133.17697800871974 65.85671312781051,134.29870829822903 66.97807184618432,132.4291551878705 61.44136317400262,125.37815095257247 51.41921962797642,116.99148590424738 45.251746676512994,114.0 44.90132207702845,117.63251422137546 45.567128816153854,119.60900847461016 52.99613032571506,125.3247335406486 58.14737193856854,132.21549113866058 54.85338070313446,134.83286391646834 52.26023866678588,135.84775663634355 49.17650219111238,131.3074170149921 47.879931172938086,131.52108179355855 46.82865737436805,130.34592338804214 45.14661929674912,124.6837237594591 48.40556807210669,121.63890620550956 53.06621524563525,125.53840312434477 58.112329478608444,132.4291551878705 52.89100294583477,135.68751067495032 52.29528112674598,135.79434132647293 48.72095021174755,130.98691952550143 43.499623678973876,134.08504575054394 42.27313758071978,133.0701463057194 39.084273725165986,132.74965093978972 31.550144835724495,129.91859177150764 27.7305167010054,131.78816252552497 22.684402468032204,132.10865904983075" stroke="#4dd2ff" stroke-linecap="round" stroke-linejoin="round" stroke-width="0.5"><title>2022-04-03 6.2km</title></polyline><polyline fill="none" points="180.9289617484901,161.66247232846217 182.45901639340445,155.33157802573987 181.97814207652118,152.73254434289993 186.0,150.73327381224954 186.0,148.80063418351347 173.93442622956354,141.06996311055264 167.07103825139347,139.2039120758418 152.33879781409632,139.40384661735152 139.04918032791466,141.46982982420013 133.23497267754283,141.00331861150335 122.83060109289363,149.40042010025354 114.39344262285158,153.59889116554405 114.0,155.39821964729344 121.34426229505334,152.26604896312347 133.45355191244744,141.6031186217151 135.9016393441707,140.80338503373787 146.43715846992563,140.93667409889167 152.73224043706432,139.5371362445003 167.8142076502554,140.87002957289224 175.33333333325572,144.06895171798533 176.95081967208534,142.93600365164457 175.5081967212027,141.46982982420013 163.6174863387132,139.00397741430788 143.02732240431942,140.47016213662573 139.00546448072419,141.66976300027454 133.67213114746846,141.00331861150335 120.46994535520207,151.33305623629712 114.0,153.93210087984335 114.6120218578726,155.39821964729344 122.52459016384091,151.46634107199498 133.1912568305852,141.9363403811003 136.42622950824443,140.73674048116663 138.39344262285158,141.06996311055264 145.5191256830003,139.33720178352087 165.23497267754283,138.33752767153783 176.9945355191594,141.80305171728833" stroke="#4dd2ff" stroke-linecap="round" stroke-linejoin="round" stroke-width="0.5"><title>2022-03-24 5.1km</title></polyline><polyline fill="none" points="56.73273275082465,264.30237415849115 54.7447211118415,263.85775549928076 51.908491173468065,266.0 50.63616372452816,265.35328708299494 49.99999999994179,263.7364956944366 49.17828852246748,256.420352226065 48.22404293570435,254.15674012857198 47.084249596111476,253.34830106356821 40.48405095440103,253.1866128607944 37.11768457893049,249.9528215113096 69.69456863740925,206.41284362660372 54.082050565455575,194.0 30.305431362590753,242.51490411549457 44.96370384778129,257.47130632732296 45.86493579077069,256.743723303618" stroke="#4dd2ff" stroke-linecap="round" stroke-linejoin="round" stroke-width="0.5"><title>2021-10-26 5.0km</title></polyline></svg>