<?xml version="1.0" encoding="utf-8" ?>
<svg baseProfile="full" height="300mm" version="1.1" viewBox="0,0,200,300" width="200mm" xmlns="http://www.w3.org/2000/svg" xmlns:ev="http://www.w3.org/2001/xml-events" xmlns:xlink="http://www.w3.org/1999/xlink"><defs /><rect fill="#222222" height="300" width="200" x="0" y="0" /><text fill="#FFFFFF" style="font-size:12px; font-family:Arial; font-weight:bold;" x="10" y="20">Over 5km Runs</text><text fill="#FFFFFF" style="font-size:4px; font-family:Arial" x="10" y="280">ATHLETE</text><text fill="#FFFFFF" style="font-size:9px; font-family:Arial" x="10" y="290">Wenz</text><text fill="#FFFFFF" style="font-size:4px; font-family:Arial" x="120" y="280">STATISTICS</text><text fill="#FFFFFF" style="font-size:3px; font-family:Arial" x="120" y="285">Number: 42</text><text fill="#FFFFFF" style="font-size:3px; font-family:Arial" x="120" y="290">Weekly: 3.0</text><text fill="#FFFFFF" style="font-size:3px; font-family:Arial" x="141" y="285">Total: 311.7 km</text><text fill="#FFFFFF" style="font-size:3px; font-family:Arial" x="141" y="290">Avg: 7.4 km</text><text fill="#FFFFFF" style="font-size:3px; font-family:Arial" x="167" y="285">Min: 5.0 km</text><text fill="#FFFFFF" style="font-size:3px; font-family:Arial" x="167" y="290">Max: 21.4 km</text><polyline fill="none" points="38.28942807627027,50.15381624711881 37.97357019066112,49.957661398133496 38.312824956694385,49.01254559838708 36.920710571925156,48.602397876507894 35.43500866551767,48.54890020793391 33.45797227037838,49.083875443619036 33.83232235701871,47.728598587273154 34.651213171571726,46.26630299266981 35.06065857887734,45.998807290969125 35.51689774697297,44.233315451128874 35.42331022533472,43.5199754590285 36.45277296361746,43.12763602094492 36.487868284253636,42.62829241091822 33.43457538995426,40.50605074259511 31.761698440182954,39.98885811206128 30.33448873483576,39.84618375288119 25.678509532037424,40.14936649215815 24.134315424598753,40.50605074259511 22.707105719251558,40.32770879648888 22.19237435006653,40.50605074259511 19.44324090119335,42.770962300288375 16.986568457534304,44.00148058224295 12.283795493945945,43.85881266976503 11.675476603093557,43.537809028683114 11.5,43.98364710570604 14.869150779908523,44.35814936066163 17.71187175041996,44.19764858760027 20.402512998261955,42.55695738022041 22.590121317189187,40.6130557383658 23.081455805891892,40.45254819638649 25.233968804153847,40.541719088854734 27.374783362232847,40.20286922109517 31.176776429841993,40.34554300719901 32.674176776461536,40.77356299023086 33.48136915077339,41.50475902202743 32.82625649916008,42.93146565185452 32.451906412490644,45.26764826173894 34.662911611783784,46.33763504373928 33.469670710590435,49.083875443619036 35.633882149035344,48.53106764455151 37.458838821505196,48.69156058586668 38.5,49.11954034474911 38.195840554632014,49.99332594835869" stroke="#4dd2ff" stroke-linecap="round" stroke-linejoin="round" stroke-width="0.5"><title>2022-06-23 5.0km</title></polyline><polyline fill="none" points="68.13844492437784,50.20045538170234 68.36004319653148,50.12934219159797 68.02181425484014,50.004893971614365 68.3250539956789,49.09819451758085 67.39200863929,48.56483756018133 65.44427645785618,48.58261617718381 63.75313174945768,49.11597302752489 63.43822894166806,48.99152338316344 63.85809935204452,47.622565749996284 65.07105831534136,45.91578373032826 65.50259179263958,44.31564570400951 65.44427645785618,43.444447286223294 66.44730021597934,43.05329418769543 66.50561555076274,42.591020115876745 66.38898488122504,42.27098280606879 64.72116630669916,41.204183418019966 62.27192224620376,40.01290890945529 59.7526997840323,39.799544618304935 55.6123110151093,40.06624990187993 54.04946004319936,40.421855696840794 52.67321814256138,40.24405297788326 48.89438444923144,43.07107391145837 46.9816414686793,43.90671690199815 42.45637149026152,43.746700769690506 41.768250539986184,43.497786211257335 41.54665226783254,43.746700769690506 41.5,43.92449645441957 42.16479481643182,44.12007129518315 44.52073434126214,44.33342517428537 47.7980561555014,44.12007129518315 49.8974082073546,42.96439551514777 53.01144708422362,40.368514918664005 55.50734341252246,40.4751964428724 57.4784017278871,40.17293179035187 60.3941684665042,40.22627268636279 62.0269978401775,40.54631738761236 62.750107991392724,40.77746006344387 63.41490280779544,41.31086393523583 63.484881209471496,41.68424473340565 62.92505399568472,42.55546047195094 62.5518358531117,45.382407601537125 64.25464362849016,45.86244626201369 64.60453563713236,46.253586949940654 63.46155507559888,48.92040922212618 65.66587473000982,48.40482984643313 67.88185745140072,48.689287804285414 68.5,48.95596630977525 68.19676025919034,50.004893971614365" stroke="#4dd2ff" stroke-linecap="round" stroke-linejoin="round" stroke-width="0.5"><title>2022-06-22 5.1km</title></polyline><polyline fill="none" points="98.5,50.14267756758636 97.89404402245418,50.178203477822535 98.29024600778939,49.09465679760615 96.96180405697669,48.6150499313153 95.58675010787556,48.52623355963442 93.31441519202781,48.988077718691784 93.93202416918939,47.26503145796596 94.95748813118553,45.84393712258316 95.3653431161074,44.29847111916024 95.20220112215611,43.641195784832234 96.41411307727685,42.96615116873727 96.53064307293971,42.610862459550845 93.30276219249936,40.461335335610784 90.5293482952111,39.821796522177465 85.27384548983537,40.1415665068198 84.0153215364553,40.47910023662553 82.75679758307524,40.24815624490293 82.08092360812589,40.47910023662553 78.86469572721398,43.10826625287882 76.98856279670144,43.92542355574551 72.269097971468,43.76554554698669 71.81463098834502,43.516845847902005 71.5,43.97871616114571 75.42706085453392,44.3339993764821 77.68774277079501,44.13859378458437 79.28420371169341,43.250381108693546 82.75679758307524,40.35474585444899 91.47324126024614,40.35474585444899 92.53366422094405,40.71004362544045 93.33772119120113,41.45616429932852 92.94151920586592,41.98910378475557 92.7084592145111,42.98391556672141 92.4404402244254,45.382076548099576 94.79434613723424,46.0571027282931 93.33772119120113,48.97031452639931 95.43526111351093,48.45518039806484 97.29974104443681,48.6683397115703 98.29024600778939,48.988077718691784 98.09214501513634,49.98281079506705" stroke="#4dd2ff" stroke-linecap="round" stroke-linejoin="round" stroke-width="0.5"><title>2022-06-21 5.1km</title></polyline><polyline fill="none" points="128.3113537117606,49.79893777090183 128.09912663756404,49.583268949674675 128.4882096069923,48.52288968661742 127.58034934499301,48.18140894467797 125.44628820961225,48.18140894467797 123.78384279477177,48.79247882578056 123.50087336241268,48.52288968661742 124.67991266373429,45.88087315103621 125.2104803493421,45.39559632996679 125.68209606988239,43.652172711197636 125.52882096069516,43.130936375157034 126.6724890829646,42.51982783963467 126.5899563318817,41.99858490897168 123.5716157204879,39.96750590867305 121.92096069865511,39.41029918789718 120.28209606985911,39.266503341954376 115.7192139737599,39.57206923842023 114.12751091699465,39.913582829256484 112.712663755432,39.733838996522536 109.2462882096006,42.37603698949533 106.98253275104798,43.45446273417474 102.4078602619993,43.31067338567664 101.7711790392932,42.987146506871795 101.5,43.2208049255205 101.54716157203075,43.50838368033874 102.08951965064625,43.670146323791414 105.85065502181533,43.84988225153211 107.7017467248952,43.652172711197636 109.49388646287844,42.66361845866777 112.97205240171752,39.805736572961905 115.05895196506754,40.03940329744364 120.7419213973917,39.75181339603296 122.88777292575105,40.23712081856502 123.80742358075804,40.79432239174639 124.52663755454705,40.20117221080727 125.8589519650559,41.495312992090476 126.51921397380647,41.81884526354406 126.70786026201677,42.555775516011636 125.63493449779344,42.96917275711894 125.7646288209653,43.84988225153211 125.32838427947718,45.575328792707296 124.73886462883092,46.07857776826859 123.6659388646367,48.52288968661742 123.71310043666745,48.66667066189257 125.92969432313112,48.055599921921385 128.5,48.46897176136554 128.37030567685724,49.61921378927218 127.7689956331451,50.73349665803835" stroke="#4dd2ff" stroke-linecap="round" stroke-linejoin="round" stroke-width="0.5"><title>2022-06-20 5.3km</title></polyline><polyline fill="none" points="147.1691616766475,42.73133937710372 147.91017964071943,42.71080205171893 149.15643712574092,42.289785063938325 150.56437125749653,42.926443556814775 151.1976047904318,42.926443556814775 151.29191616766911,43.131815573447966 151.66916167666204,43.01886106636084 152.34281437128084,42.525965752200136 152.6594311377412,42.74160803668565 153.05014970060438,43.47067759782658 152.89520958084904,44.69261594816635 153.25224550899293,45.55514308815327 153.8315868263453,46.51006688257257 155.05763473054685,47.68059430743597 157.26721556887787,50.5143918719441 158.1631736526906,53.21456738188135 158.47979041915096,53.1632345759499 158.38547904191364,52.67043701768125 158.17664670658996,51.8696308587314 157.44910179641738,50.25771377675483 157.2065868263453,49.02564098838775 157.9139221556834,48.55333854999844 157.13922155689215,45.20602671243614 156.64745508981287,43.93275855806496 156.24326347305032,43.20369558442326 154.7679640718561,41.42720284913594 153.21856287424453,40.092225500251516 152.16092814369767,39.42472375696161 151.04940119759704,38.95233264291892 149.095808383252,38.56209321382266 147.66766467064735,38.47993716503697 146.01047904191364,38.675057565327734 145.7881736526906,38.212929095021536 144.12425149702176,37.16542243376898 142.60179640719434,36.764899510169926 137.75823353294982,37.13461308949263 136.14146706587053,38.4183200418629 134.59206586825894,39.17825937233283 132.00523952097865,39.07556552816095 131.63473053892085,38.90098551975461 131.5,39.13718185940161 131.85029940120876,39.29122236273179 133.15044910181314,39.38364644203466 135.0097305389354,39.31176106148632 136.90943113772664,38.120502899804706 137.89296407187067,37.17569221109079 138.71482035929512,37.26812011401125 140.64820359283476,37.03191514114587 142.53443113772664,37.0524547473251 143.76047904191364,37.31946887679442 144.2589820359426,37.62756037060899 144.7776946107915,37.39135705805165 145.8757485029928,38.233468226830155 145.88248502992792,38.664788089150534 145.30988023952523,38.88044665605412 145.43787425151095,39.15772061999087 146.03068862276268,39.568494099421514 146.72455089821597,39.80468735601244 149.47979041918006,39.537686202926125 149.92440119759704,39.75334108867173 150.60479041918006,40.46191502445072 152.86152694612974,39.784148855243984 154.07410179640283,40.64675878432536 155.2597305389354,41.80715156997394 156.37125748503604,43.244769831060694 156.74850299402897,43.96356380695215 156.91691616766911,44.548860010552744 156.01422155689215,44.88771264573006 155.09131736526615,45.02119943102298 154.7073353293381,43.8403427000012 154.08083832336706,42.99832385646732 153.09730538922304,43.52202013291753 152.91541916168353,44.743957256501744 153.75074850300734,46.386851910974656 155.1047904191655,47.70112963717111 157.29416167666204,50.52465896897047 158.196856287439,53.23510048983371 158.5,53.14270143914109 158.47305389221583,52.85523665841174 157.62425149699266,50.76080163145889 157.19985029941017,48.9845713843024 157.9139221556834,48.54307105726184 156.74850299402897,43.984100629226305 156.41167664671957,43.31664968327459 154.57934131738148,41.09859627355763 152.8413173652807,39.77387960178385 151.35254491018713,39.02421852872067 149.80314371257555,38.675057565327734 148.0516467065754,38.52101520591532 146.0374251496978,38.71613544947104 145.8555389221583,38.2745464657055 145.41766467067646,38.03834614160587 144.77095808382728,37.411896519817674 143.53143712574092,36.93948681129041 142.52095808385639,36.8059789287945 137.67739520958276,37.12434330394899 136.07410179641738,38.469667649671464 134.66616766469087,39.17825937233283 131.96482035929512,39.08583492185426 131.6212574850506,38.90098551975461 131.54041916168353,39.239875579853106 133.81062874253257,39.43499308052196 134.86152694610064,39.352838434151636 136.09431137725187,38.74694384090981 137.77170658683463,37.257850355279515 138.0681137724605,37.18596198633895 138.37799401198572,37.237310831580544 138.37799401198572,37.442705697041674 137.45508982035972,38.29508557276131 139.2874251496978,38.048615743588016 139.4423652694677,38.685327039471304 141.24775449102162,38.76748275826321 143.4034431137843,38.58263220536537 143.4910179640865,37.68917844663156 143.76047904191364,37.504323995803134 144.13772455090657,37.69944811873938 144.1309880239569,37.89457149709415 143.69985029941017,39.044757334708265 143.56511976048932,39.856033571777516 143.67290419164055,40.04087952167174 145.04715568861866,40.37976202780919 145.37050898204325,39.280953010267694 145.86901197605766,39.5274168999822 147.14895209582755,39.79441810668868 149.46631736526615,39.5274168999822 150.6452095808345,40.47218413972951 151.52769461077696,40.092225500251516 153.33308383233089,41.70446300488402 154.7679640718561,43.79926893172524 154.98353293414402,44.83637148169146 155.24625748503604,44.98012661113171 156.80913173651788,44.579664888333355 156.89670658682007,44.41537199236336 156.69461077844608,43.93275855806496 156.29041916166898,43.20369558442326 155.13173652694968,41.72500073439733 152.92215568861866,39.82522584848266 150.92140718564042,38.921524375215085 148.90044910179859,38.55182371493356 147.99775449102162,38.531284710988984 145.9431137724605,38.69559651153031 145.37050898204325,38.88044665605412 145.660179640734,39.38364644203466 146.65044910178403,39.77387960178385" stroke="#ff0000" stroke-linecap="round" stroke-linejoin="round" stroke-width="0.5"><title>2022-06-17 21.4km</title></polyline><polyline fill="none" points="188.42900964064756,48.94106604759145 188.19237510953099,48.76071204438631 188.5,47.58840219647391 186.96187554774224,47.227688395745645 185.50657318139565,47.245724120220984 183.66082383872708,47.768758553575026 183.6963190184033,47.04733095217671 185.5184049079835,43.872980664767965 185.7905346187763,42.84489998657955 185.54206836107187,42.14146958414494 186.7370727432135,41.61840238019067 186.8553900087427,41.3117753615079 185.05696757227997,39.85077342540899 182.38299737073248,38.57012255225709 180.06397896580165,38.31759768953634 174.90534618753009,38.732459589147766 174.19544259420945,38.984983285445196 172.89395267306827,38.82264670502627 172.0184049079544,39.11124486733752 169.3444347064069,41.41999678175489 166.8834355828294,42.59238714262028 162.2572304995556,42.37594699709007 161.57099035932333,42.14146958414494 161.5,42.682570382654376 166.95442594218184,42.899009789325646 168.13759859770653,42.53827715515217 169.59290096405311,41.6905497618136 172.88212094653863,38.87675893109554 175.95836985102505,39.02105804125313 177.86327782648732,38.840684117334604 177.99342681857524,39.88684783344797 177.59114811569452,43.205631389260816 178.2892199824273,43.34992354462156 177.72129710778245,43.74672577673482 177.7686240139883,44.82890477248293 180.06397896580165,44.93712195489206 183.9684487291961,45.87499874103378 184.0631025416078,46.235717974203 183.49517966696294,47.93107896534639 184.05127081507817,49.44605532987771 183.9684487291961,50.852796217339346 186.76073619630188,51.68240231046366 187.979404031561,49.157490373305336" stroke="#4dd2ff" stroke-linecap="round" stroke-linejoin="round" stroke-width="0.5"><title>2022-06-16 5.2km</title></polyline><polyline fill="none" points="38.24285714287544,85.18498765448749 38.21948051950312,83.93780388160667 37.14415584417293,83.65273084356159 35.67142857142608,83.63491374826117 33.46233766237856,84.026889018176 34.56103896105196,81.4433837438919 35.06363636365859,80.87322072328243 35.53116883119219,79.48343301101704 35.42597402600222,78.46780514673446 36.57142857144936,77.95107773618656 36.4662337662885,77.4165289723096 34.97012987014023,76.31178465465928 32.78441558446502,75.1713889951352 30.996103896119166,74.81501234550524 24.742857142875437,75.18920779001928 24.100000000034925,75.47430802181043 22.674025974032702,75.26048293385975 19.635064935078844,77.6303488643025 16.970129870140227,78.96671151526971 12.341558441577945,78.80634905989427 11.909090909117367,78.46780514673446 11.5,78.9488934789697 14.515584415581543,79.30525352480618 17.589610389637528,79.19834566133068 20.09090909094084,77.75507689669757 22.919480519514764,75.31393925414886 30.30649350650492,75.22484536910633 31.93116883118637,75.45648928418814 32.936363636370515,75.81286335721234 33.49740259742248,76.4721516187492 32.79610389613663,78.14707814272697 32.50389610390994,80.28523627097456 34.689610389614245,81.15830269154685 33.5324675324955,84.00907199802168 35.65974025975447,83.51019398110657 37.99740259745158,83.72399918895826 38.5,83.93780388160667 38.25454545454704,84.86428493003768 38.45324675325537,85.13153728092584" stroke="#4dd2ff" stroke-linecap="round" stroke-linejoin="round" stroke-width="0.5"><title>2022-06-15 5.0km</title></polyline><polyline fill="none" points="68.3236830648384,85.22329433849518 68.17087505437667,84.91869414057874 68.39420983890886,84.1123944801584 67.18350021765218,83.73611881193938 65.93752720940392,83.6286111867812 63.83347845013486,84.23781935029547 63.49259904224891,84.13031232957292 64.58576404003543,81.46051310001349 65.114714845462,80.90504147672618 65.63191118850955,79.20276819210267 65.42033086629817,78.59352565166046 66.54875925116357,78.10971243557287 66.60753156291321,77.5542199523843 63.645407052652445,75.52933097699861 61.89399216367747,74.95590274099959 60.119068350002635,74.77670566150482 54.14780148016871,75.45765264902002 52.3376142794732,75.40389386527386 49.25794514582958,77.87676439592178 46.71898127993336,79.02357964145631 42.24053112755064,78.79063398764265 41.61754462341196,78.53976875719673 41.5,79.0056607666047 42.017196343047544,79.22068702740216 46.918807139765704,79.34611877358111 49.36373530692072,78.30682184032776 52.81954723552917,75.36805465810176 55.91097083152272,75.47557223644253 57.76817588155973,75.11717980486719 62.05855463646003,75.49349182020524 63.05768393559265,75.88772175310442 63.551371353911236,76.6044989867878 62.94013931215159,77.89468349750678 62.587505441886606,80.3495663955182 64.91488898562966,81.08422624912782 63.621898127981694,83.98696943373943 65.93752720940392,83.53902140018909 67.60666086198762,83.75403673691471 68.48824553762097,84.00488730827783 68.5,85.1516237972246" stroke="#4dd2ff" stroke-linecap="round" stroke-linejoin="round" stroke-width="0.5"><title>2022-06-14 5.0km</title></polyline><polyline fill="none" points="87.02095808384183,77.80321488481059 87.88323353293526,77.75187158683912 89.1497005988058,77.3513920935402 90.60479041915096,77.93670721830858 91.1639221556834,77.90590132613215 91.39296407184156,78.22422798385742 92.45733532932354,77.58757268690533 93.05014970060438,78.51174713294677 92.91541916168353,79.66180756498943 93.05014970060438,80.23682808276499 93.87200598801428,81.5716722174111 94.91616766466177,82.51631009168705 97.22679640719434,85.4835916702541 98.11601796407194,88.21457067636584 98.5,88.21457067636584 97.22005988023011,84.35419682884822 97.2402694610646,84.00510610497076 97.86676646706474,83.75868768883447 97.94086826346756,83.58414059238203 96.84281437126629,79.22026956482296 96.20958083833102,78.20369083992409 94.86901197604311,76.58123040694772 93.74401197602856,75.53379189926636 92.2687125748489,74.54794782296085 91.21107784430205,74.05501865778206 89.41242514968326,73.65451021236004 87.56661676647491,73.57235424610917 86.02395209579845,73.7366660466505 85.8218562874099,73.28480732477692 84.15119760477683,72.24757106576362 82.54116766466177,71.83677861234173 79.17964071854658,72.042175251554 78.71482035928057,72.20649196888917 77.9670658682735,72.08325448038158 76.101047904187,73.51073718479165 74.63248502994247,74.21932890745302 71.97155688623025,74.12690445697444 71.59431137723732,73.96259391033527 71.51347305389936,74.23986765154405 72.17365269460424,74.35283059660651 72.23428143713681,74.55821713006299 72.2881736526906,74.30148383431515 73.20434131736693,74.4657932920818 74.62574850300734,74.45552396642597 75.99999999998545,73.83936065388843 77.8997005988058,72.27838036670073 82.02245508981287,72.10379408242443 83.55164670658996,72.2989198903997 84.33982035928057,72.68916927262399 84.77769461076241,72.4221568591638 85.36377245507902,73.02806763579065 85.90269461077696,73.31561600082568 85.91616766467632,73.70585762427072 85.35029940120876,73.95232448364914 85.44461077844608,74.1782513945218 86.42140718562587,74.74306430491197 87.22305389223038,74.87656462677478 89.43937125748198,74.58902503893114 89.86377245507902,74.75333357280033 90.61152694611519,75.49271544221847 91.58832335329498,75.20517931885479 93.20508982034517,76.57096150609505 94.11452095808636,77.87509541537656 94.08083832333796,78.02912478352664 93.0232035927911,78.62470064211811 92.85479041915096,79.53858804142874 92.95583832333796,79.99039150965473 94.0336826347193,81.77702976125147 94.94985029939562,82.56764860666226 97.2402694610646,85.50412589108237 98.11601796407194,88.04003878584263 98.4326347305323,87.91683944576653 98.4326347305323,87.6807065477442 97.46257485028764,85.40145470454081 97.17964071854658,84.14884963277291 97.22679640719434,83.99483869468168 97.89371257483435,83.72788530332036 97.89371257483435,83.34798769020563 97.0920658682735,80.13414632162676 96.69461077843152,79.07651218401952 96.27694610776962,78.27557080760016 94.76122754489188,76.45800346072065 93.53517964070488,75.37975501513574 92.1676646706328,74.47606261564215 91.3458083832229,74.06528806384085 89.38547904189909,73.6442407238028 87.8697604790359,73.55181523392457 86.03742514969781,73.72639657459149 85.84880239520862,73.30534644418367 84.09056886227336,72.18595240811919 83.154191616748,71.87785800615893 82.06961077843152,71.78542932363052 78.72829341316537,72.18595240811919 77.83907185628777,72.08325448038158 76.03368263473385,73.51073718479165 74.6055389221583,74.20905953232068 71.96482035928057,74.11663506328114 71.64146706585598,73.96259391033527 71.5,74.23986765154405 72.05239520958276,74.3733692870519 74.61227544909343,74.41444664324445 74.65269461077696,74.12690445697444 76.03368263473385,73.47992862630053 77.16541916166898,72.51458439083581" stroke="#4dd2ff" stroke-linecap="round" stroke-linejoin="round" stroke-width="0.5"><title>2022-06-11 15.5km</title></polyline><polyline fill="none" points="116.90155116337701,77.75597611462581 117.88103577683796,77.7250853309888 119.1915186389815,77.3338004611287 120.66412309232692,77.9722110789553 121.15048786588886,77.9619141965486 121.41393545159372,78.19874196840465 122.20427820866462,77.64270981704249 122.48123592694174,77.60152201042729 123.04866149611189,78.42527185719155 122.92031523642072,79.753540614558 123.27833375030605,80.62873765984114 123.94708531399374,81.63776983395292 125.14948711534089,82.7600374012145 127.32461846384103,85.59133726657456 128.16224668500945,88.18570027383248 128.5,88.20628993153878 128.43920440328657,87.67095614485152 127.69614711031318,85.88990159653986 127.25031273455534,84.34558458257743 127.25031273455534,84.02641993465659 127.92581936453644,83.73814048093845 127.96634976231144,83.55281711924545 126.93282461847411,79.39316101925942 126.48699024267262,78.44586543380501 125.01438578934176,76.54092459674575 122.94733550163801,74.87275612564918 121.25856892669981,74.02835386705192 119.81973980483599,73.67823177939135 117.69189392043336,73.51346761679815 116.04365774331382,73.7297204716233 115.90180135100672,73.33840511398739 114.1522391793842,72.18503721435263 112.51751313485147,71.79371006846122 109.12646985238825,72.04086440280662 108.8224918689084,72.1747391698409 107.91055791842518,72.07175861082942 105.99211908933648,73.54436093762342 104.99912434325961,74.06954454373772 104.07368026020413,74.24460455046574 101.93907930949354,74.10043752952333 101.58106079560821,73.90478163851003 101.5,74.19311637523424 103.20903177384753,74.41966395960844 105.05316487365053,74.31668790893673 106.05291468600626,73.77091138818287 107.58631473605055,72.3806996673884 107.97810858143202,72.1747391698409 108.79547160372022,72.27771952200783 111.9771078308695,72.07175861082942 113.35514135601989,72.21593133553324 113.72667000249203,72.3292096205405 114.17250437827897,72.76172440698065 113.79422066549887,73.58555200308547 113.61183387540223,74.65650809122599 113.69289467101044,75.05811085787718 115.03039779835672,75.36703392273557 115.39517137853545,74.29609267401975 116.25306479859864,74.6359129927987 117.32712034024007,74.81097106600646 119.64410808106186,74.58442521044708 120.650612959711,75.47000786411081 121.64360770577332,75.19197774779605 123.2107830872992,76.56151893012793 124.11596197147446,77.82805453738183 124.17000250187994,77.92072664634179 123.60933199900319,78.37378787940906 123.0959469602094,78.57972348033582 122.46772579432582,77.59122505359846 121.39367025268439,78.22963246670042 120.20477858395316,77.7662730383563 119.31986489865812,77.7662730383563 118.73217413057864,77.98250795929198 117.48248686514853,78.85773522977979 116.50300225168758,78.2914134074963 116.75293970477651,77.7044914649232 116.92857142857974,77.73538226094752" stroke="#4dd2ff" stroke-linecap="round" stroke-linejoin="round" stroke-width="0.5"><title>2022-06-10 10.5km</title></polyline><polyline fill="none" points="158.5,85.24752671007445 158.09019947960041,84.96196342596522 158.33607979185763,84.08742016135511 158.09019947960041,83.85539703463292 155.81873373803683,83.64122130317264 153.4653078924166,84.10526806911366 154.05073720726068,82.24906646905583 155.24501300955308,80.5356152008826 155.54943625326268,79.19695841388602 155.36209887251607,78.4829998834175 156.53295750217512,78.05462201230694 156.49783174326876,77.69763887588488 156.3924544666079,77.35850356823357 154.788378143945,76.2161435375092 151.7207285342447,74.93097095213307 150.1049436253379,74.75247328993282 144.6370338247798,75.23441615512274 144.00477016475634,75.53786032211792 142.7168256721634,75.32366454706062 142.09627059844206,75.55570994670416 139.33304423242225,77.82258313673083 137.70555073721334,78.7150370348827 135.59800520379213,79.03631824452168 134.63790112751303,78.73288602146204 132.33130962704308,78.8042819318216 131.69904596704873,78.46515084665589 131.5,78.982771456911 136.94449262789567,79.28620282688644 136.97961838680203,78.76858398378681 139.50867302689585,77.50129753968213 141.67476149174036,75.55570994670416 142.8924544666079,75.09161854157719 143.45446660881862,75.16301737703179 143.45446660881862,76.05549798056018 142.01431049435632,77.2514079390603 142.01431049435632,77.50129753968213 144.882914137037,77.05506561710354 145.26929748483235,78.1617166736687 147.458803122252,78.10816935914772 147.49392888115835,79.60748197192879 148.20815264523844,79.73242354802642 147.65784908930073,80.10724722260784 147.73980919341557,81.3031026655517 149.57805724194623,81.3031026655517 152.58716392019414,81.89210017876758 153.85169124021195,82.37400433201401 153.5121422376542,84.06957225005317 155.51431049435632,83.4091970117006 158.17215958365705,83.81970111527335 158.42974848221638,84.05172433517873 158.40633130961214,85.15828828232043" stroke="#4dd2ff" stroke-linecap="round" stroke-linejoin="round" stroke-width="0.5"><title>2022-06-09 5.2km</title></polyline><polyline fill="none" points="173.8505121638882,77.0761975475616 174.948143405898,77.04984874804359 176.4779129321396,76.56239404837834 178.3533930857957,77.37920798149935 179.16581306018634,77.36603364388793 179.2781690141128,77.61634560579114 180.66101152368356,76.83905797098123 180.98079385401797,77.1157207270262 181.51664532651193,78.05109569108026 181.29193341868813,79.39485046973277 181.50800256084767,80.19845537348374 182.51056338028866,81.924196575932 183.97983354673488,83.30739148796056 186.90973111396306,87.02211351729056 188.1024327784835,90.55222184174272 188.5,90.46001993511891 188.33578745197156,89.7355718752151 187.11715749040013,86.77183743438945 186.83194622278097,85.28333364097853 186.93565941101406,85.05939651993685 187.7740076824557,84.63786574820551 186.46895006403793,79.31580683278298 185.70838668374927,77.74808836009834 183.24519846352632,74.98143496717239 181.28329065302387,73.41361292361762 179.2003841229307,72.34641850557455 177.2730473751435,71.85892885973954 174.98271446861327,71.66129689028458 172.48495518567506,71.91163061767656 172.1997439180559,71.30555784511671 171.11075544176856,70.60724966538692 169.9526248399634,69.9221098879716 168.8031370038516,69.57953731607267 167.5499359795358,69.44777815825728 162.80505761844688,69.9221098879716 162.76184379000915,70.43596539180726 163.38412291934947,70.33055946271998 162.58898847628734,70.50184401147999 161.5,71.39778667168503 163.88540332906996,71.21332888886172 164.1014724712004,71.9379814807944 165.7003841229307,72.00385859223752 165.69174135726644,73.04470817440597 166.19302176698693,73.12375936669196 165.78681177977705,73.33456208054122 165.8473111395724,74.26999095188876 168.95870678615756,74.53348963483222 170.45390524968388,75.06048382600784 170.05633802816737,76.43064891326867 170.43661971829715,77.52412552040187 170.35883482717327,78.55171343297116 171.79353393084602,78.89423916082524 173.176376440475,79.6978501958547 174.14436619717162,78.44632054155954 176.15813060180517,77.19476701448366 176.9273367477581,76.99715111725891 175.85563380279928,75.98271347516857 175.01728553138673,76.36477624651525 173.8245838668372,76.40429985452647 173.70358514724649,77.04984874804359" stroke="#4dd2ff" stroke-linecap="round" stroke-linejoin="round" stroke-width="0.5"><title>2022-06-07 8.0km</title></polyline><polyline fill="none" points="37.1455309396697,109.98598847537869 36.210466004602495,111.66283448982358 34.59472880062822,111.15978634186467 34.20970206265338,111.67331460802961 32.88961038962589,112.7632354115267 32.16080977846286,113.16147002818616 31.844537815151853,113.55970160658762 30.930099312463426,115.2993091932185 30.60007639421383,116.65113288949942 30.043162719666725,117.7828653402903 29.472498090166482,120.31869526758601 29.16310160428111,120.61208912672737 27.980519480537623,121.68086709793351 27.04545454545587,122.24668187136558 22.933919022165355,123.2106484725191 20.75439266616013,121.06265505699048 19.59931245225016,120.43395733750003 17.79106187931029,120.04625663621118 17.660427807481028,119.79477356065036 17.83919022155169,118.94600923612597 17.749809014523635,118.53734000979603 16.828495034380467,118.07627345197398 15.03399541635008,116.26340409205659 11.905653170353617,116.14813281311581 11.5,115.88615168702381 11.5,115.3936236103691 13.906417112288182,113.60162054337343 13.892666157378699,113.39202552280767 13.71390374332259,113.3605861971555 13.067608861732879,113.89505215823738 12.888846447662218,113.82169440915095 12.957601222311496,113.6330597238557 16.821619556925725,110.59385138021025 16.876623376621865,109.27331260612118 17.06913674560201,109.2104289740164 18.733002291846788,109.60869069794717 20.93315508021624,109.30475439378642 23.504583651651046,107.91081694750756 26.06913674561656,107.1876317256465 27.237967914450564,106.96752988654771 27.581741787638748,107.15618866261866 30.352559205522994,106.78935152747727 30.881970970222028,106.88368132277174 31.01948051949148,107.72216089914582 33.79717341483047,107.99466386124186 34.608479755566805,108.2986077943533 34.28533231477195,109.40956021582315 34.608479755566805,110.28992081268007 34.59472880062822,111.13882589712375 35.79793735676503,111.47419200247896 36.856760886192205,112.0610775019959 37.3792971734365,111.28554883336983 38.5,110.4366461351965 38.321237585972995,110.0069493830415 37.60618792974856,109.96502755929032" stroke="#4dd2ff" stroke-linecap="round" stroke-linejoin="round" stroke-width="0.5"><title>2022-06-05 8.1km</title></polyline><polyline fill="none" points="46.884202827874105,110.38558569579618 47.002681618731,110.60631914320402 47.13432471966371,110.30531886676181 48.556070209655445,110.38558569579618 51.175767918117344,109.48258015227475 52.347391516319476,110.20498523984133 55.098732325655874,110.7668522532258 55.44100438809255,111.22838350827806 57.65260848365142,110.02438445750886 58.2450024378486,110.62638579602935 58.82423208191176,111.91064319833094 58.53461725986563,114.29851543538825 59.232325694785686,115.98403795851482 60.81204290589085,118.25142222626164 62.47074597759638,119.65597074927064 64.97196489517228,122.72584380240005 67.1177474402648,125.71536811264377 67.97342759626918,127.80196296622307 68.5,127.54114099172875 67.43369088249165,124.83256486865139 67.05192588979844,122.74590802202147 67.20989761091187,122.38475145293341 68.35519258899149,121.92327171543002 68.3683568990673,121.52198325515201 66.82813261821866,114.80016201465332 65.43271574843675,111.50931453298108 62.918332520726835,108.43909691765293 58.53461725986563,104.76675196500582 55.467333008302376,103.14124471880496 50.66235982449143,102.1980370337842 46.239151633373694,102.31844702121452 44.633105802029604,102.4990617302974 43.73793271573959,102.94056297822681 43.869575816672295,103.78342358050577 43.395660653332015,105.79020592570305 43.02705997074372,105.89054398510052 41.5,109.14144260122703 43.80375426617684,108.57956644924707 46.41028766459203,108.88057192351698 47.002681618731,109.10130869513523 46.818381277436856,110.10465151218523 47.292296440777136,110.36551899460028 46.96318868844537,110.52605249150656" stroke="#4dd2ff" stroke-linecap="round" stroke-linejoin="round" stroke-width="0.5"><title>2022-06-04 5.1km</title></polyline><polyline fill="none" points="98.28897090748069,120.15606908709015 98.37103777678567,119.03019182950811 97.50347372988472,118.77999494919641 95.82696482850588,118.61915372621297 93.54081632650923,119.1552900059396 94.1270082500996,117.45751404031034 95.15870603561052,115.97416747660463 95.6511072514113,114.25845868801116 95.47524967434583,113.59718709497247 96.50694745982764,113.15037918301095 96.53039513679687,112.50697184886667 93.43530178029323,110.50523039462132 91.92292661743704,110.02266098713153 90.41055145463906,109.84393091290985 84.79483282673755,110.23713660243811 84.16174554929603,110.46948460237036 82.7079895788047,110.32650128956448 79.02670429873979,113.13250681984937 76.91641337383771,114.06186494381836 73.08271819364745,113.90101519382006 71.6993052540347,113.52569797978504 71.5,114.02612058007799 72.20343030826189,114.22271440314944 77.02192792008282,114.36569145633985 79.30807642205036,113.38271957715187 82.76660877114045,110.43373879570572 84.87689969604253,110.57672193620965 90.0471124620235,110.29075542547798 92.15740338686737,110.61246768539422 93.57598784193397,111.55972480835771 93.08358662613318,112.32824676384189 92.60290924881701,115.36652439666796 94.7249240121746,116.11714171602944 93.62288319584331,119.01232064711803 95.69800260526245,118.42256961441308 97.15175857575377,118.58341119267425 98.5,119.03019182950811 98.34759009987465,120.0667142695238" stroke="#4dd2ff" stroke-linecap="round" stroke-linejoin="round" stroke-width="0.5"><title>2022-06-03 5.0km</title></polyline><polyline fill="none" points="128.31233709814842,120.17618970167678 128.10121633362724,119.94376606724836 128.35925282366225,119.19285479421524 127.0338835795119,118.67436474309216 125.57949609035859,118.56709056247928 123.76151172895334,119.19285479421524 123.45655951346271,119.06770229969698 123.64422241531429,118.1379925474539 125.35664639441529,115.3666847280474 125.6146828844503,114.24025753958995 125.43874891396263,113.54293832890107 126.49435273674317,113.11381610007084 126.44743701128755,112.59529064747767 123.33927019982366,110.50327797952195 121.55647263251012,109.94897578709788 120.37185056469752,109.82381029831595 115.21112076455029,110.21718695630989 113.75673327539698,110.57480059169029 112.64248479585513,110.34235189207538 108.93614248483209,113.16745649181394 106.89530842748354,114.0435783152061 102.36794092092896,113.86477864324843 101.7463075586711,113.5071782221712 101.5,113.98993845129735 102.14509122504387,114.2223776280589 105.71068635967094,114.41905645752558 107.71633362292778,114.18661779421382 109.6985230234568,112.9886550604133 112.79496090358589,110.41387463352294 114.16724587316276,110.62844251309434 117.59209383148118,110.23506767221261 122.2367506516166,110.57480059169029 123.46828844482661,111.2721430492893 123.52693310167524,111.62975244732661 122.88184187663137,112.97077489754156 122.56516072980594,115.42032376249699 124.95786272807163,116.09974873541796 123.59730668980046,119.03194441180676 125.83753258033539,118.47769531318772 127.49131190270418,118.74588079172099 128.5,119.15709695658734 128.30060816681362,120.01528109631909" stroke="#4dd2ff" stroke-linecap="round" stroke-linejoin="round" stroke-width="0.5"><title>2022-06-02 5.0km</title></polyline><polyline fill="none" points="140.7124904798402,110.32261414825189 142.16222391472547,110.27559575018677 143.70449352631113,109.78973731142469 144.21858339681057,109.93079329874308 144.20830159939942,109.5546434327407 146.44973343488527,110.55770571388712 147.385376999242,110.60472394202225 147.50875856817584,110.88683271620539 148.2593297791609,110.62039667846693 149.1332825590216,109.93079329874308 149.71934501142823,110.41665085948625 150.19230769231217,111.4353746359775 149.9866717441182,113.50412662093004 150.4699162224133,114.52281010321167 151.68316831684206,116.37207845212106 153.17402894134284,117.64146611335309 156.66984006093116,122.2016885382618 157.92421934500453,126.19754074754019 158.5,126.13486229185946 156.54645849199733,120.28987514191249 156.54645849199733,119.74139544236095 157.61576542269904,119.14589883371082 156.4642041127372,114.00563399666862 155.25095201830845,111.12192258243158 152.43373952782713,107.68954023641709 149.95582635188475,105.80871877186291 147.79664889565902,104.69587806388154 145.53465346537996,104.11594070181309 142.12109672508086,103.80245925245981 139.26275704495492,104.0845926135371 138.3476770754205,104.41374691246165 136.8362528560683,104.36672495475796 132.4870525514416,104.86829104325443 132.044935262762,105.00935592489986 131.99352627573535,105.58928664869745 131.53084539223346,105.6363078698705 131.5,106.82750269113603 134.50228484388208,107.04693133322144 136.56892612337833,107.59550023957127 137.05217060167342,107.94031300741335 136.6408987052855,109.30387584839627 138.56359482102562,108.81801136093418 140.97981721250108,109.22551081301208" stroke="#4dd2ff" stroke-linecap="round" stroke-linejoin="round" stroke-width="0.5"><title>2022-05-30 6.1km</title></polyline><polyline fill="none" points="175.4111870196357,112.51124906708719 175.5187873612449,112.40580896207757 176.27967549103778,112.46438682171356 177.79376601197873,111.94889963846072 179.5307429547538,112.64012004778488 180.20708795901737,112.65183557736236 180.4684030742792,112.89786115523384 181.5751494449214,112.19492818041545 181.84415029891534,112.39409338307087 182.3283518360695,113.23760905736344 182.12852263025707,114.63172628619941 182.34372331341729,115.26433992388411 183.4888983774872,117.03327869202258 184.4496157130634,117.82986936641828 187.15499573014677,121.30896881353328 188.14645602050587,124.3661880067666 188.4538855678984,124.34276164876428 188.5,123.9796518965777 187.5777113578224,121.68380890069966 187.07813834332046,119.71587157992326 187.16268146882067,119.48158890654668 187.86208368916414,119.21216266927877 187.90051238259184,119.00130648539562 186.67079419299262,114.12797348402819 186.05593509820756,112.97986945066805 184.5725875320495,111.17566032409377 182.15926558498177,109.11363871805588 181.78266438940773,109.05505749417352 180.26857386849588,108.1880485036636 178.21648163962527,107.73110614845427 176.12596071735607,107.62565740439459 174.3736122972041,107.84827119608599 174.09692570453626,107.34445982180478 172.15243381727487,106.12592130227131 170.14645602050587,105.63381199323703 166.93381725021754,105.86815027712146 166.06532877881546,106.10248761974799 165.25832621692098,105.9970359320796 164.77412467976683,106.11420446219199 162.83731853117933,107.6725235363665 162.03800170795876,108.14118278578098 161.5307429547247,108.24663059810337 161.5,108.5746892397874 163.30614859095658,107.64909047507899 165.17378309139167,105.98531906610515 167.5409906063287,106.07905392787143 168.3479931682523,105.87986716658634 169.15499573014677,106.02046965689442 170.33091374894138,105.93845157874603 171.27625960719888,106.0907707749866 172.28309137490578,106.60630971913633 172.87489325364004,106.26652319955974 173.62040990608511,107.02811092137563 174.15072587531176,107.29759342626858 174.11229718191316,107.81312170650199 173.88941076004994,107.93028658945332 173.88172502137604,108.15289921878866 174.27369769429788,108.44580927911011 175.21135781382327,108.7387178688914 178.4624252775684,108.45752565092698 178.89282664388884,108.6449872801677 179.85354397952324,109.5940025350501 182.13620836893097,108.99647621149052 184.34970111015718,110.87104808357253 186.04056362085976,112.9095766330829 186.82450896670343,114.47942938607594 184.75704526048503,115.05346947340877 184.4573014517664,114.72544725789703 184.16524338175077,113.65936232153763 183.5196413322119,112.7924217488835 182.4052092228958,113.31961687526564 181.66737830915372,112.32379985977968 180.4299743808806,112.94472305246381 180.15328778821277,112.73384421857918 179.5384286934277,112.69869767217824 179.00042698546895,112.45267125450482 178.22416737829917,112.40580896207757 177.65542271564482,112.55811127482593 177.12510674638906,112.99158491204435" stroke="#4dd2ff" stroke-linecap="round" stroke-linejoin="round" stroke-width="0.5"><title>2022-05-28 10.0km</title></polyline><polyline fill="none" points="25.544911881763255,147.3802546791594 26.642410460481187,147.33345895274397 27.808982376387576,146.795305397638 28.47669130191207,147.27496424189667 29.05230244458653,147.34515788788121 29.566515065380372,147.63763050252237 30.15747583855409,147.61423274740446 30.449118817516137,147.918402831383 31.301023308711592,147.31006107544817 31.67708925527404,147.2164694722851 32.314098919858225,148.1991738072029 32.19897669131751,149.70829462165784 32.59039226832101,150.67925866669611 33.27345082434476,151.79058319723117 34.58584422970307,152.99546900291898 37.17993177945027,156.36433786784255 38.154633314406965,159.38211750718256 38.5,159.2417591289195 38.453951108589536,158.65692891381332 37.494599204103,156.29415508639067 37.08783399660024,154.5512555655041 37.91671404207591,154.13014450591072 36.80386583285872,149.3807368359776 36.02870949404314,147.83651104190358 33.956509380368516,145.5785920799317 32.16060261515668,144.11616264123222 31.1628766344802,143.71837548348776 30.464468448015396,143.2269875976781 28.330869812401943,142.72389570647283 26.212620807258645,142.5834971940276 24.32461625925498,142.7940948358264 24.20181921546464,142.3260990424933 22.175667993200477,141.0624916219749 20.26463899941882,140.61788249281744 14.838544627622468,141.0624916219749 12.91984081864939,142.60689696962436 11.5,143.28548637280983 11.515349630470155,143.51948088610152 11.822342239902355,143.51948088610152 12.628197839658242,143.09829008552697 14.915292779973242,141.13269275325365 15.252984650345752,141.01569082079004 17.501705514499918,141.03909122608457 18.184764070494566,140.81678699634722 18.890847072209,140.98059019524953 20.39511085842969,140.92208910563568 21.308413871534867,141.09759219817352 22.321489482652396,141.61239821959316 22.90477544060559,141.23799429151404 23.557134735630825,141.99849975033067 24.178794769744854,142.3377989831315 24.270892552594887,142.665396367418 23.910176236502593,143.05149091970816 24.094371802173555,143.3322853506579 24.531836270616623,143.53118058714244 25.821205230255146,143.76517411360692 28.469016486633336,143.42588319358038 28.80670835703495,143.56627967598615 29.896532120532356,144.6075430275887 31.1628766344802,144.1746605236185 32.13757816943689,144.05766470013987 34.16372939173016,145.64878776971454 35.836839113151655,147.62593162614576 36.46617396248621,148.6554237571654 36.765491756697884,149.53281746548964 34.71631608871394,150.04754895842052 34.47839681638288,149.75508844072465 34.20977828311152,148.71391708210285 33.47299602048588,147.7546191373258 32.42154633314931,148.2927638318106 31.6387151790841,147.25156634109953 30.426094371796353,147.9418004643776 30.149801023333566,147.69612484930258 29.558840250159847,147.67272711764235 29.02160318364622,147.36855575106165 27.62478681068751,147.54403942558565" stroke="#4dd2ff" stroke-linecap="round" stroke-linejoin="round" stroke-width="0.5"><title>2022-05-26 10.0km</title></polyline><polyline fill="none" points="46.864580927824136,144.2557059394967 48.56878951017279,144.17985859893815 50.8327746342693,143.4403438356385 53.53214151295833,144.69182696571806 54.4651024157356,144.63494172866922 54.88804469164461,145.2417158235694 57.00275607127696,143.9333543212997 58.08499071848928,145.6399092046122 57.74912479351042,147.59292861770518 58.483054036973044,149.52694687450276 59.34137806756189,150.98691481383867 61.7297579786391,153.24318450874853 65.90942282305332,158.62767755735695 67.45191818231251,163.36729415820446 68.13608951104106,163.5 68.01169472400215,162.60897148519143 66.15821239713114,158.11578473315603 65.85966490823193,155.78379342413973 66.99165747026564,155.34772361824434 67.11605225730455,155.02540985892847 65.02621983509744,146.8344792737189 64.11813788971631,145.14690762824466 61.381452574947616,141.98025922156376 57.774003750877455,138.98417075153702 55.78368715828401,137.86535384506715 52.63649904628983,136.84134031206486 48.419515765766846,136.5 44.73743006947916,136.86030362654128 43.85422708149417,137.12578962960106 44.05325874075061,137.84639073239669 43.568119071336696,139.9323102954222 42.68491608335171,140.95629031024873 41.863910488958936,143.04214117977244 43.966182389849564,142.47327732998383" stroke="#4dd2ff" stroke-linecap="round" stroke-linejoin="round" stroke-width="0.5"><title>2022-05-24 5.1km</title></polyline><polyline fill="none" points="98.45302305350197,155.22770138727356 98.19464984774822,154.94126833195332 98.4295345802384,154.02825682659022 96.66789908657665,153.67021054673387 95.4112657677615,153.74181991774094 93.79056111350656,154.24308390432998 93.50869943454745,154.04615910282155 94.01370160939405,152.70347840870818 95.2703349282383,150.64466206981888 95.68138321008882,149.31983337207203 95.52870813399204,148.58579818532598 96.6326663767104,148.1203093256263 96.6326663767104,147.78014285262907 96.43301435408648,147.2967461582448 94.8357981731242,146.22252189751453 92.16985645933892,145.0587643412291 90.2438016528904,144.77229861272644 85.31122227056767,145.18409280799824 83.86668116573128,145.50636519915133 82.85667681603809,145.29151706781704 82.11678990867222,145.5421731707538 78.9693344932748,148.10240585937572 77.00804697696003,148.99757476602827 72.721400608978,148.85434834497573 71.66441931272857,148.5499914362881 71.5,148.89015497185756 71.96976946498035,149.1408009569932 74.31861678994028,149.39144623745233 77.7479338843259,149.23031720943254 79.6857329273771,148.10240585937572 82.2694649847981,145.77492463527597 82.97411918226862,145.45265321487386 89.79752066117362,145.34522914922854 92.22857764246874,145.57798112794262 93.55567638101638,146.49107917622314 92.897999130073,147.76223931811546 92.60439321442391,150.3403112730375 94.98847324925009,151.07433201411186 93.60265332757263,154.04615910282155 95.90452370597632,153.50908925168187 97.11418007832253,153.63440583971533 98.5,154.01035454677185 98.4295345802384,154.74434507260594" stroke="#4dd2ff" stroke-linecap="round" stroke-linejoin="round" stroke-width="0.5"><title>2022-05-22 5.0km</title></polyline><polyline fill="none" points="106.92748316246434,143.86269554679893 107.00159961392637,144.25811808067374 107.96511348281638,144.29577728267031 109.29920960901654,144.10748112149304 110.9544770248176,143.44844158003252 111.4979976688046,143.91918458227883 112.7950355692301,144.12631075464742 113.73384395433823,144.67236847070308 114.70971056510461,144.59705035408115 115.00617637092364,145.0489581464135 116.8837931411108,143.86269554679893 117.50143023655983,144.35226605726348 118.10671459007426,145.538522463954 117.78554330047336,147.85450362960546 118.58847152453382,149.6620589452432 119.93492039258126,151.58254829498037 121.60254055034602,152.99464772655483 125.97541118608206,158.64283284229168 127.5565621504793,163.5 128.13714102018275,163.38704548114765 128.05067182678613,162.84109672201885 126.06188037944958,158.02154913020786 125.75306183175417,156.0070554529375 125.87658925083815,155.6681644141281 126.95127779690665,155.2351351936304 127.02539424836868,154.7079664873454 125.13542473627604,147.13900335886865 124.24602731887717,145.3313994107666 120.82431781006744,141.3018235327254 117.79789604237885,138.94801919203746 114.46265572693665,137.3285674967192 110.54683654182008,136.57532462038216 107.92805525707081,136.5 104.90163348938222,136.8389603153555 103.99988333007786,137.19675043015013 104.09870526532177,137.931157441315 103.61694833086221,140.02136129964492 102.97460575160221,140.64276427288132 101.86285897978814,143.14716481844516 103.99988333007786,142.46928856580053 105.81573639065027,142.63875808839657 107.03865783964284,143.12833498873806 106.76689751763479,143.84386586070468" stroke="#4dd2ff" stroke-linecap="round" stroke-linejoin="round" stroke-width="0.5"><title>2022-05-16 5.4km</title></polyline><polyline fill="none" points="147.24438342486974,147.67369229413816 147.8577134298539,147.72506128719033 149.19221168247168,147.29356014257064 149.50898652021715,147.57095415328513 150.21667498753231,147.7045136961533 150.57388916627679,147.92026299049394 151.17373939092795,147.89971547784444 151.38267598602397,148.17710620233265 152.46779830254673,147.550406500377 153.08112830756,148.47504271284924 152.94633050427365,149.81059885478317 153.48552171741903,150.95093074027682 154.19321018474875,151.91659732903645 154.9952571143367,152.58433484430861 157.3339990015229,155.56336529452528 158.19670494260208,158.19298599254398 158.5,158.1724426045439 158.4865202196961,157.87456255188954 157.5227159261267,155.31683142592738 157.25986020971322,154.21768680939203 157.3070394408569,154.00196406636314 157.94058911634784,153.69378714160484 157.96080878684006,153.49860746261766 156.97678482277843,149.481849808064 156.3701947079535,148.29011680710028 154.77284073889314,146.39972476659023 152.61607588618062,144.6736536421231 151.38267598602397,144.05718555669955 150.16949575638864,143.73867413559128 147.98577134299558,143.53318184385716 146.02446330504608,143.70785034445726 145.8829256116005,143.3174140492556 144.95282076887088,142.63928077067249 144.03619570644514,142.12553745434343 142.71517723417492,141.80701400745238 139.6148277583561,142.00223829080278 138.86669995007105,142.1974618291897 137.84223664503952,142.13581237124163 135.80004992513568,143.70785034445726 134.68796804793237,144.201028774336 131.99875187219004,144.1085581808511 131.6347978033009,143.92361649247687 131.580878681998,144.01608742022654 131.5,144.2113032744237 131.89091362958425,144.31404816163922 134.58686969547125,144.44761620658755 135.74613080380368,143.99553833960817 138.12531203197432,142.14608728605162 139.45307039441832,142.23856142656223 140.43709435847995,142.0844377661706 142.5601597603818,142.1049876143843 143.36894658015808,142.20773673163785 144.29905142288771,142.63928077067249 144.5956065901264,142.3618600205773 143.19370943585818,141.89948876083508 142.35796305543045,141.80701400745238 139.52046929605422,141.98168840129438 138.52970544183336,142.23856142656223 139.9787818272889,142.1974618291897 140.82126809786132,142.00223829080278 142.56689965052647,142.0741628389842 143.49026460311143,142.26938610291472 144.37993010484206,142.6495555843976 144.7843235147302,142.35158514909926 145.45157264106092,143.0399969762475 145.91662506241119,143.26604063071136 145.94358462309174,143.66675192736875 145.37743384925125,143.89279281276686 145.43809286071337,144.201028774336 146.75911133302725,144.8277695028919 147.98577134299558,144.73530004211352 148.0329505741538,146.15314674247566 147.72965551674133,146.33808037196286 147.71617573640833,146.65657561141052" stroke="#4dd2ff" stroke-linecap="round" stroke-linejoin="round" stroke-width="0.5"><title>2022-05-14 9.9km</title></polyline><polyline fill="none" points="173.12118126271525,146.85063988598267 173.99185336049413,146.9065215106748 175.81568228104152,146.26388011698873 176.65885947045172,146.78078779202042 177.1812627291074,146.82269905683643 177.79531568224775,147.1859289608692 178.36354378817487,147.1300475605858 178.91344195519923,147.49327586010259 180.2698574337992,146.5852015558121 181.13136456211214,147.91238308015818 180.9389002036478,149.60275657587408 181.4338085539639,150.77621485251075 182.04786150713335,151.83789814523698 183.6517311608768,153.33260900665118 186.9144602851011,157.5232159167208 188.1883910386823,161.16883864521878 188.4633401221945,161.07106581552216 188.5,160.54029662862376 187.43686354375677,157.95623091082598 186.85947046839283,155.52572476842033 186.94195519346977,155.30222568841054 187.8309572301223,154.8552253748021 186.80448065171367,150.38506429260087 185.65885947045172,147.63297854728444 183.21181262729806,144.74107572561843 180.98472505089012,142.96675700737615 178.6201629327552,141.8211098569118 176.2647657841153,141.33210837727165 174.3309572301514,141.1784214880572 171.5906313645246,141.4299089481392 171.36150712828385,140.92693311888434 170.12423625253723,140.0187731058686 168.8136456211796,139.27826462882513 167.78716904277098,138.95690944101443 166.52240325862658,138.83116135477758 162.18737270872225,139.16648907967829 161.5,139.41798381266926 166.78818737270194,139.18046103313463 168.51120162929874,139.59961833220586 169.07026476575993,140.06068844436595 168.52036659873556,141.1784214880572 168.30040733196074,143.13441110557324 170.06008146639215,143.83296549932493 169.0977596740995,146.02638070840112 170.5733197555819,145.57932079879174 172.36965376781882,145.76093923351436 172.8920570264745,145.95652778690055 172.80040733196074,146.78078779202042" stroke="#4dd2ff" stroke-linecap="round" stroke-linejoin="round" stroke-width="0.5"><title>2022-05-12 7.0km</title></polyline><polyline fill="none" points="21.27977099234704,180.35114322208392 22.43396946566645,180.35114322208392 24.340458015270997,179.69137454557494 24.79389312976855,180.09980342997733 26.39122137404047,180.64960817641258 27.349618320615264,180.68102547380113 27.792748091596877,181.1051577535327 29.420992366416613,180.11551219062676 30.235114503797377,181.43503682586015 30.11145038169343,183.7441513863232 30.801908396941144,185.1421536104317 31.8324427480984,186.60296070558252 33.15152671755641,187.71818217102555 35.16106870229123,190.16847209278785 35.36717557252268,190.7653259638828 36.35648854961619,191.78624966227653 36.995419847313315,192.9013972488101 37.922900763340294,196.07398373333126 38.5,195.9169280229762 36.78931297708186,190.74961934140447 36.696564885467524,189.9956977540569 37.758015267172595,189.3360104056701 36.6347328244301,184.40388588576752 35.88244274808676,182.3775407967114 35.305343511427054,181.27795172680635 32.986641221359605,178.48178418714087 31.121374045789707,176.8008938056082 29.019083969440544,175.40274251588562 27.62786259542918,174.7429321048985 26.123282442742493,174.3501851705514 22.650381679384736,173.92601626667602 19.332061068707844,174.24021567554882 18.456106870202348,174.57012369672884 17.04427480918821,174.49157429404295 12.097709923662478,175.10425754309108 12.01526717559318,175.74835527204414 11.71641221374739,175.7169359936961 11.541221374034649,175.95258027392265 11.5,176.84802206541644 11.706106870231451,177.09937230492505 13.262213740468724,177.03653482079972 15.951908396964427,177.47639615002845 17.095801526709693,177.9948009702057 16.77633587786113,179.45574152696645 18.538549618329853,178.8430923569831 19.77519083971856,178.95305538179673 21.03244274808094,179.33007029347937 20.826335877849488,180.11551219062676" stroke="#4dd2ff" stroke-linecap="round" stroke-linejoin="round" stroke-width="0.5"><title>2022-05-10 6.0km</title></polyline><polyline fill="none" points="57.14504864056653,182.76269890852564 57.81853330008744,182.7524328082509 59.13856323272921,182.28018996819083 60.58655525067297,182.92695623224427 61.18595659766288,182.92695623224427 61.3677974557213,183.16307521058116 62.36455475180992,182.5368442267427 62.5329259167047,182.61897331737782 63.04477425791265,183.39919309847755 62.876403093046974,184.66189199093787 63.273759042145684,185.63712588965427 63.89336492891016,186.5815451992712 64.99114492394438,187.59780301461433 66.84322773761232,189.97925735507306 67.41568969818763,190.87227413846995 68.08917435770854,193.16119996267662 68.5,193.1406719352708 68.27101521576697,192.13478849732928 67.7254926415626,190.9030675424874 67.2742579196929,189.322315511763 67.2607882264856,188.98357657579618 67.95447742579563,188.59351077874817 66.90384135695058,184.31285639132693 66.39199301572808,183.26573529581947 65.11237216263544,181.66421449100744 63.6711149912735,180.35010866883385 62.856198553257855,179.80597683831365 61.401471688688616,179.05650275978041 60.0545023696759,178.72796271365587 58.074457470691414,178.54315800988843 56.05400349215779,178.6971619760916 55.804814168135636,178.28648370197334 54.15477675230068,177.19817032062565 52.37004240458191,176.78748000484848 49.24507358443225,177.0133600868321 48.75342978298431,177.1776358832176 47.770142180102994,177.14683421160953 46.05275629834796,178.49182325140282 44.6519082065206,179.17970473278547 42.04552257420437,179.10783695128703 41.63469693191291,178.9230336206674 41.5,179.16943791302765 43.695559990024776,179.43637455627686 44.941506610120996,179.3439735682914 46.275006235955516,178.63556044526922 47.94524819156504,177.1776358832176 50.08692940881883,177.187903102953 50.6324519830232,176.9825583162201 51.31267148916959,177.1262997535232 53.15128460963024,177.1776358832176 54.363556996773696,177.66019298235187 54.740708406083286,177.34191115172507 55.3872536792187,177.98873989034837 55.87889748068119,178.19408063565788 55.872162634084816,178.676628140729 55.60276877027354,178.85116547835787 56.249314043394406,179.3542403529682 57.69730606135272,179.5082418759339 59.52244948864973,179.26183921649135 60.195934148170636,179.55957561386094 61.15228236466646,180.391174987024 61.630456472950755,180.20637629528574 63.26702419556386,181.53075215943318 64.28398603142705,183.16307521058116 64.14255425293231,183.00908469620117 63.06497879770177,183.56344837736833 62.84272886006511,184.54896896944774 62.95048640559253,184.94933128390403 63.89336492891016,186.5815451992712 64.86991768520966,187.45409101439873 67.13956098779454,190.30772511163377 68.2238712896069,193.2125199951479 68.41918184085807,193.13040791848834 68.43938638063264,192.81222237608745 67.39548515839851,190.26666675747038 67.1732352207473,189.1683435463383 67.23384884011466,188.99384142499548 67.92753803942469,188.6243055551131 67.05874282863806,184.94933128390403 66.52668994762644,183.57371431479623 64.54664504864195,181.19196159924832 63.11212272386183,180.04211023078096 61.31391868297942,179.05650275978041 58.78161636317964,178.5739588402248 56.006859565968625,178.66636121997362 55.851958094295696,178.27621670286317 54.73397355948691,177.42404858805457 53.42067847344151,176.9517565270835 52.51820902968757,176.80801459902068 49.676103766527376,176.99282557514016 48.5311798453331,177.2187047498337 50.92878523323452,177.06469632989683 50.895111000252655,178.46102237157174 50.699800448986934,179.53904212484485 51.097156398100196,179.67250965580024 50.814292841096176,179.75464334781282 50.86143676728534,180.5143737437793 53.48129209280887,180.8018363549745 54.3366176103882,181.12009664635116" stroke="#4dd2ff" stroke-linecap="round" stroke-linejoin="round" stroke-width="0.5"><title>2022-05-08 15.0km</title></polyline><polyline fill="none" points="81.21917808215949,180.24003738549072 81.96917808218859,180.27135915114195 84.21917808215949,179.55095535900182 86.41780821915017,180.50627199248265 87.20890410957509,180.47495032121515 87.67123287668801,180.9134525748159 88.85273972601863,180.13041110665654 89.39726027398137,180.06776744962553 90.21917808215949,181.4145949888043 89.96232876711292,183.09026655183698 90.49657534246217,184.53100210345292 91.86301369860303,186.53545947129896 93.11643835616997,187.52200941651972 96.67123287671711,192.23535360490496 98.04794520547148,196.18119018500875 98.5,196.07158630846243 98.45890410957509,195.5392224317693 97.30821917805588,192.72076490332984 96.59931506848079,189.808251801398 97.66780821917928,189.21320886429748 96.50684931504657,183.98289932346233 95.900684931461,182.21328405575332 95.1404109588766,180.9134525748159 93.05479452054715,178.43901470526907 90.52739726024447,176.21508583823015 87.32191780817811,174.4766184077307 82.29794520544237,173.81880981498398 72.12671232875437,174.93081634088594 72.04452054793364,175.5259682494434 71.5205479451688,175.74523359727755 71.5,176.35604095851886" stroke="#4dd2ff" stroke-linecap="round" stroke-linejoin="round" stroke-width="0.5"><title>2022-05-05 5.1km</title></polyline><polyline fill="none" points="113.01818181818817,181.98001451849996 114.22727272726479,182.0631595356972 115.79090909089427,181.49499992156052 117.82727272727061,182.2848790919379 118.57272727272357,182.2848790919379 118.81818181820563,182.58974231862157 120.23636363635887,181.75829398283167 120.35454545455286,181.84143926718752 121.0545454545354,183.04703463360056 120.86363636364695,184.39117935014656 121.30909090908244,185.8461518572949 122.14545454547624,187.13481617753132 123.70909090907662,188.61744320949583 125.2727272727061,190.5018577704068 126.96363636365277,193.06513322207684 127.8909090909001,196.05781005547033 128.5,196.05781005547033 127.00909090909408,191.0006647776063 126.97272727271775,190.30787629404585 127.6636363636353,190.11389427252652 127.7727272727061,189.8921998660844 126.68181818182347,185.02859965248717 125.51818181815906,182.67288660127815 123.64545454544714,180.35866666075162 120.89999999999418,178.0720857113156 118.57272727272357,176.89412050238388 115.35454545455286,176.31205968264112 111.68181818179437,176.49222188955537 111.37272727271193,175.9378751346012 109.42727272724733,174.55198876480063 107.93636363634141,174.05306285810366 106.3909090909292,173.94218994452604 102.53636363634723,174.2470900282533 101.51818181818817,174.55198876480063 101.5,174.6905786542302 104.76363636361202,174.4549756765373 104.47272727274685,177.6424771997772 104.93636363637052,177.79491923579917 104.67272727272939,177.80877758599308 104.62727272728807,178.97286906888985 108.18181818179437,179.36089519962843 109.39999999999418,179.77663506157114 109.52727272728225,179.98450405331823 109.11818181816489,180.89912017900133 109.18181818179437,181.12084347494238 110.79999999998836,180.677396170664 111.92727272724733,180.7466849998018 113.29999999998836,181.20398952728647 114.13636363638216,181.19013185883523 114.92727272727643,180.9129779058494" stroke="#4dd2ff" stroke-linecap="round" stroke-linejoin="round" stroke-width="0.5"><title>2022-05-04 7.1km</title></polyline><polyline fill="none" points="140.95872955495724,180.15573620855866 142.5916698364308,180.12442631281738 144.2451502472395,179.5451909743424 146.3094332445762,180.42186981435225 147.39806009887252,180.5471088438935 147.53157093952177,180.93847951469797 149.24667173830676,179.92091168430488 150.1812476226478,181.3298482208411 149.93476607074263,183.19273633101693 150.46880943325232,184.52334344464907 151.7422974515066,186.38615525496425 153.0671357930696,187.544519988689 156.32274629137828,191.6925768686342 156.8157093952177,192.52216176470392 157.883796120208,196.1064931672372 158.5,196.0908414231817 158.34594903007383,195.13607909638085 157.0519208824844,192.24041694065818 156.6103081019537,190.37774499098305 156.579497907951,189.7829328102016 157.51407379232114,189.3916065325102 157.6475846329413,189.14115668401791 155.97356409282656,182.55090595768706 155.06979840243002,180.76627666159766 154.06333206541603,179.46691559854662 150.25313807529164,176.0696885679572 147.5521110688569,174.61368880828377 144.40947128186235,173.92481923090236 141.05116013693623,173.89350683275552 138.42202358311624,174.3945036939258 136.8712438189541,174.37884759075678 132.08539368581842,174.9581213144411 132.05458349181572,175.55304660445836 131.86972232785774,175.78788428507687 131.57189045264386,175.6782934554576 131.5,176.17927884734672 131.57189045264386,176.97771766165533 131.99296310383943,177.49435018424265 133.67725370862172,178.52760495893745 136.41936097375583,179.29470949513052 136.99448459487758,180.62538313525147 137.0150247242418,181.98734322463133 139.4695701787714,182.66048712716292" stroke="#4dd2ff" stroke-linecap="round" stroke-linejoin="round" stroke-width="0.5"><title>2022-05-01 6.0km</title></polyline><polyline fill="none" points="167.64363885088824,179.2677146348069 167.5697674418625,179.06127354929777 169.23187414504355,179.23017992589303 170.36456908346736,178.81729713305685 170.4384404924931,179.3427840074146 170.42612859094515,178.81729713305685 171.41108071134659,178.44194755683566 172.1744186046708,178.9862039505606 173.3071135430946,179.1175757087185 174.11969904240686,179.58675905194832 175.2277701778512,179.53045717514033 175.48632010945585,180.0371728456521 177.22229822160443,178.948669128622 177.55471956223482,179.02373875751073 178.56429548567394,180.58141995038022 178.3426812585385,183.11494234540442 178.97058823533007,184.4848925153783 179.88166894667665,185.9861847113134 181.9377564979368,187.9002972901435 186.07455540358205,193.0982287976658 187.97058823533007,198.42721590174187 188.5,198.29587127963168 188.4384404924931,197.5453270414655 186.24692202464212,191.4844615070033 186.37004103968502,190.60250714418362 187.51504787965678,189.94572721289296 185.9637482900289,183.34014101260254 184.6217510260176,180.1685431266087 182.0608755129797,177.05314101800468 178.56429548567394,174.1440874641703 174.8953488372208,172.36107440133492 172.53146374828066,171.77924172508938 169.1580027359887,171.5727840982654 165.42749658002867,171.9481612622767 165.0088919288537,172.2109243800005 165.68604651166243,172.86782894234784 167.28659370724927,173.33704366003803 171.5957592339546,172.83029166316555 172.70383036936983,173.07428370835987 174.72298221616074,174.81974668493785 175.94186046512914,174.4068444082004 176.68057455541566,175.30771975111566 179.0690834473353,177.2032832603145 180.58344733246486,179.66182816831133 178.62585499315173,180.78785767835507 178.30574555401108,182.42057637233665 178.4904240766191,183.5278061542558 180.23871409028652,186.38026991715742 182.23324213409796,188.20054668723606 186.24692202464212,193.49228402024892 187.9213406292547,198.40845239561895 188.47537619702052,198.3146348083974 188.42612859100336,197.5453270414655 187.04719562243554,194.1678033943026 186.25923392613186,190.99657288788876 186.40697674421244,190.64003728656098 187.50273597810883,189.94572721289296 186.12380300959921,183.9406681393957 184.58481532151927,180.0371728456521 181.8515731874213,176.80915935976373 178.44117647060193,174.01270871513407 175.38782489742152,172.49245547210012 170.6231190150429,171.68539740577398 169.02257181939785,171.5915529922495 164.4548563611752,172.2672306662571 161.72161422710633,172.37984313703055 161.5,174.10655069756467 163.58071135432692,175.1388062857659" stroke="#4dd2ff" stroke-linecap="round" stroke-linejoin="round" stroke-width="0.5"><title>2022-04-30 10.1km</title></polyline><polyline fill="none" points="20.9011428571539,215.86965967351716 22.40285714287893,215.96373249154567 24.213142857159255,215.30522038508934 26.527428571425844,216.32434391084098 27.442857142857974,216.2302715272599 27.71028571430361,216.60656038170418 29.376571428583702,215.71287139152992 30.261142857169034,217.170990263352 29.983428571460536,218.8956118452188 30.69314285714063,220.62019533774583 31.865714285697322,222.28203066841525 33.110285714268684,223.3010631428624 36.64857142858091,227.83167730643618 37.893142857123166,231.67230352715706 38.057714285707334,231.97014011793362 38.5,231.8604109798107 38.35599999997066,230.63770443864632 36.64857142858091,225.9975156955552 36.71028571430361,225.5115340323464 37.59485714283073,225.16664198494254 37.70800000001327,224.9314874428892 36.45314285712084,219.4757032710986 35.31142857141094,216.95149023860722 32.38000000000466,213.53348166994692 29.973142857139464,211.5892265505463 27.66914285713574,210.4289222024454 24.17200000002049,209.67628313532623 21.826857142877998,209.6135628855409 19.37885714287404,209.8487635623096 18.37085714287241,210.1780433194799 17.260000000009313,210.11532347282628 12.446285714308033,210.67980027927842 12.158285714278463,210.75819951297308 11.983428571431432,211.32267167180544 11.5,211.2599527446 11.602857142861467,210.00556361989584 15.59371428572922,209.69196318987088 15.645142857189057,208.547310931237 15.99485714288312,208.02985988207365 16.66342857145355,208.42186856758053 16.077142857160652,209.55084258540592 15.84057142859092,211.79306202028238 18.021142857178347,212.49864222958422 16.66342857145355,215.39929388318706 17.03371428573155,216.59088171561598 16.972000000008848,217.7197376256736 18.813142857165076,218.2057677833509 20.284000000014203,219.1778190231489 21.497714285709662,217.6413453814166 20.36628571432084,217.0455617533371 20.582285714306636,216.089162739343 20.860000000015134,215.9950900723852" stroke="#4dd2ff" stroke-linecap="round" stroke-linejoin="round" stroke-width="0.5"><title>2022-04-28 7.1km</title></polyline><polyline fill="none" points="57.018943170493,217.67204999581736 57.11316051847825,217.77463434618403 57.26794616151892,217.6515331010196 58.095712861424545,217.67204999581736 59.13883349951357,217.29248610834475 59.71086739783641,217.67204999581736 60.13484546363179,217.692566882346 60.579012961126864,217.9387688783463 61.21161515454878,217.9387688783463 61.440428713860456,218.21574470565974 62.48354935196403,217.55920697248803 63.02193419744435,218.55426867761707 62.87387836491689,219.6621496305379 63.2372881356132,220.64691253192723 63.72856430709362,221.4572760998053 64.89955134598131,222.55483664153144 67.20787637089961,225.49864428456567 68.0221834496624,228.01151662489428 68.21734795614611,228.23715625780824 68.5,228.13459291183972 68.41924227320123,227.65254242809897 67.65204386842379,225.91917438844393 67.19441674978589,224.30883304640884 67.22806580261386,223.898546884775 67.9010468594497,223.6113446113195 66.89830508474552,219.42621403352678 66.31954137589491,218.31832796435629 64.81879361915344,216.50257384222277 63.620887337994645,215.43565996433244 62.38260219343647,214.61494181916714 61.29237288137665,214.06094961744748 59.569541375909466,213.64032189644786 57.79287138587097,213.54798851854503 55.98928215356136,213.69161814543259 55.84795613163442,213.32228400323584 54.111665005009854,212.19374646862707 52.57726819544041,211.7936226289239 49.1854436690046,212.03985305501556 48.8018444666086,212.19374646862707 48.00772681956005,212.0603722036176 47.56355932205042,212.25530370427805 45.64556331008498,213.74291434288534 44.6226321037102,214.18405951479508 42.004735792652355,214.0814679542782 41.722083748769364,213.94809861761314 41.5,214.24561435221767 44.51495513461123,214.43027841944786 45.1273678963189,214.2763917431039 46.09646061815147,213.7531735761877 48.02791625127429,212.0603722036176 48.52592223332613,212.12192959996173 49.74401794618461,211.84492073220827 52.90029910270823,211.76284374219176 54.77118644070288,212.3886774603816 55.90852442673349,213.41461778913072 55.874875373905525,213.7121366305728 55.30957128616865,213.9583578097263 55.38359920241055,214.46105569908468 55.154785643098876,215.4254010689001 54.68369890330359,216.0101548210987 54.02417746762512,217.51817308401223 54.38758723830688,218.09264452335265 54.37412761716405,218.92356499796733 55.255732801611884,219.1184703130566 56.5613160518551,219.83653611067348 57.308325024932856,218.75943362957696 58.66774675974739,217.97980242900303 59.556081754752086,217.66179154943893 58.634097706890316,216.90266080211586 57.961116650069016,217.1899007898428 57.03240279163583,217.22067640702517 56.62861415754014,218.27729468559482 56.80358923232416,218.5132355883834 57.355433698918205,218.77995007948994 58.18993020938069,218.22600304080697 58.02168494518264,217.86696008541549 57.07278165506432,217.83618485755142" stroke="#4dd2ff" stroke-linecap="round" stroke-linejoin="round" stroke-width="0.5"><title>2022-04-27 10.1km</title></polyline><polyline fill="none" points="76.90490757118096,214.2986982525763 78.29228377935942,214.1854046026201 80.99271247020806,213.3734627833619 81.61207684886176,213.86440518641757 82.86319289371022,214.10987542679504 83.64359201077605,214.63857838358672 84.72128602961311,214.67634276676836 85.05574279406574,215.05398576437437 86.86428677965887,213.90216988050088 87.48365115831257,214.26093371774186 88.15256468721782,215.60156541712786 87.96675537366536,218.05619364386075 88.61089432743029,219.60446465029236 90.28317814978072,221.8890618954465 91.5962306324509,222.96525789671432 95.8202956947789,228.4404503509504 97.43064307922032,233.5 98.13671847086516,233.34897260829894 98.09955660815467,232.78261772939732 96.50159651125432,228.70476192139176 95.9565558580507,226.5524889592998 95.88223213260062,225.75953387295158 97.14573546504835,225.06097266229335 95.60971180602792,218.30165294269682 94.1727864475688,215.24280669446307 91.4599704691791,211.97615114587825 89.23025870605488,209.99344359507813 87.89243164821528,208.99263247854833 84.1762453764386,207.1798154107164 79.19655577218509,206.5 74.87339240926667,206.83990831972915 74.0062822792097,207.1798154107164 74.13015515494044,208.12399532782 73.68421280229813,209.80461212427326 72.91620097277337,210.729882708285 72.37116031956975,212.29715700777888 71.86328152910573,212.97693050980888 72.65606793377083,212.9958130369123" stroke="#4dd2ff" stroke-linecap="round" stroke-linejoin="round" stroke-width="0.5"><title>2022-04-25 5.0km</title></polyline><polyline fill="none" points="117.00575287643005,217.76169568800105 118.18759379691619,217.6690465540196 119.14657328664907,217.24697615825426 119.55852926464286,217.55580849621765 120.18659329666116,217.6587521954716 120.55802901450079,217.874933291052 121.15232616310823,217.864638973846 121.42921460731304,218.13229054963813 122.50300150075054,217.48374778376092 123.05677838920383,218.37935230249786 122.91495747872978,219.59405527055787 123.26613306654326,220.55138563603032 123.97523761881166,221.63222101671636 124.97473736868415,222.51745968870455 127.27088544273283,225.47157581272768 128.20960480239592,228.2608463137367 128.5,228.15792389909257 128.4797398699302,227.75652450806592 128.06103051526588,226.43908904107593 127.64232116058702,225.69801671535606 127.27763881941792,224.38052835579583 127.24387193597795,223.96880630079613 127.96648324164562,223.618839954539 127.0615307653934,219.78964034658202 126.35242621311045,218.24552733415476 125.51500750375271,217.17491501171025 124.50200100052461,216.08369098385447 122.95547773886938,214.82772514417593 121.41570785392832,214.04530464013442 119.11280640319455,213.54084298362068 117.6135567783931,213.48936702528226 116.06028014009644,213.70556570298868 115.86443221611262,213.2319864582314 114.10180090046197,212.14067849873754 112.44047023513122,211.73915368625967 109.60405202601396,211.91417770912813 108.82741370686563,212.14067849873754 107.78739369685354,212.08920113443673 106.24762381191249,213.33493884010386 105.04552276138566,214.01441937523123 104.22161080542719,214.1791405729673 102.00650325164315,214.0555997242882 101.62831415708933,213.90117324481616 101.5,214.15855045218996 103.84342171087337,214.39533634175677 104.91720860431087,214.30268112393605 105.97073536769312,213.76733658630837 107.79414707353862,212.2127467219252 108.09804902452743,212.08920113443673 108.92871435720008,212.17156489252375 110.73861930964631,211.97595075100617 112.52826413208095,212.01713273756468 113.45347673837387,212.16126942999472 114.29764882443123,212.562790936252 114.5745372686506,212.28481484379517 113.18334167082503,211.8318135375266 111.31940970485448,211.80092693903862 109.15157578789513,211.99654174842726 108.47623811908124,212.18186035297185 109.90120060031768,212.12008755921852 110.8061530765408,211.9244732212901 111.33966983492428,212.05831469105397 112.60930465233105,211.99654174842726 113.79114557278808,212.34658743905675 114.16258129065682,212.7172214474449 113.77763881943247,213.5820237130938 113.61555777890317,214.89978959002474 114.97298649327422,215.33217413781313 114.27063531767635,217.04108689939676 114.94597298649023,216.81460775963205 116.14132066033198,216.84549133759356 117.01250625314424,217.0719703409195 116.87068534267019,217.55580849621765" stroke="#4dd2ff" stroke-linecap="round" stroke-linejoin="round" stroke-width="0.5"><title>2022-04-22 10.1km</title></polyline><polyline fill="none" points="145.52986348126433,217.47824975055846 146.60494880547049,217.46654417956597 146.68174061432364,217.24413788385573 147.81825938564725,216.92808537247038 148.31740614335285,217.27925472378047 149.03156996588223,217.38460511670928 149.52303754267632,217.6772440980276 150.09897610923508,217.6304219597514 150.3754266211763,217.95817613810868 151.65017064847052,217.23243226585328 152.31825938567636,218.29763388028005 152.18003412970575,219.64373994928974 152.57167235494126,220.73230734373647 153.41638225255883,221.93790127435204 154.46075085326447,222.87426770837556 157.1100682593824,226.2801737732152 158.1313993174117,229.32308306639607 158.5,229.32308306639607 158.32337883961736,228.25808287830296 157.66296928329393,226.80684251559796 157.1177474402939,224.93422092765468 157.10238907849998,224.54798524307625 157.77815699658822,224.24367653793524 157.90102389079402,224.04470460270386 157.0025597269705,220.18217367409306 156.51877133108792,218.8594906274193 156.08105802049977,218.05181985062882 154.41467576794093,216.02674102119272 152.1262798634998,214.0952419100904 150.3677474402939,213.2172666119659 148.501706484647,212.79583377188828 146.32849829352926,212.64364894196115 144.32423208194086,212.85436629298056 144.06313993176445,212.32757148723613 142.1279863481177,211.09836509297747 140.2619453924999,210.67691693360393 134.78668941979413,211.09836509297747 132.95904436861747,212.63194240013763 131.52303754264722,213.29921153264877 131.5,213.6386964053745 132.8899317406176,212.95972468285618 135.17064846417634,211.00471020975965 137.29778156997054,211.08665824078707 138.21160409555887,210.85252070362912 138.9948805460881,211.00471020975965 140.69965870308806,210.96958958977484 141.59812286691158,211.25055395721938 142.16638225258794,211.66029123228145 141.7363481228822,212.71388814360762 141.59812286691158,214.31766021969452 143.1262798634998,214.7742004069696 142.30460750852944,216.6822655678734 143.57935153585277,216.2959752091847 146.02901023891172,216.79932274694147 147.32679180888226,216.37791580219346" stroke="#4dd2ff" stroke-linecap="round" stroke-linejoin="round" stroke-width="0.5"><title>2022-04-21 8.1km</title></polyline><polyline fill="none" points="175.2457337884116,217.46655371949964 176.505119453941,217.38461472246127 176.81996587029425,217.25585320873506 176.95051194538246,216.99832932798017 176.8660409556469,217.39632030053326 177.80290102388244,216.92809534491607 179.45392491470557,217.61872583703735 180.16040955632343,217.60702030364337 180.3754266211472,217.91136340814774 181.58873720135307,217.16220829281883 182.27218430035282,218.15717783267974 182.14931740614702,219.69056822432685 182.6254266211763,220.80254366093868 183.19368600685266,221.69210873970587 184.56058020479395,223.00302201050727 187.17918088738224,226.36210273074175 188.16979522185284,229.36989579635338 188.5,229.27627033643512 188.3848122867057,228.7028111139516 187.57081911264686,226.73662238702673 187.08703071673517,224.67673450511938 187.17150170647074,224.46606005127614 187.84726962458808,224.1968638079743 187.58617747438257,222.59336477981924 186.8796928327647,219.7725039803263 186.06569965870585,218.06353436459176 184.30716723549995,215.92139895540095 182.1186006825883,214.11866663274486 180.45221843002946,213.2641052105173 178.92406143344124,212.83096655500412 176.42832764505874,212.6202492885932 174.18600682594115,212.84267304746027 174.17064846417634,212.7139015010289 174.06313993173535,212.33929174855803 172.0127986347943,211.03984551082613 170.13907849832322,210.630104203643 166.6143344709999,210.86424244614682 165.78498293514713,211.08667290541416 165.20904436861747,210.9227768598139 164.8634812286764,211.00472494021597 162.96672354949987,212.51489036978455 161.51535836179391,213.21727956509858 161.5,213.56847098903745 162.8822525597352,212.87779251073516 165.14761092152912,211.00472494021597 166.1228668942058,211.13350026237094 168.18856655291165,210.91106998176474 170.18515358361765,210.91106998176474 171.3600682593824,211.12179342667878 172.18941979520605,211.70713233221977 171.71331058020587,212.7021949827249" stroke="#4dd2ff" stroke-linecap="round" stroke-linejoin="round" stroke-width="0.5"><title>2022-04-19 7.2km</title></polyline><polyline fill="none" points="15.037515260424698,248.30025505603408 15.076532824663445,248.08217834392417 16.98839347314788,247.96322720709577 18.91325997633976,247.24951737641095 21.878594859677833,248.55798145832523 23.06212764204247,248.47868109847332 23.322244737064466,248.99413229891798 25.2861288045533,247.72532450340805 25.728327866090694,248.08217834392417 26.534690860687988,249.54923058227723 26.261567910929443,251.98766107604024 26.924866503250087,253.63307201512362 27.887299754831474,255.15951306728675 30.124306772078853,257.28063223356 34.676355935109314,263.16798593242856 36.354111198015744,268.40089455773705 36.5491990193259,268.40089455773705 36.90035709759104,268.2423256433394 36.848333678615745,267.19180015384336 35.092543287115404,262.9499420549182 34.53329153280356,260.43249150842894 35.8989062817418,259.421528738465 34.44225054956041,253.05817251437838 32.959583107876824,249.2518568900341 30.033265788806602,245.78243096662482 26.131509363418445,242.4516673786202 24.791906324011507,241.81722347876348 23.998549184179865,241.5 23.868490636668867,243.06628101872047 24.47976580998511,243.85932522335497 27.041919196024537,245.98068716075068 28.62863347568782,248.20112933750352 29.85118382232031,250.22327430228324 30.4234414313687,252.44362107059715 34.15612174503622,251.90836347072036 34.88444961109781,254.02955247912905 35.96393555548275,259.48099742325576 34.75439106358681,260.35320068484 35.716824315226404,264.0599785995437 37.18648590211524,268.1630410906728 36.48416974552674,268.5 36.0029531197215,267.8459022432653 34.66335008031456,263.94104670947127 33.85698708574637,262.375096797281 30.33240044809645,257.7563910239478 27.744235352583928,255.2388080615492 26.092491799150594,252.36432383152714 26.001450815907447,251.59117241269269 26.39162645844044,249.80695372440096 28.47256321864552,248.53815637429943 29.825172112789005,250.2034495525877 30.5014765598753,252.48326966632158 33.85698708574637,251.67047027274384 32.64744259385043,248.97430730253836 29.17487937520491,245.0092280054887 26.092491799150594,242.51114628523646 24.011555038916413,241.5198264972496 23.93351991038071,243.3041949489707 25.104046838037902,244.4541041965931 24.011555038916413,245.3660916630397 22.658946144772926,245.0092280054887 22.19073537370423,245.32644020922453 21.462407507642638,246.21859406828298 21.644489474158036,247.9434020036715 18.380019931559218,248.47868109847332 17.664697920175968,249.19238204408612 15.635784579004394,250.3620474380732 14.127105427818606,252.28502652872703 12.813514097913867,251.57134793775185 14.73838060113485,246.9323113511491 16.42914171880693,246.9521367576017 18.132908691244666,246.2978962433408 18.887248266808456,247.24951737641095 17.248510568169877,248.2407796368425 14.68635718213045,248.32008018775377" stroke="#4dd2ff" stroke-linecap="round" stroke-linejoin="round" stroke-width="0.5"><title>2022-04-10 10.4km</title></polyline><polyline fill="none" points="43.83022486077971,248.35084018868656 43.974774892034475,248.13049885035434 45.591107059211936,248.23065406445676 47.9564712063293,247.32925351746235 48.75806683397968,247.93018812041555 50.900035478320206,248.65130486576527 52.095858463813784,248.53111910351436 52.279831230815034,249.09198475509038 54.38237713937997,247.89012592618383 55.57820012484444,249.51263192448823 55.354804622067604,252.0565079605076 55.98556839462253,253.67894619907747 57.41792779485695,255.88221514147153 59.4547691437474,257.74494092480745 63.856974639813416,263.4330495669783 65.47330680701998,268.47997303446755 66.1697751392494,268.5 63.77812916820403,261.0697198622438 63.76498825629824,260.44883582370676 65.15792492075707,259.74783307160396 63.489029105810914,252.21674994853674 62.14865608909167,249.47257036571682 59.297078200645046,245.96712168193335 55.210254590871045,242.50161418764037 53.081426858436316,241.5 53.01572229882004,243.44312235416874 56.16954116168199,245.96712168193335 57.73330968111986,248.71139769255387 55.696468332229415,249.77303166424826 54.46122261096025,247.97025029864017 52.437522173975594,249.1520773164375 50.019594379118644,248.2106230296995 48.968321424821625,248.13049885035434 47.62794840816059,248.51108812908933 45.972193505149335,249.69290873980935" stroke="#4dd2ff" stroke-linecap="round" stroke-linejoin="round" stroke-width="0.5"><title>2022-04-09 5.2km</title></polyline><polyline fill="none" points="73.81535157805774,248.33587961900776 75.28822709037922,248.21560425768257 75.32767911304836,248.015145000114 78.04986867605476,247.23335004969704 78.79945710644824,247.93496118443727 80.00931913449313,248.09532875144214 80.91671565544675,248.5764299069342 82.04767363818246,248.5764299069342 82.37644049359369,249.05752874397876 84.38849364887574,247.77459335976164 84.98027398862178,248.31583373555623 85.6509583737643,249.57871653450275 85.41424623780767,252.04429881557007 86.0586292744847,253.7681657039575 87.68931287745363,256.07329003035557 89.51725659365184,257.71691139406175 93.87012975962716,263.4292874016537 95.57971740790526,268.5 96.18464842191315,268.39979078290344 96.06629235393484,267.2373565141097 94.73807425799896,264.13078473016503 93.79122571431799,260.5430751098538 94.00163650180912,260.18229270686425 95.14574515871936,259.64111665801465 94.44875942519866,255.8928909157039 92.97588391284808,250.78144720534328 92.10793941447628,249.07757447852782 90.56931053104927,247.23335004969704 86.84766972754733,243.64503314968897 85.34849286676035,242.5023576757958 83.13917959821993,241.5 82.96822083339794,242.84315699284343 83.20493296929635,243.58489266136166 86.01917725181556,245.87020574878989 87.80766894543194,248.5764299069342 85.80876646432444,249.67894464386336 84.3490416262066,247.91491522046272 82.54739925841568,249.01743726277346 79.86466171804932,248.11537467924063 77.45808833630872,248.47620069074037" stroke="#4dd2ff" stroke-linecap="round" stroke-linejoin="round" stroke-width="0.5"><title>2022-04-07 5.0km</title></polyline><polyline fill="none" points="103.81050450686598,247.6497524219012 103.69223620451521,247.89012592524523 104.02075926656835,248.0904367355397 105.55824719689554,248.0904367355397 108.22585446070298,247.30922230073338 109.02745073207188,247.93018811945512 110.43352943760692,248.1505299001874 110.94602541442146,248.4910571495493 112.15499028269551,248.5511500728826 112.40466780986753,249.0318921564467 114.48093356197933,247.78997036921646 115.11169784108642,248.310778162333 115.82130765507463,249.7329702089046 115.59791197290178,252.2968708447297 116.74117222879431,254.60031912942213 117.88443248471594,256.1025393581367 119.44820226004231,257.34435766900424 124.08694789608126,263.4130215835103 125.70328136134776,268.5 126.30776379551389,268.43991909125907 126.26834102804423,267.41853810810426 124.21835712090251,262.7120396582395 123.82412944643875,260.3887500653509 125.13822169462219,259.80791921357013 125.23020815197378,259.2471138033143 123.74528391152853,253.0780462229377 122.77285564789781,250.2337372299662 121.68215908194543,248.69136675326445 120.94626742295804,249.11201561183407 121.36677694236278,248.41093319544598 119.29051119025098,245.76680660721468 115.53220736052026,242.62180721408367 113.21940500370692,241.5 113.08799577888567,242.86219283301762 113.3376733060577,243.603378177977 116.1235488721577,245.74677507773595 118.05526447697775,248.33080917699408 116.82001776370453,249.31232396867563 115.84758950007381,249.69290873863065 114.6911883216817,247.9902813806184 114.20497418986633,248.07040567258082 113.81074651540257,247.62972127051762 113.17998223632458,245.50639640979352 114.40208802706911,244.36458982706245 116.14983071715687,245.82690117162565 118.04212355450727,248.41093319544598 116.08412610471714,249.6328165031082 115.86073042251519,249.6728779974219 114.52035632941988,247.87009482205758 112.56235887962976,249.0318921564467 112.10242659278447,248.65130486464477 110.9066026469518,248.5311191024157 108.08130431341124,247.46947191431536 106.64894376287702,248.1705609470664 104.75665092552663,248.2907471436847" stroke="#4dd2ff" stroke-linecap="round" stroke-linejoin="round" stroke-width="0.5"><title>2022-04-03 6.2km</title></polyline><polyline fill="none" points="156.5983606557129,259.3734271231733 157.17213114758488,256.99934175964154 156.9918032787391,256.02470412857656 158.5,255.27497767958994 158.5,254.55023781881027 153.97540983610088,251.65123616644996 151.4016393442871,250.9514670284334 145.87704918032978,251.0264424814959 140.893442622968,251.80118618406414 138.71311475412222,251.62624447930284 134.8114754098351,254.77515753759508 131.64754098356934,256.3495841870754 131.5,257.02433236772777 134.25409836065955,255.84976836116402 138.7950819671969,251.85116948313953 139.71311475412222,251.55126938764442 143.66393442626577,251.6012527870771 146.02459016395733,251.0764260916767 151.680327868904,251.57626108982367 154.5,252.77585689423722 155.106557377032,252.35100136935944 154.56557377049467,251.80118618406414 150.106557377032,250.87649153036182 142.3852459016489,251.426310801231 140.87704918032978,251.8761611250884 138.87704918032978,251.62624447930284 133.92622950818622,255.4998960886005 131.5,256.474537829934 131.72950819676043,257.02433236772777 134.696721311484,255.54987790199084 138.696721311484,251.97612764290534 139.9098360656062,251.5262776804302 140.64754098362755,251.65123616644996 143.31967213115422,251.0014506688094 150.71311475412222,250.6265728768194 155.12295081972843,251.92614439397585" stroke="#4dd2ff" stroke-linecap="round" stroke-linejoin="round" stroke-width="0.5"><title>2022-03-24 5.1km</title></polyline><polyline fill="none" points="177.5247747815738,267.86339030943054 176.77927041694056,267.69665831222665 175.71568419007235,268.5 175.2385613967199,268.25748265611765 175.0,267.6511858854137 174.69185819593258,264.9076320847671 174.33401610091096,264.0587775482127 173.9065935985418,263.75561289883626 171.4315191079222,263.69497982279427 170.16913171712076,262.4823080667411 182.38546323904302,246.15481635997276 176.53076896205312,241.5 167.61453676098608,259.6930890433068 173.11138894292526,265.30173987273884 173.44935092155356,265.0288962388513" stroke="#4dd2ff" stroke-linecap="round" stroke-linejoin="round" stroke-width="0.5"><title>2021-10-26 5.0km</title></polyline></svg>