<?xml version="1.0" encoding="utf-8" ?>
<svg baseProfile="full" height="200mm" version="1.1" viewBox="0,0,200,200" width="200mm" xmlns="http://www.w3.org/2000/svg" xmlns:ev="http://www.w3.org/2001/xml-events" xmlns:xlink="http://www.w3.org/1999/xlink"><defs /><rect fill="#1a1a1a" height="200" width="200" x="0" y="0" /><text alignment-baseline="middle" fill="#e1ed5e" style="dominant-baseline: central; font-size:9.0px; font-family:Arial;" text-anchor="middle" x="100.0" y="100.0">2022</text><line stroke="#e1ed5e" stroke-width="0.3" x1="100.0" x2="100.0" y1="15.0" y2="10.0" /><path d="M 100.0 14.0 a86.0,86.0 0 0,1 42.46469731375804,11.215312516191453" fill="none" id="id13" stroke="none" /><text fill="#e1ed5e" style="font-size:6.75px; font-family:Arial;" text-anchor="middle"><textPath startOffset="22.20632615414155" xlink:href="#id13">January</textPath></text><line stroke="#e1ed5e" stroke-width="0.3" x1="143.23703022742887" x2="145.7803849466894" y1="26.81831364943548" y2="22.513508569990506" /><path d="M 143.74570117128098 25.957352633546492 a86.0,86.0 0 0,1 28.547481713284135,27.462654790039103" fill="none" id="id14" stroke="none" /><text fill="#e1ed5e" style="font-size:6.75px; font-family:Arial;" text-anchor="middle"><textPath startOffset="19.985693538727396" xlink:href="#id14">February</textPath></text><path d="M 113.06298171725822 83.55741782278167 l 18.928952751885248 -23.826172912755347 a51.43011284815784,51.43011284815784 0 0,0 0.6884204730029461,0.556654812733525 l -19.336276623452687 23.496812002757693" fill="#ffdf14" stroke="none" /><path d="M 113.89432698308785 84.25364557470407 l 26.59959509003069 -30.145155815521285 a61.20284664169493,61.20284664169493 0 0,0 0.7839472987839808,0.7038356252433334 l -27.114553376410658 29.682821181508654" fill="#80ff25" stroke="none" /><path d="M 114.16331599549186 84.49514656593476 l 26.88056997946693 -29.42667507301457 a60.85591861033686,60.85591861033686 0 0,0 0.7673413082114124,0.7131601181056589 l -27.383119171473187 28.959610368834273" fill="#86ff25" stroke="none" /><path d="M 115.68641384162765 86.03803664274999 l 42.47242514451258 -37.803314992720985 a77.85945411358702,77.85945411358702 0 0,0 0.8824373131628994,1.0087783936589254 l -43.11685432125333 37.06662104285911" fill="#42ffda" stroke="none" /><line stroke="#e1ed5e" stroke-width="0.3" x1="172.23445277983987" x2="176.4835382374775" y1="55.19839476539836" y2="52.563006222186495" /><path d="M 173.08426987136738 54.67131705675599 a86.0,86.0 0 0,1 12.851231095245387,41.99856678651699" fill="none" id="id15" stroke="none" /><text fill="#e1ed5e" style="font-size:6.75px; font-family:Arial;" text-anchor="middle"><textPath startOffset="22.20632615414155" xlink:href="#id15">March</textPath></text><path d="M 118.3937258080291 89.86733742301442 l 37.25968631244506 -20.525467926869563 a63.53914735533326,63.53914735533326 0 0,0 0.5194836658797725,0.9625243369796488 l -37.6074780775433 19.881062606557453" fill="#5eff29" stroke="none" /><path d="M 118.73160827565052 90.50648371742162 l 42.66269917036479 -21.62222395815802 a68.82913828826301,68.82913828826301 0 0,0 0.5265100896692692,1.0614122126920846 l -43.02856927298746 20.884652156966986" fill="#33ff4f" stroke="none" /><path d="M 119.04729006885535 91.15688171328212 l 44.092233054166364 -20.470777260912318 a69.61252654788481,69.61252654788481 0 0,0 0.4952357226943566,1.0911862689743475 l -44.43807109382407 19.708768983095908" fill="#34ff5c" stroke="none" /><path d="M 119.47837535516314 92.15188598940014 l 40.6520369972293 -16.379282938133258 a64.82771978544541,64.82771978544541 0 0,0 0.40812584295702814,1.0386357539119218 l -40.92795639006803 15.67709817932555" fill="#4cff2c" stroke="none" /><path d="M 119.61058180528143 92.48833698450437 l 20.638198242667062 -7.905282565566616 a43.100423506011765,43.100423506011765 0 0,0 0.2594140840379324,0.6951007726534881 l -20.771216915206622 7.5488586558837945" fill="#ff4506" stroke="none" /><path d="M 119.7369772167798 92.82701384747503 l 17.50726838368944 -6.362645723580132 a39.62760604217097,39.62760604217097 0 0,0 0.22747551539363267,0.6431039142001379 l -17.61419697989288 6.060344182953379" fill="#ff0000" stroke="none" /><path d="M 120.37134235888165 94.90015583598534 l 40.47885274471783 -10.133639565787085 a62.728026197962386,62.728026197962386 0 0,0 0.25320376790320137,1.0496930854676025 l -40.647289312881846 9.435361248660078" fill="#6aff28" stroke="none" /><path d="M 120.45610955862082 95.25157060432595 l 37.65798384649827 -8.741460685185489 a59.65924058092409,59.65924058092409 0 0,0 0.2235960524245022,1.0023372602390817 l -37.80287428592481 8.091945255396443" fill="#98ff23" stroke="none" /><path d="M 120.53481517161879 95.60439243477599 l 39.69528219986417 -8.49702718447552 a61.59451810159309,61.59451810159309 0 0,0 0.21300177487210278,1.0386723003170242 l -39.83566327065127 7.812479227995084" fill="#7bff26" stroke="none" /><path d="M 120.67395015179393 96.31383870115 l 45.33103821010462 -8.082515313227567 a67.04595616332148,67.04595616332148 0 0,0 0.19279907072855781,1.1379110291695769 l -45.4634491423534 7.301018495742152" fill="#30ff32" stroke="none" /><path d="M 120.73433829027371 96.67025291283417 l 62.20301487082114 -9.98924126149749 a84.0,84.0 0 0,0 0.21697642624280045,1.4296035504316715 l -62.36574719050324 8.917038598673738" fill="#4dd2ff" stroke="none" /><path d="M 120.91429891909075 98.10471618934814 l 43.50379137767382 -3.9423760662050404 a64.68205802477206,64.68205802477206 0 0,0 0.09094148337137081,1.1097164434611873 l -43.56520734486468 3.1929457055360846" fill="#4eff2b" stroke="none" /><path d="M 120.96714384426684 98.82574320788733 l 56.049517005857126 -3.1390315499151207 a77.13734831341101,77.13734831341101 0 0,0 0.0628353190513547,1.3263542733583713 l -56.09524593314198 2.17376616993375" fill="#41ffcf" stroke="none" /><line stroke="#e1ed5e" stroke-width="0.3" x1="184.98032266829074" x2="189.97916517819016" y1="98.17113171792111" y2="98.06355123074" /><path d="M 185.9800911702706 98.14961562048488 a86.0,86.0 0 0,1 -9.607161424134198,41.387399972396054" fill="none" id="id16" stroke="none" /><text fill="#e1ed5e" style="font-size:6.75px; font-family:Arial;" text-anchor="middle"><textPath startOffset="21.466115282336823" xlink:href="#id16">April</textPath></text><line stroke="#e1ed5e" stroke-width="0.3" x1="174.80103733775053" x2="179.2010983576182" y1="140.37084112569926" y2="142.7455964860345" /><path d="M 175.68104954172406 140.8457921977663 a86.0,86.0 0 0,1 -30.038265399797805,32.042727171017184" fill="none" id="id17" stroke="none" /><text fill="#e1ed5e" style="font-size:6.75px; font-family:Arial;" text-anchor="middle"><textPath startOffset="22.206326154141568" xlink:href="#id17">May</textPath></text><line stroke="#e1ed5e" stroke-width="0.3" x1="143.8653032363475" x2="146.44561519142675" y1="172.8068346515853" y2="177.08958963109032" /><path d="M 144.38136562736335 173.6633856474863 a86.0,86.0 0 0,1 -40.68145358897372,12.25698825130547" fill="none" id="id18" stroke="none" /><text fill="#e1ed5e" style="font-size:6.75px; font-family:Arial;" text-anchor="middle"><textPath startOffset="21.466115282336833" xlink:href="#id18">June</textPath></text><line stroke="#e1ed5e" stroke-width="0.3" x1="102.19456741930631" x2="102.32365962044197" y1="184.97166512339345" y2="189.96999836594603" /><path d="M 102.22038585953345 185.97133177190398 a86.0,86.0 0 0,1 -42.740103519485714,-10.115201625700543" fill="none" id="id19" stroke="none" /><text fill="#e1ed5e" style="font-size:6.75px; font-family:Arial;" text-anchor="middle"><textPath startOffset="22.20632615414155" xlink:href="#id19">July</textPath></text><line stroke="#e1ed5e" stroke-width="0.3" x1="58.666819895761336" x2="56.23545636021788" y1="174.27360380694188" y2="178.64263932499728" /><path d="M 58.180547188652646 175.14741091055294 a86.0,86.0 0 0,1 -31.652253787137756,-30.449443065178592" fill="none" id="id20" stroke="none" /><text fill="#e1ed5e" style="font-size:6.75px; font-family:Arial;" text-anchor="middle"><textPath startOffset="22.20632615414155" xlink:href="#id20">August</textPath></text><line stroke="#e1ed5e" stroke-width="0.3" x1="26.63291911575756" x2="22.317208475507996" y1="142.92168965132927" y2="145.44649492493687" /><path d="M 25.769776987707644 143.4266507060508 a86.0,86.0 0 0,1 -11.730757126820373,-40.83630448921669" fill="none" id="id21" stroke="none" /><text fill="#e1ed5e" style="font-size:6.75px; font-family:Arial;" text-anchor="middle"><textPath startOffset="21.46611528233685" xlink:href="#id21">September</textPath></text><line stroke="#e1ed5e" stroke-width="0.3" x1="15.007084014347285" x2="10.007500721073583" y1="101.09737516637583" y2="101.16192664675087" /><path d="M 14.007167355692545 101.11028546245083 a86.0,86.0 0 0,1 10.666146001902534,-42.60595125391555" fill="none" id="id22" stroke="none" /><text fill="#e1ed5e" style="font-size:6.75px; font-family:Arial;" text-anchor="middle"><textPath startOffset="22.20632615414155" xlink:href="#id22">October</textPath></text><line stroke="#e1ed5e" stroke-width="0.3" x1="26.266209847984243" x2="21.928928074336255" y1="57.711370442889674" y2="55.22380399835377" /><path d="M 25.398753493254645 57.213857153982495 a86.0,86.0 0 0,1 29.58750427330803,-30.492523968695096" fill="none" id="id23" stroke="none" /><text fill="#e1ed5e" style="font-size:6.75px; font-family:Arial;" text-anchor="middle"><textPath startOffset="21.46611528233685" xlink:href="#id23">November</textPath></text><line stroke="#e1ed5e" stroke-width="0.3" x1="56.762969772571076" x2="54.21961505331055" y1="26.818313649435495" y2="22.513508569990535" /><path d="M 56.25429882871897 25.957352633546506 a86.0,86.0 0 0,1 42.265352541879196,-11.944610805530505" fill="none" id="id24" stroke="none" /><text fill="#e1ed5e" style="font-size:6.75px; font-family:Arial;" text-anchor="middle"><textPath startOffset="22.20632615414155" xlink:href="#id24">December</textPath></text></svg>