<?xml version="1.0" encoding="utf-8" ?>
<svg baseProfile="full" height="200mm" version="1.1" viewBox="0,0,200,200" width="200mm" xmlns="http://www.w3.org/2000/svg" xmlns:ev="http://www.w3.org/2001/xml-events" xmlns:xlink="http://www.w3.org/1999/xlink"><defs /><rect fill="#1a1a1a" height="200" width="200" x="0" y="0" /><text alignment-baseline="middle" fill="#e1ed5e" style="dominant-baseline: central; font-size:9.0px; font-family:Arial;" text-anchor="middle" x="100.0" y="100.0">2022</text><line stroke="#e1ed5e" stroke-width="0.3" x1="100.0" x2="100.0" y1="15.0" y2="10.0" /><path d="M 100.0 14.0 a86.0,86.0 0 0,1 42.46469731375804,11.215312516191453" fill="none" id="id13" stroke="none" /><text fill="#e1ed5e" style="font-size:6.75px; font-family:Arial;" text-anchor="middle"><textPath startOffset="22.20632615414155" xlink:href="#id13">January</textPath></text><line stroke="#e1ed5e" stroke-width="0.3" x1="143.23703022742887" x2="145.7803849466894" y1="26.81831364943548" y2="22.513508569990506" /><path d="M 143.74570117128098 25.957352633546492 a86.0,86.0 0 0,1 28.547481713284135,27.462654790039103" fill="none" id="id14" stroke="none" /><text fill="#e1ed5e" style="font-size:6.75px; font-family:Arial;" text-anchor="middle"><textPath startOffset="19.985693538727396" xlink:href="#id14">February</textPath></text><path d="M 113.06298171725822 83.55741782278167 l 2.9415896205853618 -3.702625488959121 a25.728888347955078,25.728888347955078 0 0,0 0.3443953844439922,0.2784771164601033 l -3.004888403593845 3.651442275234888" fill="#ff2703" stroke="none" /><path d="M 113.89432698308785 84.25364557470407 l 4.133619744009067 -4.6846055679986955 a27.24758685540153,27.24758685540153 0 0,0 0.3490143561250924,0.31334853496305387 l -4.213645087730149 4.612758024266345" fill="#ff3d05" stroke="none" /><path d="M 114.16331599549186 84.49514656593476 l 4.177283692524572 -4.5729525081357965 a27.193673682839385,27.193673682839385 0 0,0 0.342889066755782,0.31867801814902447 l -4.255380643075201 4.500369903912132" fill="#ff3c05" stroke="none" /><path d="M 115.68641384162765 86.03803664274999 l 6.600282995251479 -5.874695788187846 a29.83605037452582,29.83605037452582 0 0,0 0.3381534641827778,0.3865678652977947 l -6.700428323012106 5.760212366687103" fill="#ff6209" stroke="none" /><line stroke="#e1ed5e" stroke-width="0.3" x1="172.23445277983987" x2="176.4835382374775" y1="55.19839476539836" y2="52.563006222186495" /><path d="M 173.08426987136738 54.67131705675599 a86.0,86.0 0 0,1 12.851231095245387,41.99856678651699" fill="none" id="id15" stroke="none" /><text fill="#e1ed5e" style="font-size:6.75px; font-family:Arial;" text-anchor="middle"><textPath startOffset="22.20632615414155" xlink:href="#id15">March</textPath></text><path d="M 118.3937258080291 89.86733742301442 l 5.790215019266657 -3.189690639664357 a27.610651733838623,27.610651733838623 0 0,0 0.22573929895236872,0.41826063710088984 l -5.84426241743749 3.0895490192310087" fill="#ff4206" stroke="none" /><path d="M 118.73160827565052 90.50648371742162 l 6.629851884077517 -3.360128286175529 a28.432724810213486,28.432724810213486 0 0,0 0.2174967878672384,0.43846025250645965 l -6.686708684898164 3.2455084451701195" fill="#ff4e07" stroke="none" /><path d="M 119.04729006885535 91.15688171328212 l 6.852003742660769 -3.1811916224481664 a28.554464602350823,28.554464602350823 0 0,0 0.20314146914015888,0.44759529982820334 l -6.905747528764275 3.0627743137779" fill="#ff5007" stroke="none" /><path d="M 119.47837535516314 92.15188598940014 l 6.317391757174308 -2.5453668417363993 a27.81089795640964,27.81089795640964 0 0,0 0.17508476635329479,0.4455716329607533 l -6.3602700734093025 2.4362462038798616" fill="#ff4506" stroke="none" /><path d="M 119.61058180528143 92.48833698450437 l 3.2072091115640866 -1.2284935911390635 a24.434441262966867,24.434441262966867 0 0,0 0.1470667265793126,0.3940657102563159 l -3.2278804266450245 1.1731047438534143" fill="#ff1402" stroke="none" /><path d="M 119.7369772167798 92.82701384747503 l 2.7206575893182454 -0.9887653514313451 a23.894759858521276,23.894759858521276 0 0,0 0.13716379455877004,0.38778051789286205 l -2.737274464686825 0.9417872071118686" fill="#ff0c01" stroke="none" /><path d="M 120.37134235888165 94.90015583598534 l 6.290478646538228 -1.5747838433641592 a27.48460220490619,27.48460220490619 0 0,0 0.11094251261215264,0.45992833889383256 l -6.3166539594112 1.4662702728109205" fill="#ff4006" stroke="none" /><path d="M 120.45610955862082 95.25157060432595 l 5.852111094946749 -1.3584370121973932 a27.007707997540045,27.007707997540045 0 0,0 0.1012218196960172,0.4537575700929599 l -5.874627301644804 1.2575012725544694" fill="#ff3905" stroke="none" /><path d="M 120.53481517161879 95.60439243477599 l 6.168710526983471 -1.3204516541040796 a27.30845322852939,27.30845322852939 0 0,0 0.09443614766324668,0.4605041943211966 l -6.190525970561715 1.214071803619471" fill="#ff3e05" stroke="none" /><path d="M 120.67395015179393 96.31383870115 l 7.044516050996084 -1.2560358444153497 a28.155615447688454,28.155615447688454 0 0,0 0.08096500974468372,0.477860070679538 l -7.06509292226099 1.1345899854199737" fill="#ff4a06" stroke="none" /><path d="M 120.73433829027371 96.67025291283417 l 9.666448287526137 -1.5523441152557942 a30.790301055002665,30.790301055002665 0 0,0 0.07953297006969531,0.5240229012749029 l -9.691737151035133 1.385722101588809" fill="#ff6f0a" stroke="none" /><path d="M 120.91429891909075 98.10471618934814 l 6.760558962245332 -0.6126515644473726 a27.788261885152597,27.788261885152597 0 0,0 0.039069655996104305,0.47674876296220436 l -6.77010310206093 0.4961888842773994" fill="#ff4506" stroke="none" /><path d="M 120.96714384426684 98.82574320788733 l 8.71018484880687 -0.48781053801302626 a29.723833974886347,29.723833974886347 0 0,0 0.024212740417948266,0.5110926817577807 l -8.717291197458314 0.3378067496322459" fill="#ff6008" stroke="none" /><line stroke="#e1ed5e" stroke-width="0.3" x1="184.98032266829074" x2="189.97916517819016" y1="98.17113171792111" y2="98.06355123074" /><path d="M 185.9800911702706 98.14961562048488 a86.0,86.0 0 0,1 -9.607161424134198,41.387399972396054" fill="none" id="id16" stroke="none" /><text fill="#e1ed5e" style="font-size:6.75px; font-family:Arial;" text-anchor="middle"><textPath startOffset="21.466115282336823" xlink:href="#id16">April</textPath></text><path d="M 120.99824983174949 100.27111621757518 l 11.95037972505559 0.1542957996787637 a32.951375768789894,32.951375768789894 0 0,0 -0.012204463579638669,0.5670934660270239 l -11.945953198790944 -0.35997908149590246" fill="#ff8c0c" stroke="none" /><path d="M 120.92983693683757 101.71520430193887 l 9.738796568810946 0.7980963168008306 a30.771443922961176,30.771443922961176 0 0,0 -0.04780622767256881,0.5275377387380957 l -9.7236157448613 -0.9656154440874969" fill="#ff6f0a" stroke="none" /><path d="M 120.8583938346157 102.4346265915055 l 9.936111858035897 1.1597595834824785 a31.003567421019415,31.003567421019415 0 0,0 -0.06643398770997443,0.5295442470320668 l -9.914676361079076 -1.3306215848019403" fill="#ff720a" stroke="none" /><path d="M 120.81339534386255 102.79330883721812 l 20.04806589283841 2.6905960657740535 a41.22780890835064,41.22780890835064 0 0,0 -0.1004504746334275,0.7025503856276044 l -19.99878136718838 -3.035291923382067" fill="#fff817" stroke="none" /><path d="M 120.13307415673323 105.97154293290107 l 13.375597018973759 3.9672506657545417 a34.95154734998629,34.95154734998629 0 0,0 -0.17604466519584644,0.5753241517361851 l -13.305325581271779 -4.196901790042784" fill="#ffa70f" stroke="none" /><path d="M 119.9155931802556 106.66101706037122 l 14.929763635366388 4.993444552838023 a36.742691342657274,36.742691342657274 0 0,0 -0.2057751141771081,0.5980788029945096 l -14.841597690246049 -5.249696058921832" fill="#ffbf11" stroke="none" /><path d="M 119.79798401119884 107.00284435728193 l 18.373235976362032 6.498889574276658 a40.488749727515255,40.488749727515255 0 0,0 -0.2380656330275891,0.6550543769709865 l -18.258646082329218 -6.814191748253776" fill="#ffef16" stroke="none" /><path d="M 119.67450827220406 107.3425965602758 l 7.367376362374553 2.749531098220857 a28.86372403667365,28.86372403667365 0 0,0 -0.17772593477030005,0.4639863337244163 l -7.318956148010746 -2.8759409987784172" fill="#ff5407" stroke="none" /><path d="M 119.41010516605496 108.01547362559984 l 8.985173600001175 3.7104601647494966 a30.721155242889136,30.721155242889136 0 0,0 -0.20604974155236616,0.48704072292010925 l -8.9199728772565 -3.864575413335769" fill="#ff6e0a" stroke="none" /><path d="M 119.12269723197855 108.67885076344098 l 17.869614559646227 8.110138234267044 a40.62390039439766,40.62390039439766 0 0,0 -0.2944756572856052,0.6342743680088853 l -17.72736428552079 -8.41653266955476" fill="#fff016" stroke="none" /><path d="M 118.97047184881838 109.00673069616215 l 12.360551527131616 5.86849709106443 a34.68292703198798,34.68292703198798 0 0,0 -0.26069462300327595,0.5371081385834753 l -12.257703647513624 -6.080394185613181" fill="#ffa40f" stroke="none" /><path d="M 118.64920377521936 109.65438752849418 l 17.384818806757444 8.999836126843759 a40.57623496114177,40.57623496114177 0 0,0 -0.3264406248743955,0.6175026399008553 l -17.227325673658154 -9.297753781830748" fill="#fff016" stroke="none" /><line stroke="#e1ed5e" stroke-width="0.3" x1="174.80103733775053" x2="179.2010983576182" y1="140.37084112569926" y2="142.7455964860345" /><path d="M 175.68104954172406 140.8457921977663 a86.0,86.0 0 0,1 -30.038265399797805,32.042727171017184" fill="none" id="id17" stroke="none" /><text fill="#e1ed5e" style="font-size:6.75px; font-family:Arial;" text-anchor="middle"><textPath startOffset="22.206326154141568" xlink:href="#id17">May</textPath></text><path d="M 118.48025628344425 109.97397251340804 l 10.234809052942069 5.523825135773421 a32.63030354207435,32.63030354207435 0 0,0 -0.2710235573569397,0.4919864807166318 l -10.13820908613362 -5.699182134887859" fill="#ff880c" stroke="none" /><path d="M 117.94076556474637 110.91462005526583 l 11.677633303208065 7.104319500149309 a34.66888712091792,34.66888712091792 0 0,0 -0.3145547095188008,0.5071623481442479 l -11.553613954021301 -7.304278179658831" fill="#ffa30f" stroke="none" /><path d="M 117.75023020441432 111.22182372390056 l 8.404943434561707 5.313665938177549 a30.943747776403534,30.943747776403534 0 0,0 -0.288506443976525,0.4477684079394097 l -8.31223212720813 -5.457555946038411" fill="#ff710a" stroke="none" /><path d="M 117.14729908036423 112.12312394758627 l 23.761293804844268 16.79921185261218 a50.10004471043088,50.10004471043088 0 0,0 -0.5039115164632758,0.699889023020773 l -23.46860249600539 -17.205734481084086" fill="#9dff22" stroke="none" /><path d="M 116.93607887273984 112.41649034213515 l 6.7097325671617645 4.919162826560216 a29.31977608094371,29.31977608094371 0 0,0 -0.3019081543108003,0.40445530982477357 l -6.624063146155872 -5.0339310158943045" fill="#ff5a08" stroke="none" /><path d="M 116.71984013943494 112.70617746262583 l 9.288362858504192 7.05865521638925 a32.666117522770776,32.666117522770776 0 0,0 -0.344072500190014,0.4447600879353736 l -9.16548354109611 -7.217493298437876" fill="#ff890c" stroke="none" /><path d="M 116.498646956653 112.99209946851258 l 7.5913672353675405 5.977932522771583 a30.66253247078746,30.66253247078746 0 0,0 -0.33010711250864133,0.4118593791434412 l -7.487342210804045 -6.107719735493275" fill="#ff6d0a" stroke="none" /><path d="M 116.27256486870786 113.27417163493432 l 10.460302598544883 8.532880536457188 a34.49918444583134,34.49918444583134 0 0,0 -0.379333318521567,0.45693141868398535 l -10.311873280129774 -8.711673212254945" fill="#ffa10e" stroke="none" /><path d="M 115.80600337817218 113.82643327865902 l 14.509198407329793 12.692042314935275 a40.27705310848546,40.27705310848546 0 0,0 -0.4609634893746842,0.5178973669528572 l -14.28857606830677 -12.939913851628999" fill="#ffec16" stroke="none" /><path d="M 115.32070863581623 114.36230785411682 l 7.612161630801505 7.135975977069583 a31.4339425836431,31.4339425836431 0 0,0 -0.37345536852136857,0.3915664608397673 l -7.4881997109011715 -7.265949554491858" fill="#ff780b" stroke="none" /><path d="M 114.81725581225074 114.88116024355365 l 5.6381477055276 5.662464126009838 a28.990757756789684,28.990757756789684 0 0,0 -0.35665541176802035,0.3490623864286152 l -5.539842341383785 -5.758676615361025" fill="#ff5607" stroke="none" /><path d="M 114.55890576462653 115.13401014063108 l 5.765756806756203 5.9935151303659415 a29.316620417728643,29.316620417728643 0 0,0 -0.36668693526210033,0.3467253847348148 l -5.661734037103295 -6.091875151846677" fill="#ff5a08" stroke="none" /><path d="M 114.29624159901734 115.38237550388516 l 3.953938840309383 4.254332968548581 a26.808010103313052,26.808010103313052 0 0,0 -0.3407176178319579,0.311237465552747 l -3.880121673010561 -4.3217632006879105" fill="#ff3705" stroke="none" /><path d="M 113.75828350139079 115.86535959552629 l 6.375938568036234 7.3524112314340755 a30.731934213684855,30.731934213684855 0 0,0 -0.40263886065465326,0.34313757211343043 l -6.248434230804533 -7.461073193770453" fill="#ff6e0a" stroke="none" /><path d="M 113.48314897796784 116.09983520530334 l 4.9789068795032945 5.945167586113527 a28.754645790862416,28.754645790862416 0 0,0 -0.3822038373022078,0.31452773779495174 l -4.875832913656395 -6.029990442765658" fill="#ff5207" stroke="none" /><path d="M 113.20401910651253 116.32954008644616 l 6.212993379155991 7.683669920752555 a30.881299012807666,30.881299012807666 0 0,0 -0.41622477622525106,0.33067413521178224 l -6.079811110213389 -7.789477969969464" fill="#ff700a" stroke="none" /><path d="M 112.92097659922987 116.55440617244103 l 5.463084741149457 6.999325713881667 a29.878955757181423,29.878955757181423 0 0,0 -0.4081625728261562,0.31296165589811786 l -5.341793439829806 -7.092326711607156" fill="#ff6209" stroke="none" /><path d="M 112.63410532772338 116.77436683061366 l 11.658927569357088 15.479618289298529 a40.379091166767864,40.379091166767864 0 0,0 -0.5587986082810349,0.41338585141833156 l -11.390743990657489 -15.67801408945663" fill="#ffed16" stroke="none" /><path d="M 112.04921762599082 117.19931262002967 l 11.174804751435609 15.951156859608076 a40.47602799321591,40.47602799321591 0 0,0 -0.5740717274090863,0.3948517687774554 l -10.89857613940364 -16.141149417750626" fill="#ffee16" stroke="none" /><path d="M 111.45004920935366 117.60387380957326 l 6.418372101737027 9.867923750892079 a32.77163623247746,32.77163623247746 0 0,0 -0.47552923508257394,0.3035052567167495 l -6.247561064607523 -9.976943436432638" fill="#ff8a0c" stroke="none" /><path d="M 111.1453310114006 117.79835938074945 l 4.324047342910358 6.90521874224908 a29.147357320139953,29.147357320139953 0 0,0 -0.42752344388611363,0.26261981744975127 l -4.204544699091936 -6.978627026527208" fill="#ff5808" stroke="none" /><line stroke="#e1ed5e" stroke-width="0.3" x1="143.8653032363475" x2="146.44561519142675" y1="172.8068346515853" y2="177.08958963109032" /><path d="M 144.38136562736335 173.6633856474863 a86.0,86.0 0 0,1 -40.68145358897372,12.25698825130547" fill="none" id="id18" stroke="none" /><text fill="#e1ed5e" style="font-size:6.75px; font-family:Arial;" text-anchor="middle"><textPath startOffset="21.466115282336833" xlink:href="#id18">June</textPath></text><path d="M 110.5260780823613 118.17145234162733 l 4.8897813580240586 8.44136137059506 a30.75533410592657,30.75533410592657 0 0,0 -0.46037986666421515,0.2614157034683992 l -4.743752724438645 -8.524280239858088" fill="#ff6e0a" stroke="none" /><path d="M 110.21172684928248 118.3499491758327 l 4.7186758513362035 8.479218385608535 a30.703764538612077,30.703764538612077 0 0,0 -0.46403211687199036,0.2530273085511275 l -4.572020922595565 -8.559186345919434" fill="#ff6e0a" stroke="none" /><path d="M 109.89434966115114 118.52300852407294 l 4.613330337412818 8.636520851873758 a30.79144061039762,30.79144061039762 0 0,0 -0.4696561215154987,0.2457018854577892 l -4.463983313370824 -8.714652156276264" fill="#ff6f0a" stroke="none" /><path d="M 109.57404056367764 118.69057910512821 l 7.170914273941717 13.999161545406789 a36.72890763844131,36.72890763844131 0 0,0 -0.565181094211577,0.28339353360473674 l -6.9288792720473795 -14.120522919920829" fill="#ffbf11" stroke="none" /><path d="M 108.92500713936063 119.00905698771935 l 6.629765543012394 14.120503104871348 a36.59943585806858,36.59943585806858 0 0,0 -0.572575524582526,0.2628413402797835 l -6.385722022662448 -14.232531515485206" fill="#ffbd11" stroke="none" /><path d="M 108.59647513512805 119.15986991738527 l 3.8491710032465987 8.579052990057614 a30.40299248210116,30.40299248210116 0 0,0 -0.4793239161599731,0.21012151881309962 l -3.700926412428872 -8.644039062165167" fill="#ff6909" stroke="none" /><path d="M 108.2653958097858 119.30500536409082 l 3.9500605713023313 9.22592726015517 a31.035970920973796,31.035970920973796 0 0,0 -0.49292295639769657,0.2060418357514726 l -3.7906661554071737 -9.292554138926617" fill="#ff720a" stroke="none" /><path d="M 107.93186726928326 119.44442032107085 l 7.66497106063517 18.790142849339695 a41.293379453875254,41.293379453875254 0 0,0 -0.6604559932172632,0.2628090699594298 l -7.3403939913760405 -18.919298763705193" fill="#fff917" stroke="none" /><path d="M 107.59598834532513 119.57807347666477 l 22.787965035975386 58.73422042999433 a84.0,84.0 0 0,0 -1.3525191169589008,0.5114069995734765 l -21.77357569825621 -59.11777567967444" fill="#4dd2ff" stroke="none" /><path d="M 106.57524785965236 119.94407469862006 l 3.05712541907242 9.272888113491447 a30.76383478932687,30.76383478932687 0 0,0 -0.5043491267197138,0.1614766635551708 l -2.8970549472617657 -9.324137623706326" fill="#ff6e0a" stroke="none" /><path d="M 106.2309692047433 120.05430185196036 l 2.8979424809298355 9.3269941404854 a30.766826010502427,30.766826010502427 0 0,0 -0.507103259013222,0.1527860521092194 l -2.7369642474763674 -9.375495561700346" fill="#ff6e0a" stroke="none" /><path d="M 105.88484417918355 120.15858648285463 l 2.81726903025776 9.65058031490619 a31.053392721032257,31.053392721032257 0 0,0 -0.5144051167740205,0.14537602425416815 l -2.650732745379134 -9.697645132498877" fill="#ff720a" stroke="none" /><path d="M 105.53697534728816 120.25689768951611 l 10.934517762173948 40.00368318436492 a62.47117489300656,62.47117489300656 0 0,0 -1.039727270185725,0.27460142199015514 l -10.244300049176726 -40.185975955658655" fill="#32ff47" stroke="none" /><path d="M 104.83641907484287 120.43548508189849 l 1.82036198302686 7.6916370504988105 a28.90411274374648,28.90411274374648 0 0,0 -0.48514844484988723,0.11041820654010577 l -1.6876933887841108 -7.7218319906166" fill="#ff5407" stroke="none" /><path d="M 104.48393922423573 120.51570834832081 l 2.1742866078485674 9.94817897423311 a31.18301463990126,31.18301463990126 0 0,0 -0.5253722303795131,0.11009685897454226 l -2.002722916039676 -9.984131813934194" fill="#ff740a" stroke="none" /><path d="M 104.13013068566511 120.58985236759428 l 1.9402936002962514 9.672904278440352 a30.865587485559097,30.865587485559097 0 0,0 -0.5218230072687522,0.10000862129228104 l -1.773502978455795 -9.7048700980811" fill="#ff700a" stroke="none" /><path d="M 103.7750983002368 120.6578951692458 l 1.7629804039366868 9.64728901699702 a30.80705283365681,30.80705283365681 0 0,0 -0.522474454886751,0.09083888109707117 l -1.5966569775778858 -9.676206476615098" fill="#ff6f0a" stroke="none" /><path d="M 103.41894727170886 120.7198165907248 l 1.5878013003927276 9.622538492735535 a30.752659125269677,30.752659125269677 0 0,0 -0.5230355684865999,0.08168739902785792 l -1.4219298682976105 -9.648444199110498" fill="#ff6e0a" stroke="none" /><path d="M 102.70371172650421 120.8252237178851 l 2.5032945391166983 19.281518920017955 a40.44333961572913,40.44333961572913 0 0,0 -0.691143119443091,0.08368780664678944 l -2.171023996622227 -19.321752255390095" fill="#ffee16" stroke="none" /><path d="M 101.98527174616119 120.90594882070398 l 2.0111272893949796 21.17822120085662 a42.27349727258219,42.27349727258219 0 0,0 -0.725001916745615,0.06255621602577974 l -1.646281054907823 -21.20970166916106" fill="#f9ff18" stroke="none" /><path d="M 101.62511606390274 120.93702456842531 l 0.668235064150058 8.609141381566221 a29.635036388386304,29.635036388386304 0 0,0 -0.5089284622535036,0.035098686442823664 l -0.519943841117624 -8.619368412525331" fill="#ff5f08" stroke="none" /><path d="M 101.26447882468166 120.96189622390904 l 0.6026504182489827 9.990436597315796 a31.00859685128752,31.00859685128752 0 0,0 -0.5330701640510002,0.027553638537047766 l -0.4305921857845029 -9.999330042615046" fill="#ff720a" stroke="none" /><line stroke="#e1ed5e" stroke-width="0.3" x1="102.19456741930631" x2="102.32365962044197" y1="184.97166512339345" y2="189.96999836594603" /><path d="M 102.22038585953345 185.97133177190398 a86.0,86.0 0 0,1 -42.740103519485714,-10.115201625700543" fill="none" id="id19" stroke="none" /><text fill="#e1ed5e" style="font-size:6.75px; font-family:Arial;" text-anchor="middle"><textPath startOffset="22.20632615414155" xlink:href="#id19">July</textPath></text><path d="M 100.54218724476979 120.99299961872073 l 0.5239567510709927 20.287131395224375 a41.29389639581545,41.29389639581545 0 0,0 -0.7107275580401704,0.01223581945499946 l -0.17466950313815438 -20.293144691958535" fill="#fff917" stroke="none" /><path d="M 99.81925306533755 120.99922214144158 l -0.16902969111676544 19.637909981096076 a40.638637413581215,40.638637413581215 0 0,0 -0.6994496051954391,-0.012041659269047687 l 0.5070389862048724 -19.632090844547868" fill="#fff116" stroke="none" /><path d="M 99.09653310690486 120.98055641714683 l -0.42146356540593516 9.787342712114118 a30.796413063021486,30.796413063021486 0 0,0 -0.5294225031341643,-0.027365096132715754 l 0.5898741369535883 -9.7786378092192" fill="#ff6f0a" stroke="none" /><path d="M 98.73552117531835 120.96189622390904 l -0.5872602936844167 9.735306825509186 a30.753003313817956,30.753003313817956 0 0,0 -0.5281275339453202,-0.03642276683384862 l 0.7547505884086668 -9.72375571415905" fill="#ff6e0a" stroke="none" /><path d="M 98.37488393609728 120.93702456842531 l -0.765549058265961 9.862876749096468 a30.892542803975104,30.892542803975104 0 0,0 -0.5298154681078229,-0.045714707935567735 l 0.9352088441153256 -9.848237788882237" fill="#ff700a" stroke="none" /><path d="M 98.01472825383883 120.90594882070398 l -1.878861243268133 19.7853906241906 a40.87440066324679,40.87440066324679 0 0,0 -0.6998620053231553,-0.07254355841483238 l 2.219155845196882 -19.750117697320007" fill="#fff316" stroke="none" /><path d="M 97.65516085044442 120.86867818915974 l -2.1564396302356794 19.19195382176566 a40.312724390298655,40.312724390298655 0 0,0 -0.6889110136078851,-0.08341752971529391 l 2.486478066894954 -19.15199076332502" fill="#ffec16" stroke="none" /><path d="M 97.2962882734958 120.8252237178851 l -1.282279372802325 9.876701922643518 a30.959592424324626,30.959592424324626 0 0,0 -0.5278926131266396,-0.0731611060109032 l 1.4521005771157955 -9.853166251140008" fill="#ff710a" stroke="none" /><path d="M 96.93821686468263 120.77559828337769 l -1.4158986536268536 9.60751965036798 a30.711292541652178,30.711292541652178 0 0,0 -0.5223320132431137,-0.08157751816816974 l 1.5810665304784846 -9.581723824852705" fill="#ff6e0a" stroke="none" /><path d="M 96.22490169976321 120.6578951692458 l -1.7382512748839443 9.511967572369706 a30.669490399832274,30.669490399832274 0 0,0 -0.5185077303106167,-0.09937324057282611 l 1.9017266197662561 -9.480637133448411" fill="#ff6d0a" stroke="none" /><path d="M 95.86986931433489 120.58985236759428 l -1.91298889490308 9.536782713343806 a30.726754393607138,30.726754393607138 0 0,0 -0.5176851460485862,-0.10848595571287824 l 2.076865502381053 -9.502440776904386" fill="#ff6e0a" stroke="none" /><path d="M 95.16358092515715 120.4354850818985 l -4.521330661792249 19.1041313541234 a40.63186862600867,40.63186862600867 0 0,0 -0.6792230483764639,-0.16693649987627013 l 4.849506994911924 -19.023473595933098" fill="#fff016" stroke="none" /><path d="M 94.46302465271185 120.25689768951611 l -2.5963131378926554 9.498552242967218 a30.8469963248887,30.8469963248887 0 0,0 -0.5109861228104905,-0.1444097824086669 l 2.7594304288077596 -9.452453667220029" fill="#ff700a" stroke="none" /><path d="M 94.11515582081647 120.15858648285463 l -2.73542941850451 9.370237991300286 a30.761348990648123,30.761348990648123 0 0,0 -0.5070129859828857,-0.15275885358570002 l 2.8963173789276415 -9.32176376860886" fill="#ff6e0a" stroke="none" /><path d="M 93.76903079525671 120.05430185196036 l -2.916436908338872 9.38651823981136 a30.829157080168805,30.829157080168805 0 0,0 -0.505420034835268,-0.1618195345156076 l 3.0775782882650806 -9.334925858636046" fill="#ff6f0a" stroke="none" /><path d="M 93.42475214034765 119.94407469862007 l -3.058306718313534 9.276471236258717 a30.767607618061703,30.767607618061703 0 0,0 -0.5015563491797004,-0.17015514519296387 l 3.2175328004304604 -9.222453104167629" fill="#ff6e0a" stroke="none" /><path d="M 93.08242187328487 119.8279376855182 l -13.629214616806795 39.06558237209593 a62.37481380190118,62.37481380190118 0 0,0 -1.0107109069595202,-0.36240497186403536 l 14.299645084396042 -38.825189859191944" fill="#32ff46" stroke="none" /><path d="M 92.40401165467489 119.57807347666478 l -3.515918855258097 9.062009386651836 a30.720169726940235,30.720169726940235 0 0,0 -0.4913455976998177,-0.19551655354222794 l 3.6713855289997728 -9.000145988703542" fill="#ff6e0a" stroke="none" /><path d="M 92.06813273071674 119.44442032107085 l -3.1743772438238613 7.781764783884372 a29.404316393247566,29.404316393247566 0 0,0 -0.46700851100546215,-0.19520959547579556 l 3.307857214326786 -7.725970145388604" fill="#ff5b08" stroke="none" /><path d="M 91.7346041902142 119.30500536409082 l -3.844731185780233 8.97991552650135 a30.768359163851986,30.768359163851986 0 0,0 -0.485084171136017,-0.21264664531630442 l 3.998736031573993 -8.912404327890592" fill="#ff6e0a" stroke="none" /><path d="M 91.40352486487194 119.15986991738527 l -3.97064710990959 8.849799588535225 a30.699741812474784,30.699741812474784 0 0,0 -0.48027846224167126,-0.22047228584413503 l 4.122393567918681 -8.780140232357015" fill="#ff6e0a" stroke="none" /><path d="M 91.07499286063937 119.00905698771935 l -4.161643256848337 8.863736756366915 a30.79209394784594,30.79209394784594 0 0,0 -0.47784539730235276,-0.22939482932210498 l 4.313601322150932 -8.790787650545248" fill="#ff6f0a" stroke="none" /><path d="M 90.7491055286396 118.85261126421891 l -12.799622064628812 26.084645096797946 a50.05579176039156,50.05579176039156 0 0,0 -0.7702539764388575,-0.3862213339966957 l 13.24672994875043 -25.860455921891948" fill="#9eff22" stroke="none" /><path d="M 90.42595943632237 118.69057910512821 l -10.607013219260976 20.70716311730192 a44.26575452892354,44.26575452892354 0 0,0 -0.6751773277211042,-0.35322086701248817 l 10.961881449508574 -20.521512831344715" fill="#e1ff1b" stroke="none" /><line stroke="#e1ed5e" stroke-width="0.3" x1="58.666819895761336" x2="56.23545636021788" y1="174.27360380694188" y2="178.64263932499728" /><path d="M 58.180547188652646 175.14741091055294 a86.0,86.0 0 0,1 -31.652253787137756,-30.449443065178592" fill="none" id="id20" stroke="none" /><text fill="#e1ed5e" style="font-size:6.75px; font-family:Arial;" text-anchor="middle"><textPath startOffset="22.20632615414155" xlink:href="#id20">August</textPath></text><path d="M 89.7882731507175 118.34994917583269 l -4.057761017046464 7.291588340488128 a29.344620123085555,29.344620123085555 0 0,0 -0.43926273904384283,-0.249424847282375 l 4.182672523011514 -7.220660327411121" fill="#ff5b08" stroke="none" /><path d="M 89.1626897886671 117.98757091392108 l -5.063908255432275 8.404983069592816 a30.812589220974097,30.812589220974097 0 0,0 -0.45194849447626484,-0.2776236784518047 l 5.207835949840849 -8.316570924312634" fill="#ff6f0a" stroke="none" /><path d="M 88.8546689885994 117.79835938074946 l -5.186988115944722 8.283278307017206 a30.773307793498248,30.773307793498248 0 0,0 -0.44653270932810246,-0.2849983020571136 l 5.328802627319748 -8.192765576136287" fill="#ff6f0a" stroke="none" /><path d="M 88.54995079064634 117.60387380957326 l -5.36131752697417 8.242755596264741 a30.832941850982042,30.832941850982042 0 0,0 -0.4424164519990669,-0.2932095001532105 l 5.502408677713198 -8.149248075020212" fill="#ff6f0a" stroke="none" /><path d="M 88.24862548938628 117.40417183066458 l -11.005409283218317 16.29937281455253 a40.666941491724685,40.666941491724685 0 0,0 -0.5767794546073298,-0.3967141682347779 l 11.284345622448537 -16.107517856952654" fill="#fff116" stroke="none" /><path d="M 87.95078237400918 117.19931262002967 l -13.385330987015928 19.10650959375682 a44.32864750662348,44.32864750662348 0 0,0 -0.6211766454580413,-0.44319304327145437 l 13.712234960322856 -18.873272288641143" fill="#e0ff1b" stroke="none" /><path d="M 87.65650970185807 116.9893568818739 l -5.7733782699534215 7.946373470805035 a30.822257784515962,30.822257784515962 0 0,0 -0.4265433979911306,-0.315546608621391 l 5.909306638363117 -7.845816913443877" fill="#ff6f0a" stroke="none" /><path d="M 87.36589467227662 116.77436683061367 l -5.846660145802245 7.76264084203964 a30.718128816959272,30.718128816959272 0 0,0 -0.41962612723914156,-0.3217514205909568 l 5.979415001534873 -7.660850079621316" fill="#ff6e0a" stroke="none" /><path d="M 87.07902340077011 116.55440617244103 l -6.015100714551488 7.706570755863808 a30.776127526855053,30.776127526855053 0 0,0 -0.4148072523643518,-0.32954796852585017 l 6.146865459633197 -7.601888873332827" fill="#ff6f0a" stroke="none" /><path d="M 86.79598089348748 116.32954008644616 l -6.143915774897217 7.598240969255287 a30.77143627497516,30.77143627497516 0 0,0 -0.4090108119966246,-0.3365880529589051 l 6.273796715438531 -7.491357797439201" fill="#ff6f0a" stroke="none" /><path d="M 86.51685102203217 116.09983520530335 l -26.663370072651425 31.837953054524874 a62.52818992363252,62.52818992363252 0 0,0 -0.8192220826256155,-0.6981588314570873 l 27.207457631854098 -31.374269832844835" fill="#32ff48" stroke="none" /><path d="M 85.97065885151581 115.62618273729859 l -13.043818022983187 14.528485825667332 a40.52480701577656,40.52480701577656 0 0,0 -0.5150518690609301,-0.4704876706252095 l 13.291969441510972 -14.301805388455547" fill="#ffef16" stroke="none" /><path d="M 85.44109423537348 115.13401014063109 l -6.7785695595653594 7.046335906829537 a30.777517833568055,30.777517833568055 0 0,0 -0.37863681895510237,-0.3705758198341171 l 6.8988563308962565 -6.928609984072851" fill="#ff6f0a" stroke="none" /><path d="M 84.9287848128048 114.62390073753433 l -6.991069043725742 6.783573751342667 a30.74124833961467,30.74124833961467 0 0,0 -0.36522571729363623,-0.3829377044292015 l 7.106801312398336 -6.662228930330966" fill="#ff6e0a" stroke="none" /><path d="M 84.67929136418377 114.36230785411682 l -7.10177872663286 6.657520536959471 a30.734363912557008,30.734363912557008 0 0,0 -0.3584996589689181,-0.3890805752681968 l 7.215324793597508 -6.534288706889931" fill="#ff6e0a" stroke="none" /><path d="M 84.43433777217949 114.09645910891817 l -15.04998503574979 13.629455370494867 a41.30428780510668,41.30428780510668 0 0,0 -0.47272000216835486,-0.5311059337064872 l 15.282363887566484 -13.368375267047515" fill="#fff917" stroke="none" /><path d="M 84.19399662182784 113.82643327865904 l -7.5166149445378165 6.575221612032952 a30.986643053188317,30.986643053188317 0 0,0 -0.3477254542257343,-0.4044832609993427 l 7.628682908334329 -6.444861251872079" fill="#ff720a" stroke="none" /><path d="M 83.95833913139862 113.55231037782056 l -7.497938378663169 6.3344057036081285 a30.815486516119986,30.815486516119986 0 0,0 -0.3388294810380427,-0.40814193719149794 l 7.6058638595947485 -6.204402509302869" fill="#ff6f0a" stroke="none" /><path d="M 83.50135304334701 112.99209946851258 l -7.710816810086403 6.071994827413683 a30.814571669861582,30.814571669861582 0 0,0 -0.3245701516056487,-0.4195506734470362 l 7.81419377891012 -5.938366159853394" fill="#ff6f0a" stroke="none" /><path d="M 83.28015986056508 112.70617746262583 l -7.7565558220322846 5.894564418774205 a30.742178806990857,30.742178806990857 0 0,0 -0.3165547525836621,-0.4240768217241504 l 7.8568718413110314 -5.760174717540746" fill="#ff6e0a" stroke="none" /><path d="M 83.06392112726016 112.41649034213515 l -30.43278303173346 22.311442892842592 a58.73532518764268,58.73532518764268 0 0,0 -0.5907660752866714,-0.8205224087120802 l 30.812328899395737 -21.784286878679374" fill="#41ff2d" stroke="none" /><path d="M 82.6465618267979 111.8261652097733 l -8.311883493262192 5.664451413870347 a31.05849974030234,31.05849974030234 0 0,0 -0.2972696189715432,-0.4443777462909025 l 8.408156217644466 -5.520536753373624" fill="#ff730a" stroke="none" /><path d="M 82.44556493220864 111.52570212397912 l -8.210275263449834 5.3906142052968296 a30.82177893316502,30.82177893316502 0 0,0 -0.28736925796102575,-0.44600346998976176 l 8.301849384787905 -5.248489135385619" fill="#ff6f0a" stroke="none" /><path d="M 82.24976979558568 111.22182372390057 l -8.20995974635658 5.190395842360448 a30.7130658412876,30.7130658412876 0 0,0 -0.27866309842721565,-0.44929364292684476 l 8.298087484451752 -5.048305868068339" fill="#ff6e0a" stroke="none" /><line stroke="#e1ed5e" stroke-width="0.3" x1="26.63291911575756" x2="22.317208475507996" y1="142.92168965132927" y2="145.44649492493687" /><path d="M 25.769776987707644 143.4266507060508 a86.0,86.0 0 0,1 -11.730757126820373,-40.83630448921669" fill="none" id="id21" stroke="none" /><text fill="#e1ed5e" style="font-size:6.75px; font-family:Arial;" text-anchor="middle"><textPath startOffset="21.46611528233685" xlink:href="#id21">September</textPath></text><path d="M 81.87401531095188 110.60418214915194 l -8.442950597040696 4.939350194938968 a30.781645829425305,30.781645829425305 0 0,0 -0.2636198836936497,-0.45964348780600905 l 8.526722476886722 -4.793286861274653" fill="#ff6f0a" stroke="none" /><path d="M 81.69416730710424 110.29060199501025 l -8.496562586940307 4.776332515145819 a30.747047147163748,30.747047147163748 0 0,0 -0.255381445817705,-0.4635915047144841 l 8.57752044220953 -4.629370492033512" fill="#ff6e0a" stroke="none" /><path d="M 81.51974371655577 109.97397251340807 l -20.610244139859102 11.123547498080057 a44.42040717935193,44.42040717935193 0 0,0 -0.3573674465038463,-0.6760045313467296 l 20.798664094587835 -10.767127951647202" fill="#dfff1b" stroke="none" /><path d="M 81.35079622478065 109.6543875284942 l -17.472964037441212 9.04546746993309 a40.675491201068695,40.675491201068695 0 0,0 -0.31653537519884045,-0.6245543249861475 l 17.62607808242632 -8.743358933244258" fill="#fff116" stroke="none" /><path d="M 80.73074385275274 108.34839909993369 l -8.948971039194092 3.877138857776477 a30.75275798852893,30.75275798852893 0 0,0 -0.20626170420546452,-0.487541740019277 l 9.014383724591863 -3.722522592091041" fill="#ff6e0a" stroke="none" /><path d="M 80.58989483394504 108.01547362559985 l -9.040054609279847 3.7331234774238116 a30.780531592733325,30.780531592733325 0 0,0 -0.19801758809267409,-0.4914634143418088 l 9.10297481162991 -3.5769606952391975" fill="#ff6f0a" stroke="none" /><path d="M 80.45479744820244 107.68017299344265 l -18.266480769274775 7.177706750167259 a40.62609981340363,40.62609981340363 0 0,0 -0.2501517668418172,-0.6530673270709004 l 18.387326815710104 -6.8622158562632" fill="#fff016" stroke="none" /><path d="M 80.32549172779594 107.34259656027581 l -18.42054694735325 6.8746137277098525 a40.661558019263424,40.661558019263424 0 0,0 -0.23908171071940454,-0.657850186390873 l 18.536152919077878 -6.556515744312862" fill="#fff116" stroke="none" /><path d="M 79.23777060512086 103.15116336523772 l -24.52795835858142 3.72270252551499 a45.808854373666264,45.808854373666264 0 0,0 -0.1116120717081454,-0.7806145695717573 l 24.58840448130616 -3.299942483962832" fill="#cfff1d" stroke="none" /><line stroke="#e1ed5e" stroke-width="0.3" x1="15.007084014347285" x2="10.007500721073583" y1="101.09737516637583" y2="101.16192664675087" /><path d="M 14.007167355692545 101.11028546245083 a86.0,86.0 0 0,1 10.666146001902534,-42.60595125391555" fill="none" id="id22" stroke="none" /><text fill="#e1ed5e" style="font-size:6.75px; font-family:Arial;" text-anchor="middle"><textPath startOffset="22.20632615414155" xlink:href="#id22">October</textPath></text><path d="M 79.00486145842228 99.54816195383935 l -12.500650523538756 -0.2690274940128301 a33.50354506946668,33.50354506946668 0 0,0 0.01737127788263903,-0.5764681428900215 l 12.494167551200471 0.484165784327846" fill="#ff940d" stroke="none" /><path d="M 79.01574976396665 99.18683210126434 l -12.999064084851282 -0.5037312035698801 a34.008820554051795,34.008820554051795 0 0,0 0.027703247995916582,-0.5847717799485346 l 12.988467228621866 0.7274140901414238" fill="#ff9b0e" stroke="none" /><path d="M 79.03285615573316 98.82574320788736 l -7.4504772348710375 -0.41726109967620467 a28.46215236058837,28.46215236058837 0 0,0 0.03160574151386986,-0.488926832187238 l 7.442190902352754 0.5454469961164544" fill="#ff4e07" stroke="none" /><path d="M 79.05617556472873 98.46500227214037 l -12.314162179571913 -0.9025195481635582 a33.34719124819959,33.34719124819959 0 0,0 0.046885382608240114,-0.5721204241398518 l 12.296802313144175 1.1143538895111882" fill="#ff920d" stroke="none" /><path d="M 79.08570108090925 98.10471618934814 l -13.765435103481355 -1.2474435026073143 a34.82184209432136,34.82184209432136 0 0,0 0.05923506136422481,-0.5964889841558991 l 13.741922916434902 1.4842080174676437" fill="#ffa50f" stroke="none" /><path d="M 79.12142395522702 97.74499172005258 l -10.345849528923486 -1.117412236389241 a31.406018094408577,31.406018094408577 0 0,0 0.06267691104283632,-0.5369774976704805 l 10.32508226487706 1.2953334723845833" fill="#ff770b" stroke="none" /><path d="M 79.16333360222342 97.38593545837743 l -20.297388254060422 -2.5464093876430915 a41.45649458498564,41.45649458498564 0 0,0 0.09492352974682643,-0.7072905529569583 l 20.25054872525576 2.8954182826647092" fill="#fffb17" stroke="none" /><path d="M 79.21141760316559 97.0276538004421 l -9.60306425446084 -1.3730436734927878 a30.700726364794654,30.700726364794654 0 0,0 0.07930159392489262,-0.5224984215707196 l 9.578006767096646 1.5381412074555993" fill="#ff6e0a" stroke="none" /><path d="M 79.26566170972629 96.67025291283419 l -9.60478971911224 -1.5424423071681213 a30.7278524772586,30.7278524772586 0 0,0 0.08836180050394525,-0.5215163484490313 l 9.576816057088072 1.7075444439329805" fill="#ff6e0a" stroke="none" /><path d="M 79.32604984820605 96.31383870115002 l -9.618720628949724 -1.7150160209614227 a30.770417928110206,30.770417928110206 0 0,0 0.0974605749275841,-0.5206382883569638 l 9.587774330112278 1.8803323867809592" fill="#ff6f0a" stroke="none" /><path d="M 79.46518482838121 95.60439243477599 l -9.514104305154119 -2.0365544325845994 a30.729631785747706,30.729631785747706 0 0,0 0.1151711669951878,-0.5162897588430124 l 9.477638751156892 2.200022360977571" fill="#ff6e0a" stroke="none" /><path d="M 79.62865764111835 94.90015583598534 l -40.40275121513423 -10.114588001354953 a62.64957618258779,62.64957618258779 0 0,0 0.2708957773404571,-1.043871935435059 l 40.22265910592347 10.808556362338875" fill="#32ff49" stroke="none" /><path d="M 79.91906864156998 93.8553929516997 l -9.361681274717323 -2.8646008353800987 a30.790148836225796,30.790148836225796 0 0,0 0.15944094475716072,-0.5054713660473701 l 9.310984846191959 3.025322367853883" fill="#ff6f0a" stroke="none" /><path d="M 80.02781315780177 93.51064311812611 l -9.346751179817003 -3.0369435541106973 a30.827755784932034,30.827755784932034 0 0,0 0.16832351929729553,-0.5032658980769849 l 9.293090366747935 3.1973825551100044" fill="#ff6f0a" stroke="none" /><path d="M 80.2630227832202 92.82701384747504 l -19.03464171651164 -6.917737197098936 a41.25272014333115,41.25272014333115 0 0,0 0.24829307323540656,-0.6653019927214234 l 18.912744054774606 7.244362326849701" fill="#fff817" stroke="none" /><path d="M 80.38941819471856 92.48833698450439 l -18.080643200498514 -6.925633322565662 a40.36166458397534,40.36166458397534 0 0,0 0.25409868550063097,-0.6466534387305679 l 17.95875096511619 7.235835766191993" fill="#ffed16" stroke="none" /><path d="M 80.52162464483688 92.15188598940014 l -9.270166063904007 -3.7350815373535573 a30.994339044831175,30.994339044831175 0 0,0 0.20364507702300005,-0.4931427069938058 l 9.204499299994808 3.8940988148006745" fill="#ff720a" stroke="none" /><path d="M 80.65960295795068 91.81776055985345 l -9.003260974199652 -3.8089619811250146 a30.775832422008996,30.775832422008996 0 0,0 0.21060823958892974,-0.4861128543066598 l 8.93636202476804 3.9633739800182735" fill="#ff6f0a" stroke="none" /><path d="M 80.95270993114464 91.15688171328213 l -8.90375410317234 -4.133761309119092 a30.81655844430869,30.81655844430869 0 0,0 0.22751689908508776,-0.4792086135164669 l 8.8312790102455 4.286412338276091" fill="#ff6f0a" stroke="none" /><path d="M 81.10775173730289 90.83032412892265 l -8.763115555773016 -4.2533280396222475 a30.740790196717505,30.740790196717505 0 0,0 0.23515238757155024,-0.47405286415105174 l 8.688603155248053 4.403540492272261" fill="#ff6e0a" stroke="none" /><path d="M 81.26839172434947 90.50648371742162 l -17.92421257248496 -9.08431360538755 a41.09482893743207,41.09482893743207 0 0,0 0.32521775787142787,-0.6282171934743337 l 17.765185381453417 9.391503521122218" fill="#fff617" stroke="none" /><line stroke="#e1ed5e" stroke-width="0.3" x1="26.266209847984243" x2="21.928928074336255" y1="57.711370442889674" y2="55.22380399835377" /><path d="M 25.398753493254645 57.213857153982495 a86.0,86.0 0 0,1 29.58750427330803,-30.492523968695096" fill="none" id="id23" stroke="none" /><text fill="#e1ed5e" style="font-size:6.75px; font-family:Arial;" text-anchor="middle"><textPath startOffset="21.46611528233685" xlink:href="#id23">November</textPath></text><path d="M 81.78341655067845 89.55222093294921 l -8.489858931458565 -4.869199028076284 a30.787073303653436,30.787073303653436 0 0,0 0.2676134468073746,-0.45743812876713114 l 8.404785810180865 5.014616569197306" fill="#ff6f0a" stroke="none" /><path d="M 82.34701348167596 88.62581576622439 l -8.206622294830565 -5.2876964371734605 a30.76260124668149,30.76260124668149 0 0,0 0.2906382663087736,-0.4426620191335832 l 8.114387393163872 5.428176520284711" fill="#ff6e0a" stroke="none" /><path d="M 83.17141714833178 87.43820079747576 l -7.875116939413775 -5.8784294887615305 a30.827176606929527,30.827176606929527 0 0,0 0.3210783437569527,-0.42250146400374267 l 7.772762655432714 6.0131157286463" fill="#ff6f0a" stroke="none" /><path d="M 83.39014120810768 87.1503855733568 l -7.643504654837146 -5.913119967693618 a30.663754506445933,30.663754506445933 0 0,0 0.32656302709689833,-0.41470188141843595 l 7.540587547146276 6.043814243065102" fill="#ff6d0a" stroke="none" /><path d="M 83.6137871275137 86.86637796730984 l -7.63851370013883 -6.1223024874524965 a30.78925325523227,30.78925325523227 0 0,0 0.3350186093648768,-0.4106932020350688 l 7.53199659869756 6.252879859095648" fill="#ff6f0a" stroke="none" /><path d="M 84.07557802195018 86.31012108654704 l -15.387872804885566 -13.228619269501264 a41.2924369467237,41.2924369467237 0 0,0 0.4679969507628146,-0.5350014161749694 l 15.157883990544908 13.491536241879176" fill="#fff917" stroke="none" /><path d="M 84.31358615837235 86.03803664274999 l -14.438679849318127 -12.851396183891975 a40.32961095486556,40.32961095486556 0 0,0 0.46601126522280695,-0.5145812783742574 l 14.215324943479276 13.098030249535787" fill="#ffed16" stroke="none" /><path d="M 85.83668400450813 84.49514656593479 l -26.846314178251372 -29.389174590974648 a60.80512740962112,60.80512740962112 0 0,0 0.7788529129054818,-0.6992618353016093 l 26.33645027774992 29.846935435045538" fill="#30ff33" stroke="none" /><path d="M 86.37877921826538 84.01681056812374 l -12.752320661155466 -14.963618906801182 a40.66040622756586,40.66040622756586 0 0,0 0.5366059585786062,-0.4493920583483552 l 12.492857165617748 15.180912122543349" fill="#fff116" stroke="none" /><path d="M 86.65592168130627 83.78471172551755 l -12.496834684015074 -15.18574547302956 a40.66666577463602,40.66666577463602 0 0,0 0.5443457876649301,-0.44015643691295614 l 12.233585497785644 15.39860800720665" fill="#fff116" stroke="none" /><path d="M 86.93701828274178 83.55741782278169 l -12.29891345978594 -15.480837348631887 a40.771686759255005,40.771686759255005 0 0,0 0.5532668284583417,-0.4318335353847495 l 12.030614076168172 15.690249273239859" fill="#fff216" stroke="none" /><path d="M 87.51073957382395 83.11751280151077 l -10.789057861078147 -14.584220763116946 a39.14120351015951,39.14120351015951 0 0,0 0.5450965852426641,-0.3960358510492961 l 10.536415959481701 14.767775848982911" fill="#ffde14" stroke="none" /><line stroke="#e1ed5e" stroke-width="0.3" x1="56.762969772571076" x2="54.21961505331055" y1="26.818313649435495" y2="22.513508569990535" /><path d="M 56.25429882871897 25.957352633546506 a86.0,86.0 0 0,1 42.265352541879196,-11.944610805530505" fill="none" id="id24" stroke="none" /><text fill="#e1ed5e" style="font-size:6.75px; font-family:Arial;" text-anchor="middle"><textPath startOffset="22.20632615414155" xlink:href="#id24">December</textPath></text><path d="M 91.56875222667455 80.76684994638697 l -0.8323527145750718 -1.898742047126474 a23.07316965127954,23.07316965127954 0 0,0 0.36512328735142474,-0.15632673663708424 l 0.7995456694333387 1.9127883117263444" fill="#ff0000" stroke="none" /><path d="M 91.90106846888425 80.62456947434976 l -1.4947930212250544 -3.5760591655456127 a24.87590058332072,24.87590058332072 0 0,0 0.3964935801787267,-0.161739686715812 l 1.4330155714579471 3.6012597384450014" fill="#ff1b02" stroke="none" /><path d="M 92.23578459929587 80.48803036053334 l -1.4446270616083101 -3.6304401554723675 a24.907306370070984,24.907306370070984 0 0,0 0.3997229314868916,-0.15508628734857738 l 1.3819209651217421 3.654769146711496" fill="#ff1b02" stroke="none" /><path d="M 92.57280143429618 80.3572730644239 l -2.7756350538356904 -7.340727591028268 a28.84795715570397,28.84795715570397 0 0,0 0.46598747297954585,-0.17162711892842253 l 2.6488652550835754 7.387417977763013" fill="#ff5407" stroke="none" /><path d="M 92.91201910852362 80.23233633223022 l -2.718551572376793 -7.581766086708165 a29.054421124154757,29.054421124154757 0 0,0 0.4722284186284691,-0.16475122281141302 l 2.5876411496850382 7.627438162691789" fill="#ff5708" stroke="none" /></svg>