<?xml version="1.0" encoding="utf-8" ?>
<svg baseProfile="full" height="300mm" version="1.1" viewBox="0,0,200,300" width="200mm" xmlns="http://www.w3.org/2000/svg" xmlns:ev="http://www.w3.org/2001/xml-events" xmlns:xlink="http://www.w3.org/1999/xlink"><defs /><rect fill="#222222" height="300" width="200" x="0" y="0" /><text fill="#FFFFFF" style="font-size:12px; font-family:Arial; font-weight:bold;" x="10" y="20">Over 10km Runs</text><text fill="#FFFFFF" style="font-size:4px; font-family:Arial" x="10" y="280">ATHLETE</text><text fill="#FFFFFF" style="font-size:9px; font-family:Arial" x="10" y="290">Zion</text><text fill="#FFFFFF" style="font-size:4px; font-family:Arial" x="120" y="280">STATISTICS</text><text fill="#FFFFFF" style="font-size:3px; font-family:Arial" x="120" y="285">Number: 3</text><text fill="#FFFFFF" style="font-size:3px; font-family:Arial" x="120" y="290">Weekly: 1.5</text><text fill="#FFFFFF" style="font-size:3px; font-family:Arial" x="141" y="285">Total: 31.9 km</text><text fill="#FFFFFF" style="font-size:3px; font-family:Arial" x="141" y="290">Avg: 10.6 km</text><text fill="#FFFFFF" style="font-size:3px; font-family:Arial" x="167" y="285">Min: 10.0 km</text><text fill="#FFFFFF" style="font-size:3px; font-family:Arial" x="167" y="290">Max: 11.3 km</text><polyline fill="none" points="66.47601199406199,67.28909537334403 67.28560719639063,66.88801441412943 67.42728635692038,66.85716198921727 67.62968515750254,66.9188668327115 68.58095952030271,67.69017528570839 69.24887556221802,67.8752887382434 69.79535232385388,67.93699317294522 70.80734632688109,68.21466282207984 71.13118440785911,68.3689235215279 71.5562218890409,68.7082965150039 71.67766116943676,68.7700006152154 72.2443778111483,68.7700006152154 73.41829085460631,68.52318406605627 73.62068965524668,68.52318406605627 73.84332833584631,68.7700006152154 74.08620689663803,69.35618833033368 74.2683658170863,69.41789217026962 74.5314842578955,69.32533640103065 75.26011994009605,68.83170469047036 76.19115442287875,68.09125415110611 76.81859070470091,67.69017528570839 77.12218890554504,67.56676619339851 77.30434782610973,67.56676619339851 77.4257871065056,67.65932302187139 77.64842578716343,68.02954977842455 78.21514242887497,68.61574031841883 78.3568215892883,68.95511276688194 78.76161919045262,69.54129977573757 79.12593703152379,70.34344679566857 79.16641679167515,70.65196376515087 79.10569715150632,71.54665947375179 78.7818590705283,73.39773750395398 78.76161919045262,74.13816247199429 78.8628185907146,74.66262799905962 79.02473763126181,75.12539021279372 79.95577211398631,76.91472432625596 80.4820089955465,77.71683285452309 81.21064467774704,78.95083779934794 82.18215892056469,80.24653232574929 82.42503748135641,80.49333004429354 83.2751124438364,81.29541989249992 84.83358320844127,82.49854681458964 86.18965517246397,84.31864399689948 87.32308845582884,85.95362816928537 87.64692653680686,86.35465936610126 88.13268365821568,86.69399263820378 88.65892053983407,87.24926364897692 89.26611694152234,88.35979965118167 90.19715142430505,89.43947973682953 91.51274362829281,91.13610454458103 91.99850074970163,91.90729144672514 92.34257871069713,92.67847447861277 92.52473763126181,93.51134780611028 92.8688155922573,94.34421661956003 93.25337331334595,95.54724138106394 93.43553223391064,96.25671310759208 93.84032983513316,97.36718401692633 94.10344827594236,98.23087806536932 94.20464767620433,98.75526136926783 94.38680659676902,99.37218061248132 94.40704647678649,99.55725590254588 94.488005997031,99.68063930538483 94.67016491759568,99.71148514059314 95.07496251876,99.49556416395353 95.39880059973802,99.40302650959347 95.5,99.31048879958689 95.35832083958667,99.06372130049567 95.35832083958667,98.97118338610744 95.37856071972055,98.50849297849345 95.29760119941784,98.01495500837336 94.95352323842235,96.90448877988092 94.81184407800902,96.28755963004369 92.72713643178577,91.29034223465715 92.40329835086595,90.2106751534302 92.16041979013244,89.13100048644992 91.8568215892883,88.05131823345437 91.71514242887497,87.09502190283092 91.73538230889244,86.9407800019253 91.81634182913695,86.72484108034405 92.16041979013244,86.50890185541357 93.43553223391064,86.13871962096891 93.61769115447532,86.04617392296495 93.75937031488866,85.92277957238548 93.7998500749818,85.79938512254739 93.82008995511569,85.70683922032185 93.7998500749818,85.36750376824057 93.75937031488866,85.0898651137395 93.57721139432397,84.38034182868432 93.43553223391064,83.60911715084512 92.92953523236793,81.38796845175966 92.54497751127928,79.50613679134403 92.4437781109591,79.2284875461919 92.07946026988793,78.51893719588406 91.9377811094746,77.99448483121523 91.83658170915442,77.03812591079623 91.57346326834522,75.43389758089324 90.9257871065056,73.73709939047694 90.70314842584776,72.87326765946636 90.25787106453208,71.82432259997586 89.7316341829137,70.74451873525686 89.2256371814874,69.94237380915729 88.84107946028234,69.57215166166134 87.100449775171,67.44335700199008 86.47301349329064,66.61034236736305 85.21814092958812,65.31453284792951 84.99550224898849,64.85174108538195 84.5502248876146,64.35809500215692 83.82158920541406,63.710182111142785 83.51799100456992,63.52506364042347 83.09295352327172,63.03141329489881 82.28335832094308,62.445201449489105 81.73688155924901,61.82813393280958 81.25112443778198,61.42703871798585 79.30809595208848,59.94606270053191 78.55922038987046,59.35983908335038 78.37706146930577,59.26727725505771 78.01274362829281,59.23642329996801 77.91154422791442,59.14386139740236 77.81034482765244,58.958737424894935 77.64842578716343,58.804467277397634 76.7376311844564,58.465072407750995 76.21139430289622,58.156530966676655 75.52323838084703,57.87884313997347 74.49100449780235,57.261757283558836 73.80284857581137,56.984067839512136 71.92053973017028,56.49039647767495 70.44302848580992,56.2435602019541 68.4190404798137,55.811595765160746 66.61769115447532,55.595613091252744 65.22113943030126,55.62646777757618 64.51274362829281,55.533903700095834 63.33883058471838,55.472194284171565 62.3065967016737,55.62646777757618 60.03973013500217,55.74988646066049 58.197901049570646,55.96586891762854 57.9752623688546,55.935014299539034 57.83358320844127,55.811595765160746 57.63118440785911,54.91680842541973 57.4692653673701,54.63911474318593 56.113193403347395,53.991160866149585 55.68815592204919,53.55919009663921 54.79760119941784,52.880376433429774 53.54272863571532,52.263270500770886 52.32833583210595,51.43017355984193 51.07346326834522,51.029051199395326 49.332833583292086,50.53536070269183 48.21964017994469,50.350226357462816 47.16716641682433,50.28851485940686 45.811094452801626,50.350226357462816 42.37031484261388,50.75135049020173 40.77136431791587,50.78220614930615 39.82008995511569,50.87477308961388 38.585457271372434,50.87477308961388 37.26986506750109,51.09076239996648 36.37931034486974,51.43017355984193 35.56971514248289,51.39931803086074 35.144677661242895,51.183329154286184 34.35532233887352,51.09076239996648 33.66716641682433,51.15247357574117 32.877811094454955,51.43017355984193 31.967016491806135,52.232415139093064 31.19790104945423,52.756955445263884 29.821589205414057,54.0528708769416 28.202398800640367,55.41048484350904 27.696401799155865,55.74988646066049 27.21064467774704,55.96586891762854 26.178410794585943,56.58295997882669 25.065217391354963,57.076631043324596 24.23538230889244,57.261757283558836 23.952023988065775,57.44688330065401 23.749625187483616,57.508591923484346 22.27211394306505,57.57030052144546 21.341079460282344,57.53944622557901 18.325337331392802,57.10748543214868 17.799100449832622,57.23090292555571 17.414542728627566,57.261757283558836 15.815592203987762,57.169194191272254 15.572713643196039,57.10748543214868 15.37031484261388,56.984067839512136 14.783358320826665,56.73723235684156 14.722638680716045,56.76808681388502 14.580959520302713,57.076631043324596 14.5,57.53944622557901 14.580959520302713,57.601154811214656 15.511994003027212,57.724571908140206 18.426536731654778,57.66286337206839 19.377811094454955,57.94055158922856 20.997001499286853,58.1256767885061 24.05322338832775,58.00226001375995 25.30809595208848,57.786280419371906 26.056971514306497,57.41602897991834 27.939280359831173,56.33612385181186 28.951274362858385,55.62646777757618 31.116941529267933,53.74432057508966 31.602698650676757,53.40491452738934 33.32308845582884,51.615306603795034 33.66716641682433,51.39931803086074 34.01124437787803,51.27589585291571 35.00299850082956,51.27589585291571 35.44827586208703,51.39931803086074 36.88530734635424,51.49188459935249 38.706896551768295,51.368462495694985 40.24512743635569,51.27589585291571 40.9130434783292,51.09076239996648 42.00599700154271,50.90562872393639 42.633433283423074,50.998195589796524 43.179910045000724,51.27589585291571 43.341829085489735,51.27589585291571 43.80734632688109,51.30675140667881 45.40629685163731,51.121617990909726 46.2563718141173,51.183329154286184 46.80284857581137,51.15247357574117 48.3815592204337,51.24504029288073 49.535232383874245,51.39931803086074 50.28410794609226,51.553595614022925 51.538980509736575,52.078138237673556 52.389055472332984,52.726100182757364 52.49025487259496,52.91123166504258 52.63193403300829,53.37405939500604 52.65217391308397,53.49747988747549 52.611694152932614,53.590045191856916 52.32833583210595,53.898595803417265 51.92353823094163,54.484840258417535 51.70089955028379,54.9476632479782 51.4377811094746,55.74988646066049 51.11394302849658,57.20004856152809 50.85082458774559,58.74275917513296 50.81034482765244,59.4524008557928 50.81034482765244,59.66837810805009 50.89130434789695,59.88435505666712 51.13418290857226,60.10033170171664 52.753373313345946,60.50143037993985 53.40104947530199,60.62484514713287 53.78560719639063,60.779113466938725 54.55472263874253,60.96423524602142 55.060719640227035,61.02594245609362 55.20239880064037,60.9950888541498 55.263118440809194,60.902528011094546 55.44527736137388,60.316308043155004 55.66791604203172,59.32898514684348 55.99175412300974,58.09482260416553 56.153673163440544,57.786280419371906 56.25487256376073,57.693717643254786 56.477511244418565,57.755426166870166 57.185907046543434,58.1873851386481 57.894302848610096,58.495926517862245 58.88605697156163,58.897029384505004 59.81709145428613,59.205569338591886 60.32308845582884,59.29813120397739 61.29460269870469,59.205569338591886 61.92203898052685,59.26727725505771 63.11619190411875,59.17471537110396 66.03073463274632,58.6810510478972 66.96176911552902,58.465072407750995 68.23688155924901,58.465072407750995 68.66191904054722,58.495926517862245 69.16791604203172,58.71190511461464 69.6941529235919,59.11300741741434 70.13943028496578,59.51410867314553 71.5562218890409,61.118503224905 71.88005997001892,61.30362459515163 72.26461769122398,61.30362459515163 72.62893553223694,61.21106393785158 73.82308845582884,60.655698823422426 74.20764617691748,60.62484514713287 74.67316341830883,60.47057667259651 74.81484257872216,60.47057667259651 74.9565217391937,60.563137775985524 75.19940029986901,60.871674384281505 76.49475262372289,61.82813393280958 78.4377811094746,63.40165120277379 79.712893553311,64.57406535874179 80.80584707652451,66.24011219124077 82.16191904054722,68.15295849903487 82.3440779610537,68.46147986683354 82.42503748135641,68.67744445570861 82.38455772120506,68.83170469047036 82.28335832094308,68.92426075704861 81.29160419793334,69.54129977573757 80.80584707652451,69.94237380915729 79.81409295357298,70.34344679566857 79.30809595208848,70.49770535784774 79.12593703152379,70.40515023919579 78.57946026988793,69.32533640103065 78.21514242887497,68.80085265592788 77.38530734635424,67.81358427889063 77.2436281859409,67.72102754334628 76.21139430289622,68.3689235215279 75.23988006002037,69.10937272281444 74.59220389806433,69.41789217026962 74.24812593706883,69.47959598542366 74.025487256411,69.47959598542366 73.9445277362247,69.41789217026962 73.53973013500217,68.80085265592788 73.35757121443748,68.7082965150039 72.64917541237082,68.80085265592788 71.94077961024595,68.7700006152154 71.51574212900596,68.6465923901851 71.07046476763207,68.3689235215279 70.30134932539659,68.12210632812639 69.4310344827827,68.06040196782851 68.23688155924901,68.06040196782851 66.84032983513316,68.52318406605627 66.49625187413767,68.67744445570861 65.94977511250181,69.07852074402035 65.26161919045262,69.81896652579599 64.75562218890991,70.18918807861337 62.99475262372289,71.02218331095355 62.164917541260365,71.60836243411177 61.314842578722164,72.41049866295361 60.4445277362247,73.55199299976812 60.100449775171,74.26156628649915 59.93853073468199,74.44667182238481 59.71589205402415,74.50837361814047 58.90629685163731,74.13816247199429 58.31934032985009,73.8296525022597 57.914542728627566,73.4594397208275 57.894302848610096,73.30518413201207 57.93478260876145,73.08922604749387 58.461019490263425,72.13283659606532 58.8253373313928,71.11473805799324 59.2503748126328,70.12748454841494 59.857571214437485,68.92426075704861 60.84932533738902,66.67204730998492 61.112443778140005,66.27096474004793 61.254122938611545,66.24011219124077 62.508995502314065,66.33266981887573 62.99475262372289,66.33266981887573 64.20914542733226,66.20925963624904 65.05922038987046,65.90073374609347 65.58545727137243,65.65391258789168 65.90929535235045,65.46879645902663 66.11169415293261,65.43794374923164 66.23313343332848,65.49964916260797 67.10344827594236,66.48693240781722 67.20464767620433,66.67204730998492 67.1439280359773,66.82630955813511 66.23313343332848,67.47420930916269 65.3628185907146,67.96784538094653" stroke="#4dd2ff" stroke-linecap="round" stroke-linejoin="round" stroke-width="0.5"><title>2023-01-06 11.3km</title><desc>8347733319</desc></polyline><polyline fill="none" points="153.273976023891,68.15635469267727 153.77972027967917,68.15635469267727 156.1870629370096,67.41627029365918 157.21878121880582,66.98455274714797 157.44130869128276,66.95371573304874 158.4123376623029,67.69380236118741 158.6955544454977,67.84798662654066 158.9990009989706,67.8788234609965 159.22152847150574,68.00217073700333 160.75899100897368,68.2180282316258 161.163586413546,68.4338854229427 161.446803196799,68.6497423107503 161.70979020977393,68.77308896754403 162.37737262737937,68.77308896754403 163.42932067927904,68.55723225307884 163.53046953043668,68.6497423107503 163.6316183815943,68.98894537857268 163.73276723275194,69.20480148625211 163.9552947052871,69.42065729050955 164.0969030968845,69.45149380926159 164.9465534465853,69.08145517621597 166.14010989008239,68.2180282316258 167.03021978016477,67.69380236118741 167.19205794204026,67.63212861177453 167.37412587407744,67.66296548958053 167.65734265733045,68.03300754056545 168.12262737256242,68.52639555484348 168.68906093906844,69.32814769729157 168.8913586413255,69.75985865569965 168.99250749248313,70.16073203046108 169.09365634364076,70.43825913849287 169.13411588408053,70.83913074244629 169.05319680314278,71.64087081124308 168.99250749248313,72.38093485218997 168.72952047945,73.42935280552774 168.70929070923012,73.7685453169106 168.72952047945,74.07690149532573 168.85089910082752,74.60110557793814 169.09365634364076,75.3411553541664 169.6196303695324,76.29704770405078 170.57042957033264,77.93130148903583 170.87387612386374,78.33215353508422 171.48076923075132,79.31886180672154 172.16858141851844,80.24389505403815 172.6743256742484,80.79891232807131 173.847652347642,81.6931026065431 174.67707292700652,82.37145037946175 174.94005994003965,82.64895542291924 176.1538461538148,84.22147453213984 177.40809190802975,86.07147640055337 177.6306193806231,86.31814163271338 178.2172827172326,86.7498048357229 178.72302697302075,87.27396566553216 179.20854145853082,88.22978374995 180.1188811188331,89.4014236099174 180.74600399599876,90.14140207447053 181.2719780218904,90.88137697376078 181.75749250740046,91.49801999992633 182.08116883109324,92.1146605504182 182.32392607390648,92.66963492905779 182.76898101891857,94.02623052401759 183.0117382616736,94.88951239142625 183.3151848150883,95.59863315275288 184.06368631363148,98.12677618088492 184.1648351647891,98.55840619766968 184.2052947052871,98.92837381812569 184.26598401588853,99.11335729419079 184.4682817182038,99.45249308826169 184.6301198800793,99.57581500957895 185.5,99.3908320904593 185.39885114878416,99.23667948773073 185.4797702297219,98.71255948119506 185.45954045950202,98.52757552241383 185.17632367630722,97.78763745959441 184.4480519479839,95.53697060773266 183.96253746247385,94.4270405658608 183.86138861131622,94.11872524184582 183.65909090911737,93.77957767076441 182.74875124869868,91.80634058461874 182.52622377622174,90.91220918386534 182.38461538462434,90.41889307943347 182.20254745252896,89.37059109658003 182.16208791203098,88.78477216616739 181.73726273718057,87.39729736545996 181.7170329670189,87.05813495226903 181.79795204789843,86.81147090853483 182.1418581418111,86.62647261585516 183.55794205790153,86.16397590900306 183.7602397602168,85.91731042932952 183.78046953037847,85.57814474790939 183.477022977022,84.40647572172747 183.2949550449266,83.29646524133568 182.66783216781914,80.30556373910804 182.445304695284,79.50386890194204 182.24300699296873,78.94884694770735 181.95979020971572,77.96213629889826 181.49450549448375,75.68034364322375 180.8269230768783,73.7685453169106 180.64485514478292,73.09015954507049 180.15934065933106,71.91839524460374 179.35014985012822,70.25324112219096 179.02647352643544,69.69818573600787 178.3791208791081,68.98894537857268 176.4775224775076,66.46032266615657 175.66833166830475,65.53520639328053 175.4255744255497,65.04180876893224 175.12212787213502,64.85678425112565 174.6973026972264,64.3633844472497 173.94880119874142,63.654119451879524 173.66558441554662,63.28406684960646 173.28121878113598,63.099040214015986 170.99525474524125,61.15624708143878 170.55019980017096,60.84786495879234 170.16583416581852,60.72451193633606 169.53871128865285,60.231098855801974 168.91158841154538,59.83019956057251 168.50699300697306,59.4909762624884 167.92032967024716,59.33678360658814 167.69780219777022,59.028397830275935 166.64585414587054,58.44246314909833 165.99850149848498,58.19575314089889 164.11713286704617,57.208909144290374 163.40909090905916,56.96219715422194 162.07392607390648,56.65380660936353 161.50749250745866,56.59212842605484 160.8601398600731,56.3762545894424 160.39485514478292,56.345415445175604 159.2417582416674,56.09870206787309 158.18981018976774,56.00618444914289 157.17832167830784,55.82114904465561 155.9443056943128,55.6977919843921 155.09465534461197,55.75947052688571 153.21328671323135,55.60527412414376 151.73651348648127,55.82114904465561 149.91583416581852,55.88282753752719 148.6413586413255,56.1295412616746 148.0749250749359,56.16038044934976 147.8928571428405,56.03702366159996 147.85239760234253,55.97534523055947 147.83216783212265,55.6977919843921 147.71078921074513,55.26604149317427 147.56918081914773,54.86512923595728 147.447802197712,54.77261087411898 146.69930069922702,54.43337640364189 146.05194805195788,54.063301581321866 144.67632367630722,52.953071763098706 144.2717282717349,52.79887254242203 143.64460539456923,52.45963371185644 142.3499000998563,51.596113306921325 141.90484515484422,51.380232446972514 140.10439560434315,50.82510884196381 138.5871628371533,50.54754628695082 137.2924575424404,50.424184990421054 136.6653346652747,50.424184990421054 135.14810189808486,50.57838659566187 133.73201798199443,50.64006719442841 131.78996003995417,50.85594909492647 130.7380119879963,50.91762958212348 130.02997003000928,51.07183069194434 129.4230769230635,51.040990482404595 128.8364135863958,50.948469816416036 128.4115884116036,51.040990482404595 127.13711288711056,51.22603164683096 126.53021978022298,51.5035929754813 126.26723276718985,51.56527320262103 125.51873126870487,51.56527320262103 125.25574425572995,51.34939229929296 125.05344655341469,51.31855214541429 124.42632367630722,51.287711985452916 123.33391608390957,51.41107258838019 122.76748251740355,51.65779349691002 122.4235764235491,51.99703409883659 121.59415584412636,52.64467316692753 120.84565434564138,53.32314926107938 120.05669330665842,53.90910347548197 119.10589410585817,54.77261087411898 118.31693306693342,55.327720209170366 117.50774225773057,55.790309788819286 117.14360639353981,56.1295412616746 116.84015984012512,56.345415445175604 115.80844155844534,56.8080019592162 114.77672327676555,57.208909144290374 114.25074925075751,57.33226499060402 113.9675324675627,57.51729857441387 113.76523476524744,57.6098152827326 111.53996003995417,57.64065417308302 110.28571428568102,57.51729857441387 109.33491508488078,57.33226499060402 108.12112887110561,57.23974811514199 107.271478521463,57.424781810404966 106.09815184818581,57.39394287673349 105.73401598399505,57.301426038335194 105.26873126870487,56.99303617469559 104.7832167831948,56.77716290166427 104.72252747247694,56.838841010583565 104.60114885115763,57.14723118394613 104.5,57.54813748339075 104.5,57.70233193525928 104.84390609391266,57.67149305721978 105.55194805195788,57.85652623229544 108.50549450545805,57.887365073067485 109.65859140857356,58.10323678555142 110.83191808185074,58.19575314089889 111.78271728265099,58.19575314089889 113.805694305629,58.13407557681785 115.20154845155776,57.887365073067485 116.23326673323754,57.363103936833795 119.02497502492042,55.636113417102024 120.11738261731807,54.741771407730994 120.98726273723878,53.87826383575157 121.75599400600186,53.353989012306556 122.24150849151192,52.79887254242203 123.27322677319171,51.811993863389944 123.59690309688449,51.596113306921325 124.18356643349398,51.380232446972514 125.05344655341469,51.31855214541429 125.3164335663896,51.472752852670965 126.59090909088263,51.65779349691002 127.84515484509757,51.596113306921325 129.9895104895113,51.441912723574205 131.68881118879654,51.010150266607525 132.29570429568412,50.948469816416036 132.63961038959678,50.948469816416036 133.22627372626448,51.10267089527042 134.13661338656675,51.22603164683096 135.73476523475256,51.133511092484696 137.09015984018333,51.10267089527042 138.1623376623611,51.287711985452916 139.19405594404088,51.380232446972514 139.67957042955095,51.534433092107065 140.24600399594055,51.6269534049643 141.3384115883382,52.05871412772103 142.43081918073585,52.953071763098706 142.5319680319517,53.168950411942205 142.55219780217158,53.569867097525275 142.0869130868814,54.27917866941425 141.86438561434625,54.71093193524575 141.6418581418693,55.23520212594303 141.5002497502719,55.6977919843921 141.37887112883618,56.345415445175604 141.17657342657913,57.05471419690002 140.913586413546,58.44246314909833 140.7719780219486,59.614330275770044 140.83266733266646,59.92271487535618 140.89335664332611,60.015230134522426 141.03496503492352,60.1385837267153 141.9655344655621,60.29277557764726 142.5117382617318,60.47780559436069 143.28046953043668,60.66283538805146 144.08966033963952,60.97121788216464 144.87862137862248,61.12540889698721 145.18206793203717,61.12540889698721 145.283216783253,60.90954143287672 145.48551448551007,60.07690694311168 146.05194805195788,58.010720374571974 146.13286713283742,57.85652623229544 146.27447552443482,57.794848532110336 146.5981518481276,57.887365073067485 148.84365634364076,58.90504334625439 149.3696303695906,58.99755921855103 150.0776723276358,59.244267938731355 150.44180819182657,59.30594505678164 152.38386613380862,59.30594505678164 152.88961038959678,59.27510650086333 154.85189810191514,58.96672060062701 155.25649350648746,58.96672060062701 157.03671328671044,58.47330187224725 157.70429570425767,58.56581800452841 158.2504995004856,58.47330187224725 158.65509490505792,58.53497930000594 159.4238261737628,58.90504334625439 159.7272727272939,59.12091362809588 160.17232767230598,59.5526532815129 160.90059940057108,60.47780559436069 161.6288711288944,61.18708525961847 161.99300699296873,61.37211419871892 162.27622377616353,61.34127605771937 163.36863136856118,60.786188460027915 164.5217282716767,60.32361392911116 164.70379620377207,60.29277557764726 164.84540459536947,60.38529061381996 165.0881618381827,60.693673665300594 165.73551448545186,61.34127605771937 166.9695304694469,62.26641759533959 167.83941058936762,63.00652681259089 168.64860139857046,63.5616063849302 169.7612387612462,64.54840955947293 170.10514485515887,64.98013395442104 170.4692807192332,65.65855555157759 171.25824175821617,66.89204168635479 172.2495004994562,68.03300754056545 172.41133866133168,68.37221197059262 172.45179820177145,68.58806894510053 172.2292707292363,68.8347622588044 170.6108891108306,70.0990592717717 169.84215784212574,70.46909545290691 169.23526473523816,70.59244064844097 169.15434565435862,70.56160435877973 169.05319680314278,70.46909545290691 168.62837162835058,69.60567630987498 168.04170829168288,68.77308896754403 167.21228771226015,67.84798662654066 167.1111388610443,67.8788234609965 166.74700299696997,68.15635469267727 166.46378621377517,68.24886499186687 166.22102897096192,68.52639555484348 165.41183816175908,69.01978198401048 164.2385114884819,69.63651279140322 164.0969030968845,69.63651279140322 163.97552447544876,69.54400332819205 163.71253746247385,69.20480148625211 163.61138861137442,68.98894537857268 163.53046953043668,68.9272721492307 162.9235764235491,68.98894537857268 162.35714285710128,68.98894537857268 161.93231768225087,68.89643552529742 161.4670329669607,68.74225231262972 161.04220779216848,68.4338854229427 160.5971528470982,68.24886499186687" stroke="#4dd2ff" stroke-linecap="round" stroke-linejoin="round" stroke-width="0.5"><title>2022-11-13 10.0km</title><desc>8224532766</desc></polyline><polyline fill="none" points="61.829253060161136,218.23178191012994 62.47676742437761,218.29347079398576 62.94216837367276,218.29347079398576 63.690856857341714,218.2009374589834 64.13602298271144,218.07755959218775 64.76330252311891,217.73826994773117 66.54396702471422,217.2139117502811 67.1914813889889,216.90546491571877 67.39382962777745,216.87462019815575 68.50674494128907,217.73826994773117 68.87097177113174,217.83080356144637 69.17449412937276,217.95418162639544 69.51848613540642,217.95418162639544 70.75281039217953,218.23178191012994 71.70384711463703,218.7561366331065 72.02760429674527,218.7869809728727 73.16075443418231,218.72529228712665 73.52498126402497,218.7561366331065 73.68685985507909,218.87951395486016 73.76779915066436,219.00289117751527 73.92967774166027,219.46555487987644 74.03085186105454,219.5272432682541 74.90094928798499,219.06457975161902 75.48775918059982,218.6636035767733 76.58043967024423,217.83080356144637 77.06607544340659,217.58404713423806 77.26842368219513,217.5532025529974 77.36959780164761,217.61489170927962 78.11828628531657,218.4785372968763 78.62415688228793,219.24964532550075 78.92767924058717,219.8356848385156 79.06932300777407,220.23665795399575 79.10979265545029,220.66847398462414 79.02885335992323,221.37788340001134 79.00861853611423,221.9330710919312 78.66462653008057,223.4135617944412 78.64439170615515,223.81452557080775 78.66462653008057,224.18464505088923 78.74556582560763,224.6164499839797 78.98838371224701,225.2024690231192 79.87871596304467,226.92967002898513 80.64763927052263,228.10168822316336 81.19397951534484,229.08864397769503 81.5582063451875,229.55127730491222 83.0353484886,231.12422019605583 84.63389957533218,232.51209760787606 85.46352735446999,233.43734224997752 86.33362478140043,234.64015195360116 87.22395703219809,235.9663158395706 87.60841868602438,236.3672468537261 88.11428928299574,236.73733609190094 88.4785161128384,237.10742443853815 88.70109917561058,237.4158307130856 89.12603047711309,238.34104582179862 89.65213589806808,238.89617221250955 90.29965026228456,239.63633761313395 91.77679240569705,241.51757528960297 92.06007994001266,242.0418505376001 92.28266300278483,242.5661239963665 93.25393454910954,245.650049303993 93.45628278789809,246.17431044996192 93.84074444160797,247.4386976181122 94.18473644769983,248.82642765402852 94.32638021482853,249.31983975725598 94.34661503869575,249.53570705410675 94.38708468648838,249.65905965901038 94.44778915809002,249.72073592430388 94.65013739687856,249.72073592430388 94.9536597551778,249.59738336893497 95.39882588054752,249.50486888745218 95.5,249.41235435017734 95.45953035220737,249.31983975725598 95.3583562328131,249.25816333109105 95.33812140894588,249.1348104042554 95.33812140894588,248.88810425366682 95.41906070447294,248.48720591395977 95.39882588054752,248.3638523681875 95.17624281783355,247.7162446281145 94.89295528351795,246.97611815399432 94.77154634019826,246.3901821665204 94.18473644769983,244.9407519649394 93.597926555085,243.6763442385709 93.05158631026279,242.65864265637356 92.6468898326275,241.64093433244852 92.40407194598811,240.93161848343152 92.01961029227823,239.05037363176234 91.79702722950606,238.27936498790223 91.65538346237736,237.32330889567675 91.67561828630278,236.89153967800667 91.73632275790442,236.79901754493767 91.99937546835281,236.64481386590342 93.4765176117653,236.2130427413067 93.61816137895221,236.12052019960538 93.75980514608091,235.9663158395706 93.80027479387354,235.81211132470344 93.80027479387354,235.68874760146718 93.57769173121778,234.57846963386692 93.1932300774497,232.91303763697215 92.95041219081031,231.43263848227798 92.60642018483486,229.8905408593855 92.40407194598811,229.27369747577177 92.10054958780529,228.53348214596917 91.8577317011659,227.76242071815068 91.59467899071751,226.74461370722565 91.4530352235306,225.66511405387428 91.21021733700763,224.8323519952537 90.78528603544692,223.66030885757937 90.56270297273295,222.85837945305684 90.0973020234378,221.7480087509466 89.6723707219353,220.85353762624436 89.18673494877294,219.92821718883351 88.78203847113764,219.55808745311515 87.85123657254735,218.4785372968763 87.14301773667103,217.58404713423806 86.49550337245455,216.68955176290183 85.68611041712575,215.91843088288442 85.44329253060278,215.64082641841378 85.16000499628717,215.42491148812405 84.91718710964778,214.90054539384437 84.3910816886928,214.2527965708723 83.48051461402792,213.5433542496321 83.21746190357953,213.2040545900236 82.24619035725482,212.4946074251202 80.97139645268908,211.26077846443513 80.3238820884144,210.79809004922572 79.41331501374952,210.05778568568348 78.50274793896824,209.41001644093194 77.95640769420424,209.31747775433178 77.83499875094276,209.2249390120851 77.59218086436158,208.91647613517125 77.26842368219513,208.700551752685 74.90094928798499,207.55923211768095 74.23320009984309,207.15822590833704 73.44404196849791,206.88060561167367 71.90619535348378,206.5104444356548 69.86247814138187,206.1711292406253 69.09355483390391,205.9243540825264 68.70909318007762,205.8626602311415 66.26067949039862,205.615884577448 64.94541593798203,205.615884577448 63.34686485136626,205.4924966019462 61.72807894076686,205.73927245386585 60.61516362731345,205.77011940741795 58.085810641990975,206.07858860284614 57.94416687480407,206.01689481333597 57.80252310761716,205.83181329614308 57.822757931484375,205.43080257707334 57.80252310761716,205.30741445280728 57.62040969263762,204.813860965005 57.51923557330156,204.69047234523168 56.26467649254482,204.1352223296126 55.90044966270216,203.85759656925802 55.637396952253766,203.54912291353685 54.62565575813642,202.80878361230134 53.47227079683216,202.31522209574177 52.824756432673894,201.7908112465957 52.420059955038596,201.51318124878162 51.630901823577005,201.1738550143491 50.1335248562973,200.74198417717707 47.92792905319948,200.27926407569612 46.65313514863374,200.27926407569612 45.13552335742861,200.4335042644234 41.43255058705108,200.71113621380937 39.99587809143122,200.8962239013199 39.26742443162948,200.8653759687586 38.296152885246556,200.95791974758322 37.02135898073902,201.11215925480064 36.535723207576666,201.32809430472844 36.090557082148734,201.4823334402463 35.5037471895339,201.45148562548275 35.179990007483866,201.23555074899923 35.01811141637154,201.20470288477372 34.20871846110094,201.14300713763805 33.824256807391066,201.1738550143491 33.07556832378032,201.4206378046074 32.873220084933564,201.54402905107418 31.39607794152107,202.71624094875006 30.04034474142827,203.79590188768634 29.635648263792973,204.19691687492013 28.806020484655164,204.84470810442872 26.701598800893407,206.2945166710415 26.215963027672842,206.57213802695333 25.305395953007974,206.9731457662856 24.23295028723078,207.1890725770063 23.868723457388114,207.49753892282024 23.727079690201208,207.52838552338653 22.634399200615007,207.62092528773064 21.52148388704518,207.62092528773064 20.24668998242123,207.4049990841595 20.064576567558106,207.31245918972127 19.90269797644578,207.28161254587758 18.688608543539885,207.31245918972127 15.83549837616738,207.12737923351233 15.57244566566078,207.06568586523645 15.228453659685329,206.81891214429925 14.763052710390184,206.6646783673932 14.702348238788545,206.7263718967588 14.560704471659847,207.1890725770063 14.5,207.52838552338653 14.540469647676218,207.62092528773064 14.864226829842664,207.62092528773064 15.552210841793567,207.77515810445766 16.92817886575358,207.71346499639913 18.32438171369722,207.71346499639913 19.538471146603115,208.05277678431594 20.024106919765472,208.02193028913462 21.015613290015608,208.11446975622675 23.949662752915174,208.08362327335635 25.10304771416122,207.89854424643272 26.215963027672842,207.3433058273513 27.32887834124267,206.6955251352192 28.886959780124016,205.615884577448 30.44504121906357,204.35115312971175 31.193729702732526,203.61081769425073 31.497252060915343,203.39488585338404 32.1245316012064,202.71624094875006 33.05533349979669,201.85250673355768 33.84449163125828,201.4206378046074 34.127779165573884,201.32809430472844 34.6943542342633,201.26639860714204 35.05858106416417,201.35894214418659 35.28116412687814,201.4823334402463 36.616662503103726,201.51318124878162 39.51024231821066,201.38978997754748 40.25893080182141,201.32809430472844 41.14926305273548,201.11215925480064 41.89795153634623,201.01961556899187 42.56570072437171,201.01961556899187 43.25368473643903,201.1738550143491 43.820259805128444,201.20470288477372 44.79153135145316,201.08131136572047 47.057831626269035,201.05046347047028 49.40507119655376,201.45148562548275 50.17399450414814,201.51318124878162 50.82150886830641,201.72911573495367 51.40831876092125,202.00674534252903 52.25818136392627,202.77793606401247 52.44029477890581,203.05556377588073 52.52123407437466,203.3331909859553 52.50099925050745,203.57997030702245 52.055833125079516,204.19691687492013 51.65113664744422,204.96809660023428 51.50949288025731,205.36910852730216 51.0845615787548,207.2199192394619 50.781039220571984,208.76224446445121 50.74056957277935,209.5642474613269 50.76080439664656,209.68763216605294 50.84174369217362,209.90355516089767 51.104796402622014,210.1194778522622 51.95465900574345,210.30455420329235 53.856732450658455,210.8597819183051 54.74706470145611,211.04485737736104 55.17199600295862,211.04485737736104 55.23270047461847,210.9523196757509 55.354109417879954,210.4896303312562 55.47551836119965,210.18116999411723 55.61716212838655,209.44086265732767 56.02185860602185,207.89854424643272 56.0825630776817,207.77515810445766 56.26467649254482,207.68261843301298 56.487259555316996,207.7443115535134 56.93242568068672,208.02193028913462 57.7215838120901,208.3920878227509 58.87496877339436,208.85478348546894 60.12952785403468,209.1940927523101 60.43305021233391,209.25578526574827 62.03160129894968,209.31747775433178 63.1242817886523,209.2249390120851 63.99437921552453,209.13240021404636 66.90819385455688,208.57716625509784 68.20322258298984,208.45378065831028 68.62815388460876,208.51547346908774 69.01261553826043,208.700551752685 69.61966025474248,209.10155393560126 70.14576567569748,209.62593982602993 70.75281039217953,210.45878432545578 71.46102922811406,211.13739502332464 71.78478641016409,211.32247014791938 72.22995253559202,211.32247014791938 72.71558830875438,211.13739502332464 73.42380714457249,210.73639815511706 74.69860104919644,210.2737081602245 74.84024481632514,210.30455420329235 75.40681988507276,211.01401148304285 75.93292530596955,211.3841618064762 77.41006744938204,212.71052647431497 79.43354983761674,214.3144870526594 80.0608293779078,214.90054539384437 80.8702223332366,216.3194142236025 81.94266799895559,217.86164808693866 82.18548588559497,218.17009300162317 82.32712965278188,218.44769289523538 82.3675993004581,218.6636035767733 82.3675993004581,218.7869809728727 82.30689482879825,218.87951395486016 82.14501623780234,219.00289117751527 80.82975268550217,219.95906129317882 79.77754184359219,220.39087810428464 79.29190607042983,220.51425411301898 79.08955783158308,220.42172211580328 78.68486135394778,219.5272432682541 78.17899075691821,218.7561366331065 77.28865850606235,217.6765808408236 77.20771921053529,217.64573627819482 77.06607544340659,217.6765808408236 75.44728953280719,218.7869809728727 74.41531351482263,219.43471067641804 74.09155633271439,219.5272432682541 73.99038221332012,219.46555487987644 73.66662503121188,218.97204688118654 73.5654509118176,218.97204688118654 73.12028478638967,218.72529228712665 71.90619535348378,218.84866963367676 71.46102922811406,218.7561366331065 71.07656757428776,218.41684848735167 70.55046215333277,218.17009300162317 69.61966025474248,218.07755959218775 68.30439670244232,218.13924853797653 67.43429927551188,218.35515965314698 66.40232325752731,218.7869809728727 66.05833125155186,219.00289117751527 65.24893829628127,219.77399657403294 64.92518111411482,220.05159356919467 63.30639520357363,220.8843815447908 62.598176367697306,221.31619575474178 62.35535848111613,221.37788340001134 62.03160129894968,221.31619575474178 61.62690482137259,221.03860104490013 59.90694479137892,220.17496985044272 59.64389208087232,219.95906129317882 59.6034224331961,219.80484070940292 59.64389208087232,219.55808745311515 60.068823382491246,218.38600407332706 60.27117162127979,218.07755959218775 60.4128153884667,217.98502612712036" stroke="#4dd2ff" stroke-linecap="round" stroke-linejoin="round" stroke-width="0.5"><title>2022-11-12 10.5km</title><desc>8224532861</desc></polyline></svg>