<?xml version="1.0" encoding="utf-8" ?>
<svg baseProfile="full" height="200mm" version="1.1" viewBox="0,0,200,200" width="200mm" xmlns="http://www.w3.org/2000/svg" xmlns:ev="http://www.w3.org/2001/xml-events" xmlns:xlink="http://www.w3.org/1999/xlink"><defs /><rect fill="#1a1a1a" height="200" width="200" x="0" y="0" /><text alignment-baseline="middle" fill="#e1ed5e" style="dominant-baseline: central; font-size:9.0px; font-family:Arial;" text-anchor="middle" x="100.0" y="100.0">2024</text><line stroke="#e1ed5e" stroke-width="0.3" x1="100.0" x2="100.0" y1="15.0" y2="10.0" /><path d="M 100.0 14.0 a86.0,86.0 0 0,1 42.35913384403234,11.155469271406648" fill="none" id="id37" stroke="none" /><text fill="#e1ed5e" style="font-size:6.75px; font-family:Arial;" text-anchor="middle"><textPath startOffset="22.145653131862478" xlink:href="#id37">January</textPath></text><path d="M 100.0 79.0 l 0.0 -28.873450708701455 a49.873450708701455,49.873450708701455 0 0,0 0.8561441008707131,0.007348967420154491 l -0.4956511760218584 28.869196139475736" fill="#edff1a" stroke="none" /><path d="M 100.72087961077811 79.0123766808444 l 1.0497137174933897 -30.561269546688465 a51.57929193415115,51.57929193415115 0 0,0 0.8846443924347768,0.037990436601693996 l -1.5741838705290028 30.538746541660938" fill="#d4ff1c" stroke="none" /><path d="M 101.44090949804482 79.04949213459386 l 2.091988479904637 -30.41705336945318 a51.48890866331914,51.48890866331914 0 0,0 0.8812719142277613,0.06821601971434599 l -2.613829388907632 30.37665958274378" fill="#d5ff1c" stroke="none" /><path d="M 101.80034050326958 79.07731436759882 l 5.401021509808744 -62.76805689720356 a84.0,84.0 0 0,0 1.4356017464599482,0.1359529779792652 l -6.477722819653705 62.666092163719114" fill="#4dd2ff" stroke="none" /><path d="M 102.51750503828377 79.15144685158666 l 3.7785549056413954 -31.29185506145662 a52.51916354160045,52.51916354160045 0 0,0 0.8941317019936531,0.11576324996338039 l -4.31516442952584 31.222380215292844" fill="#c7ff1e" stroke="none" /><path d="M 103.23170211078529 79.25015418208739 l 4.866612200609261 -31.247141399946756 a52.62384796288057,52.62384796288057 0 0,0 0.8914041236338792,0.14668020932490336 l -5.40229382729621 31.158995192126184" fill="#c5ff1e" stroke="none" /><path d="M 103.94208987418118 79.37332000966035 l 5.936275989538173 -31.061104408730515 a52.62327591686265,52.62327591686265 0 0,0 0.8858339514040525,0.17719159950753297 l -6.468606426473182 30.95462341256012" fill="#c5ff1e" stroke="none" /><path d="M 104.64783097203109 79.52079915486377 l 7.024098968427938 -30.94947608813085 a52.736541028411615,52.736541028411615 0 0,0 0.8811217414212845,0.20794233180530602 l -7.5543528635891075 30.82433761267932" fill="#c4ff1e" stroke="none" /><path d="M 105.3480935250658 79.69241777938227 l 8.020901976996884 -30.45667126387348 a52.49513760884764,52.49513760884764 0 0,0 0.8694659628976147,0.23697681453114386 l -8.54254934082919 30.314493955198195" fill="#c7ff1e" stroke="none" /><path d="M 106.04205211174951 79.88797359093562 l 9.094925796819222 -30.274050013306578 a52.61069090446831,52.61069090446831 0 0,0 0.8627135344785234,0.267270858263738 l -9.613279964169376 30.11346256723619" fill="#c6ff1e" stroke="none" /><path d="M 109.06512990194946 81.05736502329252 l 13.121477356962751 -27.418841055396904 a51.39680925443335,51.39680925443335 0 0,0 0.7925871379847991,0.3876940862363441 l -13.590224744209618 27.189553219063338" fill="#d7ff1c" stroke="none" /><path d="M 109.3889696526874 81.21577127319529 l 12.03368019345855 -24.0754214297034 a47.915337189347234,47.915337189347234 0 0,0 0.7325862111387808,0.3740637392908773 l -12.445193626310909 23.865299738739687" fill="#fff517" stroke="none" /><line stroke="#e1ed5e" stroke-width="0.3" x1="143.13028292997686" x2="145.6673583964461" y1="26.7553504044142" y2="22.446841604673864" /><path d="M 143.63769802327073 25.89364864446614 a86.0,86.0 0 0,1 29.32050498858742,28.57503671076993" fill="none" id="id38" stroke="none" /><text fill="#e1ed5e" style="font-size:6.75px; font-family:Arial;" text-anchor="middle"><textPath startOffset="20.669276256404974" xlink:href="#id38">February</textPath></text><path d="M 110.65571695917076 81.90426304109057 l 16.324201162255967 -27.72206238476289 a53.171296002033934,53.171296002033934 0 0,0 0.7825478993151117,0.4698975291113263 l -16.797681818128513 27.43775085511564" fill="#beff1f" stroke="none" /><path d="M 111.8722381534696 82.67804972795209 l 17.884842079791586 -26.094519089396996 a52.63528888323905,52.63528888323905 0 0,0 0.7409166557796497,0.5172173682214839 l -18.330153826744997 25.783656905370385" fill="#c5ff1e" stroke="none" /><path d="M 112.7482090630111 83.31218511350987 l 19.188467551890252 -25.118319983507785 a52.60897476641455,52.60897476641455 0 0,0 0.7129519543551388,0.5543957519578996 l -19.616829450880616 24.785223179929098" fill="#c6ff1e" stroke="none" /><path d="M 115.8921839302757 86.27271002978787 l 9.057726644809147 -7.82384854528012 a32.96891883302612,32.96891883302612 0 0,0 0.3662775237637024,0.43147400200191094 l -9.19069873207996 7.667207760828657" fill="#ff0100" stroke="none" /><path d="M 116.7966241395341 87.39550010848427 l 25.215754500200607 -18.922372270877148 a52.526028093815555,52.526028093815555 0 0,0 0.5350100632643037,0.7258439024757664 l -25.536866583048738 18.486722059132507" fill="#c7ff1e" stroke="none" /><path d="M 117.01052211995028 87.68569379921539 l 25.5419636695181 -18.490411956660225 a52.53232060001271,52.53232060001271 0 0,0 0.5225337434536274,0.7350091488610089 l -25.85561251150169 18.04922558108971" fill="#c7ff1e" stroke="none" /><path d="M 117.21940702142032 87.97951657250589 l 10.243366823159063 -7.15066558252308 a33.49234093942668,33.49234093942668 0 0,0 0.32505156293025794,0.47425994459889853 l -10.364608122904647 6.973770902854132" fill="#ff0b01" stroke="none" /><path d="M 117.42321728460499 88.27688183743584 l 26.15262393059871 -17.59665253502936 a52.52145172567215,52.52145172567215 0 0,0 0.4968918519188574,0.752357595139331 l -26.450840221438295 17.14511506155097" fill="#c7ff1e" stroke="none" /><path d="M 117.62189284568427 88.57770195909679 l 9.984048523051287 -6.471539628789697 a32.89798512680353,32.89798512680353 0 0,0 0.3031037191995756,0.4765293907713367 l -10.093669933876754 6.299196563339688" fill="#ff0000" stroke="none" /><path d="M 117.81537515405839 88.88188828441811 l 26.837349921309606 -16.748491232715427 a52.634716837221134,52.634716837221134 0 0,0 0.47178761383731627,0.7706296109875936 l -27.120905499602323 16.28532450560328" fill="#c5ff1e" stroke="none" /><line stroke="#e1ed5e" stroke-width="0.3" x1="172.87174338648825" x2="177.1583165268699" y1="56.24261187166439" y2="53.66864786411523" /><path d="M 173.72905801456457 55.72781907015455 a86.0,86.0 0 0,1 12.242430191666344,42.057860355516425" fill="none" id="id39" stroke="none" /><text fill="#e1ed5e" style="font-size:6.75px; font-family:Arial;" text-anchor="middle"><textPath startOffset="22.145653131862474" xlink:href="#id39">March</textPath></text><path d="M 118.00360718960297 89.18935116829356 l 27.012031500562298 -16.21994879738382 a52.50772262124197,52.50772262124197 0 0,0 0.4573829946970982,0.7767363184692768 l -27.286488205389166 15.753861310620987" fill="#c7ff1e" stroke="none" /><path d="M 118.18653347947321 89.5 l 49.59562847418645 -28.634049450200223 a78.26809890040043,78.26809890040043 0 0,0 0.6618001403770594,1.1693374355815855 l -50.079861979584884 27.77845524451952" fill="#44ffea" stroke="none" /><path d="M 118.36410011445183 89.81374322990088 l 10.925314756961107 -6.060087927803199 a33.49348503146253,33.49348503146253 0 0,0 0.27457424789310625,0.5051856901812609 l -11.027734354469555 5.8716474041473345" fill="#ff0b01" stroke="none" /><path d="M 118.70294669586156 90.45014215332178 l 28.1423042445633 -14.369661069130716 a52.59867793809191,52.59867793809191 0 0,0 0.40370759404807377,0.8076856210922471 l -28.38483175182311 13.884443591874719" fill="#c6ff1e" stroke="none" /><path d="M 119.83427380445688 93.10060997987247 l 30.32979254579524 -10.55027625745373 a53.11237526218776,53.11237526218776 0 0,0 0.29215493512866525,0.8637041531779562 l -30.50643290249627 10.028070429801613" fill="#bfff1e" stroke="none" /><path d="M 119.94978838288452 93.4421083053983 l 30.602077982139264 -10.05951086723294 a53.2130553613424,53.2130553613424 0 0,0 0.2778108785191106,0.8702386201418828 l -30.770253576435632 9.53270321339967" fill="#bdff1f" stroke="none" /><path d="M 120.05942366710727 93.78553927170692 l 38.53112002667919 -11.937039478137478 a61.33782495391851,61.33782495391851 0 0,0 0.3029611870092269,1.0084592587677441 l -38.73035753369204 11.27384261577901" fill="#53ff2b" stroke="none" /><path d="M 120.16314734710363 94.1308016681162 l 30.765135312127814 -8.95528251347415 a53.04201360198309,53.04201360198309 0 0,0 0.24697752730487793,0.8764361152436537 l -30.914331331507274 8.425838474327485" fill="#c0ff1e" stroke="none" /><path d="M 120.26092885502905 94.47779374421319 l 30.305570732027647 -8.25991806590117 a52.411046844212805,52.411046844212805 0 0,0 0.22913740106356098,0.8700720341010998 l -30.442897613895937 7.738465527427271" fill="#c8ff1d" stroke="none" /><path d="M 120.35273937422433 94.82641323984039 l 30.74449907632462 -7.815131439773298 a52.72223987796351,52.72223987796351 0 0,0 0.21543932435854657,0.8790659622325594 l -30.874125927199454 7.286209652932643" fill="#c4ff1e" stroke="none" /><path d="M 120.43855184770803 95.1765574152323 l 30.556777281862708 -7.211316236728733 a52.396173647746764,52.396173647746764 0 0,0 0.19907835966802942,0.8771759851198347 l -30.676066503088403 6.685705917669871" fill="#c9ff1d" stroke="none" /><path d="M 120.51834098615036 95.52812308129327 l 31.92582389505885 -6.958084724460738 a53.67526854382508,53.67526854382508 0 0,0 0.18848272259707222,0.9019580591406617 l -32.04056432848029 6.409010214034672" fill="#b7ff1f" stroke="none" /><path d="M 120.592083275326 95.88100663000786 l 30.915891158336684 -6.184044081696796 a52.52831627788724,52.52831627788724 0 0,0 0.16927552012857908,0.885721050338984 l -31.01749297074742 5.6524204663244975" fill="#c7ff1e" stroke="none" /><path d="M 120.82617615685814 97.30363454192243 l 30.87760346856401 -3.9977239601632424 a52.13532066357338,52.13532066357338 0 0,0 0.10729427577443283,0.8885505200532552 l -30.94167983059811 3.4670797631865744" fill="#ccff1d" stroke="none" /><path d="M 120.9064616781168 98.02013634271609 l 20.230277710864605 -1.915828332559312 a41.32079069471811,41.32079069471811 0 0,0 0.060813140363744723,0.7067408725399211 l -20.260184473926092 1.568266412643729" fill="#ff8f0d" stroke="none" /><path d="M 120.93736805541906 98.37931529534042 l 40.01447745140276 -3.097373623980839 a61.13417657153753,61.13417657153753 0 0,0 0.07201035075310759,1.0470146958506437 l -40.061751763320935 2.410015503975861" fill="#56ff2b" stroke="none" /><path d="M 120.98066250479742 99.09900007780936 l 58.43898727262658 -2.5096215609729553 a79.49284942477595,79.49284942477595 0 0,0 0.04684518538781063,1.3638464599854512 l -58.473457145011245 1.5060688364233843" fill="#46fff9" stroke="none" /><path d="M 120.99303781780057 99.45929381324524 l 25.227443589877662 -0.6497694589721236 a46.23581008072205,46.23581008072205 0 0,0 0.01362540348931596,0.7936114445840378 l -25.23488042496564 0.2166110984190195" fill="#ffdc14" stroke="none" /><line stroke="#e1ed5e" stroke-width="0.3" x1="184.99686870605535" x2="189.99668451229388" y1="99.2704041080226" y2="99.22748670261217" /><path d="M 185.99683186730306 99.26182062694052 a86.0,86.0 0 0,1 -10.086455211305974,41.156179273409016" fill="none" id="id40" stroke="none" /><text fill="#e1ed5e" style="font-size:6.75px; font-family:Arial;" text-anchor="middle"><textPath startOffset="21.40746469413373" xlink:href="#id40">April</textPath></text><path d="M 120.86939407059847 102.33845913500097 l 37.90168178117525 4.2469624989235655 a59.13888006101824,59.13888006101824 0 0,0 -0.12170757224653254,1.0079132911193611 l -37.82319212266905 -4.896969466966335" fill="#6fff28" stroke="none" /><path d="M 119.83427380445688 106.89939002012753 l 18.987997527957603 6.605011201224777 a41.103985253924876,41.103985253924876 0 0,0 -0.23754155528250417,0.6644460070067414 l -18.871815802631158 -6.929992164612439" fill="#ff8b0c" stroke="none" /><path d="M 119.58574465831526 107.57618678355244 l 29.48345392236023 11.40483335389696 a52.61240704252208,52.61240704252208 0 0,0 -0.33306490978354725,0.8395411467569077 l -29.283330337610558 -11.909275517867432" fill="#c6ff1e" stroke="none" /><path d="M 119.31412917781788 108.2440532568976 l 28.428498497086498 12.134435545392446 a51.90993453251127,51.90993453251127 0 0,0 -0.35685884443867194,0.8165628729305323 l -28.21600577063086 -12.620660488098823" fill="#cfff1d" stroke="none" /><path d="M 119.0197475246899 108.90220220490707 l 28.71380703614348 13.439511538027121 a52.70336235937202,52.70336235937202 0 0,0 -0.39055887420824376,0.8161178351619234 l -28.47886890397532 -13.930441875254148" fill="#c4ff1e" stroke="none" /><line stroke="#e1ed5e" stroke-width="0.3" x1="174.33088141563837" x2="178.70328620479359" y1="141.23008692659167" y2="143.65538615756765" /><path d="M 175.20536237346943 141.71514677278685 a86.0,86.0 0 0,1 -30.301960400862466,31.631185727798858" fill="none" id="id41" stroke="none" /><text fill="#e1ed5e" style="font-size:6.75px; font-family:Arial;" text-anchor="middle"><textPath startOffset="22.145653131862474" xlink:href="#id41">May</textPath></text><path d="M 116.35404254752997 113.17365903436017 l 24.508121147809803 19.742007557807252 a52.4705396300769,52.4705396300769 0 0,0 -0.5710623204152249,0.6966031774721069 l -24.16561200815595 -20.159813016977854" fill="#c8ff1d" stroke="none" /><path d="M 116.1254893667686 113.45245675266167 l 24.233258502671095 20.216246128633337 a52.55863471683722,52.55863471683722 0 0,0 -0.583915010194373,0.6878504137755622 l -23.88264892896961 -20.629263324858456" fill="#c6ff1e" stroke="none" /><path d="M 115.6541949942343 113.99807769240083 l 23.64567923541836 21.144112178804836 a52.72052373990975,52.72052373990975 0 0,0 -0.609053346291541,0.6694563180168408 l -23.27922818828494 -21.54690607237935" fill="#c4ff1e" stroke="none" /><path d="M 114.65682725009322 115.03919595460226 l 22.01258992309084 22.58685646442076 a52.539185152227795,52.539185152227795 0 0,0 -0.6513045459686461,0.6239350219330849 l -21.62161289125688 -22.96140361665942" fill="#c7ff1e" stroke="none" /><path d="M 114.39649973595853 115.28858382429668 l 20.872578164549214 22.16595469389272 a51.44657725799275,51.44657725799275 0 0,0 -0.6481539385838473,0.5999216091767584 l -20.4889944546514 -22.520994049201857" fill="#d6ff1c" stroke="none" /><path d="M 111.27062007382361 117.71928675628689 l 16.90485555851329 26.577240759858782 a52.497997838937266,52.497997838937266 0 0,0 -0.7645605193270021,0.47714231071156726 l -16.446130910396572 -26.863518867411898" fill="#c7ff1e" stroke="none" /><line stroke="#e1ed5e" stroke-width="0.3" x1="143.1302829299769" x2="145.66735839644613" y1="173.24464959558577" y2="177.55315839532614" /><path d="M 143.63769802327073 174.10635135553383 a86.0,86.0 0 0,1 -40.68552437913181,11.842963189579606" fill="none" id="id42" stroke="none" /><text fill="#e1ed5e" style="font-size:6.75px; font-family:Arial;" text-anchor="middle"><textPath startOffset="21.407464694133747" xlink:href="#id42">June</textPath></text><path d="M 110.02825361518725 118.45085714620011 l 5.883316181010468 10.824639121347627 a33.32015508803153,33.32015508803153 0 0,0 -0.5048974289875333,0.2688294424750791 l -5.696629936236381 -10.924039031545275" fill="#ff0701" stroke="none" /><path d="M 109.71004243097381 118.62028667847754 l 14.727072553733999 28.241103459087974 a52.850378185978514,52.850378185978514 0 0,0 -0.8080389408409526,0.41259044069878903 l -14.240106391179465 -28.489751851459598" fill="#c2ff1e" stroke="none" /><path d="M 109.3889696526874 118.78422872680471 l 14.26798403758628 28.54552581876822 a52.912731201932246,52.912731201932246 0 0,0 -0.8159640801569934,0.3991289200862724 l -13.775859708167216 -28.786248488951717" fill="#c1ff1e" stroke="none" /><path d="M 109.06512990194946 118.94263497670748 l 5.420014425127041 11.32574556946961 a33.55583804741626,33.55583804741626 0 0,0 -0.5217314208562537,0.24419664872452482 l -5.224794290399281 -11.417118449764668" fill="#ff0c01" stroke="none" /><path d="M 108.73861861582097 119.09545874513695 l 13.44059228296572 29.370119778990503 a53.299434310048944,53.299434310048944 0 0,0 -0.8352442603244786,0.37359413376504935 l -12.934434619785616 -29.596517663665402" fill="#bcff1f" stroke="none" /><path d="M 108.4095320186766 119.2426549942271 l 5.433273476649759 12.432392999784216 a34.56778745312401,34.56778745312401 0 0,0 -0.5457840880199798,0.23296277284774466 l -5.219054313459348 -12.523830422291365" fill="#ff1d03" stroke="none" /><path d="M 108.07796709384702 119.3841803445677 l 15.466823030556704 37.11474477411406 a61.20854255386766,61.20854255386766 0 0,0 -0.9733485582332935,0.3958523850011409 l -14.827420011132968 -37.37478441569449" fill="#55ff2b" stroke="none" /><path d="M 103.58742460773223 120.69131181640829 l 3.0040865841487836 17.326773112426306 a38.58526663700502,38.58526663700502 0 0,0 -0.6536022568323052,0.10755000263692377 l -2.706206824263406 -17.375789113558902" fill="#ff6209" stroke="none" /><path d="M 102.875027216393 120.80226474461374 l 4.387842202091602 31.748240373186672 a53.05002224623403,53.05002224623403 0 0,0 -0.9031695001055434,0.1169333738719869 l -3.842194880095283 -31.81888534325905" fill="#bfff1e" stroke="none" /><path d="M 102.51750503828377 120.84855314841334 l 3.790830288644887 31.39351284210602 a52.62155977880887,52.62155977880887 0 0,0 -0.8977340795483145,0.10059297610748824 l -3.251360307495773 -31.453961578720477" fill="#c5ff1e" stroke="none" /><path d="M 102.15924093988457 120.88869738790638 l 3.2477135702935462 31.41868270434224 a52.586092925697585,52.586092925697585 0 0,0 -0.8987224624242393,0.08510995158979712 l -2.7078915444842915 -31.46980441143722" fill="#c6ff1e" stroke="none" /><path d="M 101.08105385017728 120.97215588758144 l 2.09423937699306 40.62768443311807 a61.68162461069091,61.68162461069091 0 0,0 -1.0579110585267024,0.045431252764259286 l -1.3965025578655277 -40.65764825430816" fill="#4fff2b" stroke="none" /><line stroke="#e1ed5e" stroke-width="0.3" x1="101.45913802915013" x2="101.54496967792366" y1="184.9874750549273" y2="189.98673829345242" /><path d="M 101.47630435890484 185.9873277026323 a86.0,86.0 0 0,1 -42.54439059252881,-10.42667462771756" fill="none" id="id43" stroke="none" /><text fill="#e1ed5e" style="font-size:6.75px; font-family:Arial;" text-anchor="middle"><textPath startOffset="22.145653131862474" xlink:href="#id43">July</textPath></text><path d="M 100.36049292484886 120.99690560180557 l 0.5033892813177577 29.319901979272597 a50.32422297082565,50.32422297082565 0 0,0 -0.8638822061666064,0.0074153897474887025 l -3.5911815798704925e-15 -29.32422297082565" fill="#e6ff1a" stroke="none" /><path d="M 99.63950707515114 120.99690560180557 l -0.23049341053978076 13.42508562399997 a34.427064132714676,34.427064132714676 0 0,0 -0.590812169003,-0.015217225718471512 l 0.4609188936135247 -13.419150680931452" fill="#ff1b02" stroke="none" /><path d="M 98.91894614982273 120.97215588758144 l -2.070032942886947 40.15808607826088 a61.21140278395728,61.21140278395728 0 0,0 -1.0489175717001298,-0.06310027642137299 l 2.7590948667195234 -40.11663382401481" fill="#55ff2b" stroke="none" /><path d="M 98.19965949673042 120.92268563240118 l -3.4392027352867793 39.96874898155008 a61.116443144981886,61.116443144981886 0 0,0 -1.044510387099471,-0.09891621963167543 l 4.124812685771265 -39.90382100641322" fill="#56ff2b" stroke="none" /><path d="M 96.76829788921471 120.74984581791261 l -4.867756623000045 31.25448941264889 a52.63128456111358,52.63128456111358 0 0,0 -0.8915300934097177,-0.14670093760357755 l 5.403564219462826 -31.166322476549645" fill="#c5ff1e" stroke="none" /><path d="M 96.05791012581884 120.62667999033965 l -11.822833345492347 61.86205991745481 a83.98169452742641,83.98169452742641 0 0,0 -1.4137059126909877,-0.28278077568140886 l 12.883035743714293 -61.64998974511054" fill="#4dd2ff" stroke="none" /><line stroke="#e1ed5e" stroke-width="0.3" x1="58.13341422392154" x2="55.67067388415222" y1="173.97424548756322" y2="178.32567169271397" /><path d="M 57.64086615596768 174.84453072859336 a86.0,86.0 0 0,1 -31.369924170532247,-30.572349798747897" fill="none" id="id44" stroke="none" /><text fill="#e1ed5e" style="font-size:6.75px; font-family:Arial;" text-anchor="middle"><textPath startOffset="22.145653131862474" xlink:href="#id44">August</textPath></text><line stroke="#e1ed5e" stroke-width="0.3" x1="26.387840678322732" x2="22.057713659400548" y1="142.50000000000003" y2="145.00000000000006" /><path d="M 25.521815274538298 143.00000000000003 a86.0,86.0 0 0,1 -11.493303480769221,-40.785679425670985" fill="none" id="id45" stroke="none" /><text fill="#e1ed5e" style="font-size:6.75px; font-family:Arial;" text-anchor="middle"><textPath startOffset="21.40746469413373" xlink:href="#id45">September</textPath></text><line stroke="#e1ed5e" stroke-width="0.3" x1="15.003131293944662" x2="10.003315487706104" y1="100.72959589197737" y2="100.7725132973878" /><path d="M 14.003168132696942 100.73817937305945 a86.0,86.0 0 0,1 10.791469493833604,-42.45332614584628" fill="none" id="id46" stroke="none" /><text fill="#e1ed5e" style="font-size:6.75px; font-family:Arial;" text-anchor="middle"><textPath startOffset="22.145653131862435" xlink:href="#id46">October</textPath></text><line stroke="#e1ed5e" stroke-width="0.3" x1="26.387840678322718" x2="22.05771365940052" y1="57.49999999999999" y2="54.99999999999999" /><path d="M 25.521815274538284 56.99999999999999 a86.0,86.0 0 0,1 29.574782752854787,-30.34633250058573" fill="none" id="id47" stroke="none" /><text fill="#e1ed5e" style="font-size:6.75px; font-family:Arial;" text-anchor="middle"><textPath startOffset="21.40746469413373" xlink:href="#id47">November</textPath></text><line stroke="#e1ed5e" stroke-width="0.3" x1="56.869717070023135" x2="54.33264160355391" y1="26.7553504044142" y2="22.446841604673864" /><path d="M 56.362301976729285 25.89364864446614 a86.0,86.0 0 0,1 42.16139366436587,-11.88097634709845" fill="none" id="id48" stroke="none" /><text fill="#e1ed5e" style="font-size:6.75px; font-family:Arial;" text-anchor="middle"><textPath startOffset="22.145653131862474" xlink:href="#id48">December</textPath></text></svg>