<?xml version="1.0" encoding="utf-8" ?>
<svg baseProfile="full" height="200mm" version="1.1" viewBox="0,0,200,200" width="200mm" xmlns="http://www.w3.org/2000/svg" xmlns:ev="http://www.w3.org/2001/xml-events" xmlns:xlink="http://www.w3.org/1999/xlink"><defs /><rect fill="#1a1a1a" height="200" width="200" x="0" y="0" /><text alignment-baseline="middle" fill="#e1ed5e" style="dominant-baseline: central; font-size:9.0px; font-family:Arial;" text-anchor="middle" x="100.0" y="100.0">2025</text><line stroke="#e1ed5e" stroke-width="0.3" x1="100.0" x2="100.0" y1="15.0" y2="10.0" /><path d="M 100.0 14.0 a86.0,86.0 0 0,1 42.46469731375804,11.215312516191453" fill="none" id="id49" stroke="none" /><text fill="#e1ed5e" style="font-size:6.75px; font-family:Arial;" text-anchor="middle"><textPath startOffset="22.20632615414155" xlink:href="#id49">January</textPath></text><path d="M 100.0 79.0 l 0.0 -31.66266977928693 a52.66266977928693,52.66266977928693 0 0,0 0.9065012910279778,0.00780254280454921 l -0.5450208117554495 31.65797861309094" fill="#fcff18" stroke="none" /><path d="M 100.72285384407766 79.0124445844662 l 1.6331327059825458 -47.41686503924427 a68.44498089983023,68.44498089983023 0 0,0 1.1771205870909898,0.05068928861906788 l -2.4490941254628673 47.38172802410101" fill="#33ff4f" stroke="none" /><path d="M 101.08401301168833 79.027996857942 l 1.8277190947815904 -35.360212640676 a56.40741723259763,56.40741723259763 0 0,0 0.9692350887837952,0.05846690742165457 l -2.4361162324049976 35.32351246387404" fill="#c0ff1e" stroke="none" /><path d="M 101.44485096284872 79.0497635885617 l 2.377012874364019 -34.46651796720495 a55.5483870967742,55.5483870967742 0 0,0 0.9533420797512266,0.07399769356599707 l -2.9699451434775868 34.42049501145049" fill="#ceff1d" stroke="none" /><path d="M 101.80526077348638 79.07773832637324 l 2.4137508888280013 -27.97442256138944 a49.07836375212224,49.07836375212224 0 0,0 0.8410509484720837,0.07986792177689489 l -2.894926964390329 27.928729095097363" fill="#ffc512" stroke="none" /><path d="M 103.59715602781102 79.31037775812273 l 5.882976154354573 -33.83688484750992 a55.34449278438031,55.34449278438031 0 0,0 0.9371796025814731,0.171263582070499 l -6.4645508780389465 33.73060578408868" fill="#d1ff1c" stroke="none" /><path d="M 103.95276090670814 79.375362276772 l 8.533626594591494 -44.526588157675675 a66.33695882852292,66.33695882852292 0 0,0 1.1196212620297552,0.2245854923131947 l -9.298814266088375 44.37309870928527" fill="#31ff2f" stroke="none" /><path d="M 104.307194497241 79.44645832069477 l 6.584193965116075 -31.4191767224184 a53.10165534804754,53.10165534804754 0 0,0 0.8930112355073673,0.19517766769688083 l -7.12404792477697 31.301185556625647" fill="#f5ff19" stroke="none" /><path d="M 105.01212808612495 79.60689891045804 l 6.713773227419177 -27.31667143504169 a49.129615874363324,49.129615874363324 0 0,0 0.8195079877670745,0.20891083318833678 l -7.182990103871276 27.197057605684485" fill="#ffc612" stroke="none" /><path d="M 105.36241919743992 79.69619591428918 l 14.765145855769303 -55.90548178247743 a78.82242147707979,78.82242147707979 0 0,0 1.3088354640740967,0.35775417387753905 l -15.72527920906711 55.643041067773595" fill="#44ffe9" stroke="none" /><path d="M 105.71112130821622 79.79150937346287 l 15.6110446625265 -55.238828367953765 a78.40237691001698,78.40237691001698 0 0,0 1.2955424638814665,0.3782043713204941 l -16.559577344131394 54.96192566771457" fill="#44ffe3" stroke="none" /><path d="M 106.40334571778207 80.00007090966166 l 5.3443883428708485 -16.692428083622268 a38.527111629881155,38.527111629881155 0 0,0 0.6298580586629587,0.20765429906832933 l -5.630929223776224 16.597960060294703" fill="#ff0000" stroke="none" /><path d="M 107.08798089147638 80.2323363322302 l 15.064591815134357 -42.01362684991459 a65.63279923599322,65.63279923599322 0 0,0 1.0601812147556686,0.3904736886318353 l -15.7855553556626 41.748089893476426" fill="#3bff2e" stroke="none" /><path d="M 107.4271985657038 80.35727306442388 l 11.886748977846734 -31.436908850363622 a54.609136247877764,54.609136247877764 0 0,0 0.8763903933505582,0.3400258570783441 l -12.42612253619696 31.22764028939473" fill="#ddff1b" stroke="none" /><path d="M 107.76421540070413 80.48803036053334 l 20.167269385201212 -50.68163718375262 a75.5467423599321,75.5467423599321 0 0,0 1.204129203234263,0.49119453588297995 l -21.03668245802386 50.32698176168606" fill="#3fffbb" stroke="none" /><path d="M 108.09893153111575 80.62456947434976 l 21.522669913546565 -51.48963095122927 a76.80687606112055,76.80687606112055 0 0,0 1.2154367823093606,0.5203865991276025 l -22.40579045364624 51.111524824138876" fill="#41ffcd" stroke="none" /><path d="M 108.43124777332544 80.76684994638697 l 25.2937433199763 -57.69945016083909 a84.0,84.0 0 0,0 1.3192715261328791,0.591918677933875 l -26.283196964575957 57.255511152388685" fill="#4dd2ff" stroke="none" /><line stroke="#e1ed5e" stroke-width="0.3" x1="143.23703022742887" x2="145.7803849466894" y1="26.81831364943548" y2="22.513508569990506" /><path d="M 143.74570117128098 25.957352633546492 a86.0,86.0 0 0,1 28.547481713284135,27.462654790039103" fill="none" id="id50" stroke="none" /><text fill="#e1ed5e" style="font-size:6.75px; font-family:Arial;" text-anchor="middle"><textPath startOffset="19.985693538727396" xlink:href="#id50">February</textPath></text><line stroke="#e1ed5e" stroke-width="0.3" x1="172.23445277983987" x2="176.4835382374775" y1="55.19839476539836" y2="52.563006222186495" /><path d="M 173.08426987136738 54.67131705675599 a86.0,86.0 0 0,1 12.851231095245387,41.99856678651699" fill="none" id="id51" stroke="none" /><text fill="#e1ed5e" style="font-size:6.75px; font-family:Arial;" text-anchor="middle"><textPath startOffset="22.20632615414155" xlink:href="#id51">March</textPath></text><line stroke="#e1ed5e" stroke-width="0.3" x1="184.98032266829074" x2="189.97916517819016" y1="98.17113171792111" y2="98.06355123074" /><path d="M 185.9800911702706 98.14961562048488 a86.0,86.0 0 0,1 -9.607161424134198,41.387399972396054" fill="none" id="id52" stroke="none" /><text fill="#e1ed5e" style="font-size:6.75px; font-family:Arial;" text-anchor="middle"><textPath startOffset="21.466115282336823" xlink:href="#id52">April</textPath></text><line stroke="#e1ed5e" stroke-width="0.3" x1="174.80103733775053" x2="179.2010983576182" y1="140.37084112569926" y2="142.7455964860345" /><path d="M 175.68104954172406 140.8457921977663 a86.0,86.0 0 0,1 -30.038265399797805,32.042727171017184" fill="none" id="id53" stroke="none" /><text fill="#e1ed5e" style="font-size:6.75px; font-family:Arial;" text-anchor="middle"><textPath startOffset="22.206326154141568" xlink:href="#id53">May</textPath></text><line stroke="#e1ed5e" stroke-width="0.3" x1="143.8653032363475" x2="146.44561519142675" y1="172.8068346515853" y2="177.08958963109032" /><path d="M 144.38136562736335 173.6633856474863 a86.0,86.0 0 0,1 -40.68145358897372,12.25698825130547" fill="none" id="id54" stroke="none" /><text fill="#e1ed5e" style="font-size:6.75px; font-family:Arial;" text-anchor="middle"><textPath startOffset="21.466115282336833" xlink:href="#id54">June</textPath></text><line stroke="#e1ed5e" stroke-width="0.3" x1="102.19456741930631" x2="102.32365962044197" y1="184.97166512339345" y2="189.96999836594603" /><path d="M 102.22038585953345 185.97133177190398 a86.0,86.0 0 0,1 -42.740103519485714,-10.115201625700543" fill="none" id="id55" stroke="none" /><text fill="#e1ed5e" style="font-size:6.75px; font-family:Arial;" text-anchor="middle"><textPath startOffset="22.20632615414155" xlink:href="#id55">July</textPath></text><line stroke="#e1ed5e" stroke-width="0.3" x1="58.666819895761336" x2="56.23545636021788" y1="174.27360380694188" y2="178.64263932499728" /><path d="M 58.180547188652646 175.14741091055294 a86.0,86.0 0 0,1 -31.652253787137756,-30.449443065178592" fill="none" id="id56" stroke="none" /><text fill="#e1ed5e" style="font-size:6.75px; font-family:Arial;" text-anchor="middle"><textPath startOffset="22.20632615414155" xlink:href="#id56">August</textPath></text><line stroke="#e1ed5e" stroke-width="0.3" x1="26.63291911575756" x2="22.317208475507996" y1="142.92168965132927" y2="145.44649492493687" /><path d="M 25.769776987707644 143.4266507060508 a86.0,86.0 0 0,1 -11.730757126820373,-40.83630448921669" fill="none" id="id57" stroke="none" /><text fill="#e1ed5e" style="font-size:6.75px; font-family:Arial;" text-anchor="middle"><textPath startOffset="21.46611528233685" xlink:href="#id57">September</textPath></text><line stroke="#e1ed5e" stroke-width="0.3" x1="15.007084014347285" x2="10.007500721073583" y1="101.09737516637583" y2="101.16192664675087" /><path d="M 14.007167355692545 101.11028546245083 a86.0,86.0 0 0,1 10.666146001902534,-42.60595125391555" fill="none" id="id58" stroke="none" /><text fill="#e1ed5e" style="font-size:6.75px; font-family:Arial;" text-anchor="middle"><textPath startOffset="22.20632615414155" xlink:href="#id58">October</textPath></text><line stroke="#e1ed5e" stroke-width="0.3" x1="26.266209847984243" x2="21.928928074336255" y1="57.711370442889674" y2="55.22380399835377" /><path d="M 25.398753493254645 57.213857153982495 a86.0,86.0 0 0,1 29.58750427330803,-30.492523968695096" fill="none" id="id59" stroke="none" /><text fill="#e1ed5e" style="font-size:6.75px; font-family:Arial;" text-anchor="middle"><textPath startOffset="21.46611528233685" xlink:href="#id59">November</textPath></text><line stroke="#e1ed5e" stroke-width="0.3" x1="56.762969772571076" x2="54.21961505331055" y1="26.818313649435495" y2="22.513508569990535" /><path d="M 56.25429882871897 25.957352633546506 a86.0,86.0 0 0,1 42.265352541879196,-11.944610805530505" fill="none" id="id60" stroke="none" /><text fill="#e1ed5e" style="font-size:6.75px; font-family:Arial;" text-anchor="middle"><textPath startOffset="22.20632615414155" xlink:href="#id60">December</textPath></text></svg>