<?xml version="1.0" encoding="utf-8" ?>
<svg baseProfile="full" height="200mm" version="1.1" viewBox="0,0,200,200" width="200mm" xmlns="http://www.w3.org/2000/svg" xmlns:ev="http://www.w3.org/2001/xml-events" xmlns:xlink="http://www.w3.org/1999/xlink"><defs /><rect fill="#1a1a1a" height="200" width="200" x="0" y="0" /><text alignment-baseline="middle" fill="#e1ed5e" style="dominant-baseline: central; font-size:9.0px; font-family:Arial;" text-anchor="middle" x="100.0" y="100.0">2022</text><line stroke="#e1ed5e" stroke-width="0.3" x1="100.0" x2="100.0" y1="15.0" y2="10.0" /><path d="M 100.0 14.0 a86.0,86.0 0 0,1 42.46469731375804,11.215312516191453" fill="none" id="id1" stroke="none" /><text fill="#e1ed5e" style="font-size:6.75px; font-family:Arial;" text-anchor="middle"><textPath startOffset="22.20632615414155" xlink:href="#id1">January</textPath></text><line stroke="#e1ed5e" stroke-width="0.3" x1="143.23703022742887" x2="145.7803849466894" y1="26.81831364943548" y2="22.513508569990506" /><path d="M 143.74570117128098 25.957352633546492 a86.0,86.0 0 0,1 28.547481713284135,27.462654790039103" fill="none" id="id2" stroke="none" /><text fill="#e1ed5e" style="font-size:6.75px; font-family:Arial;" text-anchor="middle"><textPath startOffset="19.985693538727396" xlink:href="#id2">February</textPath></text><line stroke="#e1ed5e" stroke-width="0.3" x1="172.23445277983987" x2="176.4835382374775" y1="55.19839476539836" y2="52.563006222186495" /><path d="M 173.08426987136738 54.67131705675599 a86.0,86.0 0 0,1 12.851231095245387,41.99856678651699" fill="none" id="id3" stroke="none" /><text fill="#e1ed5e" style="font-size:6.75px; font-family:Arial;" text-anchor="middle"><textPath startOffset="22.20632615414155" xlink:href="#id3">March</textPath></text><line stroke="#e1ed5e" stroke-width="0.3" x1="184.98032266829074" x2="189.97916517819016" y1="98.17113171792111" y2="98.06355123074" /><path d="M 185.9800911702706 98.14961562048488 a86.0,86.0 0 0,1 -9.607161424134198,41.387399972396054" fill="none" id="id4" stroke="none" /><text fill="#e1ed5e" style="font-size:6.75px; font-family:Arial;" text-anchor="middle"><textPath startOffset="21.466115282336823" xlink:href="#id4">April</textPath></text><line stroke="#e1ed5e" stroke-width="0.3" x1="174.80103733775053" x2="179.2010983576182" y1="140.37084112569926" y2="142.7455964860345" /><path d="M 175.68104954172406 140.8457921977663 a86.0,86.0 0 0,1 -30.038265399797805,32.042727171017184" fill="none" id="id5" stroke="none" /><text fill="#e1ed5e" style="font-size:6.75px; font-family:Arial;" text-anchor="middle"><textPath startOffset="22.206326154141568" xlink:href="#id5">May</textPath></text><line stroke="#e1ed5e" stroke-width="0.3" x1="143.8653032363475" x2="146.44561519142675" y1="172.8068346515853" y2="177.08958963109032" /><path d="M 144.38136562736335 173.6633856474863 a86.0,86.0 0 0,1 -40.68145358897372,12.25698825130547" fill="none" id="id6" stroke="none" /><text fill="#e1ed5e" style="font-size:6.75px; font-family:Arial;" text-anchor="middle"><textPath startOffset="21.466115282336833" xlink:href="#id6">June</textPath></text><line stroke="#e1ed5e" stroke-width="0.3" x1="102.19456741930631" x2="102.32365962044197" y1="184.97166512339345" y2="189.96999836594603" /><path d="M 102.22038585953345 185.97133177190398 a86.0,86.0 0 0,1 -42.740103519485714,-10.115201625700543" fill="none" id="id7" stroke="none" /><text fill="#e1ed5e" style="font-size:6.75px; font-family:Arial;" text-anchor="middle"><textPath startOffset="22.20632615414155" xlink:href="#id7">July</textPath></text><line stroke="#e1ed5e" stroke-width="0.3" x1="58.666819895761336" x2="56.23545636021788" y1="174.27360380694188" y2="178.64263932499728" /><path d="M 58.180547188652646 175.14741091055294 a86.0,86.0 0 0,1 -31.652253787137756,-30.449443065178592" fill="none" id="id8" stroke="none" /><text fill="#e1ed5e" style="font-size:6.75px; font-family:Arial;" text-anchor="middle"><textPath startOffset="22.20632615414155" xlink:href="#id8">August</textPath></text><line stroke="#e1ed5e" stroke-width="0.3" x1="26.63291911575756" x2="22.317208475507996" y1="142.92168965132927" y2="145.44649492493687" /><path d="M 25.769776987707644 143.4266507060508 a86.0,86.0 0 0,1 -11.730757126820373,-40.83630448921669" fill="none" id="id9" stroke="none" /><text fill="#e1ed5e" style="font-size:6.75px; font-family:Arial;" text-anchor="middle"><textPath startOffset="21.46611528233685" xlink:href="#id9">September</textPath></text><line stroke="#e1ed5e" stroke-width="0.3" x1="15.007084014347285" x2="10.007500721073583" y1="101.09737516637583" y2="101.16192664675087" /><path d="M 14.007167355692545 101.11028546245083 a86.0,86.0 0 0,1 10.666146001902534,-42.60595125391555" fill="none" id="id10" stroke="none" /><text fill="#e1ed5e" style="font-size:6.75px; font-family:Arial;" text-anchor="middle"><textPath startOffset="22.20632615414155" xlink:href="#id10">October</textPath></text><line stroke="#e1ed5e" stroke-width="0.3" x1="26.266209847984243" x2="21.928928074336255" y1="57.711370442889674" y2="55.22380399835377" /><path d="M 25.398753493254645 57.213857153982495 a86.0,86.0 0 0,1 29.58750427330803,-30.492523968695096" fill="none" id="id11" stroke="none" /><text fill="#e1ed5e" style="font-size:6.75px; font-family:Arial;" text-anchor="middle"><textPath startOffset="21.46611528233685" xlink:href="#id11">November</textPath></text><path d="M 83.39014120810768 87.1503855733568 l -23.774375893960848 -18.392183058208516 a51.058166058394164,51.058166058394164 0 0,0 0.5437595472054888,-0.6905194053043944 l 23.454262266161386 18.79869485746596" fill="#adff20" stroke="none" /><path d="M 83.6137871275137 86.86637796730984 l -47.40272669045356 -37.99349492869536 a81.74968439907025,81.74968439907025 0 0,0 0.8895202932126933,-1.09044670141537 l 46.741707905164475 38.803825799718815" fill="#4ae9ff" stroke="none" /><path d="M 84.07557802195018 86.31012108654704 l -47.77326593414944 -41.06963674035889 a84.0,84.0 0 0,0 0.9520325456886258,-1.0883377751882275 l 47.05924152488297 41.885890071750055" fill="#4dd2ff" stroke="none" /><path d="M 84.31358615837235 86.03803664274999 l -44.9195345273252 -39.981406931322255 a81.13549270072994,81.13549270072994 0 0,0 0.9375258702658373,-1.035239482031994 l 44.22466501644331 40.748699200623804" fill="#49efff" stroke="none" /><path d="M 85.83668400450813 84.49514656593479 l -41.6273555205093 -45.57026379971038 a82.7210310218978,82.7210310218978 0 0,0 1.0595737352201573,-0.9512957613055028 l 40.83677079769317 46.28005856978516" fill="#4bdfff" stroke="none" /><path d="M 86.37877921826538 84.01681056812374 l -19.7618777667941 -23.188658413040596 a51.467124771897815,51.467124771897815 0 0,0 0.6792250345198355,-0.5688314329440824 l 19.359795195315154 23.52539100337849" fill="#a8ff21" stroke="none" /><path d="M 86.65592168130627 83.78471172551755 l -19.387569993366725 -23.55914203109397 a51.510834854014604,51.510834854014604 0 0,0 0.6895009816461324,-0.5575285089119827 l 18.97916561315609 23.889376637270086" fill="#a8ff21" stroke="none" /><path d="M 86.93701828274178 83.55741782278169 l -19.082710005189554 -24.019709605029735 a51.677292427007295,51.677292427007295 0 0,0 0.7012545704382587,-0.5473403153427413 l 18.66642287959187 24.3446283095957" fill="#a6ff21" stroke="none" /><path d="M 87.51073957382395 83.11751280151077 l -33.3232707354911 -45.0450765222749 a77.03123496237112,77.03123496237112 0 0,0 1.0727688310379884,-0.7794121784676982 l 32.54295658809934 45.61200793555926" fill="#44ffe4" stroke="none" /><line stroke="#e1ed5e" stroke-width="0.3" x1="56.762969772571076" x2="54.21961505331055" y1="26.818313649435495" y2="22.513508569990535" /><path d="M 56.25429882871897 25.957352633546506 a86.0,86.0 0 0,1 42.265352541879196,-11.944610805530505" fill="none" id="id12" stroke="none" /><text fill="#e1ed5e" style="font-size:6.75px; font-family:Arial;" text-anchor="middle"><textPath startOffset="22.20632615414155" xlink:href="#id12">December</textPath></text><path d="M 91.56875222667455 80.76684994638697 l -2.57081899201478 -5.864487530603836 a27.403227645985403,27.403227645985403 0 0,0 0.43364464932050506,-0.1856640078482872 l 2.469490584903967 5.907871066414909" fill="#ff0300" stroke="none" /><path d="M 91.90106846888425 80.62456947434976 l -4.616843581820179 -11.045078196262693 a32.97117358576642,32.97117358576642 0 0,0 0.5255230303694066,-0.21437403918514297 l 4.426036681862391 11.122913121631413" fill="#ff5a08" stroke="none" /><path d="M 92.23578459929587 80.48803036053334 l -4.461900131192745 -11.213040262415905 a33.068174041970806,33.068174041970806 0 0,0 0.5306919692792791,-0.20590023928594076 l 4.268224996913789 11.288183205592398" fill="#ff5b08" stroke="none" /><path d="M 92.57280143429618 80.3572730644239 l -8.572874439348247 -22.67269821527121 a45.239336222627735,45.239336222627735 0 0,0 0.7307610674777397,-0.26914546829838953 l 8.181331046097938 22.816906951375923" fill="#f7ff18" stroke="none" /><path d="M 92.91201910852362 80.23233633223022 l -8.396565411101998 -23.417173882437023 a45.877024406934304,45.877024406934304 0 0,0 0.7456501919102173,-0.260142710732164 l 7.992233215128494 23.558237446341394" fill="#efff19" stroke="none" /><path d="M 93.25333710446033 80.11325718540243 l -9.898580993835102 -29.177467068052792 a51.81081774635037,51.81081774635037 0 0,0 0.8470258917138049,-0.2792511192282377 l 9.39487227987889 29.343531911540264" fill="#a4ff21" stroke="none" /><path d="M 93.59665428221793 80.00007090966166 l -1.8904037854104594 -5.9044042484421535 a27.19964644160584,27.19964644160584 0 0,0 0.44712932422566254,-0.13892525755093546 l 1.788489088474068 5.936069640875614" fill="#ff0000" stroke="none" /><path d="M 93.94186890950719 79.89281104454417 l -8.84087777924278 -29.343240907793668 a51.646156478102185,51.646156478102185 0 0,0 0.8534153102327787,-0.24913533124562473 l 8.334472251286579 29.49107456795799" fill="#a6ff21" stroke="none" /><path d="M 94.28887869178378 79.79150937346287 l -3.2747105813249404 -11.58738442346206 a33.04122947080292,33.04122947080292 0 0,0 0.5486450694815392,-0.14996542267687432 l 3.074767622619679 11.64203638696523" fill="#ff5b08" stroke="none" /><path d="M 94.63758080256005 79.69619591428918 l -8.267623553352259 -31.303820663966736 a53.37719548357664,53.37719548357664 0 0,0 0.890359863086671,-0.22697255379010867 l 7.727554801580588 31.441496213925706" fill="#91ff23" stroke="none" /><path d="M 95.33964822691252 79.52364482259891 l -6.827085806275341 -29.996412417441643 a51.76351505474453,51.76351505474453 0 0,0 0.8705077126177041,-0.19025926920655206 l 6.309735369504116 30.109485184744063" fill="#a5ff21" stroke="none" /><path d="M 95.692805502759 79.44645832069477 l -6.3023667657793645 -30.074322875758025 a51.72758895985402,51.72758895985402 0 0,0 0.8730473849832939,-0.17512509222427497 l 5.783752971328934 30.17835192405951" fill="#a5ff21" stroke="none" /><path d="M 96.04723909329186 79.375362276772 l -2.278314944374574 -11.887746680401865 a33.10410013686131,33.10410013686131 0 0,0 0.5605704533412506,-0.10244066727195049 l 2.07334936993043 11.92520282902455" fill="#ff5c08" stroke="none" /><path d="M 96.75951476605007 79.25152402106235 l -1.8718348070994368 -11.985155533111826 a33.130445939781026,33.130445939781026 0 0,0 0.5642131028713058,-0.08315034491587099 l 1.6652527237994823 12.015600362188666" fill="#ff5c08" stroke="none" /><path d="M 97.11714578562143 79.19881850522333 l -1.6495528733505105 -11.902318380393998 a33.01608120437956,33.01608120437956 0 0,0 0.5636085159123153,-0.0731725610381359 l 1.4444296289303376 11.928949264596271" fill="#ff5a08" stroke="none" /><path d="M 97.47563105711357 79.15227682838746 l -4.607520344147231 -38.05161242893491 a59.32955063868613,59.32955063868613 0 0,0 1.0149119073915398,-0.11403717821659096 l 3.951841733245973 38.125285560622096" fill="#4dff2c" stroke="none" /><path d="M 98.19473922651362 79.07773832637324 l -1.0235404448214154 -11.862430810334974 a32.906506614963504,32.906506614963504 0 0,0 0.5647537056117188,-0.04383575689748755 l 0.8191965498473625 11.878291829420924" fill="#ff5908" stroke="none" /><path d="M 98.91598698831166 79.02799685794201 l -0.6245314471422944 -12.082581417895293 a33.098711222627735,33.098711222627735 0 0,0 0.5692334759119223,-0.024512390887194643 l 0.4164571388410479 12.09154153530668" fill="#ff5b08" stroke="none" /><path d="M 99.27714615592234 79.0124445844662 l -1.061217540422979 -30.811708507938516 a51.829978330291965,51.829978330291965 0 0,0 0.8919035079521006,-0.023035236238743356 l 0.5306873972759996 30.82541053631962" fill="#a4ff21" stroke="none" /><path d="M 99.63851952072746 79.00311137660856 l -0.6327248272713848 -36.75233792487958 a57.75778398722627,57.75778398722627 0 0,0 0.9942053065439115,-0.008557438955240563 l 9.003060500741296e-15 36.75778398722627" fill="#5fff29" stroke="none" /></svg>