<?xml version="1.0" encoding="utf-8" ?>
<svg baseProfile="full" height="200mm" version="1.1" viewBox="0,0,200,200" width="200mm" xmlns="http://www.w3.org/2000/svg" xmlns:ev="http://www.w3.org/2001/xml-events" xmlns:xlink="http://www.w3.org/1999/xlink"><defs /><rect fill="#1a1a1a" height="200" width="200" x="0" y="0" /><text alignment-baseline="middle" fill="#e1ed5e" style="dominant-baseline: central; font-size:9.0px; font-family:Arial;" text-anchor="middle" x="100.0" y="100.0">2022</text><line stroke="#e1ed5e" stroke-width="0.3" x1="100.0" x2="100.0" y1="15.0" y2="10.0" /><path d="M 100.0 14.0 a86.0,86.0 0 0,1 42.46469731375804,11.215312516191453" fill="none" id="id13" stroke="none" /><text fill="#e1ed5e" style="font-size:6.75px; font-family:Arial;" text-anchor="middle"><textPath startOffset="22.20632615414155" xlink:href="#id13">January</textPath></text><path d="M 100.0 79.0 l 0.0 -3.2537969662628186 a24.25379696626282,24.25379696626282 0 0,0 0.4174892453115847,0.003593461740455533 l -0.05600876603905631 3.253314881130922" fill="#ff1302" stroke="none" /><path d="M 101.44485096284872 79.0497635885617 l 0.28897840231737565 -4.190166323045632 a25.20011932351828,25.20011932351828 0 0,0 0.4324938206397919,0.03356984432832536 l -0.36106241231950875 4.184571216528842" fill="#ff2103" stroke="none" /><line stroke="#e1ed5e" stroke-width="0.3" x1="143.23703022742887" x2="145.7803849466894" y1="26.81831364943548" y2="22.513508569990506" /><path d="M 143.74570117128098 25.957352633546492 a86.0,86.0 0 0,1 28.547481713284135,27.462654790039103" fill="none" id="id14" stroke="none" /><text fill="#e1ed5e" style="font-size:6.75px; font-family:Arial;" text-anchor="middle"><textPath startOffset="19.985693538727396" xlink:href="#id14">February</textPath></text><path d="M 113.06298171725822 83.55741782278167 l 2.892578350522571 -3.6409342263469564 a25.65009801557952,25.65009801557952 0 0,0 0.34334073231748063,0.27762432778660345 l -2.9548224814045425 3.5906038012962234" fill="#ff2703" stroke="none" /><path d="M 113.89432698308785 84.25364557470407 l 4.064747474338017 -4.606553052778999 a27.143492740958095,27.143492740958095 0 0,0 0.3476810145517015,0.31215144773355996 l -4.1434394764857085 4.5359025962761415" fill="#ff3d05" stroke="none" /><path d="M 114.16331599549186 84.49514656593476 l 4.107683916352371 -4.496760299408884 a27.09047784225506,27.09047784225506 0 0,0 0.341587855088549,0.31746868371550185 l -4.184479655235767 4.425387029618743" fill="#ff3c05" stroke="none" /><path d="M 115.68641384162765 86.03803664274999 l 6.490312437119467 -5.776814595040888 a29.688828597509854,29.688828597509854 0 0,0 0.33648489366904794,0.38466040075902314 l -6.588789194366363 5.664238638078916" fill="#ff6108" stroke="none" /><path d="M 116.15771136456269 86.58626213691792 l 3.1195940343649013 -2.589810875566285 a25.05450210388976,25.05450210388976 0 0,0 0.27261864338159986,0.33419822199460303 l -3.16371116982291 2.5357284839635814" fill="#ff1f03" stroke="none" /><line stroke="#e1ed5e" stroke-width="0.3" x1="172.23445277983987" x2="176.4835382374775" y1="55.19839476539836" y2="52.563006222186495" /><path d="M 173.08426987136738 54.67131705675599 a86.0,86.0 0 0,1 12.851231095245387,41.99856678651699" fill="none" id="id15" stroke="none" /><text fill="#e1ed5e" style="font-size:6.75px; font-family:Arial;" text-anchor="middle"><textPath startOffset="22.20632615414155" xlink:href="#id15">March</textPath></text><path d="M 118.3937258080291 89.86733742301442 l 5.693741401721584 -3.1365456366145312 a27.50050841705817,27.50050841705817 0 0,0 0.22483878869444401,0.4165921283567613 l -5.7468882896344935 3.038072524925311" fill="#ff4206" stroke="none" /><path d="M 118.73160827565052 90.50648371742162 l 6.519388664159657 -3.304143537750086 a28.30888452996961,28.30888452996961 0 0,0 0.21654946877132303,0.4365505150152891 l -6.575298145884388 3.1914334342358472" fill="#ff4d07" stroke="none" /><path d="M 119.04729006885535 91.15688171328212 l 6.737839141469401 -3.1281882257002995 a28.42859595561147,28.42859595561147 0 0,0 0.2022460175120723,0.44562229086232585 l -6.79068747594482 3.011743925995911" fill="#ff4f07" stroke="none" /><path d="M 119.47837535516314 92.15188598940014 l 6.212134588962752 -2.5029572340820216 a27.697418238920946,27.697418238920946 0 0,0 0.17437034965759918,0.4437535203953621 l -6.2542984885020525 2.3956547087908753" fill="#ff4506" stroke="none" /><path d="M 119.61058180528143 92.48833698450437 l 3.1537722246459783 -1.2080250557783292 a24.37721834952031,24.37721834952031 0 0,0 0.14672231164158814,0.3931428494555482 l -3.174099124789192 1.1535590692934476" fill="#ff1502" stroke="none" /><path d="M 119.7369772167798 92.82701384747503 l 2.6753273763866696 -0.9722910460664503 a23.846528842134745,23.846528842134745 0 0,0 0.136886932633303,0.38699779194693884 l -2.691667389829782 0.926095627692897" fill="#ff0d01" stroke="none" /><path d="M 120.37134235888165 94.90015583598534 l 6.185669890887145 -1.5485455959561885 a27.376559061263613,27.376559061263613 0 0,0 0.11050639286274316,0.45812034097507326 l -6.211409084010708 1.441840023321709" fill="#ff4006" stroke="none" /><path d="M 120.45610955862082 95.25157060432595 l 5.75460619647121 -1.3358034256487552 a26.907610622615525,26.907610622615525 0 0,0 0.10084666611254477,0.45207583013847835 l -5.776747249585792 1.236549425960313" fill="#ff3905" stroke="none" /><path d="M 120.53481517161879 95.60439243477599 l 6.06593060980488 -1.2984509602713092 a27.20334498953567,27.20334498953567 0 0,0 0.09407266983844388,0.4587317473609361 l -6.087382575558321 1.1938435567469612" fill="#ff3e05" stroke="none" /><path d="M 120.67395015179393 96.31383870115 l 6.927143907641728 -1.2351084140394784 a28.03639222269545,28.03639222269545 0 0,0 0.08062216838178453,0.47583660154857016 l -6.9473779375437354 1.1156860241750703" fill="#ff4906" stroke="none" /><path d="M 120.73433829027371 96.67025291283417 l 9.505390842853194 -1.5264797471839338 a30.627180038513877,30.627180038513877 0 0,0 0.07911161988870924,0.5212467300329697 l -9.530258356181202 1.362633904758882" fill="#ff6e0a" stroke="none" /><path d="M 120.83666639777658 97.38593545837742 l 8.482743132847862 -1.0642027671775836 a29.549237310283647,29.549237310283647 0 0,0 0.058971338318436546,0.5052304135229634 l -8.499804824169887 0.9180286153297674" fill="#ff5f08" stroke="none" /><path d="M 120.91429891909075 98.10471618934814 l 6.647917967473234 -0.6024438756965722 a27.675159318369694,27.675159318369694 0 0,0 0.038910636392980244,0.4748083210222063 l -6.657303087685708 0.48792163746659706" fill="#ff4406" stroke="none" /><path d="M 120.96714384426684 98.82574320788733 l 8.565060179160822 -0.4796828869461607 a29.578481890443985,29.578481890443985 0 0,0 0.024094338051255458,0.5085933949329553 l -8.572048125445573 0.33217838539020567" fill="#ff5f08" stroke="none" /><line stroke="#e1ed5e" stroke-width="0.3" x1="184.98032266829074" x2="189.97916517819016" y1="98.17113171792111" y2="98.06355123074" /><path d="M 185.9800911702706 98.14961562048488 a86.0,86.0 0 0,1 -9.607161424134198,41.387399972396054" fill="none" id="id16" stroke="none" /><text fill="#e1ed5e" style="font-size:6.75px; font-family:Arial;" text-anchor="middle"><textPath startOffset="21.466115282336823" xlink:href="#id16">April</textPath></text><path d="M 120.99824983174949 100.27111621757518 l 11.75126857645797 0.15172500154475846 a32.7522480246182,32.7522480246182 0 0,0 -0.012130711050503272,0.5636664758031005 l -11.74691580272246 -0.3539812931379738" fill="#ff8b0c" stroke="none" /><path d="M 120.92983693683757 101.71520430193887 l 9.5765336938741 0.7847988419100063 a30.608637094415066,30.608637094415066 0 0,0 -0.04755329250541806,0.5247466202453347 l -9.561605805091606 -0.9495268507039115" fill="#ff6d0a" stroke="none" /><path d="M 120.8583938346157 102.4346265915055 l 9.770561416111446 1.1404362591967963 a30.836893068814792,30.836893068814792 0 0,0 -0.0660768403625236,0.526697431272474 l -9.749483066502075 -1.308451444756665" fill="#ff710a" stroke="none" /><path d="M 120.81339534386255 102.79330883721812 l 19.714035216079704 2.645766722657426 a40.890783444891056,40.890783444891056 0 0,0 -0.09962932093488086,0.6968072385725134 l -19.66557184412822 -2.9847194332103486" fill="#fff517" stroke="none" /><path d="M 120.41448212921028 104.9243191809786 l 14.673091989986174 3.5393985442895737 a36.09393820717163,36.09393820717163 0 0,0 -0.150887590339185,0.6027209188459884 l -14.609993085351928 -3.791447302532958" fill="#ffb711" stroke="none" /><path d="M 120.13307415673323 105.97154293290107 l 13.152739624740251 3.9011503530442355 a34.719093764285944,34.719093764285944 0 0,0 -0.17487383824336794,0.5714978215118913 l -13.08363901399075 -4.126975147108184" fill="#ffa50f" stroke="none" /><path d="M 119.9155931802556 106.66101706037122 l 14.681011507474073 4.910246319539249 a36.480394626789554,36.480394626789554 0 0,0 -0.20430613804379752,0.5938092707386231 l -14.594314538487046 -5.162228293367173" fill="#ffbc11" stroke="none" /><path d="M 119.79798401119884 107.00284435728193 l 18.06711046379456 6.390608381752686 a40.16403809221539,40.16403809221539 0 0,0 -0.23615639449764375,0.6498009725218974 l -17.95442980829169 -6.700657151280714" fill="#ffeb16" stroke="none" /><path d="M 119.67450827220406 107.3425965602758 l 7.244624884730062 2.7037198095700203 a28.73270266653978,28.73270266653978 0 0,0 -0.1769191817867855,0.4618801562578245 l -7.197011423349769 -2.828023532660989" fill="#ff5307" stroke="none" /><path d="M 119.41010516605496 108.01547362559984 l 8.835467207651629 3.648638364754304 a30.559186298751804,30.559186298751804 0 0,0 -0.20496340027336324,0.48447293303657246 l -8.771352826185955 -3.8001858234570403" fill="#ff6d0a" stroke="none" /><path d="M 119.12269723197855 108.67885076344098 l 17.5718801309646 7.975011236107758 a40.29693694742856,40.29693694742856 0 0,0 -0.2921055555715938,0.6291693797710515 l -17.431999958553178 -8.27630068315764" fill="#ffed16" stroke="none" /><path d="M 118.97047184881838 109.00673069616215 l 12.154606304595536 5.770719177456067 a34.454949061396434,34.454949061396434 0 0,0 -0.25898102394511113,0.5335776169723804 l -12.05347202403571 -5.979085750393723" fill="#ffa20e" stroke="none" /><path d="M 118.64920377521936 109.65438752849418 l 17.095161798326366 8.849885434929833 a40.25006569137727,40.25006569137727 0 0,0 -0.32381655439721313,0.6125388874648051 l -16.940292735704258 -9.142839337480773" fill="#ffed16" stroke="none" /><line stroke="#e1ed5e" stroke-width="0.3" x1="174.80103733775053" x2="179.2010983576182" y1="140.37084112569926" y2="142.7455964860345" /><path d="M 175.68104954172406 140.8457921977663 a86.0,86.0 0 0,1 -30.038265399797805,32.042727171017184" fill="none" id="id17" stroke="none" /><text fill="#e1ed5e" style="font-size:6.75px; font-family:Arial;" text-anchor="middle"><textPath startOffset="22.206326154141568" xlink:href="#id17">May</textPath></text><path d="M 118.48025628344425 109.97397251340804 l 10.064281870283931 5.431789970971899 a32.436525340035615,32.436525340035615 0 0,0 -0.26941405784410033,0.48906477159009226 l -9.969291402988322 -5.604225260959796" fill="#ff870c" stroke="none" /><path d="M 117.94076556474637 110.91462005526583 l 11.483066516762898 6.985950942143291 a34.44114307618344,34.44114307618344 0 0,0 -0.31248836220323123,0.503830738332241 l -11.361113514891704 -7.182578011840806" fill="#ffa10e" stroke="none" /><path d="M 117.75023020441432 111.22182372390056 l 8.264904542103348 5.225132339032049 a30.778070108691136,30.778070108691136 0 0,0 -0.2869617353296145,0.44537098581592455 l -8.173737943396683 -5.366624924769426" fill="#ff700a" stroke="none" /><path d="M 117.14729908036423 112.12312394758627 l 23.36539521329336 16.51931192939089 a49.6151945667666,49.6151945667666 0 0,0 -0.49903484274844306,0.6931157497568068 l -23.077580578169314 -16.91906128459883" fill="#a2ff22" stroke="none" /><path d="M 116.93607887273984 112.41649034213515 l 6.597938415932464 4.837202237602399 a29.18115620361224,29.18115620361224 0 0,0 -0.3004807739924651,0.4025431006292057 l -6.513696375244906 -4.950058217740919" fill="#ff5a08" stroke="none" /><path d="M 116.71984013943494 112.70617746262583 l 9.133604880942128 6.9410474934527855 a32.47174260640192,32.47174260640192 0 0,0 -0.3420251475040807,0.4421136086028854 l -9.01277291621998 -7.097239096168924" fill="#ff870c" stroke="none" /><path d="M 116.498646956653 112.99209946851258 l 7.4648837357268345 5.878331251662805 a30.501540269461294,30.501540269461294 0 0,0 -0.32837390046013154,0.40969693061938983 l -7.362591923211848 -6.005956015860445" fill="#ff6c09" stroke="none" /><path d="M 116.27256486870786 113.27417163493432 l 10.286018357123824 8.390710021080336 a34.27426790075243,34.27426790075243 0 0,0 -0.3768602647144791,0.4539524660600538 l -10.140062092515802 -8.56652374425416" fill="#ff9f0e" stroke="none" /><path d="M 115.80600337817218 113.82643327865902 l 14.267453523352833 12.480573961500623 a39.95586865457557,39.95586865457557 0 0,0 -0.4572875921781235,0.5137674574846026 l -14.050507081526371 -12.724315588726093" fill="#ffe915" stroke="none" /><path d="M 115.32070863581623 114.36230785411682 l 7.485331665520835 7.017079974946711 a31.260097539382706,31.260097539382706 0 0,0 -0.37138997806335894,0.3894009072018665 l -7.363435136078512 -7.144887998731084" fill="#ff760a" stroke="none" /><path d="M 114.81725581225074 114.88116024355365 l 5.544207756217294 5.568119028869639 a28.857619815425036,28.857619815425036 0 0,0 -0.35501749779220393,0.34745934286808416 l -5.447540306049296 -5.6627284746602955" fill="#ff5507" stroke="none" /><path d="M 114.55890576462653 115.13401014063108 l 5.6696906995076795 5.893654229775285 a29.17805311845258,29.17805311845258 0 0,0 -0.36495376078376385,0.34508656008625116 l -5.567401104333108 -5.990375426607458" fill="#ff5a08" stroke="none" /><path d="M 114.29624159901734 115.38237550388516 l 3.888060322463783 4.183449436529223 a26.7112399931288,26.7112399931288 0 0,0 -0.33948771373641895,0.31011397732221685 l -3.8154730592605004 -4.249756180438022" fill="#ff3705" stroke="none" /><path d="M 113.75828350139079 115.86535959552629 l 6.269705922641054 7.229909095189523 a30.569785675818686,30.569785675818686 0 0,0 -0.4005144482408658,0.3413271017662577 l -6.144325997823142 -7.336760587178728" fill="#ff6d0a" stroke="none" /><path d="M 113.48314897796784 116.09983520530334 l 4.895950865523255 5.846112227713952 a28.62544182697924,28.62544182697924 0 0,0 -0.3804864713102923,0.3131144625012867 l -4.794594265668271 -5.929521809072417" fill="#ff5207" stroke="none" /><path d="M 113.20401910651253 116.32954008644616 l 6.109475643618312 7.55564852071634 a30.716661834630678,30.716661834630678 0 0,0 -0.4140057610012913,0.328911215313406 l -5.978512389899669 -7.659693650034872" fill="#ff6f0a" stroke="none" /><path d="M 112.92097659922987 116.55440617244103 l 9.362057402617582 11.99470486324363 a36.215816230693214,36.215816230693214 0 0,0 -0.49472748813071094,0.3793359416362973 l -9.154201185993378 -12.1540801467073" fill="#ffb911" stroke="none" /><path d="M 112.63410532772338 116.77436683061366 l 11.464672448334952 15.221704762837708 a40.056206606630994,40.056206606630994 0 0,0 -0.5543302699002937,0.4100802815071428 l -11.200957208016094 -15.416794993084622" fill="#ffea16" stroke="none" /><path d="M 112.04921762599082 117.19931262002967 l 10.988615838563877 15.685386797329775 a40.15152832098222,40.15152832098222 0 0,0 -0.5694693467749465,0.39168620941054694 l -10.716989607166047 -15.872213796105417" fill="#ffeb16" stroke="none" /><path d="M 111.45004920935366 117.60387380957326 l 6.31143245038651 9.703509424526006 a32.57550321703799,32.57550321703799 0 0,0 -0.47268326846239217,0.3016888261674993 l -6.143467379877188 -9.810712679517314" fill="#ff880c" stroke="none" /><path d="M 111.1453310114006 117.79835938074945 l 4.252002265444556 6.790167499801582 a29.01161019650278,29.01161019650278 0 0,0 -0.425532351618037,0.2613967259551309 l -4.134490713894211 -6.862352692585091" fill="#ff5708" stroke="none" /><line stroke="#e1ed5e" stroke-width="0.3" x1="143.8653032363475" x2="146.44561519142675" y1="172.8068346515853" y2="177.08958963109032" /><path d="M 144.38136562736335 173.6633856474863 a86.0,86.0 0 0,1 -40.68145358897372,12.25698825130547" fill="none" id="id18" stroke="none" /><text fill="#e1ed5e" style="font-size:6.75px; font-family:Arial;" text-anchor="middle"><textPath startOffset="21.466115282336833" xlink:href="#id18">June</textPath></text><path d="M 110.5260780823613 118.17145234162733 l 4.808310308150547 8.300715701009949 a30.59279569095787,30.59279569095787 0 0,0 -0.45794681184668734,0.2600341514441768 l -4.664714729382661 -8.382253018248754" fill="#ff6d0a" stroke="none" /><path d="M 110.21172684928248 118.3499491758327 l 4.640055674384878 8.337941961694673 a30.54208534954389,30.54208534954389 0 0,0 -0.46158862704314185,0.2516949230709299 l -4.495844235473087 -8.416577536525374" fill="#ff6d0a" stroke="none" /><path d="M 109.89434966115114 118.52300852407294 l 4.536465373832071 8.492623534276525 a30.62830060721646,30.62830060721646 0 0,0 -0.46716777736403287,0.2444001014041498 l -4.389606693941542 -8.569453054625392" fill="#ff6e0a" stroke="none" /><path d="M 109.57404056367764 118.69057910512821 l 7.051436147687202 13.765914636200598 a36.46684057964236,36.46684057964236 0 0,0 -0.561148430117484,0.28137147211122515 l -6.813433809886957 -13.885253949221125" fill="#ffbc11" stroke="none" /><path d="M 109.2508944713604 118.85261126421891 l 7.586150080227037 15.459990263353607 a38.220945734271304,38.220945734271304 0 0,0 -0.5931296205642648,0.2847382622985299 l -7.31890779166254 -15.588282802151696" fill="#ffd313" stroke="none" /><path d="M 108.92500713936063 119.00905698771935 l 6.5193037616654435 13.88523446431992 a36.339525992220324,36.339525992220324 0 0,0 -0.5685093955755285,0.26097477988370477 l -6.2793263703224955 -13.995396314537699" fill="#ffbb11" stroke="none" /><path d="M 108.59647513512805 119.15986991738527 l 3.7850380738135536 8.436113172743793 a30.246324604055363,30.246324604055363 0 0,0 -0.4768539401901539,0.2090387539338336 l -3.6392634589656456 -8.500016479972082" fill="#ff6809" stroke="none" /><path d="M 108.2653958097858 119.30500536409082 l 3.884246671202304 9.072209552775869 a30.86875667813448,30.86875667813448 0 0,0 -0.4902672077136283,0.2049317325861445 l -3.7275080039912147 -9.137726328381987" fill="#ff710a" stroke="none" /><path d="M 107.93186726928326 119.44442032107085 l 15.051493212078114 36.89768758596959 a60.84955203142249,60.84955203142249 0 0,0 -0.9732420028404122,0.3872730783560341 l -14.414130133195835 -37.1513075087317" fill="#30ff34" stroke="none" /><path d="M 107.59598834532513 119.57807347666477 l 22.787965035975386 58.73422042999433 a84.0,84.0 0 0,0 -1.3525191169589008,0.5114069995734765 l -21.77357569825621 -59.11777567967444" fill="#4dd2ff" stroke="none" /><path d="M 106.57524785965236 119.94407469862006 l 3.006189150300787 9.11838796825979 a30.6011547402951,30.6011547402951 0 0,0 -0.5016821139358472,0.16062277028326452 l -2.8487856912739993 -9.168783585202762" fill="#ff6d0a" stroke="none" /><path d="M 106.2309692047433 120.05430185196036 l 2.8496584373075238 9.171592508152193 a30.604096123264874,30.604096123264874 0 0,0 -0.5044211215665823,0.15197794609845583 l -2.6913623413006955 -9.219285823356374" fill="#ff6d0a" stroke="none" /><path d="M 105.88484417918355 120.15858648285463 l 2.770329126637206 9.48978725432203 a30.885888205021708,30.885888205021708 0 0,0 -0.5116303739015541,0.14459185420225174 l -2.606567584631046 -9.5360679018628" fill="#ff710a" stroke="none" /><path d="M 105.53697534728816 120.25689768951611 l 10.752332388898925 39.33716216241997 a61.78020327062986,61.78020327062986 0 0,0 -1.0282272137206439,0.2715641525553405 l -10.073614732366783 -39.5164176642789" fill="#31ff3f" stroke="none" /><path d="M 104.83641907484287 120.43548508189849 l 1.7900320375654628 7.563482906199122 a28.77241843751847,28.77241843751847 0 0,0 -0.48293798821250344,0.10991511380606617 l -1.6595738999600973 -7.593174753582872" fill="#ff5407" stroke="none" /><path d="M 104.48393922423573 120.51570834832081 l 2.1380597503068386 9.782427476156338 a31.01335042940876,31.01335042940876 0 0,0 -0.5225137234098898,0.10949783104631501 l -1.9693545654675708 -9.817781287929193" fill="#ff730a" stroke="none" /><path d="M 104.13013068566511 120.58985236759428 l 1.9079654152293295 9.51173926733054 a30.701212084857694,30.701212084857694 0 0,0 -0.5190440267631926,0.09947602306436121 l -1.7439537738944326 -9.54317248874337" fill="#ff6f0a" stroke="none" /><path d="M 103.7750983002368 120.6578951692458 l 1.7336065211598122 9.48655079434456 a30.643652707552633,30.643652707552633 0 0,0 -0.5197032585546748,0.09035707309334651 l -1.5700542911330875 -9.514986445958913" fill="#ff6e0a" stroke="none" /><path d="M 103.41894727170886 120.7198165907248 l 1.5613461627368803 9.462212650729331 a30.590165279468096,30.590165279468096 0 0,0 -0.520271903053045,0.08125577132478694 l -1.398238396075318 -9.487686729401224" fill="#ff6d0a" stroke="none" /><path d="M 102.70371172650421 120.8252237178851 l 2.4615859187691256 18.960260059027775 a40.11938458061468,40.11938458061468 0 0,0 -0.6856069966684718,0.08301745927690093 l -2.1348514990492737 -18.999823047030027" fill="#ffeb16" stroke="none" /><path d="M 101.98527174616119 120.90594882070398 l 1.9776189094287866 20.825360451192246 a41.91904908147147,41.91904908147147 0 0,0 -0.7189230343601504,0.062031704474958746 l -1.6188515573270947 -20.85631640794587" fill="#fdff18" stroke="none" /><path d="M 101.62511606390274 120.93702456842531 l 0.6571012713989236 8.465700246777091 a29.491163804164643,29.491163804164643 0 0,0 -0.5064577093214416,0.03492828885480877 l -0.5112808012985516 -8.475756880148184" fill="#ff5e08" stroke="none" /><path d="M 101.26447882468166 120.96189622390904 l 0.5926093635092068 9.823981024216925 a30.841838701273915,30.841838701273915 0 0,0 -0.5302034172965141,0.027405460474989117 l -0.4234178777992131 -9.832726291454117" fill="#ff710a" stroke="none" /><line stroke="#e1ed5e" stroke-width="0.3" x1="102.19456741930631" x2="102.32365962044197" y1="184.97166512339345" y2="189.96999836594603" /><path d="M 102.22038585953345 185.97133177190398 a86.0,86.0 0 0,1 -42.740103519485714,-10.115201625700543" fill="none" id="id19" stroke="none" /><text fill="#e1ed5e" style="font-size:6.75px; font-family:Arial;" text-anchor="middle"><textPath startOffset="22.20632615414155" xlink:href="#id19">July</textPath></text><path d="M 100.54218724476979 120.99299961872073 l 0.515226850187384 19.949117530661997 a40.95576981625414,40.95576981625414 0 0,0 -0.7049079115748289,0.012135628963388018 l -0.1717592487198872 -19.955030636904546" fill="#fff517" stroke="none" /><path d="M 99.81925306533755 120.99922214144158 l -0.16621340437779292 19.31071311351917 a40.31142842589424,40.31142842589424 0 0,0 -0.693817866244035,-0.011944703775697908 l 0.49859096051449586 -19.304990932464314" fill="#ffed16" stroke="none" /><path d="M 99.09653310690486 120.98055641714683 l -0.7944604929617788 18.449179843963226 a39.46627749141055,39.46627749141055 0 0,0 -0.6784665271287318,-0.03506896973172775 l 1.1119150885039994 -18.432771067469293" fill="#ffe315" stroke="none" /><path d="M 98.73552117531835 120.96189622390904 l -0.5774756613721799 9.57310209490023 a30.590503733321853,30.590503733321853 0 0,0 -0.5253368958460489,-0.03623030809183208 l 0.7421753179971587 -9.561743442292112" fill="#ff6d0a" stroke="none" /><path d="M 98.37488393609728 120.93702456842531 l -0.7527938692421702 9.698546513307226 a30.72771828746867,30.72771828746867 0 0,0 -0.5269886830509041,-0.045470801026365575 l 0.9196268700346159 -9.684151460002198" fill="#ff6f0a" stroke="none" /><path d="M 98.01472825383883 120.90594882070398 l -1.9070106375213478 20.081818454148618 a41.17216205559046,41.17216205559046 0 0,0 -0.7049603524982085,-0.07307202294541051 l 2.2524035866251495 -20.04601706274745" fill="#fff817" stroke="none" /><path d="M 97.65516085044442 120.86867818915974 l -2.1205101299573386 18.872187248886608 a39.99094559963484,39.99094559963484 0 0,0 -0.6834120810453647,-0.08275168556216568 l 2.4450496340540924 -18.832890034599092" fill="#ffe915" stroke="none" /><path d="M 97.2962882734958 120.8252237178851 l -1.260914686104847 9.712141338844603 a30.79365076114771,30.79365076114771 0 0,0 -0.5250631385973749,-0.07276896662337776 l 1.4279064158890529 -9.688997806728619" fill="#ff700a" stroke="none" /><path d="M 96.93821686468263 120.77559828337769 l -1.392307670435718 9.447444044674194 a30.549487924826337,30.549487924826337 0 0,0 -0.519580070089173,-0.08114772124409364 l 1.5547236041334083 -9.422078016082995" fill="#ff6d0a" stroke="none" /><path d="M 96.22490169976321 120.6578951692458 l -1.7092894162772454 9.3534840067984 a30.508382269031408,30.508382269031408 0 0,0 -0.5157839872634677,-0.09885122873527695 l 1.8700410181124083 -9.322675579714655" fill="#ff6c0a" stroke="none" /><path d="M 95.86986931433489 120.58985236759428 l -1.88111564694929 9.377885690515441 a30.564692159268468,30.564692159268468 0 0,0 -0.5149547173681647,-0.10791376783543509 l 2.0422618257468415 -9.344115941953465" fill="#ff6d0a" stroke="none" /><path d="M 95.16358092515715 120.4354850818985 l -4.445998550012438 18.785828034530635 a40.30477241641739,40.30477241641739 0 0,0 -0.6737551412359895,-0.1655926213346613 l 4.7687069759916385 -18.706514154881944" fill="#ffed16" stroke="none" /><path d="M 94.46302465271185 120.25689768951611 l -2.5530546889647905 9.340292196790907 a30.682930680650266,30.682930680650266 0 0,0 -0.5082683454764244,-0.14364171138691578 l 2.713454202545829 -9.29496169206547" fill="#ff6f0a" stroke="none" /><path d="M 94.11515582081647 120.15858648285463 l -2.6898530848684987 9.214115851920134 a30.598710358729576,30.598710358729576 0 0,0 -0.5043323526195613,-0.1519512007429012 l 2.848060411928306 -9.166449282071508" fill="#ff6d0a" stroke="none" /><path d="M 93.76903079525671 120.05430185196036 l -2.8678447199739847 9.230124847211224 a30.665388664352236,30.665388664352236 0 0,0 -0.5027351791250815,-0.16095992850215474 l 3.0263012441900066 -9.179392072049364" fill="#ff6e0a" stroke="none" /><path d="M 93.42475214034765 119.94407469862007 l -3.0073507673347963 9.121911390858013 a30.604864708076548,30.604864708076548 0 0,0 -0.49890340518742465,-0.16925512255157418 l 3.163923905459447 -9.068793281408317" fill="#ff6d0a" stroke="none" /><path d="M 93.08242187328487 119.8279376855182 l -13.402131575156984 38.41469150873412 a61.68544769901186,61.68544769901186 0 0,0 -0.9995405355129416,-0.3583996740860721 l 14.061391671299653 -38.17830429360809" fill="#31ff3e" stroke="none" /><path d="M 92.40401165467489 119.57807347666478 l -3.4573384036111348 8.911022795506488 a30.55821720296838,30.55821720296838 0 0,0 -0.4887552910577238,-0.19448581707150217 l 3.610214770710717 -8.850190134028919" fill="#ff6d0a" stroke="none" /><path d="M 92.06813273071674 119.44442032107085 l -3.121487384786602 7.6521089771331345 a29.26428794823265,29.26428794823265 0 0,0 -0.4647845356295257,-0.1942799735882844 l 3.25274337991359 -7.597243960524877" fill="#ff5b08" stroke="none" /><path d="M 91.7346041902142 119.30500536409082 l -3.7806722303275646 8.830296741498014 a30.605603731993135,30.605603731993135 0 0,0 -0.4825182207276543,-0.2115218080636097 l 3.932111125712962 -8.76391038013995" fill="#ff6d0a" stroke="none" /><path d="M 91.40352486487194 119.15986991738527 l -3.9044902073743226 8.702348729108762 a30.538129648023393,30.538129648023393 0 0,0 -0.47775013994188165,-0.21931165708267952 l 4.053708343083624 -8.633850001692007" fill="#ff6d0a" stroke="none" /><path d="M 91.07499286063937 119.00905698771935 l -4.0923040736601 8.716053682938972 a30.628943059088524,30.628943059088524 0 0,0 -0.4753135493094697,-0.22817938842537197 l 4.241730290969811 -8.644320018014039" fill="#ff6e0a" stroke="none" /><path d="M 90.7491055286396 118.85261126421891 l -12.586361272123586 25.650036007758256 a49.57167893687222,49.57167893687222 0 0,0 -0.7628044922883365,-0.38248600799487037 l 13.026019672094684 -25.429582158854082" fill="#a3ff22" stroke="none" /><path d="M 90.42595943632237 118.69057910512821 l -10.430284560099699 20.362150897829117 a43.87811236073941,43.87811236073941 0 0,0 -0.669264693767117,-0.3501276563761004 l 10.779240156393312 -20.1795938225083" fill="#e5ff1a" stroke="none" /><line stroke="#e1ed5e" stroke-width="0.3" x1="58.666819895761336" x2="56.23545636021788" y1="174.27360380694188" y2="178.64263932499728" /><path d="M 58.180547188652646 175.14741091055294 a86.0,86.0 0 0,1 -31.652253787137756,-30.449443065178592" fill="none" id="id20" stroke="none" /><text fill="#e1ed5e" style="font-size:6.75px; font-family:Arial;" text-anchor="middle"><textPath startOffset="22.20632615414155" xlink:href="#id20">August</textPath></text><path d="M 89.7882731507175 118.34994917583269 l -3.990152666899664 7.170099604315866 a29.205586306960463,29.205586306960463 0 0,0 -0.43718152706581553,-0.248243080804955 l 4.112982960886686 -7.100353357716278" fill="#ff5a08" stroke="none" /><path d="M 89.1626897886671 117.98757091392108 l -4.97953599176118 8.264943516755729 a30.649096850400433,30.649096850400433 0 0,0 -0.4495504444386904,-0.27615060025665683 l 5.121065636132179 -8.178004449670693" fill="#ff6e0a" stroke="none" /><path d="M 88.8546689885994 117.79835938074946 l -5.100565158240492 8.145266537030851 a30.61046991008928,30.61046991008928 0 0,0 -0.4441698680713942,-0.28349022497311754 l 5.24001682835881 -8.05626188323393" fill="#ff6e0a" stroke="none" /><path d="M 88.54995079064634 117.60387380957326 l -5.271989981293408 8.10541899507368 a30.66911037523925,30.66911037523925 0 0,0 -0.4400656630093491,-0.2916515253954312 l 5.410730343042719 -8.013469448586932" fill="#ff6e0a" stroke="none" /><path d="M 88.24862548938628 117.40417183066458 l -10.82204275147756 16.027800955147764 a40.33926091588413,40.33926091588413 0 0,0 -0.5721319591998576,-0.39351757851539293 l 11.096331595300308 -15.839142587267272" fill="#ffee16" stroke="none" /><path d="M 87.95078237400918 117.19931262002967 l -13.162311410357944 18.788166649144934 a43.939957447634484,43.939957447634484 0 0,0 -0.6157299377296,-0.4393069619262711 l 13.48376867593643 -18.558815425374444" fill="#e4ff1a" stroke="none" /><path d="M 87.65650970185807 116.9893568818739 l -5.677185177761649 7.813975037838062 a30.658604321254334,30.658604321254334 0 0,0 -0.4242786286546124,-0.31387118640922285 l 5.810848776834826 -7.715093902689072" fill="#ff6e0a" stroke="none" /><path d="M 87.36589467227662 116.77436683061367 l -5.749246068268803 7.63330366868031 a30.556210297591434,30.556210297591434 0 0,0 -0.417414233356689,-0.3200554346818859 l 5.879789030118979 -7.533208892171057" fill="#ff6d0a" stroke="none" /><path d="M 87.07902340077011 116.55440617244103 l -5.9148801659363155 7.578167793761136 a30.61324266248311,30.61324266248311 0 0,0 -0.41261185520196,-0.32780381224398714 l 6.044449513855634 -7.475230067512018" fill="#ff6e0a" stroke="none" /><path d="M 86.79598089348748 116.32954008644616 l -6.0415489752664095 7.4716429429567635 a30.6086295738559,30.6086295738559 0 0,0 -0.4068468018273159,-0.3348072199146263 l 6.169265905638414 -7.366540604184957" fill="#ff6d0a" stroke="none" /><path d="M 86.51685102203217 116.09983520530335 l -26.21911856242384 31.307485274627272 a61.83626834581536,61.83626834581536 0 0,0 -0.81015677245615,-0.6904331774629647 l 26.75414081145705 -30.851527706941354" fill="#31ff40" stroke="none" /><path d="M 85.97065885151581 115.62618273729859 l -12.826488561626478 14.286419584536292 a40.19949461227969,40.19949461227969 0 0,0 -0.5109172963439143,-0.46671083647798844 l 13.070505407437247 -14.063515981471726" fill="#ffec16" stroke="none" /><path d="M 85.44109423537348 115.13401014063109 l -6.665628481381532 6.9289334419629265 a30.614609804612815,30.614609804612815 0 0,0 -0.3766326619532475,-0.3686143303886686 l 6.7839110957105735 -6.8131690086516885" fill="#ff6e0a" stroke="none" /><path d="M 84.9287848128048 114.62390073753433 l -6.874587407221506 6.670549295860753 a30.57894461451975,30.57894461451975 0 0,0 -0.36329744509849465,-0.3809159187417262 l 6.988391403698959 -6.551226260536526" fill="#ff6d0a" stroke="none" /><path d="M 84.67929136418377 114.36230785411682 l -6.983452501702844 6.546596316020535 a30.57217489228406,30.57217489228406 0 0,0 -0.35660781215465565,-0.38702734919559856 l 7.095106721853229 -6.4254177120235925" fill="#ff6d0a" stroke="none" /><path d="M 84.43433777217949 114.09645910891817 l -14.799229840033098 13.40236831752956 a40.965988089169194,40.965988089169194 0 0,0 -0.4688482239353998,-0.526755949817323 l 15.027736913616835 -13.145638197971373" fill="#fff517" stroke="none" /><path d="M 84.19399662182784 113.82643327865904 l -7.391376929545284 6.465668613921029 a30.820250686192168,30.820250686192168 0 0,0 -0.3458582348146443,-0.4023112629841825 l 7.501577673930706 -6.3374802517753155" fill="#ff700a" stroke="none" /><path d="M 83.95833913139862 113.55231037782056 l -7.3730115431116845 6.228865057674982 a30.651945872288266,30.651945872288266 0 0,0 -0.3370312815694365,-0.40597589009215695 l 7.479138824574657 -6.101027910469064" fill="#ff6e0a" stroke="none" /><path d="M 83.50135304334701 112.99209946851258 l -7.582343102387964 5.970826338028336 a30.651046268732898,30.651046268732898 0 0,0 -0.3228477371322513,-0.4173242205563625 l 7.683997656738283 -5.839424123358721" fill="#ff6e0a" stroke="none" /><path d="M 83.28015986056508 112.70617746262583 l -7.627320034181263 5.796352184610294 a30.57985957892178,30.57985957892178 0 0,0 -0.31488333809467695,-0.42183768887750267 l 7.725964638971025 -5.664201616223483" fill="#ff6d0a" stroke="none" /><path d="M 83.06392112726016 112.41649034213515 l -29.92572748003697 21.93970097974255 a58.106598392872876,58.106598392872876 0 0,0 -0.5844422750899906,-0.8117392033340859 l 30.298949547502566 -21.421328170957327" fill="#47ff2c" stroke="none" /><path d="M 82.85270091963577 112.12312394758628 l -3.357559871715389 2.37379159805166 a25.111945384259634,25.111945384259634 0 0,0 -0.24650255432882479,-0.3551053145399246 l 3.397923333206348 -2.3156450213247224" fill="#ff1f03" stroke="none" /><path d="M 82.6465618267979 111.8261652097733 l -8.173395118212222 5.570073205550618 a30.890910133734323,30.890910133734323 0 0,0 -0.2956655718055618,-0.4419799134177378 l 8.268063795428514 -5.42855637792706" fill="#ff710a" stroke="none" /><path d="M 82.44556493220864 111.52570212397912 l -8.073479833043498 5.300798533263169 a30.658133448281042,30.658133448281042 0 0,0 -0.28584349652909297,-0.4436354543646845 l 8.163528192949638 -5.161041478977037" fill="#ff6e0a" stroke="none" /><path d="M 82.24976979558568 111.22182372390057 l -8.07316957293557 5.103916106851969 a30.551231678645202,30.551231678645202 0 0,0 -0.27719475887992495,-0.4469262120471221 l 8.15982897148345 -4.964193563439583" fill="#ff6d0a" stroke="none" /><line stroke="#e1ed5e" stroke-width="0.3" x1="26.63291911575756" x2="22.317208475507996" y1="142.92168965132927" y2="145.44649492493687" /><path d="M 25.769776987707644 143.4266507060508 a86.0,86.0 0 0,1 -11.730757126820373,-40.83630448921669" fill="none" id="id21" stroke="none" /><text fill="#e1ed5e" style="font-size:6.75px; font-family:Arial;" text-anchor="middle"><textPath startOffset="21.46611528233685" xlink:href="#id21">September</textPath></text><path d="M 81.87401531095188 110.60418214915194 l -8.302278448572885 4.8570532543172265 a30.618669021902736,30.618669021902736 0 0,0 -0.2622241192409644,-0.4572098548334163 l 8.384654563966226 -4.713423553625503" fill="#ff6e0a" stroke="none" /><path d="M 81.69416730710424 110.29060199501025 l -8.354997182765722 4.696751692188293 a30.58464680528692,30.58464680528692 0 0,0 -0.25403256721120704,-0.4611428982354138 l 8.434606159428444 -4.552238275555057" fill="#ff6d0a" stroke="none" /><path d="M 81.51974371655577 109.97397251340807 l -20.26684673509207 10.938212607492506 a44.03018826736812,44.03018826736812 0 0,0 -0.35422808905513775,-0.6700660501515173 l 20.452127332372093 -10.587731542254863" fill="#e3ff1b" stroke="none" /><path d="M 81.35079622478065 109.6543875284942 l -17.181838398010235 8.89475649179031 a40.347668174319736,40.347668174319736 0 0,0 -0.31398426686045916,-0.6195207462108103 l 17.33240133465696 -8.597681533876816" fill="#ffee16" stroke="none" /><path d="M 80.73074385275274 108.34839909993369 l -8.799867835498823 3.812539942176685 a30.59026249551801,30.59026249551801 0 0,0 -0.20517183131254735,-0.4849656024436689 l 8.864190648003678 -3.660499814066857" fill="#ff6d0a" stroke="none" /><path d="M 80.58989483394504 108.01547362559985 l -8.8894338174681 3.6709240728401933 a30.61757335005578,30.61757335005578 0 0,0 -0.19696924368453375,-0.4888615094949037 l 8.951305675410023 -3.5173631955024844" fill="#ff6e0a" stroke="none" /><path d="M 80.45479744820244 107.68017299344265 l -17.96213395766836 7.058115451128763 a40.29909972083375,40.29909972083375 0 0,0 -0.24813829148263927,-0.6478107782663782 l 18.080966528744508 -6.747881106029227" fill="#ffed16" stroke="none" /><path d="M 80.32549172779594 107.34259656027581 l -18.113633163451134 6.760072410447825 a40.33396714010279,40.33396714010279 0 0,0 -0.23715554281977086,-0.6525501995872764 l 18.22731296727613 -6.447274413854431" fill="#ffee16" stroke="none" /><path d="M 79.23777060512086 103.15116336523772 l -24.119285992188562 3.6606767495316173 a45.39550186074361,45.39550186074361 0 0,0 -0.11060494915631867,-0.7735707567899643 l 24.17872499236148 -3.244960520761252" fill="#d3ff1c" stroke="none" /><line stroke="#e1ed5e" stroke-width="0.3" x1="15.007084014347285" x2="10.007500721073583" y1="101.09737516637583" y2="101.16192664675087" /><path d="M 14.007167355692545 101.11028546245083 a86.0,86.0 0 0,1 10.666146001902534,-42.60595125391555" fill="none" id="id22" stroke="none" /><text fill="#e1ed5e" style="font-size:6.75px; font-family:Arial;" text-anchor="middle"><textPath startOffset="22.20632615414155" xlink:href="#id22">October</textPath></text><path d="M 79.00486145842228 99.54816195383935 l -12.292371042783795 -0.2645450947443848 a33.29521736125974,33.29521736125974 0 0,0 0.017263261895005103,-0.5728836181236546 l 12.285996086433144 0.4760988602930339" fill="#ff920d" stroke="none" /><path d="M 79.01574976396665 99.18683210126434 l -12.782480290848303 -0.49533829047131384 a33.79207420272148,33.79207420272148 0 0,0 0.02752668856735391,-0.581044889465422 l 12.772059994047451 0.7152942865597449" fill="#ff990e" stroke="none" /><path d="M 79.03285615573316 98.82574320788736 l -7.326341172757019 -0.41030890746699433 a28.337821773468026,28.337821773468026 0 0,0 0.03146767885616887,-0.48679106398058253 l 7.3181929028964365 0.5363590357005886" fill="#ff4e07" stroke="none" /><path d="M 79.05617556472873 98.46500227214037 l -12.108989872749625 -0.887482226505077 a33.14146862783557,33.14146862783557 0 0,0 0.046596141343656625,-0.5685909480906753 l 12.091919247586471 1.0957870918035308" fill="#ff900d" stroke="none" /><path d="M 79.08570108090925 98.10471618934814 l -13.536082425369075 -1.226659233460283 a34.591549591618275,34.591549591618275 0 0,0 0.058843313262777794,-0.5925441342360126 l 13.512961986424068 1.4594788984007259" fill="#ffa30f" stroke="none" /><path d="M 79.12142395522702 97.74499172005258 l -10.173472246333619 -1.0987944820614832 a31.232638313784435,31.232638313784435 0 0,0 0.06233089745225189,-0.534013064533292 l 10.153050995877777 1.273751284919637" fill="#ff760a" stroke="none" /><path d="M 79.16333360222342 97.38593545837743 l -19.959203494933117 -2.503982409619093 a41.115658877099506,41.115658877099506 0 0,0 0.09414311334210639,-0.7014755442662436 l 19.913144382533176 2.8471762959499958" fill="#fff717" stroke="none" /><path d="M 79.21141760316559 97.0276538004421 l -9.44306288230749 -1.350166718183104 a30.53909779623329,30.53909779623329 0 0,0 0.0788840988155452,-0.5197476504342134 l 9.418422890052643 1.5125134810094096" fill="#ff6d0a" stroke="none" /><path d="M 79.26566170972629 96.67025291283419 l -9.444759598144502 -1.5167429179862113 a30.565771947208653,30.565771947208653 0 0,0 0.08789571757568183,-0.5187655006229787 l 9.417252019048597 1.679094206925018" fill="#ff6d0a" stroke="none" /><path d="M 79.32604984820605 96.31383870115002 l -9.458458398248025 -1.6864412963373183 a30.60762819416845,30.60762819416845 0 0,0 0.09694496343672494,-0.5178838711553666 l 9.42802771090144 1.8490032449552576" fill="#ff6d0a" stroke="none" /><path d="M 79.46518482838121 95.60439243477599 l -9.355585138427973 -2.0026223984917153 a30.56752160976473,30.56752160976473 0 0,0 0.11456359648214266,-0.5135661393656367 l 9.319727154943793 2.163366707407311" fill="#ff6d0a" stroke="none" /><path d="M 79.62865764111835 94.90015583598534 l -39.729581124640575 -9.946063880709731 a61.95563212866523,61.95563212866523 0 0,0 0.2678951742179353,-1.0323093875809342 l 39.552489618552336 10.628469693839529" fill="#31ff41" stroke="none" /><path d="M 79.91906864156998 93.8553929516997 l -9.205701702996633 -2.816872313297209 a30.627030355928845,30.627030355928845 0 0,0 0.15859626665104845,-0.5027935056218867 l 9.15584995257738 2.9749159853455103" fill="#ff6e0a" stroke="none" /><path d="M 80.02781315780177 93.51064311812611 l -9.191020365743572 -2.986343545307855 a30.66401071678395,30.66401071678395 0 0,0 0.16742945012370575,-0.5005927450472238 l 9.138253621848095 3.144109393277401" fill="#ff6e0a" stroke="none" /><path d="M 80.2630227832202 92.82701384747504 l -18.717496197915903 -6.802477378524055 a40.915279621545054,40.915279621545054 0 0,0 0.2462620763969599,-0.6598599309424854 l 18.597629533017315 7.123660446495882" fill="#fff517" stroke="none" /><path d="M 80.38941819471856 92.48833698450439 l -17.77939271993955 -6.810241942764497 a40.03907037669718,40.03907037669718 0 0,0 0.25206777907334643,-0.6414850033946823 l 17.65953139098451 7.115275951054943" fill="#ffea16" stroke="none" /><path d="M 80.52162464483688 92.15188598940014 l -9.11571127207805 -3.672849508571328 a30.827818451136725,30.827818451136725 0 0,0 0.20255097080315868,-0.49049324199873306 l 9.051138614388691 3.829217321023372" fill="#ff710a" stroke="none" /><path d="M 80.65960295795068 91.81776055985345 l -8.853253219221079 -3.745498993966843 a30.612952474523894,30.612952474523894 0 0,0 0.20949360332064662,-0.4835401201204456 l 8.787468906057752 3.897338258673888" fill="#ff6e0a" stroke="none" /><path d="M 80.95270993114464 91.15688171328213 l -8.755404281066149 -4.064886680762186 a30.65299994055471,30.65299994055471 0 0,0 0.22630935595010884,-0.47666521971230746 l 8.684136731274288 4.214994316115026" fill="#ff6e0a" stroke="none" /><path d="M 81.10775173730289 90.83032412892265 l -8.617108981609908 -4.182461251217521 a30.57849410496651,30.57849410496651 0 0,0 0.23391089985361732,-0.4715501006683064 l 8.543838068802877 4.330170940384789" fill="#ff6d0a" stroke="none" /><path d="M 81.26839172434947 90.50648371742162 l -17.625568459483873 -8.932955392694328 a40.76001911860966,40.76001911860966 0 0,0 0.32256812770125376,-0.6230989513459019 l 17.469190898622504 9.235027066300566" fill="#fff316" stroke="none" /><line stroke="#e1ed5e" stroke-width="0.3" x1="26.266209847984243" x2="21.928928074336255" y1="57.711370442889674" y2="55.22380399835377" /><path d="M 25.398753493254645 57.213857153982495 a86.0,86.0 0 0,1 29.58750427330803,-30.492523968695096" fill="none" id="id23" stroke="none" /><text fill="#e1ed5e" style="font-size:6.75px; font-family:Arial;" text-anchor="middle"><textPath startOffset="21.46611528233685" xlink:href="#id23">November</textPath></text><path d="M 81.78341655067845 89.55222093294921 l -8.348405220181904 -4.788070910515469 a30.624006066315882,30.624006066315882 0 0,0 0.2661960017318116,-0.4550152556614221 l 8.264749543979768 4.931065578530783" fill="#ff6e0a" stroke="none" /><path d="M 82.34701348167596 88.62581576622439 l -8.069887728329338 -5.199595528644695 a30.59994175030986,30.59994175030986 0 0,0 0.2891014952911013,-0.4403214114418691 l 7.979189597680316 5.33773500406423" fill="#ff6d0a" stroke="none" /><path d="M 83.17141714833178 87.43820079747576 l -7.74390574652928 -5.780486086594704 a30.66344118875073,30.66344118875073 0 0,0 0.3193729687382304,-0.4202573903809168 l 7.643256837566941 5.912928252856647" fill="#ff6e0a" stroke="none" /><path d="M 83.39014120810768 87.1503855733568 l -7.569166744222107 -5.85561114111938 a30.569768389978897,30.569768389978897 0 0,0 0.3255620932193425,-0.4134307970403667 l 7.467250570408794 5.985034332112795" fill="#ff6d0a" stroke="none" /><path d="M 83.6137871275137 86.86637796730984 l -15.091842749149633 -12.09617865864159 a40.34118030800697,40.34118030800697 0 0,0 0.43895335865703483,-0.5381049152841645 l 14.881390898416205 12.354167743533836" fill="#ffee16" stroke="none" /><path d="M 84.07557802195018 86.31012108654704 l -15.209813178040028 -13.075545284508275 a41.057624520319116,41.057624520319116 0 0,0 0.46533565228579943,-0.5319590919637824 l 14.982485662176385 13.335419932675" fill="#fff717" stroke="none" /><path d="M 84.31358615837235 86.03803664274999 l -14.301256463120616 -12.729080127341998 a40.145637030724316,40.145637030724316 0 0,0 0.4638854346202501,-0.5122338831271751 l 14.080027387884321 12.973366797738729" fill="#ffeb16" stroke="none" /><path d="M 85.83668400450813 84.49514656593479 l -13.2531089968922 -14.508432390261612 a40.650432781653876,40.650432781653876 0 0,0 0.5206914175111155,-0.467481895748915 l 13.001406591785113 14.734413294779806" fill="#fff216" stroke="none" /><path d="M 86.37877921826538 84.01681056812374 l -6.291687683536485 -7.382688945693766 a30.69997061727682,30.69997061727682 0 0,0 0.40515549867404943,-0.3393060784911389 l 6.163674647903324 7.489896181578717" fill="#ff6f0a" stroke="none" /><path d="M 86.65592168130627 83.78471172551755 l -6.172517449021516 -7.500641664770653 a30.713886814337943,30.713886814337943 0 0,0 0.41112234287547605,-0.3324323429627865 l 6.04249170758154 7.6057801049975735" fill="#ff6f0a" stroke="none" /><path d="M 86.93701828274178 83.55741782278169 l -6.075457652606807 -7.647274862615697 a30.766882742872085,30.766882742872085 0 0,0 0.41750285528313424,-0.32586760086904143 l 5.942922242164247 7.7507208527079605" fill="#ff700a" stroke="none" /><path d="M 87.51073957382395 83.11751280151077 l -10.609296066689183 -14.34122589480685 a38.838944004524066,38.838944004524066 0 0,0 0.5408871943807749,-0.3929775495711364 l 10.360863555954626 14.521722679194655" fill="#ffdb14" stroke="none" /><line stroke="#e1ed5e" stroke-width="0.3" x1="56.762969772571076" x2="54.21961505331055" y1="26.818313649435495" y2="22.513508569990535" /><path d="M 56.25429882871897 25.957352633546506 a86.0,86.0 0 0,1 42.265352541879196,-11.944610805530505" fill="none" id="id24" stroke="none" /><text fill="#e1ed5e" style="font-size:6.75px; font-family:Arial;" text-anchor="middle"><textPath startOffset="22.20632615414155" xlink:href="#id24">December</textPath></text><path d="M 91.56875222667455 80.76684994638697 l -0.8184844770085354 -1.867106172903892 a23.03862755303654,23.03862755303654 0 0,0 0.36457667305208424,-0.15609270492074284 l 0.7862240461661429 1.880918405787421" fill="#ff0100" stroke="none" /><path d="M 91.90106846888425 80.62456947434976 l -1.4698875402094338 -3.5164766866381045 a24.81132229922008,24.81132229922008 0 0,0 0.3954642757328796,-0.1613198075880555 l 1.4091393948881739 3.541257380409737" fill="#ff1b02" stroke="none" /><path d="M 92.23578459929587 80.48803036053334 l -1.420557420295661 -3.569951608170773 a24.84220481872559,24.84220481872559 0 0,0 0.39867815440174703,-0.1546809300711272 l 1.3588961008942377 3.593875242132452" fill="#ff1c02" stroke="none" /><path d="M 92.57280143429618 80.3572730644239 l -2.7293888343537835 -7.218420121657448 a28.717198485321227,28.717198485321227 0 0,0 0.46387529907229325,-0.1708491874530125 l 2.604731209508921 7.264332576916782" fill="#ff5307" stroke="none" /><path d="M 92.91201910852362 80.23233633223022 l -2.6732564488282984 -7.45544255652294 a28.920222456144487,28.920222456144487 0 0,0 0.47004725575120043,-0.16399025791178973 l 2.5445271890138126 7.50035366760694" fill="#ff5608" stroke="none" /><path d="M 93.25333710446033 80.11325718540243 l -3.15146064854463 -9.289375855634589 a30.809393865401276,30.809393865401276 0 0,0 0.5036854357281711,-0.16605716902167508 l 2.9910923905740496 9.342246748915498" fill="#ff700a" stroke="none" /><path d="M 93.59665428221793 80.00007090966166 l -0.6018572907865544 -1.8798146576417423 a22.973812388642262,22.973812388642262 0 0,0 0.37766171815041816,-0.11734133419237808 l 0.5694101999254075 1.8898961267166456" fill="#ff0000" stroke="none" /><path d="M 93.94186890950719 79.89281104454417 l -2.814714395652133 -9.342154100599894 a30.75696983537649,30.75696983537649 0 0,0 0.5082366383838711,-0.14836821151051482 l 2.653487539544841 9.389220641029107" fill="#ff700a" stroke="none" /><path d="M 94.28887869178378 79.79150937346287 l -1.0425859563957398 -3.6891334275935943 a24.83362634108517,24.83362634108517 0 0,0 0.41235894873170303,-0.1127132776379068 l 0.9789291184403142 3.706533246057797" fill="#ff1b02" stroke="none" /><path d="M 94.63758080256005 79.69619591428918 l -2.632204585848986 -9.966353665543673 a31.30808936556432,31.30808936556432 0 0,0 0.5222354960482323,-0.13312945600106527 l 2.4602602011157546 10.010186117713602" fill="#ff770b" stroke="none" /><path d="M 95.33964822691252 79.52364482259891 l -2.1735733915916007 -9.550107575010827 a30.794333871321427,30.794333871321427 0 0,0 0.5178687172144206,-0.11318604333310578 l 2.008861950223659 9.5861071164398" fill="#ff700a" stroke="none" /><path d="M 95.692805502759 79.44645832069477 l -2.0065159710688962 -9.574912316584097 a30.782895901134204,30.782895901134204 0 0,0 0.5195472533923031,-0.10421629138369949 l 1.8414023082094566 9.608032564045008" fill="#ff700a" stroke="none" /><path d="M 96.04723909329186 79.375362276772 l -0.725358503068205 -3.784761258859849 a24.853642788912815,24.853642788912815 0 0,0 0.4208607921001567,-0.07690961968182122 l 0.660102589865155 3.7966863598924068" fill="#ff1c02" stroke="none" /><path d="M 96.75951476605007 79.25152402106235 l -0.5959453924581657 -3.815773801599713 a24.86203063371678,24.86203063371678 0 0,0 0.42340158876906187,-0.06239838806456357 l 0.5301748232604551 3.8254666738252454" fill="#ff1c02" stroke="none" /><path d="M 97.11714578562143 79.19881850522333 l -0.5251763834933023 -3.789400523733897 a24.825619761954112,24.825619761954112 0 0,0 0.4237913828726101,-0.05502028439099475 l 0.45987027211283443 3.797879131289028" fill="#ff1b02" stroke="none" /><path d="M 97.47563105711357 79.15227682838746 l -1.4669192544862963 -12.114681817337848 a33.203170392751176,33.203170392751176 0 0,0 0.5679849692436446,-0.06381972926936452 l 1.2581675817329336 12.13813750007781" fill="#ff910d" stroke="none" /><path d="M 98.19473922651362 79.07773832637324 l -0.32586968132679917 -3.776701318920057 a24.790733952883073,24.790733952883073 0 0,0 0.4254677966441591,-0.03302448964226154 l 0.26081169532030585 3.7817510707507807" fill="#ff1b02" stroke="none" /><path d="M 98.91598698831166 79.02799685794201 l -0.19883519472875655 -3.846791766925852 a24.85192709338473,24.85192709338473 0 0,0 0.4274048239318111,-0.01840495078843575 l 0.1325895384076213 3.8496444442384803" fill="#ff1c02" stroke="none" /><path d="M 99.27714615592234 79.0124445844662 l -0.33786512635207444 -9.809677461615122 a30.815494116167795,30.815494116167795 0 0,0 0.5302808950900935,-0.013695591039147022 l 0.1689575960671019 9.814039844796628" fill="#ff700a" stroke="none" /><path d="M 99.63851952072746 79.00311137660856 l -0.2014437620649715 -11.701025307001888 a32.70275919706005,32.70275919706005 0 0,0 0.5629242413375044,-0.004845266666717431 l 2.866349318374367e-15 11.702759197060047" fill="#ff8a0c" stroke="none" /></svg>