<?xml version="1.0" encoding="utf-8" ?>
<svg baseProfile="full" height="200mm" version="1.1" viewBox="0,0,200,200" width="200mm" xmlns="http://www.w3.org/2000/svg" xmlns:ev="http://www.w3.org/2001/xml-events" xmlns:xlink="http://www.w3.org/1999/xlink"><defs /><rect fill="#1a1a1a" height="200" width="200" x="0" y="0" /><text alignment-baseline="middle" fill="#e1ed5e" style="dominant-baseline: central; font-size:9.0px; font-family:Arial;" text-anchor="middle" x="100.0" y="100.0">2024</text><line stroke="#e1ed5e" stroke-width="0.3" x1="100.0" x2="100.0" y1="15.0" y2="10.0" /><path d="M 100.0 14.0 a86.0,86.0 0 0,1 42.35913384403234,11.155469271406648" fill="none" id="id37" stroke="none" /><text fill="#e1ed5e" style="font-size:6.75px; font-family:Arial;" text-anchor="middle"><textPath startOffset="22.145653131862478" xlink:href="#id37">January</textPath></text><path d="M 100.0 79.0 l 0.0 -28.662382145625635 a49.662382145625635,49.662382145625635 0 0,0 0.8525208283161014,0.007317865982988596 l -0.4920279034672466 28.658158677837083" fill="#efff19" stroke="none" /><path d="M 100.72087961077811 79.0123766808444 l 1.0420401779422086 -30.337862815221893 a51.35575345676119,51.35575345676119 0 0,0 0.8808104495266637,0.03782579059677861 l -1.5626763880697085 30.31550445619928" fill="#d6ff1c" stroke="none" /><path d="M 101.44090949804482 79.04949213459386 l 2.0766957805013218 -30.19470087641514 a51.26603089902832,51.26603089902832 0 0,0 0.8774571914248424,0.06792073604340691 l -2.5947219667013974 30.15460237337668" fill="#d8ff1c" stroke="none" /><path d="M 101.80034050326958 79.07731436759882 l 5.361539361979655 -62.30921449176981 a83.53946206125724,83.53946206125724 0 0,0 1.4277309242079224,0.13520760292873532 l -6.43036984957259 62.207995133335885" fill="#4cd7ff" stroke="none" /><path d="M 102.51750503828377 79.15144685158666 l 3.7509331931386902 -31.06310765781471 a52.28875448432514,52.28875448432514 0 0,0 0.8902090187549313,0.11525538008327346 l -4.2836200337844135 30.99414068153104" fill="#c9ff1d" stroke="none" /><path d="M 103.23170211078529 79.25015418208739 l 4.831036652172293 -31.018720858804926 a52.392673649294224,52.392673649294224 0 0,0 0.887488223440597,0.14603584943827355 l -5.36280237866596 30.931219010870986" fill="#c8ff1d" stroke="none" /><path d="M 103.94208987418118 79.37332000966035 l 5.892881064013886 -30.834043821437326 a52.39210578500478,52.39210578500478 0 0,0 0.8819425488301463,0.17641321000766647 l -6.421320098374989 30.7283412147668" fill="#c8ff1d" stroke="none" /><path d="M 104.64783097203109 79.52079915486377 l 6.972751919849444 -30.72323151792773 a52.50454291431558,52.50454291431558 0 0,0 0.8772455186294138,0.20702755378083199 l -7.499129592218743 30.59900782050067" fill="#c6ff1e" stroke="none" /><path d="M 105.3480935250658 79.69241777938227 l 7.962268172816821 -30.234029159034904 a52.2649041841683,52.2649041841683 0 0,0 0.8656526549342825,0.23593748048871035 l -8.480102228685796 30.092891184402053" fill="#caff1d" stroke="none" /><path d="M 106.04205211174951 79.88797359093562 l 9.028440743176594 -30.05274289282207 a52.3796127706369,52.3796127706369 0 0,0 0.8589243001964573,0.2660969437970519 l -9.54300567624468 29.89332936121837" fill="#c8ff1d" stroke="none" /><path d="M 109.06512990194946 81.05736502329252 l 13.025557704022505 -27.218405872184714 a51.1746047484271,51.1746047484271 0 0,0 0.7891605355163271,0.38601796325977505 l -13.4908784888009 26.99079415882772" fill="#d9ff1c" stroke="none" /><path d="M 109.3889696526874 81.21577127319529 l 11.945712474858787 -23.89942706526532 a47.71858268284329,47.71858268284329 0 0,0 0.7295779960890857,0.37252772325212213 l -12.354217692661452 23.690841390340363" fill="#fff316" stroke="none" /><line stroke="#e1ed5e" stroke-width="0.3" x1="143.13028292997686" x2="145.6673583964461" y1="26.7553504044142" y2="22.446841604673864" /><path d="M 143.63769802327073 25.89364864446614 a86.0,86.0 0 0,1 29.32050498858742,28.57503671076993" fill="none" id="id38" stroke="none" /><text fill="#e1ed5e" style="font-size:6.75px; font-family:Arial;" text-anchor="middle"><textPath startOffset="20.669276256404974" xlink:href="#id38">February</textPath></text><path d="M 110.65571695917076 81.90426304109057 l 16.204869194718068 -27.51941061542357 a52.93611977429647,52.93611977429647 0 0,0 0.7790866960565385,0.46781917600300016 l -16.67488864733204 27.23717743888465" fill="#c0ff1e" stroke="none" /><path d="M 111.8722381534696 82.67804972795209 l 17.754101630487348 -25.903764866636443 a52.40403093508319,52.40403093508319 0 0,0 0.7376613707948899,0.5149449264839491 l -18.196158092455995 25.595175124347367" fill="#c8ff1d" stroke="none" /><path d="M 112.7482090630111 83.31218511350987 l 19.048197436112787 -24.93470189922388 a52.377909177768565,52.377909177768565 0 0,0 0.7098205748948695,0.5519607723496148 l -19.473427955642883 24.604040075253476" fill="#c8ff1d" stroke="none" /><path d="M 115.8921839302757 86.27271002978787 l 8.991513521655245 -7.766655226516963 a32.88142452813182,32.88142452813182 0 0,0 0.36530548104970195,0.43032893812898515 l -9.12351356621206 7.611159505938426" fill="#ff0100" stroke="none" /><path d="M 116.7966241395341 87.39550010848427 l 25.031424157321776 -18.784047345135033 a52.29556885579853,52.29556885579853 0 0,0 0.5326626934747755,0.7226592445308501 l -25.35018887038038 18.35158179133531" fill="#c9ff1d" stroke="none" /><path d="M 117.01052211995028 87.68569379921539 l 25.35524869650536 -18.355244715247128 a52.30181536298245,52.30181536298245 0 0,0 0.5202409308952752,0.7317840208609036 l -25.666604725930593 17.91728346767672" fill="#c9ff1d" stroke="none" /><path d="M 117.21940702142032 87.97951657250589 l 10.168486520896785 -7.098393316046668 a33.401020352977234,33.401020352977234 0 0,0 0.32416527375128457,0.4729668221997034 l -10.288841531463394 6.922791758776916" fill="#ff0a01" stroke="none" /><path d="M 117.42321728460499 88.27688183743584 l 25.961444954127085 -17.468018787612614 a52.291025941482935,52.291025941482935 0 0,0 0.4947118532540514,0.7490567993091588 l -26.25748124630186 17.019782109964396" fill="#c9ff1d" stroke="none" /><path d="M 117.62189284568427 88.57770195909679 l 9.911063870239959 -6.424231858612953 a32.8110093562402,32.8110093562402 0 0,0 0.3023023728728513,0.475269541245639 l -10.0198839347387 6.253148642688642" fill="#ff0000" stroke="none" /><path d="M 117.81537515405839 88.88188828441811 l 26.641165511562324 -16.626057651296918 a52.40346307079375,52.40346307079375 0 0,0 0.4697147868286505,0.7672438038479354 l -26.92264826284638 16.166276731324427" fill="#c8ff1d" stroke="none" /><line stroke="#e1ed5e" stroke-width="0.3" x1="172.87174338648825" x2="177.1583165268699" y1="56.24261187166439" y2="53.66864786411523" /><path d="M 173.72905801456457 55.72781907015455 a86.0,86.0 0 0,1 12.242430191666344,42.057860355516425" fill="none" id="id39" stroke="none" /><text fill="#e1ed5e" style="font-size:6.75px; font-family:Arial;" text-anchor="middle"><textPath startOffset="22.145653131862474" xlink:href="#id39">March</textPath></text><path d="M 118.00360718960297 89.18935116829356 l 26.81457014645875 -16.101378927770163 a52.277397198536164,52.277397198536164 0 0,0 0.45537668160003314,0.773329160208522 l -27.08702053818855 15.638698599268086" fill="#caff1d" stroke="none" /><path d="M 118.18653347947321 89.5 l 49.23307818040623 -28.424730940491436 a77.84946188098286,77.84946188098286 0 0,0 0.658260332433466,1.1630829341231024 l -49.71377187786107 27.575391236269216" fill="#44ffe5" stroke="none" /><path d="M 118.36410011445183 89.81374322990088 l 10.845449329369258 -6.015787921408433 a33.40215608155613,33.40215608155613 0 0,0 0.2738255477292427,0.5038081662076089 l -10.947120226713842 5.828724921726221" fill="#ff0a01" stroke="none" /><path d="M 118.70294669586156 90.45014215332178 l 27.93658045427341 -14.264617035968659 a52.36768762055849,52.36768762055849 0 0,0 0.40193468740867927,0.8041386201903828 l -28.177335054893828 13.782946559614526" fill="#c8ff1d" stroke="none" /><path d="M 119.83427380445688 93.10060997987247 l 30.108077940374027 -10.473152408552547 a52.87762975248328,52.87762975248328 0 0,0 0.2908636718624132,0.8598867627737281 l -30.283427033808806 9.954763971304656" fill="#c1ff1e" stroke="none" /><path d="M 119.94978838288452 93.4421083053983 l 30.378372935867198 -9.985974575176494 a52.977573867426216,52.977573867426216 0 0,0 0.27658149373269647,0.866387589808386 l -30.545319145377153 9.463017951676722" fill="#c0ff1e" stroke="none" /><path d="M 120.05942366710727 93.78553927170692 l 38.249452683908764 -11.849778215344582 a61.04295037046384,61.04295037046384 0 0,0 0.30150473572668807,1.00361120613328 l -38.447233739639074 11.191429405620578" fill="#56ff2a" stroke="none" /><path d="M 120.16314734710363 94.1308016681162 l 30.54023829622639 -8.889818269829478 a52.80778244488111,52.80778244488111 0 0,0 0.24588688560275665,0.8725658126013006 l -30.68834367390373 8.364244533325163" fill="#c2ff1e" stroke="none" /><path d="M 120.26092885502905 94.47779374421319 l 30.0840331911173 -8.19953702399237 a52.18142813361936,52.18142813361936 0 0,0 0.22813352425229752,0.8662601503356877 l -30.22035619617433 7.6818963692838835" fill="#cbff1d" stroke="none" /><path d="M 120.35273937422433 94.82641323984039 l 30.51975291390732 -7.758001844149852 a52.49034630707936,52.49034630707936 0 0,0 0.21449173574414,0.875199477320373 l -30.648432176167752 7.232946542221384" fill="#c7ff1e" stroke="none" /><path d="M 120.43855184770803 95.1765574152323 l 30.333403389418095 -7.158600606327379 a52.1666636620937,52.1666636620937 0 0,0 0.1982063404290213,0.8733337074544174 l -30.45182059140478 6.636832564933935" fill="#cbff1d" stroke="none" /><path d="M 120.51834098615036 95.52812308129327 l 31.692442099355763 -6.90722024832422 a53.436408213300645,53.436408213300645 0 0,0 0.18764395557011412,0.8979442552795853 l -31.806343765750245 6.3621595417592305" fill="#b9ff1f" stroke="none" /><path d="M 120.592083275326 95.88100663000786 l 30.68989209820246 -6.138837940197128 a52.29784031295632,52.29784031295632 0 0,0 0.16853279807683036,0.8818348147197691 l -30.790751188561448 5.6111005604440445" fill="#c9ff1d" stroke="none" /><path d="M 120.82617615685814 97.30363454192243 l 30.65188429626673 -3.9685000942540976 a51.907717546105175,51.907717546105175 0 0,0 0.10682586949358651,0.8846714441059307 l -30.715492252019978 3.441734973224754" fill="#cfff1d" stroke="none" /><path d="M 120.9064616781168 98.02013634271609 l 20.082391831544676 -1.9018233860313458 a41.17224315408051,41.17224315408051 0 0,0 0.060594518157160514,0.7042001511084385 l -20.112079972399577 1.5568021875472453" fill="#ff8d0d" stroke="none" /><path d="M 120.93736805541906 98.37931529534042 l 39.72196657893708 -3.0747314324839445 a60.84079068342016,60.84079068342016 0 0,0 0.07166476957586508,1.04199002137818 l -39.76889530967801 2.3923979869514302" fill="#59ff2a" stroke="none" /><path d="M 120.98066250479742 99.09900007780936 l 58.0117909116623 -2.4912759111203386 a79.06525932469219,79.06525932469219 0 0,0 0.04659320627706846,1.3565103631095188 l -58.04600880493622 1.4950592834466996" fill="#46fff4" stroke="none" /><path d="M 120.99303781780057 99.45929381324524 l 25.04302779828033 -0.6450195623484247 a46.05133312902237,46.05133312902237 0 0,0 0.01357103928769391,0.7904450023853341 l -25.05041026916669 0.2150276439940242" fill="#ffda14" stroke="none" /><line stroke="#e1ed5e" stroke-width="0.3" x1="184.99686870605535" x2="189.99668451229388" y1="99.2704041080226" y2="99.22748670261217" /><path d="M 185.99683186730306 99.26182062694052 a86.0,86.0 0 0,1 -10.086455211305974,41.156179273409016" fill="none" id="id40" stroke="none" /><text fill="#e1ed5e" style="font-size:6.75px; font-family:Arial;" text-anchor="middle"><textPath startOffset="21.40746469413373" xlink:href="#id40">April</textPath></text><path d="M 120.86939407059847 102.33845913500097 l 37.624615711296094 4.215916667889088 a58.86008004182366,58.86008004182366 0 0,0 -0.12113380295222989,1.0031616582744272 l -37.5466998220842 -4.861172003086924" fill="#72ff27" stroke="none" /><path d="M 119.83427380445688 106.89939002012753 l 18.849192873316678 6.556727737034539 a40.957022588379516,40.957022588379516 0 0,0 -0.23669225223010065,0.6620703552129447 l -18.73386045104263 -6.879333048628404" fill="#ff8a0c" stroke="none" /><path d="M 119.58574465831526 107.57618678355244 l 29.267926158924976 11.321462584936508 a52.38131636350525,52.38131636350525 0 0,0 -0.331601981161096,0.8358536109726237 l -29.069265502797755 -11.822217213122697" fill="#c8ff1d" stroke="none" /><path d="M 119.31412917781788 108.2440532568976 l 28.220682590746815 12.045731292473684 a51.68397901606244,51.68397901606244 0 0,0 -0.3553054958316924,0.8130085073292733 l -28.009743212898154 -12.528401869578802" fill="#d2ff1c" stroke="none" /><path d="M 119.0197475246899 108.90220220490707 l 28.50390548843105 13.341267015147238 a52.47160678552758,52.47160678552758 0 0,0 -0.38884144685711997,0.8125290725337833 l -28.27068478361402 -13.828608589746125" fill="#c7ff1e" stroke="none" /><line stroke="#e1ed5e" stroke-width="0.3" x1="174.33088141563837" x2="178.70328620479359" y1="141.23008692659167" y2="143.65538615756765" /><path d="M 175.20536237346943 141.71514677278685 a86.0,86.0 0 0,1 -30.301960400862466,31.631185727798858" fill="none" id="id41" stroke="none" /><text fill="#e1ed5e" style="font-size:6.75px; font-family:Arial;" text-anchor="middle"><textPath startOffset="22.145653131862474" xlink:href="#id41">May</textPath></text><path d="M 116.35404254752997 113.17365903436017 l 24.328963693907102 19.597690994833975 a52.24048601972201,52.24048601972201 0 0,0 -0.5685585354441655,0.6935489669171562 l -23.98895833922431 -20.012442243449623" fill="#caff1d" stroke="none" /><path d="M 116.1254893667686 113.45245675266167 l 24.056110329340292 20.06846282194767 a52.32793712029709,52.32793712029709 0 0,0 -0.5813520100296752,0.6848312060261205 l -23.708063755803504 -20.478460810423346" fill="#c9ff1d" stroke="none" /><path d="M 115.6541949942343 113.99807769240083 l 23.472826340573086 20.989546054370347 a52.48864271421103,52.48864271421103 0 0,0 -0.6063745429598433,0.6665118438980315 l -23.109054096771363 -21.38939547382605" fill="#c7ff1e" stroke="none" /><path d="M 114.65682725009322 115.03919595460226 l 21.851675116907188 22.42174369745563 a52.308629734455835,52.308629734455835 0 0,0 -0.6484464545982241,0.6211970350528632 l -21.463556176443653 -22.79355286281407" fill="#c9ff1d" stroke="none" /><path d="M 114.39649973595853 115.28858382429668 l 20.719996987975424 22.00391877190874 a51.22400894160913,51.22400894160913 0 0,0 -0.6453498933284244,0.597326226750304 l -20.339217323333035 -22.356362744791422" fill="#d8ff1c" stroke="none" /><path d="M 111.27062007382361 117.71928675628689 l 16.781278934169446 26.38295778085853 a52.26774350561554,52.26774350561554 0 0,0 -0.7612071843445548,0.4750495816709372 l -16.325907621035178 -26.667143159371015" fill="#caff1d" stroke="none" /><line stroke="#e1ed5e" stroke-width="0.3" x1="143.1302829299769" x2="145.66735839644613" y1="173.24464959558577" y2="177.55315839532614" /><path d="M 143.63769802327073 174.10635135553383 a86.0,86.0 0 0,1 -40.68552437913181,11.842963189579606" fill="none" id="id42" stroke="none" /><text fill="#e1ed5e" style="font-size:6.75px; font-family:Arial;" text-anchor="middle"><textPath startOffset="21.407464694133747" xlink:href="#id42">June</textPath></text><path d="M 110.02825361518725 118.45085714620011 l 5.840308398360075 10.74550964533842 a33.230093201853215,33.230093201853215 0 0,0 -0.5035327290135668,0.2681028166059737 l -5.654986853559954 -10.844182929666962" fill="#ff0701" stroke="none" /><path d="M 109.71004243097381 118.62028667847754 l 14.619415797581432 28.034657434090047 a52.61754790791585,52.61754790791585 0 0,0 -0.8044791568292012,0.4107727896179235 l -14.136009419038649 -28.281488175380808" fill="#c5ff1e" stroke="none" /><path d="M 109.3889696526874 118.78422872680471 l 14.163683276337316 28.33685442796022 a52.67944511546574,52.67944511546574 0 0,0 -0.8123665892954723,0.39736920703333645 l -13.675156437779775 -28.57581738509078" fill="#c4ff1e" stroke="none" /><path d="M 109.06512990194946 118.94263497670748 l 5.380393436693643 11.242952942179315 a33.46405328910602,33.46405328910602 0 0,0 -0.5203043370713551,0.24352870145550776 l -5.186600385750781 -11.333657875205358" fill="#ff0c01" stroke="none" /><path d="M 108.73861861582097 119.09545874513695 l 13.342339859704149 29.155420502424715 a53.06332137513295,53.06332137513295 0 0,0 -0.8315441840247989,0.37193913669927314 l -12.839882272823724 -29.38016339003384" fill="#bfff1e" stroke="none" /><path d="M 108.4095320186766 119.2426549942271 l 5.393555562878933 12.341510640327698 a34.46860521714049,34.46860521714049 0 0,0 -0.5442181189429177,0.23229435376702412 l -5.180902368765584 -12.432279643754127" fill="#ff1d02" stroke="none" /><path d="M 108.07796709384702 119.3841803445677 l 15.353758605201278 36.84343131291986 a60.91461304104847,60.91461304104847 0 0,0 -0.9686744415889871,0.39395146245312723 l -14.719029702421851 -37.101570031952285" fill="#58ff2a" stroke="none" /><path d="M 103.58742460773223 120.69131181640829 l 2.9821263326683285 17.20011221759678 a38.45671612193759,38.45671612193759 0 0,0 -0.6514247182511814,0.10719168949205046 l -2.686424111364075 -17.2487699055845" fill="#ff6108" stroke="none" /><path d="M 102.875027216393 120.80226474461374 l 4.355766522674462 31.516156735406074 a52.81573254493338,52.81573254493338 0 0,0 -0.8991807494237545,0.11641695023865867 l -3.814107951359932 -31.58628528184513" fill="#c2ff1e" stroke="none" /><path d="M 102.51750503828377 120.84855314841334 l 3.763118841545583 31.16402230727748 a52.390402192136435,52.390402192136435 0 0,0 -0.8937904860065365,0.10015108822558305 l -3.227592453938247 -31.224029156010037" fill="#c8ff1d" stroke="none" /><path d="M 102.15924093988457 120.88869738790638 l 3.2239723748444993 31.189008174649047 a52.35519460619062,52.35519460619062 0 0,0 -0.8947762953916337,0.08473624546899497 l -2.6880965160678505 -31.239756175623224" fill="#c8ff1d" stroke="none" /><path d="M 101.08105385017728 120.97215588758144 l 2.078930223248388 40.33069094034474 a61.38423680842242,61.38423680842242 0 0,0 -1.0528105144558146,0.04521221345556498 l -1.3862939481917436 -40.36043572222613" fill="#52ff2b" stroke="none" /><line stroke="#e1ed5e" stroke-width="0.3" x1="101.45913802915013" x2="101.54496967792366" y1="184.9874750549273" y2="189.98673829345242" /><path d="M 101.47630435890484 185.9873277026323 a86.0,86.0 0 0,1 -42.54439059252881,-10.42667462771756" fill="none" id="id43" stroke="none" /><text fill="#e1ed5e" style="font-size:6.75px; font-family:Arial;" text-anchor="middle"><textPath startOffset="22.145653131862474" xlink:href="#id43">July</textPath></text><path d="M 100.36049292484886 120.99690560180557 l 0.4997094422383405 29.105569801150786 a50.10985920571109,50.10985920571109 0 0,0 -0.8602023670871892,0.00738380275474 l -3.56492958999042e-15 -29.10985920571109" fill="#e8ff1a" stroke="none" /><path d="M 99.63950707515114 120.99690560180557 l -0.22880847466384768 13.326946556369458 a34.328910601936144,34.328910601936144 0 0,0 -0.5891277296854034,-0.015173840536767838 l 0.45754951841999497 -13.321054998482643" fill="#ff1b02" stroke="none" /><path d="M 98.91894614982273 120.97215588758144 l -2.054900741225887 39.86452540863648 a60.91745236249571,60.91745236249571 0 0,0 -1.0438804422069872,-0.0627972552193615 l 2.7389255355653206 -39.82337617559243" fill="#58ff2a" stroke="none" /><path d="M 98.19965949673042 120.92268563240118 l -3.41406172991174 39.67657238996134 a60.82318689044726,60.82318689044726 0 0,0 -1.0394984919664922,-0.09844158795173462 l 4.094659785263247 -39.612119046504425" fill="#59ff2a" stroke="none" /><path d="M 96.76829788921471 120.74984581791261 l -4.83217270869119 31.026015156608274 a52.40005588505706,52.40005588505706 0 0,0 -0.8876132723615004,-0.14605642619061865 l 5.364063484105754 -30.938492731921986" fill="#c8ff1d" stroke="none" /><path d="M 96.05791012581884 120.62667999033965 l -11.736406943920407 61.409840464109315 a83.52129040399487,83.52129040399487 0 0,0 -1.4059556995619833,-0.28123051599823023 l 12.788859129013348 -61.199320551448224" fill="#4cd7ff" stroke="none" /><path d="M 95.35216902796893 120.47920084513623 l -7.564968921711954 33.33264889950412 a55.18031944619712,55.18031944619712 0 0,0 -0.921952373334865,-0.21757824976086604 l 8.136053448786706 -33.19787450609702" fill="#a2ff22" stroke="none" /><path d="M 94.6519064749342 120.30758222061772 l -9.605135863450158 36.472265373260825 a58.71584251230372,58.71584251230372 0 0,0 -0.9724981945508835,-0.2650587074322206 l 10.229815458935738 -36.302006171684454" fill="#73ff27" stroke="none" /><path d="M 92.93061703081489 119.77432235084164 l -8.047443209617246 22.510130915344433 a44.905382992915214,44.905382992915214 0 0,0 -0.723641369234721,-0.26573113426037415 l 8.432673730506085 -22.36866893207534" fill="#ffc812" stroke="none" /><path d="M 92.25597844496254 119.51999308798841 l -8.914259349292141 22.46975678541702 a45.17341493753492,45.17341493753492 0 0,0 -0.7183552567229946,-0.29214882915945906 l 9.298669067205577 -22.313420699678268" fill="#ffcc13" stroke="none" /><path d="M 91.92203290615298 119.3841803445677 l -14.43173360737011 34.6309069695399 a58.51765787528618,58.51765787528618 0 0,0 -0.9239239445057947,-0.39436819199576284 l 15.024092627046336 -34.378064127884734" fill="#76ff27" stroke="none" /><path d="M 91.26138138417905 119.09545874513695 l -26.215855847462862 57.28637623541087 a84.0,84.0 0 0,0 -1.3060451445140404,-0.6112950737178937 l 27.19538970584839 -56.82790493012245" fill="#4dd2ff" stroke="none" /><path d="M 90.6110303473126 118.78422872680471 l -10.240596643502355 20.488053190739336 a43.90480611490689,43.90480611490689 0 0,0 -0.6712684799733168,-0.3427544688516581 l 10.590792345189254 -20.309240770214842" fill="#ffb911" stroke="none" /><line stroke="#e1ed5e" stroke-width="0.3" x1="58.13341422392154" x2="55.67067388415222" y1="173.97424548756322" y2="178.32567169271397" /><path d="M 57.64086615596768 174.84453072859336 a86.0,86.0 0 0,1 -31.369924170532247,-30.572349798747897" fill="none" id="id44" stroke="none" /><text fill="#e1ed5e" style="font-size:6.75px; font-family:Arial;" text-anchor="middle"><textPath startOffset="22.145653131862474" xlink:href="#id44">August</textPath></text><line stroke="#e1ed5e" stroke-width="0.3" x1="26.387840678322732" x2="22.057713659400548" y1="142.50000000000003" y2="145.00000000000006" /><path d="M 25.521815274538298 143.00000000000003 a86.0,86.0 0 0,1 -11.493303480769221,-40.785679425670985" fill="none" id="id45" stroke="none" /><text fill="#e1ed5e" style="font-size:6.75px; font-family:Arial;" text-anchor="middle"><textPath startOffset="21.40746469413373" xlink:href="#id45">September</textPath></text><line stroke="#e1ed5e" stroke-width="0.3" x1="15.003131293944662" x2="10.003315487706104" y1="100.72959589197737" y2="100.7725132973878" /><path d="M 14.003168132696942 100.73817937305945 a86.0,86.0 0 0,1 10.791469493833604,-42.45332614584628" fill="none" id="id46" stroke="none" /><text fill="#e1ed5e" style="font-size:6.75px; font-family:Arial;" text-anchor="middle"><textPath startOffset="22.145653131862435" xlink:href="#id46">October</textPath></text><line stroke="#e1ed5e" stroke-width="0.3" x1="26.387840678322718" x2="22.05771365940052" y1="57.49999999999999" y2="54.99999999999999" /><path d="M 25.521815274538284 56.99999999999999 a86.0,86.0 0 0,1 29.574782752854787,-30.34633250058573" fill="none" id="id47" stroke="none" /><text fill="#e1ed5e" style="font-size:6.75px; font-family:Arial;" text-anchor="middle"><textPath startOffset="21.40746469413373" xlink:href="#id47">November</textPath></text><line stroke="#e1ed5e" stroke-width="0.3" x1="56.869717070023135" x2="54.33264160355391" y1="26.7553504044142" y2="22.446841604673864" /><path d="M 56.362301976729285 25.89364864446614 a86.0,86.0 0 0,1 42.16139366436587,-11.88097634709845" fill="none" id="id48" stroke="none" /><text fill="#e1ed5e" style="font-size:6.75px; font-family:Arial;" text-anchor="middle"><textPath startOffset="22.145653131862474" xlink:href="#id48">December</textPath></text></svg>