<?xml version="1.0" encoding="utf-8" ?>
<svg baseProfile="full" height="200mm" version="1.1" viewBox="0,0,200,200" width="200mm" xmlns="http://www.w3.org/2000/svg" xmlns:ev="http://www.w3.org/2001/xml-events" xmlns:xlink="http://www.w3.org/1999/xlink"><defs /><rect fill="#1a1a1a" height="200" width="200" x="0" y="0" /><text alignment-baseline="middle" fill="#e1ed5e" style="dominant-baseline: central; font-size:9.0px; font-family:Arial;" text-anchor="middle" x="100.0" y="100.0">2024</text><line stroke="#e1ed5e" stroke-width="0.3" x1="100.0" x2="100.0" y1="15.0" y2="10.0" /><path d="M 100.0 14.0 a86.0,86.0 0 0,1 42.35913384403234,11.155469271406648" fill="none" id="id37" stroke="none" /><text fill="#e1ed5e" style="font-size:6.75px; font-family:Arial;" text-anchor="middle"><textPath startOffset="22.145653131862478" xlink:href="#id37">January</textPath></text><path d="M 100.0 79.0 l 0.0 -26.371388289931993 a47.37138828993199,47.37138828993199 0 0,0 0.8131928723232559,0.006980282780582887 l -0.45269994747440107 26.367502405345846" fill="#fff717" stroke="none" /><path d="M 100.72087961077811 79.0123766808444 l 0.9587495556581895 -27.912947225463153 a48.92940786200033,48.92940786200033 0 0,0 0.8391958219498777,0.036038679431909554 l -1.4377711382089036 27.89237597760541" fill="#f0ff19" stroke="none" /><path d="M 101.44090949804482 79.04949213459386 l 1.9107047875300849 -27.781228268628702 a48.84685685851717,48.84685685851717 0 0,0 0.836051183939386,0.06471564919413936 l -2.3873249662447047 27.744334852439508" fill="#f1ff19" stroke="none" /><path d="M 101.80034050326958 79.07731436759882 l 4.932989715514569 -57.32881799756117 a78.54066180129375,78.54066180129375 0 0,0 1.342298943453065,0.12711710552795483 l -5.916388222352648 57.23568913652803" fill="#45ffef" stroke="none" /><path d="M 102.51750503828377 79.15144685158666 l 3.4511198400496976 -28.580223003593296 a49.78783380328412,49.78783380328412 0 0,0 0.8476311802233052,0.10974282644733038 l -3.9412288421637944 28.51676858094557" fill="#e4ff1a" stroke="none" /><path d="M 103.23170211078529 79.25015418208739 l 4.444890265925514 -28.539384056373656 a49.883446674407026,49.883446674407026 0 0,0 0.8449840098732891,0.1390417972705232 l -4.934151778851873 28.458876260607465" fill="#e3ff1b" stroke="none" /><path d="M 103.94208987418118 79.37332000966035 l 5.421861096399308 -28.369468316784708 a49.88292419970145,49.88292419970145 0 0,0 0.8397042388851115,0.1679643650657978 l -5.908061820815377 28.272214555056053" fill="#e3ff1b" stroke="none" /><path d="M 104.64783097203109 79.52079915486377 l 6.41541751112902 -28.267513278005794 a49.98637419140819,49.98637419140819 0 0,0 0.8351719740424567,0.19709831181863266 l -6.899721638911362 28.153218822540932" fill="#e1ff1b" stroke="none" /><path d="M 105.3480935250658 79.69241777938227 l 7.3258413968207305 -27.8174130283766 a49.765889865649356,49.765889865649356 0 0,0 0.8242620044908823,0.22465627465431465 l -7.802284802246305 27.68755625957814" fill="#e4ff1a" stroke="none" /><path d="M 106.04205211174951 79.88797359093562 l 8.306794434645031 -27.65061703446232 a49.87142975617847,49.87142975617847 0 0,0 0.8177949518392652,0.2533549665404883 l -8.780230019355928 27.50394548011519" fill="#e3ff1b" stroke="none" /><path d="M 109.06512990194946 81.05736502329252 l 11.98442049095758 -25.042829526222565 a48.76273843091723,48.76273843091723 0 0,0 0.7519672885127265,0.3678248823729387 l -12.412548028732374 24.833410893752404" fill="#f3ff19" stroke="none" /><path d="M 109.3889696526874 81.21577127319529 l 10.9908876545512 -21.989137812860054 a45.58295737269863,45.58295737269863 0 0,0 0.6969260364839931,0.3558554000233386 l -11.366740912748773 21.797224461163882" fill="#ffdd14" stroke="none" /><line stroke="#e1ed5e" stroke-width="0.3" x1="143.13028292997686" x2="145.6673583964461" y1="26.7553504044142" y2="22.446841604673864" /><path d="M 143.63769802327073 25.89364864446614 a86.0,86.0 0 0,1 29.32050498858742,28.57503671076993" fill="none" id="id38" stroke="none" /><text fill="#e1ed5e" style="font-size:6.75px; font-family:Arial;" text-anchor="middle"><textPath startOffset="20.669276256404974" xlink:href="#id38">February</textPath></text><path d="M 110.65571695917076 81.90426304109057 l 14.909608543708838 -25.319774858984257 a50.38345496765632,50.38345496765632 0 0,0 0.7415178829507707,0.44526018317266247 l -15.342059183217044 25.060100675275674" fill="#dcff1b" stroke="none" /><path d="M 111.8722381534696 82.67804972795209 l 16.335010309251345 -23.833268218895178 a49.89389616851882,49.89389616851882 0 0,0 0.7023276489467073,0.4902792444787898 l -16.741733049371813 23.549344158611262" fill="#e3ff1b" stroke="none" /><path d="M 112.7482090630111 83.31218511350987 l 17.525668601403428 -22.94166278075714 a49.86986233206171,49.86986233206171 0 0,0 0.6758317562911952,0.5255308614238663 l -17.91691030232985 22.637430867712485" fill="#e3ff1b" stroke="none" /><path d="M 115.8921839302757 86.27271002978787 l 8.272818818373498 -7.1458638591826595 a31.93173826505225,31.93173826505225 0 0,0 0.3547546730430792,0.41790011282681283 l -8.394268054923689 7.002796963906294" fill="#ff0100" stroke="none" /><path d="M 116.7966241395341 87.39550010848427 l 23.03065399619831 -17.28263211613842 a49.7941034997512,49.7941034997512 0 0,0 0.5071837226300351,0.6880921272019253 l -23.32393973841217 16.88473367966762" fill="#e4ff1a" stroke="none" /><path d="M 117.01052211995028 87.68569379921539 l 23.328595130931312 -16.88810382483784 a49.79985072151268,49.79985072151268 0 0,0 0.4953541386278974,0.6967776308784555 l -23.61506436808917 16.485148967249884" fill="#e4ff1a" stroke="none" /><path d="M 117.21940702142032 87.97951657250589 l 9.355715969491882 -6.5310163482239965 a32.40980262066678,32.40980262066678 0 0,0 0.31454525723245075,0.45893093060104795 l -9.466450963539659 6.3694506825529" fill="#ff0901" stroke="none" /><path d="M 117.42321728460499 88.27688183743584 l 23.88633791757147 -16.071794164333383 a49.78992370210649,49.78992370210649 0 0,0 0.47104957274334913,0.7132290907407933 l -24.158711929235544 15.659385195253531" fill="#e4ff1a" stroke="none" /><path d="M 117.62189284568427 88.57770195909679 l 9.118869197977785 -5.910740843077112 a31.86695140155913,31.86695140155913 0 0,0 0.2936043484771068,0.461594802192077 l -9.218991238080783 5.753332366206363" fill="#ff0000" stroke="none" /><path d="M 117.81537515405839 88.88188828441811 l 24.51172818198497 -15.297131265136695 a49.89337369381324,49.89337369381324 0 0,0 0.44721577574160704,0.730493360103576 l -24.77071192218198 14.874100788908564" fill="#e3ff1b" stroke="none" /><line stroke="#e1ed5e" stroke-width="0.3" x1="172.87174338648825" x2="177.1583165268699" y1="56.24261187166439" y2="53.66864786411523" /><path d="M 173.72905801456457 55.72781907015455 a86.0,86.0 0 0,1 12.242430191666344,42.057860355516425" fill="none" id="id39" stroke="none" /><text fill="#e1ed5e" style="font-size:6.75px; font-family:Arial;" text-anchor="middle"><textPath startOffset="22.145653131862474" xlink:href="#id39">March</textPath></text><path d="M 118.00360718960297 89.18935116829356 l 24.67127252602776 -14.814390288643871 a49.777384309172334,49.777384309172334 0 0,0 0.43359963005341007,0.7363469657641447 l -24.921945866210937 14.38869215458617" fill="#e4ff1a" stroke="none" /><path d="M 118.18653347947321 89.5 l 45.29786166437741 -26.152732625642734 a73.30546525128545,73.30546525128545 0 0,0 0.6198383233434862,1.0951949255869127 l -45.74013335274227 25.371280929956704" fill="#3dffaf" stroke="none" /><path d="M 118.36410011445183 89.81374322990088 l 9.978568912745763 -5.534943967298841 a32.410847570077955,32.410847570077955 0 0,0 0.26569895867129695,0.48885615765779 l -10.072113221032401 5.362832976166448" fill="#ff0901" stroke="none" /><path d="M 118.70294669586156 90.45014215332178 l 25.703600172151273 -13.124441393302659 a49.860457787361085,49.860457787361085 0 0,0 0.3826910911175897,0.7656385368340954 l -25.9251111764806 12.681271000304815" fill="#e3ff1b" stroke="none" /><path d="M 119.83427380445688 93.10060997987247 l 27.70152913303181 -9.63602981016451 a50.329640072980595,50.329640072980595 0 0,0 0.2768479597830933,0.818451800440048 l -27.862862514387267 9.159076335250301" fill="#dcff1b" stroke="none" /><path d="M 119.94978838288452 93.4421083053983 l 27.95021935852529 -9.18779226504587 a50.42159562116437,50.42159562116437 0 0,0 0.26323742699478864,0.8245874908094576 l -28.103821501297336 8.706635740545025" fill="#dbff1b" stroke="none" /><path d="M 120.05942366710727 93.78553927170692 l 35.19216105206673 -10.902621452701597 a57.84230386465417,57.84230386465417 0 0,0 0.2856960293481114,0.9509891641020979 l -35.37413340141847 10.296894685008777" fill="#79ff26" stroke="none" /><path d="M 120.16314734710363 94.1308016681162 l 28.09914676612994 -8.179252102267554 a50.26537568419307,50.26537568419307 0 0,0 0.2340487728970493,0.8305565268787216 l -28.23541403110157 7.69568765148582" fill="#ddff1b" stroke="none" /><path d="M 120.26092885502905 94.47779374421319 l 27.679406288679186 -7.5441452688319925 a49.689086083927684,49.689086083927684 0 0,0 0.2172371805573263,0.8248849585121649 l -27.804832950041245 7.067879805947029" fill="#e5ff1a" stroke="none" /><path d="M 120.35273937422433 94.82641323984039 l 28.080298787317194 -7.1379021445817985 a49.973312323768454,49.973312323768454 0 0,0 0.20420635898459422,0.8332316302480015 l -28.19869267281808 6.6548146897257014" fill="#e1ff1b" stroke="none" /><path d="M 120.43855184770803 95.1765574152323 l 27.908844243065378 -6.58641124952042 a49.67550174158235,49.67550174158235 0 0,0 0.18874121360245227,0.8316286122234504 l -28.017796318225496 6.106348303357944" fill="#e6ff1a" stroke="none" /><path d="M 120.51834098615036 95.52812308129327 l 29.159254531321334 -6.3551238081737065 a50.843755183280805,50.843755183280805 0 0,0 0.17853975702383773,0.8543773694786783 l -29.26405199916954 5.853629987409624" fill="#d5ff1c" stroke="none" /><path d="M 120.592083275326 95.88100663000786 l 28.236838689324745 -5.648158556654088 a49.796193398573564,49.796193398573564 0 0,0 0.16047109702458356,0.8396525882638045 l -28.329636078631488 5.162603403356969" fill="#e4ff1a" stroke="none" /><path d="M 120.82617615685814 97.30363454192243 l 28.20186886379518 -3.6512965455028863 a49.43725327583347,49.43725327583347 0 0,0 0.10174166417305387,0.8425669306171197 l -28.2603926142279 3.1666359379623534" fill="#e9ff1a" stroke="none" /><path d="M 120.9064616781168 98.02013634271609 l 18.47719949058907 -1.749810002430665 a39.55986896666114,39.55986896666114 0 0,0 0.058221535062455435,0.6766224905429239 l -18.504514648349264 1.4323664645120793" fill="#ff800b" stroke="none" /><path d="M 120.93736805541906 98.37931529534042 l 36.546976415661284 -2.828967113805223 a57.656302869464255,57.656302869464255 0 0,0 0.06791374032656093,0.9874508793310549 l -36.59015411715291 2.201172810319834" fill="#7bff26" stroke="none" /><path d="M 120.98066250479742 99.09900007780936 l 53.374888931179626 -2.292147388717139 a74.42408359595291,74.42408359595291 0 0,0 0.04385815854631703,1.2768824326275274 l -53.40637177672279 1.3755586915254914" fill="#3fffbd" stroke="none" /><path d="M 120.99303781780057 99.45929381324524 l 23.04133015422804 -0.5934629315480092 a44.04897163708741,44.04897163708741 0 0,0 0.0129809559040255,0.7560756035704419 l -23.04812254173073 0.1978404120085009" fill="#ffc612" stroke="none" /><line stroke="#e1ed5e" stroke-width="0.3" x1="184.99686870605535" x2="189.99668451229388" y1="99.2704041080226" y2="99.22748670261217" /><path d="M 185.99683186730306 99.26182062694052 a86.0,86.0 0 0,1 -10.086455211305974,41.156179273409016" fill="none" id="id40" stroke="none" /><text fill="#e1ed5e" style="font-size:6.75px; font-family:Arial;" text-anchor="middle"><textPath startOffset="21.40746469413373" xlink:href="#id40">April</textPath></text><path d="M 120.86939407059847 102.33845913500097 l 34.6172675090613 3.8789370291006073 a55.83391109636756,55.83391109636756 0 0,0 -0.11490595969278197,0.9515861820707718 l -34.54557946310885 -4.472616888094787" fill="#92ff23" stroke="none" /><path d="M 119.83427380445688 106.89939002012753 l 17.342570540317617 6.032646281324313 a39.36185105324266,39.36185105324266 0 0,0 -0.22747369288462682,0.6362844040341282 l -17.236456677389047 -6.329465641739363" fill="#ff7d0b" stroke="none" /><path d="M 119.58574465831526 107.57618678355244 l 26.92853096635806 10.416534268519042 a49.872997180295236,49.872997180295236 0 0,0 -0.315722968026628,0.7958281249346532 l -26.74574932336531 -10.87726341066726" fill="#e3ff1b" stroke="none" /><path d="M 119.31412917781788 108.2440532568976 l 25.96499392919749 11.082911934397211 a49.231398241831144,49.231398241831144 0 0,0 -0.3384450403357116,0.77442848558322 l -25.770915006844813 -11.527002489756276" fill="#ecff1a" stroke="none" /><path d="M 119.0197475246899 108.90220220490707 l 26.225578725306992 12.274895050542916 a49.956070658483995,49.956070658483995 0 0,0 -0.3702000373943023,0.7735756963853003 l -26.01099942995278 -12.72328324899332" fill="#e2ff1b" stroke="none" /><line stroke="#e1ed5e" stroke-width="0.3" x1="174.33088141563837" x2="178.70328620479359" y1="141.23008692659167" y2="143.65538615756765" /><path d="M 175.20536237346943 141.71514677278685 a86.0,86.0 0 0,1 -30.301960400862466,31.631185727798858" fill="none" id="id41" stroke="none" /><text fill="#e1ed5e" style="font-size:6.75px; font-family:Arial;" text-anchor="middle"><textPath startOffset="22.145653131862474" xlink:href="#id41">May</textPath></text><path d="M 116.35404254752997 113.17365903436017 l 22.38434143414697 18.031240954958296 a49.743423453309006,49.743423453309006 0 0,0 -0.5413817929625536,0.6603977599661061 l -22.07151282194579 -18.412840996622894" fill="#e5ff1a" stroke="none" /><path d="M 116.1254893667686 113.45245675266167 l 22.133297330881334 18.46438383141913 a49.82388455796982,49.82388455796982 0 0,0 -0.5535325302175375,0.6520599287585092 l -21.813070237156683 -18.841610542627198" fill="#e3ff1b" stroke="none" /><path d="M 115.6541949942343 113.99807769240083 l 21.596635427731453 19.311844570940078 a49.97174489965168,49.97174489965168 0 0,0 -0.577298105028503,0.6345517451692699 l -21.26193962186107 -19.67973389166702" fill="#e1ff1b" stroke="none" /><path d="M 114.65682725009322 115.03919595460226 l 20.105063367224393 20.629566174184127 a49.806120417979756,49.806120417979756 0 0,0 -0.6174239770050283,0.5914782032754152 l -19.74796690435405 -20.971656507765122" fill="#e4ff1a" stroke="none" /><path d="M 114.39649973595853 115.28858382429668 l 19.063840652180872 20.245138135620326 a48.80819373030353,48.80819373030353 0 0,0 -0.6149140465227902,0.5691552613278185 l -18.713496834344113 -20.569411143080526" fill="#f2ff19" stroke="none" /><path d="M 111.27062007382361 117.71928675628689 l 15.439945658605298 24.274159082136403 a49.76850223917731,49.76850223917731 0 0,0 -0.7248092019595151,0.4523345486795346 l -15.020972327856068 -24.535629427657486" fill="#e4ff1a" stroke="none" /><line stroke="#e1ed5e" stroke-width="0.3" x1="143.1302829299769" x2="145.66735839644613" y1="173.24464959558577" y2="177.55315839532614" /><path d="M 143.63769802327073 174.10635135553383 a86.0,86.0 0 0,1 -40.68552437913181,11.842963189579606" fill="none" id="id42" stroke="none" /><text fill="#e1ed5e" style="font-size:6.75px; font-family:Arial;" text-anchor="middle"><textPath startOffset="21.407464694133747" xlink:href="#id42">June</textPath></text><path d="M 110.02825361518725 118.45085714620011 l 5.373490581612734 9.886617441309795 a32.25253773428429,32.25253773428429 0 0,0 -0.4887199155388317,0.26021582776571417 l -5.202981850287349 -9.977403736798077" fill="#ff0701" stroke="none" /><path d="M 109.71004243097381 118.62028667847754 l 13.45088097043688 25.793837825948067 a50.09034665782053,50.09034665782053 0 0,0 -0.7658403222264863,0.3910435253571809 l -13.006113426496812 -26.020939302978082" fill="#e0ff1b" stroke="none" /><path d="M 109.3889696526874 118.78422872680471 l 13.031575303063644 26.071880112346676 a50.1472964007298,50.1472964007298 0 0,0 -0.7733184745996887,0.37826881740964813 l -12.582096579201886 -26.291742679853545" fill="#dfff1b" stroke="none" /><path d="M 109.06512990194946 118.94263497670748 l 4.950336777688391 10.344299927942096 a32.46779731298723,32.46779731298723 0 0,0 -0.5048143932582245,0.23627862561784824 l -4.772033670558661 -10.427754785130476" fill="#ff0a01" stroke="none" /><path d="M 108.73861861582097 119.09545874513695 l 12.275882142273163 26.82501792486319 a50.50048930170841,50.50048930170841 0 0,0 -0.7913825799250018,0.3539753620204149 l -11.813586159492534 -27.031797037793453" fill="#daff1c" stroke="none" /><path d="M 108.4095320186766 119.2426549942271 l 4.962446850695923 11.355049539386592 a33.39205506717532,33.39205506717532 0 0,0 -0.527220677535848,0.22503915676068878 l -4.766791097989644 -11.438563345806685" fill="#ff1a02" stroke="none" /><path d="M 108.07796709384702 119.3841803445677 l 14.126527510186106 33.8985234426767 a57.72422458119091,57.72422458119091 0 0,0 -0.9179403466728474,0.37331834772403083 l -13.542532702322816 -34.13602904698002" fill="#7aff26" stroke="none" /><path d="M 103.58742460773223 120.69131181640829 l 2.743763970798554 15.825301456664631 a37.06139492453143,37.06139492453143 0 0,0 -0.6277891401376435,0.10330246410786023 l -2.471697327607838 -15.870069919268161" fill="#ff5808" stroke="none" /><path d="M 102.875027216393 120.80226474461374 l 4.0076086379047124 28.997059715868478 a50.27269033007132,50.27269033007132 0 0,0 -0.8558857974389359,0.1108115519090883 l -3.509245018575001 -29.06158286397796" fill="#ddff1b" stroke="none" /><path d="M 102.51750503828377 120.84855314841334 l 3.4623314854764478 28.67307151114595 a49.88135677558468,49.88135677558468 0 0,0 -0.8509856815301765,0.09535472060172873 l -2.9696099023454723 -28.728281992254647" fill="#e3ff1b" stroke="none" /><path d="M 102.15924093988457 120.88869738790638 l 2.96627917739259 28.69606024972562 a49.84896334383812,49.84896334383812 0 0,0 -0.8519435575670415,0.08067994066397646 l -2.4732360564405336 -28.742751945894778" fill="#e3ff1b" stroke="none" /><path d="M 101.08105385017728 120.97215588758144 l 1.912760630516028 37.10704523390053 a58.15631116271356,58.15631116271356 0 0,0 -0.997447863775802,0.04283470302454082 l -1.2754870061393966 -37.1344125053509" fill="#75ff27" stroke="none" /><line stroke="#e1ed5e" stroke-width="0.3" x1="101.45913802915013" x2="101.54496967792366" y1="184.9874750549273" y2="189.98673829345242" /><path d="M 101.47630435890484 185.9873277026323 a86.0,86.0 0 0,1 -42.54439059252881,-10.42667462771756" fill="none" id="id43" stroke="none" /><text fill="#e1ed5e" style="font-size:6.75px; font-family:Arial;" text-anchor="middle"><textPath startOffset="22.145653131862474" xlink:href="#id43">July</textPath></text><path d="M 100.36049292484886 120.99690560180557 l 0.4597674982651018 26.779151806927107 a47.78309835793664,47.78309835793664 0 0,0 -0.8202604231139508,0.007040949203966899 l -3.2799835675295833e-15 -26.783098357936638" fill="#fffd18" stroke="none" /><path d="M 99.63950707515114 120.99690560180557 l -0.21051973624279807 12.261719230857029 a33.263526289600264,33.263526289600264 0 0,0 -0.5708443810395106,-0.014702926331152267 l 0.42097743135305266 -12.256298587175829" fill="#ff1802" stroke="none" /><path d="M 98.91894614982273 120.97215588758144 l -1.8906518330824547 36.67814047010241 a57.726836954718856,57.726836954718856 0 0,0 -0.9892061100802377,-0.0595081831669599 l 2.520002295295139 -36.640280309110764" fill="#7aff26" stroke="none" /><path d="M 98.19965949673042 120.92268563240118 l -3.1411746263050944 36.505210599494866 a57.64010615359098,57.64010615359098 0 0,0 -0.985098060240851,-0.09328981050740075 l 3.7673722499309608 -36.44590903348229" fill="#7bff26" stroke="none" /><path d="M 96.76829788921471 120.74984581791261 l -4.445935517064339 28.546095318497557 a49.8902388455797,49.8902388455797 0 0,0 -0.8450990635918408,-0.1390607293161251 l 4.935312083709244 -28.465568590685766" fill="#e3ff1b" stroke="none" /><path d="M 96.05791012581884 120.62667999033965 l -10.798311985175134 56.501331238756144 a78.52394261071487,78.52394261071487 0 0,0 -1.321832842040622,-0.26440358849592804 l 11.766641312746716 -56.307638253597354" fill="#45ffee" stroke="none" /><path d="M 95.35216902796893 120.47920084513623 l -6.960298408629685 30.66835904966649 a52.44827500414662,52.44827500414662 0 0,0 -0.876305394798238,-0.2068056871165007 l 7.485735957167811 -30.54435721890376" fill="#bfff1e" stroke="none" /><path d="M 94.6519064749342 120.30758222061772 l -8.837394119778466 33.55702492154837 a55.701202521147785,55.701202521147785 0 0,0 -0.9225673441504024,-0.2514498321229404 l 9.412142864863565 -33.400374595281285" fill="#94ff23" stroke="none" /><path d="M 92.93061703081489 119.77432235084164 l -7.404208364250758 20.710888571986583 a42.994617681207494,42.994617681207494 0 0,0 -0.6928497639906785,-0.2544240303065881 l 7.7586472798955555 -20.580733692671274" fill="#ffb610" stroke="none" /><path d="M 92.25597844496254 119.51999308798841 l -8.201739598019314 20.673741559858478 a43.24122574224581,43.24122574224581 0 0,0 -0.6876292585371455,-0.27965283318707496 l 8.5554233177469 -20.52990147009211" fill="#ffba11" stroke="none" /><path d="M 91.92203290615298 119.3841803445677 l -13.278200280882857 31.86284691503314 a55.518858848897,55.518858848897 0 0,0 -0.8765764886122845,-0.3741583785285834 l 13.823211844665572 -31.63021388684515" fill="#96ff23" stroke="none" /><path d="M 91.26138138417905 119.09545874513695 l -24.12041366254126 52.70745689425239 a78.96438878752696,78.96438878752696 0 0,0 -1.2277506733984347,-0.5746493079161871 l 25.021653049811185 -52.28563135476568" fill="#46fff4" stroke="none" /><path d="M 90.6110303473126 118.78422872680471 l -9.42206230571768 18.85043620075471 a42.07401724995853,42.07401724995853 0 0,0 -0.6432772196245166,-0.3284619318719344 l 9.74426674705578 -18.68591631720994" fill="#ffa80f" stroke="none" /><path d="M 89.97174638481275 118.45085714620012 l -10.640693983591953 19.577678443468468 a43.2825012439874,43.2825012439874 0 0,0 -0.6497647651575117,-0.36041356215700976 l 10.975202936905568 -19.39213196587831" fill="#ffba11" stroke="none" /><line stroke="#e1ed5e" stroke-width="0.3" x1="58.13341422392154" x2="55.67067388415222" y1="173.97424548756322" y2="178.32567169271397" /><path d="M 57.64086615596768 174.84453072859336 a86.0,86.0 0 0,1 -31.369924170532247,-30.572349798747897" fill="none" id="id44" stroke="none" /><text fill="#e1ed5e" style="font-size:6.75px; font-family:Arial;" text-anchor="middle"><textPath startOffset="22.145653131862474" xlink:href="#id44">August</textPath></text><path d="M 89.65649057296885 118.27599006163327 l -16.856283238844767 29.783437345174338 a55.22261569082767,55.22261569082767 0 0,0 -0.8209960268155655,-0.47400227708558357 l 17.365071733520733 -29.489688170812585" fill="#9aff22" stroke="none" /><path d="M 89.03521579738668 117.91015095944536 l -27.782060620189263 45.37990812016706 a74.20882401724995,74.20882401724995 0 0,0 -1.0807485878479306,-0.6744670506370586 l 28.556973336826907 -44.89630527268845" fill="#3fffba" stroke="none" /><path d="M 88.4268655584334 117.5232005979908 l -15.870205283193553 24.02951353523284 a49.79723834798474,49.79723834798474 0 0,0 -0.7092637539238271,-0.4772243070755788 l 16.280365325214383 -23.75353955410014" fill="#e4ff1a" stroke="none" /><path d="M 88.1277618465304 117.32195027204791 l -16.412694800071435 23.946612212630846 a50.0313070160889,50.0313070160889 0 0,0 -0.7042619023308719,-0.49162950356262697 l 16.821351793576074 -23.661337893263088" fill="#e1ff1b" stroke="none" /><path d="M 86.96720088162412 116.46651593811092 l -17.854005267606883 22.557952411285374 a49.76850223917731,49.76850223917731 0 0,0 -0.6653556506772121,-0.5359634141303055 l 18.238611688639356 -22.248140703361656" fill="#e4ff1a" stroke="none" /><path d="M 86.68645165197938 116.24036423190432 l -16.622502821746195 20.276750661378053 a47.21934815060541,47.21934815060541 0 0,0 -0.6224536901063211,-0.5192730066193278 l 16.96813084601441 -19.988415470846853" fill="#fff517" stroke="none" /><path d="M 85.34317274990678 115.03919595460226 l -24.16917863598261 24.799706468943857 a55.62910101177641,55.62910101177641 0 0,0 -0.6781666349962495,-0.6723703737999028 l 24.591337191108824 -24.381156084915297" fill="#95ff23" stroke="none" /><path d="M 85.08716467003676 114.78537596483092 l -38.73231147202331 38.40126806403956 a75.54217946591476,75.54217946591476 0 0,0 -0.9051147344504022,-0.9287274538021774 l 39.38581300762452 -37.730717918169645" fill="#41ffcb" stroke="none" /><path d="M 84.58840730492382 114.26474011684316 l -21.30565138750808 19.720192849371113 a50.0313070160889,50.0313070160889 0 0,0 -0.5779861958089979,-0.6353080774727913 l 21.64103528415896 -19.35154719634065" fill="#e1ff1b" stroke="none" /><path d="M 84.1078160697243 113.72728997021213 l -25.97577331605722 22.43725431787334 a55.32449825841765,55.32449825841765 0 0,0 -0.6146431530919115,-0.7240480888440451 l 26.357111032656242 -21.98803944657974" fill="#99ff23" stroke="none" /><path d="M 83.8745106332314 113.45245675266167 l -29.09127615210876 24.268977233179246 a58.88516337701112,58.88516337701112 0 0,0 -0.6408757804508968,-0.7817642472058111 l 29.503598751798286 -23.76601070427494" fill="#6bff28" stroke="none" /><path d="M 83.4222238831116 112.89097897827486 l -49.733328350665225 38.67293693482457 a84.0,84.0 0 0,0 -0.8753920905828196,-1.1459163470365188 l 50.38987241860234 -37.813499674547174" fill="#4dd2ff" stroke="none" /><path d="M 82.576782715395 111.72311816256416 l -18.650269541868763 12.548733682853547 a43.478951733289094,43.478951733289094 0 0,0 -0.4113431014642787,-0.6228258833380056 l 18.86293708225377 -12.226727921176481" fill="#ffbd11" stroke="none" /><path d="M 82.37810715431573 111.42229804090323 l -17.8247389832677 11.553780456567292 a42.24173163045281,42.24173163045281 0 0,0 -0.3891917974085557,-0.6118741485655786 l 18.020448472302146 -11.246092633323041" fill="#ffaa0f" stroke="none" /><line stroke="#e1ed5e" stroke-width="0.3" x1="26.387840678322732" x2="22.057713659400548" y1="142.50000000000003" y2="145.00000000000006" /><path d="M 25.521815274538298 143.00000000000003 a86.0,86.0 0 0,1 -11.493303480769221,-40.785679425670985" fill="none" id="id45" stroke="none" /><text fill="#e1ed5e" style="font-size:6.75px; font-family:Arial;" text-anchor="middle"><textPath startOffset="21.40746469413373" xlink:href="#id45">September</textPath></text><path d="M 81.63589988554817 110.18625677009913 l -20.29067057761168 11.254892929841658 a44.203101675236354,44.203101675236354 0 0,0 -0.362369976896112,-0.6667199429077382 l 20.480885904123124 -10.904918153459333" fill="#ffc812" stroke="none" /><path d="M 81.4637452351635 109.86951160357371 l -25.8079454195144 13.74127729758473 a50.23820699950241,50.23820699950241 0 0,0 -0.39877636838015607,-0.7647062670040289 l 26.040029856869506 -13.296224787476199" fill="#deff1b" stroke="none" /><path d="M 80.9802524753101 108.90220220490708 l -30.79959297908836 14.415764676831655 a55.00631116271355,55.00631116271355 0 0,0 -0.39294291454398933,-0.858651183184031 l 31.042520358487405 -13.884924511432935" fill="#9dff22" stroke="none" /><line stroke="#e1ed5e" stroke-width="0.3" x1="15.003131293944662" x2="10.003315487706104" y1="100.72959589197737" y2="100.7725132973878" /><path d="M 14.003168132696942 100.73817937305945 a86.0,86.0 0 0,1 10.791469493833604,-42.45332614584628" fill="none" id="id46" stroke="none" /><text fill="#e1ed5e" style="font-size:6.75px; font-family:Arial;" text-anchor="middle"><textPath startOffset="22.145653131862435" xlink:href="#id46">October</textPath></text><line stroke="#e1ed5e" stroke-width="0.3" x1="26.387840678322718" x2="22.05771365940052" y1="57.49999999999999" y2="54.99999999999999" /><path d="M 25.521815274538284 56.99999999999999 a86.0,86.0 0 0,1 29.574782752854787,-30.34633250058573" fill="none" id="id47" stroke="none" /><text fill="#e1ed5e" style="font-size:6.75px; font-family:Arial;" text-anchor="middle"><textPath startOffset="21.40746469413373" xlink:href="#id47">November</textPath></text><line stroke="#e1ed5e" stroke-width="0.3" x1="56.869717070023135" x2="54.33264160355391" y1="26.7553504044142" y2="22.446841604673864" /><path d="M 56.362301976729285 25.89364864446614 a86.0,86.0 0 0,1 42.16139366436587,-11.88097634709845" fill="none" id="id48" stroke="none" /><text fill="#e1ed5e" style="font-size:6.75px; font-family:Arial;" text-anchor="middle"><textPath startOffset="22.145653131862474" xlink:href="#id48">December</textPath></text></svg>