<?xml version="1.0" encoding="utf-8" ?>
<svg baseProfile="full" height="200mm" version="1.1" viewBox="0,0,200,200" width="200mm" xmlns="http://www.w3.org/2000/svg" xmlns:ev="http://www.w3.org/2001/xml-events" xmlns:xlink="http://www.w3.org/1999/xlink"><defs /><rect fill="#1a1a1a" height="200" width="200" x="0" y="0" /><text alignment-baseline="middle" fill="#e1ed5e" style="dominant-baseline: central; font-size:9.0px; font-family:Arial;" text-anchor="middle" x="100.0" y="100.0">2023</text><line stroke="#e1ed5e" stroke-width="0.3" x1="100.0" x2="100.0" y1="15.0" y2="10.0" /><path d="M 100.0 14.0 a86.0,86.0 0 0,1 42.46469731375804,11.215312516191453" fill="none" id="id13" stroke="none" /><text fill="#e1ed5e" style="font-size:6.75px; font-family:Arial;" text-anchor="middle"><textPath startOffset="22.20632615414155" xlink:href="#id13">January</textPath></text><path d="M 100.0 79.0 l 0.0 -11.072565481077362 a32.07256548107736,32.07256548107736 0 0,0 0.552076492457114,0.004751896667347463 l -0.19059601318458563 11.070924961018573" fill="#ff5307" stroke="none" /><path d="M 100.36148047927253 79.00311137660856 l 0.19393711563078678 -11.264995623100814 a32.26666490108318,32.26666490108318 0 0,0 0.5552530126830518,0.014340547161649423 l -0.38781676350870636 11.259988283796806" fill="#ff5608" stroke="none" /><path d="M 100.72285384407766 79.0124445844662 l 0.3868595694038869 -11.232196822932469 a32.23885696125427,32.23885696125427 0 0,0 0.5544456545164761,0.023875596190894938 l -0.5801460563096945 11.223873500217378" fill="#ff5607" stroke="none" /><path d="M 101.08401301168833 79.027996857942 l 0.5717631065649187 -11.061691638476313 a32.07645859265341,32.07645859265341 0 0,0 0.5511620761454324,0.03324760159143415 l -0.762087231549963 11.050210767504575" fill="#ff5307" stroke="none" /><path d="M 101.80526077348638 79.07773832637324 l 5.415782320459128 -62.76678502088029 a84.0,84.0 0 0,0 1.4394994916390231,0.13669782193928715 l -6.4954069391883955 62.66426165442583" fill="#4dd2ff" stroke="none" /><line stroke="#e1ed5e" stroke-width="0.3" x1="143.23703022742887" x2="145.7803849466894" y1="26.81831364943548" y2="22.513508569990506" /><path d="M 143.74570117128098 25.957352633546492 a86.0,86.0 0 0,1 28.547481713284135,27.462654790039103" fill="none" id="id14" stroke="none" /><text fill="#e1ed5e" style="font-size:6.75px; font-family:Arial;" text-anchor="middle"><textPath startOffset="19.985693538727396" xlink:href="#id14">February</textPath></text><path d="M 112.19680574252982 82.90503203632743 l 13.98696696038782 -19.604046923779393 a45.08223205063693,45.08223205063693 0 0,0 0.6278338053540053,0.45614796010912195 l -14.322346082095613 19.360379728853594" fill="#f5ff19" stroke="none" /><path d="M 113.6212207817346 84.01681056812373 l 11.550206493540045 -13.55305382107085 a38.80709234884398,38.80709234884398 0 0,0 0.5046884560455714,0.43766085580008995 l -11.781788748232382 13.35222797185109" fill="#ffb510" stroke="none" /><path d="M 114.68862486808459 84.99185889309783 l 16.431389226489703 -16.78881517557247 a44.49159140867077,44.49159140867077 0 0,0 0.5427215672611703,0.5403909483750047 l -16.717946593918196 16.50348837654735" fill="#fcff18" stroke="none" /><path d="M 115.4437574822437 85.77008943001954 l 23.80593925942191 -21.934842416778594 a53.37066659604332,53.37066659604332 0 0,0 0.6167015073376776,0.6809772074274283 l -24.17998440737562 21.521812422081616" fill="#8eff24" stroke="none" /><path d="M 115.68641384162765 86.03803664274999 l 20.850272101947894 -18.558144520167932 a48.913053841468255,48.913053841468255 0 0,0 0.5543668948344872,0.6337371928033885 l -21.16663086036023 18.196491771161597" fill="#c4ff1e" stroke="none" /><path d="M 116.15771136456269 86.58626213691792 l 21.485703742543308 -17.836907177238555 a48.9247331761964,48.9247331761964 0 0,0 0.5323512050247725,0.65259963144535 l -21.789553439644486 17.464423376185106" fill="#c4ff1e" stroke="none" /><path d="M 117.2510076193507 88.02491185347247 l 13.862849233135368 -9.62313884451614 a37.875526364575336,37.875526364575336 0 0,0 0.3671681198926857,0.53877390977618 l -14.026441818696787 9.383086911469553" fill="#ffa80f" stroke="none" /><path d="M 117.45458315368197 88.32363383020206 l 10.91356375103359 -7.3007052332625175 a34.13035302841706,34.13035302841706 0 0,0 0.32245604177427534,0.49112267405964405 l -11.037616428165792 7.1117644952251995" fill="#ff720a" stroke="none" /><path d="M 117.65298651832404 88.62581576622439 l 11.335892478873989 -7.30394992230613 a34.48518234063402,34.48518234063402 0 0,0 0.3172183603160378,0.5017632658659639 l -11.459938435435982 7.107739008725961" fill="#ff770b" stroke="none" /><line stroke="#e1ed5e" stroke-width="0.3" x1="172.23445277983987" x2="176.4835382374775" y1="55.19839476539836" y2="52.563006222186495" /><path d="M 173.08426987136738 54.67131705675599 a86.0,86.0 0 0,1 12.851231095245387,41.99856678651699" fill="none" id="id15" stroke="none" /><text fill="#e1ed5e" style="font-size:6.75px; font-family:Arial;" text-anchor="middle"><textPath startOffset="22.20632615414155" xlink:href="#id15">March</textPath></text><path d="M 118.03404312379186 89.2402003453031 l 9.620480697119612 -5.739946620529135 a32.20270663947668,32.20270663947668 0 0,0 0.2799186929955536,0.47847178330688717 l -9.717859064585493 5.573495424868352" fill="#ff5507" stroke="none" /><path d="M 119.61058180528143 92.48833698450437 l 11.087854841519988 -4.2471064836943855 a32.87343414815011,32.87343414815011 0 0,0 0.19785958269143605,0.5301653120175367 l -11.15931901271305 4.055618034647516" fill="#ff5f08" stroke="none" /><path d="M 119.7369772167798 92.82701384747503 l 46.9277878272215 -17.05491010888494 a70.93082443920653,70.93082443920653 0 0,0 0.40716630294126743,1.1511139680189848 l -47.21440721097258 16.24459851443934" fill="#3bff9f" stroke="none" /><path d="M 120.53481517161879 95.60439243477599 l 27.653123277800592 -5.919326610252149 a49.27956248841336,49.27956248841336 0 0,0 0.1704150726147374,0.8310044157506441 l -27.750917646330326 5.442446538338093" fill="#bfff1e" stroke="none" /><line stroke="#e1ed5e" stroke-width="0.3" x1="184.98032266829074" x2="189.97916517819016" y1="98.17113171792111" y2="98.06355123074" /><path d="M 185.9800911702706 98.14961562048488 a86.0,86.0 0 0,1 -9.607161424134198,41.387399972396054" fill="none" id="id16" stroke="none" /><text fill="#e1ed5e" style="font-size:6.75px; font-family:Arial;" text-anchor="middle"><textPath startOffset="21.466115282336823" xlink:href="#id16">April</textPath></text><path d="M 120.99513854157772 99.54816195383933 l 28.149021125225012 -0.605797322145284 a49.15553907677639,49.15553907677639 0 0,0 0.010924216714103357,0.8460926234165116 l -28.155278349056832 0.12116844066830977" fill="#c1ff1e" stroke="none" /><path d="M 120.99980553446 99.90962569577887 l 27.84160769248661 -0.11981853448486435 a48.84186551550624,48.84186551550624 0 0,0 -0.003618258217533446,0.8407557833669433 l -27.839545136979574 -0.35944672708576364" fill="#c5ff1e" stroke="none" /><path d="M 120.99824983174949 100.27111621757518 l 8.362818956271324 0.10797546756788144 a29.363515982944463,29.363515982944463 0 0,0 -0.010875599364910653,0.5053463676402793 l -8.359721294221405 -0.2519116509982756" fill="#ff2a04" stroke="none" /><path d="M 120.76222939487914 103.15116336523771 l 33.10112681327179 5.0238852571292805 a54.480203395217025,54.480203395217025 0 0,0 -0.14870046098352466,0.9259579124900825 l -33.00974459792698 -5.5929223993125685" fill="#81ff25" stroke="none" /><path d="M 120.64145759157962 103.86396538481128 l 12.078524470615001 2.261032208941054 a33.28832861039752,33.28832861039752 0 0,0 -0.11027958345492729,0.5623132201614244 l -12.03781495418441 -2.468609156170423" fill="#ff6509" stroke="none" /><line stroke="#e1ed5e" stroke-width="0.3" x1="174.80103733775053" x2="179.2010983576182" y1="140.37084112569926" y2="142.7455964860345" /><path d="M 175.68104954172406 140.8457921977663 a86.0,86.0 0 0,1 -30.038265399797805,32.042727171017184" fill="none" id="id17" stroke="none" /><text fill="#e1ed5e" style="font-size:6.75px; font-family:Arial;" text-anchor="middle"><textPath startOffset="22.206326154141568" xlink:href="#id17">May</textPath></text><path d="M 117.75023020441432 111.22182372390056 l 9.506214550005735 6.009897490524562 a32.246643184406366,32.246643184406366 0 0,0 -0.3006540908534454,0.46662182565624716 l -9.40135559577524 -6.172640916102262" fill="#ff5607" stroke="none" /><path d="M 117.55443506779139 111.5257021239791 l 14.413521290466809 9.463474746410764 a38.24259117031701,38.24259117031701 0 0,0 -0.3660305745848142,0.547166045323772 l -14.248487610471274 -9.710177705940342" fill="#ffad10" stroke="none" /><path d="M 116.27256486870786 113.27417163493432 l 21.9258794678156 17.885802862113756 a49.29569109351412,49.29569109351412 0 0,0 -0.5420272505478398,0.6529067404979961 l -21.614756217374218 -18.260570859725526" fill="#bfff1e" stroke="none" /><path d="M 116.0416608686014 113.55231037782055 l 9.567472728644915 8.082788996226562 a33.524696098943295,33.524696098943295 0 0,0 -0.3762069404799657,0.4376136640176449 l -9.426923278594172 -8.246279759405734" fill="#ff6909" stroke="none" /><path d="M 115.80600337817218 113.82643327865902 l 10.08078003530661 8.81824641056878 a34.3934161391986,34.3934161391986 0 0,0 -0.3936263428294476,0.44224336897309446 l -9.927494842828825 -8.990463949282741" fill="#ff760a" stroke="none" /><path d="M 115.56566222782051 114.09645910891815 l 13.34700193199356 12.087212494225037 a39.006753356815594,39.006753356815594 0 0,0 -0.4549925879608052,0.49380459210396416 l -13.136962936037033 -12.315168341130336" fill="#ffb811" stroke="none" /><path d="M 114.55890576462653 115.13401014063108 l 20.45549587184424 21.26352673483831 a50.505336476071925,50.505336476071925 0 0,0 -0.6317115268713781,0.5973226781023365 l -20.086448510582052 -21.61248404968657" fill="#b0ff20" stroke="none" /><path d="M 114.0293411484842 115.62618273729858 l 19.016279809332083 21.18074256939216 a49.46476336767394,49.46476336767394 0 0,0 -0.6384667796416243,0.5633726997741634 l -18.648870676783872 -21.50493841093861" fill="#bdff1f" stroke="none" /><path d="M 113.48314897796784 116.09983520530334 l 18.440194294638026 22.01889853643025 a49.72059641409995,49.72059641409995 0 0,0 -0.6608811278928101,0.5438601756976682 l -18.058443038200522 -22.333053830985097" fill="#baff1f" stroke="none" /><path d="M 112.92097659922987 116.55440617244103 l 17.290818787110002 22.153065215902778 a49.10214783230488,49.10214783230488 0 0,0 -0.6707616943977972,0.5143114645182614 l -16.90692836421871 -22.44741602224841" fill="#c2ff1e" stroke="none" /><line stroke="#e1ed5e" stroke-width="0.3" x1="143.8653032363475" x2="146.44561519142675" y1="172.8068346515853" y2="177.08958963109032" /><path d="M 144.38136562736335 173.6633856474863 a86.0,86.0 0 0,1 -40.68145358897372,12.25698825130547" fill="none" id="id18" stroke="none" /><text fill="#e1ed5e" style="font-size:6.75px; font-family:Arial;" text-anchor="middle"><textPath startOffset="21.466115282336833" xlink:href="#id18">June</textPath></text><path d="M 110.8373102113329 117.98757091392108 l 8.645968717555885 14.350422050662322 a37.75372758812469,37.75372758812469 0 0,0 -0.5595320482793597,0.3305813966732012 l -8.397668798248143 -14.497122019629273" fill="#ffa60f" stroke="none" /><path d="M 109.57404056367764 118.69057910512821 l 6.407373210205084 12.508565745559729 a35.05413278953362,35.05413278953362 0 0,0 -0.539409810976543,0.2704712771876267 l -6.191109491545781 -12.617004863656657" fill="#ff7f0b" stroke="none" /><path d="M 108.92500713936063 119.00905698771935 l 12.323737975899373 26.24789356777752 a49.99700733599936,49.99700733599936 0 0,0 -0.7821722393203288,0.35905691194623046 l -11.870097740811625 -26.456137550057825" fill="#b7ff1f" stroke="none" /><path d="M 104.48393922423573 120.51570834832081 l 1.2097218908681204 5.534932623860381 a26.665589660743134,26.665589660743134 0 0,0 -0.4492625384757817,0.09414733303544205 l -1.1142678909629606 -5.554935937622364" fill="#ff0000" stroke="none" /><line stroke="#e1ed5e" stroke-width="0.3" x1="102.19456741930631" x2="102.32365962044197" y1="184.97166512339345" y2="189.96999836594603" /><path d="M 102.22038585953345 185.97133177190398 a86.0,86.0 0 0,1 -42.740103519485714,-10.115201625700543" fill="none" id="id19" stroke="none" /><text fill="#e1ed5e" style="font-size:6.75px; font-family:Arial;" text-anchor="middle"><textPath startOffset="22.20632615414155" xlink:href="#id19">July</textPath></text><path d="M 99.81925306533755 120.99922214144158 l -0.14858404226601316 17.262529602752892 a38.263169045790406,38.263169045790406 0 0,0 -0.6585643659809406,-0.01133778279803741 l 0.4457080981396217 -17.257414342675695" fill="#ffad10" stroke="none" /><path d="M 99.45781275523022 120.99299961872073 l -0.437307993841565 16.932169903549877 a37.9378161497921,37.9378161497921 0 0,0 -0.6526743274680447,-0.022479423505983698 l 0.7287026729842526 -16.9221336816178" fill="#ffa90f" stroke="none" /><path d="M 98.73552117531835 120.96189622390904 l -0.710484460511291 11.778055305661002 a32.79946502820519,32.79946502820519 0 0,0 -0.5632718340809502,-0.038846523534841554 l 0.9131190553711712 -11.764080437609877" fill="#ff5e08" stroke="none" /><path d="M 94.81253420990036 120.34920634021253 l -4.219461236031947 16.55195249680732 a38.081305119309306,38.081305119309306 0 0,0 -0.633799051876684,-0.16739209011057385 l 4.50375073072012 -16.476869057393163" fill="#ffab0f" stroke="none" /><path d="M 92.40401165467489 119.57807347666478 l -13.973689516220587 36.01610582473288 a59.631902327921814,59.631902327921814 0 0,0 -0.9537666279752093,-0.3795234247712369 l 14.591577220237653 -35.77023555555558" fill="#48ff2c" stroke="none" /><line stroke="#e1ed5e" stroke-width="0.3" x1="58.666819895761336" x2="56.23545636021788" y1="174.27360380694188" y2="178.64263932499728" /><path d="M 58.180547188652646 175.14741091055294 a86.0,86.0 0 0,1 -31.652253787137756,-30.449443065178592" fill="none" id="id20" stroke="none" /><text fill="#e1ed5e" style="font-size:6.75px; font-family:Arial;" text-anchor="middle"><textPath startOffset="22.20632615414155" xlink:href="#id20">August</textPath></text><path d="M 88.8546689885994 117.79835938074946 l -14.847650640522065 23.710719922944435 a48.9758997854816,48.9758997854816 0 0,0 -0.7106594250363057,-0.45357646874511975 l 15.253591867605294 -23.45162902537551" fill="#c3ff1e" stroke="none" /><path d="M 88.54995079064634 117.60387380957326 l -15.459188768051334 23.76772390190537 a49.3529754495617,49.3529754495617 0 0,0 -0.7081571521627832,-0.4693279458242405 l 15.866020618954078 -23.49809793498981" fill="#bfff1e" stroke="none" /><path d="M 84.19399662182784 113.82643327865904 l -20.66262699621167 18.07480529325164 a48.452554357901434,48.452554357901434 0 0,0 -0.5437241602318323,-0.6324740358867418 l 20.970693666014284 -17.71645415820337" fill="#caff1d" stroke="none" /><path d="M 83.72743513129214 113.27417163493432 l -15.707147217081884 12.812938202241881 a41.270319658889264,41.270319658889264 0 0,0 -0.44430857326880974,-0.5543432607190779 l 15.925373702405555 -12.540667107944543" fill="#ffd714" stroke="none" /><path d="M 83.06392112726016 112.41649034213515 l -22.509524040055318 16.502597203846825 a48.910829206281946,48.910829206281946 0 0,0 -0.49195026190628927,-0.6832758866020049 l 22.790254094337214 -16.112687711793683" fill="#c4ff1e" stroke="none" /><path d="M 82.44556493220864 111.52570212397912 l -23.308127919799784 15.303399877795835 a48.88302126645303,48.88302126645303 0 0,0 -0.45576465844799774,-0.7073568711169317 l 23.56809744162483 -14.899921406757455" fill="#c4ff1e" stroke="none" /><path d="M 82.24976979558568 111.22182372390057 l -23.778698970573625 15.033065214281688 a49.13218040732011,49.13218040732011 0 0,0 -0.4457817951337016,-0.718742193769163 l 24.03394540537528 -14.62152668914726" fill="#c1ff1e" stroke="none" /><line stroke="#e1ed5e" stroke-width="0.3" x1="26.63291911575756" x2="22.317208475507996" y1="142.92168965132927" y2="145.44649492493687" /><path d="M 25.769776987707644 143.4266507060508 a86.0,86.0 0 0,1 -11.730757126820373,-40.83630448921669" fill="none" id="id21" stroke="none" /><text fill="#e1ed5e" style="font-size:6.75px; font-family:Arial;" text-anchor="middle"><textPath startOffset="21.46611528233685" xlink:href="#id21">September</textPath></text><path d="M 80.0844068197444 106.66101706037122 l -26.586649684502877 8.89223461855802 a49.034296459122324,49.034296459122324 0 0,0 -0.2608338514500215,-0.8027640505457502 l 26.735775786969146 -8.433271668034466" fill="#c2ff1e" stroke="none" /><path d="M 79.97269907076064 106.31721596034903 l -27.6432868939881 8.719528097181351 a49.9858841600678,49.9858841600678 0 0,0 -0.2517699188926222,-0.8227986622511083 l 27.78928358538685 -8.242402462378195" fill="#b7ff1f" stroke="none" /><path d="M 79.76711848015287 105.62410040840567 l -26.91698237205648 7.482068799900478 a48.93752482851771,48.93752482851771 0 0,0 -0.21861539729692375,-0.8135492202658434 l 27.041785845695177 -7.017628646459096" fill="#c4ff1e" stroke="none" /><path d="M 79.50377843672027 104.57218783832718 l -24.757333861585987 5.522734053292306 a46.36584655313965,46.36584655313965 0 0,0 -0.1670626833237327,-0.7804612384574077 l 24.848730583634158 -5.095758995418735" fill="#e4ff1a" stroke="none" /><path d="M 79.4281124754447 104.21870165774334 l -28.45816819718798 5.8359506975970135 a50.050398580470876,50.050398580470876 0 0,0 -0.16580998018276036,-0.8454615167237887 l 28.554408110346404 -5.34522545380527" fill="#b6ff1f" stroke="none" /><path d="M 79.35854240842038 103.8639653848113 l -27.971118424438 5.236036887752311 a49.45697714452183,49.45697714452183 0 0,0 -0.14943910242711153,-0.8381338481500632 l 28.0571039692043 -4.753784288869034" fill="#bdff1f" stroke="none" /><path d="M 79.18660465613746 102.79330883721812 l -30.744668521392978 4.126157835341987 a52.02031303795122,52.02031303795122 0 0,0 -0.11146836072449114,-0.8885125096725877 l 30.811138391364317 -3.59632757138199" fill="#9eff22" stroke="none" /><path d="M 79.1416061653843 102.43462659150553 l -12.006599486092643 1.4014303600829665 a33.08811144362933,33.08811144362933 0 0,0 -0.061162111138971346,-0.5662851883203149 l 12.028943898732665 -1.1945488498778694" fill="#ff6209" stroke="none" /><path d="M 79.10278846688536 102.07522291339032 l -27.87161921711875 2.767824919654907 a49.00871315447973,49.00871315447973 0 0,0 -0.07613947869551951,-0.8401928028046386 l 27.91513329209134 -2.2876507283017022" fill="#c3ff1e" stroke="none" /><path d="M 79.07016306316243 101.71520430193888 l -29.009322706888273 2.3773197685842136 a50.10657061892529,50.10657061892529 0 0,0 -0.06304704901335764,-0.8602268926735572 l 29.045946314565967 -1.8776197394138956" fill="#b5ff1f" stroke="none" /><line stroke="#e1ed5e" stroke-width="0.3" x1="15.007084014347285" x2="10.007500721073583" y1="101.09737516637583" y2="101.16192664675087" /><path d="M 14.007167355692545 101.11028546245083 a86.0,86.0 0 0,1 10.666146001902534,-42.60595125391555" fill="none" id="id22" stroke="none" /><text fill="#e1ed5e" style="font-size:6.75px; font-family:Arial;" text-anchor="middle"><textPath startOffset="22.20632615414155" xlink:href="#id22">October</textPath></text><path d="M 79.01574976396665 99.18683210126434 l -28.13608996397936 -1.090311300012942 a49.15720755316613,49.15720755316613 0 0,0 0.04004297383579388,-0.8452438893750389 l 28.113153381910063 1.57446629601099" fill="#c1ff1e" stroke="none" /><path d="M 79.03285615573316 98.82574320788736 l -28.363033270941024 -1.5884607226761742 a49.407479011626364,49.407479011626364 0 0,0 0.05486443859585652,-0.8487285815025607 l 28.331488241340754 2.0764483684317465" fill="#beff1f" stroke="none" /><path d="M 79.05617556472873 98.46500227214037 l -27.865009882537212 -2.0422596163691935 a48.93974946370402,48.93974946370402 0 0,0 0.06880816022192153,-0.8396338393862214 l 27.825727238495794 2.5216073729631936" fill="#c4ff1e" stroke="none" /><path d="M 79.08570108090925 98.10471618934814 l -29.444191219045674 -2.668274903743264 a50.5648454673058,50.5648454673058 0 0,0 0.0860153152155283,-0.8661624857494796 l 29.393898778147918 3.174712920197174" fill="#b0ff20" stroke="none" /><line stroke="#e1ed5e" stroke-width="0.3" x1="26.266209847984243" x2="21.928928074336255" y1="57.711370442889674" y2="55.22380399835377" /><path d="M 25.398753493254645 57.213857153982495 a86.0,86.0 0 0,1 29.58750427330803,-30.492523968695096" fill="none" id="id23" stroke="none" /><text fill="#e1ed5e" style="font-size:6.75px; font-family:Arial;" text-anchor="middle"><textPath startOffset="21.46611528233685" xlink:href="#id23">November</textPath></text><path d="M 81.96595687620814 89.24020034530311 l -25.14898632713749 -15.004846807852955 a50.285097592626926,50.285097592626926 0 0,0 0.4498940675852564,-0.7395075554300263 l 24.886976461266016 15.435522136490055" fill="#b3ff20" stroke="none" /><path d="M 82.54541684631803 88.32363383020206 l -25.46698522478473 -17.036318891562484 a51.63990042109165,51.63990042109165 0 0,0 0.5006009676684178,-0.734570149138447 l 25.16995979144757 17.472167063971344" fill="#a3ff22" stroke="none" /><path d="M 82.95767976084542 87.72973835380427 l -23.590427499136432 -16.984818598525184 a50.06875182075796,50.06875182075796 0 0,0 0.5095982956605747,-0.6950915025829465 l 23.294566590962223 17.38837254477963" fill="#b6ff1f" stroke="none" /><line stroke="#e1ed5e" stroke-width="0.3" x1="56.762969772571076" x2="54.21961505331055" y1="26.818313649435495" y2="22.513508569990535" /><path d="M 56.25429882871897 25.957352633546506 a86.0,86.0 0 0,1 42.265352541879196,-11.944610805530505" fill="none" id="id24" stroke="none" /><text fill="#e1ed5e" style="font-size:6.75px; font-family:Arial;" text-anchor="middle"><textPath startOffset="22.20632615414155" xlink:href="#id24">December</textPath></text></svg>