<?xml version="1.0" encoding="utf-8" ?>
<svg baseProfile="full" height="200mm" version="1.1" viewBox="0,0,200,200" width="200mm" xmlns="http://www.w3.org/2000/svg" xmlns:ev="http://www.w3.org/2001/xml-events" xmlns:xlink="http://www.w3.org/1999/xlink"><defs /><rect fill="#1a1a1a" height="200" width="200" x="0" y="0" /><text alignment-baseline="middle" fill="#e1ed5e" style="dominant-baseline: central; font-size:9.0px; font-family:Arial;" text-anchor="middle" x="100.0" y="100.0">2024</text><line stroke="#e1ed5e" stroke-width="0.3" x1="100.0" x2="100.0" y1="15.0" y2="10.0" /><path d="M 100.0 14.0 a86.0,86.0 0 0,1 42.35913384403234,11.155469271406648" fill="none" id="id37" stroke="none" /><text fill="#e1ed5e" style="font-size:6.75px; font-family:Arial;" text-anchor="middle"><textPath startOffset="22.145653131862478" xlink:href="#id37">January</textPath></text><path d="M 100.0 79.0 l 0.0 -28.873450708701455 a49.873450708701455,49.873450708701455 0 0,0 0.8561441008707131,0.007348967420154491 l -0.4956511760218584 28.869196139475736" fill="#edff1a" stroke="none" /><path d="M 100.72087961077811 79.0123766808444 l 1.0497137174933897 -30.561269546688465 a51.57929193415115,51.57929193415115 0 0,0 0.8846443924347768,0.037990436601693996 l -1.5741838705290028 30.538746541660938" fill="#d5ff1c" stroke="none" /><path d="M 101.44090949804482 79.04949213459386 l 2.091988479904637 -30.41705336945318 a51.48890866331914,51.48890866331914 0 0,0 0.8812719142277613,0.06821601971434599 l -2.613829388907632 30.37665958274378" fill="#d6ff1c" stroke="none" /><path d="M 101.80034050326958 79.07731436759882 l 5.401021509808744 -62.76805689720356 a84.0,84.0 0 0,0 1.4356017464599482,0.1359529779792652 l -6.477722819653705 62.666092163719114" fill="#4dd2ff" stroke="none" /><path d="M 102.51750503828377 79.15144685158666 l 3.7785549056413954 -31.29185506145662 a52.51916354160045,52.51916354160045 0 0,0 0.8941317019936531,0.11576324996338039 l -4.31516442952584 31.222380215292844" fill="#c7ff1d" stroke="none" /><path d="M 103.23170211078529 79.25015418208739 l 4.866612200609261 -31.247141399946756 a52.62384796288057,52.62384796288057 0 0,0 0.8914041236338792,0.14668020932490336 l -5.40229382729621 31.158995192126184" fill="#c6ff1e" stroke="none" /><path d="M 103.94208987418118 79.37332000966035 l 5.936275989538173 -31.061104408730515 a52.62327591686265,52.62327591686265 0 0,0 0.8858339514040525,0.17719159950753297 l -6.468606426473182 30.95462341256012" fill="#c6ff1e" stroke="none" /><path d="M 104.64783097203109 79.52079915486377 l 7.024098968427938 -30.94947608813085 a52.736541028411615,52.736541028411615 0 0,0 0.8811217414212845,0.20794233180530602 l -7.5543528635891075 30.82433761267932" fill="#c4ff1e" stroke="none" /><path d="M 105.3480935250658 79.69241777938227 l 8.020901976996884 -30.45667126387348 a52.49513760884764,52.49513760884764 0 0,0 0.8694659628976147,0.23697681453114386 l -8.54254934082919 30.314493955198195" fill="#c8ff1d" stroke="none" /><path d="M 106.04205211174951 79.88797359093562 l 9.094925796819222 -30.274050013306578 a52.61069090446831,52.61069090446831 0 0,0 0.8627135344785234,0.267270858263738 l -9.613279964169376 30.11346256723619" fill="#c6ff1e" stroke="none" /><path d="M 109.06512990194946 81.05736502329252 l 13.121477356962751 -27.418841055396904 a51.39680925443335,51.39680925443335 0 0,0 0.7925871379847991,0.3876940862363441 l -13.590224744209618 27.189553219063338" fill="#d7ff1c" stroke="none" /><path d="M 109.3889696526874 81.21577127319529 l 12.03368019345855 -24.0754214297034 a47.915337189347234,47.915337189347234 0 0,0 0.7325862111387808,0.3740637392908773 l -12.445193626310909 23.865299738739687" fill="#fff417" stroke="none" /><line stroke="#e1ed5e" stroke-width="0.3" x1="143.13028292997686" x2="145.6673583964461" y1="26.7553504044142" y2="22.446841604673864" /><path d="M 143.63769802327073 25.89364864446614 a86.0,86.0 0 0,1 29.32050498858742,28.57503671076993" fill="none" id="id38" stroke="none" /><text fill="#e1ed5e" style="font-size:6.75px; font-family:Arial;" text-anchor="middle"><textPath startOffset="20.669276256404974" xlink:href="#id38">February</textPath></text><path d="M 110.65571695917076 81.90426304109057 l 16.324201162255967 -27.72206238476289 a53.171296002033934,53.171296002033934 0 0,0 0.7825478993151117,0.4698975291113263 l -16.797681818128513 27.43775085511564" fill="#beff1e" stroke="none" /><path d="M 111.8722381534696 82.67804972795209 l 17.884842079791586 -26.094519089396996 a52.63528888323905,52.63528888323905 0 0,0 0.7409166557796497,0.5172173682214839 l -18.330153826744997 25.783656905370385" fill="#c6ff1e" stroke="none" /><path d="M 112.7482090630111 83.31218511350987 l 19.188467551890252 -25.118319983507785 a52.60897476641455,52.60897476641455 0 0,0 0.7129519543551388,0.5543957519578996 l -19.616829450880616 24.785223179929098" fill="#c6ff1e" stroke="none" /><path d="M 115.8921839302757 86.27271002978787 l 9.057726644809147 -7.82384854528012 a32.96891883302612,32.96891883302612 0 0,0 0.3662775237637024,0.43147400200191094 l -9.19069873207996 7.667207760828657" fill="#ff0000" stroke="none" /><path d="M 116.7966241395341 87.39550010848427 l 25.215754500200607 -18.922372270877148 a52.526028093815555,52.526028093815555 0 0,0 0.5350100632643037,0.7258439024757664 l -25.536866583048738 18.486722059132507" fill="#c7ff1e" stroke="none" /><path d="M 117.01052211995028 87.68569379921539 l 25.5419636695181 -18.490411956660225 a52.53232060001271,52.53232060001271 0 0,0 0.5225337434536274,0.7350091488610089 l -25.85561251150169 18.04922558108971" fill="#c7ff1e" stroke="none" /><path d="M 117.21940702142032 87.97951657250589 l 10.243366823159063 -7.15066558252308 a33.49234093942668,33.49234093942668 0 0,0 0.32505156293025794,0.47425994459889853 l -10.364608122904647 6.973770902854132" fill="#ff0901" stroke="none" /><path d="M 117.42321728460499 88.27688183743584 l 26.15262393059871 -17.59665253502936 a52.52145172567215,52.52145172567215 0 0,0 0.4968918519188574,0.752357595139331 l -26.450840221438295 17.14511506155097" fill="#c7ff1e" stroke="none" /><line stroke="#e1ed5e" stroke-width="0.3" x1="172.87174338648825" x2="177.1583165268699" y1="56.24261187166439" y2="53.66864786411523" /><path d="M 173.72905801456457 55.72781907015455 a86.0,86.0 0 0,1 12.242430191666344,42.057860355516425" fill="none" id="id39" stroke="none" /><text fill="#e1ed5e" style="font-size:6.75px; font-family:Arial;" text-anchor="middle"><textPath startOffset="22.145653131862474" xlink:href="#id39">March</textPath></text><line stroke="#e1ed5e" stroke-width="0.3" x1="184.99686870605535" x2="189.99668451229388" y1="99.2704041080226" y2="99.22748670261217" /><path d="M 185.99683186730306 99.26182062694052 a86.0,86.0 0 0,1 -10.086455211305974,41.156179273409016" fill="none" id="id40" stroke="none" /><text fill="#e1ed5e" style="font-size:6.75px; font-family:Arial;" text-anchor="middle"><textPath startOffset="21.40746469413373" xlink:href="#id40">April</textPath></text><line stroke="#e1ed5e" stroke-width="0.3" x1="174.33088141563837" x2="178.70328620479359" y1="141.23008692659167" y2="143.65538615756765" /><path d="M 175.20536237346943 141.71514677278685 a86.0,86.0 0 0,1 -30.301960400862466,31.631185727798858" fill="none" id="id41" stroke="none" /><text fill="#e1ed5e" style="font-size:6.75px; font-family:Arial;" text-anchor="middle"><textPath startOffset="22.145653131862474" xlink:href="#id41">May</textPath></text><line stroke="#e1ed5e" stroke-width="0.3" x1="143.1302829299769" x2="145.66735839644613" y1="173.24464959558577" y2="177.55315839532614" /><path d="M 143.63769802327073 174.10635135553383 a86.0,86.0 0 0,1 -40.68552437913181,11.842963189579606" fill="none" id="id42" stroke="none" /><text fill="#e1ed5e" style="font-size:6.75px; font-family:Arial;" text-anchor="middle"><textPath startOffset="21.407464694133747" xlink:href="#id42">June</textPath></text><line stroke="#e1ed5e" stroke-width="0.3" x1="101.45913802915013" x2="101.54496967792366" y1="184.9874750549273" y2="189.98673829345242" /><path d="M 101.47630435890484 185.9873277026323 a86.0,86.0 0 0,1 -42.54439059252881,-10.42667462771756" fill="none" id="id43" stroke="none" /><text fill="#e1ed5e" style="font-size:6.75px; font-family:Arial;" text-anchor="middle"><textPath startOffset="22.145653131862474" xlink:href="#id43">July</textPath></text><line stroke="#e1ed5e" stroke-width="0.3" x1="58.13341422392154" x2="55.67067388415222" y1="173.97424548756322" y2="178.32567169271397" /><path d="M 57.64086615596768 174.84453072859336 a86.0,86.0 0 0,1 -31.369924170532247,-30.572349798747897" fill="none" id="id44" stroke="none" /><text fill="#e1ed5e" style="font-size:6.75px; font-family:Arial;" text-anchor="middle"><textPath startOffset="22.145653131862474" xlink:href="#id44">August</textPath></text><line stroke="#e1ed5e" stroke-width="0.3" x1="26.387840678322732" x2="22.057713659400548" y1="142.50000000000003" y2="145.00000000000006" /><path d="M 25.521815274538298 143.00000000000003 a86.0,86.0 0 0,1 -11.493303480769221,-40.785679425670985" fill="none" id="id45" stroke="none" /><text fill="#e1ed5e" style="font-size:6.75px; font-family:Arial;" text-anchor="middle"><textPath startOffset="21.40746469413373" xlink:href="#id45">September</textPath></text><line stroke="#e1ed5e" stroke-width="0.3" x1="15.003131293944662" x2="10.003315487706104" y1="100.72959589197737" y2="100.7725132973878" /><path d="M 14.003168132696942 100.73817937305945 a86.0,86.0 0 0,1 10.791469493833604,-42.45332614584628" fill="none" id="id46" stroke="none" /><text fill="#e1ed5e" style="font-size:6.75px; font-family:Arial;" text-anchor="middle"><textPath startOffset="22.145653131862435" xlink:href="#id46">October</textPath></text><line stroke="#e1ed5e" stroke-width="0.3" x1="26.387840678322718" x2="22.05771365940052" y1="57.49999999999999" y2="54.99999999999999" /><path d="M 25.521815274538284 56.99999999999999 a86.0,86.0 0 0,1 29.574782752854787,-30.34633250058573" fill="none" id="id47" stroke="none" /><text fill="#e1ed5e" style="font-size:6.75px; font-family:Arial;" text-anchor="middle"><textPath startOffset="21.40746469413373" xlink:href="#id47">November</textPath></text><line stroke="#e1ed5e" stroke-width="0.3" x1="56.869717070023135" x2="54.33264160355391" y1="26.7553504044142" y2="22.446841604673864" /><path d="M 56.362301976729285 25.89364864446614 a86.0,86.0 0 0,1 42.16139366436587,-11.88097634709845" fill="none" id="id48" stroke="none" /><text fill="#e1ed5e" style="font-size:6.75px; font-family:Arial;" text-anchor="middle"><textPath startOffset="22.145653131862474" xlink:href="#id48">December</textPath></text></svg>