<?xml version="1.0" encoding="utf-8" ?>
<svg baseProfile="full" height="200mm" version="1.1" viewBox="0,0,200,200" width="200mm" xmlns="http://www.w3.org/2000/svg" xmlns:ev="http://www.w3.org/2001/xml-events" xmlns:xlink="http://www.w3.org/1999/xlink"><defs /><rect fill="#1a1a1a" height="200" width="200" x="0" y="0" /><text alignment-baseline="middle" fill="#e1ed5e" style="dominant-baseline: central; font-size:9.0px; font-family:Arial;" text-anchor="middle" x="100.0" y="100.0">2022</text><line stroke="#e1ed5e" stroke-width="0.3" x1="100.0" x2="100.0" y1="15.0" y2="10.0" /><path d="M 100.0 14.0 a86.0,86.0 0 0,1 42.46469731375804,11.215312516191453" fill="none" id="id13" stroke="none" /><text fill="#e1ed5e" style="font-size:6.75px; font-family:Arial;" text-anchor="middle"><textPath startOffset="22.20632615414155" xlink:href="#id13">January</textPath></text><path d="M 100.0 79.0 l 0.0 -5.005153094220798 a26.0051530942208,26.0051530942208 0 0,0 0.44763596209782897,0.0038529440494928994 l -0.0861554828253006 5.004411526779864" fill="#ff1d03" stroke="none" /><path d="M 101.44485096284872 79.0497635885617 l 0.44452101944856515 -6.445523231641505 a27.460833434345908,27.460833434345908 0 0,0 0.4712930370488047,0.036581410257717814 l -0.555404245859711 6.436916559195322" fill="#ff3304" stroke="none" /><line stroke="#e1ed5e" stroke-width="0.3" x1="143.23703022742887" x2="145.7803849466894" y1="26.81831364943548" y2="22.513508569990506" /><path d="M 143.74570117128098 25.957352633546492 a86.0,86.0 0 0,1 28.547481713284135,27.462654790039103" fill="none" id="id14" stroke="none" /><text fill="#e1ed5e" style="font-size:6.75px; font-family:Arial;" text-anchor="middle"><textPath startOffset="19.985693538727396" xlink:href="#id14">February</textPath></text><path d="M 113.06298171725822 83.55741782278167 l 4.449508568453417 -5.60066697394017 a28.153013145082603,28.153013145082603 0 0,0 0.3768436340596155,0.3047146776914326 l -4.545255601077523 5.523246198984608" fill="#ff3d05" stroke="none" /><path d="M 116.15771136456269 86.58626213691792 l 4.798715437905118 -3.9837765083957772 a27.2368377502413,27.2368377502413 0 0,0 0.296364690333349,0.3633080677932508 l -4.8665786203148755 3.9005842709944254" fill="#ff3004" stroke="none" /><line stroke="#e1ed5e" stroke-width="0.3" x1="172.23445277983987" x2="176.4835382374775" y1="55.19839476539836" y2="52.563006222186495" /><path d="M 173.08426987136738 54.67131705675599 a86.0,86.0 0 0,1 12.851231095245387,41.99856678651699" fill="none" id="id15" stroke="none" /><text fill="#e1ed5e" style="font-size:6.75px; font-family:Arial;" text-anchor="middle"><textPath startOffset="22.20632615414155" xlink:href="#id15">March</textPath></text><path d="M 120.83666639777658 97.38593545837742 l 13.048579391730957 -1.637009877458649 a34.150864058350045,34.150864058350045 0 0,0 0.06815479320513683,0.5839086467508245 l -13.074824537939683 1.4121574923829718" fill="#ff920d" stroke="none" /><line stroke="#e1ed5e" stroke-width="0.3" x1="184.98032266829074" x2="189.97916517819016" y1="98.17113171792111" y2="98.06355123074" /><path d="M 185.9800911702706 98.14961562048488 a86.0,86.0 0 0,1 -9.607161424134198,41.387399972396054" fill="none" id="id16" stroke="none" /><text fill="#e1ed5e" style="font-size:6.75px; font-family:Arial;" text-anchor="middle"><textPath startOffset="21.466115282336823" xlink:href="#id16">April</textPath></text><path d="M 120.41448212921028 104.9243191809786 l 22.57088335164846 5.44447971379682 a44.21825003370553,44.21825003370553 0 0,0 -0.18485057403006616,0.7383861560659851 l -22.473821463323336 -5.832193709260201" fill="#e9ff1a" stroke="none" /><line stroke="#e1ed5e" stroke-width="0.3" x1="174.80103733775053" x2="179.2010983576182" y1="140.37084112569926" y2="142.7455964860345" /><path d="M 175.68104954172406 140.8457921977663 a86.0,86.0 0 0,1 -30.038265399797805,32.042727171017184" fill="none" id="id17" stroke="none" /><text fill="#e1ed5e" style="font-size:6.75px; font-family:Arial;" text-anchor="middle"><textPath startOffset="22.206326154141568" xlink:href="#id17">May</textPath></text><path d="M 112.92097659922987 116.55440617244103 l 6.137610931140725 7.863531328473534 a30.975238989414883,30.975238989414883 0 0,0 -0.42313839019577887,0.3244444740555316 l -6.001343812451452 -7.968015144356437" fill="#ff6609" stroke="none" /><line stroke="#e1ed5e" stroke-width="0.3" x1="143.8653032363475" x2="146.44561519142675" y1="172.8068346515853" y2="177.08958963109032" /><path d="M 144.38136562736335 173.6633856474863 a86.0,86.0 0 0,1 -40.68145358897372,12.25698825130547" fill="none" id="id18" stroke="none" /><text fill="#e1ed5e" style="font-size:6.75px; font-family:Arial;" text-anchor="middle"><textPath startOffset="21.466115282336833" xlink:href="#id18">June</textPath></text><path d="M 109.2508944713604 118.85261126421891 l 11.669395153097819 23.781329599099994 a47.49011930400036,47.49011930400036 0 0,0 -0.7369727750633963,0.35379171779221646 l -11.25830971003419 -23.978675593391774" fill="#c2ff1e" stroke="none" /><path d="M 107.93186726928326 119.44442032107085 l 11.558767169055134 28.335512887220982 a51.602391884463756,51.602391884463756 0 0,0 -0.8253407552295057,0.3284201195977734 l -11.069305337783762 -28.530279851224822" fill="#92ff23" stroke="none" /><path d="M 107.59598834532513 119.57807347666477 l 18.612848192403984 47.973179124894365 a72.45740017900901,72.45740017900901 0 0,0 -1.1666668917529879,0.4411335907433533 l -17.78431107989072 -48.286460965744354" fill="#3effb7" stroke="none" /><line stroke="#e1ed5e" stroke-width="0.3" x1="102.19456741930631" x2="102.32365962044197" y1="184.97166512339345" y2="189.96999836594603" /><path d="M 102.22038585953345 185.97133177190398 a86.0,86.0 0 0,1 -42.740103519485714,-10.115201625700543" fill="none" id="id19" stroke="none" /><text fill="#e1ed5e" style="font-size:6.75px; font-family:Arial;" text-anchor="middle"><textPath startOffset="22.20632615414155" xlink:href="#id19">July</textPath></text><path d="M 100.54218724476979 120.99299961872073 l 0.7925476881868622 30.6867294950641 a51.69696237319398,51.69696237319398 0 0,0 -0.8897793386559195,0.015318358236458463 l -0.2642086596382746 -30.695825330579716" fill="#91ff24" stroke="none" /><path d="M 99.81925306533755 120.99922214144158 l -0.2556777647309683 29.704703917882295 a50.70580424712365,50.70580424712365 0 0,0 -0.8727200767296213,-0.015024667571724264 l 0.7669575313532575 -29.695901773031412" fill="#9cff22" stroke="none" /><path d="M 99.09653310690486 120.98055641714683 l -1.2220788315353797 28.37945038958829 a49.405750845305775,49.405750845305775 0 0,0 -0.8493364544831304,-0.04390099323009109 l 1.7104033544319992 -28.354209589595996" fill="#abff21" stroke="none" /><path d="M 98.73552117531835 120.96189622390904 l -0.8883019202866594 14.725824035239231 a35.7525921050646,35.7525921050646 0 0,0 -0.613986481512739,-0.04234410254699761 l 1.1416511625783285 -14.708351588175947" fill="#ffa80f" stroke="none" /><path d="M 98.37488393609728 120.93702456842531 l -1.1579851487400878 14.918788908417431 a35.96366238922215,35.96366238922215 0 0,0 -0.6167865411572934,-0.05321893807346612 l 1.414616007638923 -14.896645718065301" fill="#ffaa0f" stroke="none" /><path d="M 98.01472825383883 120.90594882070398 l -2.9334590609274627 30.890856686982243 a52.02982772942533,52.02982772942533 0 0,0 -0.8908680978917982,-0.0923421208863645 l 3.464759755424854 -30.835785197640117" fill="#8dff24" stroke="none" /><path d="M 97.65516085044442 120.86867818915974 l -3.2618746493186213 29.030141518624028 a50.21282154840929,50.21282154840929 0 0,0 -0.8580954602351604,-0.10390341007593089 l 3.761097532605171 -28.96969257982275" fill="#a2ff22" stroke="none" /><path d="M 97.2962882734958 120.8252237178851 l -1.9396019813598775 14.939701148427883 a36.06508301505281,36.06508301505281 0 0,0 -0.614946432579231,-0.0852259721508224 l 2.1964770051259395 -14.904100610784456" fill="#ffac0f" stroke="none" /><path d="M 96.93821686468263 120.77559828337769 l -2.1417172359075236 14.53253054292125 a35.689499538769944,35.689499538769944 0 0,0 -0.6070004419528092,-0.09480098543844169 l 2.39155354146885 -14.493511250135704" fill="#ffa70f" stroke="none" /><path d="M 96.22490169976321 120.6578951692458 l -2.6293143977650044 14.387996517232708 a35.62626876486942,35.62626876486942 0 0,0 -0.6023085325476906,-0.11543386376915121 l 2.8765905448843903 -14.340605455115089" fill="#ffa60f" stroke="none" /><path d="M 95.86986931433489 120.58985236759428 l -2.8936260923893498 14.425532406541997 a35.71288745198405,35.71288745198405 0 0,0 -0.6016916436915842,-0.12609033407384623 l 3.141509197510321 -14.37358609174161" fill="#ffa70f" stroke="none" /><path d="M 95.16358092515715 120.4354850818985 l -6.839057147765043 28.897299459506623 a50.69556564072821,50.69556564072821 0 0,0 -0.8474529426791713,-0.2082833148828823 l 7.335463375187425 -28.775294886309712" fill="#9dff22" stroke="none" /><path d="M 94.46302465271185 120.25689768951611 l -3.9272363053629133 14.367704215850054 a35.894767854260635,35.894767854260635 0 0,0 -0.5946033792675096,-0.16804085431361987 l 4.173970852735037 -14.297974568197914" fill="#ffa90f" stroke="none" /><path d="M 94.11515582081647 120.15858648285463 l -4.137666434114401 14.173613456809 a35.765215946373225,35.765215946373225 0 0,0 -0.5894874420756457,-0.177607730658169 l 4.381028850630292 -14.100290357045106" fill="#ffa80f" stroke="none" /><path d="M 93.76903079525671 120.05430185196036 l -4.411462061939595 14.198239293376975 a35.867783848170724,35.867783848170724 0 0,0 -0.588024398943672,-0.18826684334327687 l 4.655207805974207 -14.120199603373992" fill="#ffa90f" stroke="none" /><path d="M 93.42475214034765 119.94407469862007 l -4.626057235470802 14.031779947106003 a35.77468287408762,35.77468287408762 0 0,0 -0.5831788924939271,-0.19784594350778129 l 4.866905860901955 -13.950071016700099" fill="#ffa80f" stroke="none" /><path d="M 93.08242187328487 119.8279376855182 l -20.615828528353553 59.091398160996306 a83.584388808487,83.584388808487 0 0,0 -1.3543872642022723,-0.4856350861521777 l 21.62993535318555 -58.72777553380417" fill="#4cd6ff" stroke="none" /><path d="M 92.40401165467489 119.57807347666478 l -5.31825070464613 13.707380571083498 a35.70292735063281,35.70292735063281 0 0,0 -0.5710409914612506,-0.2272289954453823 l 5.553412772149239 -13.61380473123205" fill="#ffa70f" stroke="none" /><path d="M 92.06813273071674 119.44442032107085 l -4.801627884139436 11.770856424456777 a33.712540709980864,33.712540709980864 0 0,0 -0.5354330714110621,-0.2238110672747326 l 5.00353241504796 -11.686460314162073" fill="#ff8c0c" stroke="none" /><path d="M 91.7346041902142 119.30500536409082 l -5.815618954735424 13.583203720716334 a35.77581967760706,35.77581967760706 0 0,0 -0.5640302020203989,-0.24725426524602986 l 6.048569831413566 -13.481084902175851" fill="#ffa80f" stroke="none" /><path d="M 91.40352486487194 119.15986991738527 l -6.006081954535789 13.386387694163517 a35.67202766978896,35.67202766978896 0 0,0 -0.5580667973998018,-0.2561810952383255 l 6.23561674770301 -13.281019528591116" fill="#ffa60f" stroke="none" /><path d="M 91.07499286063937 119.00905698771935 l -6.294986629204999 13.407469339017407 a35.811721396872194,35.811721396872194 0 0,0 -0.5557422066831107,-0.26679003160617965 l 6.524841503888352 -13.297125030911666" fill="#ffa80f" stroke="none" /><path d="M 90.7491055286396 118.85261126421891 l -19.360969882059266 39.45616718628915 a64.9503843419646,64.9503843419646 0 0,0 -0.9994506140289846,-0.5011452861285324 l 20.037274403771008 -39.117054059251316" fill="#35ff61" stroke="none" /><path d="M 90.42595943632237 118.69057910512821 l -16.044384938851064 31.322078060794478 a56.19225571219517,56.19225571219517 0 0,0 -0.8570900339130288,-0.4483889971666477 l 16.581165875290587 -31.041259644683112" fill="#60ff29" stroke="none" /><line stroke="#e1ed5e" stroke-width="0.3" x1="58.666819895761336" x2="56.23545636021788" y1="174.27360380694188" y2="178.64263932499728" /><path d="M 58.180547188652646 175.14741091055294 a86.0,86.0 0 0,1 -31.652253787137756,-30.449443065178592" fill="none" id="id20" stroke="none" /><text fill="#e1ed5e" style="font-size:6.75px; font-family:Arial;" text-anchor="middle"><textPath startOffset="22.20632615414155" xlink:href="#id20">August</textPath></text><path d="M 89.7882731507175 118.34994917583269 l -6.1378522305540475 11.029405519924554 a33.62224291190197,33.62224291190197 0 0,0 -0.5032949294395754,-0.2857839961265875 l 6.326795926914831 -10.922118358003335" fill="#ff8b0c" stroke="none" /><path d="M 89.1626897886671 117.98757091392108 l -7.659771102919574 12.713549138243534 a35.842722965805656,35.842722965805656 0 0,0 -0.5257287716443844,-0.32294555073360903 l 7.877479074496267 -12.579815120681547" fill="#ffa90f" stroke="none" /><path d="M 88.8546689885994 117.79835938074946 l -7.845944214940956 12.52945602746011 a35.783305075930144,35.783305075930144 0 0,0 -0.5192297256925053,-0.3313969774411591 l 8.060455742680386 -12.392544621195148" fill="#ffa80f" stroke="none" /><path d="M 88.54995079064634 117.60387380957326 l -8.109638444306173 12.468160547136058 a35.87350876984072,35.87350876984072 0 0,0 -0.5147426589203274,-0.34114336627310166 l 8.323055801966463 -12.326719159771638" fill="#ffa90f" stroke="none" /><path d="M 88.24862548938628 117.40417183066458 l -16.64700696600642 24.654764380198028 a50.74861757408817,50.74861757408817 0 0,0 -0.7197679218737124,-0.4950629398590504 l 17.068931772503024 -24.364560650973875" fill="#9cff22" stroke="none" /><path d="M 87.95078237400918 117.19931262002967 l -20.24692516642095 28.90089683337301 a56.28738891541736,56.28738891541736 0 0,0 -0.7887543021213719,-0.5627552518379981 l 20.74140679639121 -28.548097319690793" fill="#5fff29" stroke="none" /><path d="M 87.65650970185807 116.9893568818739 l -8.732929944173723 12.019846887902052 a35.85734783258623,35.85734783258623 0 0,0 -0.4962230571942322,-0.36709395469446326 l 8.93853797178652 -11.867742984467823" fill="#ffa90f" stroke="none" /><path d="M 87.36589467227662 116.77436683061367 l -8.843777607022353 11.741929159244368 a35.69984022849171,35.69984022849171 0 0,0 -0.4876789789965138,-0.3739314453960421 l 9.044585314512354 -11.587958372020958" fill="#ffa70f" stroke="none" /><path d="M 87.07902340077011 116.55440617244103 l -9.098564253222095 11.657116401160307 a35.787570262224,35.787570262224 0 0,0 -0.4823525531701712,-0.3832100405777472 l 9.297874299109626 -11.49877244657743" fill="#ffa80f" stroke="none" /><path d="M 86.79598089348748 116.32954008644616 l -9.293412545704207 11.493254552328574 a35.780474178769566,35.780474178769566 0 0,0 -0.47559043610143004,-0.3913785508794275 l 9.489873110350327 -11.331580882591966" fill="#ffa80f" stroke="none" /><path d="M 86.51685102203217 116.09983520530335 l -40.3315584104143 48.15873836607291 a83.816388664301,83.816388664301 0 0,0 -1.0981324833421264,-0.9358523257796225 l 41.15455637033349 -47.45736165007034" fill="#4dd4ff" stroke="none" /><path d="M 85.97065885151581 115.62618273729859 l -19.730345678559143 21.9760845345575 a50.533622061397324,50.533622061397324 0 0,0 -0.6422593569170781,-0.5866886947213739 l 20.105704584943076 -21.63320307324955" fill="#9eff22" stroke="none" /><path d="M 85.44109423537348 115.13401014063109 l -10.253402828890058 10.658431677291537 a35.789673268567576,35.789673268567576 0 0,0 -0.44029827587567605,-0.43092453344724624 l 10.435351057141528 -10.48035704092172" fill="#ffa80f" stroke="none" /><path d="M 84.9287848128048 114.62390073753433 l -10.574833890839276 10.26097227162792 a35.73481129088391,35.73481129088391 0 0,0 -0.42455244308499024,-0.44514153923631206 l 10.749892885303224 -10.077423615809108" fill="#ffa70f" stroke="none" /><path d="M 84.67929136418377 114.36230785411682 l -10.742295619442995 10.070301603784214 a35.72439776584031,35.72439776584031 0 0,0 -0.41670569309199706,-0.4522517294774434 l 10.914047720530721 -9.883898619505427" fill="#ffa70f" stroke="none" /><path d="M 84.43433777217949 114.09645910891817 l -22.76491489602779 20.61619269730169 a51.71268063122565,51.71268063122565 0 0,0 -0.5918421500322318,-0.6649409296367733 l 23.11641589570836 -20.22127759792405" fill="#91ff24" stroke="none" /><path d="M 84.19399662182784 113.82643327865904 l -11.36978535939714 9.945814568246547 a36.10600034902379,36.10600034902379 0 0,0 -0.405173782461311,-0.47130864539758094 l 11.539301651429229 -9.748628823687435" fill="#ffac0f" stroke="none" /><path d="M 83.95833913139862 113.55231037782056 l -11.341534804218748 9.581551504337948 a35.84710547364657,35.84710547364657 0 0,0 -0.394154287909681,-0.4747842310738319 l 11.504785092021965 -9.384906016150357" fill="#ffa90f" stroke="none" /><path d="M 83.50135304334701 112.99209946851258 l -11.663539069541155 9.184623450910086 a35.84572165850217,35.84572165850217 0 0,0 -0.377563298226634,-0.4880514590027126 l 11.819909184985857 -8.982493997794121" fill="#ffa90f" stroke="none" /><path d="M 83.28015986056508 112.70617746262583 l -11.732724833640116 8.916238589194244 a35.73621873485027,35.73621873485027 0 0,0 -0.3679787939205425,-0.4929677286916331 l 11.884464894255744 -8.712957980993302" fill="#ffa70f" stroke="none" /><path d="M 83.06392112726016 112.41649034213515 l -46.033249476395596 33.74874443108315 a78.07922396135604,78.07922396135604 0 0,0 -0.7853290426794793,-1.0907533534626723 l 46.60735831145068 -32.95135747216934" fill="#45fff2" stroke="none" /><path d="M 82.85270091963577 112.12312394758628 l -5.164766380690786 3.651484860676438 a27.32519987469669,27.32519987469669 0 0,0 -0.26822818637063567,-0.38640270787035863 l 5.226855474223555 -3.562040890619067" fill="#ff3104" stroke="none" /><path d="M 82.6465618267979 111.8261652097733 l -12.572724816691816 8.568164955854279 a36.21469224226989,36.21469224226989 0 0,0 -0.34662098472392194,-0.5181513420094729 l 12.718348906826467 -8.350476699638984" fill="#ffae10" stroke="none" /><path d="M 82.44556493220864 111.52570212397912 l -12.419030132018067 8.153953198584498 a35.856623512247964,35.856623512247964 0 0,0 -0.33431202378182984,-0.5188596850057567 l 12.557547019176942 -7.9389719136572925" fill="#ffa90f" stroke="none" /><path d="M 82.24976979558568 111.22182372390057 l -12.418552874415536 7.851098811550767 a35.69218186803404,35.69218186803404 0 0,0 -0.32383917777441507,-0.5221318672113455 l 12.551856691857907 -7.6361706129741584" fill="#ffa70f" stroke="none" /><line stroke="#e1ed5e" stroke-width="0.3" x1="26.63291911575756" x2="22.317208475507996" y1="142.92168965132927" y2="145.44649492493687" /><path d="M 25.769776987707644 143.4266507060508 a86.0,86.0 0 0,1 -11.730757126820373,-40.83630448921669" fill="none" id="id21" stroke="none" /><text fill="#e1ed5e" style="font-size:6.75px; font-family:Arial;" text-anchor="middle"><textPath startOffset="21.46611528233685" xlink:href="#id21">September</textPath></text><path d="M 81.87401531095188 110.60418214915194 l -12.77097959608854 7.471362035401648 a35.7959173594526,35.7959173594526 0 0,0 -0.30656306109485804,-0.534518537296212 l 12.897694653335776 -7.250423652247129" fill="#ffa80f" stroke="none" /><path d="M 81.69416730710424 110.29060199501025 l -12.852074187516516 7.2247781618480404 a35.74358268567531,35.74358268567531 0 0,0 -0.2968820967191472,-0.5389272407795209 l 12.97453269368718 -7.002480402670697" fill="#ffa70f" stroke="none" /><path d="M 81.51974371655577 109.97397251340807 l -31.17547643507492 16.825705243839103 a56.426186471400875,56.426186471400875 0 0,0 -0.45395536546562115,-0.8587124739147657 l 31.460484308765427 -16.28657775483821" fill="#5dff2a" stroke="none" /><path d="M 81.35079622478065 109.6543875284942 l -26.42996244506806 13.682358929837678 a50.76155003914643,50.76155003914643 0 0,0 -0.39502476338610926,-0.7794213341698177 l 26.661565878240435 -13.225383383965175" fill="#9cff22" stroke="none" /><path d="M 80.73074385275274 108.34839909993369 l -13.536396456896634 5.864639461614363 a35.75222102101945,35.75222102101945 0 0,0 -0.2397935833812562,-0.566801197233868 l 13.635341021470197 -5.630763738714337" fill="#ffa80f" stroke="none" /><path d="M 80.58989483394504 108.01547362559985 l -13.67417132620735 5.646798854486866 a35.794231942264034,35.794231942264034 0 0,0 -0.23027176952688455,-0.5715156475153514 l 13.769345709991622 -5.410583839128709" fill="#ffa80f" stroke="none" /><path d="M 80.45479744820244 107.68017299344265 l -27.630252068337114 10.85714589935213 a50.68683961690207,50.68683961690207 0 0,0 -0.31209991960913264,-0.81479440601779 l 27.813046267539757 -10.379927926501182" fill="#9dff22" stroke="none" /><path d="M 80.32549172779594 107.34259656027581 l -27.863295717482377 10.39868120018913 a50.74047442363754,50.74047442363754 0 0,0 -0.2983436941144836,-0.8209137126850297 l 28.038163672602085 -9.917519690497983" fill="#9cff22" stroke="none" /><path d="M 79.23777060512086 103.15116336523772 l -37.101491016771696 5.631035909688156 a58.52638006900997,58.52638006900997 0 0,0 -0.14259798937114765,-0.9973300055376787 l 37.19292305715944 -4.991560432170076" fill="#47ff2c" stroke="none" /><line stroke="#e1ed5e" stroke-width="0.3" x1="15.007084014347285" x2="10.007500721073583" y1="101.09737516637583" y2="101.16192664675087" /><path d="M 14.007167355692545 101.11028546245083 a86.0,86.0 0 0,1 10.666146001902534,-42.60595125391555" fill="none" id="id22" stroke="none" /><text fill="#e1ed5e" style="font-size:6.75px; font-family:Arial;" text-anchor="middle"><textPath startOffset="22.20632615414155" xlink:href="#id22">October</textPath></text><path d="M 79.00486145842228 99.54816195383935 l -18.908739419830752 -0.40693648474372623 a39.9131177691484,39.9131177691484 0 0,0 0.020694581976110005,-0.6867524266350108 l 18.898933143398995 0.7323590588037315" fill="#ffde14" stroke="none" /><path d="M 79.01574976396665 99.18683210126434 l -19.66264995724016 -0.7619541117484346 a40.67740779191626,40.67740779191626 0 0,0 0.03313541303496418,-0.699436198334649 l 19.646620935971693 1.1003014167060927" fill="#ffe815" stroke="none" /><path d="M 79.03285615573316 98.82574320788736 l -11.269744108299145 -0.6311576656712952 a32.28740414202836,32.28740414202836 0 0,0 0.0358534848854173,-0.5546375420493568 l 11.257210032409315 0.8250542719736638" fill="#ff780b" stroke="none" /><path d="M 79.05617556472873 98.46500227214037 l -18.62665334004915 -1.365169510610165 a39.6766137841704,39.6766137841704 0 0,0 0.05578440487009945,-0.6807110361313627 l 18.600394451359552 1.6855944639493061" fill="#ffdb14" stroke="none" /><path d="M 79.08570108090925 98.10471618934814 l -20.82187842002292 -1.8869085322677555 a41.90720078698631,41.90720078698631 0 0,0 0.07128788889157711,-0.7178593125124538 l 20.786313405449114 2.2450433754846397" fill="#fff817" stroke="none" /><path d="M 79.12142395522702 97.74499172005258 l -15.649343404235388 -1.690220581931219 a36.74035560587084,36.74035560587084 0 0,0 0.0733226349506981,-0.6281835588790091 l 15.617930416281101 1.9593478791350898" fill="#ffb510" stroke="none" /><path d="M 79.16333360222342 97.38593545837743 l -30.702244229327846 -3.851750873003655 a51.94291171665943,51.94291171665943 0 0,0 0.1189344293296526,-0.8861996441825605 l 30.631393800940362 4.379668859250875" fill="#8eff24" stroke="none" /><path d="M 79.21141760316559 97.0276538004421 l -14.525791220030682 -2.0768939172593286 a35.673516923746305,35.673516923746305 0 0,0 0.09214657397174049,-0.6071307910782217 l 14.487888752619638 2.3266238207296426" fill="#ffa60f" stroke="none" /><path d="M 79.26566170972629 96.67025291283419 l -14.528401193120482 -2.3331297520433485 a35.71454843575346,35.71454843575346 0 0,0 0.10270167127052295,-0.6061510774469165 l 14.486087660329735 2.582866617806093" fill="#ffa70f" stroke="none" /><path d="M 79.32604984820605 96.31383870115002 l -14.549473372004469 -2.594168277893301 a35.77893380649277,35.77893380649277 0 0,0 0.11332428006742123,-0.6053828355458268 l 14.502663368027186 2.844229190901701" fill="#ffa80f" stroke="none" /><path d="M 79.46518482838121 95.60439243477599 l -14.391228582904338 -3.080533849620987 a35.717239854132416,35.717239854132416 0 0,0 0.13386415511022598,-0.6000867592361022 l 14.336070040792075 3.327798778407048" fill="#ffa70f" stroke="none" /><path d="M 79.62865764111835 94.90015583598534 l -61.114027076644945 -15.299532492043955 a84.0,84.0 0 0,0 0.3632146725187706,-1.3996142978045447 l 60.84161607225587 16.349243215397365" fill="#4dd2ff" stroke="none" /><path d="M 79.91906864156998 93.8553929516997 l -14.160670392457913 -4.333053758765359 a35.80877918128921,35.80877918128921 0 0,0 0.18542896994859565,-0.5878605077725109 l 14.083985938741113 4.576164432964283" fill="#ffa80f" stroke="none" /><path d="M 80.02781315780177 93.51064311812611 l -14.138086825830568 -4.59374287676332 a35.86566422036155,35.86566422036155 0 0,0 0.19583114857997955,-0.5855102083950686 l 14.056918383478816 4.8364261880807105" fill="#ffa90f" stroke="none" /><path d="M 80.2630227832202 92.82701384747504 l -28.792188013705857 -10.463910641170765 a51.634678332291884,51.634678332291884 0 0,0 0.31078030549505364,-0.8327367084799834 l 28.607803119709175 10.95797048668009" fill="#92ff23" stroke="none" /><path d="M 80.38941819471856 92.48833698450439 l -27.349150364406718 -10.475854481900933 a50.28684948540713,50.28684948540713 0 0,0 0.31658313609997074,-0.805669550001057 l 27.164773678425057 10.945073036797753" fill="#a1ff22" stroke="none" /><path d="M 80.52162464483688 92.15188598940014 l -14.022242614562563 -5.649760655947538 a36.11764146324244,36.11764146324244 0 0,0 0.2373072020355829,-0.5746582127675798 l 13.92291372564078 5.8902934391684285" fill="#ffac10" stroke="none" /><path d="M 80.65960295795068 91.81776055985345 l -13.618516521944983 -5.761513724867064 a35.787123880603694,35.787123880603694 0 0,0 0.24490200807874313,-0.5652676001895993 l 13.51732380402356 5.995080469643263" fill="#ffa80f" stroke="none" /><path d="M 80.95270993114464 91.15688171328213 l -13.468000395508584 -6.252811825330842 a35.84872689412855,35.84872689412855 0 0,0 0.264669112673308,-0.5574606503289956 l 13.358373088993526 6.48371489130037" fill="#ffa90f" stroke="none" /><path d="M 81.10775173730289 90.83032412892265 l -13.255267654908417 -6.433670905112979 a35.73411829457598,35.73411829457598 0 0,0 0.2733489666648524,-0.5510548368162986 l 13.142558675290152 6.660885330428239" fill="#ffa70f" stroke="none" /><path d="M 81.26839172434947 90.50648371742162 l -27.112530199974557 -13.741118388106884 a51.39584886790467,51.39584886790467 0 0,0 0.40673834555115185,-0.7856890213896501 l 26.87198242126329 14.20578013175687" fill="#95ff23" stroke="none" /><line stroke="#e1ed5e" stroke-width="0.3" x1="26.266209847984243" x2="21.928928074336255" y1="57.711370442889674" y2="55.22380399835377" /><path d="M 25.398753493254645 57.213857153982495 a86.0,86.0 0 0,1 29.58750427330803,-30.492523968695096" fill="none" id="id23" stroke="none" /><text fill="#e1ed5e" style="font-size:6.75px; font-family:Arial;" text-anchor="middle"><textPath startOffset="21.46611528233685" xlink:href="#id23">November</textPath></text><path d="M 81.78341655067845 89.55222093294921 l -12.84193410125254 -7.365249946938264 a35.80412706787492,35.80412706787492 0 0,0 0.3112236671559875,-0.5319821318035363 l 12.713250759626227 7.585211491095692" fill="#ffa80f" stroke="none" /><path d="M 82.34701348167596 88.62581576622439 l -12.413504577039904 -7.998277679502433 a35.767110134437864,35.767110134437864 0 0,0 0.3379197616283953,-0.5146749803023067 l 12.273988180053589 8.210770723782407" fill="#ffa80f" stroke="none" /><path d="M 83.17141714833178 87.43820079747576 l -11.912062802465758 -8.89183256435639 a35.864788143880055,35.864788143880055 0 0,0 0.37354724123008065,-0.4915443827433495 l 11.75723962101157 9.095561722980765" fill="#ffa90f" stroke="none" /><path d="M 83.39014120810768 87.1503855733568 l -11.643270536953466 -9.007393677421032 a35.72069596373531,35.72069596373531 0 0,0 0.3804184709825148,-0.48309282604721415 l 11.486497985376982 9.206478897421293" fill="#ffa70f" stroke="none" /><path d="M 83.6137871275137 86.86637796730984 l -23.215026695460597 -18.606946490298412 a50.75157007896855,50.75157007896855 0 0,0 0.5522290615492834,-0.6769675331601849 l 22.891299141834924 19.00379819306668" fill="#9cff22" stroke="none" /><path d="M 84.07557802195018 86.31012108654704 l -23.396494704469617 -20.113457175709524 a51.853640368931764,51.853640368931764 0 0,0 0.5876946814721024,-0.6718366142206388 l 23.04680815941967 20.513209346133106" fill="#8fff24" stroke="none" /><path d="M 84.31358615837235 86.03803664274999 l -21.99890736263341 -19.580507157189405 a50.45077563804512,50.45077563804512 0 0,0 0.582961978305941,-0.6437211767763418 l 21.658601743711422 19.956281121235303" fill="#9fff22" stroke="none" /><path d="M 85.83668400450813 84.49514656593479 l -20.386594551420007 -22.317595726882768 a51.227277688084385,51.227277688084385 0 0,0 0.6561702301649881,-0.5891161114154184 l 19.99941333365905 22.665210847067467" fill="#96ff23" stroke="none" /><path d="M 86.37877921826538 84.01681056812374 l -9.678188406848472 -11.356421068475536 a35.920979536309645,35.920979536309645 0 0,0 0.47405851159686896,-0.3970103702694295 l 9.481272358292491 11.521332596138777" fill="#ffaa0f" stroke="none" /><path d="M 86.65592168130627 83.78471172551755 l -9.494874796870315 -11.537861835364415 a35.942386126057706,35.942386126057706 0 0,0 0.48110869464367956,-0.38902310553481373 l 9.294862703662135 11.699591038163362" fill="#ffaa0f" stroke="none" /><path d="M 86.93701828274178 83.55741782278169 l -9.345572567694196 -11.763420347932753 a36.0239071116736,36.0239071116736 0 0,0 0.4888400363232296,-0.3815474022024514 l 9.141699976211543 11.922546139358426" fill="#ffab0f" stroke="none" /><path d="M 87.51073957382395 83.11751280151077 l -16.319749383958584 -22.060390339829862 a48.44075512628753,48.44075512628753 0 0,0 0.6746059864782069,-0.49012993882342826 l 15.937598081126595 22.33803951346996" fill="#b7ff1f" stroke="none" /><line stroke="#e1ed5e" stroke-width="0.3" x1="56.762969772571076" x2="54.21961505331055" y1="26.818313649435495" y2="22.513508569990535" /><path d="M 56.25429882871897 25.957352633546506 a86.0,86.0 0 0,1 42.265352541879196,-11.944610805530505" fill="none" id="id24" stroke="none" /><text fill="#e1ed5e" style="font-size:6.75px; font-family:Arial;" text-anchor="middle"><textPath startOffset="22.20632615414155" xlink:href="#id24">December</textPath></text><path d="M 91.56875222667455 80.76684994638697 l -1.2590337243372012 -2.8720760193227846 a24.135918777613256,24.135918777613256 0 0,0 0.38194084906927495,-0.16352713889193654 l 1.209409117477618 2.893322686177507" fill="#ff0200" stroke="none" /><path d="M 91.90106846888425 80.62456947434976 l -2.2610544684617557 -5.409220166892361 a26.862766422369724,26.862766422369724 0 0,0 0.4281619632879418,-0.17465801533180603 l 2.1676086355854336 5.447339068407744" fill="#ff2a04" stroke="none" /><path d="M 92.23578459929587 80.48803036053334 l -2.1851724128557204 -5.491477963475122 a26.910271457153094,26.910271457153094 0 0,0 0.43186735788044206,-0.167557825395648 l 2.090321889975602 5.528278492761321" fill="#ff2b04" stroke="none" /><path d="M 92.57280143429618 80.3572730644239 l -4.198482299677118 -11.103734554401575 a32.87098035864408,32.87098035864408 0 0,0 0.5309722622302284,-0.19556156523864537 l 4.00672771167432 11.174359387446541" fill="#ff800b" stroke="none" /><path d="M 92.91201910852362 80.23233633223022 l -4.112136659180202 -11.468334308340532 a33.183281976201414,33.183281976201414 0 0,0 0.5393357763199986,-0.18816366222247868 l 3.914118878796918 11.537418823735221" fill="#ff840c" stroke="none" /><path d="M 93.25333710446033 80.11325718540243 l -4.8477342562941494 -14.289382155461121 a36.0892998447396,36.0892998447396 0 0,0 0.5900036461877836,-0.194514925881804 l 4.601047787863957 14.37071080560216" fill="#ffac0f" stroke="none" /><path d="M 93.59665428221793 80.00007090966166 l -0.9258069610654216 -2.8916248456226508 a24.03621685275927,24.03621685275927 0 0,0 0.3951263639175901,-0.12276768464577777 l 0.8758952244371028 2.9071326651509537" fill="#ff0000" stroke="none" /><path d="M 93.94186890950719 79.89281104454417 l -4.329734342006935 -14.37056828933322 a36.008658581990055,36.008658581990055 0 0,0 0.5950169892670488,-0.17370177560722044 l 4.081727135016465 14.442968393859138" fill="#ffab0f" stroke="none" /><path d="M 94.28887869178378 79.79150937346287 l -1.603757818865639 -5.674809393937466 a26.897075614157714,26.897075614157714 0 0,0 0.4466222400174255,-0.12207872944962152 l 1.505837689624491 5.701574664213384" fill="#ff2b04" stroke="none" /><path d="M 94.63758080256005 79.69619591428918 l -4.0489886320768305 -15.330743253008958 a36.85641818420437,36.85641818420437 0 0,0 0.6147845564207307,-0.15672227218080373 l 3.7844951869711 15.398168521358626" fill="#ffb610" stroke="none" /><path d="M 95.33964822691252 79.52364482259891 l -3.343499210073935 -14.690452715649261 a36.06613380925882,36.06613380925882 0 0,0 0.6065246460186877,-0.13256279552109657 l 3.0901318399017264 14.745829009266226" fill="#ffac0f" stroke="none" /><path d="M 95.692805502759 79.44645832069477 l -3.0865231375311772 -14.728608608694856 a36.04853935193165,36.04853935193165 0 0,0 0.6084196779033506,-0.12204326367225395 l 2.83253705016069 14.77955582844432" fill="#ffac0f" stroke="none" /><path d="M 96.04723909329186 79.375362276772 l -1.1157826974745377 -5.821908902763198 a26.927865914480265,26.927865914480265 0 0,0 0.45598478559410865,-0.08332830498592465 l 1.0154027907775358 5.840252689099859" fill="#ff2b04" stroke="none" /><path d="M 96.75951476605007 79.25152402106235 l -0.9167129836237266 -5.869613945783252 a26.940768516520194,26.940768516520194 0 0,0 0.4588025958380417,-0.06761557627443449 l 0.8155414073570361 5.884524006218655" fill="#ff2b04" stroke="none" /><path d="M 97.11714578562143 79.19881850522333 l -0.807852557522138 -5.8290452518286155 a26.88475949402869,26.88475949402869 0 0,0 0.45894239553418203,-0.059583894675285284 l 0.7073954334800983 5.842087469668038" fill="#ff2a04" stroke="none" /><path d="M 97.47563105711357 79.15227682838746 l -2.2564885030294506 -18.63540897365606 a39.7715265223616,39.7715265223616 0 0,0 0.6803455513846971,-0.0764447498616157 l 1.9353762481350354 18.671489676988273" fill="#ffdd14" stroke="none" /><path d="M 98.19473922651362 79.07773832637324 l -0.5012690283742286 -5.8095107003716056 a26.83109639918081,26.83109639918081 0 0,0 0.46048525582998634,-0.03574251842681807 l 0.40119358318190806 5.817278480986886" fill="#ff2a04" stroke="none" /><path d="M 98.91598698831166 79.02799685794201 l -0.3058582328447123 -5.917327330096494 a26.92522674588119,26.92522674588119 0 0,0 0.4630615466319599,-0.019940404273812974 l 0.20395585382342826 5.921715460894499" fill="#ff2b04" stroke="none" /><path d="M 99.27714615592234 79.0124445844662 l -0.5197210213557604 -15.089736086607779 a36.09868355531409,36.09868355531409 0 0,0 0.6211953686390067,-0.016043643667091916 l 0.2598990175218747 15.09644652241723" fill="#ffac0f" stroke="none" /><path d="M 99.63851952072746 79.00311137660856 l -0.309870861478187 -17.999101857963286 a39.00176901429775,39.00176901429775 0 0,0 0.6713513407507183,-0.00577853294302391 l 4.409161760469949e-15 18.00176901429775" fill="#ffd313" stroke="none" /></svg>